M48
; DRILL file {KiCad 7.0.5} date Mon Nov 13 21:41:25 2023
; FORMAT={-:-/ absolute / inch / decimal}
; #@! TF.CreationDate,2023-11-13T21:41:25+01:00
; #@! TF.GenerationSoftware,Kicad,Pcbnew,7.0.5
; #@! TF.FileFunction,Plated,1,2,PTH
FMAT,2
INCH
; #@! TA.AperFunction,Plated,PTH,ViaDrill
T1C0.0157
; #@! TA.AperFunction,Plated,PTH,ComponentDrill
T2C0.0315
; #@! TA.AperFunction,Plated,PTH,ComponentDrill
T3C0.0354
; #@! TA.AperFunction,Plated,PTH,ComponentDrill
T4C0.0374
; #@! TA.AperFunction,Plated,PTH,ComponentDrill
T5C0.0390
; #@! TA.AperFunction,Plated,PTH,ComponentDrill
T6C0.0394
; #@! TA.AperFunction,Plated,PTH,ComponentDrill
T7C0.0512
; #@! TA.AperFunction,Plated,PTH,ComponentDrill
T8C0.0906
%
G90
G05
T1
X4.837Y-3.287
X4.887Y-3.127
X4.989Y-3.487
X5.0116Y-2.96
X6.337Y-3.619
T2
X4.0766Y-2.763
X4.113Y-3.297
X4.2734Y-2.763
X4.431Y-2.749
X4.431Y-2.8474
X4.431Y-2.999
X4.431Y-3.0974
X4.513Y-3.297
X4.601Y-2.8274
X4.601Y-3.0196
X4.647Y-3.617
X5.047Y-3.617
X5.557Y-2.627
X5.557Y-2.727
X5.567Y-2.497
X5.667Y-2.497
X5.767Y-2.497
X5.857Y-2.627
X5.857Y-2.727
X5.867Y-2.497
X5.967Y-2.497
X6.067Y-2.497
X6.167Y-2.497
X6.267Y-2.497
X6.367Y-2.497
T3
X4.687Y-3.807
X4.787Y-3.807
X5.681Y-2.197
X5.681Y-2.297
X5.793Y-2.197
X5.793Y-2.297
X5.905Y-2.197
X5.905Y-2.297
X6.017Y-2.197
X6.017Y-2.297
X6.129Y-2.197
X6.129Y-2.297
X6.241Y-2.197
X6.241Y-2.297
X6.353Y-2.197
X6.353Y-2.297
X6.465Y-2.197
X6.465Y-2.297
T4
X4.4835Y-2.2998
X4.4835Y-2.3982
X4.5622Y-2.2998
X4.5622Y-2.3982
T5
X4.053Y-2.9578
X4.053Y-3.135
T6
X4.369Y-3.485
X4.369Y-3.585
X4.369Y-3.685
X4.469Y-3.485
X4.469Y-3.585
X4.469Y-3.685
X4.677Y-1.937
X4.777Y-1.937
X4.877Y-1.937
X4.977Y-1.937
X5.037Y-3.837
X5.077Y-1.937
X5.137Y-3.837
X5.177Y-1.937
X5.237Y-3.837
X5.277Y-1.937
X5.337Y-3.837
X5.377Y-1.937
X5.437Y-3.837
X5.477Y-1.937
X5.537Y-3.837
X5.577Y-1.937
X5.637Y-3.837
X5.737Y-1.937
X5.737Y-3.837
X5.837Y-1.937
X5.937Y-1.937
X5.937Y-3.837
X6.037Y-1.937
X6.037Y-3.837
X6.137Y-1.937
X6.137Y-3.837
X6.237Y-1.937
X6.237Y-3.837
X6.337Y-1.937
X6.337Y-3.837
X6.437Y-1.937
X6.437Y-3.837
T7
X4.151Y-2.9082
X4.151Y-3.1842
T8
X4.3709Y-2.1128
X4.3709Y-2.5852
T2
G00X5.137Y-2.9291
M15
G01X5.137Y-2.9449
M16
G05
G00X5.137Y-3.2291
M15
G01X5.137Y-3.2449
M16
G05
G00X5.237Y-2.9291
M15
G01X5.237Y-2.9449
M16
G05
G00X5.237Y-3.2291
M15
G01X5.237Y-3.2449
M16
G05
G00X5.337Y-2.9291
M15
G01X5.337Y-2.9449
M16
G05
G00X5.337Y-3.2291
M15
G01X5.337Y-3.2449
M16
G05
G00X5.437Y-2.9291
M15
G01X5.437Y-2.9449
M16
G05
G00X5.437Y-3.2291
M15
G01X5.437Y-3.2449
M16
G05
G00X5.537Y-2.9291
M15
G01X5.537Y-2.9449
M16
G05
G00X5.537Y-3.2291
M15
G01X5.537Y-3.2449
M16
G05
G00X5.637Y-2.9291
M15
G01X5.637Y-2.9449
M16
G05
G00X5.637Y-3.2291
M15
G01X5.637Y-3.2449
M16
G05
G00X5.737Y-2.9291
M15
G01X5.737Y-2.9449
M16
G05
G00X5.737Y-3.2291
M15
G01X5.737Y-3.2449
M16
G05
G00X5.837Y-2.9291
M15
G01X5.837Y-2.9449
M16
G05
G00X5.837Y-3.2291
M15
G01X5.837Y-3.2449
M16
G05
G00X5.937Y-2.9291
M15
G01X5.937Y-2.9449
M16
G05
G00X5.937Y-3.2291
M15
G01X5.937Y-3.2449
M16
G05
G00X6.037Y-2.9291
M15
G01X6.037Y-2.9449
M16
G05
G00X6.037Y-3.2291
M15
G01X6.037Y-3.2449
M16
G05
G00X6.137Y-2.9291
M15
G01X6.137Y-2.9449
M16
G05
G00X6.137Y-3.2291
M15
G01X6.137Y-3.2449
M16
G05
G00X6.237Y-2.9291
M15
G01X6.237Y-2.9449
M16
G05
G00X6.237Y-3.2291
M15
G01X6.237Y-3.2449
M16
G05
G00X6.337Y-2.9291
M15
G01X6.337Y-2.9449
M16
G05
G00X6.337Y-3.2291
M15
G01X6.337Y-3.2449
M16
G05
G00X6.437Y-2.9291
M15
G01X6.437Y-2.9449
M16
G05
G00X6.437Y-3.2291
M15
G01X6.437Y-3.2449
M16
G05
T0
M30
