%TF.GenerationSoftware,KiCad,Pcbnew,7.0.5*%
%TF.CreationDate,2023-11-13T21:41:29+01:00*%
%TF.ProjectId,atmega328p_dev_board,61746d65-6761-4333-9238-705f6465765f,rev?*%
%TF.SameCoordinates,Original*%
%TF.FileFunction,Soldermask,Bot*%
%TF.FilePolarity,Negative*%
%FSLAX46Y46*%
G04 Gerber Fmt 4.6, Leading zero omitted, Abs format (unit mm)*
G04 Created by KiCad (PCBNEW 7.0.5) date 2023-11-13 21:41:29*
%MOMM*%
%LPD*%
G01*
G04 APERTURE LIST*
%ADD10R,1.600000X2.400000*%
%ADD11O,1.600000X2.400000*%
%ADD12C,4.000000*%
%ADD13C,1.600000*%
%ADD14R,1.600000X1.600000*%
%ADD15R,1.800000X1.800000*%
%ADD16C,1.800000*%
%ADD17R,1.700000X1.700000*%
%ADD18O,1.700000X1.700000*%
%ADD19O,1.600000X1.600000*%
%ADD20C,3.200000*%
%ADD21C,1.500000*%
%ADD22C,2.100000*%
%ADD23C,1.750000*%
G04 APERTURE END LIST*
D10*
%TO.C,U1*%
X163500000Y-74600000D03*
D11*
X160960000Y-74600000D03*
X158420000Y-74600000D03*
X155880000Y-74600000D03*
X153340000Y-74600000D03*
X150800000Y-74600000D03*
X148260000Y-74600000D03*
X145720000Y-74600000D03*
X143180000Y-74600000D03*
X140640000Y-74600000D03*
X138100000Y-74600000D03*
X135560000Y-74600000D03*
X133020000Y-74600000D03*
X130480000Y-74600000D03*
X130480000Y-82220000D03*
X133020000Y-82220000D03*
X135560000Y-82220000D03*
X138100000Y-82220000D03*
X140640000Y-82220000D03*
X143180000Y-82220000D03*
X145720000Y-82220000D03*
X148260000Y-82220000D03*
X150800000Y-82220000D03*
X153340000Y-82220000D03*
X155880000Y-82220000D03*
X158420000Y-82220000D03*
X160960000Y-82220000D03*
X163500000Y-82220000D03*
%TD*%
D12*
%TO.C,J5*%
X111020700Y-53664800D03*
X111020700Y-65664800D03*
D13*
X113880700Y-60914800D03*
X113880700Y-58414800D03*
X115880700Y-58414800D03*
D14*
X115880700Y-60914800D03*
%TD*%
D15*
%TO.C,D8*%
X144297600Y-58344000D03*
D16*
X144297600Y-55804000D03*
%TD*%
D15*
%TO.C,D7*%
X147142400Y-58344000D03*
D16*
X147142400Y-55804000D03*
%TD*%
%TO.C,D6*%
X149987200Y-55804000D03*
D15*
X149987200Y-58344000D03*
%TD*%
%TO.C,D5*%
X152832000Y-58344000D03*
D16*
X152832000Y-55804000D03*
%TD*%
D15*
%TO.C,D4*%
X155676800Y-58344000D03*
D16*
X155676800Y-55804000D03*
%TD*%
D15*
%TO.C,D3*%
X158521600Y-58344000D03*
D16*
X158521600Y-55804000D03*
%TD*%
D15*
%TO.C,D2*%
X161366400Y-58344000D03*
D16*
X161366400Y-55804000D03*
%TD*%
D15*
%TO.C,D1*%
X164211200Y-58344000D03*
D16*
X164211200Y-55804000D03*
%TD*%
D17*
%TO.C,J1*%
X127940000Y-97460000D03*
D18*
X130480000Y-97460000D03*
X133020000Y-97460000D03*
X135560000Y-97460000D03*
X138100000Y-97460000D03*
X140640000Y-97460000D03*
X143180000Y-97460000D03*
X145720000Y-97460000D03*
%TD*%
D17*
%TO.C,J3*%
X150800000Y-97460000D03*
D18*
X153340000Y-97460000D03*
X155880000Y-97460000D03*
X158420000Y-97460000D03*
X160960000Y-97460000D03*
X163500000Y-97460000D03*
%TD*%
D17*
%TO.C,J2*%
X118796000Y-49200000D03*
D18*
X121336000Y-49200000D03*
X123876000Y-49200000D03*
X126416000Y-49200000D03*
X128956000Y-49200000D03*
X131496000Y-49200000D03*
X134036000Y-49200000D03*
X136576000Y-49200000D03*
X139116000Y-49200000D03*
X141656000Y-49200000D03*
%TD*%
D17*
%TO.C,J4*%
X145720000Y-49200000D03*
D18*
X148260000Y-49200000D03*
X150800000Y-49200000D03*
X153340000Y-49200000D03*
X155880000Y-49200000D03*
X158420000Y-49200000D03*
X160960000Y-49200000D03*
X163500000Y-49200000D03*
%TD*%
%TO.C,J6*%
X110972800Y-88519200D03*
X113512800Y-88519200D03*
X110972800Y-91059200D03*
X113512800Y-91059200D03*
X110972800Y-93599200D03*
D17*
X113512800Y-93599200D03*
%TD*%
D15*
%TO.C,D9*%
X119050000Y-96698000D03*
D16*
X121590000Y-96698000D03*
%TD*%
D14*
%TO.C,SW1*%
X141148000Y-66726000D03*
D19*
X141148000Y-69266000D03*
X148768000Y-69266000D03*
X148768000Y-66726000D03*
%TD*%
D14*
%TO.C,RN1*%
X141402000Y-63424000D03*
D19*
X143942000Y-63424000D03*
X146482000Y-63424000D03*
X149022000Y-63424000D03*
X151562000Y-63424000D03*
X154102000Y-63424000D03*
X156642000Y-63424000D03*
X159182000Y-63424000D03*
X161722000Y-63424000D03*
%TD*%
D20*
%TO.C,MH1*%
X115240000Y-49200000D03*
%TD*%
D13*
%TO.C,C2*%
X112547600Y-78674800D03*
X112547600Y-76174800D03*
%TD*%
%TO.C,C3*%
X103545200Y-70180400D03*
X108545200Y-70180400D03*
%TD*%
D21*
%TO.C,Y1*%
X116865600Y-76696800D03*
X116865600Y-71816800D03*
%TD*%
D13*
%TO.C,R1*%
X104470400Y-83744000D03*
D19*
X114630400Y-83744000D03*
%TD*%
D20*
%TO.C,MH2*%
X113970000Y-97460000D03*
%TD*%
%TO.C,MH3*%
X166040000Y-64440000D03*
%TD*%
%TO.C,MH4*%
X166040000Y-92380000D03*
%TD*%
D13*
%TO.C,C1*%
X112547600Y-72324800D03*
X112547600Y-69824800D03*
%TD*%
D22*
%TO.C,SW2*%
X105436400Y-80879200D03*
X105436400Y-73869200D03*
D23*
X102946400Y-79629200D03*
X102946400Y-75129200D03*
%TD*%
D13*
%TO.C,R2*%
X128194000Y-91872000D03*
D19*
X118034000Y-91872000D03*
%TD*%
M02*
