%TF.GenerationSoftware,KiCad,Pcbnew,7.0.5*%
%TF.CreationDate,2023-11-13T21:41:29+01:00*%
%TF.ProjectId,atmega328p_dev_board,61746d65-6761-4333-9238-705f6465765f,rev?*%
%TF.SameCoordinates,Original*%
%TF.FileFunction,Copper,L1,Top*%
%TF.FilePolarity,Positive*%
%FSLAX46Y46*%
G04 Gerber Fmt 4.6, Leading zero omitted, Abs format (unit mm)*
G04 Created by KiCad (PCBNEW 7.0.5) date 2023-11-13 21:41:29*
%MOMM*%
%LPD*%
G01*
G04 APERTURE LIST*
%TA.AperFunction,ComponentPad*%
%ADD10R,1.600000X2.400000*%
%TD*%
%TA.AperFunction,ComponentPad*%
%ADD11O,1.600000X2.400000*%
%TD*%
%TA.AperFunction,ComponentPad*%
%ADD12C,4.000000*%
%TD*%
%TA.AperFunction,ComponentPad*%
%ADD13C,1.600000*%
%TD*%
%TA.AperFunction,ComponentPad*%
%ADD14R,1.600000X1.600000*%
%TD*%
%TA.AperFunction,ComponentPad*%
%ADD15R,1.800000X1.800000*%
%TD*%
%TA.AperFunction,ComponentPad*%
%ADD16C,1.800000*%
%TD*%
%TA.AperFunction,ComponentPad*%
%ADD17R,1.700000X1.700000*%
%TD*%
%TA.AperFunction,ComponentPad*%
%ADD18O,1.700000X1.700000*%
%TD*%
%TA.AperFunction,ComponentPad*%
%ADD19O,1.600000X1.600000*%
%TD*%
%TA.AperFunction,ComponentPad*%
%ADD20C,1.500000*%
%TD*%
%TA.AperFunction,ComponentPad*%
%ADD21C,2.100000*%
%TD*%
%TA.AperFunction,ComponentPad*%
%ADD22C,1.750000*%
%TD*%
%TA.AperFunction,ViaPad*%
%ADD23C,0.600000*%
%TD*%
%TA.AperFunction,Conductor*%
%ADD24C,0.250000*%
%TD*%
%TA.AperFunction,Conductor*%
%ADD25C,0.400000*%
%TD*%
G04 APERTURE END LIST*
D10*
%TO.P,U1,1,~{RESET}/PC6*%
%TO.N,Reset*%
X163500000Y-74600000D03*
D11*
%TO.P,U1,2,PD0*%
%TO.N,PD0*%
X160960000Y-74600000D03*
%TO.P,U1,3,PD1*%
%TO.N,PD1*%
X158420000Y-74600000D03*
%TO.P,U1,4,PD2*%
%TO.N,PD2*%
X155880000Y-74600000D03*
%TO.P,U1,5,PD3*%
%TO.N,PD3*%
X153340000Y-74600000D03*
%TO.P,U1,6,PD4*%
%TO.N,PD4*%
X150800000Y-74600000D03*
%TO.P,U1,7,VCC*%
%TO.N,+5V*%
X148260000Y-74600000D03*
%TO.P,U1,8,GND*%
%TO.N,GND*%
X145720000Y-74600000D03*
%TO.P,U1,9,XTAL1/PB6*%
%TO.N,Net-(U1-XTAL1{slash}PB6)*%
X143180000Y-74600000D03*
%TO.P,U1,10,XTAL2/PB7*%
%TO.N,Net-(U1-XTAL2{slash}PB7)*%
X140640000Y-74600000D03*
%TO.P,U1,11,PD5*%
%TO.N,PD5*%
X138100000Y-74600000D03*
%TO.P,U1,12,PD6*%
%TO.N,PD6*%
X135560000Y-74600000D03*
%TO.P,U1,13,PD7*%
%TO.N,PD7*%
X133020000Y-74600000D03*
%TO.P,U1,14,PB0*%
%TO.N,PB0*%
X130480000Y-74600000D03*
%TO.P,U1,15,PB1*%
%TO.N,PB1*%
X130480000Y-82220000D03*
%TO.P,U1,16,PB2*%
%TO.N,PB2*%
X133020000Y-82220000D03*
%TO.P,U1,17,PB3*%
%TO.N,MOSI*%
X135560000Y-82220000D03*
%TO.P,U1,18,PB4*%
%TO.N,MISO*%
X138100000Y-82220000D03*
%TO.P,U1,19,PB5*%
%TO.N,SCK*%
X140640000Y-82220000D03*
%TO.P,U1,20,AVCC*%
%TO.N,+5V*%
X143180000Y-82220000D03*
%TO.P,U1,21,AREF*%
%TO.N,AREF*%
X145720000Y-82220000D03*
%TO.P,U1,22,GND*%
%TO.N,GND*%
X148260000Y-82220000D03*
%TO.P,U1,23,PC0*%
%TO.N,PC0*%
X150800000Y-82220000D03*
%TO.P,U1,24,PC1*%
%TO.N,PC1*%
X153340000Y-82220000D03*
%TO.P,U1,25,PC2*%
%TO.N,PC2*%
X155880000Y-82220000D03*
%TO.P,U1,26,PC3*%
%TO.N,PC3*%
X158420000Y-82220000D03*
%TO.P,U1,27,PC4*%
%TO.N,PC4*%
X160960000Y-82220000D03*
%TO.P,U1,28,PC5*%
%TO.N,PC5*%
X163500000Y-82220000D03*
%TD*%
D12*
%TO.P,J5,5,Shield*%
%TO.N,GND*%
X111020700Y-53664800D03*
X111020700Y-65664800D03*
D13*
%TO.P,J5,4,GND*%
X113880700Y-60914800D03*
%TO.P,J5,3,D+*%
%TO.N,unconnected-(J5-D+-Pad3)*%
X113880700Y-58414800D03*
%TO.P,J5,2,D-*%
%TO.N,unconnected-(J5-D--Pad2)*%
X115880700Y-58414800D03*
D14*
%TO.P,J5,1,VBUS*%
%TO.N,+5V*%
X115880700Y-60914800D03*
%TD*%
D15*
%TO.P,D8,1,K*%
%TO.N,Net-(D8-K)*%
X144297600Y-58344000D03*
D16*
%TO.P,D8,2,A*%
%TO.N,PD7*%
X144297600Y-55804000D03*
%TD*%
D15*
%TO.P,D7,1,K*%
%TO.N,Net-(D7-K)*%
X147142400Y-58344000D03*
D16*
%TO.P,D7,2,A*%
%TO.N,PD6*%
X147142400Y-55804000D03*
%TD*%
%TO.P,D6,2,A*%
%TO.N,PD5*%
X149987200Y-55804000D03*
D15*
%TO.P,D6,1,K*%
%TO.N,Net-(D6-K)*%
X149987200Y-58344000D03*
%TD*%
%TO.P,D5,1,K*%
%TO.N,Net-(D5-K)*%
X152832000Y-58344000D03*
D16*
%TO.P,D5,2,A*%
%TO.N,PD4*%
X152832000Y-55804000D03*
%TD*%
D15*
%TO.P,D4,1,K*%
%TO.N,Net-(D4-K)*%
X155676800Y-58344000D03*
D16*
%TO.P,D4,2,A*%
%TO.N,PD3*%
X155676800Y-55804000D03*
%TD*%
D15*
%TO.P,D3,1,K*%
%TO.N,Net-(D3-K)*%
X158521600Y-58344000D03*
D16*
%TO.P,D3,2,A*%
%TO.N,PD2*%
X158521600Y-55804000D03*
%TD*%
D15*
%TO.P,D2,1,K*%
%TO.N,Net-(D2-K)*%
X161366400Y-58344000D03*
D16*
%TO.P,D2,2,A*%
%TO.N,PD1*%
X161366400Y-55804000D03*
%TD*%
D15*
%TO.P,D1,1,K*%
%TO.N,Net-(D1-K)*%
X164211200Y-58344000D03*
D16*
%TO.P,D1,2,A*%
%TO.N,PD0*%
X164211200Y-55804000D03*
%TD*%
D17*
%TO.P,J1,1,Pin_1*%
%TO.N,unconnected-(J1-Pin_1-Pad1)*%
X127940000Y-97460000D03*
D18*
%TO.P,J1,2,Pin_2*%
%TO.N,+5V*%
X130480000Y-97460000D03*
%TO.P,J1,3,Pin_3*%
%TO.N,Reset*%
X133020000Y-97460000D03*
%TO.P,J1,4,Pin_4*%
%TO.N,+5V*%
X135560000Y-97460000D03*
%TO.P,J1,5,Pin_5*%
X138100000Y-97460000D03*
%TO.P,J1,6,Pin_6*%
%TO.N,GND*%
X140640000Y-97460000D03*
%TO.P,J1,7,Pin_7*%
X143180000Y-97460000D03*
%TO.P,J1,8,Pin_8*%
%TO.N,unconnected-(J1-Pin_8-Pad8)*%
X145720000Y-97460000D03*
%TD*%
D17*
%TO.P,J3,1,Pin_1*%
%TO.N,PC0*%
X150800000Y-97460000D03*
D18*
%TO.P,J3,2,Pin_2*%
%TO.N,PC1*%
X153340000Y-97460000D03*
%TO.P,J3,3,Pin_3*%
%TO.N,PC2*%
X155880000Y-97460000D03*
%TO.P,J3,4,Pin_4*%
%TO.N,PC3*%
X158420000Y-97460000D03*
%TO.P,J3,5,Pin_5*%
%TO.N,PC4*%
X160960000Y-97460000D03*
%TO.P,J3,6,Pin_6*%
%TO.N,PC5*%
X163500000Y-97460000D03*
%TD*%
D17*
%TO.P,J2,1,Pin_1*%
%TO.N,PC5*%
X118796000Y-49200000D03*
D18*
%TO.P,J2,2,Pin_2*%
%TO.N,PC4*%
X121336000Y-49200000D03*
%TO.P,J2,3,Pin_3*%
%TO.N,AREF*%
X123876000Y-49200000D03*
%TO.P,J2,4,Pin_4*%
%TO.N,GND*%
X126416000Y-49200000D03*
%TO.P,J2,5,Pin_5*%
%TO.N,SCK*%
X128956000Y-49200000D03*
%TO.P,J2,6,Pin_6*%
%TO.N,MISO*%
X131496000Y-49200000D03*
%TO.P,J2,7,Pin_7*%
%TO.N,MOSI*%
X134036000Y-49200000D03*
%TO.P,J2,8,Pin_8*%
%TO.N,PB2*%
X136576000Y-49200000D03*
%TO.P,J2,9,Pin_9*%
%TO.N,PB1*%
X139116000Y-49200000D03*
%TO.P,J2,10,Pin_10*%
%TO.N,PB0*%
X141656000Y-49200000D03*
%TD*%
D17*
%TO.P,J4,1,Pin_1*%
%TO.N,PD7*%
X145720000Y-49200000D03*
D18*
%TO.P,J4,2,Pin_2*%
%TO.N,PD6*%
X148260000Y-49200000D03*
%TO.P,J4,3,Pin_3*%
%TO.N,PD5*%
X150800000Y-49200000D03*
%TO.P,J4,4,Pin_4*%
%TO.N,PD4*%
X153340000Y-49200000D03*
%TO.P,J4,5,Pin_5*%
%TO.N,PD3*%
X155880000Y-49200000D03*
%TO.P,J4,6,Pin_6*%
%TO.N,PD2*%
X158420000Y-49200000D03*
%TO.P,J4,7,Pin_7*%
%TO.N,PD1*%
X160960000Y-49200000D03*
%TO.P,J4,8,Pin_8*%
%TO.N,PD0*%
X163500000Y-49200000D03*
%TD*%
%TO.P,J6,6,Pin_6*%
%TO.N,GND*%
X110972800Y-88519200D03*
%TO.P,J6,5,Pin_5*%
%TO.N,Reset*%
X113512800Y-88519200D03*
%TO.P,J6,4,Pin_4*%
%TO.N,MOSI*%
X110972800Y-91059200D03*
%TO.P,J6,3,Pin_3*%
%TO.N,SCK*%
X113512800Y-91059200D03*
%TO.P,J6,2,Pin_2*%
%TO.N,+5V*%
X110972800Y-93599200D03*
D17*
%TO.P,J6,1,Pin_1*%
%TO.N,MISO*%
X113512800Y-93599200D03*
%TD*%
D15*
%TO.P,D9,1,K*%
%TO.N,Net-(D9-K)*%
X119050000Y-96698000D03*
D16*
%TO.P,D9,2,A*%
%TO.N,+5V*%
X121590000Y-96698000D03*
%TD*%
D14*
%TO.P,SW1,1*%
%TO.N,Net-(RN1-common)*%
X141148000Y-66726000D03*
D19*
%TO.P,SW1,2*%
%TO.N,Net-(R2-Pad1)*%
X141148000Y-69266000D03*
%TO.P,SW1,3*%
%TO.N,GND*%
X148768000Y-69266000D03*
%TO.P,SW1,4*%
X148768000Y-66726000D03*
%TD*%
D14*
%TO.P,RN1,1,common*%
%TO.N,Net-(RN1-common)*%
X141402000Y-63424000D03*
D19*
%TO.P,RN1,2,R1*%
%TO.N,Net-(D8-K)*%
X143942000Y-63424000D03*
%TO.P,RN1,3,R2*%
%TO.N,Net-(D7-K)*%
X146482000Y-63424000D03*
%TO.P,RN1,4,R3*%
%TO.N,Net-(D6-K)*%
X149022000Y-63424000D03*
%TO.P,RN1,5,R4*%
%TO.N,Net-(D5-K)*%
X151562000Y-63424000D03*
%TO.P,RN1,6,R5*%
%TO.N,Net-(D4-K)*%
X154102000Y-63424000D03*
%TO.P,RN1,7,R6*%
%TO.N,Net-(D3-K)*%
X156642000Y-63424000D03*
%TO.P,RN1,8,R7*%
%TO.N,Net-(D2-K)*%
X159182000Y-63424000D03*
%TO.P,RN1,9,R8*%
%TO.N,Net-(D1-K)*%
X161722000Y-63424000D03*
%TD*%
D13*
%TO.P,C2,1*%
%TO.N,Net-(U1-XTAL1{slash}PB6)*%
X112547600Y-78674800D03*
%TO.P,C2,2*%
%TO.N,GND*%
X112547600Y-76174800D03*
%TD*%
%TO.P,C3,1*%
%TO.N,GND*%
X103545200Y-70180400D03*
%TO.P,C3,2*%
%TO.N,+5V*%
X108545200Y-70180400D03*
%TD*%
D20*
%TO.P,Y1,1,1*%
%TO.N,Net-(U1-XTAL1{slash}PB6)*%
X116865600Y-76696800D03*
%TO.P,Y1,2,2*%
%TO.N,Net-(U1-XTAL2{slash}PB7)*%
X116865600Y-71816800D03*
%TD*%
D13*
%TO.P,R1,1*%
%TO.N,+5V*%
X104470400Y-83744000D03*
D19*
%TO.P,R1,2*%
%TO.N,Reset*%
X114630400Y-83744000D03*
%TD*%
D13*
%TO.P,C1,1*%
%TO.N,Net-(U1-XTAL2{slash}PB7)*%
X112547600Y-72324800D03*
%TO.P,C1,2*%
%TO.N,GND*%
X112547600Y-69824800D03*
%TD*%
D21*
%TO.P,SW2,*%
%TO.N,*%
X105436400Y-80879200D03*
X105436400Y-73869200D03*
D22*
%TO.P,SW2,1,1*%
%TO.N,Reset*%
X102946400Y-79629200D03*
%TO.P,SW2,2,2*%
%TO.N,GND*%
X102946400Y-75129200D03*
%TD*%
D13*
%TO.P,R2,1*%
%TO.N,Net-(R2-Pad1)*%
X128194000Y-91872000D03*
D19*
%TO.P,R2,2*%
%TO.N,Net-(D9-K)*%
X118034000Y-91872000D03*
%TD*%
D23*
%TO.N,PC4*%
X160960000Y-91922800D03*
%TO.N,SCK*%
X126720800Y-88570000D03*
%TO.N,AREF*%
X127294500Y-75184200D03*
%TO.N,MISO*%
X122860000Y-83490000D03*
%TO.N,MOSI*%
X124130000Y-79426000D03*
%TD*%
D24*
%TO.N,Net-(R2-Pad1)*%
X144305000Y-72423000D02*
X141148000Y-69266000D01*
X139319200Y-80451790D02*
X144305000Y-75465990D01*
X130438990Y-91872000D02*
X139319200Y-82991790D01*
X144305000Y-75465990D02*
X144305000Y-72423000D01*
X128194000Y-91872000D02*
X130438990Y-91872000D01*
X139319200Y-82991790D02*
X139319200Y-80451790D01*
%TO.N,MOSI*%
X112147800Y-89884200D02*
X110972800Y-91059200D01*
X112147800Y-88222499D02*
X112147800Y-89884200D01*
X113788099Y-86582200D02*
X112147800Y-88222499D01*
X119050000Y-82220000D02*
X114687800Y-86582200D01*
X114687800Y-86582200D02*
X113788099Y-86582200D01*
X124130000Y-79426000D02*
X121336000Y-82220000D01*
X121336000Y-82220000D02*
X119050000Y-82220000D01*
%TO.N,AREF*%
X123876000Y-71806000D02*
X123876000Y-49200000D01*
X127254200Y-75184200D02*
X123876000Y-71806000D01*
X127294500Y-75184200D02*
X127254200Y-75184200D01*
%TO.N,PC4*%
X160960000Y-91922800D02*
X160960000Y-82220000D01*
%TO.N,Net-(U1-XTAL2{slash}PB7)*%
X116865600Y-71816800D02*
X119060800Y-71816800D01*
X119060800Y-71816800D02*
X124384000Y-77140000D01*
%TO.N,Net-(U1-XTAL1{slash}PB6)*%
X122162800Y-76696800D02*
X123876000Y-78410000D01*
X116865600Y-76696800D02*
X122162800Y-76696800D01*
%TO.N,MISO*%
X113216099Y-89694200D02*
X116097000Y-89694200D01*
X112147800Y-92234200D02*
X112147800Y-90762499D01*
X112147800Y-90762499D02*
X113216099Y-89694200D01*
X116097000Y-89694200D02*
X122301200Y-83490000D01*
X113512800Y-93599200D02*
X112147800Y-92234200D01*
X122301200Y-83490000D02*
X122860000Y-83490000D01*
%TO.N,SCK*%
X115595600Y-91059200D02*
X118084800Y-88570000D01*
X113512800Y-91059200D02*
X115595600Y-91059200D01*
%TO.N,+5V*%
X148260000Y-74600000D02*
X148260000Y-77140000D01*
X148260000Y-77140000D02*
X143180000Y-82220000D01*
%TO.N,SCK*%
X118084800Y-88570000D02*
X126720800Y-88570000D01*
%TO.N,PD0*%
X162986200Y-57029000D02*
X164211200Y-55804000D01*
X162986200Y-60381800D02*
X162986200Y-57029000D01*
X160597000Y-62771000D02*
X162986200Y-60381800D01*
X160597000Y-74237000D02*
X160597000Y-62771000D01*
X160960000Y-74600000D02*
X160597000Y-74237000D01*
%TO.N,PD1*%
X159746600Y-57423800D02*
X161366400Y-55804000D01*
X159746600Y-61268409D02*
X159746600Y-57423800D01*
X158057000Y-62958009D02*
X159746600Y-61268409D01*
X158057000Y-74237000D02*
X158057000Y-62958009D01*
X158420000Y-74600000D02*
X158057000Y-74237000D01*
%TO.N,PD2*%
X156941000Y-57384600D02*
X158521600Y-55804000D01*
X156941000Y-61347000D02*
X156941000Y-57384600D01*
%TO.N,PD3*%
X154147000Y-57333800D02*
X155676800Y-55804000D01*
X154147000Y-61601000D02*
X154147000Y-57333800D01*
%TO.N,PD4*%
X151353000Y-57283000D02*
X152832000Y-55804000D01*
X151353000Y-60286000D02*
X151353000Y-57283000D01*
%TO.N,Net-(U1-XTAL2{slash}PB7)*%
X113055600Y-71816800D02*
X112547600Y-72324800D01*
X116865600Y-71816800D02*
X113055600Y-71816800D01*
X138100000Y-77140000D02*
X140640000Y-74600000D01*
X124384000Y-77140000D02*
X138100000Y-77140000D01*
%TO.N,Net-(U1-XTAL1{slash}PB6)*%
X139370000Y-78410000D02*
X143180000Y-74600000D01*
X116865600Y-76696800D02*
X114525600Y-76696800D01*
X123876000Y-78410000D02*
X139370000Y-78410000D01*
X114525600Y-76696800D02*
X112547600Y-78674800D01*
%TO.N,PC5*%
X163500000Y-97460000D02*
X163500000Y-82220000D01*
%TO.N,PC4*%
X160960000Y-97460000D02*
X160960000Y-91922800D01*
%TO.N,PB0*%
X140640000Y-51740000D02*
X135560000Y-51740000D01*
X130480000Y-56820000D02*
X130480000Y-74600000D01*
X141656000Y-49200000D02*
X141656000Y-50724000D01*
X141656000Y-50724000D02*
X140640000Y-51740000D01*
X135560000Y-51740000D02*
X130480000Y-56820000D01*
%TO.N,PC0*%
X150800000Y-97460000D02*
X150800000Y-82220000D01*
%TO.N,PC1*%
X153340000Y-97460000D02*
X153340000Y-82220000D01*
%TO.N,PC2*%
X155880000Y-97460000D02*
X155880000Y-82220000D01*
%TO.N,PC3*%
X158420000Y-97460000D02*
X158420000Y-82220000D01*
%TO.N,PD7*%
X133020000Y-74600000D02*
X133020000Y-56820000D01*
X137280000Y-52560000D02*
X142360000Y-52560000D01*
X133020000Y-56820000D02*
X137280000Y-52560000D01*
X142360000Y-52560000D02*
X145720000Y-49200000D01*
%TO.N,PD6*%
X139624000Y-54280000D02*
X140894000Y-53010000D01*
X140894000Y-53010000D02*
X144450000Y-53010000D01*
X138100000Y-54280000D02*
X139624000Y-54280000D01*
X138100000Y-54280000D02*
X135560000Y-56820000D01*
X135560000Y-56820000D02*
X135560000Y-74600000D01*
X144450000Y-53010000D02*
X148260000Y-49200000D01*
%TO.N,PD5*%
X141148000Y-53772000D02*
X146228000Y-53772000D01*
X146228000Y-53772000D02*
X150800000Y-49200000D01*
X138100000Y-56820000D02*
X141148000Y-53772000D01*
X138100000Y-74600000D02*
X138100000Y-56820000D01*
%TO.N,PD4*%
X150437000Y-74237000D02*
X150437000Y-61202000D01*
X150800000Y-74600000D02*
X150437000Y-74237000D01*
X150437000Y-61202000D02*
X151353000Y-60286000D01*
%TO.N,PD3*%
X152977000Y-62771000D02*
X154147000Y-61601000D01*
X152977000Y-74237000D02*
X152977000Y-62771000D01*
X153340000Y-74600000D02*
X152977000Y-74237000D01*
%TO.N,PD2*%
X155880000Y-74600000D02*
X155517000Y-74237000D01*
X155517000Y-74237000D02*
X155517000Y-62771000D01*
X155517000Y-62771000D02*
X156941000Y-61347000D01*
D25*
%TO.N,PD1*%
X158420000Y-74600000D02*
X157982000Y-74162000D01*
D24*
%TO.N,Net-(D9-K)*%
X119050000Y-92888000D02*
X118034000Y-91872000D01*
X119050000Y-96698000D02*
X119050000Y-92888000D01*
%TO.N,Net-(RN1-common)*%
X141148000Y-63678000D02*
X141402000Y-63424000D01*
X141148000Y-66726000D02*
X141148000Y-63678000D01*
%TD*%
%TA.AperFunction,Conductor*%
%TO.N,+5V*%
G36*
X137640507Y-97250156D02*
G01*
X137600000Y-97388111D01*
X137600000Y-97531889D01*
X137640507Y-97669844D01*
X137666314Y-97710000D01*
X135993686Y-97710000D01*
X136019493Y-97669844D01*
X136060000Y-97531889D01*
X136060000Y-97388111D01*
X136019493Y-97250156D01*
X135993686Y-97210000D01*
X137666314Y-97210000D01*
X137640507Y-97250156D01*
G37*
%TD.AperFunction*%
%TA.AperFunction,Conductor*%
G36*
X147819864Y-63986278D02*
G01*
X147864382Y-64037655D01*
X147884477Y-64080749D01*
X148015802Y-64268300D01*
X148177700Y-64430198D01*
X148365251Y-64561523D01*
X148490091Y-64619736D01*
X148572750Y-64658281D01*
X148572752Y-64658281D01*
X148572757Y-64658284D01*
X148793913Y-64717543D01*
X148956832Y-64731796D01*
X149021998Y-64737498D01*
X149022000Y-64737498D01*
X149022002Y-64737498D01*
X149079139Y-64732499D01*
X149250087Y-64717543D01*
X149471243Y-64658284D01*
X149627096Y-64585608D01*
X149696173Y-64575117D01*
X149759957Y-64603637D01*
X149798196Y-64662113D01*
X149803500Y-64697991D01*
X149803500Y-65615480D01*
X149783815Y-65682519D01*
X149731011Y-65728274D01*
X149661853Y-65738218D01*
X149608378Y-65717055D01*
X149424749Y-65588477D01*
X149424745Y-65588475D01*
X149217249Y-65491718D01*
X149217238Y-65491714D01*
X148996089Y-65432457D01*
X148996081Y-65432456D01*
X148768002Y-65412502D01*
X148767998Y-65412502D01*
X148539918Y-65432456D01*
X148539910Y-65432457D01*
X148318761Y-65491714D01*
X148318750Y-65491718D01*
X148111254Y-65588475D01*
X148111252Y-65588476D01*
X148111249Y-65588477D01*
X148111251Y-65588477D01*
X147923700Y-65719802D01*
X147923698Y-65719803D01*
X147923695Y-65719806D01*
X147761806Y-65881695D01*
X147761803Y-65881698D01*
X147761802Y-65881700D01*
X147679767Y-65998856D01*
X147630476Y-66069252D01*
X147630475Y-66069254D01*
X147533718Y-66276750D01*
X147533714Y-66276761D01*
X147474457Y-66497910D01*
X147474456Y-66497918D01*
X147454502Y-66725998D01*
X147454502Y-66726001D01*
X147474456Y-66954081D01*
X147474457Y-66954089D01*
X147533714Y-67175238D01*
X147533718Y-67175249D01*
X147630475Y-67382745D01*
X147630477Y-67382749D01*
X147761802Y-67570300D01*
X147923700Y-67732198D01*
X148111244Y-67863518D01*
X148111251Y-67863523D01*
X148154345Y-67883618D01*
X148206784Y-67929791D01*
X148225936Y-67996984D01*
X148205720Y-68063865D01*
X148154345Y-68108382D01*
X148111251Y-68128476D01*
X148047237Y-68173300D01*
X147923700Y-68259802D01*
X147923698Y-68259803D01*
X147923695Y-68259806D01*
X147761806Y-68421695D01*
X147761803Y-68421698D01*
X147761802Y-68421700D01*
X147699062Y-68511302D01*
X147630476Y-68609252D01*
X147630475Y-68609254D01*
X147533718Y-68816750D01*
X147533714Y-68816761D01*
X147474457Y-69037910D01*
X147474456Y-69037918D01*
X147454502Y-69265998D01*
X147454502Y-69266001D01*
X147474456Y-69494081D01*
X147474457Y-69494089D01*
X147533714Y-69715238D01*
X147533718Y-69715249D01*
X147584803Y-69824801D01*
X147630477Y-69922749D01*
X147761802Y-70110300D01*
X147923700Y-70272198D01*
X148111251Y-70403523D01*
X148121901Y-70408489D01*
X148318750Y-70500281D01*
X148318752Y-70500281D01*
X148318757Y-70500284D01*
X148539913Y-70559543D01*
X148690116Y-70572684D01*
X148767998Y-70579498D01*
X148768000Y-70579498D01*
X148768002Y-70579498D01*
X148827013Y-70574335D01*
X148996087Y-70559543D01*
X149217243Y-70500284D01*
X149424749Y-70403523D01*
X149608377Y-70274944D01*
X149674582Y-70252617D01*
X149742349Y-70269627D01*
X149790163Y-70320574D01*
X149803500Y-70376519D01*
X149803500Y-73302753D01*
X149783815Y-73369792D01*
X149781091Y-73373852D01*
X149754106Y-73412392D01*
X149662476Y-73543252D01*
X149662474Y-73543256D01*
X149637691Y-73596402D01*
X149591518Y-73648841D01*
X149524324Y-73667992D01*
X149457444Y-73647775D01*
X149412927Y-73596399D01*
X149390133Y-73547517D01*
X149259657Y-73361179D01*
X149098820Y-73200342D01*
X148912482Y-73069865D01*
X148706328Y-72973734D01*
X148510000Y-72921127D01*
X148510000Y-74084313D01*
X148498045Y-74072359D01*
X148385148Y-74014835D01*
X148260000Y-73995014D01*
X148134852Y-74014835D01*
X148021955Y-74072359D01*
X148010000Y-74084314D01*
X148010000Y-72921127D01*
X147813671Y-72973734D01*
X147607517Y-73069865D01*
X147421179Y-73200342D01*
X147260342Y-73361179D01*
X147129865Y-73547517D01*
X147107071Y-73596401D01*
X147060898Y-73648840D01*
X146993705Y-73667992D01*
X146926824Y-73647776D01*
X146882307Y-73596401D01*
X146857523Y-73543251D01*
X146726198Y-73355700D01*
X146564300Y-73193802D01*
X146376749Y-73062477D01*
X146376745Y-73062475D01*
X146169249Y-72965718D01*
X146169238Y-72965714D01*
X145948089Y-72906457D01*
X145948081Y-72906456D01*
X145720002Y-72886502D01*
X145719998Y-72886502D01*
X145491918Y-72906456D01*
X145491910Y-72906457D01*
X145270761Y-72965714D01*
X145270750Y-72965718D01*
X145114904Y-73038390D01*
X145045826Y-73048882D01*
X144982043Y-73020362D01*
X144943804Y-72961885D01*
X144938500Y-72926008D01*
X144938500Y-72506631D01*
X144940238Y-72490881D01*
X144939968Y-72490856D01*
X144940702Y-72483093D01*
X144938531Y-72414007D01*
X144938500Y-72412059D01*
X144938500Y-72383146D01*
X144937615Y-72376147D01*
X144937156Y-72370314D01*
X144935673Y-72323110D01*
X144935672Y-72323108D01*
X144929979Y-72303514D01*
X144926032Y-72284457D01*
X144923474Y-72264203D01*
X144906084Y-72220284D01*
X144904193Y-72214757D01*
X144891018Y-72169408D01*
X144891018Y-72169407D01*
X144880624Y-72151832D01*
X144872064Y-72134356D01*
X144864554Y-72115388D01*
X144864554Y-72115387D01*
X144864553Y-72115385D01*
X144864552Y-72115383D01*
X144836789Y-72077171D01*
X144833587Y-72072297D01*
X144809542Y-72031637D01*
X144795106Y-72017201D01*
X144782469Y-72002406D01*
X144770471Y-71985892D01*
X144734084Y-71955790D01*
X144729762Y-71951857D01*
X142456335Y-69678430D01*
X142422850Y-69617107D01*
X142424242Y-69558654D01*
X142441541Y-69494094D01*
X142441542Y-69494089D01*
X142441543Y-69494087D01*
X142461498Y-69266000D01*
X142441543Y-69037913D01*
X142382284Y-68816757D01*
X142285523Y-68609251D01*
X142154198Y-68421700D01*
X141992300Y-68259802D01*
X141984627Y-68254429D01*
X141941006Y-68199853D01*
X141933814Y-68130355D01*
X141965338Y-68068001D01*
X142025568Y-68032588D01*
X142042489Y-68029570D01*
X142057201Y-68027989D01*
X142194204Y-67976889D01*
X142311261Y-67889261D01*
X142398889Y-67772204D01*
X142449989Y-67635201D01*
X142453617Y-67601452D01*
X142456499Y-67574654D01*
X142456500Y-67574637D01*
X142456500Y-65877362D01*
X142456499Y-65877345D01*
X142453157Y-65846270D01*
X142449989Y-65816799D01*
X142398889Y-65679796D01*
X142311261Y-65562739D01*
X142194204Y-65475111D01*
X142057203Y-65424011D01*
X141996654Y-65417500D01*
X141996638Y-65417500D01*
X141905500Y-65417500D01*
X141838461Y-65397815D01*
X141792706Y-65345011D01*
X141781500Y-65293500D01*
X141781500Y-64856500D01*
X141801185Y-64789461D01*
X141853989Y-64743706D01*
X141905500Y-64732500D01*
X142250638Y-64732500D01*
X142250654Y-64732499D01*
X142277692Y-64729591D01*
X142311201Y-64725989D01*
X142448204Y-64674889D01*
X142565261Y-64587261D01*
X142652889Y-64470204D01*
X142703989Y-64333201D01*
X142705569Y-64318500D01*
X142732304Y-64253952D01*
X142789695Y-64214102D01*
X142859521Y-64211606D01*
X142919611Y-64247257D01*
X142930428Y-64260626D01*
X142935802Y-64268300D01*
X143097700Y-64430198D01*
X143285251Y-64561523D01*
X143410091Y-64619736D01*
X143492750Y-64658281D01*
X143492752Y-64658281D01*
X143492757Y-64658284D01*
X143713913Y-64717543D01*
X143876832Y-64731796D01*
X143941998Y-64737498D01*
X143942000Y-64737498D01*
X143942002Y-64737498D01*
X143999139Y-64732499D01*
X144170087Y-64717543D01*
X144391243Y-64658284D01*
X144598749Y-64561523D01*
X144786300Y-64430198D01*
X144948198Y-64268300D01*
X145079523Y-64080749D01*
X145099617Y-64037655D01*
X145145790Y-63985215D01*
X145212983Y-63966063D01*
X145279864Y-63986278D01*
X145324382Y-64037655D01*
X145344477Y-64080749D01*
X145475802Y-64268300D01*
X145637700Y-64430198D01*
X145825251Y-64561523D01*
X145950091Y-64619736D01*
X146032750Y-64658281D01*
X146032752Y-64658281D01*
X146032757Y-64658284D01*
X146253913Y-64717543D01*
X146416832Y-64731796D01*
X146481998Y-64737498D01*
X146482000Y-64737498D01*
X146482002Y-64737498D01*
X146539139Y-64732499D01*
X146710087Y-64717543D01*
X146931243Y-64658284D01*
X147138749Y-64561523D01*
X147326300Y-64430198D01*
X147488198Y-64268300D01*
X147619523Y-64080749D01*
X147639617Y-64037655D01*
X147685790Y-63985215D01*
X147752983Y-63966063D01*
X147819864Y-63986278D01*
G37*
%TD.AperFunction*%
%TA.AperFunction,Conductor*%
G36*
X165907539Y-46755185D02*
G01*
X165953294Y-46807989D01*
X165964500Y-46859500D01*
X165964500Y-59315016D01*
X165961962Y-59334289D01*
X165964263Y-59360602D01*
X165964499Y-59365996D01*
X165964499Y-59373314D01*
X165965768Y-59380509D01*
X165966474Y-59385870D01*
X165967181Y-59393956D01*
X165971651Y-59403541D01*
X165978451Y-59411644D01*
X165978452Y-59411645D01*
X165979500Y-59412250D01*
X166005185Y-59431958D01*
X168468182Y-61894955D01*
X168501666Y-61956276D01*
X168504500Y-61982634D01*
X168504500Y-96107363D01*
X168484815Y-96174402D01*
X168468181Y-96195044D01*
X166018418Y-98644806D01*
X166003002Y-98656636D01*
X165986024Y-98676868D01*
X165982374Y-98680851D01*
X165977197Y-98686027D01*
X165972997Y-98692026D01*
X165969710Y-98696309D01*
X165964501Y-98702517D01*
X165960881Y-98712463D01*
X165959960Y-98722998D01*
X165960274Y-98724169D01*
X165964500Y-98756265D01*
X165964500Y-99234951D01*
X165964201Y-99241033D01*
X165952505Y-99359778D01*
X165947763Y-99383618D01*
X165917832Y-99482290D01*
X165915789Y-99489024D01*
X165906486Y-99511482D01*
X165854561Y-99608627D01*
X165841056Y-99628839D01*
X165771176Y-99713988D01*
X165753988Y-99731176D01*
X165668839Y-99801056D01*
X165648627Y-99814561D01*
X165551482Y-99866486D01*
X165529028Y-99875787D01*
X165487028Y-99888528D01*
X165423618Y-99907763D01*
X165399778Y-99912505D01*
X165281033Y-99924201D01*
X165274951Y-99924500D01*
X100765049Y-99924500D01*
X100758968Y-99924201D01*
X100640221Y-99912505D01*
X100616381Y-99907763D01*
X100599445Y-99902625D01*
X100510968Y-99875786D01*
X100488517Y-99866486D01*
X100391372Y-99814561D01*
X100371160Y-99801056D01*
X100286011Y-99731176D01*
X100268823Y-99713988D01*
X100198943Y-99628839D01*
X100185438Y-99608627D01*
X100133510Y-99511476D01*
X100124215Y-99489037D01*
X100092234Y-99383612D01*
X100087494Y-99359777D01*
X100075799Y-99241032D01*
X100075500Y-99234951D01*
X100075500Y-98358654D01*
X126581500Y-98358654D01*
X126588011Y-98419202D01*
X126588011Y-98419204D01*
X126639110Y-98556204D01*
X126639111Y-98556204D01*
X126726739Y-98673261D01*
X126843796Y-98760889D01*
X126980799Y-98811989D01*
X127008050Y-98814918D01*
X127041345Y-98818499D01*
X127041362Y-98818500D01*
X128838638Y-98818500D01*
X128838654Y-98818499D01*
X128865692Y-98815591D01*
X128899201Y-98811989D01*
X129036204Y-98760889D01*
X129153261Y-98673261D01*
X129240889Y-98556204D01*
X129289223Y-98426615D01*
X129331093Y-98370686D01*
X129396557Y-98346269D01*
X129464830Y-98361121D01*
X129493084Y-98382272D01*
X129608917Y-98498105D01*
X129802421Y-98633600D01*
X130016507Y-98733429D01*
X130016516Y-98733433D01*
X130230000Y-98790634D01*
X130229999Y-97895501D01*
X130337685Y-97944680D01*
X130444237Y-97960000D01*
X130515763Y-97960000D01*
X130622315Y-97944680D01*
X130730000Y-97895501D01*
X130730000Y-98790633D01*
X130943483Y-98733433D01*
X130943492Y-98733429D01*
X131157578Y-98633600D01*
X131351082Y-98498105D01*
X131518105Y-98331082D01*
X131644868Y-98150048D01*
X131699445Y-98106423D01*
X131768944Y-98099231D01*
X131831298Y-98130753D01*
X131850251Y-98153350D01*
X131944276Y-98297265D01*
X131944284Y-98297276D01*
X132063355Y-98426619D01*
X132096760Y-98462906D01*
X132274424Y-98601189D01*
X132274425Y-98601189D01*
X132274427Y-98601191D01*
X132334314Y-98633600D01*
X132472426Y-98708342D01*
X132685365Y-98781444D01*
X132907431Y-98818500D01*
X133132569Y-98818500D01*
X133354635Y-98781444D01*
X133567574Y-98708342D01*
X133765576Y-98601189D01*
X133943240Y-98462906D01*
X134064594Y-98331082D01*
X134095715Y-98297276D01*
X134095715Y-98297275D01*
X134095722Y-98297268D01*
X134189749Y-98153347D01*
X134242894Y-98107994D01*
X134312125Y-98098570D01*
X134375461Y-98128072D01*
X134395130Y-98150048D01*
X134521890Y-98331078D01*
X134688917Y-98498105D01*
X134882421Y-98633600D01*
X135096507Y-98733429D01*
X135096516Y-98733433D01*
X135310000Y-98790634D01*
X135310000Y-97895501D01*
X135417685Y-97944680D01*
X135524237Y-97960000D01*
X135595763Y-97960000D01*
X135702315Y-97944680D01*
X135810000Y-97895501D01*
X135810000Y-98790633D01*
X136023483Y-98733433D01*
X136023492Y-98733429D01*
X136237578Y-98633600D01*
X136431082Y-98498105D01*
X136598105Y-98331082D01*
X136728425Y-98144968D01*
X136783002Y-98101344D01*
X136852501Y-98094151D01*
X136914855Y-98125673D01*
X136931575Y-98144968D01*
X137061894Y-98331082D01*
X137228917Y-98498105D01*
X137422421Y-98633600D01*
X137636507Y-98733429D01*
X137636516Y-98733433D01*
X137850000Y-98790634D01*
X137850000Y-97895501D01*
X137957685Y-97944680D01*
X138064237Y-97960000D01*
X138135763Y-97960000D01*
X138242315Y-97944680D01*
X138350000Y-97895501D01*
X138350000Y-98790633D01*
X138563483Y-98733433D01*
X138563492Y-98733429D01*
X138777578Y-98633600D01*
X138971082Y-98498105D01*
X139138105Y-98331082D01*
X139264868Y-98150048D01*
X139319445Y-98106423D01*
X139388944Y-98099231D01*
X139451298Y-98130753D01*
X139470251Y-98153350D01*
X139564276Y-98297265D01*
X139564284Y-98297276D01*
X139683355Y-98426619D01*
X139716760Y-98462906D01*
X139894424Y-98601189D01*
X139894425Y-98601189D01*
X139894427Y-98601191D01*
X139954314Y-98633600D01*
X140092426Y-98708342D01*
X140305365Y-98781444D01*
X140527431Y-98818500D01*
X140752569Y-98818500D01*
X140974635Y-98781444D01*
X141187574Y-98708342D01*
X141385576Y-98601189D01*
X141563240Y-98462906D01*
X141684594Y-98331082D01*
X141715715Y-98297276D01*
X141715715Y-98297275D01*
X141715722Y-98297268D01*
X141806193Y-98158790D01*
X141859338Y-98113437D01*
X141928569Y-98104013D01*
X141991905Y-98133515D01*
X142013804Y-98158787D01*
X142104278Y-98297268D01*
X142104283Y-98297273D01*
X142104284Y-98297276D01*
X142223355Y-98426619D01*
X142256760Y-98462906D01*
X142434424Y-98601189D01*
X142434425Y-98601189D01*
X142434427Y-98601191D01*
X142494314Y-98633600D01*
X142632426Y-98708342D01*
X142845365Y-98781444D01*
X143067431Y-98818500D01*
X143292569Y-98818500D01*
X143514635Y-98781444D01*
X143727574Y-98708342D01*
X143925576Y-98601189D01*
X144103240Y-98462906D01*
X144224594Y-98331082D01*
X144255715Y-98297276D01*
X144255715Y-98297275D01*
X144255722Y-98297268D01*
X144346193Y-98158790D01*
X144399338Y-98113437D01*
X144468569Y-98104013D01*
X144531905Y-98133515D01*
X144553804Y-98158787D01*
X144644278Y-98297268D01*
X144644283Y-98297273D01*
X144644284Y-98297276D01*
X144763355Y-98426619D01*
X144796760Y-98462906D01*
X144974424Y-98601189D01*
X144974425Y-98601189D01*
X144974427Y-98601191D01*
X145034314Y-98633600D01*
X145172426Y-98708342D01*
X145385365Y-98781444D01*
X145607431Y-98818500D01*
X145832569Y-98818500D01*
X146054635Y-98781444D01*
X146267574Y-98708342D01*
X146465576Y-98601189D01*
X146643240Y-98462906D01*
X146764594Y-98331082D01*
X146795715Y-98297276D01*
X146795717Y-98297273D01*
X146795722Y-98297268D01*
X146918860Y-98108791D01*
X147009296Y-97902616D01*
X147064564Y-97684368D01*
X147067689Y-97646654D01*
X147083156Y-97460005D01*
X147083156Y-97459994D01*
X147064565Y-97235640D01*
X147064563Y-97235628D01*
X147043926Y-97154135D01*
X147009296Y-97017384D01*
X146918860Y-96811209D01*
X146902706Y-96786484D01*
X146795723Y-96622734D01*
X146795715Y-96622723D01*
X146643243Y-96457097D01*
X146643238Y-96457092D01*
X146465577Y-96318812D01*
X146465572Y-96318808D01*
X146267580Y-96211661D01*
X146267577Y-96211659D01*
X146267574Y-96211658D01*
X146267571Y-96211657D01*
X146267569Y-96211656D01*
X146054637Y-96138556D01*
X145832569Y-96101500D01*
X145607431Y-96101500D01*
X145385362Y-96138556D01*
X145172430Y-96211656D01*
X145172419Y-96211661D01*
X144974427Y-96318808D01*
X144974422Y-96318812D01*
X144796761Y-96457092D01*
X144796756Y-96457097D01*
X144644284Y-96622723D01*
X144644276Y-96622734D01*
X144553808Y-96761206D01*
X144500662Y-96806562D01*
X144431431Y-96815986D01*
X144368095Y-96786484D01*
X144346192Y-96761206D01*
X144255723Y-96622734D01*
X144255715Y-96622723D01*
X144103243Y-96457097D01*
X144103238Y-96457092D01*
X143925577Y-96318812D01*
X143925572Y-96318808D01*
X143727580Y-96211661D01*
X143727577Y-96211659D01*
X143727574Y-96211658D01*
X143727571Y-96211657D01*
X143727569Y-96211656D01*
X143514637Y-96138556D01*
X143292569Y-96101500D01*
X143067431Y-96101500D01*
X142845362Y-96138556D01*
X142632430Y-96211656D01*
X142632419Y-96211661D01*
X142434427Y-96318808D01*
X142434422Y-96318812D01*
X142256761Y-96457092D01*
X142256756Y-96457097D01*
X142104284Y-96622723D01*
X142104276Y-96622734D01*
X142013808Y-96761206D01*
X141960662Y-96806562D01*
X141891431Y-96815986D01*
X141828095Y-96786484D01*
X141806192Y-96761206D01*
X141715723Y-96622734D01*
X141715715Y-96622723D01*
X141563243Y-96457097D01*
X141563238Y-96457092D01*
X141385577Y-96318812D01*
X141385572Y-96318808D01*
X141187580Y-96211661D01*
X141187577Y-96211659D01*
X141187574Y-96211658D01*
X141187571Y-96211657D01*
X141187569Y-96211656D01*
X140974637Y-96138556D01*
X140752569Y-96101500D01*
X140527431Y-96101500D01*
X140305362Y-96138556D01*
X140092430Y-96211656D01*
X140092419Y-96211661D01*
X139894427Y-96318808D01*
X139894422Y-96318812D01*
X139716761Y-96457092D01*
X139716756Y-96457097D01*
X139564284Y-96622723D01*
X139564276Y-96622734D01*
X139470251Y-96766650D01*
X139417105Y-96812007D01*
X139347873Y-96821430D01*
X139284538Y-96791928D01*
X139264868Y-96769951D01*
X139138113Y-96588926D01*
X139138108Y-96588920D01*
X138971082Y-96421894D01*
X138777578Y-96286399D01*
X138563492Y-96186570D01*
X138563486Y-96186567D01*
X138350000Y-96129364D01*
X138350000Y-97024498D01*
X138242315Y-96975320D01*
X138135763Y-96960000D01*
X138064237Y-96960000D01*
X137957685Y-96975320D01*
X137850000Y-97024498D01*
X137850000Y-96129364D01*
X137849999Y-96129364D01*
X137636513Y-96186567D01*
X137636507Y-96186570D01*
X137422422Y-96286399D01*
X137422420Y-96286400D01*
X137228926Y-96421886D01*
X137228920Y-96421891D01*
X137061891Y-96588920D01*
X137061890Y-96588922D01*
X136931575Y-96775031D01*
X136876998Y-96818655D01*
X136807499Y-96825848D01*
X136745145Y-96794326D01*
X136728425Y-96775031D01*
X136598109Y-96588922D01*
X136598108Y-96588920D01*
X136431082Y-96421894D01*
X136237578Y-96286399D01*
X136023492Y-96186570D01*
X136023486Y-96186567D01*
X135810000Y-96129364D01*
X135810000Y-97024498D01*
X135702315Y-96975320D01*
X135595763Y-96960000D01*
X135524237Y-96960000D01*
X135417685Y-96975320D01*
X135310000Y-97024498D01*
X135310000Y-96129364D01*
X135309999Y-96129364D01*
X135096513Y-96186567D01*
X135096507Y-96186570D01*
X134882422Y-96286399D01*
X134882420Y-96286400D01*
X134688926Y-96421886D01*
X134688920Y-96421891D01*
X134521891Y-96588920D01*
X134521890Y-96588922D01*
X134395131Y-96769952D01*
X134340554Y-96813577D01*
X134271055Y-96820769D01*
X134208701Y-96789247D01*
X134189752Y-96766656D01*
X134095722Y-96622732D01*
X134095715Y-96622725D01*
X134095715Y-96622723D01*
X133943243Y-96457097D01*
X133943238Y-96457092D01*
X133765577Y-96318812D01*
X133765572Y-96318808D01*
X133567580Y-96211661D01*
X133567577Y-96211659D01*
X133567574Y-96211658D01*
X133567571Y-96211657D01*
X133567569Y-96211656D01*
X133354637Y-96138556D01*
X133132569Y-96101500D01*
X132907431Y-96101500D01*
X132685362Y-96138556D01*
X132472430Y-96211656D01*
X132472419Y-96211661D01*
X132274427Y-96318808D01*
X132274422Y-96318812D01*
X132096761Y-96457092D01*
X132096756Y-96457097D01*
X131944284Y-96622723D01*
X131944276Y-96622734D01*
X131850251Y-96766650D01*
X131797105Y-96812007D01*
X131727873Y-96821430D01*
X131664538Y-96791928D01*
X131644868Y-96769951D01*
X131518113Y-96588926D01*
X131518108Y-96588920D01*
X131351082Y-96421894D01*
X131157578Y-96286399D01*
X130943492Y-96186570D01*
X130943486Y-96186567D01*
X130730000Y-96129364D01*
X130730000Y-97024498D01*
X130622315Y-96975320D01*
X130515763Y-96960000D01*
X130444237Y-96960000D01*
X130337685Y-96975320D01*
X130229999Y-97024498D01*
X130230000Y-96129364D01*
X130229999Y-96129364D01*
X130016513Y-96186567D01*
X130016507Y-96186570D01*
X129802422Y-96286399D01*
X129802420Y-96286400D01*
X129608926Y-96421886D01*
X129493084Y-96537728D01*
X129431761Y-96571212D01*
X129362069Y-96566228D01*
X129306136Y-96524356D01*
X129289223Y-96493384D01*
X129240889Y-96363796D01*
X129226404Y-96344447D01*
X129223599Y-96340699D01*
X129153261Y-96246739D01*
X129036204Y-96159111D01*
X129035169Y-96158725D01*
X128899203Y-96108011D01*
X128838654Y-96101500D01*
X128838638Y-96101500D01*
X127041362Y-96101500D01*
X127041345Y-96101500D01*
X126980797Y-96108011D01*
X126980795Y-96108011D01*
X126843795Y-96159111D01*
X126726739Y-96246739D01*
X126639111Y-96363795D01*
X126588011Y-96500795D01*
X126588011Y-96500797D01*
X126581500Y-96561345D01*
X126581500Y-98358654D01*
X100075500Y-98358654D01*
X100075500Y-91059205D01*
X109609644Y-91059205D01*
X109628234Y-91283559D01*
X109628236Y-91283571D01*
X109683503Y-91501814D01*
X109773940Y-91707992D01*
X109897076Y-91896465D01*
X109897084Y-91896476D01*
X110049556Y-92062102D01*
X110049561Y-92062107D01*
X110103187Y-92103846D01*
X110227224Y-92200389D01*
X110269205Y-92223108D01*
X110270495Y-92223806D01*
X110320086Y-92273025D01*
X110335194Y-92341242D01*
X110311024Y-92406797D01*
X110282602Y-92434436D01*
X110101722Y-92561090D01*
X110101720Y-92561091D01*
X109934691Y-92728120D01*
X109934686Y-92728126D01*
X109799200Y-92921620D01*
X109799199Y-92921622D01*
X109699370Y-93135707D01*
X109699367Y-93135713D01*
X109642164Y-93349199D01*
X109642164Y-93349200D01*
X110539114Y-93349200D01*
X110513307Y-93389356D01*
X110472800Y-93527311D01*
X110472800Y-93671089D01*
X110513307Y-93809044D01*
X110539114Y-93849200D01*
X109642164Y-93849200D01*
X109699367Y-94062686D01*
X109699370Y-94062692D01*
X109799199Y-94276778D01*
X109934694Y-94470282D01*
X110101717Y-94637305D01*
X110295221Y-94772800D01*
X110509307Y-94872629D01*
X110509316Y-94872633D01*
X110722800Y-94929834D01*
X110722800Y-94034701D01*
X110830485Y-94083880D01*
X110937037Y-94099200D01*
X111008563Y-94099200D01*
X111115115Y-94083880D01*
X111222800Y-94034701D01*
X111222800Y-94929833D01*
X111436283Y-94872633D01*
X111436292Y-94872629D01*
X111650378Y-94772800D01*
X111843878Y-94637308D01*
X111959714Y-94521472D01*
X112021037Y-94487987D01*
X112090729Y-94492971D01*
X112146663Y-94534842D01*
X112163577Y-94565819D01*
X112211910Y-94695403D01*
X112211911Y-94695404D01*
X112299539Y-94812461D01*
X112416596Y-94900089D01*
X112553599Y-94951189D01*
X112580850Y-94954118D01*
X112614145Y-94957699D01*
X112614162Y-94957700D01*
X114411438Y-94957700D01*
X114411454Y-94957699D01*
X114438492Y-94954791D01*
X114472001Y-94951189D01*
X114609004Y-94900089D01*
X114726061Y-94812461D01*
X114813689Y-94695404D01*
X114864789Y-94558401D01*
X114868759Y-94521472D01*
X114871299Y-94497854D01*
X114871299Y-94497847D01*
X114871300Y-94497838D01*
X114871300Y-92700562D01*
X114871299Y-92700552D01*
X114871299Y-92700545D01*
X114867957Y-92669470D01*
X114864789Y-92639999D01*
X114862703Y-92634407D01*
X114842322Y-92579764D01*
X114813689Y-92502996D01*
X114726061Y-92385939D01*
X114609004Y-92298311D01*
X114604830Y-92296754D01*
X114491204Y-92254372D01*
X114435271Y-92212500D01*
X114410855Y-92147035D01*
X114425708Y-92078762D01*
X114443304Y-92054214D01*
X114588522Y-91896468D01*
X114604507Y-91872001D01*
X116720502Y-91872001D01*
X116740456Y-92100081D01*
X116740457Y-92100089D01*
X116799714Y-92321238D01*
X116799718Y-92321249D01*
X116896475Y-92528745D01*
X116896477Y-92528749D01*
X117027802Y-92716300D01*
X117189700Y-92878198D01*
X117377251Y-93009523D01*
X117502091Y-93067736D01*
X117584750Y-93106281D01*
X117584752Y-93106281D01*
X117584757Y-93106284D01*
X117805913Y-93165543D01*
X117968832Y-93179796D01*
X118033998Y-93185498D01*
X118034000Y-93185498D01*
X118034002Y-93185498D01*
X118065614Y-93182732D01*
X118262087Y-93165543D01*
X118262099Y-93165539D01*
X118267424Y-93164602D01*
X118267700Y-93166169D01*
X118330247Y-93167653D01*
X118388112Y-93206810D01*
X118415622Y-93271037D01*
X118416500Y-93285768D01*
X118416500Y-95165500D01*
X118396815Y-95232539D01*
X118344011Y-95278294D01*
X118292500Y-95289500D01*
X118101345Y-95289500D01*
X118040797Y-95296011D01*
X118040795Y-95296011D01*
X117903795Y-95347111D01*
X117786739Y-95434739D01*
X117699111Y-95551795D01*
X117648011Y-95688795D01*
X117648011Y-95688797D01*
X117641500Y-95749345D01*
X117641500Y-97646654D01*
X117648011Y-97707202D01*
X117648011Y-97707204D01*
X117679191Y-97790798D01*
X117699111Y-97844204D01*
X117786739Y-97961261D01*
X117903796Y-98048889D01*
X118018949Y-98091839D01*
X118038766Y-98099231D01*
X118040799Y-98099989D01*
X118068050Y-98102918D01*
X118101345Y-98106499D01*
X118101362Y-98106500D01*
X119998638Y-98106500D01*
X119998654Y-98106499D01*
X120025692Y-98103591D01*
X120059201Y-98099989D01*
X120061234Y-98099231D01*
X120074853Y-98094151D01*
X120196204Y-98048889D01*
X120313261Y-97961261D01*
X120400889Y-97844204D01*
X120451989Y-97707201D01*
X120456005Y-97669844D01*
X120458499Y-97646654D01*
X120458500Y-97646637D01*
X120458500Y-97527309D01*
X120478185Y-97460270D01*
X120494819Y-97439628D01*
X121145550Y-96788896D01*
X121146327Y-96799265D01*
X121195887Y-96925541D01*
X121280465Y-97031599D01*
X121392547Y-97108016D01*
X121500299Y-97141253D01*
X120791199Y-97850351D01*
X120821650Y-97874050D01*
X121025697Y-97984476D01*
X121025706Y-97984479D01*
X121245139Y-98059811D01*
X121473993Y-98098000D01*
X121706007Y-98098000D01*
X121934860Y-98059811D01*
X122154293Y-97984479D01*
X122154302Y-97984476D01*
X122358350Y-97874050D01*
X122388798Y-97850351D01*
X121678231Y-97139784D01*
X121724138Y-97132865D01*
X121846357Y-97074007D01*
X121945798Y-96981740D01*
X122013625Y-96864260D01*
X122031499Y-96785947D01*
X122741186Y-97495634D01*
X122825484Y-97366606D01*
X122918682Y-97154135D01*
X122975638Y-96929218D01*
X122994798Y-96698005D01*
X122994798Y-96697994D01*
X122975638Y-96466781D01*
X122918682Y-96241864D01*
X122825483Y-96029390D01*
X122741186Y-95900364D01*
X122034449Y-96607101D01*
X122033673Y-96596735D01*
X121984113Y-96470459D01*
X121899535Y-96364401D01*
X121787453Y-96287984D01*
X121679700Y-96254747D01*
X122388799Y-95545648D01*
X122388799Y-95545647D01*
X122358349Y-95521949D01*
X122154302Y-95411523D01*
X122154293Y-95411520D01*
X121934860Y-95336188D01*
X121706007Y-95298000D01*
X121473993Y-95298000D01*
X121245139Y-95336188D01*
X121025706Y-95411520D01*
X121025698Y-95411523D01*
X120821644Y-95521952D01*
X120791200Y-95545646D01*
X120791200Y-95545647D01*
X121501768Y-96256215D01*
X121455862Y-96263135D01*
X121333643Y-96321993D01*
X121234202Y-96414260D01*
X121166375Y-96531740D01*
X121148500Y-96610052D01*
X120494819Y-95956371D01*
X120461334Y-95895048D01*
X120458500Y-95868690D01*
X120458500Y-95749362D01*
X120458499Y-95749345D01*
X120455157Y-95718270D01*
X120451989Y-95688799D01*
X120400889Y-95551796D01*
X120313261Y-95434739D01*
X120196204Y-95347111D01*
X120166919Y-95336188D01*
X120059203Y-95296011D01*
X119998654Y-95289500D01*
X119998638Y-95289500D01*
X119807500Y-95289500D01*
X119740461Y-95269815D01*
X119694706Y-95217011D01*
X119683500Y-95165500D01*
X119683500Y-92971631D01*
X119685239Y-92955879D01*
X119684968Y-92955854D01*
X119685702Y-92948092D01*
X119683531Y-92878995D01*
X119683500Y-92877047D01*
X119683500Y-92848147D01*
X119683500Y-92848144D01*
X119682614Y-92841141D01*
X119682157Y-92835322D01*
X119680674Y-92788111D01*
X119674976Y-92768499D01*
X119671033Y-92749466D01*
X119668474Y-92729203D01*
X119651085Y-92685286D01*
X119649196Y-92679766D01*
X119636018Y-92634407D01*
X119625626Y-92616835D01*
X119617066Y-92599362D01*
X119609552Y-92580383D01*
X119581794Y-92542179D01*
X119578587Y-92537296D01*
X119561085Y-92507702D01*
X119554542Y-92496638D01*
X119540108Y-92482204D01*
X119527471Y-92467409D01*
X119515472Y-92450893D01*
X119515470Y-92450890D01*
X119479073Y-92420781D01*
X119474751Y-92416847D01*
X119342335Y-92284431D01*
X119308850Y-92223108D01*
X119310240Y-92164658D01*
X119327543Y-92100087D01*
X119347498Y-91872000D01*
X119327543Y-91643913D01*
X119268284Y-91422757D01*
X119263691Y-91412908D01*
X119203381Y-91283571D01*
X119171523Y-91215251D01*
X119040198Y-91027700D01*
X118878300Y-90865802D01*
X118690749Y-90734477D01*
X118690745Y-90734475D01*
X118483249Y-90637718D01*
X118483238Y-90637714D01*
X118262089Y-90578457D01*
X118262081Y-90578456D01*
X118034002Y-90558502D01*
X118033998Y-90558502D01*
X117805918Y-90578456D01*
X117805910Y-90578457D01*
X117584761Y-90637714D01*
X117584750Y-90637718D01*
X117377254Y-90734475D01*
X117377252Y-90734476D01*
X117377249Y-90734477D01*
X117377251Y-90734477D01*
X117189700Y-90865802D01*
X117189698Y-90865803D01*
X117189695Y-90865806D01*
X117027806Y-91027695D01*
X117027803Y-91027698D01*
X117027802Y-91027700D01*
X117005742Y-91059205D01*
X116896476Y-91215252D01*
X116896475Y-91215254D01*
X116799718Y-91422750D01*
X116799714Y-91422761D01*
X116740457Y-91643910D01*
X116740456Y-91643918D01*
X116720502Y-91871998D01*
X116720502Y-91872001D01*
X114604507Y-91872001D01*
X114641923Y-91814731D01*
X114684948Y-91748878D01*
X114738094Y-91703521D01*
X114788756Y-91692700D01*
X115511966Y-91692700D01*
X115527713Y-91694438D01*
X115527739Y-91694168D01*
X115535506Y-91694902D01*
X115535508Y-91694901D01*
X115535509Y-91694902D01*
X115544859Y-91694608D01*
X115604591Y-91692731D01*
X115606539Y-91692700D01*
X115635457Y-91692700D01*
X115636822Y-91692527D01*
X115642462Y-91691814D01*
X115648285Y-91691356D01*
X115674308Y-91690538D01*
X115695490Y-91689873D01*
X115705281Y-91687027D01*
X115715081Y-91684180D01*
X115734138Y-91680232D01*
X115754397Y-91677674D01*
X115798321Y-91660282D01*
X115803821Y-91658399D01*
X115849193Y-91645218D01*
X115866765Y-91634825D01*
X115884232Y-91626268D01*
X115903217Y-91618752D01*
X115941426Y-91590990D01*
X115946304Y-91587785D01*
X115986962Y-91563742D01*
X116001402Y-91549300D01*
X116016192Y-91536670D01*
X116032707Y-91524672D01*
X116062822Y-91488267D01*
X116066726Y-91483976D01*
X118310884Y-89239819D01*
X118372208Y-89206334D01*
X118398566Y-89203500D01*
X126173640Y-89203500D01*
X126239612Y-89222507D01*
X126367777Y-89303039D01*
X126367780Y-89303041D01*
X126367784Y-89303042D01*
X126367785Y-89303043D01*
X126520457Y-89356465D01*
X126539753Y-89363217D01*
X126539758Y-89363218D01*
X126720796Y-89383616D01*
X126720800Y-89383616D01*
X126720804Y-89383616D01*
X126901841Y-89363218D01*
X126901844Y-89363217D01*
X126901847Y-89363217D01*
X127073815Y-89303043D01*
X127228081Y-89206111D01*
X127356911Y-89077281D01*
X127453843Y-88923015D01*
X127514017Y-88751047D01*
X127514018Y-88751041D01*
X127534416Y-88570003D01*
X127534416Y-88569996D01*
X127514018Y-88388958D01*
X127514017Y-88388953D01*
X127514016Y-88388953D01*
X127453843Y-88216985D01*
X127356911Y-88062719D01*
X127228081Y-87933889D01*
X127200908Y-87916815D01*
X127073817Y-87836958D01*
X127073816Y-87836957D01*
X127073815Y-87836957D01*
X127019493Y-87817949D01*
X126901846Y-87776782D01*
X126901841Y-87776781D01*
X126720804Y-87756384D01*
X126720796Y-87756384D01*
X126539758Y-87776781D01*
X126539753Y-87776782D01*
X126367780Y-87836958D01*
X126367777Y-87836960D01*
X126239612Y-87917493D01*
X126173640Y-87936500D01*
X119049966Y-87936500D01*
X118982927Y-87916815D01*
X118937172Y-87864011D01*
X118927228Y-87794853D01*
X118956253Y-87731297D01*
X118962285Y-87724819D01*
X120690922Y-85996182D01*
X122420095Y-84267008D01*
X122481416Y-84233525D01*
X122548729Y-84237650D01*
X122678945Y-84283215D01*
X122678951Y-84283216D01*
X122678953Y-84283217D01*
X122678954Y-84283217D01*
X122678958Y-84283218D01*
X122859996Y-84303616D01*
X122860000Y-84303616D01*
X122860004Y-84303616D01*
X123041041Y-84283218D01*
X123041044Y-84283217D01*
X123041047Y-84283217D01*
X123213015Y-84223043D01*
X123367281Y-84126111D01*
X123496111Y-83997281D01*
X123593043Y-83843015D01*
X123653217Y-83671047D01*
X123653218Y-83671041D01*
X123673616Y-83490003D01*
X123673616Y-83489996D01*
X123653218Y-83308958D01*
X123653217Y-83308953D01*
X123641948Y-83276749D01*
X123593043Y-83136985D01*
X123496111Y-82982719D01*
X123367281Y-82853889D01*
X123321282Y-82824986D01*
X123213017Y-82756958D01*
X123213016Y-82756957D01*
X123213015Y-82756957D01*
X123120384Y-82724544D01*
X123041046Y-82696782D01*
X123041041Y-82696781D01*
X122860004Y-82676384D01*
X122859996Y-82676384D01*
X122678958Y-82696781D01*
X122678953Y-82696782D01*
X122506982Y-82756958D01*
X122380051Y-82836714D01*
X122317976Y-82855659D01*
X122292196Y-82856469D01*
X122290247Y-82856500D01*
X122261344Y-82856500D01*
X122261341Y-82856500D01*
X122261329Y-82856501D01*
X122254337Y-82857384D01*
X122248520Y-82857841D01*
X122201314Y-82859325D01*
X122201307Y-82859326D01*
X122181700Y-82865022D01*
X122162661Y-82868965D01*
X122142411Y-82871524D01*
X122142401Y-82871526D01*
X122098491Y-82888911D01*
X122092965Y-82890803D01*
X122047612Y-82903979D01*
X122047607Y-82903981D01*
X122030033Y-82914374D01*
X122012572Y-82922928D01*
X121993586Y-82930446D01*
X121993584Y-82930447D01*
X121955372Y-82958208D01*
X121950490Y-82961415D01*
X121909837Y-82985457D01*
X121895401Y-82999894D01*
X121880615Y-83012523D01*
X121864093Y-83024528D01*
X121864091Y-83024529D01*
X121864091Y-83024530D01*
X121864088Y-83024532D01*
X121833980Y-83060925D01*
X121830049Y-83065246D01*
X115870914Y-89024381D01*
X115809591Y-89057866D01*
X115783233Y-89060700D01*
X114936371Y-89060700D01*
X114869332Y-89041015D01*
X114823577Y-88988211D01*
X114813633Y-88919053D01*
X114816165Y-88906260D01*
X114855470Y-88751046D01*
X114857364Y-88743568D01*
X114857365Y-88743559D01*
X114875956Y-88519205D01*
X114875956Y-88519194D01*
X114857365Y-88294840D01*
X114857363Y-88294828D01*
X114802096Y-88076585D01*
X114796013Y-88062718D01*
X114711660Y-87870409D01*
X114689805Y-87836958D01*
X114588523Y-87681934D01*
X114588515Y-87681923D01*
X114436043Y-87516297D01*
X114436038Y-87516292D01*
X114334875Y-87437553D01*
X114294062Y-87380842D01*
X114290389Y-87311069D01*
X114325020Y-87250386D01*
X114386962Y-87218060D01*
X114411038Y-87215700D01*
X114604166Y-87215700D01*
X114619913Y-87217438D01*
X114619939Y-87217168D01*
X114627706Y-87217902D01*
X114627708Y-87217901D01*
X114627709Y-87217902D01*
X114637059Y-87217608D01*
X114696791Y-87215731D01*
X114698739Y-87215700D01*
X114727657Y-87215700D01*
X114729022Y-87215527D01*
X114734662Y-87214814D01*
X114740485Y-87214356D01*
X114766508Y-87213538D01*
X114787690Y-87212873D01*
X114797481Y-87210027D01*
X114807281Y-87207180D01*
X114826338Y-87203232D01*
X114846597Y-87200674D01*
X114890521Y-87183282D01*
X114896021Y-87181399D01*
X114941393Y-87168218D01*
X114958965Y-87157825D01*
X114976432Y-87149268D01*
X114995417Y-87141752D01*
X115033626Y-87113990D01*
X115038504Y-87110785D01*
X115079162Y-87086742D01*
X115093602Y-87072300D01*
X115108392Y-87059670D01*
X115124907Y-87047672D01*
X115155022Y-87011267D01*
X115158926Y-87006976D01*
X119276084Y-82889819D01*
X119337408Y-82856334D01*
X119363766Y-82853500D01*
X121252366Y-82853500D01*
X121268113Y-82855238D01*
X121268139Y-82854968D01*
X121275906Y-82855702D01*
X121275908Y-82855701D01*
X121275909Y-82855702D01*
X121285259Y-82855408D01*
X121344991Y-82853531D01*
X121346939Y-82853500D01*
X121375857Y-82853500D01*
X121377222Y-82853327D01*
X121382862Y-82852614D01*
X121388685Y-82852156D01*
X121414708Y-82851338D01*
X121435890Y-82850673D01*
X121445681Y-82847827D01*
X121455481Y-82844980D01*
X121474538Y-82841032D01*
X121494797Y-82838474D01*
X121538721Y-82821082D01*
X121544221Y-82819199D01*
X121589593Y-82806018D01*
X121607165Y-82795625D01*
X121624632Y-82787068D01*
X121643617Y-82779552D01*
X121681826Y-82751790D01*
X121686704Y-82748585D01*
X121727362Y-82724542D01*
X121741802Y-82710100D01*
X121756592Y-82697470D01*
X121773107Y-82685472D01*
X121803222Y-82649067D01*
X121807126Y-82644776D01*
X124192056Y-80259846D01*
X124253377Y-80226363D01*
X124265836Y-80224310D01*
X124311047Y-80219217D01*
X124483015Y-80159043D01*
X124637281Y-80062111D01*
X124766111Y-79933281D01*
X124863043Y-79779015D01*
X124923217Y-79607047D01*
X124928527Y-79559920D01*
X124943616Y-79426003D01*
X124943616Y-79425996D01*
X124923218Y-79244958D01*
X124923216Y-79244950D01*
X124910446Y-79208454D01*
X124906885Y-79138675D01*
X124941614Y-79078048D01*
X125003607Y-79045821D01*
X125027488Y-79043500D01*
X139286366Y-79043500D01*
X139302113Y-79045238D01*
X139302139Y-79044968D01*
X139309906Y-79045702D01*
X139309908Y-79045701D01*
X139309909Y-79045702D01*
X139319259Y-79045408D01*
X139378991Y-79043531D01*
X139380939Y-79043500D01*
X139409857Y-79043500D01*
X139411222Y-79043327D01*
X139416862Y-79042614D01*
X139422685Y-79042156D01*
X139448708Y-79041338D01*
X139469890Y-79040673D01*
X139479681Y-79037827D01*
X139489481Y-79034980D01*
X139508540Y-79031033D01*
X139533247Y-79027912D01*
X139602225Y-79039039D01*
X139654236Y-79085693D01*
X139672769Y-79153060D01*
X139651938Y-79219752D01*
X139636468Y-79238615D01*
X138930379Y-79944704D01*
X138918020Y-79954608D01*
X138918193Y-79954817D01*
X138912181Y-79959790D01*
X138864873Y-80010167D01*
X138863520Y-80011563D01*
X138843073Y-80032011D01*
X138843057Y-80032029D01*
X138838731Y-80037604D01*
X138834947Y-80042034D01*
X138802619Y-80076461D01*
X138802612Y-80076471D01*
X138792779Y-80094357D01*
X138782103Y-80110610D01*
X138769586Y-80126747D01*
X138769585Y-80126749D01*
X138750825Y-80170100D01*
X138748255Y-80175346D01*
X138725503Y-80216731D01*
X138725503Y-80216732D01*
X138720425Y-80236510D01*
X138714125Y-80254912D01*
X138706018Y-80273647D01*
X138698631Y-80320285D01*
X138697446Y-80326006D01*
X138685700Y-80371755D01*
X138685700Y-80392174D01*
X138684173Y-80411573D01*
X138680980Y-80431731D01*
X138680979Y-80431733D01*
X138682547Y-80448313D01*
X138669258Y-80516907D01*
X138620994Y-80567428D01*
X138553078Y-80583835D01*
X138527004Y-80579756D01*
X138328092Y-80526458D01*
X138328088Y-80526457D01*
X138328087Y-80526457D01*
X138328086Y-80526456D01*
X138328081Y-80526456D01*
X138100002Y-80506502D01*
X138099998Y-80506502D01*
X137871918Y-80526456D01*
X137871910Y-80526457D01*
X137650761Y-80585714D01*
X137650750Y-80585718D01*
X137443254Y-80682475D01*
X137443252Y-80682476D01*
X137443249Y-80682477D01*
X137443251Y-80682477D01*
X137255700Y-80813802D01*
X137255698Y-80813803D01*
X137255695Y-80813806D01*
X137093806Y-80975695D01*
X136962476Y-81163251D01*
X136942382Y-81206345D01*
X136896209Y-81258784D01*
X136829016Y-81277936D01*
X136762135Y-81257720D01*
X136717618Y-81206345D01*
X136697523Y-81163251D01*
X136669866Y-81123753D01*
X136566198Y-80975700D01*
X136404300Y-80813802D01*
X136216749Y-80682477D01*
X136214564Y-80681458D01*
X136009249Y-80585718D01*
X136009238Y-80585714D01*
X135788089Y-80526457D01*
X135788081Y-80526456D01*
X135560002Y-80506502D01*
X135559998Y-80506502D01*
X135331918Y-80526456D01*
X135331910Y-80526457D01*
X135110761Y-80585714D01*
X135110750Y-80585718D01*
X134903254Y-80682475D01*
X134903252Y-80682476D01*
X134903249Y-80682477D01*
X134903251Y-80682477D01*
X134715700Y-80813802D01*
X134715698Y-80813803D01*
X134715695Y-80813806D01*
X134553806Y-80975695D01*
X134422476Y-81163251D01*
X134402382Y-81206345D01*
X134356209Y-81258784D01*
X134289016Y-81277936D01*
X134222135Y-81257720D01*
X134177618Y-81206345D01*
X134157523Y-81163251D01*
X134129866Y-81123753D01*
X134026198Y-80975700D01*
X133864300Y-80813802D01*
X133676749Y-80682477D01*
X133674564Y-80681458D01*
X133469249Y-80585718D01*
X133469238Y-80585714D01*
X133248089Y-80526457D01*
X133248081Y-80526456D01*
X133020002Y-80506502D01*
X133019998Y-80506502D01*
X132791918Y-80526456D01*
X132791910Y-80526457D01*
X132570761Y-80585714D01*
X132570750Y-80585718D01*
X132363254Y-80682475D01*
X132363252Y-80682476D01*
X132363249Y-80682477D01*
X132363251Y-80682477D01*
X132175700Y-80813802D01*
X132175698Y-80813803D01*
X132175695Y-80813806D01*
X132013806Y-80975695D01*
X131882476Y-81163251D01*
X131862382Y-81206345D01*
X131816209Y-81258784D01*
X131749016Y-81277936D01*
X131682135Y-81257720D01*
X131637618Y-81206345D01*
X131617523Y-81163251D01*
X131589866Y-81123753D01*
X131486198Y-80975700D01*
X131324300Y-80813802D01*
X131136749Y-80682477D01*
X131134564Y-80681458D01*
X130929249Y-80585718D01*
X130929238Y-80585714D01*
X130708089Y-80526457D01*
X130708081Y-80526456D01*
X130480002Y-80506502D01*
X130479998Y-80506502D01*
X130251918Y-80526456D01*
X130251910Y-80526457D01*
X130030761Y-80585714D01*
X130030750Y-80585718D01*
X129823254Y-80682475D01*
X129823252Y-80682476D01*
X129823249Y-80682477D01*
X129823251Y-80682477D01*
X129635700Y-80813802D01*
X129635698Y-80813803D01*
X129635695Y-80813806D01*
X129473806Y-80975695D01*
X129473803Y-80975698D01*
X129473802Y-80975700D01*
X129391767Y-81092856D01*
X129342476Y-81163252D01*
X129342475Y-81163254D01*
X129245718Y-81370750D01*
X129245714Y-81370761D01*
X129186457Y-81591910D01*
X129186456Y-81591918D01*
X129171500Y-81762869D01*
X129171500Y-82677130D01*
X129186456Y-82848081D01*
X129186457Y-82848089D01*
X129245714Y-83069238D01*
X129245718Y-83069249D01*
X129317692Y-83223597D01*
X129342477Y-83276749D01*
X129473802Y-83464300D01*
X129635700Y-83626198D01*
X129823251Y-83757523D01*
X129926675Y-83805750D01*
X130030750Y-83854281D01*
X130030752Y-83854281D01*
X130030757Y-83854284D01*
X130251913Y-83913543D01*
X130414832Y-83927796D01*
X130479998Y-83933498D01*
X130480000Y-83933498D01*
X130480002Y-83933498D01*
X130537021Y-83928509D01*
X130708087Y-83913543D01*
X130929243Y-83854284D01*
X131136749Y-83757523D01*
X131324300Y-83626198D01*
X131486198Y-83464300D01*
X131617523Y-83276749D01*
X131637617Y-83233655D01*
X131683790Y-83181215D01*
X131750983Y-83162063D01*
X131817864Y-83182278D01*
X131862382Y-83233655D01*
X131882477Y-83276749D01*
X132013802Y-83464300D01*
X132175700Y-83626198D01*
X132363251Y-83757523D01*
X132466675Y-83805750D01*
X132570750Y-83854281D01*
X132570752Y-83854281D01*
X132570757Y-83854284D01*
X132791913Y-83913543D01*
X132954832Y-83927796D01*
X133019998Y-83933498D01*
X133020000Y-83933498D01*
X133020002Y-83933498D01*
X133077021Y-83928509D01*
X133248087Y-83913543D01*
X133469243Y-83854284D01*
X133676749Y-83757523D01*
X133864300Y-83626198D01*
X134026198Y-83464300D01*
X134157523Y-83276749D01*
X134177617Y-83233655D01*
X134223790Y-83181215D01*
X134290983Y-83162063D01*
X134357864Y-83182278D01*
X134402382Y-83233655D01*
X134422477Y-83276749D01*
X134553802Y-83464300D01*
X134715700Y-83626198D01*
X134903251Y-83757523D01*
X135006675Y-83805750D01*
X135110750Y-83854281D01*
X135110752Y-83854281D01*
X135110757Y-83854284D01*
X135331913Y-83913543D01*
X135494832Y-83927796D01*
X135559998Y-83933498D01*
X135560000Y-83933498D01*
X135560002Y-83933498D01*
X135617021Y-83928509D01*
X135788087Y-83913543D01*
X136009243Y-83854284D01*
X136216749Y-83757523D01*
X136404300Y-83626198D01*
X136566198Y-83464300D01*
X136697523Y-83276749D01*
X136717617Y-83233655D01*
X136763790Y-83181215D01*
X136830983Y-83162063D01*
X136897864Y-83182278D01*
X136942382Y-83233655D01*
X136962477Y-83276749D01*
X137093802Y-83464300D01*
X137255700Y-83626198D01*
X137443251Y-83757523D01*
X137443252Y-83757523D01*
X137447686Y-83760628D01*
X137446287Y-83762625D01*
X137487392Y-83805750D01*
X137500605Y-83874359D01*
X137474627Y-83939220D01*
X137464849Y-83950234D01*
X130212904Y-91202181D01*
X130151581Y-91235666D01*
X130125223Y-91238500D01*
X129412352Y-91238500D01*
X129345313Y-91218815D01*
X129310779Y-91185626D01*
X129200198Y-91027700D01*
X129038300Y-90865802D01*
X128850749Y-90734477D01*
X128850745Y-90734475D01*
X128643249Y-90637718D01*
X128643238Y-90637714D01*
X128422089Y-90578457D01*
X128422081Y-90578456D01*
X128194002Y-90558502D01*
X128193998Y-90558502D01*
X127965918Y-90578456D01*
X127965910Y-90578457D01*
X127744761Y-90637714D01*
X127744750Y-90637718D01*
X127537254Y-90734475D01*
X127537252Y-90734476D01*
X127537249Y-90734477D01*
X127537251Y-90734477D01*
X127349700Y-90865802D01*
X127349698Y-90865803D01*
X127349695Y-90865806D01*
X127187806Y-91027695D01*
X127187803Y-91027698D01*
X127187802Y-91027700D01*
X127165742Y-91059205D01*
X127056476Y-91215252D01*
X127056475Y-91215254D01*
X126959718Y-91422750D01*
X126959714Y-91422761D01*
X126900457Y-91643910D01*
X126900456Y-91643918D01*
X126880502Y-91871998D01*
X126880502Y-91872001D01*
X126900456Y-92100081D01*
X126900457Y-92100089D01*
X126959714Y-92321238D01*
X126959718Y-92321249D01*
X127056475Y-92528745D01*
X127056477Y-92528749D01*
X127187802Y-92716300D01*
X127349700Y-92878198D01*
X127537251Y-93009523D01*
X127662091Y-93067736D01*
X127744750Y-93106281D01*
X127744752Y-93106281D01*
X127744757Y-93106284D01*
X127965913Y-93165543D01*
X128128832Y-93179796D01*
X128193998Y-93185498D01*
X128194000Y-93185498D01*
X128194002Y-93185498D01*
X128251021Y-93180509D01*
X128422087Y-93165543D01*
X128643243Y-93106284D01*
X128850749Y-93009523D01*
X129038300Y-92878198D01*
X129200198Y-92716300D01*
X129310779Y-92558374D01*
X129365354Y-92514751D01*
X129412352Y-92505500D01*
X130355356Y-92505500D01*
X130371103Y-92507238D01*
X130371129Y-92506968D01*
X130378896Y-92507702D01*
X130378898Y-92507701D01*
X130378899Y-92507702D01*
X130388249Y-92507408D01*
X130447981Y-92505531D01*
X130449929Y-92505500D01*
X130478847Y-92505500D01*
X130480212Y-92505327D01*
X130485852Y-92504614D01*
X130491675Y-92504156D01*
X130517698Y-92503338D01*
X130538880Y-92502673D01*
X130548671Y-92499827D01*
X130558471Y-92496980D01*
X130577528Y-92493032D01*
X130597787Y-92490474D01*
X130641711Y-92473082D01*
X130647211Y-92471199D01*
X130692583Y-92458018D01*
X130710155Y-92447625D01*
X130727622Y-92439068D01*
X130746607Y-92431552D01*
X130784816Y-92403790D01*
X130789694Y-92400585D01*
X130830352Y-92376542D01*
X130844792Y-92362100D01*
X130859582Y-92349470D01*
X130876097Y-92337472D01*
X130906212Y-92301067D01*
X130910116Y-92296776D01*
X139600520Y-83606373D01*
X139661839Y-83572891D01*
X139731531Y-83577875D01*
X139775878Y-83606376D01*
X139795700Y-83626198D01*
X139983251Y-83757523D01*
X140086675Y-83805750D01*
X140190750Y-83854281D01*
X140190752Y-83854281D01*
X140190757Y-83854284D01*
X140411913Y-83913543D01*
X140574832Y-83927796D01*
X140639998Y-83933498D01*
X140640000Y-83933498D01*
X140640002Y-83933498D01*
X140697021Y-83928509D01*
X140868087Y-83913543D01*
X141089243Y-83854284D01*
X141296749Y-83757523D01*
X141484300Y-83626198D01*
X141646198Y-83464300D01*
X141777523Y-83276749D01*
X141802307Y-83223598D01*
X141848479Y-83171159D01*
X141915672Y-83152007D01*
X141982553Y-83172222D01*
X142027071Y-83223599D01*
X142049864Y-83272479D01*
X142049865Y-83272481D01*
X142180342Y-83458820D01*
X142341179Y-83619657D01*
X142527517Y-83750134D01*
X142733673Y-83846265D01*
X142733682Y-83846269D01*
X142929999Y-83898872D01*
X142930000Y-83898871D01*
X142930000Y-82735685D01*
X142941955Y-82747641D01*
X143054852Y-82805165D01*
X143180000Y-82824986D01*
X143305148Y-82805165D01*
X143418045Y-82747641D01*
X143430000Y-82735686D01*
X143430000Y-83898872D01*
X143626317Y-83846269D01*
X143626326Y-83846265D01*
X143832482Y-83750134D01*
X144018820Y-83619657D01*
X144179657Y-83458820D01*
X144310133Y-83272483D01*
X144332927Y-83223600D01*
X144379098Y-83171160D01*
X144446292Y-83152007D01*
X144513173Y-83172221D01*
X144557691Y-83223596D01*
X144582477Y-83276749D01*
X144713802Y-83464300D01*
X144875700Y-83626198D01*
X145063251Y-83757523D01*
X145166675Y-83805750D01*
X145270750Y-83854281D01*
X145270752Y-83854281D01*
X145270757Y-83854284D01*
X145491913Y-83913543D01*
X145654832Y-83927796D01*
X145719998Y-83933498D01*
X145720000Y-83933498D01*
X145720002Y-83933498D01*
X145777021Y-83928509D01*
X145948087Y-83913543D01*
X146169243Y-83854284D01*
X146376749Y-83757523D01*
X146564300Y-83626198D01*
X146726198Y-83464300D01*
X146857523Y-83276749D01*
X146877617Y-83233655D01*
X146923790Y-83181215D01*
X146990983Y-83162063D01*
X147057864Y-83182278D01*
X147102382Y-83233655D01*
X147122477Y-83276749D01*
X147253802Y-83464300D01*
X147415700Y-83626198D01*
X147603251Y-83757523D01*
X147706675Y-83805750D01*
X147810750Y-83854281D01*
X147810752Y-83854281D01*
X147810757Y-83854284D01*
X148031913Y-83913543D01*
X148194832Y-83927796D01*
X148259998Y-83933498D01*
X148260000Y-83933498D01*
X148260002Y-83933498D01*
X148317021Y-83928509D01*
X148488087Y-83913543D01*
X148709243Y-83854284D01*
X148916749Y-83757523D01*
X149104300Y-83626198D01*
X149266198Y-83464300D01*
X149397523Y-83276749D01*
X149417617Y-83233655D01*
X149463790Y-83181215D01*
X149530983Y-83162063D01*
X149597864Y-83182278D01*
X149642382Y-83233655D01*
X149662477Y-83276749D01*
X149793802Y-83464300D01*
X149955700Y-83626198D01*
X150113625Y-83736779D01*
X150157249Y-83791354D01*
X150166500Y-83838352D01*
X150166500Y-95977500D01*
X150146815Y-96044539D01*
X150094011Y-96090294D01*
X150042500Y-96101500D01*
X149901345Y-96101500D01*
X149840797Y-96108011D01*
X149840795Y-96108011D01*
X149703795Y-96159111D01*
X149586739Y-96246739D01*
X149499111Y-96363795D01*
X149448011Y-96500795D01*
X149448011Y-96500797D01*
X149441500Y-96561345D01*
X149441500Y-98358654D01*
X149448011Y-98419202D01*
X149448011Y-98419204D01*
X149499110Y-98556204D01*
X149499111Y-98556204D01*
X149586739Y-98673261D01*
X149703796Y-98760889D01*
X149840799Y-98811989D01*
X149868050Y-98814918D01*
X149901345Y-98818499D01*
X149901362Y-98818500D01*
X151698638Y-98818500D01*
X151698654Y-98818499D01*
X151725692Y-98815591D01*
X151759201Y-98811989D01*
X151896204Y-98760889D01*
X152013261Y-98673261D01*
X152100889Y-98556204D01*
X152146138Y-98434887D01*
X152188009Y-98378956D01*
X152253474Y-98354539D01*
X152321746Y-98369391D01*
X152353545Y-98394236D01*
X152416760Y-98462906D01*
X152594424Y-98601189D01*
X152594425Y-98601189D01*
X152594427Y-98601191D01*
X152654314Y-98633600D01*
X152792426Y-98708342D01*
X153005365Y-98781444D01*
X153227431Y-98818500D01*
X153452569Y-98818500D01*
X153674635Y-98781444D01*
X153887574Y-98708342D01*
X154085576Y-98601189D01*
X154263240Y-98462906D01*
X154384594Y-98331082D01*
X154415715Y-98297276D01*
X154415715Y-98297275D01*
X154415722Y-98297268D01*
X154506193Y-98158790D01*
X154559338Y-98113437D01*
X154628569Y-98104013D01*
X154691905Y-98133515D01*
X154713804Y-98158787D01*
X154804278Y-98297268D01*
X154804283Y-98297273D01*
X154804284Y-98297276D01*
X154923355Y-98426619D01*
X154956760Y-98462906D01*
X155134424Y-98601189D01*
X155134425Y-98601189D01*
X155134427Y-98601191D01*
X155194314Y-98633600D01*
X155332426Y-98708342D01*
X155545365Y-98781444D01*
X155767431Y-98818500D01*
X155992569Y-98818500D01*
X156214635Y-98781444D01*
X156427574Y-98708342D01*
X156625576Y-98601189D01*
X156803240Y-98462906D01*
X156924594Y-98331082D01*
X156955715Y-98297276D01*
X156955715Y-98297275D01*
X156955722Y-98297268D01*
X157046193Y-98158790D01*
X157099338Y-98113437D01*
X157168569Y-98104013D01*
X157231905Y-98133515D01*
X157253804Y-98158787D01*
X157344278Y-98297268D01*
X157344283Y-98297273D01*
X157344284Y-98297276D01*
X157463355Y-98426619D01*
X157496760Y-98462906D01*
X157674424Y-98601189D01*
X157674425Y-98601189D01*
X157674427Y-98601191D01*
X157734314Y-98633600D01*
X157872426Y-98708342D01*
X158085365Y-98781444D01*
X158307431Y-98818500D01*
X158532569Y-98818500D01*
X158754635Y-98781444D01*
X158967574Y-98708342D01*
X159165576Y-98601189D01*
X159343240Y-98462906D01*
X159464594Y-98331082D01*
X159495715Y-98297276D01*
X159495715Y-98297275D01*
X159495722Y-98297268D01*
X159586193Y-98158790D01*
X159639338Y-98113437D01*
X159708569Y-98104013D01*
X159771905Y-98133515D01*
X159793804Y-98158787D01*
X159884278Y-98297268D01*
X159884283Y-98297273D01*
X159884284Y-98297276D01*
X160003355Y-98426619D01*
X160036760Y-98462906D01*
X160214424Y-98601189D01*
X160214425Y-98601189D01*
X160214427Y-98601191D01*
X160274314Y-98633600D01*
X160412426Y-98708342D01*
X160625365Y-98781444D01*
X160847431Y-98818500D01*
X161072569Y-98818500D01*
X161294635Y-98781444D01*
X161507574Y-98708342D01*
X161705576Y-98601189D01*
X161883240Y-98462906D01*
X162004594Y-98331082D01*
X162035715Y-98297276D01*
X162035715Y-98297275D01*
X162035722Y-98297268D01*
X162126193Y-98158790D01*
X162179338Y-98113437D01*
X162248569Y-98104013D01*
X162311905Y-98133515D01*
X162333804Y-98158787D01*
X162424278Y-98297268D01*
X162424283Y-98297273D01*
X162424284Y-98297276D01*
X162543355Y-98426619D01*
X162576760Y-98462906D01*
X162754424Y-98601189D01*
X162754425Y-98601189D01*
X162754427Y-98601191D01*
X162814314Y-98633600D01*
X162952426Y-98708342D01*
X163165365Y-98781444D01*
X163387431Y-98818500D01*
X163612569Y-98818500D01*
X163834635Y-98781444D01*
X164047574Y-98708342D01*
X164245576Y-98601189D01*
X164423240Y-98462906D01*
X164544594Y-98331082D01*
X164575715Y-98297276D01*
X164575717Y-98297273D01*
X164575722Y-98297268D01*
X164698860Y-98108791D01*
X164789296Y-97902616D01*
X164844564Y-97684368D01*
X164847689Y-97646654D01*
X164863156Y-97460005D01*
X164863156Y-97459994D01*
X164844565Y-97235640D01*
X164844563Y-97235628D01*
X164823926Y-97154135D01*
X164789296Y-97017384D01*
X164698860Y-96811209D01*
X164682706Y-96786484D01*
X164575723Y-96622734D01*
X164575715Y-96622723D01*
X164423243Y-96457097D01*
X164423238Y-96457092D01*
X164245577Y-96318812D01*
X164245577Y-96318811D01*
X164198480Y-96293323D01*
X164148891Y-96244102D01*
X164133500Y-96184269D01*
X164133500Y-83838352D01*
X164153185Y-83771313D01*
X164186373Y-83736779D01*
X164344300Y-83626198D01*
X164506198Y-83464300D01*
X164637523Y-83276749D01*
X164734284Y-83069243D01*
X164793543Y-82848087D01*
X164808500Y-82677127D01*
X164808500Y-81762873D01*
X164793543Y-81591913D01*
X164734284Y-81370757D01*
X164730334Y-81362287D01*
X164681574Y-81257720D01*
X164637523Y-81163251D01*
X164506198Y-80975700D01*
X164344300Y-80813802D01*
X164156749Y-80682477D01*
X164154564Y-80681458D01*
X163949249Y-80585718D01*
X163949238Y-80585714D01*
X163728089Y-80526457D01*
X163728081Y-80526456D01*
X163500002Y-80506502D01*
X163499998Y-80506502D01*
X163271918Y-80526456D01*
X163271910Y-80526457D01*
X163050761Y-80585714D01*
X163050750Y-80585718D01*
X162843254Y-80682475D01*
X162843252Y-80682476D01*
X162843249Y-80682477D01*
X162843251Y-80682477D01*
X162655700Y-80813802D01*
X162655698Y-80813803D01*
X162655695Y-80813806D01*
X162493806Y-80975695D01*
X162362476Y-81163251D01*
X162342382Y-81206345D01*
X162296209Y-81258784D01*
X162229016Y-81277936D01*
X162162135Y-81257720D01*
X162117618Y-81206345D01*
X162097523Y-81163251D01*
X162069866Y-81123753D01*
X161966198Y-80975700D01*
X161804300Y-80813802D01*
X161616749Y-80682477D01*
X161614564Y-80681458D01*
X161409249Y-80585718D01*
X161409238Y-80585714D01*
X161188089Y-80526457D01*
X161188081Y-80526456D01*
X160960002Y-80506502D01*
X160959998Y-80506502D01*
X160731918Y-80526456D01*
X160731910Y-80526457D01*
X160510761Y-80585714D01*
X160510750Y-80585718D01*
X160303254Y-80682475D01*
X160303252Y-80682476D01*
X160303249Y-80682477D01*
X160303251Y-80682477D01*
X160115700Y-80813802D01*
X160115698Y-80813803D01*
X160115695Y-80813806D01*
X159953806Y-80975695D01*
X159822476Y-81163251D01*
X159802382Y-81206345D01*
X159756209Y-81258784D01*
X159689016Y-81277936D01*
X159622135Y-81257720D01*
X159577618Y-81206345D01*
X159557523Y-81163251D01*
X159529866Y-81123753D01*
X159426198Y-80975700D01*
X159264300Y-80813802D01*
X159076749Y-80682477D01*
X159074564Y-80681458D01*
X158869249Y-80585718D01*
X158869238Y-80585714D01*
X158648089Y-80526457D01*
X158648081Y-80526456D01*
X158420002Y-80506502D01*
X158419998Y-80506502D01*
X158191918Y-80526456D01*
X158191910Y-80526457D01*
X157970761Y-80585714D01*
X157970750Y-80585718D01*
X157763254Y-80682475D01*
X157763252Y-80682476D01*
X157763249Y-80682477D01*
X157763251Y-80682477D01*
X157575700Y-80813802D01*
X157575698Y-80813803D01*
X157575695Y-80813806D01*
X157413806Y-80975695D01*
X157282476Y-81163251D01*
X157262382Y-81206345D01*
X157216209Y-81258784D01*
X157149016Y-81277936D01*
X157082135Y-81257720D01*
X157037618Y-81206345D01*
X157017523Y-81163251D01*
X156989866Y-81123753D01*
X156886198Y-80975700D01*
X156724300Y-80813802D01*
X156536749Y-80682477D01*
X156534564Y-80681458D01*
X156329249Y-80585718D01*
X156329238Y-80585714D01*
X156108089Y-80526457D01*
X156108081Y-80526456D01*
X155880002Y-80506502D01*
X155879998Y-80506502D01*
X155651918Y-80526456D01*
X155651910Y-80526457D01*
X155430761Y-80585714D01*
X155430750Y-80585718D01*
X155223254Y-80682475D01*
X155223252Y-80682476D01*
X155223249Y-80682477D01*
X155223251Y-80682477D01*
X155035700Y-80813802D01*
X155035698Y-80813803D01*
X155035695Y-80813806D01*
X154873806Y-80975695D01*
X154742476Y-81163251D01*
X154722382Y-81206345D01*
X154676209Y-81258784D01*
X154609016Y-81277936D01*
X154542135Y-81257720D01*
X154497618Y-81206345D01*
X154477523Y-81163251D01*
X154449866Y-81123753D01*
X154346198Y-80975700D01*
X154184300Y-80813802D01*
X153996749Y-80682477D01*
X153994564Y-80681458D01*
X153789249Y-80585718D01*
X153789238Y-80585714D01*
X153568089Y-80526457D01*
X153568081Y-80526456D01*
X153340002Y-80506502D01*
X153339998Y-80506502D01*
X153111918Y-80526456D01*
X153111910Y-80526457D01*
X152890761Y-80585714D01*
X152890750Y-80585718D01*
X152683254Y-80682475D01*
X152683252Y-80682476D01*
X152683249Y-80682477D01*
X152683251Y-80682477D01*
X152495700Y-80813802D01*
X152495698Y-80813803D01*
X152495695Y-80813806D01*
X152333806Y-80975695D01*
X152202476Y-81163251D01*
X152182382Y-81206345D01*
X152136209Y-81258784D01*
X152069016Y-81277936D01*
X152002135Y-81257720D01*
X151957618Y-81206345D01*
X151937523Y-81163251D01*
X151909866Y-81123753D01*
X151806198Y-80975700D01*
X151644300Y-80813802D01*
X151456749Y-80682477D01*
X151454564Y-80681458D01*
X151249249Y-80585718D01*
X151249238Y-80585714D01*
X151028089Y-80526457D01*
X151028081Y-80526456D01*
X150800002Y-80506502D01*
X150799998Y-80506502D01*
X150571918Y-80526456D01*
X150571910Y-80526457D01*
X150350761Y-80585714D01*
X150350750Y-80585718D01*
X150143254Y-80682475D01*
X150143252Y-80682476D01*
X150143249Y-80682477D01*
X150143251Y-80682477D01*
X149955700Y-80813802D01*
X149955698Y-80813803D01*
X149955695Y-80813806D01*
X149793806Y-80975695D01*
X149662476Y-81163251D01*
X149642382Y-81206345D01*
X149596209Y-81258784D01*
X149529016Y-81277936D01*
X149462135Y-81257720D01*
X149417618Y-81206345D01*
X149397523Y-81163251D01*
X149369866Y-81123753D01*
X149266198Y-80975700D01*
X149104300Y-80813802D01*
X148916749Y-80682477D01*
X148914564Y-80681458D01*
X148709249Y-80585718D01*
X148709238Y-80585714D01*
X148488089Y-80526457D01*
X148488081Y-80526456D01*
X148260002Y-80506502D01*
X148259998Y-80506502D01*
X148031918Y-80526456D01*
X148031910Y-80526457D01*
X147810761Y-80585714D01*
X147810750Y-80585718D01*
X147603254Y-80682475D01*
X147603252Y-80682476D01*
X147603249Y-80682477D01*
X147603251Y-80682477D01*
X147415700Y-80813802D01*
X147415698Y-80813803D01*
X147415695Y-80813806D01*
X147253806Y-80975695D01*
X147122476Y-81163251D01*
X147102382Y-81206345D01*
X147056209Y-81258784D01*
X146989016Y-81277936D01*
X146922135Y-81257720D01*
X146877618Y-81206345D01*
X146857523Y-81163251D01*
X146829866Y-81123753D01*
X146726198Y-80975700D01*
X146564300Y-80813802D01*
X146376749Y-80682477D01*
X146374564Y-80681458D01*
X146169249Y-80585718D01*
X146169238Y-80585714D01*
X145948089Y-80526457D01*
X145948081Y-80526456D01*
X145720002Y-80506502D01*
X145719998Y-80506502D01*
X145491918Y-80526456D01*
X145491910Y-80526457D01*
X145270761Y-80585714D01*
X145270750Y-80585718D01*
X145063254Y-80682475D01*
X145063252Y-80682476D01*
X145063249Y-80682477D01*
X145063251Y-80682477D01*
X144875700Y-80813802D01*
X144875698Y-80813803D01*
X144875695Y-80813806D01*
X144713806Y-80975695D01*
X144713803Y-80975698D01*
X144713802Y-80975700D01*
X144631767Y-81092856D01*
X144582476Y-81163252D01*
X144582474Y-81163256D01*
X144557691Y-81216402D01*
X144511518Y-81268841D01*
X144444324Y-81287992D01*
X144377444Y-81267775D01*
X144332927Y-81216399D01*
X144310133Y-81167517D01*
X144179657Y-80981179D01*
X144018820Y-80820342D01*
X143832482Y-80689865D01*
X143626328Y-80593734D01*
X143430000Y-80541127D01*
X143430000Y-81704313D01*
X143418045Y-81692359D01*
X143305148Y-81634835D01*
X143180000Y-81615014D01*
X143054852Y-81634835D01*
X142941955Y-81692359D01*
X142930000Y-81704314D01*
X142930000Y-80541127D01*
X142733671Y-80593734D01*
X142527517Y-80689865D01*
X142341179Y-80820342D01*
X142180342Y-80981179D01*
X142049865Y-81167517D01*
X142027071Y-81216401D01*
X141980898Y-81268840D01*
X141913705Y-81287992D01*
X141846824Y-81267776D01*
X141802307Y-81216401D01*
X141777523Y-81163251D01*
X141749866Y-81123753D01*
X141646198Y-80975700D01*
X141484300Y-80813802D01*
X141296749Y-80682477D01*
X141294564Y-80681458D01*
X141089249Y-80585718D01*
X141089238Y-80585714D01*
X140868089Y-80526457D01*
X140868081Y-80526456D01*
X140640002Y-80506502D01*
X140639998Y-80506502D01*
X140453797Y-80522792D01*
X140385297Y-80509025D01*
X140335114Y-80460410D01*
X140319181Y-80392381D01*
X140342557Y-80326538D01*
X140355302Y-80311590D01*
X144680520Y-75986373D01*
X144741839Y-75952891D01*
X144811531Y-75957875D01*
X144855878Y-75986376D01*
X144875700Y-76006198D01*
X145063251Y-76137523D01*
X145160662Y-76182946D01*
X145270750Y-76234281D01*
X145270752Y-76234281D01*
X145270757Y-76234284D01*
X145491913Y-76293543D01*
X145654832Y-76307796D01*
X145719998Y-76313498D01*
X145720000Y-76313498D01*
X145720002Y-76313498D01*
X145783825Y-76307914D01*
X145948087Y-76293543D01*
X146169243Y-76234284D01*
X146376749Y-76137523D01*
X146564300Y-76006198D01*
X146726198Y-75844300D01*
X146857523Y-75656749D01*
X146882307Y-75603598D01*
X146928479Y-75551159D01*
X146995672Y-75532007D01*
X147062553Y-75552222D01*
X147107071Y-75603599D01*
X147129864Y-75652479D01*
X147129865Y-75652481D01*
X147260342Y-75838820D01*
X147421179Y-75999657D01*
X147607517Y-76130134D01*
X147813673Y-76226265D01*
X147813682Y-76226269D01*
X148009999Y-76278872D01*
X148010000Y-76278871D01*
X148010000Y-75115686D01*
X148021955Y-75127641D01*
X148134852Y-75185165D01*
X148260000Y-75204986D01*
X148385148Y-75185165D01*
X148498045Y-75127641D01*
X148510000Y-75115686D01*
X148510000Y-76278872D01*
X148706317Y-76226269D01*
X148706326Y-76226265D01*
X148912482Y-76130134D01*
X149098820Y-75999657D01*
X149259657Y-75838820D01*
X149390133Y-75652483D01*
X149412927Y-75603600D01*
X149459098Y-75551160D01*
X149526292Y-75532007D01*
X149593173Y-75552221D01*
X149637691Y-75603596D01*
X149662477Y-75656749D01*
X149793802Y-75844300D01*
X149955700Y-76006198D01*
X150143251Y-76137523D01*
X150240662Y-76182946D01*
X150350750Y-76234281D01*
X150350752Y-76234281D01*
X150350757Y-76234284D01*
X150571913Y-76293543D01*
X150734832Y-76307796D01*
X150799998Y-76313498D01*
X150800000Y-76313498D01*
X150800002Y-76313498D01*
X150863825Y-76307914D01*
X151028087Y-76293543D01*
X151249243Y-76234284D01*
X151456749Y-76137523D01*
X151644300Y-76006198D01*
X151806198Y-75844300D01*
X151937523Y-75656749D01*
X151957617Y-75613655D01*
X152003790Y-75561215D01*
X152070983Y-75542063D01*
X152137864Y-75562278D01*
X152182382Y-75613655D01*
X152202477Y-75656749D01*
X152333802Y-75844300D01*
X152495700Y-76006198D01*
X152683251Y-76137523D01*
X152780662Y-76182946D01*
X152890750Y-76234281D01*
X152890752Y-76234281D01*
X152890757Y-76234284D01*
X153111913Y-76293543D01*
X153274832Y-76307796D01*
X153339998Y-76313498D01*
X153340000Y-76313498D01*
X153340002Y-76313498D01*
X153403825Y-76307914D01*
X153568087Y-76293543D01*
X153789243Y-76234284D01*
X153996749Y-76137523D01*
X154184300Y-76006198D01*
X154346198Y-75844300D01*
X154477523Y-75656749D01*
X154497617Y-75613655D01*
X154543790Y-75561215D01*
X154610983Y-75542063D01*
X154677864Y-75562278D01*
X154722382Y-75613655D01*
X154742477Y-75656749D01*
X154873802Y-75844300D01*
X155035700Y-76006198D01*
X155223251Y-76137523D01*
X155320662Y-76182946D01*
X155430750Y-76234281D01*
X155430752Y-76234281D01*
X155430757Y-76234284D01*
X155651913Y-76293543D01*
X155814832Y-76307796D01*
X155879998Y-76313498D01*
X155880000Y-76313498D01*
X155880002Y-76313498D01*
X155943825Y-76307914D01*
X156108087Y-76293543D01*
X156329243Y-76234284D01*
X156536749Y-76137523D01*
X156724300Y-76006198D01*
X156886198Y-75844300D01*
X157017523Y-75656749D01*
X157037617Y-75613655D01*
X157083790Y-75561215D01*
X157150983Y-75542063D01*
X157217864Y-75562278D01*
X157262382Y-75613655D01*
X157282477Y-75656749D01*
X157413802Y-75844300D01*
X157575700Y-76006198D01*
X157763251Y-76137523D01*
X157860662Y-76182946D01*
X157970750Y-76234281D01*
X157970752Y-76234281D01*
X157970757Y-76234284D01*
X158191913Y-76293543D01*
X158354832Y-76307796D01*
X158419998Y-76313498D01*
X158420000Y-76313498D01*
X158420002Y-76313498D01*
X158483825Y-76307914D01*
X158648087Y-76293543D01*
X158869243Y-76234284D01*
X159076749Y-76137523D01*
X159264300Y-76006198D01*
X159426198Y-75844300D01*
X159557523Y-75656749D01*
X159577617Y-75613655D01*
X159623790Y-75561215D01*
X159690983Y-75542063D01*
X159757864Y-75562278D01*
X159802382Y-75613655D01*
X159822477Y-75656749D01*
X159953802Y-75844300D01*
X160115700Y-76006198D01*
X160303251Y-76137523D01*
X160400662Y-76182946D01*
X160510750Y-76234281D01*
X160510752Y-76234281D01*
X160510757Y-76234284D01*
X160731913Y-76293543D01*
X160894832Y-76307796D01*
X160959998Y-76313498D01*
X160960000Y-76313498D01*
X160960002Y-76313498D01*
X161023825Y-76307914D01*
X161188087Y-76293543D01*
X161409243Y-76234284D01*
X161616749Y-76137523D01*
X161804300Y-76006198D01*
X161966198Y-75844300D01*
X161971566Y-75836632D01*
X162026139Y-75793008D01*
X162095637Y-75785813D01*
X162157993Y-75817333D01*
X162193409Y-75877562D01*
X162196430Y-75894498D01*
X162198011Y-75909202D01*
X162198011Y-75909204D01*
X162248145Y-76043615D01*
X162249111Y-76046204D01*
X162336739Y-76163261D01*
X162453796Y-76250889D01*
X162520330Y-76275705D01*
X162588943Y-76301297D01*
X162590799Y-76301989D01*
X162618050Y-76304918D01*
X162651345Y-76308499D01*
X162651362Y-76308500D01*
X164348638Y-76308500D01*
X164348654Y-76308499D01*
X164375692Y-76305591D01*
X164409201Y-76301989D01*
X164411057Y-76301297D01*
X164437615Y-76291391D01*
X164546204Y-76250889D01*
X164663261Y-76163261D01*
X164750889Y-76046204D01*
X164796555Y-75923768D01*
X164801988Y-75909204D01*
X164801988Y-75909203D01*
X164801989Y-75909201D01*
X164808180Y-75851619D01*
X164808499Y-75848654D01*
X164808500Y-75848637D01*
X164808500Y-73351362D01*
X164808499Y-73351345D01*
X164805157Y-73320270D01*
X164801989Y-73290799D01*
X164750889Y-73153796D01*
X164663261Y-73036739D01*
X164546204Y-72949111D01*
X164409203Y-72898011D01*
X164348654Y-72891500D01*
X164348638Y-72891500D01*
X162651362Y-72891500D01*
X162651345Y-72891500D01*
X162590797Y-72898011D01*
X162590795Y-72898011D01*
X162453795Y-72949111D01*
X162336739Y-73036739D01*
X162249111Y-73153795D01*
X162198011Y-73290795D01*
X162198011Y-73290797D01*
X162196430Y-73305501D01*
X162169691Y-73370052D01*
X162112298Y-73409899D01*
X162042473Y-73412392D01*
X161982384Y-73376738D01*
X161971574Y-73363379D01*
X161966198Y-73355700D01*
X161804300Y-73193802D01*
X161616749Y-73062477D01*
X161616745Y-73062475D01*
X161409244Y-72965716D01*
X161409245Y-72965716D01*
X161322405Y-72942447D01*
X161262745Y-72906082D01*
X161232217Y-72843235D01*
X161230500Y-72822673D01*
X161230500Y-64808561D01*
X161250185Y-64741522D01*
X161302989Y-64695767D01*
X161372147Y-64685823D01*
X161386582Y-64688783D01*
X161493913Y-64717543D01*
X161656832Y-64731796D01*
X161721998Y-64737498D01*
X161722000Y-64737498D01*
X161722002Y-64737498D01*
X161779139Y-64732499D01*
X161950087Y-64717543D01*
X162171243Y-64658284D01*
X162378749Y-64561523D01*
X162566300Y-64430198D01*
X162728198Y-64268300D01*
X162859523Y-64080749D01*
X162956284Y-63873243D01*
X163015543Y-63652087D01*
X163035498Y-63424000D01*
X163032571Y-63390549D01*
X163015543Y-63195918D01*
X163015543Y-63195913D01*
X162956284Y-62974757D01*
X162859523Y-62767251D01*
X162728198Y-62579700D01*
X162566300Y-62417802D01*
X162378749Y-62286477D01*
X162378745Y-62286475D01*
X162265551Y-62233692D01*
X162213111Y-62187520D01*
X162193959Y-62120327D01*
X162214175Y-62053445D01*
X162230274Y-62033629D01*
X162738759Y-61525144D01*
X163375016Y-60888887D01*
X163387378Y-60878985D01*
X163387204Y-60878775D01*
X163393213Y-60873802D01*
X163393218Y-60873800D01*
X163440548Y-60823397D01*
X163441819Y-60822084D01*
X163462335Y-60801570D01*
X163466661Y-60795992D01*
X163470450Y-60791555D01*
X163502786Y-60757121D01*
X163512619Y-60739232D01*
X163523302Y-60722969D01*
X163535814Y-60706841D01*
X163554571Y-60663491D01*
X163557141Y-60658247D01*
X163579893Y-60616864D01*
X163579893Y-60616863D01*
X163579895Y-60616860D01*
X163584974Y-60597073D01*
X163591270Y-60578685D01*
X163599381Y-60559945D01*
X163606769Y-60513297D01*
X163607951Y-60507586D01*
X163619700Y-60461830D01*
X163619700Y-60441415D01*
X163621227Y-60422014D01*
X163624420Y-60401857D01*
X163619975Y-60354833D01*
X163619700Y-60348995D01*
X163619700Y-59876500D01*
X163639385Y-59809461D01*
X163692189Y-59763706D01*
X163743700Y-59752500D01*
X165159838Y-59752500D01*
X165159854Y-59752499D01*
X165186892Y-59749591D01*
X165220401Y-59745989D01*
X165357404Y-59694889D01*
X165474461Y-59607261D01*
X165562089Y-59490204D01*
X165613189Y-59353201D01*
X165617294Y-59315016D01*
X165619699Y-59292654D01*
X165619700Y-59292637D01*
X165619700Y-57395362D01*
X165619699Y-57395345D01*
X165616357Y-57364270D01*
X165613189Y-57334799D01*
X165562089Y-57197796D01*
X165474461Y-57080739D01*
X165357404Y-56993111D01*
X165287237Y-56966939D01*
X165231304Y-56925067D01*
X165206888Y-56859602D01*
X165221741Y-56791329D01*
X165239338Y-56766780D01*
X165326514Y-56672083D01*
X165454184Y-56476669D01*
X165547949Y-56262907D01*
X165605251Y-56036626D01*
X165624527Y-55804000D01*
X165623116Y-55786976D01*
X165607744Y-55601460D01*
X165605251Y-55571374D01*
X165547949Y-55345093D01*
X165454184Y-55131331D01*
X165326514Y-54935917D01*
X165326513Y-54935915D01*
X165168423Y-54764185D01*
X165168422Y-54764184D01*
X165168420Y-54764182D01*
X164984217Y-54620810D01*
X164984215Y-54620809D01*
X164984214Y-54620808D01*
X164984211Y-54620806D01*
X164778933Y-54509716D01*
X164778930Y-54509715D01*
X164778927Y-54509713D01*
X164778921Y-54509711D01*
X164778919Y-54509710D01*
X164558154Y-54433920D01*
X164380336Y-54404248D01*
X164327912Y-54395500D01*
X164094488Y-54395500D01*
X164048440Y-54403184D01*
X163864245Y-54433920D01*
X163643480Y-54509710D01*
X163643466Y-54509716D01*
X163438188Y-54620806D01*
X163438185Y-54620808D01*
X163253981Y-54764181D01*
X163253976Y-54764185D01*
X163095886Y-54935915D01*
X162968216Y-55131329D01*
X162902356Y-55281476D01*
X162857400Y-55334961D01*
X162790664Y-55355651D01*
X162723336Y-55336976D01*
X162676793Y-55284866D01*
X162675244Y-55281476D01*
X162609383Y-55131329D01*
X162481713Y-54935915D01*
X162323623Y-54764185D01*
X162323622Y-54764184D01*
X162323620Y-54764182D01*
X162139417Y-54620810D01*
X162139415Y-54620809D01*
X162139414Y-54620808D01*
X162139411Y-54620806D01*
X161934133Y-54509716D01*
X161934130Y-54509715D01*
X161934127Y-54509713D01*
X161934121Y-54509711D01*
X161934119Y-54509710D01*
X161713354Y-54433920D01*
X161535536Y-54404248D01*
X161483112Y-54395500D01*
X161249688Y-54395500D01*
X161203640Y-54403184D01*
X161019445Y-54433920D01*
X160798680Y-54509710D01*
X160798666Y-54509716D01*
X160593388Y-54620806D01*
X160593385Y-54620808D01*
X160409181Y-54764181D01*
X160409176Y-54764185D01*
X160251086Y-54935915D01*
X160123416Y-55131329D01*
X160057556Y-55281476D01*
X160012600Y-55334961D01*
X159945864Y-55355651D01*
X159878536Y-55336976D01*
X159831993Y-55284866D01*
X159830444Y-55281476D01*
X159764583Y-55131329D01*
X159636913Y-54935915D01*
X159478823Y-54764185D01*
X159478822Y-54764184D01*
X159478820Y-54764182D01*
X159294617Y-54620810D01*
X159294615Y-54620809D01*
X159294614Y-54620808D01*
X159294611Y-54620806D01*
X159089333Y-54509716D01*
X159089330Y-54509715D01*
X159089327Y-54509713D01*
X159089321Y-54509711D01*
X159089319Y-54509710D01*
X158868554Y-54433920D01*
X158690736Y-54404248D01*
X158638312Y-54395500D01*
X158404888Y-54395500D01*
X158358840Y-54403184D01*
X158174645Y-54433920D01*
X157953880Y-54509710D01*
X157953866Y-54509716D01*
X157748588Y-54620806D01*
X157748585Y-54620808D01*
X157564381Y-54764181D01*
X157564376Y-54764185D01*
X157406286Y-54935915D01*
X157278616Y-55131329D01*
X157212756Y-55281476D01*
X157167800Y-55334961D01*
X157101064Y-55355651D01*
X157033736Y-55336976D01*
X156987193Y-55284866D01*
X156985644Y-55281476D01*
X156919783Y-55131329D01*
X156792113Y-54935915D01*
X156634023Y-54764185D01*
X156634022Y-54764184D01*
X156634020Y-54764182D01*
X156449817Y-54620810D01*
X156449815Y-54620809D01*
X156449814Y-54620808D01*
X156449811Y-54620806D01*
X156244533Y-54509716D01*
X156244530Y-54509715D01*
X156244527Y-54509713D01*
X156244521Y-54509711D01*
X156244519Y-54509710D01*
X156023754Y-54433920D01*
X155845936Y-54404248D01*
X155793512Y-54395500D01*
X155560088Y-54395500D01*
X155514040Y-54403184D01*
X155329845Y-54433920D01*
X155109080Y-54509710D01*
X155109066Y-54509716D01*
X154903788Y-54620806D01*
X154903785Y-54620808D01*
X154719581Y-54764181D01*
X154719576Y-54764185D01*
X154561486Y-54935915D01*
X154433816Y-55131329D01*
X154367956Y-55281476D01*
X154323000Y-55334961D01*
X154256264Y-55355651D01*
X154188936Y-55336976D01*
X154142393Y-55284866D01*
X154140844Y-55281476D01*
X154074983Y-55131329D01*
X153947313Y-54935915D01*
X153789223Y-54764185D01*
X153789222Y-54764184D01*
X153789220Y-54764182D01*
X153605017Y-54620810D01*
X153605015Y-54620809D01*
X153605014Y-54620808D01*
X153605011Y-54620806D01*
X153399733Y-54509716D01*
X153399730Y-54509715D01*
X153399727Y-54509713D01*
X153399721Y-54509711D01*
X153399719Y-54509710D01*
X153178954Y-54433920D01*
X153001136Y-54404248D01*
X152948712Y-54395500D01*
X152715288Y-54395500D01*
X152669240Y-54403184D01*
X152485045Y-54433920D01*
X152264280Y-54509710D01*
X152264266Y-54509716D01*
X152058988Y-54620806D01*
X152058985Y-54620808D01*
X151874781Y-54764181D01*
X151874776Y-54764185D01*
X151716686Y-54935915D01*
X151589016Y-55131329D01*
X151523156Y-55281476D01*
X151478200Y-55334961D01*
X151411464Y-55355651D01*
X151344136Y-55336976D01*
X151297593Y-55284866D01*
X151296044Y-55281476D01*
X151230183Y-55131329D01*
X151102513Y-54935915D01*
X150944423Y-54764185D01*
X150944422Y-54764184D01*
X150944420Y-54764182D01*
X150760217Y-54620810D01*
X150760215Y-54620809D01*
X150760214Y-54620808D01*
X150760211Y-54620806D01*
X150554933Y-54509716D01*
X150554930Y-54509715D01*
X150554927Y-54509713D01*
X150554921Y-54509711D01*
X150554919Y-54509710D01*
X150334154Y-54433920D01*
X150156336Y-54404248D01*
X150103912Y-54395500D01*
X149870488Y-54395500D01*
X149824440Y-54403184D01*
X149640245Y-54433920D01*
X149419480Y-54509710D01*
X149419466Y-54509716D01*
X149214188Y-54620806D01*
X149214185Y-54620808D01*
X149029981Y-54764181D01*
X149029976Y-54764185D01*
X148871886Y-54935915D01*
X148744216Y-55131329D01*
X148678356Y-55281476D01*
X148633400Y-55334961D01*
X148566664Y-55355651D01*
X148499336Y-55336976D01*
X148452793Y-55284866D01*
X148451244Y-55281476D01*
X148385383Y-55131329D01*
X148257713Y-54935915D01*
X148099623Y-54764185D01*
X148099622Y-54764184D01*
X148099620Y-54764182D01*
X147915417Y-54620810D01*
X147915415Y-54620809D01*
X147915414Y-54620808D01*
X147915411Y-54620806D01*
X147710133Y-54509716D01*
X147710130Y-54509715D01*
X147710127Y-54509713D01*
X147710121Y-54509711D01*
X147710119Y-54509710D01*
X147489354Y-54433920D01*
X147311536Y-54404248D01*
X147259112Y-54395500D01*
X147025688Y-54395500D01*
X146948778Y-54408334D01*
X146795436Y-54433922D01*
X146792849Y-54434577D01*
X146791758Y-54434535D01*
X146790391Y-54434764D01*
X146790344Y-54434482D01*
X146723029Y-54431944D01*
X146665716Y-54391981D01*
X146639107Y-54327377D01*
X146651650Y-54258642D01*
X146666874Y-54235335D01*
X146695221Y-54201068D01*
X146699126Y-54196776D01*
X150343009Y-50552893D01*
X150404330Y-50519410D01*
X150461143Y-50520374D01*
X150465356Y-50521441D01*
X150465365Y-50521444D01*
X150687431Y-50558500D01*
X150912569Y-50558500D01*
X151134635Y-50521444D01*
X151347574Y-50448342D01*
X151545576Y-50341189D01*
X151723240Y-50202906D01*
X151875722Y-50037268D01*
X151966193Y-49898790D01*
X152019338Y-49853437D01*
X152088569Y-49844013D01*
X152151905Y-49873515D01*
X152173804Y-49898787D01*
X152264278Y-50037268D01*
X152264283Y-50037273D01*
X152264284Y-50037276D01*
X152390968Y-50174889D01*
X152416760Y-50202906D01*
X152594424Y-50341189D01*
X152594425Y-50341189D01*
X152594427Y-50341191D01*
X152599010Y-50343671D01*
X152792426Y-50448342D01*
X153005365Y-50521444D01*
X153227431Y-50558500D01*
X153452569Y-50558500D01*
X153674635Y-50521444D01*
X153887574Y-50448342D01*
X154085576Y-50341189D01*
X154263240Y-50202906D01*
X154415722Y-50037268D01*
X154506193Y-49898790D01*
X154559338Y-49853437D01*
X154628569Y-49844013D01*
X154691905Y-49873515D01*
X154713804Y-49898787D01*
X154804278Y-50037268D01*
X154804283Y-50037273D01*
X154804284Y-50037276D01*
X154930968Y-50174889D01*
X154956760Y-50202906D01*
X155134424Y-50341189D01*
X155134425Y-50341189D01*
X155134427Y-50341191D01*
X155139010Y-50343671D01*
X155332426Y-50448342D01*
X155545365Y-50521444D01*
X155767431Y-50558500D01*
X155992569Y-50558500D01*
X156214635Y-50521444D01*
X156427574Y-50448342D01*
X156625576Y-50341189D01*
X156803240Y-50202906D01*
X156955722Y-50037268D01*
X157046193Y-49898790D01*
X157099338Y-49853437D01*
X157168569Y-49844013D01*
X157231905Y-49873515D01*
X157253804Y-49898787D01*
X157344278Y-50037268D01*
X157344283Y-50037273D01*
X157344284Y-50037276D01*
X157470968Y-50174889D01*
X157496760Y-50202906D01*
X157674424Y-50341189D01*
X157674425Y-50341189D01*
X157674427Y-50341191D01*
X157679010Y-50343671D01*
X157872426Y-50448342D01*
X158085365Y-50521444D01*
X158307431Y-50558500D01*
X158532569Y-50558500D01*
X158754635Y-50521444D01*
X158967574Y-50448342D01*
X159165576Y-50341189D01*
X159343240Y-50202906D01*
X159495722Y-50037268D01*
X159586193Y-49898790D01*
X159639338Y-49853437D01*
X159708569Y-49844013D01*
X159771905Y-49873515D01*
X159793804Y-49898787D01*
X159884278Y-50037268D01*
X159884283Y-50037273D01*
X159884284Y-50037276D01*
X160010968Y-50174889D01*
X160036760Y-50202906D01*
X160214424Y-50341189D01*
X160214425Y-50341189D01*
X160214427Y-50341191D01*
X160219010Y-50343671D01*
X160412426Y-50448342D01*
X160625365Y-50521444D01*
X160847431Y-50558500D01*
X161072569Y-50558500D01*
X161294635Y-50521444D01*
X161507574Y-50448342D01*
X161705576Y-50341189D01*
X161883240Y-50202906D01*
X162035722Y-50037268D01*
X162126193Y-49898790D01*
X162179338Y-49853437D01*
X162248569Y-49844013D01*
X162311905Y-49873515D01*
X162333804Y-49898787D01*
X162424278Y-50037268D01*
X162424283Y-50037273D01*
X162424284Y-50037276D01*
X162550968Y-50174889D01*
X162576760Y-50202906D01*
X162754424Y-50341189D01*
X162754425Y-50341189D01*
X162754427Y-50341191D01*
X162759010Y-50343671D01*
X162952426Y-50448342D01*
X163165365Y-50521444D01*
X163387431Y-50558500D01*
X163612569Y-50558500D01*
X163834635Y-50521444D01*
X164047574Y-50448342D01*
X164245576Y-50341189D01*
X164423240Y-50202906D01*
X164575722Y-50037268D01*
X164698860Y-49848791D01*
X164789296Y-49642616D01*
X164844564Y-49424368D01*
X164863156Y-49200000D01*
X164844564Y-48975632D01*
X164789296Y-48757384D01*
X164698860Y-48551209D01*
X164682706Y-48526484D01*
X164575723Y-48362734D01*
X164575715Y-48362723D01*
X164423243Y-48197097D01*
X164423238Y-48197092D01*
X164245577Y-48058812D01*
X164245572Y-48058808D01*
X164047580Y-47951661D01*
X164047577Y-47951659D01*
X164047574Y-47951658D01*
X164047571Y-47951657D01*
X164047569Y-47951656D01*
X163834637Y-47878556D01*
X163612569Y-47841500D01*
X163387431Y-47841500D01*
X163165362Y-47878556D01*
X162952430Y-47951656D01*
X162952419Y-47951661D01*
X162754427Y-48058808D01*
X162754422Y-48058812D01*
X162576761Y-48197092D01*
X162576756Y-48197097D01*
X162424284Y-48362723D01*
X162424276Y-48362734D01*
X162333808Y-48501206D01*
X162280662Y-48546562D01*
X162211431Y-48555986D01*
X162148095Y-48526484D01*
X162126192Y-48501206D01*
X162035723Y-48362734D01*
X162035715Y-48362723D01*
X161883243Y-48197097D01*
X161883238Y-48197092D01*
X161705577Y-48058812D01*
X161705572Y-48058808D01*
X161507580Y-47951661D01*
X161507577Y-47951659D01*
X161507574Y-47951658D01*
X161507571Y-47951657D01*
X161507569Y-47951656D01*
X161294637Y-47878556D01*
X161072569Y-47841500D01*
X160847431Y-47841500D01*
X160625362Y-47878556D01*
X160412430Y-47951656D01*
X160412419Y-47951661D01*
X160214427Y-48058808D01*
X160214422Y-48058812D01*
X160036761Y-48197092D01*
X160036756Y-48197097D01*
X159884284Y-48362723D01*
X159884276Y-48362734D01*
X159793808Y-48501206D01*
X159740662Y-48546562D01*
X159671431Y-48555986D01*
X159608095Y-48526484D01*
X159586192Y-48501206D01*
X159495723Y-48362734D01*
X159495715Y-48362723D01*
X159343243Y-48197097D01*
X159343238Y-48197092D01*
X159165577Y-48058812D01*
X159165572Y-48058808D01*
X158967580Y-47951661D01*
X158967577Y-47951659D01*
X158967574Y-47951658D01*
X158967571Y-47951657D01*
X158967569Y-47951656D01*
X158754637Y-47878556D01*
X158532569Y-47841500D01*
X158307431Y-47841500D01*
X158085362Y-47878556D01*
X157872430Y-47951656D01*
X157872419Y-47951661D01*
X157674427Y-48058808D01*
X157674422Y-48058812D01*
X157496761Y-48197092D01*
X157496756Y-48197097D01*
X157344284Y-48362723D01*
X157344276Y-48362734D01*
X157253808Y-48501206D01*
X157200662Y-48546562D01*
X157131431Y-48555986D01*
X157068095Y-48526484D01*
X157046192Y-48501206D01*
X156955723Y-48362734D01*
X156955715Y-48362723D01*
X156803243Y-48197097D01*
X156803238Y-48197092D01*
X156625577Y-48058812D01*
X156625572Y-48058808D01*
X156427580Y-47951661D01*
X156427577Y-47951659D01*
X156427574Y-47951658D01*
X156427571Y-47951657D01*
X156427569Y-47951656D01*
X156214637Y-47878556D01*
X155992569Y-47841500D01*
X155767431Y-47841500D01*
X155545362Y-47878556D01*
X155332430Y-47951656D01*
X155332419Y-47951661D01*
X155134427Y-48058808D01*
X155134422Y-48058812D01*
X154956761Y-48197092D01*
X154956756Y-48197097D01*
X154804284Y-48362723D01*
X154804276Y-48362734D01*
X154713808Y-48501206D01*
X154660662Y-48546562D01*
X154591431Y-48555986D01*
X154528095Y-48526484D01*
X154506192Y-48501206D01*
X154415723Y-48362734D01*
X154415715Y-48362723D01*
X154263243Y-48197097D01*
X154263238Y-48197092D01*
X154085577Y-48058812D01*
X154085572Y-48058808D01*
X153887580Y-47951661D01*
X153887577Y-47951659D01*
X153887574Y-47951658D01*
X153887571Y-47951657D01*
X153887569Y-47951656D01*
X153674637Y-47878556D01*
X153452569Y-47841500D01*
X153227431Y-47841500D01*
X153005362Y-47878556D01*
X152792430Y-47951656D01*
X152792419Y-47951661D01*
X152594427Y-48058808D01*
X152594422Y-48058812D01*
X152416761Y-48197092D01*
X152416756Y-48197097D01*
X152264284Y-48362723D01*
X152264276Y-48362734D01*
X152173808Y-48501206D01*
X152120662Y-48546562D01*
X152051431Y-48555986D01*
X151988095Y-48526484D01*
X151966192Y-48501206D01*
X151875723Y-48362734D01*
X151875715Y-48362723D01*
X151723243Y-48197097D01*
X151723238Y-48197092D01*
X151545577Y-48058812D01*
X151545572Y-48058808D01*
X151347580Y-47951661D01*
X151347577Y-47951659D01*
X151347574Y-47951658D01*
X151347571Y-47951657D01*
X151347569Y-47951656D01*
X151134637Y-47878556D01*
X150912569Y-47841500D01*
X150687431Y-47841500D01*
X150465362Y-47878556D01*
X150252430Y-47951656D01*
X150252419Y-47951661D01*
X150054427Y-48058808D01*
X150054422Y-48058812D01*
X149876761Y-48197092D01*
X149876756Y-48197097D01*
X149724284Y-48362723D01*
X149724276Y-48362734D01*
X149633808Y-48501206D01*
X149580662Y-48546562D01*
X149511431Y-48555986D01*
X149448095Y-48526484D01*
X149426192Y-48501206D01*
X149335723Y-48362734D01*
X149335715Y-48362723D01*
X149183243Y-48197097D01*
X149183238Y-48197092D01*
X149005577Y-48058812D01*
X149005572Y-48058808D01*
X148807580Y-47951661D01*
X148807577Y-47951659D01*
X148807574Y-47951658D01*
X148807571Y-47951657D01*
X148807569Y-47951656D01*
X148594637Y-47878556D01*
X148372569Y-47841500D01*
X148147431Y-47841500D01*
X147925362Y-47878556D01*
X147712430Y-47951656D01*
X147712419Y-47951661D01*
X147514427Y-48058808D01*
X147514422Y-48058812D01*
X147336761Y-48197092D01*
X147273548Y-48265760D01*
X147213661Y-48301750D01*
X147143823Y-48299649D01*
X147086207Y-48260124D01*
X147066138Y-48225110D01*
X147020889Y-48103796D01*
X146987214Y-48058812D01*
X146933261Y-47986739D01*
X146816204Y-47899111D01*
X146679203Y-47848011D01*
X146618654Y-47841500D01*
X146618638Y-47841500D01*
X144821362Y-47841500D01*
X144821345Y-47841500D01*
X144760797Y-47848011D01*
X144760795Y-47848011D01*
X144623795Y-47899111D01*
X144506739Y-47986739D01*
X144419111Y-48103795D01*
X144368011Y-48240795D01*
X144368011Y-48240797D01*
X144361500Y-48301345D01*
X144361500Y-49611232D01*
X144341815Y-49678271D01*
X144325181Y-49698913D01*
X142133914Y-51890181D01*
X142072591Y-51923666D01*
X142046233Y-51926500D01*
X141648766Y-51926500D01*
X141581727Y-51906815D01*
X141535972Y-51854011D01*
X141526028Y-51784853D01*
X141555053Y-51721297D01*
X141561085Y-51714819D01*
X141885355Y-51390548D01*
X142044813Y-51231089D01*
X142057177Y-51221186D01*
X142057003Y-51220976D01*
X142063015Y-51216002D01*
X142063015Y-51216001D01*
X142063018Y-51216000D01*
X142110349Y-51165596D01*
X142111620Y-51164283D01*
X142132135Y-51143770D01*
X142136461Y-51138192D01*
X142140250Y-51133755D01*
X142172586Y-51099321D01*
X142182419Y-51081432D01*
X142193102Y-51065169D01*
X142205614Y-51049041D01*
X142224371Y-51005691D01*
X142226941Y-51000447D01*
X142249693Y-50959064D01*
X142249693Y-50959063D01*
X142249695Y-50959060D01*
X142254774Y-50939273D01*
X142261070Y-50920885D01*
X142269181Y-50902145D01*
X142276569Y-50855497D01*
X142277751Y-50849786D01*
X142289500Y-50804030D01*
X142289500Y-50783614D01*
X142291027Y-50764214D01*
X142291108Y-50763703D01*
X142294220Y-50744057D01*
X142289775Y-50697033D01*
X142289500Y-50691195D01*
X142289500Y-50475729D01*
X142309185Y-50408690D01*
X142354484Y-50366674D01*
X142401566Y-50341195D01*
X142401572Y-50341191D01*
X142401576Y-50341189D01*
X142579240Y-50202906D01*
X142731722Y-50037268D01*
X142854860Y-49848791D01*
X142945296Y-49642616D01*
X143000564Y-49424368D01*
X143019156Y-49200000D01*
X143000564Y-48975632D01*
X142945296Y-48757384D01*
X142854860Y-48551209D01*
X142838706Y-48526484D01*
X142731723Y-48362734D01*
X142731715Y-48362723D01*
X142579243Y-48197097D01*
X142579238Y-48197092D01*
X142401577Y-48058812D01*
X142401572Y-48058808D01*
X142203580Y-47951661D01*
X142203577Y-47951659D01*
X142203574Y-47951658D01*
X142203571Y-47951657D01*
X142203569Y-47951656D01*
X141990637Y-47878556D01*
X141768569Y-47841500D01*
X141543431Y-47841500D01*
X141321362Y-47878556D01*
X141108430Y-47951656D01*
X141108419Y-47951661D01*
X140910427Y-48058808D01*
X140910422Y-48058812D01*
X140732761Y-48197092D01*
X140732756Y-48197097D01*
X140580284Y-48362723D01*
X140580276Y-48362734D01*
X140489808Y-48501206D01*
X140436662Y-48546562D01*
X140367431Y-48555986D01*
X140304095Y-48526484D01*
X140282192Y-48501206D01*
X140191723Y-48362734D01*
X140191715Y-48362723D01*
X140039243Y-48197097D01*
X140039238Y-48197092D01*
X139861577Y-48058812D01*
X139861572Y-48058808D01*
X139663580Y-47951661D01*
X139663577Y-47951659D01*
X139663574Y-47951658D01*
X139663571Y-47951657D01*
X139663569Y-47951656D01*
X139450637Y-47878556D01*
X139228569Y-47841500D01*
X139003431Y-47841500D01*
X138781362Y-47878556D01*
X138568430Y-47951656D01*
X138568419Y-47951661D01*
X138370427Y-48058808D01*
X138370422Y-48058812D01*
X138192761Y-48197092D01*
X138192756Y-48197097D01*
X138040284Y-48362723D01*
X138040276Y-48362734D01*
X137949808Y-48501206D01*
X137896662Y-48546562D01*
X137827431Y-48555986D01*
X137764095Y-48526484D01*
X137742192Y-48501206D01*
X137651723Y-48362734D01*
X137651715Y-48362723D01*
X137499243Y-48197097D01*
X137499238Y-48197092D01*
X137321577Y-48058812D01*
X137321572Y-48058808D01*
X137123580Y-47951661D01*
X137123577Y-47951659D01*
X137123574Y-47951658D01*
X137123571Y-47951657D01*
X137123569Y-47951656D01*
X136910637Y-47878556D01*
X136688569Y-47841500D01*
X136463431Y-47841500D01*
X136241362Y-47878556D01*
X136028430Y-47951656D01*
X136028419Y-47951661D01*
X135830427Y-48058808D01*
X135830422Y-48058812D01*
X135652761Y-48197092D01*
X135652756Y-48197097D01*
X135500284Y-48362723D01*
X135500276Y-48362734D01*
X135409808Y-48501206D01*
X135356662Y-48546562D01*
X135287431Y-48555986D01*
X135224095Y-48526484D01*
X135202192Y-48501206D01*
X135111723Y-48362734D01*
X135111715Y-48362723D01*
X134959243Y-48197097D01*
X134959238Y-48197092D01*
X134781577Y-48058812D01*
X134781572Y-48058808D01*
X134583580Y-47951661D01*
X134583577Y-47951659D01*
X134583574Y-47951658D01*
X134583571Y-47951657D01*
X134583569Y-47951656D01*
X134370637Y-47878556D01*
X134148569Y-47841500D01*
X133923431Y-47841500D01*
X133701362Y-47878556D01*
X133488430Y-47951656D01*
X133488419Y-47951661D01*
X133290427Y-48058808D01*
X133290422Y-48058812D01*
X133112761Y-48197092D01*
X133112756Y-48197097D01*
X132960284Y-48362723D01*
X132960276Y-48362734D01*
X132869808Y-48501206D01*
X132816662Y-48546562D01*
X132747431Y-48555986D01*
X132684095Y-48526484D01*
X132662192Y-48501206D01*
X132571723Y-48362734D01*
X132571715Y-48362723D01*
X132419243Y-48197097D01*
X132419238Y-48197092D01*
X132241577Y-48058812D01*
X132241572Y-48058808D01*
X132043580Y-47951661D01*
X132043577Y-47951659D01*
X132043574Y-47951658D01*
X132043571Y-47951657D01*
X132043569Y-47951656D01*
X131830637Y-47878556D01*
X131608569Y-47841500D01*
X131383431Y-47841500D01*
X131161362Y-47878556D01*
X130948430Y-47951656D01*
X130948419Y-47951661D01*
X130750427Y-48058808D01*
X130750422Y-48058812D01*
X130572761Y-48197092D01*
X130572756Y-48197097D01*
X130420284Y-48362723D01*
X130420276Y-48362734D01*
X130329808Y-48501206D01*
X130276662Y-48546562D01*
X130207431Y-48555986D01*
X130144095Y-48526484D01*
X130122192Y-48501206D01*
X130031723Y-48362734D01*
X130031715Y-48362723D01*
X129879243Y-48197097D01*
X129879238Y-48197092D01*
X129701577Y-48058812D01*
X129701572Y-48058808D01*
X129503580Y-47951661D01*
X129503577Y-47951659D01*
X129503574Y-47951658D01*
X129503571Y-47951657D01*
X129503569Y-47951656D01*
X129290637Y-47878556D01*
X129068569Y-47841500D01*
X128843431Y-47841500D01*
X128621362Y-47878556D01*
X128408430Y-47951656D01*
X128408419Y-47951661D01*
X128210427Y-48058808D01*
X128210422Y-48058812D01*
X128032761Y-48197092D01*
X128032756Y-48197097D01*
X127880284Y-48362723D01*
X127880276Y-48362734D01*
X127789808Y-48501206D01*
X127736662Y-48546562D01*
X127667431Y-48555986D01*
X127604095Y-48526484D01*
X127582192Y-48501206D01*
X127491723Y-48362734D01*
X127491715Y-48362723D01*
X127339243Y-48197097D01*
X127339238Y-48197092D01*
X127161577Y-48058812D01*
X127161572Y-48058808D01*
X126963580Y-47951661D01*
X126963577Y-47951659D01*
X126963574Y-47951658D01*
X126963571Y-47951657D01*
X126963569Y-47951656D01*
X126750637Y-47878556D01*
X126528569Y-47841500D01*
X126303431Y-47841500D01*
X126081362Y-47878556D01*
X125868430Y-47951656D01*
X125868419Y-47951661D01*
X125670427Y-48058808D01*
X125670422Y-48058812D01*
X125492761Y-48197092D01*
X125492756Y-48197097D01*
X125340284Y-48362723D01*
X125340276Y-48362734D01*
X125249808Y-48501206D01*
X125196662Y-48546562D01*
X125127431Y-48555986D01*
X125064095Y-48526484D01*
X125042192Y-48501206D01*
X124951723Y-48362734D01*
X124951715Y-48362723D01*
X124799243Y-48197097D01*
X124799238Y-48197092D01*
X124621577Y-48058812D01*
X124621572Y-48058808D01*
X124423580Y-47951661D01*
X124423577Y-47951659D01*
X124423574Y-47951658D01*
X124423571Y-47951657D01*
X124423569Y-47951656D01*
X124210637Y-47878556D01*
X123988569Y-47841500D01*
X123763431Y-47841500D01*
X123541362Y-47878556D01*
X123328430Y-47951656D01*
X123328419Y-47951661D01*
X123130427Y-48058808D01*
X123130422Y-48058812D01*
X122952761Y-48197092D01*
X122952756Y-48197097D01*
X122800284Y-48362723D01*
X122800276Y-48362734D01*
X122709808Y-48501206D01*
X122656662Y-48546562D01*
X122587431Y-48555986D01*
X122524095Y-48526484D01*
X122502192Y-48501206D01*
X122411723Y-48362734D01*
X122411715Y-48362723D01*
X122259243Y-48197097D01*
X122259238Y-48197092D01*
X122081577Y-48058812D01*
X122081572Y-48058808D01*
X121883580Y-47951661D01*
X121883577Y-47951659D01*
X121883574Y-47951658D01*
X121883571Y-47951657D01*
X121883569Y-47951656D01*
X121670637Y-47878556D01*
X121448569Y-47841500D01*
X121223431Y-47841500D01*
X121001362Y-47878556D01*
X120788430Y-47951656D01*
X120788419Y-47951661D01*
X120590427Y-48058808D01*
X120590422Y-48058812D01*
X120412761Y-48197092D01*
X120349548Y-48265760D01*
X120289661Y-48301750D01*
X120219823Y-48299649D01*
X120162207Y-48260124D01*
X120142138Y-48225110D01*
X120096889Y-48103796D01*
X120063214Y-48058812D01*
X120009261Y-47986739D01*
X119892204Y-47899111D01*
X119755203Y-47848011D01*
X119694654Y-47841500D01*
X119694638Y-47841500D01*
X117897362Y-47841500D01*
X117897345Y-47841500D01*
X117836797Y-47848011D01*
X117836795Y-47848011D01*
X117699795Y-47899111D01*
X117582739Y-47986739D01*
X117495111Y-48103795D01*
X117444011Y-48240795D01*
X117444011Y-48240797D01*
X117437500Y-48301345D01*
X117437500Y-50098654D01*
X117444011Y-50159202D01*
X117444011Y-50159204D01*
X117495110Y-50296204D01*
X117495111Y-50296204D01*
X117582739Y-50413261D01*
X117699796Y-50500889D01*
X117836799Y-50551989D01*
X117864050Y-50554918D01*
X117897345Y-50558499D01*
X117897362Y-50558500D01*
X119694638Y-50558500D01*
X119694654Y-50558499D01*
X119721692Y-50555591D01*
X119755201Y-50551989D01*
X119892204Y-50500889D01*
X120009261Y-50413261D01*
X120096889Y-50296204D01*
X120142138Y-50174887D01*
X120184009Y-50118956D01*
X120249474Y-50094539D01*
X120317746Y-50109391D01*
X120349545Y-50134236D01*
X120412760Y-50202906D01*
X120590424Y-50341189D01*
X120590425Y-50341189D01*
X120590427Y-50341191D01*
X120595010Y-50343671D01*
X120788426Y-50448342D01*
X121001365Y-50521444D01*
X121223431Y-50558500D01*
X121448569Y-50558500D01*
X121670635Y-50521444D01*
X121883574Y-50448342D01*
X122081576Y-50341189D01*
X122259240Y-50202906D01*
X122411722Y-50037268D01*
X122502193Y-49898790D01*
X122555338Y-49853437D01*
X122624569Y-49844013D01*
X122687905Y-49873515D01*
X122709804Y-49898787D01*
X122800278Y-50037268D01*
X122800283Y-50037273D01*
X122800284Y-50037276D01*
X122926968Y-50174889D01*
X122952760Y-50202906D01*
X123130424Y-50341189D01*
X123130426Y-50341190D01*
X123130429Y-50341192D01*
X123177516Y-50366674D01*
X123227107Y-50415893D01*
X123242499Y-50475729D01*
X123242500Y-71722366D01*
X123240761Y-71738113D01*
X123241032Y-71738139D01*
X123240297Y-71745906D01*
X123242469Y-71814990D01*
X123242500Y-71816938D01*
X123242500Y-71845859D01*
X123243384Y-71852856D01*
X123243842Y-71858679D01*
X123245326Y-71905889D01*
X123245327Y-71905891D01*
X123251022Y-71925495D01*
X123254967Y-71944542D01*
X123257526Y-71964797D01*
X123257527Y-71964800D01*
X123257528Y-71964803D01*
X123274914Y-72008716D01*
X123276806Y-72014244D01*
X123289981Y-72059592D01*
X123300372Y-72077162D01*
X123308932Y-72094635D01*
X123316447Y-72113617D01*
X123344209Y-72151827D01*
X123347416Y-72156710D01*
X123371458Y-72197362D01*
X123371462Y-72197366D01*
X123385889Y-72211793D01*
X123398526Y-72226588D01*
X123410528Y-72243107D01*
X123446931Y-72273222D01*
X123451231Y-72277135D01*
X125031979Y-73857883D01*
X126465768Y-75291672D01*
X126499253Y-75352995D01*
X126501241Y-75365068D01*
X126501280Y-75365238D01*
X126561457Y-75537216D01*
X126633885Y-75652483D01*
X126658389Y-75691481D01*
X126787219Y-75820311D01*
X126941485Y-75917243D01*
X127113453Y-75977416D01*
X127113453Y-75977417D01*
X127113458Y-75977418D01*
X127294496Y-75997816D01*
X127294500Y-75997816D01*
X127294504Y-75997816D01*
X127475541Y-75977418D01*
X127475544Y-75977417D01*
X127475547Y-75977417D01*
X127647515Y-75917243D01*
X127801781Y-75820311D01*
X127930611Y-75691481D01*
X128027543Y-75537215D01*
X128087717Y-75365247D01*
X128087737Y-75365068D01*
X128108116Y-75184203D01*
X128108116Y-75184196D01*
X128087718Y-75003158D01*
X128087717Y-75003153D01*
X128065799Y-74940516D01*
X128027543Y-74831185D01*
X127930611Y-74676919D01*
X127801781Y-74548089D01*
X127801780Y-74548089D01*
X127647516Y-74451157D01*
X127475541Y-74390981D01*
X127384934Y-74380772D01*
X127320521Y-74353705D01*
X127311138Y-74345233D01*
X124545819Y-71579914D01*
X124512334Y-71518591D01*
X124509500Y-71492233D01*
X124509500Y-50475729D01*
X124529185Y-50408690D01*
X124574484Y-50366674D01*
X124621566Y-50341195D01*
X124621572Y-50341191D01*
X124621576Y-50341189D01*
X124799240Y-50202906D01*
X124951722Y-50037268D01*
X125042193Y-49898790D01*
X125095338Y-49853437D01*
X125164569Y-49844013D01*
X125227905Y-49873515D01*
X125249804Y-49898787D01*
X125340278Y-50037268D01*
X125340283Y-50037273D01*
X125340284Y-50037276D01*
X125466968Y-50174889D01*
X125492760Y-50202906D01*
X125670424Y-50341189D01*
X125670425Y-50341189D01*
X125670427Y-50341191D01*
X125675010Y-50343671D01*
X125868426Y-50448342D01*
X126081365Y-50521444D01*
X126303431Y-50558500D01*
X126528569Y-50558500D01*
X126750635Y-50521444D01*
X126963574Y-50448342D01*
X127161576Y-50341189D01*
X127339240Y-50202906D01*
X127491722Y-50037268D01*
X127582193Y-49898791D01*
X127635336Y-49853437D01*
X127704567Y-49844013D01*
X127767903Y-49873515D01*
X127789807Y-49898793D01*
X127880276Y-50037265D01*
X127880284Y-50037276D01*
X128006968Y-50174889D01*
X128032760Y-50202906D01*
X128210424Y-50341189D01*
X128210425Y-50341189D01*
X128210427Y-50341191D01*
X128215010Y-50343671D01*
X128408426Y-50448342D01*
X128621365Y-50521444D01*
X128843431Y-50558500D01*
X129068569Y-50558500D01*
X129290635Y-50521444D01*
X129503574Y-50448342D01*
X129701576Y-50341189D01*
X129879240Y-50202906D01*
X130031722Y-50037268D01*
X130122193Y-49898790D01*
X130175338Y-49853437D01*
X130244569Y-49844013D01*
X130307905Y-49873515D01*
X130329804Y-49898787D01*
X130420278Y-50037268D01*
X130420283Y-50037273D01*
X130420284Y-50037276D01*
X130546968Y-50174889D01*
X130572760Y-50202906D01*
X130750424Y-50341189D01*
X130750425Y-50341189D01*
X130750427Y-50341191D01*
X130755010Y-50343671D01*
X130948426Y-50448342D01*
X131161365Y-50521444D01*
X131383431Y-50558500D01*
X131608569Y-50558500D01*
X131830635Y-50521444D01*
X132043574Y-50448342D01*
X132241576Y-50341189D01*
X132419240Y-50202906D01*
X132571722Y-50037268D01*
X132662193Y-49898790D01*
X132715338Y-49853437D01*
X132784569Y-49844013D01*
X132847905Y-49873515D01*
X132869804Y-49898787D01*
X132960278Y-50037268D01*
X132960283Y-50037273D01*
X132960284Y-50037276D01*
X133086968Y-50174889D01*
X133112760Y-50202906D01*
X133290424Y-50341189D01*
X133290425Y-50341189D01*
X133290427Y-50341191D01*
X133295010Y-50343671D01*
X133488426Y-50448342D01*
X133701365Y-50521444D01*
X133923431Y-50558500D01*
X134148569Y-50558500D01*
X134370635Y-50521444D01*
X134583574Y-50448342D01*
X134781576Y-50341189D01*
X134959240Y-50202906D01*
X135111722Y-50037268D01*
X135202193Y-49898790D01*
X135255338Y-49853437D01*
X135324569Y-49844013D01*
X135387905Y-49873515D01*
X135409804Y-49898787D01*
X135500278Y-50037268D01*
X135500283Y-50037273D01*
X135500284Y-50037276D01*
X135626968Y-50174889D01*
X135652760Y-50202906D01*
X135830424Y-50341189D01*
X135830425Y-50341189D01*
X135830427Y-50341191D01*
X135835010Y-50343671D01*
X136028426Y-50448342D01*
X136241365Y-50521444D01*
X136463431Y-50558500D01*
X136688569Y-50558500D01*
X136910635Y-50521444D01*
X137123574Y-50448342D01*
X137321576Y-50341189D01*
X137499240Y-50202906D01*
X137651722Y-50037268D01*
X137742193Y-49898791D01*
X137795336Y-49853437D01*
X137864567Y-49844013D01*
X137927903Y-49873515D01*
X137949807Y-49898793D01*
X138040276Y-50037265D01*
X138040284Y-50037276D01*
X138166968Y-50174889D01*
X138192760Y-50202906D01*
X138370424Y-50341189D01*
X138370425Y-50341189D01*
X138370427Y-50341191D01*
X138375010Y-50343671D01*
X138568426Y-50448342D01*
X138781365Y-50521444D01*
X139003431Y-50558500D01*
X139228569Y-50558500D01*
X139450635Y-50521444D01*
X139663574Y-50448342D01*
X139861576Y-50341189D01*
X140039240Y-50202906D01*
X140191722Y-50037268D01*
X140282193Y-49898790D01*
X140335338Y-49853437D01*
X140404569Y-49844013D01*
X140467905Y-49873515D01*
X140489804Y-49898787D01*
X140580278Y-50037268D01*
X140580283Y-50037273D01*
X140580284Y-50037276D01*
X140706968Y-50174889D01*
X140732760Y-50202906D01*
X140910424Y-50341189D01*
X140915011Y-50343671D01*
X140964605Y-50392886D01*
X140979719Y-50461102D01*
X140955553Y-50526659D01*
X140943683Y-50540411D01*
X140413914Y-51070181D01*
X140352591Y-51103666D01*
X140326233Y-51106500D01*
X135643631Y-51106500D01*
X135627879Y-51104760D01*
X135627854Y-51105032D01*
X135620092Y-51104297D01*
X135550996Y-51106469D01*
X135549048Y-51106500D01*
X135520144Y-51106500D01*
X135520141Y-51106500D01*
X135520129Y-51106501D01*
X135513137Y-51107384D01*
X135507320Y-51107841D01*
X135460114Y-51109325D01*
X135460107Y-51109326D01*
X135440500Y-51115022D01*
X135421461Y-51118965D01*
X135401211Y-51121524D01*
X135401201Y-51121526D01*
X135357291Y-51138911D01*
X135351765Y-51140803D01*
X135306412Y-51153979D01*
X135306407Y-51153981D01*
X135288833Y-51164374D01*
X135271372Y-51172928D01*
X135252386Y-51180446D01*
X135252384Y-51180447D01*
X135214172Y-51208208D01*
X135209290Y-51211415D01*
X135168637Y-51235457D01*
X135154201Y-51249894D01*
X135139415Y-51262523D01*
X135122893Y-51274528D01*
X135122891Y-51274529D01*
X135122891Y-51274530D01*
X135122888Y-51274532D01*
X135092780Y-51310925D01*
X135088849Y-51315246D01*
X130091179Y-56312914D01*
X130078820Y-56322818D01*
X130078993Y-56323027D01*
X130072981Y-56328000D01*
X130025673Y-56378377D01*
X130024320Y-56379773D01*
X130003873Y-56400221D01*
X130003857Y-56400239D01*
X129999531Y-56405814D01*
X129995747Y-56410244D01*
X129963419Y-56444671D01*
X129963412Y-56444681D01*
X129953579Y-56462567D01*
X129942903Y-56478820D01*
X129930386Y-56494957D01*
X129930385Y-56494959D01*
X129911625Y-56538310D01*
X129909055Y-56543556D01*
X129886303Y-56584941D01*
X129886303Y-56584942D01*
X129881225Y-56604720D01*
X129874925Y-56623122D01*
X129866818Y-56641857D01*
X129859431Y-56688495D01*
X129858246Y-56694216D01*
X129846500Y-56739965D01*
X129846500Y-56760384D01*
X129844973Y-56779783D01*
X129841780Y-56799941D01*
X129841780Y-56799942D01*
X129846225Y-56846966D01*
X129846500Y-56852804D01*
X129846499Y-72981647D01*
X129826814Y-73048686D01*
X129793623Y-73083221D01*
X129635699Y-73193802D01*
X129473806Y-73355695D01*
X129473803Y-73355698D01*
X129473802Y-73355700D01*
X129434106Y-73412392D01*
X129342476Y-73543252D01*
X129342475Y-73543254D01*
X129245718Y-73750750D01*
X129245714Y-73750761D01*
X129186457Y-73971910D01*
X129186456Y-73971918D01*
X129171500Y-74142869D01*
X129171500Y-75057130D01*
X129186456Y-75228081D01*
X129186457Y-75228089D01*
X129245714Y-75449238D01*
X129245718Y-75449249D01*
X129317294Y-75602744D01*
X129342477Y-75656749D01*
X129473802Y-75844300D01*
X129635700Y-76006198D01*
X129823251Y-76137523D01*
X129920662Y-76182946D01*
X130030750Y-76234281D01*
X130030752Y-76234281D01*
X130030757Y-76234284D01*
X130136900Y-76262725D01*
X130196560Y-76299090D01*
X130227089Y-76361937D01*
X130218794Y-76431313D01*
X130174309Y-76485190D01*
X130107757Y-76506465D01*
X130104806Y-76506500D01*
X124697766Y-76506500D01*
X124630727Y-76486815D01*
X124610085Y-76470181D01*
X122099060Y-73959156D01*
X119567888Y-71427983D01*
X119557987Y-71415623D01*
X119557777Y-71415798D01*
X119552801Y-71409784D01*
X119552800Y-71409782D01*
X119502414Y-71362467D01*
X119501039Y-71361134D01*
X119480568Y-71340663D01*
X119478592Y-71339131D01*
X119474983Y-71336331D01*
X119470550Y-71332544D01*
X119436121Y-71300214D01*
X119436119Y-71300212D01*
X119418231Y-71290378D01*
X119401970Y-71279697D01*
X119385839Y-71267184D01*
X119342493Y-71248427D01*
X119337245Y-71245856D01*
X119310051Y-71230906D01*
X119295860Y-71223105D01*
X119292460Y-71222232D01*
X119276087Y-71218028D01*
X119257681Y-71211726D01*
X119238944Y-71203618D01*
X119238946Y-71203618D01*
X119192296Y-71196230D01*
X119186581Y-71195046D01*
X119156320Y-71187277D01*
X119140832Y-71183300D01*
X119140830Y-71183300D01*
X119120416Y-71183300D01*
X119101017Y-71181773D01*
X119080858Y-71178580D01*
X119080857Y-71178580D01*
X119033834Y-71183025D01*
X119027996Y-71183300D01*
X118022913Y-71183300D01*
X117955874Y-71163615D01*
X117921340Y-71130426D01*
X117833349Y-71004762D01*
X117677638Y-70849051D01*
X117497254Y-70722744D01*
X117382222Y-70669104D01*
X117297681Y-70629682D01*
X117297679Y-70629681D01*
X117297676Y-70629680D01*
X117146377Y-70589139D01*
X117084972Y-70572685D01*
X117084965Y-70572684D01*
X116865602Y-70553493D01*
X116865598Y-70553493D01*
X116646234Y-70572684D01*
X116646227Y-70572685D01*
X116433520Y-70629681D01*
X116233946Y-70722744D01*
X116233942Y-70722746D01*
X116053567Y-70849047D01*
X116053560Y-70849052D01*
X115897855Y-71004757D01*
X115897852Y-71004760D01*
X115897851Y-71004762D01*
X115809860Y-71130425D01*
X115755284Y-71174049D01*
X115708287Y-71183300D01*
X113282039Y-71183300D01*
X113215000Y-71163615D01*
X113169245Y-71110811D01*
X113159301Y-71041653D01*
X113188326Y-70978097D01*
X113210912Y-70957726D01*
X113391900Y-70830998D01*
X113553798Y-70669100D01*
X113685123Y-70481549D01*
X113781884Y-70274043D01*
X113841143Y-70052887D01*
X113861098Y-69824800D01*
X113841143Y-69596713D01*
X113781884Y-69375557D01*
X113685123Y-69168051D01*
X113553798Y-68980500D01*
X113391900Y-68818602D01*
X113204349Y-68687277D01*
X113204345Y-68687275D01*
X112996849Y-68590518D01*
X112996838Y-68590514D01*
X112775689Y-68531257D01*
X112775681Y-68531256D01*
X112547602Y-68511302D01*
X112547598Y-68511302D01*
X112319518Y-68531256D01*
X112319510Y-68531257D01*
X112098361Y-68590514D01*
X112098350Y-68590518D01*
X111890854Y-68687275D01*
X111890852Y-68687276D01*
X111890849Y-68687277D01*
X111890851Y-68687277D01*
X111703300Y-68818602D01*
X111703298Y-68818603D01*
X111703295Y-68818606D01*
X111541406Y-68980495D01*
X111541403Y-68980498D01*
X111541402Y-68980500D01*
X111497726Y-69042876D01*
X111410076Y-69168052D01*
X111410075Y-69168054D01*
X111313318Y-69375550D01*
X111313314Y-69375561D01*
X111254057Y-69596710D01*
X111254056Y-69596718D01*
X111234102Y-69824798D01*
X111234102Y-69824801D01*
X111254056Y-70052881D01*
X111254057Y-70052889D01*
X111313314Y-70274038D01*
X111313318Y-70274049D01*
X111380651Y-70418445D01*
X111410077Y-70481549D01*
X111541402Y-70669100D01*
X111703300Y-70830998D01*
X111890851Y-70962323D01*
X111891059Y-70962420D01*
X111891134Y-70962486D01*
X111895537Y-70965028D01*
X111895026Y-70965913D01*
X111943496Y-71008593D01*
X111962646Y-71075787D01*
X111942428Y-71142668D01*
X111895047Y-71183724D01*
X111895537Y-71184572D01*
X111891138Y-71187111D01*
X111891059Y-71187179D01*
X111890947Y-71187231D01*
X111890850Y-71187277D01*
X111803520Y-71248427D01*
X111703300Y-71318602D01*
X111703298Y-71318603D01*
X111703295Y-71318606D01*
X111541406Y-71480495D01*
X111541403Y-71480498D01*
X111541402Y-71480500D01*
X111471791Y-71579914D01*
X111410076Y-71668052D01*
X111410075Y-71668054D01*
X111313318Y-71875550D01*
X111313314Y-71875561D01*
X111254057Y-72096710D01*
X111254056Y-72096718D01*
X111234102Y-72324798D01*
X111234102Y-72324801D01*
X111254056Y-72552881D01*
X111254057Y-72552889D01*
X111313314Y-72774038D01*
X111313318Y-72774049D01*
X111402693Y-72965714D01*
X111410077Y-72981549D01*
X111541402Y-73169100D01*
X111703300Y-73330998D01*
X111890851Y-73462323D01*
X112015691Y-73520536D01*
X112098350Y-73559081D01*
X112098352Y-73559081D01*
X112098357Y-73559084D01*
X112319513Y-73618343D01*
X112482432Y-73632596D01*
X112547598Y-73638298D01*
X112547600Y-73638298D01*
X112547602Y-73638298D01*
X112604621Y-73633309D01*
X112775687Y-73618343D01*
X112996843Y-73559084D01*
X113204349Y-73462323D01*
X113391900Y-73330998D01*
X113553798Y-73169100D01*
X113685123Y-72981549D01*
X113781884Y-72774043D01*
X113841143Y-72552887D01*
X113841143Y-72552876D01*
X113841163Y-72552771D01*
X113841186Y-72552723D01*
X113842544Y-72547657D01*
X113843562Y-72547929D01*
X113872188Y-72490167D01*
X113932134Y-72454275D01*
X113963280Y-72450300D01*
X115708287Y-72450300D01*
X115775326Y-72469985D01*
X115809859Y-72503173D01*
X115897851Y-72628838D01*
X116053562Y-72784549D01*
X116233946Y-72910856D01*
X116433524Y-73003920D01*
X116646229Y-73060915D01*
X116802922Y-73074623D01*
X116865598Y-73080107D01*
X116865600Y-73080107D01*
X116865602Y-73080107D01*
X116920442Y-73075309D01*
X117084971Y-73060915D01*
X117297676Y-73003920D01*
X117497254Y-72910856D01*
X117677638Y-72784549D01*
X117833349Y-72628838D01*
X117921339Y-72503174D01*
X117975916Y-72459551D01*
X118022913Y-72450300D01*
X118747034Y-72450300D01*
X118814073Y-72469985D01*
X118834715Y-72486619D01*
X122199715Y-75851619D01*
X122233200Y-75912942D01*
X122228216Y-75982634D01*
X122186344Y-76038567D01*
X122120880Y-76062984D01*
X122112034Y-76063300D01*
X118022913Y-76063300D01*
X117955874Y-76043615D01*
X117921340Y-76010426D01*
X117833349Y-75884762D01*
X117677638Y-75729051D01*
X117497254Y-75602744D01*
X117497250Y-75602742D01*
X117297681Y-75509682D01*
X117297679Y-75509681D01*
X117297676Y-75509680D01*
X117146377Y-75469139D01*
X117084972Y-75452685D01*
X117084965Y-75452684D01*
X116865602Y-75433493D01*
X116865598Y-75433493D01*
X116646234Y-75452684D01*
X116646227Y-75452685D01*
X116433520Y-75509681D01*
X116233946Y-75602744D01*
X116233942Y-75602746D01*
X116053567Y-75729047D01*
X116053560Y-75729052D01*
X115897855Y-75884757D01*
X115897852Y-75884760D01*
X115897851Y-75884762D01*
X115809860Y-76010425D01*
X115755284Y-76054049D01*
X115708287Y-76063300D01*
X114609229Y-76063300D01*
X114593486Y-76061561D01*
X114593461Y-76061833D01*
X114585693Y-76061098D01*
X114516628Y-76063269D01*
X114514680Y-76063300D01*
X114485742Y-76063300D01*
X114478736Y-76064184D01*
X114472918Y-76064642D01*
X114425711Y-76066126D01*
X114425708Y-76066127D01*
X114406105Y-76071822D01*
X114387059Y-76075766D01*
X114366803Y-76078326D01*
X114366801Y-76078326D01*
X114322892Y-76095710D01*
X114317368Y-76097601D01*
X114272004Y-76110782D01*
X114272003Y-76110783D01*
X114254424Y-76121178D01*
X114236964Y-76129732D01*
X114217984Y-76137247D01*
X114217981Y-76137249D01*
X114179782Y-76165001D01*
X114174900Y-76168209D01*
X114134238Y-76192256D01*
X114119796Y-76206698D01*
X114105008Y-76219327D01*
X114088497Y-76231323D01*
X114088494Y-76231326D01*
X114080036Y-76241550D01*
X114022135Y-76280655D01*
X113952283Y-76282248D01*
X113892659Y-76245823D01*
X113862192Y-76182946D01*
X113860968Y-76173312D01*
X113855121Y-76106489D01*
X113841143Y-75946713D01*
X113781884Y-75725557D01*
X113685123Y-75518051D01*
X113553798Y-75330500D01*
X113391900Y-75168602D01*
X113204349Y-75037277D01*
X113204345Y-75037275D01*
X112996849Y-74940518D01*
X112996838Y-74940514D01*
X112775689Y-74881257D01*
X112775681Y-74881256D01*
X112547602Y-74861302D01*
X112547598Y-74861302D01*
X112319518Y-74881256D01*
X112319510Y-74881257D01*
X112098361Y-74940514D01*
X112098350Y-74940518D01*
X111890854Y-75037275D01*
X111890852Y-75037276D01*
X111890849Y-75037277D01*
X111890851Y-75037277D01*
X111703300Y-75168602D01*
X111703298Y-75168603D01*
X111703295Y-75168606D01*
X111541406Y-75330495D01*
X111541403Y-75330498D01*
X111541402Y-75330500D01*
X111517078Y-75365238D01*
X111410076Y-75518052D01*
X111410075Y-75518054D01*
X111313318Y-75725550D01*
X111313314Y-75725561D01*
X111254057Y-75946710D01*
X111254056Y-75946718D01*
X111234102Y-76174798D01*
X111234102Y-76174801D01*
X111254056Y-76402881D01*
X111254057Y-76402889D01*
X111313314Y-76624038D01*
X111313318Y-76624049D01*
X111410075Y-76831545D01*
X111410077Y-76831549D01*
X111541402Y-77019100D01*
X111703300Y-77180998D01*
X111890851Y-77312323D01*
X111891042Y-77312412D01*
X111891112Y-77312473D01*
X111895537Y-77315028D01*
X111895023Y-77315916D01*
X111943485Y-77358575D01*
X111962646Y-77425766D01*
X111942439Y-77492650D01*
X111895049Y-77533727D01*
X111895537Y-77534572D01*
X111891157Y-77537100D01*
X111891076Y-77537171D01*
X111890862Y-77537270D01*
X111890852Y-77537276D01*
X111890849Y-77537277D01*
X111890851Y-77537277D01*
X111703300Y-77668602D01*
X111703298Y-77668603D01*
X111703295Y-77668606D01*
X111541406Y-77830495D01*
X111410076Y-78018052D01*
X111410075Y-78018054D01*
X111313318Y-78225550D01*
X111313314Y-78225561D01*
X111254057Y-78446710D01*
X111254056Y-78446718D01*
X111234102Y-78674798D01*
X111234102Y-78674801D01*
X111254056Y-78902881D01*
X111254057Y-78902889D01*
X111313314Y-79124038D01*
X111313318Y-79124049D01*
X111402771Y-79315881D01*
X111410077Y-79331549D01*
X111541402Y-79519100D01*
X111703300Y-79680998D01*
X111890851Y-79812323D01*
X111988163Y-79857700D01*
X112098350Y-79909081D01*
X112098352Y-79909081D01*
X112098357Y-79909084D01*
X112319513Y-79968343D01*
X112482432Y-79982596D01*
X112547598Y-79988298D01*
X112547600Y-79988298D01*
X112547602Y-79988298D01*
X112604621Y-79983309D01*
X112775687Y-79968343D01*
X112996843Y-79909084D01*
X113204349Y-79812323D01*
X113391900Y-79680998D01*
X113553798Y-79519100D01*
X113685123Y-79331549D01*
X113781884Y-79124043D01*
X113841143Y-78902887D01*
X113861098Y-78674800D01*
X113841143Y-78446713D01*
X113823840Y-78382141D01*
X113825504Y-78312291D01*
X113855933Y-78262369D01*
X114751684Y-77366619D01*
X114813008Y-77333134D01*
X114839366Y-77330300D01*
X115708287Y-77330300D01*
X115775326Y-77349985D01*
X115809859Y-77383173D01*
X115897851Y-77508838D01*
X116053562Y-77664549D01*
X116233946Y-77790856D01*
X116433524Y-77883920D01*
X116646229Y-77940915D01*
X116802922Y-77954623D01*
X116865598Y-77960107D01*
X116865600Y-77960107D01*
X116865602Y-77960107D01*
X116920442Y-77955309D01*
X117084971Y-77940915D01*
X117297676Y-77883920D01*
X117497254Y-77790856D01*
X117677638Y-77664549D01*
X117833349Y-77508838D01*
X117921339Y-77383174D01*
X117975916Y-77339551D01*
X118022913Y-77330300D01*
X121849034Y-77330300D01*
X121916073Y-77349985D01*
X121936715Y-77366619D01*
X123368910Y-78798814D01*
X123378816Y-78811178D01*
X123379026Y-78811005D01*
X123383997Y-78817013D01*
X123384000Y-78817018D01*
X123418862Y-78849756D01*
X123454256Y-78909993D01*
X123451464Y-78979807D01*
X123438972Y-79006117D01*
X123396957Y-79072983D01*
X123336783Y-79244953D01*
X123331690Y-79290148D01*
X123304621Y-79354561D01*
X123296151Y-79363942D01*
X121109914Y-81550181D01*
X121048591Y-81583666D01*
X121022233Y-81586500D01*
X119133629Y-81586500D01*
X119117886Y-81584761D01*
X119117861Y-81585033D01*
X119110093Y-81584298D01*
X119041028Y-81586469D01*
X119039080Y-81586500D01*
X119010142Y-81586500D01*
X119003136Y-81587384D01*
X118997318Y-81587842D01*
X118950111Y-81589326D01*
X118950108Y-81589327D01*
X118930505Y-81595022D01*
X118911459Y-81598966D01*
X118891203Y-81601526D01*
X118891201Y-81601526D01*
X118847292Y-81618910D01*
X118841768Y-81620801D01*
X118796404Y-81633982D01*
X118796403Y-81633983D01*
X118778824Y-81644378D01*
X118761364Y-81652932D01*
X118742384Y-81660447D01*
X118742381Y-81660449D01*
X118704182Y-81688201D01*
X118699300Y-81691409D01*
X118658638Y-81715456D01*
X118644196Y-81729898D01*
X118629408Y-81742527D01*
X118612897Y-81754523D01*
X118612892Y-81754528D01*
X118582790Y-81790914D01*
X118578858Y-81795236D01*
X116076189Y-84297904D01*
X116014866Y-84331389D01*
X115945174Y-84326405D01*
X115889241Y-84284533D01*
X115864824Y-84219069D01*
X115868732Y-84178133D01*
X115923943Y-83972087D01*
X115943898Y-83744000D01*
X115923943Y-83515913D01*
X115864684Y-83294757D01*
X115767923Y-83087251D01*
X115636598Y-82899700D01*
X115474700Y-82737802D01*
X115287149Y-82606477D01*
X115271807Y-82599323D01*
X115079649Y-82509718D01*
X115079638Y-82509714D01*
X114858489Y-82450457D01*
X114858481Y-82450456D01*
X114630402Y-82430502D01*
X114630398Y-82430502D01*
X114402318Y-82450456D01*
X114402310Y-82450457D01*
X114181161Y-82509714D01*
X114181150Y-82509718D01*
X113973654Y-82606475D01*
X113973652Y-82606476D01*
X113918986Y-82644754D01*
X113786100Y-82737802D01*
X113786098Y-82737803D01*
X113786095Y-82737806D01*
X113624206Y-82899695D01*
X113624203Y-82899698D01*
X113624202Y-82899700D01*
X113545199Y-83012527D01*
X113492876Y-83087252D01*
X113492875Y-83087254D01*
X113396118Y-83294750D01*
X113396114Y-83294761D01*
X113336857Y-83515910D01*
X113336856Y-83515918D01*
X113316902Y-83743998D01*
X113316902Y-83744001D01*
X113336856Y-83972081D01*
X113336857Y-83972089D01*
X113396114Y-84193238D01*
X113396118Y-84193249D01*
X113447583Y-84303616D01*
X113492877Y-84400749D01*
X113624202Y-84588300D01*
X113786100Y-84750198D01*
X113973651Y-84881523D01*
X114098491Y-84939736D01*
X114181150Y-84978281D01*
X114181152Y-84978281D01*
X114181157Y-84978284D01*
X114402313Y-85037543D01*
X114565232Y-85051796D01*
X114630398Y-85057498D01*
X114630400Y-85057498D01*
X114630402Y-85057498D01*
X114687421Y-85052509D01*
X114858487Y-85037543D01*
X115064531Y-84982333D01*
X115134380Y-84983996D01*
X115192243Y-85023158D01*
X115219747Y-85087387D01*
X115208161Y-85156289D01*
X115184305Y-85189789D01*
X114461714Y-85912381D01*
X114400391Y-85945866D01*
X114374033Y-85948700D01*
X113871733Y-85948700D01*
X113855985Y-85946961D01*
X113855960Y-85947232D01*
X113848192Y-85946497D01*
X113779108Y-85948669D01*
X113777160Y-85948700D01*
X113748236Y-85948700D01*
X113741242Y-85949584D01*
X113735419Y-85950042D01*
X113688210Y-85951526D01*
X113688207Y-85951527D01*
X113668604Y-85957222D01*
X113649558Y-85961166D01*
X113629302Y-85963726D01*
X113629300Y-85963726D01*
X113629298Y-85963727D01*
X113585381Y-85981114D01*
X113579855Y-85983006D01*
X113534505Y-85996182D01*
X113516930Y-86006575D01*
X113499472Y-86015128D01*
X113480482Y-86022648D01*
X113442271Y-86050408D01*
X113437389Y-86053615D01*
X113396736Y-86077657D01*
X113382300Y-86092094D01*
X113367514Y-86104723D01*
X113350992Y-86116728D01*
X113350990Y-86116729D01*
X113350990Y-86116730D01*
X113350987Y-86116732D01*
X113320879Y-86153125D01*
X113316948Y-86157446D01*
X112008368Y-87466025D01*
X111947045Y-87499510D01*
X111877353Y-87494526D01*
X111844524Y-87476197D01*
X111718377Y-87378012D01*
X111718372Y-87378008D01*
X111520380Y-87270861D01*
X111520377Y-87270859D01*
X111520374Y-87270858D01*
X111520371Y-87270857D01*
X111520369Y-87270856D01*
X111307437Y-87197756D01*
X111085369Y-87160700D01*
X110860231Y-87160700D01*
X110638162Y-87197756D01*
X110425230Y-87270856D01*
X110425219Y-87270861D01*
X110227227Y-87378008D01*
X110227222Y-87378012D01*
X110049561Y-87516292D01*
X110049556Y-87516297D01*
X109897084Y-87681923D01*
X109897076Y-87681934D01*
X109773940Y-87870407D01*
X109683503Y-88076585D01*
X109628236Y-88294828D01*
X109628234Y-88294840D01*
X109609644Y-88519194D01*
X109609644Y-88519205D01*
X109628234Y-88743559D01*
X109628236Y-88743571D01*
X109683503Y-88961814D01*
X109773940Y-89167992D01*
X109897076Y-89356465D01*
X109897084Y-89356476D01*
X110049556Y-89522102D01*
X110049560Y-89522106D01*
X110227224Y-89660389D01*
X110227229Y-89660391D01*
X110227231Y-89660393D01*
X110263730Y-89680146D01*
X110313320Y-89729365D01*
X110328428Y-89797582D01*
X110304257Y-89863137D01*
X110263730Y-89898254D01*
X110227231Y-89918006D01*
X110227222Y-89918012D01*
X110049561Y-90056292D01*
X110049556Y-90056297D01*
X109897084Y-90221923D01*
X109897076Y-90221934D01*
X109773940Y-90410407D01*
X109683503Y-90616585D01*
X109628236Y-90834828D01*
X109628234Y-90834840D01*
X109609644Y-91059194D01*
X109609644Y-91059205D01*
X100075500Y-91059205D01*
X100075500Y-79629205D01*
X101558158Y-79629205D01*
X101577090Y-79857688D01*
X101577092Y-79857700D01*
X101633376Y-80079961D01*
X101725477Y-80289929D01*
X101850879Y-80481873D01*
X101850882Y-80481876D01*
X102006169Y-80650563D01*
X102006172Y-80650565D01*
X102006175Y-80650568D01*
X102187095Y-80791384D01*
X102187102Y-80791388D01*
X102187104Y-80791390D01*
X102388750Y-80900515D01*
X102605607Y-80974962D01*
X102831760Y-81012700D01*
X103061040Y-81012700D01*
X103287193Y-80974962D01*
X103504050Y-80900515D01*
X103691939Y-80798834D01*
X103760266Y-80784240D01*
X103825638Y-80808903D01*
X103867299Y-80864993D01*
X103874573Y-80898161D01*
X103892327Y-81123753D01*
X103949593Y-81362287D01*
X104043471Y-81588930D01*
X104169895Y-81795236D01*
X104171648Y-81798096D01*
X104330967Y-81984633D01*
X104517504Y-82143952D01*
X104638068Y-82217833D01*
X104684943Y-82269644D01*
X104696366Y-82338573D01*
X104668709Y-82402736D01*
X104610754Y-82441761D01*
X104562472Y-82447088D01*
X104470404Y-82439034D01*
X104470398Y-82439034D01*
X104243800Y-82458858D01*
X104243789Y-82458860D01*
X104024082Y-82517730D01*
X104024073Y-82517734D01*
X103817913Y-82613868D01*
X103744927Y-82664972D01*
X103744926Y-82664973D01*
X104426000Y-83346046D01*
X104345252Y-83358835D01*
X104232355Y-83416359D01*
X104142759Y-83505955D01*
X104085235Y-83618852D01*
X104072446Y-83699599D01*
X103391373Y-83018526D01*
X103391372Y-83018527D01*
X103340268Y-83091513D01*
X103244134Y-83297673D01*
X103244130Y-83297682D01*
X103185260Y-83517389D01*
X103185258Y-83517400D01*
X103165434Y-83743997D01*
X103165434Y-83744002D01*
X103185258Y-83970599D01*
X103185260Y-83970610D01*
X103244130Y-84190317D01*
X103244134Y-84190326D01*
X103340265Y-84396481D01*
X103340266Y-84396483D01*
X103391373Y-84469471D01*
X103391374Y-84469472D01*
X104072446Y-83788399D01*
X104085235Y-83869148D01*
X104142759Y-83982045D01*
X104232355Y-84071641D01*
X104345252Y-84129165D01*
X104425999Y-84141953D01*
X103744926Y-84823025D01*
X103744926Y-84823026D01*
X103817912Y-84874131D01*
X103817916Y-84874133D01*
X104024073Y-84970265D01*
X104024082Y-84970269D01*
X104243789Y-85029139D01*
X104243800Y-85029141D01*
X104470398Y-85048966D01*
X104470402Y-85048966D01*
X104696999Y-85029141D01*
X104697010Y-85029139D01*
X104916717Y-84970269D01*
X104916731Y-84970264D01*
X105122878Y-84874136D01*
X105195872Y-84823025D01*
X104514801Y-84141953D01*
X104595548Y-84129165D01*
X104708445Y-84071641D01*
X104798041Y-83982045D01*
X104855565Y-83869148D01*
X104868353Y-83788400D01*
X105549425Y-84469472D01*
X105600536Y-84396478D01*
X105696664Y-84190331D01*
X105696669Y-84190317D01*
X105755539Y-83970610D01*
X105755541Y-83970599D01*
X105775366Y-83744002D01*
X105775366Y-83743997D01*
X105755541Y-83517400D01*
X105755539Y-83517389D01*
X105696669Y-83297682D01*
X105696665Y-83297673D01*
X105600533Y-83091516D01*
X105600531Y-83091512D01*
X105549426Y-83018526D01*
X105549425Y-83018526D01*
X104868353Y-83699598D01*
X104855565Y-83618852D01*
X104798041Y-83505955D01*
X104708445Y-83416359D01*
X104595548Y-83358835D01*
X104514800Y-83346046D01*
X105195872Y-82664974D01*
X105195871Y-82664972D01*
X105180058Y-82653900D01*
X105136433Y-82599323D01*
X105129239Y-82529825D01*
X105160762Y-82467470D01*
X105220991Y-82432056D01*
X105260905Y-82428707D01*
X105436400Y-82442519D01*
X105680957Y-82423272D01*
X105919492Y-82366005D01*
X106146132Y-82272127D01*
X106355296Y-82143952D01*
X106541833Y-81984633D01*
X106701152Y-81798096D01*
X106829327Y-81588932D01*
X106829779Y-81587842D01*
X106864487Y-81504049D01*
X106923205Y-81362292D01*
X106980472Y-81123757D01*
X106999719Y-80879200D01*
X106980472Y-80634643D01*
X106923205Y-80396108D01*
X106857097Y-80236510D01*
X106829328Y-80169469D01*
X106731708Y-80010167D01*
X106701152Y-79960304D01*
X106541833Y-79773767D01*
X106355296Y-79614448D01*
X106355293Y-79614446D01*
X106146130Y-79486271D01*
X105919487Y-79392393D01*
X105680953Y-79335127D01*
X105680954Y-79335127D01*
X105436400Y-79315881D01*
X105191845Y-79335127D01*
X104953312Y-79392393D01*
X104726669Y-79486271D01*
X104514048Y-79616565D01*
X104446602Y-79634809D01*
X104380000Y-79613692D01*
X104335387Y-79559920D01*
X104325683Y-79521077D01*
X104315709Y-79400711D01*
X104315707Y-79400699D01*
X104259423Y-79178438D01*
X104167322Y-78968470D01*
X104041920Y-78776526D01*
X104024261Y-78757344D01*
X103886631Y-78607837D01*
X103886626Y-78607833D01*
X103886624Y-78607831D01*
X103705704Y-78467015D01*
X103705693Y-78467008D01*
X103504056Y-78357888D01*
X103504053Y-78357886D01*
X103504050Y-78357885D01*
X103504047Y-78357884D01*
X103504045Y-78357883D01*
X103287195Y-78283438D01*
X103061040Y-78245700D01*
X102831760Y-78245700D01*
X102605604Y-78283438D01*
X102388754Y-78357883D01*
X102388743Y-78357888D01*
X102187106Y-78467008D01*
X102187095Y-78467015D01*
X102006175Y-78607831D01*
X102006172Y-78607834D01*
X101850879Y-78776526D01*
X101725477Y-78968470D01*
X101633376Y-79178438D01*
X101577092Y-79400699D01*
X101577090Y-79400711D01*
X101558158Y-79629194D01*
X101558158Y-79629205D01*
X100075500Y-79629205D01*
X100075500Y-75129205D01*
X101558158Y-75129205D01*
X101577090Y-75357688D01*
X101577092Y-75357700D01*
X101633376Y-75579961D01*
X101725477Y-75789929D01*
X101850879Y-75981873D01*
X101873267Y-76006193D01*
X102006169Y-76150563D01*
X102006172Y-76150565D01*
X102006175Y-76150568D01*
X102187095Y-76291384D01*
X102187102Y-76291388D01*
X102187104Y-76291390D01*
X102388750Y-76400515D01*
X102605607Y-76474962D01*
X102831760Y-76512700D01*
X103061040Y-76512700D01*
X103287193Y-76474962D01*
X103504050Y-76400515D01*
X103705696Y-76291390D01*
X103719489Y-76280655D01*
X103805646Y-76213596D01*
X103886631Y-76150563D01*
X104041918Y-75981876D01*
X104167322Y-75789930D01*
X104259423Y-75579961D01*
X104315708Y-75357697D01*
X104326471Y-75227802D01*
X104351624Y-75162621D01*
X104408025Y-75121382D01*
X104477769Y-75117183D01*
X104514837Y-75132317D01*
X104517501Y-75133949D01*
X104517504Y-75133952D01*
X104726668Y-75262127D01*
X104726670Y-75262127D01*
X104726672Y-75262129D01*
X104797995Y-75291672D01*
X104953308Y-75356005D01*
X105191843Y-75413272D01*
X105436400Y-75432519D01*
X105680957Y-75413272D01*
X105919492Y-75356005D01*
X106114838Y-75275089D01*
X106146130Y-75262128D01*
X106201677Y-75228089D01*
X106355296Y-75133952D01*
X106541833Y-74974633D01*
X106701152Y-74788096D01*
X106829327Y-74578932D01*
X106923205Y-74352292D01*
X106980472Y-74113757D01*
X106999719Y-73869200D01*
X106980472Y-73624643D01*
X106923205Y-73386108D01*
X106846258Y-73200342D01*
X106829328Y-73159469D01*
X106720299Y-72981549D01*
X106701152Y-72950304D01*
X106541833Y-72763767D01*
X106355296Y-72604448D01*
X106271146Y-72552881D01*
X106146130Y-72476271D01*
X105919487Y-72382393D01*
X105680953Y-72325127D01*
X105680954Y-72325127D01*
X105459241Y-72307678D01*
X105436400Y-72305881D01*
X105436399Y-72305881D01*
X105191845Y-72325127D01*
X104953312Y-72382393D01*
X104726669Y-72476271D01*
X104517506Y-72604446D01*
X104330967Y-72763767D01*
X104171646Y-72950306D01*
X104043471Y-73159469D01*
X103949593Y-73386112D01*
X103892327Y-73624646D01*
X103873818Y-73859830D01*
X103848934Y-73925118D01*
X103792703Y-73966589D01*
X103722977Y-73971076D01*
X103691183Y-73959156D01*
X103504056Y-73857888D01*
X103504053Y-73857886D01*
X103504050Y-73857885D01*
X103504047Y-73857884D01*
X103504045Y-73857883D01*
X103287195Y-73783438D01*
X103061040Y-73745700D01*
X102831760Y-73745700D01*
X102605604Y-73783438D01*
X102388754Y-73857883D01*
X102388743Y-73857888D01*
X102187106Y-73967008D01*
X102187095Y-73967015D01*
X102006175Y-74107831D01*
X102006172Y-74107834D01*
X101850879Y-74276526D01*
X101725477Y-74468470D01*
X101633376Y-74678438D01*
X101577092Y-74900699D01*
X101577090Y-74900711D01*
X101558158Y-75129194D01*
X101558158Y-75129205D01*
X100075500Y-75129205D01*
X100075500Y-70180401D01*
X102231702Y-70180401D01*
X102251656Y-70408481D01*
X102251657Y-70408489D01*
X102310914Y-70629638D01*
X102310918Y-70629649D01*
X102354329Y-70722744D01*
X102407677Y-70837149D01*
X102539002Y-71024700D01*
X102700900Y-71186598D01*
X102888451Y-71317923D01*
X102984026Y-71362490D01*
X103095950Y-71414681D01*
X103095952Y-71414681D01*
X103095957Y-71414684D01*
X103317113Y-71473943D01*
X103480032Y-71488196D01*
X103545198Y-71493898D01*
X103545200Y-71493898D01*
X103545202Y-71493898D01*
X103602221Y-71488909D01*
X103773287Y-71473943D01*
X103994443Y-71414684D01*
X104201949Y-71317923D01*
X104389500Y-71186598D01*
X104551398Y-71024700D01*
X104682723Y-70837149D01*
X104779484Y-70629643D01*
X104838743Y-70408487D01*
X104858698Y-70180402D01*
X107240234Y-70180402D01*
X107260058Y-70406999D01*
X107260060Y-70407010D01*
X107318930Y-70626717D01*
X107318934Y-70626726D01*
X107415065Y-70832881D01*
X107415066Y-70832883D01*
X107466173Y-70905871D01*
X107466174Y-70905872D01*
X108147246Y-70224799D01*
X108160035Y-70305548D01*
X108217559Y-70418445D01*
X108307155Y-70508041D01*
X108420052Y-70565565D01*
X108500799Y-70578353D01*
X107819726Y-71259425D01*
X107819726Y-71259426D01*
X107892712Y-71310531D01*
X107892716Y-71310533D01*
X108098873Y-71406665D01*
X108098882Y-71406669D01*
X108318589Y-71465539D01*
X108318600Y-71465541D01*
X108545198Y-71485366D01*
X108545202Y-71485366D01*
X108771799Y-71465541D01*
X108771810Y-71465539D01*
X108991517Y-71406669D01*
X108991531Y-71406664D01*
X109197678Y-71310536D01*
X109270672Y-71259425D01*
X108589601Y-70578353D01*
X108670348Y-70565565D01*
X108783245Y-70508041D01*
X108872841Y-70418445D01*
X108930365Y-70305548D01*
X108943153Y-70224800D01*
X109624225Y-70905872D01*
X109675336Y-70832878D01*
X109771464Y-70626731D01*
X109771469Y-70626717D01*
X109830339Y-70407010D01*
X109830341Y-70406999D01*
X109850166Y-70180402D01*
X109850166Y-70180397D01*
X109830341Y-69953800D01*
X109830339Y-69953789D01*
X109771469Y-69734082D01*
X109771465Y-69734073D01*
X109675333Y-69527916D01*
X109675331Y-69527912D01*
X109624226Y-69454926D01*
X109624225Y-69454926D01*
X108943153Y-70135998D01*
X108930365Y-70055252D01*
X108872841Y-69942355D01*
X108783245Y-69852759D01*
X108670348Y-69795235D01*
X108589600Y-69782446D01*
X109270672Y-69101374D01*
X109270671Y-69101373D01*
X109197683Y-69050266D01*
X109197681Y-69050265D01*
X108991526Y-68954134D01*
X108991517Y-68954130D01*
X108771810Y-68895260D01*
X108771799Y-68895258D01*
X108545202Y-68875434D01*
X108545198Y-68875434D01*
X108318600Y-68895258D01*
X108318589Y-68895260D01*
X108098882Y-68954130D01*
X108098873Y-68954134D01*
X107892713Y-69050268D01*
X107819727Y-69101372D01*
X107819726Y-69101373D01*
X108500800Y-69782446D01*
X108420052Y-69795235D01*
X108307155Y-69852759D01*
X108217559Y-69942355D01*
X108160035Y-70055252D01*
X108147246Y-70135999D01*
X107466173Y-69454926D01*
X107466172Y-69454927D01*
X107415068Y-69527913D01*
X107318934Y-69734073D01*
X107318930Y-69734082D01*
X107260060Y-69953789D01*
X107260058Y-69953800D01*
X107240234Y-70180397D01*
X107240234Y-70180402D01*
X104858698Y-70180402D01*
X104858698Y-70180400D01*
X104838743Y-69952313D01*
X104779484Y-69731157D01*
X104682723Y-69523651D01*
X104551398Y-69336100D01*
X104389500Y-69174202D01*
X104201949Y-69042877D01*
X104201945Y-69042875D01*
X103994449Y-68946118D01*
X103994438Y-68946114D01*
X103773289Y-68886857D01*
X103773281Y-68886856D01*
X103545202Y-68866902D01*
X103545198Y-68866902D01*
X103317118Y-68886856D01*
X103317110Y-68886857D01*
X103095961Y-68946114D01*
X103095950Y-68946118D01*
X102888454Y-69042875D01*
X102888452Y-69042876D01*
X102818056Y-69092167D01*
X102700900Y-69174202D01*
X102700898Y-69174203D01*
X102700895Y-69174206D01*
X102539006Y-69336095D01*
X102407676Y-69523652D01*
X102407675Y-69523654D01*
X102310918Y-69731150D01*
X102310914Y-69731161D01*
X102251657Y-69952310D01*
X102251656Y-69952318D01*
X102231702Y-70180398D01*
X102231702Y-70180401D01*
X100075500Y-70180401D01*
X100075500Y-65664805D01*
X108507240Y-65664805D01*
X108527057Y-65979812D01*
X108527059Y-65979820D01*
X108586205Y-66289872D01*
X108586207Y-66289877D01*
X108683744Y-66590067D01*
X108683746Y-66590072D01*
X108818136Y-66875665D01*
X108818142Y-66875676D01*
X108987261Y-67142165D01*
X108987263Y-67142168D01*
X108987268Y-67142175D01*
X109186287Y-67382747D01*
X109188472Y-67385388D01*
X109418558Y-67601452D01*
X109418568Y-67601460D01*
X109673909Y-67786976D01*
X109673914Y-67786978D01*
X109673921Y-67786984D01*
X109950521Y-67939047D01*
X109950526Y-67939049D01*
X109950528Y-67939050D01*
X109950529Y-67939051D01*
X110243994Y-68055242D01*
X110243997Y-68055243D01*
X110471658Y-68113696D01*
X110549725Y-68133740D01*
X110615417Y-68142038D01*
X110862867Y-68173299D01*
X110862876Y-68173299D01*
X110862879Y-68173300D01*
X110862881Y-68173300D01*
X111178519Y-68173300D01*
X111178521Y-68173300D01*
X111178524Y-68173299D01*
X111178532Y-68173299D01*
X111365392Y-68149692D01*
X111491675Y-68133740D01*
X111797402Y-68055243D01*
X111854622Y-68032588D01*
X112090870Y-67939051D01*
X112090871Y-67939050D01*
X112090869Y-67939050D01*
X112090879Y-67939047D01*
X112367479Y-67786984D01*
X112622840Y-67601454D01*
X112852933Y-67385382D01*
X113054132Y-67142175D01*
X113223262Y-66875669D01*
X113357656Y-66590066D01*
X113455195Y-66289872D01*
X113514341Y-65979820D01*
X113517882Y-65923547D01*
X113534160Y-65664805D01*
X113534160Y-65664794D01*
X113514342Y-65349787D01*
X113513431Y-65345011D01*
X113455195Y-65039728D01*
X113357656Y-64739534D01*
X113347307Y-64717542D01*
X113285225Y-64585609D01*
X113223262Y-64453931D01*
X113146645Y-64333202D01*
X113054138Y-64187434D01*
X113054136Y-64187432D01*
X113054132Y-64187425D01*
X112852933Y-63944218D01*
X112852932Y-63944217D01*
X112852927Y-63944211D01*
X112622841Y-63728147D01*
X112622831Y-63728139D01*
X112367490Y-63542623D01*
X112367483Y-63542618D01*
X112367479Y-63542616D01*
X112090879Y-63390553D01*
X112090876Y-63390551D01*
X112090871Y-63390549D01*
X112090870Y-63390548D01*
X111797405Y-63274357D01*
X111797402Y-63274356D01*
X111491678Y-63195860D01*
X111491665Y-63195858D01*
X111178532Y-63156300D01*
X111178521Y-63156300D01*
X110862879Y-63156300D01*
X110862867Y-63156300D01*
X110549734Y-63195858D01*
X110549721Y-63195860D01*
X110243997Y-63274356D01*
X110243994Y-63274357D01*
X109950529Y-63390548D01*
X109950528Y-63390549D01*
X109673921Y-63542616D01*
X109673909Y-63542623D01*
X109418568Y-63728139D01*
X109418558Y-63728147D01*
X109188472Y-63944211D01*
X108987261Y-64187434D01*
X108818142Y-64453923D01*
X108818136Y-64453934D01*
X108683746Y-64739527D01*
X108683744Y-64739532D01*
X108657541Y-64820177D01*
X108586205Y-65039728D01*
X108552920Y-65214209D01*
X108527057Y-65349787D01*
X108507240Y-65664794D01*
X108507240Y-65664805D01*
X100075500Y-65664805D01*
X100075500Y-60914801D01*
X112567202Y-60914801D01*
X112587156Y-61142881D01*
X112587157Y-61142889D01*
X112646414Y-61364038D01*
X112646418Y-61364049D01*
X112730269Y-61543867D01*
X112743177Y-61571549D01*
X112874502Y-61759100D01*
X113036400Y-61920998D01*
X113223951Y-62052323D01*
X113311184Y-62093000D01*
X113431450Y-62149081D01*
X113431452Y-62149081D01*
X113431457Y-62149084D01*
X113652613Y-62208343D01*
X113815532Y-62222596D01*
X113880698Y-62228298D01*
X113880700Y-62228298D01*
X113880702Y-62228298D01*
X113937721Y-62223309D01*
X114108787Y-62208343D01*
X114329943Y-62149084D01*
X114537449Y-62052323D01*
X114551461Y-62042511D01*
X114617666Y-62020183D01*
X114685434Y-62037192D01*
X114721854Y-62069775D01*
X114723510Y-62071988D01*
X114723514Y-62071991D01*
X114838606Y-62158150D01*
X114838613Y-62158154D01*
X114973320Y-62208396D01*
X114973327Y-62208398D01*
X115032855Y-62214799D01*
X115032872Y-62214800D01*
X115630700Y-62214800D01*
X115630699Y-61322818D01*
X115745501Y-61375246D01*
X115846725Y-61389800D01*
X115914675Y-61389800D01*
X116015899Y-61375246D01*
X116130700Y-61322818D01*
X116130700Y-62214800D01*
X116728528Y-62214800D01*
X116728544Y-62214799D01*
X116788072Y-62208398D01*
X116788079Y-62208396D01*
X116922786Y-62158154D01*
X116922793Y-62158150D01*
X117037887Y-62071990D01*
X117037890Y-62071987D01*
X117124050Y-61956893D01*
X117124054Y-61956886D01*
X117174296Y-61822179D01*
X117174298Y-61822172D01*
X117180699Y-61762644D01*
X117180700Y-61762627D01*
X117180700Y-61164800D01*
X116284669Y-61164800D01*
X116317219Y-61114151D01*
X116355700Y-60983095D01*
X116355700Y-60846505D01*
X116317219Y-60715449D01*
X116284669Y-60664800D01*
X117180700Y-60664800D01*
X117180700Y-60066972D01*
X117180699Y-60066955D01*
X117174298Y-60007427D01*
X117174296Y-60007420D01*
X117124054Y-59872713D01*
X117124050Y-59872706D01*
X117037890Y-59757612D01*
X117037887Y-59757609D01*
X116922793Y-59671449D01*
X116922786Y-59671445D01*
X116780808Y-59618491D01*
X116781599Y-59616370D01*
X116730793Y-59587440D01*
X116698406Y-59525530D01*
X116704632Y-59455939D01*
X116732338Y-59413659D01*
X116886898Y-59259100D01*
X117018223Y-59071549D01*
X117114984Y-58864043D01*
X117174243Y-58642887D01*
X117194198Y-58414800D01*
X117174243Y-58186713D01*
X117114984Y-57965557D01*
X117018223Y-57758051D01*
X116886898Y-57570500D01*
X116725000Y-57408602D01*
X116537449Y-57277277D01*
X116537445Y-57277275D01*
X116329949Y-57180518D01*
X116329938Y-57180514D01*
X116108789Y-57121257D01*
X116108781Y-57121256D01*
X115880702Y-57101302D01*
X115880698Y-57101302D01*
X115652618Y-57121256D01*
X115652610Y-57121257D01*
X115431461Y-57180514D01*
X115431450Y-57180518D01*
X115223954Y-57277275D01*
X115223952Y-57277276D01*
X115036398Y-57408603D01*
X114968381Y-57476620D01*
X114907057Y-57510104D01*
X114837366Y-57505119D01*
X114793019Y-57476620D01*
X114725001Y-57408603D01*
X114706067Y-57395345D01*
X114537449Y-57277277D01*
X114537445Y-57277275D01*
X114329949Y-57180518D01*
X114329938Y-57180514D01*
X114108789Y-57121257D01*
X114108781Y-57121256D01*
X113880702Y-57101302D01*
X113880698Y-57101302D01*
X113652618Y-57121256D01*
X113652610Y-57121257D01*
X113431461Y-57180514D01*
X113431450Y-57180518D01*
X113223954Y-57277275D01*
X113223952Y-57277276D01*
X113223949Y-57277277D01*
X113223951Y-57277277D01*
X113036400Y-57408602D01*
X113036398Y-57408603D01*
X113036395Y-57408606D01*
X112874506Y-57570495D01*
X112743176Y-57758052D01*
X112743175Y-57758054D01*
X112646418Y-57965550D01*
X112646414Y-57965561D01*
X112587157Y-58186710D01*
X112587156Y-58186718D01*
X112567202Y-58414798D01*
X112567202Y-58414801D01*
X112587156Y-58642881D01*
X112587157Y-58642889D01*
X112646414Y-58864038D01*
X112646418Y-58864049D01*
X112743175Y-59071545D01*
X112743177Y-59071549D01*
X112874502Y-59259100D01*
X113036400Y-59420998D01*
X113223951Y-59552323D01*
X113224159Y-59552420D01*
X113224234Y-59552486D01*
X113228637Y-59555028D01*
X113228126Y-59555913D01*
X113276596Y-59598593D01*
X113295746Y-59665787D01*
X113275528Y-59732668D01*
X113228147Y-59773724D01*
X113228637Y-59774572D01*
X113224238Y-59777111D01*
X113224159Y-59777179D01*
X113224047Y-59777231D01*
X113223950Y-59777277D01*
X113155811Y-59824989D01*
X113036400Y-59908602D01*
X113036398Y-59908603D01*
X113036395Y-59908606D01*
X112874506Y-60070495D01*
X112874503Y-60070498D01*
X112874502Y-60070500D01*
X112829289Y-60135071D01*
X112743176Y-60258052D01*
X112743175Y-60258054D01*
X112646418Y-60465550D01*
X112646414Y-60465561D01*
X112587157Y-60686710D01*
X112587156Y-60686718D01*
X112567202Y-60914798D01*
X112567202Y-60914801D01*
X100075500Y-60914801D01*
X100075500Y-53664805D01*
X108507240Y-53664805D01*
X108527057Y-53979812D01*
X108527059Y-53979820D01*
X108586205Y-54289872D01*
X108586207Y-54289877D01*
X108683744Y-54590067D01*
X108683746Y-54590072D01*
X108818136Y-54875665D01*
X108818142Y-54875676D01*
X108987261Y-55142165D01*
X108987263Y-55142168D01*
X108987268Y-55142175D01*
X109105313Y-55284866D01*
X109188472Y-55385388D01*
X109418558Y-55601452D01*
X109418568Y-55601460D01*
X109673909Y-55786976D01*
X109673914Y-55786978D01*
X109673921Y-55786984D01*
X109950521Y-55939047D01*
X109950526Y-55939049D01*
X109950528Y-55939050D01*
X109950529Y-55939051D01*
X110243994Y-56055242D01*
X110243997Y-56055243D01*
X110549721Y-56133739D01*
X110549725Y-56133740D01*
X110615417Y-56142038D01*
X110862867Y-56173299D01*
X110862876Y-56173299D01*
X110862879Y-56173300D01*
X110862881Y-56173300D01*
X111178519Y-56173300D01*
X111178521Y-56173300D01*
X111178524Y-56173299D01*
X111178532Y-56173299D01*
X111365392Y-56149692D01*
X111491675Y-56133740D01*
X111797402Y-56055243D01*
X111797405Y-56055242D01*
X112090870Y-55939051D01*
X112090871Y-55939050D01*
X112090869Y-55939050D01*
X112090879Y-55939047D01*
X112367479Y-55786984D01*
X112622840Y-55601454D01*
X112852933Y-55385382D01*
X113054132Y-55142175D01*
X113223262Y-54875669D01*
X113357656Y-54590066D01*
X113455195Y-54289872D01*
X113514341Y-53979820D01*
X113522310Y-53853167D01*
X113534160Y-53664805D01*
X113534160Y-53664794D01*
X113514342Y-53349787D01*
X113514341Y-53349780D01*
X113455195Y-53039728D01*
X113357656Y-52739534D01*
X113223262Y-52453931D01*
X113195268Y-52409819D01*
X113054138Y-52187434D01*
X113054136Y-52187432D01*
X113054132Y-52187425D01*
X112852933Y-51944218D01*
X112852932Y-51944217D01*
X112852927Y-51944211D01*
X112622841Y-51728147D01*
X112622831Y-51728139D01*
X112367490Y-51542623D01*
X112367483Y-51542618D01*
X112367479Y-51542616D01*
X112090879Y-51390553D01*
X112090876Y-51390551D01*
X112090871Y-51390549D01*
X112090870Y-51390548D01*
X111797405Y-51274357D01*
X111797402Y-51274356D01*
X111491678Y-51195860D01*
X111491665Y-51195858D01*
X111178532Y-51156300D01*
X111178521Y-51156300D01*
X110862879Y-51156300D01*
X110862867Y-51156300D01*
X110549734Y-51195858D01*
X110549721Y-51195860D01*
X110243997Y-51274356D01*
X110243994Y-51274357D01*
X109950529Y-51390548D01*
X109950528Y-51390549D01*
X109673921Y-51542616D01*
X109673909Y-51542623D01*
X109418568Y-51728139D01*
X109418558Y-51728147D01*
X109188472Y-51944211D01*
X109059757Y-52099800D01*
X109000611Y-52171297D01*
X108987261Y-52187434D01*
X108818142Y-52453923D01*
X108818136Y-52453934D01*
X108683746Y-52739527D01*
X108683744Y-52739532D01*
X108600136Y-52996853D01*
X108586205Y-53039728D01*
X108567904Y-53135666D01*
X108527057Y-53349787D01*
X108507240Y-53664794D01*
X108507240Y-53664805D01*
X100075500Y-53664805D01*
X100075500Y-47425048D01*
X100075799Y-47418967D01*
X100087494Y-47300222D01*
X100092234Y-47276389D01*
X100124216Y-47170959D01*
X100133508Y-47148526D01*
X100185442Y-47051365D01*
X100198938Y-47031166D01*
X100268827Y-46946006D01*
X100286006Y-46928827D01*
X100371166Y-46858938D01*
X100391365Y-46845442D01*
X100488526Y-46793508D01*
X100510959Y-46784216D01*
X100616389Y-46752234D01*
X100640220Y-46747494D01*
X100670605Y-46744501D01*
X100758968Y-46735799D01*
X100765049Y-46735500D01*
X100786531Y-46735500D01*
X165840500Y-46735500D01*
X165907539Y-46755185D01*
G37*
%TD.AperFunction*%
%TD*%
M02*
