%TF.GenerationSoftware,KiCad,Pcbnew,7.0.5*%
%TF.CreationDate,2023-11-13T21:41:30+01:00*%
%TF.ProjectId,atmega328p_dev_board,61746d65-6761-4333-9238-705f6465765f,rev?*%
%TF.SameCoordinates,Original*%
%TF.FileFunction,AssemblyDrawing,Top*%
%FSLAX46Y46*%
G04 Gerber Fmt 4.6, Leading zero omitted, Abs format (unit mm)*
G04 Created by KiCad (PCBNEW 7.0.5) date 2023-11-13 21:41:30*
%MOMM*%
%LPD*%
G01*
G04 APERTURE LIST*
%ADD10C,0.150000*%
%ADD11C,0.200000*%
%ADD12C,0.100000*%
G04 APERTURE END LIST*
D10*
%TO.C,U1*%
X128319104Y-84076666D02*
X128319104Y-83600476D01*
X128604819Y-84171904D02*
X127604819Y-83838571D01*
X127604819Y-83838571D02*
X128604819Y-83505238D01*
X127604819Y-83314761D02*
X127604819Y-82743333D01*
X128604819Y-83029047D02*
X127604819Y-83029047D01*
X128604819Y-82409999D02*
X127938152Y-82409999D01*
X128033390Y-82409999D02*
X127985771Y-82362380D01*
X127985771Y-82362380D02*
X127938152Y-82267142D01*
X127938152Y-82267142D02*
X127938152Y-82124285D01*
X127938152Y-82124285D02*
X127985771Y-82029047D01*
X127985771Y-82029047D02*
X128081009Y-81981428D01*
X128081009Y-81981428D02*
X128604819Y-81981428D01*
X128081009Y-81981428D02*
X127985771Y-81933809D01*
X127985771Y-81933809D02*
X127938152Y-81838571D01*
X127938152Y-81838571D02*
X127938152Y-81695714D01*
X127938152Y-81695714D02*
X127985771Y-81600475D01*
X127985771Y-81600475D02*
X128081009Y-81552856D01*
X128081009Y-81552856D02*
X128604819Y-81552856D01*
X128557200Y-80695714D02*
X128604819Y-80790952D01*
X128604819Y-80790952D02*
X128604819Y-80981428D01*
X128604819Y-80981428D02*
X128557200Y-81076666D01*
X128557200Y-81076666D02*
X128461961Y-81124285D01*
X128461961Y-81124285D02*
X128081009Y-81124285D01*
X128081009Y-81124285D02*
X127985771Y-81076666D01*
X127985771Y-81076666D02*
X127938152Y-80981428D01*
X127938152Y-80981428D02*
X127938152Y-80790952D01*
X127938152Y-80790952D02*
X127985771Y-80695714D01*
X127985771Y-80695714D02*
X128081009Y-80648095D01*
X128081009Y-80648095D02*
X128176247Y-80648095D01*
X128176247Y-80648095D02*
X128271485Y-81124285D01*
X127938152Y-79790952D02*
X128747676Y-79790952D01*
X128747676Y-79790952D02*
X128842914Y-79838571D01*
X128842914Y-79838571D02*
X128890533Y-79886190D01*
X128890533Y-79886190D02*
X128938152Y-79981428D01*
X128938152Y-79981428D02*
X128938152Y-80124285D01*
X128938152Y-80124285D02*
X128890533Y-80219523D01*
X128557200Y-79790952D02*
X128604819Y-79886190D01*
X128604819Y-79886190D02*
X128604819Y-80076666D01*
X128604819Y-80076666D02*
X128557200Y-80171904D01*
X128557200Y-80171904D02*
X128509580Y-80219523D01*
X128509580Y-80219523D02*
X128414342Y-80267142D01*
X128414342Y-80267142D02*
X128128628Y-80267142D01*
X128128628Y-80267142D02*
X128033390Y-80219523D01*
X128033390Y-80219523D02*
X127985771Y-80171904D01*
X127985771Y-80171904D02*
X127938152Y-80076666D01*
X127938152Y-80076666D02*
X127938152Y-79886190D01*
X127938152Y-79886190D02*
X127985771Y-79790952D01*
X128604819Y-78886190D02*
X128081009Y-78886190D01*
X128081009Y-78886190D02*
X127985771Y-78933809D01*
X127985771Y-78933809D02*
X127938152Y-79029047D01*
X127938152Y-79029047D02*
X127938152Y-79219523D01*
X127938152Y-79219523D02*
X127985771Y-79314761D01*
X128557200Y-78886190D02*
X128604819Y-78981428D01*
X128604819Y-78981428D02*
X128604819Y-79219523D01*
X128604819Y-79219523D02*
X128557200Y-79314761D01*
X128557200Y-79314761D02*
X128461961Y-79362380D01*
X128461961Y-79362380D02*
X128366723Y-79362380D01*
X128366723Y-79362380D02*
X128271485Y-79314761D01*
X128271485Y-79314761D02*
X128223866Y-79219523D01*
X128223866Y-79219523D02*
X128223866Y-78981428D01*
X128223866Y-78981428D02*
X128176247Y-78886190D01*
X127604819Y-78505237D02*
X127604819Y-77886190D01*
X127604819Y-77886190D02*
X127985771Y-78219523D01*
X127985771Y-78219523D02*
X127985771Y-78076666D01*
X127985771Y-78076666D02*
X128033390Y-77981428D01*
X128033390Y-77981428D02*
X128081009Y-77933809D01*
X128081009Y-77933809D02*
X128176247Y-77886190D01*
X128176247Y-77886190D02*
X128414342Y-77886190D01*
X128414342Y-77886190D02*
X128509580Y-77933809D01*
X128509580Y-77933809D02*
X128557200Y-77981428D01*
X128557200Y-77981428D02*
X128604819Y-78076666D01*
X128604819Y-78076666D02*
X128604819Y-78362380D01*
X128604819Y-78362380D02*
X128557200Y-78457618D01*
X128557200Y-78457618D02*
X128509580Y-78505237D01*
X127700057Y-77505237D02*
X127652438Y-77457618D01*
X127652438Y-77457618D02*
X127604819Y-77362380D01*
X127604819Y-77362380D02*
X127604819Y-77124285D01*
X127604819Y-77124285D02*
X127652438Y-77029047D01*
X127652438Y-77029047D02*
X127700057Y-76981428D01*
X127700057Y-76981428D02*
X127795295Y-76933809D01*
X127795295Y-76933809D02*
X127890533Y-76933809D01*
X127890533Y-76933809D02*
X128033390Y-76981428D01*
X128033390Y-76981428D02*
X128604819Y-77552856D01*
X128604819Y-77552856D02*
X128604819Y-76933809D01*
X128033390Y-76362380D02*
X127985771Y-76457618D01*
X127985771Y-76457618D02*
X127938152Y-76505237D01*
X127938152Y-76505237D02*
X127842914Y-76552856D01*
X127842914Y-76552856D02*
X127795295Y-76552856D01*
X127795295Y-76552856D02*
X127700057Y-76505237D01*
X127700057Y-76505237D02*
X127652438Y-76457618D01*
X127652438Y-76457618D02*
X127604819Y-76362380D01*
X127604819Y-76362380D02*
X127604819Y-76171904D01*
X127604819Y-76171904D02*
X127652438Y-76076666D01*
X127652438Y-76076666D02*
X127700057Y-76029047D01*
X127700057Y-76029047D02*
X127795295Y-75981428D01*
X127795295Y-75981428D02*
X127842914Y-75981428D01*
X127842914Y-75981428D02*
X127938152Y-76029047D01*
X127938152Y-76029047D02*
X127985771Y-76076666D01*
X127985771Y-76076666D02*
X128033390Y-76171904D01*
X128033390Y-76171904D02*
X128033390Y-76362380D01*
X128033390Y-76362380D02*
X128081009Y-76457618D01*
X128081009Y-76457618D02*
X128128628Y-76505237D01*
X128128628Y-76505237D02*
X128223866Y-76552856D01*
X128223866Y-76552856D02*
X128414342Y-76552856D01*
X128414342Y-76552856D02*
X128509580Y-76505237D01*
X128509580Y-76505237D02*
X128557200Y-76457618D01*
X128557200Y-76457618D02*
X128604819Y-76362380D01*
X128604819Y-76362380D02*
X128604819Y-76171904D01*
X128604819Y-76171904D02*
X128557200Y-76076666D01*
X128557200Y-76076666D02*
X128509580Y-76029047D01*
X128509580Y-76029047D02*
X128414342Y-75981428D01*
X128414342Y-75981428D02*
X128223866Y-75981428D01*
X128223866Y-75981428D02*
X128128628Y-76029047D01*
X128128628Y-76029047D02*
X128081009Y-76076666D01*
X128081009Y-76076666D02*
X128033390Y-76171904D01*
X128604819Y-75552856D02*
X127604819Y-75552856D01*
X127604819Y-75552856D02*
X127604819Y-75171904D01*
X127604819Y-75171904D02*
X127652438Y-75076666D01*
X127652438Y-75076666D02*
X127700057Y-75029047D01*
X127700057Y-75029047D02*
X127795295Y-74981428D01*
X127795295Y-74981428D02*
X127938152Y-74981428D01*
X127938152Y-74981428D02*
X128033390Y-75029047D01*
X128033390Y-75029047D02*
X128081009Y-75076666D01*
X128081009Y-75076666D02*
X128128628Y-75171904D01*
X128128628Y-75171904D02*
X128128628Y-75552856D01*
X128223866Y-74552856D02*
X128223866Y-73790952D01*
X128604819Y-73314761D02*
X127604819Y-73314761D01*
X127604819Y-73314761D02*
X127604819Y-72933809D01*
X127604819Y-72933809D02*
X127652438Y-72838571D01*
X127652438Y-72838571D02*
X127700057Y-72790952D01*
X127700057Y-72790952D02*
X127795295Y-72743333D01*
X127795295Y-72743333D02*
X127938152Y-72743333D01*
X127938152Y-72743333D02*
X128033390Y-72790952D01*
X128033390Y-72790952D02*
X128081009Y-72838571D01*
X128081009Y-72838571D02*
X128128628Y-72933809D01*
X128128628Y-72933809D02*
X128128628Y-73314761D01*
X146444819Y-79171904D02*
X147254342Y-79171904D01*
X147254342Y-79171904D02*
X147349580Y-79124285D01*
X147349580Y-79124285D02*
X147397200Y-79076666D01*
X147397200Y-79076666D02*
X147444819Y-78981428D01*
X147444819Y-78981428D02*
X147444819Y-78790952D01*
X147444819Y-78790952D02*
X147397200Y-78695714D01*
X147397200Y-78695714D02*
X147349580Y-78648095D01*
X147349580Y-78648095D02*
X147254342Y-78600476D01*
X147254342Y-78600476D02*
X146444819Y-78600476D01*
X147444819Y-77600476D02*
X147444819Y-78171904D01*
X147444819Y-77886190D02*
X146444819Y-77886190D01*
X146444819Y-77886190D02*
X146587676Y-77981428D01*
X146587676Y-77981428D02*
X146682914Y-78076666D01*
X146682914Y-78076666D02*
X146730533Y-78171904D01*
%TO.C,J5*%
X107201443Y-61095219D02*
X107201443Y-61904742D01*
X107201443Y-61904742D02*
X107249062Y-61999980D01*
X107249062Y-61999980D02*
X107296681Y-62047600D01*
X107296681Y-62047600D02*
X107391919Y-62095219D01*
X107391919Y-62095219D02*
X107582395Y-62095219D01*
X107582395Y-62095219D02*
X107677633Y-62047600D01*
X107677633Y-62047600D02*
X107725252Y-61999980D01*
X107725252Y-61999980D02*
X107772871Y-61904742D01*
X107772871Y-61904742D02*
X107772871Y-61095219D01*
X108201443Y-62047600D02*
X108344300Y-62095219D01*
X108344300Y-62095219D02*
X108582395Y-62095219D01*
X108582395Y-62095219D02*
X108677633Y-62047600D01*
X108677633Y-62047600D02*
X108725252Y-61999980D01*
X108725252Y-61999980D02*
X108772871Y-61904742D01*
X108772871Y-61904742D02*
X108772871Y-61809504D01*
X108772871Y-61809504D02*
X108725252Y-61714266D01*
X108725252Y-61714266D02*
X108677633Y-61666647D01*
X108677633Y-61666647D02*
X108582395Y-61619028D01*
X108582395Y-61619028D02*
X108391919Y-61571409D01*
X108391919Y-61571409D02*
X108296681Y-61523790D01*
X108296681Y-61523790D02*
X108249062Y-61476171D01*
X108249062Y-61476171D02*
X108201443Y-61380933D01*
X108201443Y-61380933D02*
X108201443Y-61285695D01*
X108201443Y-61285695D02*
X108249062Y-61190457D01*
X108249062Y-61190457D02*
X108296681Y-61142838D01*
X108296681Y-61142838D02*
X108391919Y-61095219D01*
X108391919Y-61095219D02*
X108630014Y-61095219D01*
X108630014Y-61095219D02*
X108772871Y-61142838D01*
X109534776Y-61571409D02*
X109677633Y-61619028D01*
X109677633Y-61619028D02*
X109725252Y-61666647D01*
X109725252Y-61666647D02*
X109772871Y-61761885D01*
X109772871Y-61761885D02*
X109772871Y-61904742D01*
X109772871Y-61904742D02*
X109725252Y-61999980D01*
X109725252Y-61999980D02*
X109677633Y-62047600D01*
X109677633Y-62047600D02*
X109582395Y-62095219D01*
X109582395Y-62095219D02*
X109201443Y-62095219D01*
X109201443Y-62095219D02*
X109201443Y-61095219D01*
X109201443Y-61095219D02*
X109534776Y-61095219D01*
X109534776Y-61095219D02*
X109630014Y-61142838D01*
X109630014Y-61142838D02*
X109677633Y-61190457D01*
X109677633Y-61190457D02*
X109725252Y-61285695D01*
X109725252Y-61285695D02*
X109725252Y-61380933D01*
X109725252Y-61380933D02*
X109677633Y-61476171D01*
X109677633Y-61476171D02*
X109630014Y-61523790D01*
X109630014Y-61523790D02*
X109534776Y-61571409D01*
X109534776Y-61571409D02*
X109201443Y-61571409D01*
X109963348Y-62190457D02*
X110725252Y-62190457D01*
X111296681Y-61571409D02*
X111439538Y-61619028D01*
X111439538Y-61619028D02*
X111487157Y-61666647D01*
X111487157Y-61666647D02*
X111534776Y-61761885D01*
X111534776Y-61761885D02*
X111534776Y-61904742D01*
X111534776Y-61904742D02*
X111487157Y-61999980D01*
X111487157Y-61999980D02*
X111439538Y-62047600D01*
X111439538Y-62047600D02*
X111344300Y-62095219D01*
X111344300Y-62095219D02*
X110963348Y-62095219D01*
X110963348Y-62095219D02*
X110963348Y-61095219D01*
X110963348Y-61095219D02*
X111296681Y-61095219D01*
X111296681Y-61095219D02*
X111391919Y-61142838D01*
X111391919Y-61142838D02*
X111439538Y-61190457D01*
X111439538Y-61190457D02*
X111487157Y-61285695D01*
X111487157Y-61285695D02*
X111487157Y-61380933D01*
X111487157Y-61380933D02*
X111439538Y-61476171D01*
X111439538Y-61476171D02*
X111391919Y-61523790D01*
X111391919Y-61523790D02*
X111296681Y-61571409D01*
X111296681Y-61571409D02*
X110963348Y-61571409D01*
X108047366Y-59119619D02*
X108047366Y-59833904D01*
X108047366Y-59833904D02*
X107999747Y-59976761D01*
X107999747Y-59976761D02*
X107904509Y-60072000D01*
X107904509Y-60072000D02*
X107761652Y-60119619D01*
X107761652Y-60119619D02*
X107666414Y-60119619D01*
X108999747Y-59119619D02*
X108523557Y-59119619D01*
X108523557Y-59119619D02*
X108475938Y-59595809D01*
X108475938Y-59595809D02*
X108523557Y-59548190D01*
X108523557Y-59548190D02*
X108618795Y-59500571D01*
X108618795Y-59500571D02*
X108856890Y-59500571D01*
X108856890Y-59500571D02*
X108952128Y-59548190D01*
X108952128Y-59548190D02*
X108999747Y-59595809D01*
X108999747Y-59595809D02*
X109047366Y-59691047D01*
X109047366Y-59691047D02*
X109047366Y-59929142D01*
X109047366Y-59929142D02*
X108999747Y-60024380D01*
X108999747Y-60024380D02*
X108952128Y-60072000D01*
X108952128Y-60072000D02*
X108856890Y-60119619D01*
X108856890Y-60119619D02*
X108618795Y-60119619D01*
X108618795Y-60119619D02*
X108523557Y-60072000D01*
X108523557Y-60072000D02*
X108475938Y-60024380D01*
%TO.C,J1*%
X134853809Y-101724819D02*
X134853809Y-100724819D01*
X134853809Y-100724819D02*
X135234761Y-100724819D01*
X135234761Y-100724819D02*
X135329999Y-100772438D01*
X135329999Y-100772438D02*
X135377618Y-100820057D01*
X135377618Y-100820057D02*
X135425237Y-100915295D01*
X135425237Y-100915295D02*
X135425237Y-101058152D01*
X135425237Y-101058152D02*
X135377618Y-101153390D01*
X135377618Y-101153390D02*
X135329999Y-101201009D01*
X135329999Y-101201009D02*
X135234761Y-101248628D01*
X135234761Y-101248628D02*
X134853809Y-101248628D01*
X135996666Y-101724819D02*
X135901428Y-101677200D01*
X135901428Y-101677200D02*
X135853809Y-101629580D01*
X135853809Y-101629580D02*
X135806190Y-101534342D01*
X135806190Y-101534342D02*
X135806190Y-101248628D01*
X135806190Y-101248628D02*
X135853809Y-101153390D01*
X135853809Y-101153390D02*
X135901428Y-101105771D01*
X135901428Y-101105771D02*
X135996666Y-101058152D01*
X135996666Y-101058152D02*
X136139523Y-101058152D01*
X136139523Y-101058152D02*
X136234761Y-101105771D01*
X136234761Y-101105771D02*
X136282380Y-101153390D01*
X136282380Y-101153390D02*
X136329999Y-101248628D01*
X136329999Y-101248628D02*
X136329999Y-101534342D01*
X136329999Y-101534342D02*
X136282380Y-101629580D01*
X136282380Y-101629580D02*
X136234761Y-101677200D01*
X136234761Y-101677200D02*
X136139523Y-101724819D01*
X136139523Y-101724819D02*
X135996666Y-101724819D01*
X136663333Y-101058152D02*
X136853809Y-101724819D01*
X136853809Y-101724819D02*
X137044285Y-101248628D01*
X137044285Y-101248628D02*
X137234761Y-101724819D01*
X137234761Y-101724819D02*
X137425237Y-101058152D01*
X138187142Y-101677200D02*
X138091904Y-101724819D01*
X138091904Y-101724819D02*
X137901428Y-101724819D01*
X137901428Y-101724819D02*
X137806190Y-101677200D01*
X137806190Y-101677200D02*
X137758571Y-101581961D01*
X137758571Y-101581961D02*
X137758571Y-101201009D01*
X137758571Y-101201009D02*
X137806190Y-101105771D01*
X137806190Y-101105771D02*
X137901428Y-101058152D01*
X137901428Y-101058152D02*
X138091904Y-101058152D01*
X138091904Y-101058152D02*
X138187142Y-101105771D01*
X138187142Y-101105771D02*
X138234761Y-101201009D01*
X138234761Y-101201009D02*
X138234761Y-101296247D01*
X138234761Y-101296247D02*
X137758571Y-101391485D01*
X138663333Y-101724819D02*
X138663333Y-101058152D01*
X138663333Y-101248628D02*
X138710952Y-101153390D01*
X138710952Y-101153390D02*
X138758571Y-101105771D01*
X138758571Y-101105771D02*
X138853809Y-101058152D01*
X138853809Y-101058152D02*
X138949047Y-101058152D01*
X127606666Y-100724819D02*
X127606666Y-101439104D01*
X127606666Y-101439104D02*
X127559047Y-101581961D01*
X127559047Y-101581961D02*
X127463809Y-101677200D01*
X127463809Y-101677200D02*
X127320952Y-101724819D01*
X127320952Y-101724819D02*
X127225714Y-101724819D01*
X128606666Y-101724819D02*
X128035238Y-101724819D01*
X128320952Y-101724819D02*
X128320952Y-100724819D01*
X128320952Y-100724819D02*
X128225714Y-100867676D01*
X128225714Y-100867676D02*
X128130476Y-100962914D01*
X128130476Y-100962914D02*
X128035238Y-101010533D01*
%TO.C,J3*%
X154840476Y-101439104D02*
X155316666Y-101439104D01*
X154745238Y-101724819D02*
X155078571Y-100724819D01*
X155078571Y-100724819D02*
X155411904Y-101724819D01*
X155745238Y-101058152D02*
X155745238Y-101724819D01*
X155745238Y-101153390D02*
X155792857Y-101105771D01*
X155792857Y-101105771D02*
X155888095Y-101058152D01*
X155888095Y-101058152D02*
X156030952Y-101058152D01*
X156030952Y-101058152D02*
X156126190Y-101105771D01*
X156126190Y-101105771D02*
X156173809Y-101201009D01*
X156173809Y-101201009D02*
X156173809Y-101724819D01*
X157078571Y-101724819D02*
X157078571Y-101201009D01*
X157078571Y-101201009D02*
X157030952Y-101105771D01*
X157030952Y-101105771D02*
X156935714Y-101058152D01*
X156935714Y-101058152D02*
X156745238Y-101058152D01*
X156745238Y-101058152D02*
X156650000Y-101105771D01*
X157078571Y-101677200D02*
X156983333Y-101724819D01*
X156983333Y-101724819D02*
X156745238Y-101724819D01*
X156745238Y-101724819D02*
X156650000Y-101677200D01*
X156650000Y-101677200D02*
X156602381Y-101581961D01*
X156602381Y-101581961D02*
X156602381Y-101486723D01*
X156602381Y-101486723D02*
X156650000Y-101391485D01*
X156650000Y-101391485D02*
X156745238Y-101343866D01*
X156745238Y-101343866D02*
X156983333Y-101343866D01*
X156983333Y-101343866D02*
X157078571Y-101296247D01*
X157697619Y-101724819D02*
X157602381Y-101677200D01*
X157602381Y-101677200D02*
X157554762Y-101581961D01*
X157554762Y-101581961D02*
X157554762Y-100724819D01*
X158221429Y-101724819D02*
X158126191Y-101677200D01*
X158126191Y-101677200D02*
X158078572Y-101629580D01*
X158078572Y-101629580D02*
X158030953Y-101534342D01*
X158030953Y-101534342D02*
X158030953Y-101248628D01*
X158030953Y-101248628D02*
X158078572Y-101153390D01*
X158078572Y-101153390D02*
X158126191Y-101105771D01*
X158126191Y-101105771D02*
X158221429Y-101058152D01*
X158221429Y-101058152D02*
X158364286Y-101058152D01*
X158364286Y-101058152D02*
X158459524Y-101105771D01*
X158459524Y-101105771D02*
X158507143Y-101153390D01*
X158507143Y-101153390D02*
X158554762Y-101248628D01*
X158554762Y-101248628D02*
X158554762Y-101534342D01*
X158554762Y-101534342D02*
X158507143Y-101629580D01*
X158507143Y-101629580D02*
X158459524Y-101677200D01*
X158459524Y-101677200D02*
X158364286Y-101724819D01*
X158364286Y-101724819D02*
X158221429Y-101724819D01*
X159411905Y-101058152D02*
X159411905Y-101867676D01*
X159411905Y-101867676D02*
X159364286Y-101962914D01*
X159364286Y-101962914D02*
X159316667Y-102010533D01*
X159316667Y-102010533D02*
X159221429Y-102058152D01*
X159221429Y-102058152D02*
X159078572Y-102058152D01*
X159078572Y-102058152D02*
X158983334Y-102010533D01*
X159411905Y-101677200D02*
X159316667Y-101724819D01*
X159316667Y-101724819D02*
X159126191Y-101724819D01*
X159126191Y-101724819D02*
X159030953Y-101677200D01*
X159030953Y-101677200D02*
X158983334Y-101629580D01*
X158983334Y-101629580D02*
X158935715Y-101534342D01*
X158935715Y-101534342D02*
X158935715Y-101248628D01*
X158935715Y-101248628D02*
X158983334Y-101153390D01*
X158983334Y-101153390D02*
X159030953Y-101105771D01*
X159030953Y-101105771D02*
X159126191Y-101058152D01*
X159126191Y-101058152D02*
X159316667Y-101058152D01*
X159316667Y-101058152D02*
X159411905Y-101105771D01*
X150466666Y-100724819D02*
X150466666Y-101439104D01*
X150466666Y-101439104D02*
X150419047Y-101581961D01*
X150419047Y-101581961D02*
X150323809Y-101677200D01*
X150323809Y-101677200D02*
X150180952Y-101724819D01*
X150180952Y-101724819D02*
X150085714Y-101724819D01*
X150847619Y-100724819D02*
X151466666Y-100724819D01*
X151466666Y-100724819D02*
X151133333Y-101105771D01*
X151133333Y-101105771D02*
X151276190Y-101105771D01*
X151276190Y-101105771D02*
X151371428Y-101153390D01*
X151371428Y-101153390D02*
X151419047Y-101201009D01*
X151419047Y-101201009D02*
X151466666Y-101296247D01*
X151466666Y-101296247D02*
X151466666Y-101534342D01*
X151466666Y-101534342D02*
X151419047Y-101629580D01*
X151419047Y-101629580D02*
X151371428Y-101677200D01*
X151371428Y-101677200D02*
X151276190Y-101724819D01*
X151276190Y-101724819D02*
X150990476Y-101724819D01*
X150990476Y-101724819D02*
X150895238Y-101677200D01*
X150895238Y-101677200D02*
X150847619Y-101629580D01*
%TO.C,J2*%
X125868857Y-45844819D02*
X125868857Y-44844819D01*
X125868857Y-44844819D02*
X126106952Y-44844819D01*
X126106952Y-44844819D02*
X126249809Y-44892438D01*
X126249809Y-44892438D02*
X126345047Y-44987676D01*
X126345047Y-44987676D02*
X126392666Y-45082914D01*
X126392666Y-45082914D02*
X126440285Y-45273390D01*
X126440285Y-45273390D02*
X126440285Y-45416247D01*
X126440285Y-45416247D02*
X126392666Y-45606723D01*
X126392666Y-45606723D02*
X126345047Y-45701961D01*
X126345047Y-45701961D02*
X126249809Y-45797200D01*
X126249809Y-45797200D02*
X126106952Y-45844819D01*
X126106952Y-45844819D02*
X125868857Y-45844819D01*
X126868857Y-45844819D02*
X126868857Y-45178152D01*
X126868857Y-44844819D02*
X126821238Y-44892438D01*
X126821238Y-44892438D02*
X126868857Y-44940057D01*
X126868857Y-44940057D02*
X126916476Y-44892438D01*
X126916476Y-44892438D02*
X126868857Y-44844819D01*
X126868857Y-44844819D02*
X126868857Y-44940057D01*
X127773618Y-45178152D02*
X127773618Y-45987676D01*
X127773618Y-45987676D02*
X127725999Y-46082914D01*
X127725999Y-46082914D02*
X127678380Y-46130533D01*
X127678380Y-46130533D02*
X127583142Y-46178152D01*
X127583142Y-46178152D02*
X127440285Y-46178152D01*
X127440285Y-46178152D02*
X127345047Y-46130533D01*
X127773618Y-45797200D02*
X127678380Y-45844819D01*
X127678380Y-45844819D02*
X127487904Y-45844819D01*
X127487904Y-45844819D02*
X127392666Y-45797200D01*
X127392666Y-45797200D02*
X127345047Y-45749580D01*
X127345047Y-45749580D02*
X127297428Y-45654342D01*
X127297428Y-45654342D02*
X127297428Y-45368628D01*
X127297428Y-45368628D02*
X127345047Y-45273390D01*
X127345047Y-45273390D02*
X127392666Y-45225771D01*
X127392666Y-45225771D02*
X127487904Y-45178152D01*
X127487904Y-45178152D02*
X127678380Y-45178152D01*
X127678380Y-45178152D02*
X127773618Y-45225771D01*
X128249809Y-45844819D02*
X128249809Y-45178152D01*
X128249809Y-44844819D02*
X128202190Y-44892438D01*
X128202190Y-44892438D02*
X128249809Y-44940057D01*
X128249809Y-44940057D02*
X128297428Y-44892438D01*
X128297428Y-44892438D02*
X128249809Y-44844819D01*
X128249809Y-44844819D02*
X128249809Y-44940057D01*
X128583142Y-45178152D02*
X128964094Y-45178152D01*
X128725999Y-44844819D02*
X128725999Y-45701961D01*
X128725999Y-45701961D02*
X128773618Y-45797200D01*
X128773618Y-45797200D02*
X128868856Y-45844819D01*
X128868856Y-45844819D02*
X128964094Y-45844819D01*
X129725999Y-45844819D02*
X129725999Y-45321009D01*
X129725999Y-45321009D02*
X129678380Y-45225771D01*
X129678380Y-45225771D02*
X129583142Y-45178152D01*
X129583142Y-45178152D02*
X129392666Y-45178152D01*
X129392666Y-45178152D02*
X129297428Y-45225771D01*
X129725999Y-45797200D02*
X129630761Y-45844819D01*
X129630761Y-45844819D02*
X129392666Y-45844819D01*
X129392666Y-45844819D02*
X129297428Y-45797200D01*
X129297428Y-45797200D02*
X129249809Y-45701961D01*
X129249809Y-45701961D02*
X129249809Y-45606723D01*
X129249809Y-45606723D02*
X129297428Y-45511485D01*
X129297428Y-45511485D02*
X129392666Y-45463866D01*
X129392666Y-45463866D02*
X129630761Y-45463866D01*
X129630761Y-45463866D02*
X129725999Y-45416247D01*
X130345047Y-45844819D02*
X130249809Y-45797200D01*
X130249809Y-45797200D02*
X130202190Y-45701961D01*
X130202190Y-45701961D02*
X130202190Y-44844819D01*
X131440285Y-44797200D02*
X130583143Y-46082914D01*
X131773619Y-45844819D02*
X131773619Y-44844819D01*
X131773619Y-44844819D02*
X132154571Y-44844819D01*
X132154571Y-44844819D02*
X132249809Y-44892438D01*
X132249809Y-44892438D02*
X132297428Y-44940057D01*
X132297428Y-44940057D02*
X132345047Y-45035295D01*
X132345047Y-45035295D02*
X132345047Y-45178152D01*
X132345047Y-45178152D02*
X132297428Y-45273390D01*
X132297428Y-45273390D02*
X132249809Y-45321009D01*
X132249809Y-45321009D02*
X132154571Y-45368628D01*
X132154571Y-45368628D02*
X131773619Y-45368628D01*
X132678381Y-44844819D02*
X132916476Y-45844819D01*
X132916476Y-45844819D02*
X133106952Y-45130533D01*
X133106952Y-45130533D02*
X133297428Y-45844819D01*
X133297428Y-45844819D02*
X133535524Y-44844819D01*
X133916476Y-45844819D02*
X133916476Y-44844819D01*
X133916476Y-44844819D02*
X134249809Y-45559104D01*
X134249809Y-45559104D02*
X134583142Y-44844819D01*
X134583142Y-44844819D02*
X134583142Y-45844819D01*
X118462666Y-44844819D02*
X118462666Y-45559104D01*
X118462666Y-45559104D02*
X118415047Y-45701961D01*
X118415047Y-45701961D02*
X118319809Y-45797200D01*
X118319809Y-45797200D02*
X118176952Y-45844819D01*
X118176952Y-45844819D02*
X118081714Y-45844819D01*
X118891238Y-44940057D02*
X118938857Y-44892438D01*
X118938857Y-44892438D02*
X119034095Y-44844819D01*
X119034095Y-44844819D02*
X119272190Y-44844819D01*
X119272190Y-44844819D02*
X119367428Y-44892438D01*
X119367428Y-44892438D02*
X119415047Y-44940057D01*
X119415047Y-44940057D02*
X119462666Y-45035295D01*
X119462666Y-45035295D02*
X119462666Y-45130533D01*
X119462666Y-45130533D02*
X119415047Y-45273390D01*
X119415047Y-45273390D02*
X118843619Y-45844819D01*
X118843619Y-45844819D02*
X119462666Y-45844819D01*
%TO.C,J4*%
X150252857Y-45844819D02*
X150252857Y-44844819D01*
X150252857Y-44844819D02*
X150490952Y-44844819D01*
X150490952Y-44844819D02*
X150633809Y-44892438D01*
X150633809Y-44892438D02*
X150729047Y-44987676D01*
X150729047Y-44987676D02*
X150776666Y-45082914D01*
X150776666Y-45082914D02*
X150824285Y-45273390D01*
X150824285Y-45273390D02*
X150824285Y-45416247D01*
X150824285Y-45416247D02*
X150776666Y-45606723D01*
X150776666Y-45606723D02*
X150729047Y-45701961D01*
X150729047Y-45701961D02*
X150633809Y-45797200D01*
X150633809Y-45797200D02*
X150490952Y-45844819D01*
X150490952Y-45844819D02*
X150252857Y-45844819D01*
X151252857Y-45844819D02*
X151252857Y-45178152D01*
X151252857Y-44844819D02*
X151205238Y-44892438D01*
X151205238Y-44892438D02*
X151252857Y-44940057D01*
X151252857Y-44940057D02*
X151300476Y-44892438D01*
X151300476Y-44892438D02*
X151252857Y-44844819D01*
X151252857Y-44844819D02*
X151252857Y-44940057D01*
X152157618Y-45178152D02*
X152157618Y-45987676D01*
X152157618Y-45987676D02*
X152109999Y-46082914D01*
X152109999Y-46082914D02*
X152062380Y-46130533D01*
X152062380Y-46130533D02*
X151967142Y-46178152D01*
X151967142Y-46178152D02*
X151824285Y-46178152D01*
X151824285Y-46178152D02*
X151729047Y-46130533D01*
X152157618Y-45797200D02*
X152062380Y-45844819D01*
X152062380Y-45844819D02*
X151871904Y-45844819D01*
X151871904Y-45844819D02*
X151776666Y-45797200D01*
X151776666Y-45797200D02*
X151729047Y-45749580D01*
X151729047Y-45749580D02*
X151681428Y-45654342D01*
X151681428Y-45654342D02*
X151681428Y-45368628D01*
X151681428Y-45368628D02*
X151729047Y-45273390D01*
X151729047Y-45273390D02*
X151776666Y-45225771D01*
X151776666Y-45225771D02*
X151871904Y-45178152D01*
X151871904Y-45178152D02*
X152062380Y-45178152D01*
X152062380Y-45178152D02*
X152157618Y-45225771D01*
X152633809Y-45844819D02*
X152633809Y-45178152D01*
X152633809Y-44844819D02*
X152586190Y-44892438D01*
X152586190Y-44892438D02*
X152633809Y-44940057D01*
X152633809Y-44940057D02*
X152681428Y-44892438D01*
X152681428Y-44892438D02*
X152633809Y-44844819D01*
X152633809Y-44844819D02*
X152633809Y-44940057D01*
X152967142Y-45178152D02*
X153348094Y-45178152D01*
X153109999Y-44844819D02*
X153109999Y-45701961D01*
X153109999Y-45701961D02*
X153157618Y-45797200D01*
X153157618Y-45797200D02*
X153252856Y-45844819D01*
X153252856Y-45844819D02*
X153348094Y-45844819D01*
X154109999Y-45844819D02*
X154109999Y-45321009D01*
X154109999Y-45321009D02*
X154062380Y-45225771D01*
X154062380Y-45225771D02*
X153967142Y-45178152D01*
X153967142Y-45178152D02*
X153776666Y-45178152D01*
X153776666Y-45178152D02*
X153681428Y-45225771D01*
X154109999Y-45797200D02*
X154014761Y-45844819D01*
X154014761Y-45844819D02*
X153776666Y-45844819D01*
X153776666Y-45844819D02*
X153681428Y-45797200D01*
X153681428Y-45797200D02*
X153633809Y-45701961D01*
X153633809Y-45701961D02*
X153633809Y-45606723D01*
X153633809Y-45606723D02*
X153681428Y-45511485D01*
X153681428Y-45511485D02*
X153776666Y-45463866D01*
X153776666Y-45463866D02*
X154014761Y-45463866D01*
X154014761Y-45463866D02*
X154109999Y-45416247D01*
X154729047Y-45844819D02*
X154633809Y-45797200D01*
X154633809Y-45797200D02*
X154586190Y-45701961D01*
X154586190Y-45701961D02*
X154586190Y-44844819D01*
X155824285Y-44797200D02*
X154967143Y-46082914D01*
X156157619Y-45844819D02*
X156157619Y-44844819D01*
X156157619Y-44844819D02*
X156538571Y-44844819D01*
X156538571Y-44844819D02*
X156633809Y-44892438D01*
X156633809Y-44892438D02*
X156681428Y-44940057D01*
X156681428Y-44940057D02*
X156729047Y-45035295D01*
X156729047Y-45035295D02*
X156729047Y-45178152D01*
X156729047Y-45178152D02*
X156681428Y-45273390D01*
X156681428Y-45273390D02*
X156633809Y-45321009D01*
X156633809Y-45321009D02*
X156538571Y-45368628D01*
X156538571Y-45368628D02*
X156157619Y-45368628D01*
X157062381Y-44844819D02*
X157300476Y-45844819D01*
X157300476Y-45844819D02*
X157490952Y-45130533D01*
X157490952Y-45130533D02*
X157681428Y-45844819D01*
X157681428Y-45844819D02*
X157919524Y-44844819D01*
X158300476Y-45844819D02*
X158300476Y-44844819D01*
X158300476Y-44844819D02*
X158633809Y-45559104D01*
X158633809Y-45559104D02*
X158967142Y-44844819D01*
X158967142Y-44844819D02*
X158967142Y-45844819D01*
X145386666Y-44844819D02*
X145386666Y-45559104D01*
X145386666Y-45559104D02*
X145339047Y-45701961D01*
X145339047Y-45701961D02*
X145243809Y-45797200D01*
X145243809Y-45797200D02*
X145100952Y-45844819D01*
X145100952Y-45844819D02*
X145005714Y-45844819D01*
X146291428Y-45178152D02*
X146291428Y-45844819D01*
X146053333Y-44797200D02*
X145815238Y-45511485D01*
X145815238Y-45511485D02*
X146434285Y-45511485D01*
%TO.C,J6*%
X117207619Y-93685152D02*
X116207619Y-93685152D01*
X117160000Y-93256581D02*
X117207619Y-93113724D01*
X117207619Y-93113724D02*
X117207619Y-92875629D01*
X117207619Y-92875629D02*
X117160000Y-92780391D01*
X117160000Y-92780391D02*
X117112380Y-92732772D01*
X117112380Y-92732772D02*
X117017142Y-92685153D01*
X117017142Y-92685153D02*
X116921904Y-92685153D01*
X116921904Y-92685153D02*
X116826666Y-92732772D01*
X116826666Y-92732772D02*
X116779047Y-92780391D01*
X116779047Y-92780391D02*
X116731428Y-92875629D01*
X116731428Y-92875629D02*
X116683809Y-93066105D01*
X116683809Y-93066105D02*
X116636190Y-93161343D01*
X116636190Y-93161343D02*
X116588571Y-93208962D01*
X116588571Y-93208962D02*
X116493333Y-93256581D01*
X116493333Y-93256581D02*
X116398095Y-93256581D01*
X116398095Y-93256581D02*
X116302857Y-93208962D01*
X116302857Y-93208962D02*
X116255238Y-93161343D01*
X116255238Y-93161343D02*
X116207619Y-93066105D01*
X116207619Y-93066105D02*
X116207619Y-92828010D01*
X116207619Y-92828010D02*
X116255238Y-92685153D01*
X117207619Y-92256581D02*
X116207619Y-92256581D01*
X116207619Y-92256581D02*
X116207619Y-91875629D01*
X116207619Y-91875629D02*
X116255238Y-91780391D01*
X116255238Y-91780391D02*
X116302857Y-91732772D01*
X116302857Y-91732772D02*
X116398095Y-91685153D01*
X116398095Y-91685153D02*
X116540952Y-91685153D01*
X116540952Y-91685153D02*
X116636190Y-91732772D01*
X116636190Y-91732772D02*
X116683809Y-91780391D01*
X116683809Y-91780391D02*
X116731428Y-91875629D01*
X116731428Y-91875629D02*
X116731428Y-92256581D01*
X117207619Y-90494676D02*
X116207619Y-90494676D01*
X117207619Y-90066105D02*
X116683809Y-90066105D01*
X116683809Y-90066105D02*
X116588571Y-90113724D01*
X116588571Y-90113724D02*
X116540952Y-90208962D01*
X116540952Y-90208962D02*
X116540952Y-90351819D01*
X116540952Y-90351819D02*
X116588571Y-90447057D01*
X116588571Y-90447057D02*
X116636190Y-90494676D01*
X117160000Y-89208962D02*
X117207619Y-89304200D01*
X117207619Y-89304200D02*
X117207619Y-89494676D01*
X117207619Y-89494676D02*
X117160000Y-89589914D01*
X117160000Y-89589914D02*
X117064761Y-89637533D01*
X117064761Y-89637533D02*
X116683809Y-89637533D01*
X116683809Y-89637533D02*
X116588571Y-89589914D01*
X116588571Y-89589914D02*
X116540952Y-89494676D01*
X116540952Y-89494676D02*
X116540952Y-89304200D01*
X116540952Y-89304200D02*
X116588571Y-89208962D01*
X116588571Y-89208962D02*
X116683809Y-89161343D01*
X116683809Y-89161343D02*
X116779047Y-89161343D01*
X116779047Y-89161343D02*
X116874285Y-89637533D01*
X117207619Y-88304200D02*
X116683809Y-88304200D01*
X116683809Y-88304200D02*
X116588571Y-88351819D01*
X116588571Y-88351819D02*
X116540952Y-88447057D01*
X116540952Y-88447057D02*
X116540952Y-88637533D01*
X116540952Y-88637533D02*
X116588571Y-88732771D01*
X117160000Y-88304200D02*
X117207619Y-88399438D01*
X117207619Y-88399438D02*
X117207619Y-88637533D01*
X117207619Y-88637533D02*
X117160000Y-88732771D01*
X117160000Y-88732771D02*
X117064761Y-88780390D01*
X117064761Y-88780390D02*
X116969523Y-88780390D01*
X116969523Y-88780390D02*
X116874285Y-88732771D01*
X116874285Y-88732771D02*
X116826666Y-88637533D01*
X116826666Y-88637533D02*
X116826666Y-88399438D01*
X116826666Y-88399438D02*
X116779047Y-88304200D01*
X117207619Y-87399438D02*
X116207619Y-87399438D01*
X117160000Y-87399438D02*
X117207619Y-87494676D01*
X117207619Y-87494676D02*
X117207619Y-87685152D01*
X117207619Y-87685152D02*
X117160000Y-87780390D01*
X117160000Y-87780390D02*
X117112380Y-87828009D01*
X117112380Y-87828009D02*
X117017142Y-87875628D01*
X117017142Y-87875628D02*
X116731428Y-87875628D01*
X116731428Y-87875628D02*
X116636190Y-87828009D01*
X116636190Y-87828009D02*
X116588571Y-87780390D01*
X116588571Y-87780390D02*
X116540952Y-87685152D01*
X116540952Y-87685152D02*
X116540952Y-87494676D01*
X116540952Y-87494676D02*
X116588571Y-87399438D01*
X117160000Y-86542295D02*
X117207619Y-86637533D01*
X117207619Y-86637533D02*
X117207619Y-86828009D01*
X117207619Y-86828009D02*
X117160000Y-86923247D01*
X117160000Y-86923247D02*
X117064761Y-86970866D01*
X117064761Y-86970866D02*
X116683809Y-86970866D01*
X116683809Y-86970866D02*
X116588571Y-86923247D01*
X116588571Y-86923247D02*
X116540952Y-86828009D01*
X116540952Y-86828009D02*
X116540952Y-86637533D01*
X116540952Y-86637533D02*
X116588571Y-86542295D01*
X116588571Y-86542295D02*
X116683809Y-86494676D01*
X116683809Y-86494676D02*
X116779047Y-86494676D01*
X116779047Y-86494676D02*
X116874285Y-86970866D01*
X117207619Y-86066104D02*
X116540952Y-86066104D01*
X116731428Y-86066104D02*
X116636190Y-86018485D01*
X116636190Y-86018485D02*
X116588571Y-85970866D01*
X116588571Y-85970866D02*
X116540952Y-85875628D01*
X116540952Y-85875628D02*
X116540952Y-85780390D01*
X106387619Y-91712533D02*
X107101904Y-91712533D01*
X107101904Y-91712533D02*
X107244761Y-91760152D01*
X107244761Y-91760152D02*
X107340000Y-91855390D01*
X107340000Y-91855390D02*
X107387619Y-91998247D01*
X107387619Y-91998247D02*
X107387619Y-92093485D01*
X106387619Y-90807771D02*
X106387619Y-90998247D01*
X106387619Y-90998247D02*
X106435238Y-91093485D01*
X106435238Y-91093485D02*
X106482857Y-91141104D01*
X106482857Y-91141104D02*
X106625714Y-91236342D01*
X106625714Y-91236342D02*
X106816190Y-91283961D01*
X106816190Y-91283961D02*
X107197142Y-91283961D01*
X107197142Y-91283961D02*
X107292380Y-91236342D01*
X107292380Y-91236342D02*
X107340000Y-91188723D01*
X107340000Y-91188723D02*
X107387619Y-91093485D01*
X107387619Y-91093485D02*
X107387619Y-90903009D01*
X107387619Y-90903009D02*
X107340000Y-90807771D01*
X107340000Y-90807771D02*
X107292380Y-90760152D01*
X107292380Y-90760152D02*
X107197142Y-90712533D01*
X107197142Y-90712533D02*
X106959047Y-90712533D01*
X106959047Y-90712533D02*
X106863809Y-90760152D01*
X106863809Y-90760152D02*
X106816190Y-90807771D01*
X106816190Y-90807771D02*
X106768571Y-90903009D01*
X106768571Y-90903009D02*
X106768571Y-91093485D01*
X106768571Y-91093485D02*
X106816190Y-91188723D01*
X106816190Y-91188723D02*
X106863809Y-91236342D01*
X106863809Y-91236342D02*
X106959047Y-91283961D01*
%TO.C,D9*%
X118010476Y-101112819D02*
X118010476Y-100112819D01*
X118010476Y-100112819D02*
X118391428Y-100112819D01*
X118391428Y-100112819D02*
X118486666Y-100160438D01*
X118486666Y-100160438D02*
X118534285Y-100208057D01*
X118534285Y-100208057D02*
X118581904Y-100303295D01*
X118581904Y-100303295D02*
X118581904Y-100446152D01*
X118581904Y-100446152D02*
X118534285Y-100541390D01*
X118534285Y-100541390D02*
X118486666Y-100589009D01*
X118486666Y-100589009D02*
X118391428Y-100636628D01*
X118391428Y-100636628D02*
X118010476Y-100636628D01*
X119200952Y-100112819D02*
X119391428Y-100112819D01*
X119391428Y-100112819D02*
X119486666Y-100160438D01*
X119486666Y-100160438D02*
X119581904Y-100255676D01*
X119581904Y-100255676D02*
X119629523Y-100446152D01*
X119629523Y-100446152D02*
X119629523Y-100779485D01*
X119629523Y-100779485D02*
X119581904Y-100969961D01*
X119581904Y-100969961D02*
X119486666Y-101065200D01*
X119486666Y-101065200D02*
X119391428Y-101112819D01*
X119391428Y-101112819D02*
X119200952Y-101112819D01*
X119200952Y-101112819D02*
X119105714Y-101065200D01*
X119105714Y-101065200D02*
X119010476Y-100969961D01*
X119010476Y-100969961D02*
X118962857Y-100779485D01*
X118962857Y-100779485D02*
X118962857Y-100446152D01*
X118962857Y-100446152D02*
X119010476Y-100255676D01*
X119010476Y-100255676D02*
X119105714Y-100160438D01*
X119105714Y-100160438D02*
X119200952Y-100112819D01*
X119962857Y-100112819D02*
X120200952Y-101112819D01*
X120200952Y-101112819D02*
X120391428Y-100398533D01*
X120391428Y-100398533D02*
X120581904Y-101112819D01*
X120581904Y-101112819D02*
X120820000Y-100112819D01*
X121200952Y-100589009D02*
X121534285Y-100589009D01*
X121677142Y-101112819D02*
X121200952Y-101112819D01*
X121200952Y-101112819D02*
X121200952Y-100112819D01*
X121200952Y-100112819D02*
X121677142Y-100112819D01*
X122677142Y-101112819D02*
X122343809Y-100636628D01*
X122105714Y-101112819D02*
X122105714Y-100112819D01*
X122105714Y-100112819D02*
X122486666Y-100112819D01*
X122486666Y-100112819D02*
X122581904Y-100160438D01*
X122581904Y-100160438D02*
X122629523Y-100208057D01*
X122629523Y-100208057D02*
X122677142Y-100303295D01*
X122677142Y-100303295D02*
X122677142Y-100446152D01*
X122677142Y-100446152D02*
X122629523Y-100541390D01*
X122629523Y-100541390D02*
X122581904Y-100589009D01*
X122581904Y-100589009D02*
X122486666Y-100636628D01*
X122486666Y-100636628D02*
X122105714Y-100636628D01*
D11*
X119709524Y-97057695D02*
X119709524Y-96257695D01*
X119709524Y-96257695D02*
X119900000Y-96257695D01*
X119900000Y-96257695D02*
X120014286Y-96295790D01*
X120014286Y-96295790D02*
X120090476Y-96371980D01*
X120090476Y-96371980D02*
X120128571Y-96448171D01*
X120128571Y-96448171D02*
X120166667Y-96600552D01*
X120166667Y-96600552D02*
X120166667Y-96714838D01*
X120166667Y-96714838D02*
X120128571Y-96867219D01*
X120128571Y-96867219D02*
X120090476Y-96943409D01*
X120090476Y-96943409D02*
X120014286Y-97019600D01*
X120014286Y-97019600D02*
X119900000Y-97057695D01*
X119900000Y-97057695D02*
X119709524Y-97057695D01*
X120547619Y-97057695D02*
X120700000Y-97057695D01*
X120700000Y-97057695D02*
X120776190Y-97019600D01*
X120776190Y-97019600D02*
X120814286Y-96981504D01*
X120814286Y-96981504D02*
X120890476Y-96867219D01*
X120890476Y-96867219D02*
X120928571Y-96714838D01*
X120928571Y-96714838D02*
X120928571Y-96410076D01*
X120928571Y-96410076D02*
X120890476Y-96333885D01*
X120890476Y-96333885D02*
X120852381Y-96295790D01*
X120852381Y-96295790D02*
X120776190Y-96257695D01*
X120776190Y-96257695D02*
X120623809Y-96257695D01*
X120623809Y-96257695D02*
X120547619Y-96295790D01*
X120547619Y-96295790D02*
X120509524Y-96333885D01*
X120509524Y-96333885D02*
X120471428Y-96410076D01*
X120471428Y-96410076D02*
X120471428Y-96600552D01*
X120471428Y-96600552D02*
X120509524Y-96676742D01*
X120509524Y-96676742D02*
X120547619Y-96714838D01*
X120547619Y-96714838D02*
X120623809Y-96752933D01*
X120623809Y-96752933D02*
X120776190Y-96752933D01*
X120776190Y-96752933D02*
X120852381Y-96714838D01*
X120852381Y-96714838D02*
X120890476Y-96676742D01*
X120890476Y-96676742D02*
X120928571Y-96600552D01*
D10*
%TO.C,SW1*%
X140743714Y-72003200D02*
X140886571Y-72050819D01*
X140886571Y-72050819D02*
X141124666Y-72050819D01*
X141124666Y-72050819D02*
X141219904Y-72003200D01*
X141219904Y-72003200D02*
X141267523Y-71955580D01*
X141267523Y-71955580D02*
X141315142Y-71860342D01*
X141315142Y-71860342D02*
X141315142Y-71765104D01*
X141315142Y-71765104D02*
X141267523Y-71669866D01*
X141267523Y-71669866D02*
X141219904Y-71622247D01*
X141219904Y-71622247D02*
X141124666Y-71574628D01*
X141124666Y-71574628D02*
X140934190Y-71527009D01*
X140934190Y-71527009D02*
X140838952Y-71479390D01*
X140838952Y-71479390D02*
X140791333Y-71431771D01*
X140791333Y-71431771D02*
X140743714Y-71336533D01*
X140743714Y-71336533D02*
X140743714Y-71241295D01*
X140743714Y-71241295D02*
X140791333Y-71146057D01*
X140791333Y-71146057D02*
X140838952Y-71098438D01*
X140838952Y-71098438D02*
X140934190Y-71050819D01*
X140934190Y-71050819D02*
X141172285Y-71050819D01*
X141172285Y-71050819D02*
X141315142Y-71098438D01*
X141648476Y-71050819D02*
X141886571Y-72050819D01*
X141886571Y-72050819D02*
X142077047Y-71336533D01*
X142077047Y-71336533D02*
X142267523Y-72050819D01*
X142267523Y-72050819D02*
X142505619Y-71050819D01*
X142648476Y-72146057D02*
X143410380Y-72146057D01*
X143648476Y-72050819D02*
X143648476Y-71050819D01*
X143648476Y-71050819D02*
X143886571Y-71050819D01*
X143886571Y-71050819D02*
X144029428Y-71098438D01*
X144029428Y-71098438D02*
X144124666Y-71193676D01*
X144124666Y-71193676D02*
X144172285Y-71288914D01*
X144172285Y-71288914D02*
X144219904Y-71479390D01*
X144219904Y-71479390D02*
X144219904Y-71622247D01*
X144219904Y-71622247D02*
X144172285Y-71812723D01*
X144172285Y-71812723D02*
X144124666Y-71907961D01*
X144124666Y-71907961D02*
X144029428Y-72003200D01*
X144029428Y-72003200D02*
X143886571Y-72050819D01*
X143886571Y-72050819D02*
X143648476Y-72050819D01*
X144648476Y-72050819D02*
X144648476Y-71050819D01*
X145124666Y-72050819D02*
X145124666Y-71050819D01*
X145124666Y-71050819D02*
X145505618Y-71050819D01*
X145505618Y-71050819D02*
X145600856Y-71098438D01*
X145600856Y-71098438D02*
X145648475Y-71146057D01*
X145648475Y-71146057D02*
X145696094Y-71241295D01*
X145696094Y-71241295D02*
X145696094Y-71384152D01*
X145696094Y-71384152D02*
X145648475Y-71479390D01*
X145648475Y-71479390D02*
X145600856Y-71527009D01*
X145600856Y-71527009D02*
X145505618Y-71574628D01*
X145505618Y-71574628D02*
X145124666Y-71574628D01*
X145886571Y-72146057D02*
X146648475Y-72146057D01*
X146791333Y-72050819D02*
X147315142Y-71384152D01*
X146791333Y-71384152D02*
X147315142Y-72050819D01*
X147886571Y-71050819D02*
X147981809Y-71050819D01*
X147981809Y-71050819D02*
X148077047Y-71098438D01*
X148077047Y-71098438D02*
X148124666Y-71146057D01*
X148124666Y-71146057D02*
X148172285Y-71241295D01*
X148172285Y-71241295D02*
X148219904Y-71431771D01*
X148219904Y-71431771D02*
X148219904Y-71669866D01*
X148219904Y-71669866D02*
X148172285Y-71860342D01*
X148172285Y-71860342D02*
X148124666Y-71955580D01*
X148124666Y-71955580D02*
X148077047Y-72003200D01*
X148077047Y-72003200D02*
X147981809Y-72050819D01*
X147981809Y-72050819D02*
X147886571Y-72050819D01*
X147886571Y-72050819D02*
X147791333Y-72003200D01*
X147791333Y-72003200D02*
X147743714Y-71955580D01*
X147743714Y-71955580D02*
X147696095Y-71860342D01*
X147696095Y-71860342D02*
X147648476Y-71669866D01*
X147648476Y-71669866D02*
X147648476Y-71431771D01*
X147648476Y-71431771D02*
X147696095Y-71241295D01*
X147696095Y-71241295D02*
X147743714Y-71146057D01*
X147743714Y-71146057D02*
X147791333Y-71098438D01*
X147791333Y-71098438D02*
X147886571Y-71050819D01*
X148600857Y-71146057D02*
X148648476Y-71098438D01*
X148648476Y-71098438D02*
X148743714Y-71050819D01*
X148743714Y-71050819D02*
X148981809Y-71050819D01*
X148981809Y-71050819D02*
X149077047Y-71098438D01*
X149077047Y-71098438D02*
X149124666Y-71146057D01*
X149124666Y-71146057D02*
X149172285Y-71241295D01*
X149172285Y-71241295D02*
X149172285Y-71336533D01*
X149172285Y-71336533D02*
X149124666Y-71479390D01*
X149124666Y-71479390D02*
X148553238Y-72050819D01*
X148553238Y-72050819D02*
X149172285Y-72050819D01*
X143624667Y-68403200D02*
X143767524Y-68450819D01*
X143767524Y-68450819D02*
X144005619Y-68450819D01*
X144005619Y-68450819D02*
X144100857Y-68403200D01*
X144100857Y-68403200D02*
X144148476Y-68355580D01*
X144148476Y-68355580D02*
X144196095Y-68260342D01*
X144196095Y-68260342D02*
X144196095Y-68165104D01*
X144196095Y-68165104D02*
X144148476Y-68069866D01*
X144148476Y-68069866D02*
X144100857Y-68022247D01*
X144100857Y-68022247D02*
X144005619Y-67974628D01*
X144005619Y-67974628D02*
X143815143Y-67927009D01*
X143815143Y-67927009D02*
X143719905Y-67879390D01*
X143719905Y-67879390D02*
X143672286Y-67831771D01*
X143672286Y-67831771D02*
X143624667Y-67736533D01*
X143624667Y-67736533D02*
X143624667Y-67641295D01*
X143624667Y-67641295D02*
X143672286Y-67546057D01*
X143672286Y-67546057D02*
X143719905Y-67498438D01*
X143719905Y-67498438D02*
X143815143Y-67450819D01*
X143815143Y-67450819D02*
X144053238Y-67450819D01*
X144053238Y-67450819D02*
X144196095Y-67498438D01*
X144529429Y-67450819D02*
X144767524Y-68450819D01*
X144767524Y-68450819D02*
X144958000Y-67736533D01*
X144958000Y-67736533D02*
X145148476Y-68450819D01*
X145148476Y-68450819D02*
X145386572Y-67450819D01*
X146291333Y-68450819D02*
X145719905Y-68450819D01*
X146005619Y-68450819D02*
X146005619Y-67450819D01*
X146005619Y-67450819D02*
X145910381Y-67593676D01*
X145910381Y-67593676D02*
X145815143Y-67688914D01*
X145815143Y-67688914D02*
X145719905Y-67736533D01*
%TO.C,RN1*%
X148879618Y-66278819D02*
X148546285Y-65802628D01*
X148308190Y-66278819D02*
X148308190Y-65278819D01*
X148308190Y-65278819D02*
X148689142Y-65278819D01*
X148689142Y-65278819D02*
X148784380Y-65326438D01*
X148784380Y-65326438D02*
X148831999Y-65374057D01*
X148831999Y-65374057D02*
X148879618Y-65469295D01*
X148879618Y-65469295D02*
X148879618Y-65612152D01*
X148879618Y-65612152D02*
X148831999Y-65707390D01*
X148831999Y-65707390D02*
X148784380Y-65755009D01*
X148784380Y-65755009D02*
X148689142Y-65802628D01*
X148689142Y-65802628D02*
X148308190Y-65802628D01*
X149070095Y-66374057D02*
X149831999Y-66374057D01*
X150070095Y-66278819D02*
X150070095Y-65278819D01*
X150070095Y-65278819D02*
X150641523Y-66278819D01*
X150641523Y-66278819D02*
X150641523Y-65278819D01*
X151498666Y-66231200D02*
X151403428Y-66278819D01*
X151403428Y-66278819D02*
X151212952Y-66278819D01*
X151212952Y-66278819D02*
X151117714Y-66231200D01*
X151117714Y-66231200D02*
X151070095Y-66135961D01*
X151070095Y-66135961D02*
X151070095Y-65755009D01*
X151070095Y-65755009D02*
X151117714Y-65659771D01*
X151117714Y-65659771D02*
X151212952Y-65612152D01*
X151212952Y-65612152D02*
X151403428Y-65612152D01*
X151403428Y-65612152D02*
X151498666Y-65659771D01*
X151498666Y-65659771D02*
X151546285Y-65755009D01*
X151546285Y-65755009D02*
X151546285Y-65850247D01*
X151546285Y-65850247D02*
X151070095Y-65945485D01*
X151832000Y-65612152D02*
X152212952Y-65612152D01*
X151974857Y-65278819D02*
X151974857Y-66135961D01*
X151974857Y-66135961D02*
X152022476Y-66231200D01*
X152022476Y-66231200D02*
X152117714Y-66278819D01*
X152117714Y-66278819D02*
X152212952Y-66278819D01*
X152451048Y-65612152D02*
X152641524Y-66278819D01*
X152641524Y-66278819D02*
X152832000Y-65802628D01*
X152832000Y-65802628D02*
X153022476Y-66278819D01*
X153022476Y-66278819D02*
X153212952Y-65612152D01*
X153736762Y-66278819D02*
X153641524Y-66231200D01*
X153641524Y-66231200D02*
X153593905Y-66183580D01*
X153593905Y-66183580D02*
X153546286Y-66088342D01*
X153546286Y-66088342D02*
X153546286Y-65802628D01*
X153546286Y-65802628D02*
X153593905Y-65707390D01*
X153593905Y-65707390D02*
X153641524Y-65659771D01*
X153641524Y-65659771D02*
X153736762Y-65612152D01*
X153736762Y-65612152D02*
X153879619Y-65612152D01*
X153879619Y-65612152D02*
X153974857Y-65659771D01*
X153974857Y-65659771D02*
X154022476Y-65707390D01*
X154022476Y-65707390D02*
X154070095Y-65802628D01*
X154070095Y-65802628D02*
X154070095Y-66088342D01*
X154070095Y-66088342D02*
X154022476Y-66183580D01*
X154022476Y-66183580D02*
X153974857Y-66231200D01*
X153974857Y-66231200D02*
X153879619Y-66278819D01*
X153879619Y-66278819D02*
X153736762Y-66278819D01*
X154498667Y-66278819D02*
X154498667Y-65612152D01*
X154498667Y-65802628D02*
X154546286Y-65707390D01*
X154546286Y-65707390D02*
X154593905Y-65659771D01*
X154593905Y-65659771D02*
X154689143Y-65612152D01*
X154689143Y-65612152D02*
X154784381Y-65612152D01*
X155117715Y-66278819D02*
X155117715Y-65278819D01*
X155212953Y-65897866D02*
X155498667Y-66278819D01*
X155498667Y-65612152D02*
X155117715Y-65993104D01*
X156117715Y-65278819D02*
X156212953Y-65278819D01*
X156212953Y-65278819D02*
X156308191Y-65326438D01*
X156308191Y-65326438D02*
X156355810Y-65374057D01*
X156355810Y-65374057D02*
X156403429Y-65469295D01*
X156403429Y-65469295D02*
X156451048Y-65659771D01*
X156451048Y-65659771D02*
X156451048Y-65897866D01*
X156451048Y-65897866D02*
X156403429Y-66088342D01*
X156403429Y-66088342D02*
X156355810Y-66183580D01*
X156355810Y-66183580D02*
X156308191Y-66231200D01*
X156308191Y-66231200D02*
X156212953Y-66278819D01*
X156212953Y-66278819D02*
X156117715Y-66278819D01*
X156117715Y-66278819D02*
X156022477Y-66231200D01*
X156022477Y-66231200D02*
X155974858Y-66183580D01*
X155974858Y-66183580D02*
X155927239Y-66088342D01*
X155927239Y-66088342D02*
X155879620Y-65897866D01*
X155879620Y-65897866D02*
X155879620Y-65659771D01*
X155879620Y-65659771D02*
X155927239Y-65469295D01*
X155927239Y-65469295D02*
X155974858Y-65374057D01*
X155974858Y-65374057D02*
X156022477Y-65326438D01*
X156022477Y-65326438D02*
X156117715Y-65278819D01*
X157022477Y-65707390D02*
X156927239Y-65659771D01*
X156927239Y-65659771D02*
X156879620Y-65612152D01*
X156879620Y-65612152D02*
X156832001Y-65516914D01*
X156832001Y-65516914D02*
X156832001Y-65469295D01*
X156832001Y-65469295D02*
X156879620Y-65374057D01*
X156879620Y-65374057D02*
X156927239Y-65326438D01*
X156927239Y-65326438D02*
X157022477Y-65278819D01*
X157022477Y-65278819D02*
X157212953Y-65278819D01*
X157212953Y-65278819D02*
X157308191Y-65326438D01*
X157308191Y-65326438D02*
X157355810Y-65374057D01*
X157355810Y-65374057D02*
X157403429Y-65469295D01*
X157403429Y-65469295D02*
X157403429Y-65516914D01*
X157403429Y-65516914D02*
X157355810Y-65612152D01*
X157355810Y-65612152D02*
X157308191Y-65659771D01*
X157308191Y-65659771D02*
X157212953Y-65707390D01*
X157212953Y-65707390D02*
X157022477Y-65707390D01*
X157022477Y-65707390D02*
X156927239Y-65755009D01*
X156927239Y-65755009D02*
X156879620Y-65802628D01*
X156879620Y-65802628D02*
X156832001Y-65897866D01*
X156832001Y-65897866D02*
X156832001Y-66088342D01*
X156832001Y-66088342D02*
X156879620Y-66183580D01*
X156879620Y-66183580D02*
X156927239Y-66231200D01*
X156927239Y-66231200D02*
X157022477Y-66278819D01*
X157022477Y-66278819D02*
X157212953Y-66278819D01*
X157212953Y-66278819D02*
X157308191Y-66231200D01*
X157308191Y-66231200D02*
X157355810Y-66183580D01*
X157355810Y-66183580D02*
X157403429Y-66088342D01*
X157403429Y-66088342D02*
X157403429Y-65897866D01*
X157403429Y-65897866D02*
X157355810Y-65802628D01*
X157355810Y-65802628D02*
X157308191Y-65755009D01*
X157308191Y-65755009D02*
X157212953Y-65707390D01*
X150871523Y-63878819D02*
X150538190Y-63402628D01*
X150300095Y-63878819D02*
X150300095Y-62878819D01*
X150300095Y-62878819D02*
X150681047Y-62878819D01*
X150681047Y-62878819D02*
X150776285Y-62926438D01*
X150776285Y-62926438D02*
X150823904Y-62974057D01*
X150823904Y-62974057D02*
X150871523Y-63069295D01*
X150871523Y-63069295D02*
X150871523Y-63212152D01*
X150871523Y-63212152D02*
X150823904Y-63307390D01*
X150823904Y-63307390D02*
X150776285Y-63355009D01*
X150776285Y-63355009D02*
X150681047Y-63402628D01*
X150681047Y-63402628D02*
X150300095Y-63402628D01*
X151300095Y-63878819D02*
X151300095Y-62878819D01*
X151300095Y-62878819D02*
X151871523Y-63878819D01*
X151871523Y-63878819D02*
X151871523Y-62878819D01*
X152871523Y-63878819D02*
X152300095Y-63878819D01*
X152585809Y-63878819D02*
X152585809Y-62878819D01*
X152585809Y-62878819D02*
X152490571Y-63021676D01*
X152490571Y-63021676D02*
X152395333Y-63116914D01*
X152395333Y-63116914D02*
X152300095Y-63164533D01*
%TO.C,C2*%
X110904743Y-80764857D02*
X110952362Y-80717238D01*
X110952362Y-80717238D02*
X111047600Y-80669619D01*
X111047600Y-80669619D02*
X111285695Y-80669619D01*
X111285695Y-80669619D02*
X111380933Y-80717238D01*
X111380933Y-80717238D02*
X111428552Y-80764857D01*
X111428552Y-80764857D02*
X111476171Y-80860095D01*
X111476171Y-80860095D02*
X111476171Y-80955333D01*
X111476171Y-80955333D02*
X111428552Y-81098190D01*
X111428552Y-81098190D02*
X110857124Y-81669619D01*
X110857124Y-81669619D02*
X111476171Y-81669619D01*
X111857124Y-80764857D02*
X111904743Y-80717238D01*
X111904743Y-80717238D02*
X111999981Y-80669619D01*
X111999981Y-80669619D02*
X112238076Y-80669619D01*
X112238076Y-80669619D02*
X112333314Y-80717238D01*
X112333314Y-80717238D02*
X112380933Y-80764857D01*
X112380933Y-80764857D02*
X112428552Y-80860095D01*
X112428552Y-80860095D02*
X112428552Y-80955333D01*
X112428552Y-80955333D02*
X112380933Y-81098190D01*
X112380933Y-81098190D02*
X111809505Y-81669619D01*
X111809505Y-81669619D02*
X112428552Y-81669619D01*
X112857124Y-81002952D02*
X112857124Y-82002952D01*
X112857124Y-81050571D02*
X112952362Y-81002952D01*
X112952362Y-81002952D02*
X113142838Y-81002952D01*
X113142838Y-81002952D02*
X113238076Y-81050571D01*
X113238076Y-81050571D02*
X113285695Y-81098190D01*
X113285695Y-81098190D02*
X113333314Y-81193428D01*
X113333314Y-81193428D02*
X113333314Y-81479142D01*
X113333314Y-81479142D02*
X113285695Y-81574380D01*
X113285695Y-81574380D02*
X113238076Y-81622000D01*
X113238076Y-81622000D02*
X113142838Y-81669619D01*
X113142838Y-81669619D02*
X112952362Y-81669619D01*
X112952362Y-81669619D02*
X112857124Y-81622000D01*
X114095219Y-81145809D02*
X113761886Y-81145809D01*
X113761886Y-81669619D02*
X113761886Y-80669619D01*
X113761886Y-80669619D02*
X114238076Y-80669619D01*
X112907180Y-77591466D02*
X112954800Y-77639085D01*
X112954800Y-77639085D02*
X113002419Y-77781942D01*
X113002419Y-77781942D02*
X113002419Y-77877180D01*
X113002419Y-77877180D02*
X112954800Y-78020037D01*
X112954800Y-78020037D02*
X112859561Y-78115275D01*
X112859561Y-78115275D02*
X112764323Y-78162894D01*
X112764323Y-78162894D02*
X112573847Y-78210513D01*
X112573847Y-78210513D02*
X112430990Y-78210513D01*
X112430990Y-78210513D02*
X112240514Y-78162894D01*
X112240514Y-78162894D02*
X112145276Y-78115275D01*
X112145276Y-78115275D02*
X112050038Y-78020037D01*
X112050038Y-78020037D02*
X112002419Y-77877180D01*
X112002419Y-77877180D02*
X112002419Y-77781942D01*
X112002419Y-77781942D02*
X112050038Y-77639085D01*
X112050038Y-77639085D02*
X112097657Y-77591466D01*
X112097657Y-77210513D02*
X112050038Y-77162894D01*
X112050038Y-77162894D02*
X112002419Y-77067656D01*
X112002419Y-77067656D02*
X112002419Y-76829561D01*
X112002419Y-76829561D02*
X112050038Y-76734323D01*
X112050038Y-76734323D02*
X112097657Y-76686704D01*
X112097657Y-76686704D02*
X112192895Y-76639085D01*
X112192895Y-76639085D02*
X112288133Y-76639085D01*
X112288133Y-76639085D02*
X112430990Y-76686704D01*
X112430990Y-76686704D02*
X113002419Y-77258132D01*
X113002419Y-77258132D02*
X113002419Y-76639085D01*
%TO.C,C3*%
X104497580Y-73135219D02*
X103926152Y-73135219D01*
X104211866Y-73135219D02*
X104211866Y-72135219D01*
X104211866Y-72135219D02*
X104116628Y-72278076D01*
X104116628Y-72278076D02*
X104021390Y-72373314D01*
X104021390Y-72373314D02*
X103926152Y-72420933D01*
X105116628Y-72135219D02*
X105211866Y-72135219D01*
X105211866Y-72135219D02*
X105307104Y-72182838D01*
X105307104Y-72182838D02*
X105354723Y-72230457D01*
X105354723Y-72230457D02*
X105402342Y-72325695D01*
X105402342Y-72325695D02*
X105449961Y-72516171D01*
X105449961Y-72516171D02*
X105449961Y-72754266D01*
X105449961Y-72754266D02*
X105402342Y-72944742D01*
X105402342Y-72944742D02*
X105354723Y-73039980D01*
X105354723Y-73039980D02*
X105307104Y-73087600D01*
X105307104Y-73087600D02*
X105211866Y-73135219D01*
X105211866Y-73135219D02*
X105116628Y-73135219D01*
X105116628Y-73135219D02*
X105021390Y-73087600D01*
X105021390Y-73087600D02*
X104973771Y-73039980D01*
X104973771Y-73039980D02*
X104926152Y-72944742D01*
X104926152Y-72944742D02*
X104878533Y-72754266D01*
X104878533Y-72754266D02*
X104878533Y-72516171D01*
X104878533Y-72516171D02*
X104926152Y-72325695D01*
X104926152Y-72325695D02*
X104973771Y-72230457D01*
X104973771Y-72230457D02*
X105021390Y-72182838D01*
X105021390Y-72182838D02*
X105116628Y-72135219D01*
X106069009Y-72135219D02*
X106164247Y-72135219D01*
X106164247Y-72135219D02*
X106259485Y-72182838D01*
X106259485Y-72182838D02*
X106307104Y-72230457D01*
X106307104Y-72230457D02*
X106354723Y-72325695D01*
X106354723Y-72325695D02*
X106402342Y-72516171D01*
X106402342Y-72516171D02*
X106402342Y-72754266D01*
X106402342Y-72754266D02*
X106354723Y-72944742D01*
X106354723Y-72944742D02*
X106307104Y-73039980D01*
X106307104Y-73039980D02*
X106259485Y-73087600D01*
X106259485Y-73087600D02*
X106164247Y-73135219D01*
X106164247Y-73135219D02*
X106069009Y-73135219D01*
X106069009Y-73135219D02*
X105973771Y-73087600D01*
X105973771Y-73087600D02*
X105926152Y-73039980D01*
X105926152Y-73039980D02*
X105878533Y-72944742D01*
X105878533Y-72944742D02*
X105830914Y-72754266D01*
X105830914Y-72754266D02*
X105830914Y-72516171D01*
X105830914Y-72516171D02*
X105878533Y-72325695D01*
X105878533Y-72325695D02*
X105926152Y-72230457D01*
X105926152Y-72230457D02*
X105973771Y-72182838D01*
X105973771Y-72182838D02*
X106069009Y-72135219D01*
X106830914Y-72468552D02*
X106830914Y-73135219D01*
X106830914Y-72563790D02*
X106878533Y-72516171D01*
X106878533Y-72516171D02*
X106973771Y-72468552D01*
X106973771Y-72468552D02*
X107116628Y-72468552D01*
X107116628Y-72468552D02*
X107211866Y-72516171D01*
X107211866Y-72516171D02*
X107259485Y-72611409D01*
X107259485Y-72611409D02*
X107259485Y-73135219D01*
X108069009Y-72611409D02*
X107735676Y-72611409D01*
X107735676Y-73135219D02*
X107735676Y-72135219D01*
X107735676Y-72135219D02*
X108211866Y-72135219D01*
X105878533Y-70539980D02*
X105830914Y-70587600D01*
X105830914Y-70587600D02*
X105688057Y-70635219D01*
X105688057Y-70635219D02*
X105592819Y-70635219D01*
X105592819Y-70635219D02*
X105449962Y-70587600D01*
X105449962Y-70587600D02*
X105354724Y-70492361D01*
X105354724Y-70492361D02*
X105307105Y-70397123D01*
X105307105Y-70397123D02*
X105259486Y-70206647D01*
X105259486Y-70206647D02*
X105259486Y-70063790D01*
X105259486Y-70063790D02*
X105307105Y-69873314D01*
X105307105Y-69873314D02*
X105354724Y-69778076D01*
X105354724Y-69778076D02*
X105449962Y-69682838D01*
X105449962Y-69682838D02*
X105592819Y-69635219D01*
X105592819Y-69635219D02*
X105688057Y-69635219D01*
X105688057Y-69635219D02*
X105830914Y-69682838D01*
X105830914Y-69682838D02*
X105878533Y-69730457D01*
X106211867Y-69635219D02*
X106830914Y-69635219D01*
X106830914Y-69635219D02*
X106497581Y-70016171D01*
X106497581Y-70016171D02*
X106640438Y-70016171D01*
X106640438Y-70016171D02*
X106735676Y-70063790D01*
X106735676Y-70063790D02*
X106783295Y-70111409D01*
X106783295Y-70111409D02*
X106830914Y-70206647D01*
X106830914Y-70206647D02*
X106830914Y-70444742D01*
X106830914Y-70444742D02*
X106783295Y-70539980D01*
X106783295Y-70539980D02*
X106735676Y-70587600D01*
X106735676Y-70587600D02*
X106640438Y-70635219D01*
X106640438Y-70635219D02*
X106354724Y-70635219D01*
X106354724Y-70635219D02*
X106259486Y-70587600D01*
X106259486Y-70587600D02*
X106211867Y-70539980D01*
%TO.C,Y1*%
X116050419Y-75865847D02*
X116050419Y-76437275D01*
X116050419Y-76151561D02*
X115050419Y-76151561D01*
X115050419Y-76151561D02*
X115193276Y-76246799D01*
X115193276Y-76246799D02*
X115288514Y-76342037D01*
X115288514Y-76342037D02*
X115336133Y-76437275D01*
X115050419Y-75008704D02*
X115050419Y-75199180D01*
X115050419Y-75199180D02*
X115098038Y-75294418D01*
X115098038Y-75294418D02*
X115145657Y-75342037D01*
X115145657Y-75342037D02*
X115288514Y-75437275D01*
X115288514Y-75437275D02*
X115478990Y-75484894D01*
X115478990Y-75484894D02*
X115859942Y-75484894D01*
X115859942Y-75484894D02*
X115955180Y-75437275D01*
X115955180Y-75437275D02*
X116002800Y-75389656D01*
X116002800Y-75389656D02*
X116050419Y-75294418D01*
X116050419Y-75294418D02*
X116050419Y-75103942D01*
X116050419Y-75103942D02*
X116002800Y-75008704D01*
X116002800Y-75008704D02*
X115955180Y-74961085D01*
X115955180Y-74961085D02*
X115859942Y-74913466D01*
X115859942Y-74913466D02*
X115621847Y-74913466D01*
X115621847Y-74913466D02*
X115526609Y-74961085D01*
X115526609Y-74961085D02*
X115478990Y-75008704D01*
X115478990Y-75008704D02*
X115431371Y-75103942D01*
X115431371Y-75103942D02*
X115431371Y-75294418D01*
X115431371Y-75294418D02*
X115478990Y-75389656D01*
X115478990Y-75389656D02*
X115526609Y-75437275D01*
X115526609Y-75437275D02*
X115621847Y-75484894D01*
X116050419Y-74484894D02*
X115050419Y-74484894D01*
X115050419Y-74484894D02*
X115764704Y-74151561D01*
X115764704Y-74151561D02*
X115050419Y-73818228D01*
X115050419Y-73818228D02*
X116050419Y-73818228D01*
X116050419Y-73342037D02*
X115050419Y-73342037D01*
X116050419Y-72913466D02*
X115526609Y-72913466D01*
X115526609Y-72913466D02*
X115431371Y-72961085D01*
X115431371Y-72961085D02*
X115383752Y-73056323D01*
X115383752Y-73056323D02*
X115383752Y-73199180D01*
X115383752Y-73199180D02*
X115431371Y-73294418D01*
X115431371Y-73294418D02*
X115478990Y-73342037D01*
X115383752Y-72532513D02*
X115383752Y-72008704D01*
X115383752Y-72008704D02*
X116050419Y-72532513D01*
X116050419Y-72532513D02*
X116050419Y-72008704D01*
X116844228Y-74732990D02*
X117320419Y-74732990D01*
X116320419Y-75066323D02*
X116844228Y-74732990D01*
X116844228Y-74732990D02*
X116320419Y-74399657D01*
X117320419Y-73542514D02*
X117320419Y-74113942D01*
X117320419Y-73828228D02*
X116320419Y-73828228D01*
X116320419Y-73828228D02*
X116463276Y-73923466D01*
X116463276Y-73923466D02*
X116558514Y-74018704D01*
X116558514Y-74018704D02*
X116606133Y-74113942D01*
%TO.C,R1*%
X108955161Y-86568819D02*
X108383733Y-86568819D01*
X108669447Y-86568819D02*
X108669447Y-85568819D01*
X108669447Y-85568819D02*
X108574209Y-85711676D01*
X108574209Y-85711676D02*
X108478971Y-85806914D01*
X108478971Y-85806914D02*
X108383733Y-85854533D01*
X109574209Y-85568819D02*
X109669447Y-85568819D01*
X109669447Y-85568819D02*
X109764685Y-85616438D01*
X109764685Y-85616438D02*
X109812304Y-85664057D01*
X109812304Y-85664057D02*
X109859923Y-85759295D01*
X109859923Y-85759295D02*
X109907542Y-85949771D01*
X109907542Y-85949771D02*
X109907542Y-86187866D01*
X109907542Y-86187866D02*
X109859923Y-86378342D01*
X109859923Y-86378342D02*
X109812304Y-86473580D01*
X109812304Y-86473580D02*
X109764685Y-86521200D01*
X109764685Y-86521200D02*
X109669447Y-86568819D01*
X109669447Y-86568819D02*
X109574209Y-86568819D01*
X109574209Y-86568819D02*
X109478971Y-86521200D01*
X109478971Y-86521200D02*
X109431352Y-86473580D01*
X109431352Y-86473580D02*
X109383733Y-86378342D01*
X109383733Y-86378342D02*
X109336114Y-86187866D01*
X109336114Y-86187866D02*
X109336114Y-85949771D01*
X109336114Y-85949771D02*
X109383733Y-85759295D01*
X109383733Y-85759295D02*
X109431352Y-85664057D01*
X109431352Y-85664057D02*
X109478971Y-85616438D01*
X109478971Y-85616438D02*
X109574209Y-85568819D01*
X110336114Y-86568819D02*
X110336114Y-85568819D01*
X110431352Y-86187866D02*
X110717066Y-86568819D01*
X110717066Y-85902152D02*
X110336114Y-86283104D01*
X109383733Y-84198819D02*
X109050400Y-83722628D01*
X108812305Y-84198819D02*
X108812305Y-83198819D01*
X108812305Y-83198819D02*
X109193257Y-83198819D01*
X109193257Y-83198819D02*
X109288495Y-83246438D01*
X109288495Y-83246438D02*
X109336114Y-83294057D01*
X109336114Y-83294057D02*
X109383733Y-83389295D01*
X109383733Y-83389295D02*
X109383733Y-83532152D01*
X109383733Y-83532152D02*
X109336114Y-83627390D01*
X109336114Y-83627390D02*
X109288495Y-83675009D01*
X109288495Y-83675009D02*
X109193257Y-83722628D01*
X109193257Y-83722628D02*
X108812305Y-83722628D01*
X110336114Y-84198819D02*
X109764686Y-84198819D01*
X110050400Y-84198819D02*
X110050400Y-83198819D01*
X110050400Y-83198819D02*
X109955162Y-83341676D01*
X109955162Y-83341676D02*
X109859924Y-83436914D01*
X109859924Y-83436914D02*
X109764686Y-83484533D01*
%TO.C,C1*%
X110904743Y-74414857D02*
X110952362Y-74367238D01*
X110952362Y-74367238D02*
X111047600Y-74319619D01*
X111047600Y-74319619D02*
X111285695Y-74319619D01*
X111285695Y-74319619D02*
X111380933Y-74367238D01*
X111380933Y-74367238D02*
X111428552Y-74414857D01*
X111428552Y-74414857D02*
X111476171Y-74510095D01*
X111476171Y-74510095D02*
X111476171Y-74605333D01*
X111476171Y-74605333D02*
X111428552Y-74748190D01*
X111428552Y-74748190D02*
X110857124Y-75319619D01*
X110857124Y-75319619D02*
X111476171Y-75319619D01*
X111857124Y-74414857D02*
X111904743Y-74367238D01*
X111904743Y-74367238D02*
X111999981Y-74319619D01*
X111999981Y-74319619D02*
X112238076Y-74319619D01*
X112238076Y-74319619D02*
X112333314Y-74367238D01*
X112333314Y-74367238D02*
X112380933Y-74414857D01*
X112380933Y-74414857D02*
X112428552Y-74510095D01*
X112428552Y-74510095D02*
X112428552Y-74605333D01*
X112428552Y-74605333D02*
X112380933Y-74748190D01*
X112380933Y-74748190D02*
X111809505Y-75319619D01*
X111809505Y-75319619D02*
X112428552Y-75319619D01*
X112857124Y-74652952D02*
X112857124Y-75652952D01*
X112857124Y-74700571D02*
X112952362Y-74652952D01*
X112952362Y-74652952D02*
X113142838Y-74652952D01*
X113142838Y-74652952D02*
X113238076Y-74700571D01*
X113238076Y-74700571D02*
X113285695Y-74748190D01*
X113285695Y-74748190D02*
X113333314Y-74843428D01*
X113333314Y-74843428D02*
X113333314Y-75129142D01*
X113333314Y-75129142D02*
X113285695Y-75224380D01*
X113285695Y-75224380D02*
X113238076Y-75272000D01*
X113238076Y-75272000D02*
X113142838Y-75319619D01*
X113142838Y-75319619D02*
X112952362Y-75319619D01*
X112952362Y-75319619D02*
X112857124Y-75272000D01*
X114095219Y-74795809D02*
X113761886Y-74795809D01*
X113761886Y-75319619D02*
X113761886Y-74319619D01*
X113761886Y-74319619D02*
X114238076Y-74319619D01*
X112907180Y-71241466D02*
X112954800Y-71289085D01*
X112954800Y-71289085D02*
X113002419Y-71431942D01*
X113002419Y-71431942D02*
X113002419Y-71527180D01*
X113002419Y-71527180D02*
X112954800Y-71670037D01*
X112954800Y-71670037D02*
X112859561Y-71765275D01*
X112859561Y-71765275D02*
X112764323Y-71812894D01*
X112764323Y-71812894D02*
X112573847Y-71860513D01*
X112573847Y-71860513D02*
X112430990Y-71860513D01*
X112430990Y-71860513D02*
X112240514Y-71812894D01*
X112240514Y-71812894D02*
X112145276Y-71765275D01*
X112145276Y-71765275D02*
X112050038Y-71670037D01*
X112050038Y-71670037D02*
X112002419Y-71527180D01*
X112002419Y-71527180D02*
X112002419Y-71431942D01*
X112002419Y-71431942D02*
X112050038Y-71289085D01*
X112050038Y-71289085D02*
X112097657Y-71241466D01*
X113002419Y-70289085D02*
X113002419Y-70860513D01*
X113002419Y-70574799D02*
X112002419Y-70574799D01*
X112002419Y-70574799D02*
X112145276Y-70670037D01*
X112145276Y-70670037D02*
X112240514Y-70765275D01*
X112240514Y-70765275D02*
X112288133Y-70860513D01*
%TO.C,SW2*%
X108791099Y-81331581D02*
X108314908Y-81664914D01*
X108791099Y-81903009D02*
X107791099Y-81903009D01*
X107791099Y-81903009D02*
X107791099Y-81522057D01*
X107791099Y-81522057D02*
X107838718Y-81426819D01*
X107838718Y-81426819D02*
X107886337Y-81379200D01*
X107886337Y-81379200D02*
X107981575Y-81331581D01*
X107981575Y-81331581D02*
X108124432Y-81331581D01*
X108124432Y-81331581D02*
X108219670Y-81379200D01*
X108219670Y-81379200D02*
X108267289Y-81426819D01*
X108267289Y-81426819D02*
X108314908Y-81522057D01*
X108314908Y-81522057D02*
X108314908Y-81903009D01*
X108743480Y-80522057D02*
X108791099Y-80617295D01*
X108791099Y-80617295D02*
X108791099Y-80807771D01*
X108791099Y-80807771D02*
X108743480Y-80903009D01*
X108743480Y-80903009D02*
X108648241Y-80950628D01*
X108648241Y-80950628D02*
X108267289Y-80950628D01*
X108267289Y-80950628D02*
X108172051Y-80903009D01*
X108172051Y-80903009D02*
X108124432Y-80807771D01*
X108124432Y-80807771D02*
X108124432Y-80617295D01*
X108124432Y-80617295D02*
X108172051Y-80522057D01*
X108172051Y-80522057D02*
X108267289Y-80474438D01*
X108267289Y-80474438D02*
X108362527Y-80474438D01*
X108362527Y-80474438D02*
X108457765Y-80950628D01*
X108743480Y-80093485D02*
X108791099Y-79998247D01*
X108791099Y-79998247D02*
X108791099Y-79807771D01*
X108791099Y-79807771D02*
X108743480Y-79712533D01*
X108743480Y-79712533D02*
X108648241Y-79664914D01*
X108648241Y-79664914D02*
X108600622Y-79664914D01*
X108600622Y-79664914D02*
X108505384Y-79712533D01*
X108505384Y-79712533D02*
X108457765Y-79807771D01*
X108457765Y-79807771D02*
X108457765Y-79950628D01*
X108457765Y-79950628D02*
X108410146Y-80045866D01*
X108410146Y-80045866D02*
X108314908Y-80093485D01*
X108314908Y-80093485D02*
X108267289Y-80093485D01*
X108267289Y-80093485D02*
X108172051Y-80045866D01*
X108172051Y-80045866D02*
X108124432Y-79950628D01*
X108124432Y-79950628D02*
X108124432Y-79807771D01*
X108124432Y-79807771D02*
X108172051Y-79712533D01*
X108743480Y-78855390D02*
X108791099Y-78950628D01*
X108791099Y-78950628D02*
X108791099Y-79141104D01*
X108791099Y-79141104D02*
X108743480Y-79236342D01*
X108743480Y-79236342D02*
X108648241Y-79283961D01*
X108648241Y-79283961D02*
X108267289Y-79283961D01*
X108267289Y-79283961D02*
X108172051Y-79236342D01*
X108172051Y-79236342D02*
X108124432Y-79141104D01*
X108124432Y-79141104D02*
X108124432Y-78950628D01*
X108124432Y-78950628D02*
X108172051Y-78855390D01*
X108172051Y-78855390D02*
X108267289Y-78807771D01*
X108267289Y-78807771D02*
X108362527Y-78807771D01*
X108362527Y-78807771D02*
X108457765Y-79283961D01*
X108124432Y-78522056D02*
X108124432Y-78141104D01*
X107791099Y-78379199D02*
X108648241Y-78379199D01*
X108648241Y-78379199D02*
X108743480Y-78331580D01*
X108743480Y-78331580D02*
X108791099Y-78236342D01*
X108791099Y-78236342D02*
X108791099Y-78141104D01*
X108743480Y-77093484D02*
X108791099Y-76998246D01*
X108791099Y-76998246D02*
X108791099Y-76807770D01*
X108791099Y-76807770D02*
X108743480Y-76712532D01*
X108743480Y-76712532D02*
X108648241Y-76664913D01*
X108648241Y-76664913D02*
X108600622Y-76664913D01*
X108600622Y-76664913D02*
X108505384Y-76712532D01*
X108505384Y-76712532D02*
X108457765Y-76807770D01*
X108457765Y-76807770D02*
X108457765Y-76950627D01*
X108457765Y-76950627D02*
X108410146Y-77045865D01*
X108410146Y-77045865D02*
X108314908Y-77093484D01*
X108314908Y-77093484D02*
X108267289Y-77093484D01*
X108267289Y-77093484D02*
X108172051Y-77045865D01*
X108172051Y-77045865D02*
X108124432Y-76950627D01*
X108124432Y-76950627D02*
X108124432Y-76807770D01*
X108124432Y-76807770D02*
X108172051Y-76712532D01*
X108124432Y-76331579D02*
X108791099Y-76141103D01*
X108791099Y-76141103D02*
X108314908Y-75950627D01*
X108314908Y-75950627D02*
X108791099Y-75760151D01*
X108791099Y-75760151D02*
X108124432Y-75569675D01*
X108791099Y-75188722D02*
X108124432Y-75188722D01*
X107791099Y-75188722D02*
X107838718Y-75236341D01*
X107838718Y-75236341D02*
X107886337Y-75188722D01*
X107886337Y-75188722D02*
X107838718Y-75141103D01*
X107838718Y-75141103D02*
X107791099Y-75188722D01*
X107791099Y-75188722D02*
X107886337Y-75188722D01*
X108124432Y-74855389D02*
X108124432Y-74474437D01*
X107791099Y-74712532D02*
X108648241Y-74712532D01*
X108648241Y-74712532D02*
X108743480Y-74664913D01*
X108743480Y-74664913D02*
X108791099Y-74569675D01*
X108791099Y-74569675D02*
X108791099Y-74474437D01*
X108743480Y-73712532D02*
X108791099Y-73807770D01*
X108791099Y-73807770D02*
X108791099Y-73998246D01*
X108791099Y-73998246D02*
X108743480Y-74093484D01*
X108743480Y-74093484D02*
X108695860Y-74141103D01*
X108695860Y-74141103D02*
X108600622Y-74188722D01*
X108600622Y-74188722D02*
X108314908Y-74188722D01*
X108314908Y-74188722D02*
X108219670Y-74141103D01*
X108219670Y-74141103D02*
X108172051Y-74093484D01*
X108172051Y-74093484D02*
X108124432Y-73998246D01*
X108124432Y-73998246D02*
X108124432Y-73807770D01*
X108124432Y-73807770D02*
X108172051Y-73712532D01*
X108791099Y-73283960D02*
X107791099Y-73283960D01*
X108791099Y-72855389D02*
X108267289Y-72855389D01*
X108267289Y-72855389D02*
X108172051Y-72903008D01*
X108172051Y-72903008D02*
X108124432Y-72998246D01*
X108124432Y-72998246D02*
X108124432Y-73141103D01*
X108124432Y-73141103D02*
X108172051Y-73236341D01*
X108172051Y-73236341D02*
X108219670Y-73283960D01*
X105033600Y-78712532D02*
X105081219Y-78569675D01*
X105081219Y-78569675D02*
X105081219Y-78331580D01*
X105081219Y-78331580D02*
X105033600Y-78236342D01*
X105033600Y-78236342D02*
X104985980Y-78188723D01*
X104985980Y-78188723D02*
X104890742Y-78141104D01*
X104890742Y-78141104D02*
X104795504Y-78141104D01*
X104795504Y-78141104D02*
X104700266Y-78188723D01*
X104700266Y-78188723D02*
X104652647Y-78236342D01*
X104652647Y-78236342D02*
X104605028Y-78331580D01*
X104605028Y-78331580D02*
X104557409Y-78522056D01*
X104557409Y-78522056D02*
X104509790Y-78617294D01*
X104509790Y-78617294D02*
X104462171Y-78664913D01*
X104462171Y-78664913D02*
X104366933Y-78712532D01*
X104366933Y-78712532D02*
X104271695Y-78712532D01*
X104271695Y-78712532D02*
X104176457Y-78664913D01*
X104176457Y-78664913D02*
X104128838Y-78617294D01*
X104128838Y-78617294D02*
X104081219Y-78522056D01*
X104081219Y-78522056D02*
X104081219Y-78283961D01*
X104081219Y-78283961D02*
X104128838Y-78141104D01*
X104081219Y-77807770D02*
X105081219Y-77569675D01*
X105081219Y-77569675D02*
X104366933Y-77379199D01*
X104366933Y-77379199D02*
X105081219Y-77188723D01*
X105081219Y-77188723D02*
X104081219Y-76950628D01*
X104176457Y-76617294D02*
X104128838Y-76569675D01*
X104128838Y-76569675D02*
X104081219Y-76474437D01*
X104081219Y-76474437D02*
X104081219Y-76236342D01*
X104081219Y-76236342D02*
X104128838Y-76141104D01*
X104128838Y-76141104D02*
X104176457Y-76093485D01*
X104176457Y-76093485D02*
X104271695Y-76045866D01*
X104271695Y-76045866D02*
X104366933Y-76045866D01*
X104366933Y-76045866D02*
X104509790Y-76093485D01*
X104509790Y-76093485D02*
X105081219Y-76664913D01*
X105081219Y-76664913D02*
X105081219Y-76045866D01*
%TO.C,R2*%
X121875905Y-89052057D02*
X121923524Y-89004438D01*
X121923524Y-89004438D02*
X122018762Y-88956819D01*
X122018762Y-88956819D02*
X122256857Y-88956819D01*
X122256857Y-88956819D02*
X122352095Y-89004438D01*
X122352095Y-89004438D02*
X122399714Y-89052057D01*
X122399714Y-89052057D02*
X122447333Y-89147295D01*
X122447333Y-89147295D02*
X122447333Y-89242533D01*
X122447333Y-89242533D02*
X122399714Y-89385390D01*
X122399714Y-89385390D02*
X121828286Y-89956819D01*
X121828286Y-89956819D02*
X122447333Y-89956819D01*
X122828286Y-89052057D02*
X122875905Y-89004438D01*
X122875905Y-89004438D02*
X122971143Y-88956819D01*
X122971143Y-88956819D02*
X123209238Y-88956819D01*
X123209238Y-88956819D02*
X123304476Y-89004438D01*
X123304476Y-89004438D02*
X123352095Y-89052057D01*
X123352095Y-89052057D02*
X123399714Y-89147295D01*
X123399714Y-89147295D02*
X123399714Y-89242533D01*
X123399714Y-89242533D02*
X123352095Y-89385390D01*
X123352095Y-89385390D02*
X122780667Y-89956819D01*
X122780667Y-89956819D02*
X123399714Y-89956819D01*
X124018762Y-88956819D02*
X124114000Y-88956819D01*
X124114000Y-88956819D02*
X124209238Y-89004438D01*
X124209238Y-89004438D02*
X124256857Y-89052057D01*
X124256857Y-89052057D02*
X124304476Y-89147295D01*
X124304476Y-89147295D02*
X124352095Y-89337771D01*
X124352095Y-89337771D02*
X124352095Y-89575866D01*
X124352095Y-89575866D02*
X124304476Y-89766342D01*
X124304476Y-89766342D02*
X124256857Y-89861580D01*
X124256857Y-89861580D02*
X124209238Y-89909200D01*
X124209238Y-89909200D02*
X124114000Y-89956819D01*
X124114000Y-89956819D02*
X124018762Y-89956819D01*
X124018762Y-89956819D02*
X123923524Y-89909200D01*
X123923524Y-89909200D02*
X123875905Y-89861580D01*
X123875905Y-89861580D02*
X123828286Y-89766342D01*
X123828286Y-89766342D02*
X123780667Y-89575866D01*
X123780667Y-89575866D02*
X123780667Y-89337771D01*
X123780667Y-89337771D02*
X123828286Y-89147295D01*
X123828286Y-89147295D02*
X123875905Y-89052057D01*
X123875905Y-89052057D02*
X123923524Y-89004438D01*
X123923524Y-89004438D02*
X124018762Y-88956819D01*
X122947333Y-92326819D02*
X122614000Y-91850628D01*
X122375905Y-92326819D02*
X122375905Y-91326819D01*
X122375905Y-91326819D02*
X122756857Y-91326819D01*
X122756857Y-91326819D02*
X122852095Y-91374438D01*
X122852095Y-91374438D02*
X122899714Y-91422057D01*
X122899714Y-91422057D02*
X122947333Y-91517295D01*
X122947333Y-91517295D02*
X122947333Y-91660152D01*
X122947333Y-91660152D02*
X122899714Y-91755390D01*
X122899714Y-91755390D02*
X122852095Y-91803009D01*
X122852095Y-91803009D02*
X122756857Y-91850628D01*
X122756857Y-91850628D02*
X122375905Y-91850628D01*
X123328286Y-91422057D02*
X123375905Y-91374438D01*
X123375905Y-91374438D02*
X123471143Y-91326819D01*
X123471143Y-91326819D02*
X123709238Y-91326819D01*
X123709238Y-91326819D02*
X123804476Y-91374438D01*
X123804476Y-91374438D02*
X123852095Y-91422057D01*
X123852095Y-91422057D02*
X123899714Y-91517295D01*
X123899714Y-91517295D02*
X123899714Y-91612533D01*
X123899714Y-91612533D02*
X123852095Y-91755390D01*
X123852095Y-91755390D02*
X123280667Y-92326819D01*
X123280667Y-92326819D02*
X123899714Y-92326819D01*
D12*
%TO.C,U1*%
X164830000Y-73330000D02*
X129150000Y-73330000D01*
X129150000Y-73330000D02*
X129150000Y-83490000D01*
X163770000Y-75235000D02*
X164770000Y-76235000D01*
X129210000Y-75235000D02*
X163770000Y-75235000D01*
X164770000Y-76235000D02*
X164770000Y-81585000D01*
X164770000Y-81585000D02*
X129210000Y-81585000D01*
X129210000Y-81585000D02*
X129210000Y-75235000D01*
X164830000Y-83490000D02*
X164830000Y-73330000D01*
X129150000Y-83490000D02*
X164830000Y-83490000D01*
%TO.C,J5*%
X100720700Y-53664800D02*
X117120700Y-53664800D01*
X100720700Y-65664800D02*
X100720700Y-53664800D01*
X116630700Y-60914800D02*
X117120700Y-61404800D01*
X117120700Y-53664800D02*
X117120700Y-65664800D01*
X117120700Y-60424800D02*
X116630700Y-60914800D01*
X117120700Y-65664800D02*
X100720700Y-65664800D01*
%TO.C,D8*%
X143047600Y-59474000D02*
X145547600Y-59474000D01*
X145547600Y-59474000D02*
X145547600Y-54674000D01*
X143047600Y-54674000D02*
X143047600Y-59474000D01*
X145547600Y-54674000D02*
X143047600Y-54674000D01*
X145297600Y-57074000D02*
G75*
G03*
X145297600Y-57074000I-1000000J0D01*
G01*
%TO.C,D7*%
X145892400Y-59474000D02*
X148392400Y-59474000D01*
X148392400Y-59474000D02*
X148392400Y-54674000D01*
X145892400Y-54674000D02*
X145892400Y-59474000D01*
X148392400Y-54674000D02*
X145892400Y-54674000D01*
X148142400Y-57074000D02*
G75*
G03*
X148142400Y-57074000I-1000000J0D01*
G01*
%TO.C,D6*%
X150987200Y-57074000D02*
G75*
G03*
X150987200Y-57074000I-1000000J0D01*
G01*
X151237200Y-54674000D02*
X148737200Y-54674000D01*
X148737200Y-54674000D02*
X148737200Y-59474000D01*
X151237200Y-59474000D02*
X151237200Y-54674000D01*
X148737200Y-59474000D02*
X151237200Y-59474000D01*
%TO.C,D5*%
X151582000Y-59474000D02*
X154082000Y-59474000D01*
X154082000Y-59474000D02*
X154082000Y-54674000D01*
X151582000Y-54674000D02*
X151582000Y-59474000D01*
X154082000Y-54674000D02*
X151582000Y-54674000D01*
X153832000Y-57074000D02*
G75*
G03*
X153832000Y-57074000I-1000000J0D01*
G01*
%TO.C,D4*%
X154426800Y-59474000D02*
X156926800Y-59474000D01*
X156926800Y-59474000D02*
X156926800Y-54674000D01*
X154426800Y-54674000D02*
X154426800Y-59474000D01*
X156926800Y-54674000D02*
X154426800Y-54674000D01*
X156676800Y-57074000D02*
G75*
G03*
X156676800Y-57074000I-1000000J0D01*
G01*
%TO.C,D3*%
X157271600Y-59474000D02*
X159771600Y-59474000D01*
X159771600Y-59474000D02*
X159771600Y-54674000D01*
X157271600Y-54674000D02*
X157271600Y-59474000D01*
X159771600Y-54674000D02*
X157271600Y-54674000D01*
X159521600Y-57074000D02*
G75*
G03*
X159521600Y-57074000I-1000000J0D01*
G01*
%TO.C,D2*%
X160116400Y-59474000D02*
X162616400Y-59474000D01*
X162616400Y-59474000D02*
X162616400Y-54674000D01*
X160116400Y-54674000D02*
X160116400Y-59474000D01*
X162616400Y-54674000D02*
X160116400Y-54674000D01*
X162366400Y-57074000D02*
G75*
G03*
X162366400Y-57074000I-1000000J0D01*
G01*
%TO.C,D1*%
X162961200Y-59474000D02*
X165461200Y-59474000D01*
X165461200Y-59474000D02*
X165461200Y-54674000D01*
X162961200Y-54674000D02*
X162961200Y-59474000D01*
X165461200Y-54674000D02*
X162961200Y-54674000D01*
X165211200Y-57074000D02*
G75*
G03*
X165211200Y-57074000I-1000000J0D01*
G01*
%TO.C,J1*%
X126670000Y-98730000D02*
X126670000Y-96825000D01*
X146990000Y-98730000D02*
X126670000Y-98730000D01*
X126670000Y-96825000D02*
X127305000Y-96190000D01*
X127305000Y-96190000D02*
X146990000Y-96190000D01*
X146990000Y-96190000D02*
X146990000Y-98730000D01*
%TO.C,J3*%
X149530000Y-98730000D02*
X149530000Y-96825000D01*
X164770000Y-98730000D02*
X149530000Y-98730000D01*
X149530000Y-96825000D02*
X150165000Y-96190000D01*
X150165000Y-96190000D02*
X164770000Y-96190000D01*
X164770000Y-96190000D02*
X164770000Y-98730000D01*
%TO.C,J2*%
X117526000Y-50470000D02*
X117526000Y-48565000D01*
X142926000Y-50470000D02*
X117526000Y-50470000D01*
X117526000Y-48565000D02*
X118161000Y-47930000D01*
X118161000Y-47930000D02*
X142926000Y-47930000D01*
X142926000Y-47930000D02*
X142926000Y-50470000D01*
%TO.C,J4*%
X144450000Y-50470000D02*
X144450000Y-48565000D01*
X164770000Y-50470000D02*
X144450000Y-50470000D01*
X144450000Y-48565000D02*
X145085000Y-47930000D01*
X145085000Y-47930000D02*
X164770000Y-47930000D01*
X164770000Y-47930000D02*
X164770000Y-50470000D01*
%TO.C,J6*%
X100932800Y-88839200D02*
X100932800Y-88199200D01*
X100932800Y-91379200D02*
X100932800Y-90739200D01*
X100932800Y-93919200D02*
X100932800Y-93279200D01*
X106932800Y-87249200D02*
X109472800Y-87249200D01*
X106932800Y-88199200D02*
X100932800Y-88199200D01*
X106932800Y-88839200D02*
X100932800Y-88839200D01*
X106932800Y-90739200D02*
X100932800Y-90739200D01*
X106932800Y-91379200D02*
X100932800Y-91379200D01*
X106932800Y-93279200D02*
X100932800Y-93279200D01*
X106932800Y-93919200D02*
X100932800Y-93919200D01*
X106932800Y-94869200D02*
X106932800Y-87249200D01*
X108837800Y-94869200D02*
X106932800Y-94869200D01*
X109472800Y-87249200D02*
X109472800Y-94234200D01*
X109472800Y-94234200D02*
X108837800Y-94869200D01*
X113832800Y-88199200D02*
X109472800Y-88199200D01*
X113832800Y-88839200D02*
X109472800Y-88839200D01*
X113832800Y-88839200D02*
X113832800Y-88199200D01*
X113832800Y-90739200D02*
X109472800Y-90739200D01*
X113832800Y-91379200D02*
X109472800Y-91379200D01*
X113832800Y-91379200D02*
X113832800Y-90739200D01*
X113832800Y-93279200D02*
X109472800Y-93279200D01*
X113832800Y-93919200D02*
X109472800Y-93919200D01*
X113832800Y-93919200D02*
X113832800Y-93279200D01*
%TO.C,D9*%
X117820000Y-95228306D02*
X117820000Y-98167694D01*
X117819984Y-98167666D02*
G75*
G03*
X117820000Y-95228306I2500016J1469666D01*
G01*
X122820000Y-96698000D02*
G75*
G03*
X122820000Y-96698000I-2500000J0D01*
G01*
%TO.C,SW1*%
X141783000Y-66456000D02*
X142783000Y-65456000D01*
X141783000Y-70536000D02*
X141783000Y-66456000D01*
X142783000Y-65456000D02*
X148133000Y-65456000D01*
X148133000Y-65456000D02*
X148133000Y-70536000D01*
X148133000Y-70536000D02*
X141783000Y-70536000D01*
%TO.C,RN1*%
X140112000Y-62174000D02*
X140112000Y-64674000D01*
X140112000Y-64674000D02*
X163012000Y-64674000D01*
X142672000Y-62174000D02*
X142672000Y-64674000D01*
X163012000Y-62174000D02*
X140112000Y-62174000D01*
X163012000Y-64674000D02*
X163012000Y-62174000D01*
%TO.C,C2*%
X111297600Y-79924800D02*
X113797600Y-79924800D01*
X113797600Y-79924800D02*
X113797600Y-74924800D01*
X111297600Y-74924800D02*
X111297600Y-79924800D01*
X113797600Y-74924800D02*
X111297600Y-74924800D01*
%TO.C,C3*%
X102445200Y-68930400D02*
X102445200Y-71430400D01*
X102445200Y-71430400D02*
X109645200Y-71430400D01*
X109645200Y-68930400D02*
X102445200Y-68930400D01*
X109645200Y-71430400D02*
X109645200Y-68930400D01*
%TO.C,Y1*%
X114540600Y-77381800D02*
X114540600Y-71131800D01*
X119190600Y-77381800D02*
X119190600Y-71131800D01*
X114865600Y-77256800D02*
X114865600Y-71256800D01*
X118865600Y-77256800D02*
X118865600Y-71256800D01*
X114540600Y-77381800D02*
G75*
G03*
X119190600Y-77381800I2325000J0D01*
G01*
X114865600Y-77256800D02*
G75*
G03*
X118865600Y-77256800I2000000J0D01*
G01*
X118865600Y-71256800D02*
G75*
G03*
X114865600Y-71256800I-2000000J0D01*
G01*
X119190600Y-71131800D02*
G75*
G03*
X114540600Y-71131800I-2325000J0D01*
G01*
%TO.C,R1*%
X104470400Y-83744000D02*
X106400400Y-83744000D01*
X106400400Y-82494000D02*
X106400400Y-84994000D01*
X106400400Y-84994000D02*
X112700400Y-84994000D01*
X112700400Y-82494000D02*
X106400400Y-82494000D01*
X112700400Y-84994000D02*
X112700400Y-82494000D01*
X114630400Y-83744000D02*
X112700400Y-83744000D01*
%TO.C,C1*%
X111297600Y-73574800D02*
X113797600Y-73574800D01*
X113797600Y-73574800D02*
X113797600Y-68574800D01*
X111297600Y-68574800D02*
X111297600Y-73574800D01*
X113797600Y-68574800D02*
X111297600Y-68574800D01*
%TO.C,SW2*%
X100356400Y-81129200D02*
X100356400Y-73629200D01*
X107146400Y-81129200D02*
X100356400Y-81129200D01*
X107146400Y-81129200D02*
X107146400Y-80829200D01*
X103806400Y-80829200D02*
X103806400Y-73929200D01*
X107146400Y-80829200D02*
X103806400Y-80829200D01*
X97096400Y-79129200D02*
X100356400Y-79129200D01*
X97096400Y-79129200D02*
X97096400Y-75629200D01*
X97096400Y-75629200D02*
X100356400Y-75629200D01*
X107146400Y-73929200D02*
X103806400Y-73929200D01*
X107146400Y-73929200D02*
X107146400Y-73629200D01*
X107146400Y-73629200D02*
X100356400Y-73629200D01*
%TO.C,R2*%
X128194000Y-91872000D02*
X126264000Y-91872000D01*
X126264000Y-93122000D02*
X126264000Y-90622000D01*
X126264000Y-90622000D02*
X119964000Y-90622000D01*
X119964000Y-93122000D02*
X126264000Y-93122000D01*
X119964000Y-90622000D02*
X119964000Y-93122000D01*
X118034000Y-91872000D02*
X119964000Y-91872000D01*
%TD*%
M02*
