%TF.GenerationSoftware,KiCad,Pcbnew,7.0.5*%
%TF.CreationDate,2023-11-13T21:41:30+01:00*%
%TF.ProjectId,atmega328p_dev_board,61746d65-6761-4333-9238-705f6465765f,rev?*%
%TF.SameCoordinates,Original*%
%TF.FileFunction,Other,User*%
%FSLAX46Y46*%
G04 Gerber Fmt 4.6, Leading zero omitted, Abs format (unit mm)*
G04 Created by KiCad (PCBNEW 7.0.5) date 2023-11-13 21:41:30*
%MOMM*%
%LPD*%
G01*
G04 APERTURE LIST*
%ADD10C,0.050000*%
G04 APERTURE END LIST*
D10*
%TO.C,U1*%
X165100000Y-73050000D02*
X128850000Y-73050000D01*
X128850000Y-73050000D02*
X128850000Y-83750000D01*
X165100000Y-83750000D02*
X165100000Y-73050000D01*
X128850000Y-83750000D02*
X165100000Y-83750000D01*
%TO.C,J5*%
X100220700Y-51164800D02*
X100220700Y-68164800D01*
X100220700Y-68164800D02*
X117620700Y-68164800D01*
X117620700Y-51164800D02*
X100220700Y-51164800D01*
X117620700Y-68164800D02*
X117620700Y-51164800D01*
%TO.C,D8*%
X142900600Y-59614000D02*
X145694600Y-59614000D01*
X145694600Y-59614000D02*
X145694600Y-54534000D01*
X142900600Y-54534000D02*
X142900600Y-59614000D01*
X145694600Y-54534000D02*
X142900600Y-54534000D01*
%TO.C,D7*%
X145745400Y-59614000D02*
X148539400Y-59614000D01*
X148539400Y-59614000D02*
X148539400Y-54534000D01*
X145745400Y-54534000D02*
X145745400Y-59614000D01*
X148539400Y-54534000D02*
X145745400Y-54534000D01*
%TO.C,D6*%
X151384200Y-54534000D02*
X148590200Y-54534000D01*
X148590200Y-54534000D02*
X148590200Y-59614000D01*
X151384200Y-59614000D02*
X151384200Y-54534000D01*
X148590200Y-59614000D02*
X151384200Y-59614000D01*
%TO.C,D5*%
X151435000Y-59614000D02*
X154229000Y-59614000D01*
X154229000Y-59614000D02*
X154229000Y-54534000D01*
X151435000Y-54534000D02*
X151435000Y-59614000D01*
X154229000Y-54534000D02*
X151435000Y-54534000D01*
%TO.C,D4*%
X154279800Y-59614000D02*
X157073800Y-59614000D01*
X157073800Y-59614000D02*
X157073800Y-54534000D01*
X154279800Y-54534000D02*
X154279800Y-59614000D01*
X157073800Y-54534000D02*
X154279800Y-54534000D01*
%TO.C,D3*%
X157124600Y-59614000D02*
X159918600Y-59614000D01*
X159918600Y-59614000D02*
X159918600Y-54534000D01*
X157124600Y-54534000D02*
X157124600Y-59614000D01*
X159918600Y-54534000D02*
X157124600Y-54534000D01*
%TO.C,D2*%
X159969400Y-59614000D02*
X162763400Y-59614000D01*
X162763400Y-59614000D02*
X162763400Y-54534000D01*
X159969400Y-54534000D02*
X159969400Y-59614000D01*
X162763400Y-54534000D02*
X159969400Y-54534000D01*
%TO.C,D1*%
X162814200Y-59614000D02*
X165608200Y-59614000D01*
X165608200Y-59614000D02*
X165608200Y-54534000D01*
X162814200Y-54534000D02*
X162814200Y-59614000D01*
X165608200Y-54534000D02*
X162814200Y-54534000D01*
%TO.C,J1*%
X126140000Y-99260000D02*
X126140000Y-95710000D01*
X147490000Y-99260000D02*
X126140000Y-99260000D01*
X126140000Y-95710000D02*
X147490000Y-95710000D01*
X147490000Y-95710000D02*
X147490000Y-99260000D01*
%TO.C,J3*%
X149000000Y-99260000D02*
X149000000Y-95710000D01*
X165250000Y-99260000D02*
X149000000Y-99260000D01*
X149000000Y-95710000D02*
X165250000Y-95710000D01*
X165250000Y-95710000D02*
X165250000Y-99260000D01*
%TO.C,J2*%
X116996000Y-51000000D02*
X116996000Y-47450000D01*
X143396000Y-51000000D02*
X116996000Y-51000000D01*
X116996000Y-47450000D02*
X143396000Y-47450000D01*
X143396000Y-47450000D02*
X143396000Y-51000000D01*
%TO.C,J4*%
X143920000Y-51000000D02*
X143920000Y-47450000D01*
X165270000Y-51000000D02*
X143920000Y-51000000D01*
X143920000Y-47450000D02*
X165270000Y-47450000D01*
X165270000Y-47450000D02*
X165270000Y-51000000D01*
%TO.C,J6*%
X100412800Y-86749200D02*
X100412800Y-95399200D01*
X100412800Y-95399200D02*
X115312800Y-95399200D01*
X115312800Y-86749200D02*
X100412800Y-86749200D01*
X115312800Y-95399200D02*
X115312800Y-86749200D01*
%TO.C,D9*%
X117100000Y-93448000D02*
X117100000Y-99948000D01*
X117100000Y-99948000D02*
X123550000Y-99948000D01*
X123550000Y-93448000D02*
X117100000Y-93448000D01*
X123550000Y-99948000D02*
X123550000Y-93448000D01*
%TO.C,SW1*%
X140048000Y-65176000D02*
X140048000Y-70826000D01*
X140048000Y-70826000D02*
X149848000Y-70826000D01*
X149848000Y-65176000D02*
X140048000Y-65176000D01*
X149848000Y-70826000D02*
X149848000Y-65176000D01*
%TO.C,RN1*%
X139702000Y-61774000D02*
X139702000Y-65074000D01*
X139702000Y-65074000D02*
X163452000Y-65074000D01*
X163452000Y-61774000D02*
X139702000Y-61774000D01*
X163452000Y-65074000D02*
X163452000Y-61774000D01*
%TO.C,MH1*%
X116940000Y-49200000D02*
G75*
G03*
X116940000Y-49200000I-1700000J0D01*
G01*
%TO.C,C2*%
X111047600Y-80174800D02*
X114047600Y-80174800D01*
X114047600Y-80174800D02*
X114047600Y-74674800D01*
X111047600Y-74674800D02*
X111047600Y-80174800D01*
X114047600Y-74674800D02*
X111047600Y-74674800D01*
%TO.C,C3*%
X102195200Y-68680400D02*
X102195200Y-71680400D01*
X102195200Y-71680400D02*
X109895200Y-71680400D01*
X109895200Y-68680400D02*
X102195200Y-68680400D01*
X109895200Y-71680400D02*
X109895200Y-68680400D01*
%TO.C,Y1*%
X114065600Y-80196800D02*
X119665600Y-80196800D01*
X119665600Y-80196800D02*
X119665600Y-68296800D01*
X114065600Y-68296800D02*
X114065600Y-80196800D01*
X119665600Y-68296800D02*
X114065600Y-68296800D01*
%TO.C,R1*%
X103420400Y-82244000D02*
X103420400Y-85244000D01*
X103420400Y-85244000D02*
X115680400Y-85244000D01*
X115680400Y-82244000D02*
X103420400Y-82244000D01*
X115680400Y-85244000D02*
X115680400Y-82244000D01*
%TO.C,MH2*%
X115670000Y-97460000D02*
G75*
G03*
X115670000Y-97460000I-1700000J0D01*
G01*
%TO.C,MH3*%
X167740000Y-64440000D02*
G75*
G03*
X167740000Y-64440000I-1700000J0D01*
G01*
%TO.C,MH4*%
X167740000Y-92380000D02*
G75*
G03*
X167740000Y-92380000I-1700000J0D01*
G01*
%TO.C,C1*%
X111047600Y-73824800D02*
X114047600Y-73824800D01*
X114047600Y-73824800D02*
X114047600Y-68324800D01*
X111047600Y-68324800D02*
X111047600Y-73824800D01*
X114047600Y-68324800D02*
X111047600Y-68324800D01*
%TO.C,SW2*%
X100146400Y-82129200D02*
X100146400Y-72579200D01*
X107396400Y-82129200D02*
X100146400Y-82129200D01*
X100146400Y-72579200D02*
X107396400Y-72579200D01*
X107396400Y-72579200D02*
X107396400Y-82129200D01*
%TO.C,R2*%
X129244000Y-93372000D02*
X129244000Y-90372000D01*
X129244000Y-90372000D02*
X116984000Y-90372000D01*
X116984000Y-93372000D02*
X129244000Y-93372000D01*
X116984000Y-90372000D02*
X116984000Y-93372000D01*
%TD*%
M02*
