M48
; DRILL file {KiCad 7.0.7} date Wed Mar 20 11:20:11 2024
; FORMAT={-:-/ absolute / metric / decimal}
; #@! TF.CreationDate,2024-03-20T11:20:11+01:00
; #@! TF.GenerationSoftware,Kicad,Pcbnew,7.0.7
; #@! TF.FileFunction,Plated,1,2,PTH
FMAT,2
METRIC
; #@! TA.AperFunction,Plated,PTH,ComponentDrill
T1C0.500
; #@! TA.AperFunction,Plated,PTH,ComponentDrill
T2C0.800
; #@! TA.AperFunction,Plated,PTH,ComponentDrill
T3C0.900
; #@! TA.AperFunction,Plated,PTH,ComponentDrill
T4C1.000
%
G90
G05
T2
X122.377Y-47.498
X122.428Y-43.688
X122.428Y-51.308
X122.428Y-54.864
X132.537Y-47.498
X132.588Y-43.688
X132.588Y-51.308
X132.588Y-54.864
T4
X132.334Y-61.976
X132.334Y-64.516
X132.334Y-67.056
T1
G00X112.927Y-65.7
M15
G01X112.927Y-67.9
M16
G05
G00X112.977Y-54.95
M15
G01X112.977Y-57.15
M16
G05
G00X113.01Y-44.714
M15
G01X113.01Y-46.914
M16
G05
T3
G00X115.468Y-65.9
M15
G01X115.468Y-67.7
M16
G05
G00X115.517Y-55.15
M15
G01X115.517Y-56.95
M16
G05
G00X115.55Y-44.914
M15
G01X115.55Y-46.714
M16
G05
T0
M30
