M48
; DRILL file {KiCad 7.0.7} date Thu Feb 15 10:32:11 2024
; FORMAT={-:-/ absolute / metric / decimal}
; #@! TF.CreationDate,2024-02-15T10:32:11+01:00
; #@! TF.GenerationSoftware,Kicad,Pcbnew,7.0.7
; #@! TF.FileFunction,Plated,1,2,PTH
FMAT,2
METRIC
; #@! TA.AperFunction,Plated,PTH,ComponentDrill
T1C0.500
; #@! TA.AperFunction,Plated,PTH,ComponentDrill
T2C0.700
; #@! TA.AperFunction,Plated,PTH,ComponentDrill
T3C0.750
; #@! TA.AperFunction,Plated,PTH,ComponentDrill
T4C0.800
; #@! TA.AperFunction,Plated,PTH,ComponentDrill
T5C1.000
; #@! TA.AperFunction,Plated,PTH,ComponentDrill
T6C1.100
; #@! TA.AperFunction,Plated,PTH,ComponentDrill
T7C1.300
; #@! TA.AperFunction,Plated,PTH,ComponentDrill
T8C1.400
; #@! TA.AperFunction,Plated,PTH,ComponentDrill
T9C1.500
; #@! TA.AperFunction,Plated,PTH,ComponentDrill
T10C1.520
; #@! TA.AperFunction,Plated,PTH,ComponentDrill
T11C1.600
%
G90
G05
T1
X83.566Y-102.577
X83.566Y-104.077
T2
X82.55Y-109.931
X85.05Y-109.931
X94.285Y-88.92
X94.285Y-91.42
X96.977Y-88.92
X96.977Y-91.42
T3
X129.331Y-55.797
X129.331Y-109.34
X130.601Y-55.797
X130.601Y-109.34
X131.871Y-55.797
X131.871Y-109.34
X150.057Y-55.797
X150.057Y-109.188
X151.327Y-55.797
X151.327Y-109.188
X152.597Y-55.797
X152.597Y-109.188
X170.764Y-55.956
X170.917Y-109.804
X172.034Y-55.956
X172.187Y-109.804
X173.304Y-55.956
X173.457Y-109.804
X190.526Y-55.906
X190.596Y-109.543
X191.796Y-55.906
X191.866Y-109.543
X193.066Y-55.906
X193.136Y-109.543
T4
X81.026Y-56.134
X81.077Y-59.334
X81.077Y-62.433
X87.833Y-102.26
X87.833Y-104.8
X87.833Y-107.34
X87.833Y-109.88
X91.186Y-56.134
X91.237Y-59.334
X91.237Y-62.433
X95.453Y-102.26
X95.453Y-104.8
X95.453Y-107.34
X95.453Y-109.88
X97.739Y-103.53
X99.848Y-62.713
X99.848Y-65.253
X99.848Y-67.793
X99.848Y-70.333
X99.848Y-72.873
X99.848Y-75.413
X99.848Y-77.953
X99.848Y-80.493
X99.848Y-83.033
X99.848Y-85.573
X99.848Y-88.113
X99.848Y-90.653
X99.848Y-93.193
X99.848Y-95.733
X107.468Y-62.713
X107.468Y-65.253
X107.468Y-67.793
X107.468Y-70.333
X107.468Y-72.873
X107.468Y-75.413
X107.468Y-77.953
X107.468Y-80.493
X107.468Y-83.033
X107.468Y-85.573
X107.468Y-88.113
X107.468Y-90.653
X107.468Y-93.193
X107.468Y-95.733
X107.899Y-103.53
X110.058Y-90.145
X110.109Y-87.046
X110.16Y-77.597
X110.16Y-80.696
X110.16Y-83.896
X110.211Y-74.498
X110.262Y-67.996
X110.262Y-71.146
X115.24Y-92.837
X115.24Y-102.997
X120.218Y-90.145
X120.269Y-87.046
X120.32Y-77.597
X120.32Y-80.696
X120.32Y-83.896
X120.371Y-74.498
X120.422Y-67.996
X120.422Y-71.146
T5
X57.556Y-62.027
X58.42Y-74.117
X58.42Y-76.657
X58.42Y-79.197
X60.096Y-62.027
X60.96Y-74.117
X60.96Y-76.657
X60.96Y-79.197
X62.636Y-62.027
X68.783Y-62.078
X71.323Y-62.078
X73.863Y-62.078
X76.403Y-62.078
X91.378Y-94.996
X96.378Y-94.996
X127.8Y-68.5
X127.8Y-80.5
X140.942Y-84.4
X140.942Y-96.4
X148.2Y-68.55
X148.2Y-80.55
X161.058Y-84.4
X161.058Y-96.4
X168.8Y-68.5
X168.8Y-80.5
X181.785Y-84.45
X181.785Y-96.45
X189.2Y-68.55
X189.2Y-80.55
X202.156Y-84.552
X202.156Y-96.552
T6
X54.863Y-104.815
X54.863Y-109.844
X61.873Y-109.844
X61.924Y-104.815
X125.756Y-100.051
X125.756Y-110.211
X126.01Y-54.382
X126.01Y-64.542
X146.279Y-100.0
X146.279Y-110.16
X146.736Y-54.375
X146.736Y-64.535
X167.208Y-100.051
X167.208Y-110.211
X167.462Y-54.527
X167.462Y-64.687
X187.122Y-54.636
X187.122Y-64.796
X187.173Y-100.051
X187.173Y-110.211
T7
X125.85Y-74.45
X128.692Y-96.45
X128.742Y-84.4
X140.0Y-80.5
X140.05Y-68.45
X142.892Y-90.45
X146.25Y-74.5
X148.808Y-96.45
X148.858Y-84.4
X160.4Y-80.55
X160.45Y-68.5
X163.008Y-90.45
X166.85Y-74.45
X169.535Y-96.5
X169.585Y-84.45
X181.0Y-80.5
X181.05Y-68.45
X183.735Y-90.5
X187.25Y-74.5
X189.906Y-96.602
X189.956Y-84.552
X201.4Y-80.55
X201.45Y-68.5
X204.106Y-90.602
T8
X65.918Y-91.491
X65.943Y-109.83
X68.529Y-91.491
X68.555Y-109.83
X76.581Y-91.491
X76.606Y-109.83
X79.121Y-91.491
X79.146Y-109.83
T9
X84.887Y-73.304
X84.887Y-91.846
T10
X58.42Y-95.656
X58.42Y-100.736
X136.068Y-58.134
X136.119Y-105.988
X141.148Y-58.134
X141.199Y-105.988
X156.998Y-58.039
X157.048Y-106.452
X162.078Y-58.039
X162.128Y-106.452
X177.521Y-58.192
X177.622Y-106.198
X182.601Y-58.192
X182.702Y-106.198
X197.416Y-58.14
X197.587Y-106.248
X202.496Y-58.14
X202.667Y-106.248
T11
X56.636Y-86.36
X59.636Y-91.06
X62.636Y-86.36
T0
M30
