%TF.GenerationSoftware,KiCad,Pcbnew,7.0.7*%
%TF.CreationDate,2024-02-15T10:33:02+01:00*%
%TF.ProjectId,Projektarbete_P3,50726f6a-656b-4746-9172-626574655f50,rev?*%
%TF.SameCoordinates,Original*%
%TF.FileFunction,Copper,L1,Top*%
%TF.FilePolarity,Positive*%
%FSLAX46Y46*%
G04 Gerber Fmt 4.6, Leading zero omitted, Abs format (unit mm)*
G04 Created by KiCad (PCBNEW 7.0.7) date 2024-02-15 10:33:02*
%MOMM*%
%LPD*%
G01*
G04 APERTURE LIST*
G04 Aperture macros list*
%AMRoundRect*
0 Rectangle with rounded corners*
0 $1 Rounding radius*
0 $2 $3 $4 $5 $6 $7 $8 $9 X,Y pos of 4 corners*
0 Add a 4 corners polygon primitive as box body*
4,1,4,$2,$3,$4,$5,$6,$7,$8,$9,$2,$3,0*
0 Add four circle primitives for the rounded corners*
1,1,$1+$1,$2,$3*
1,1,$1+$1,$4,$5*
1,1,$1+$1,$6,$7*
1,1,$1+$1,$8,$9*
0 Add four rect primitives between the rounded corners*
20,1,$1+$1,$2,$3,$4,$5,0*
20,1,$1+$1,$4,$5,$6,$7,0*
20,1,$1+$1,$6,$7,$8,$9,0*
20,1,$1+$1,$8,$9,$2,$3,0*%
G04 Aperture macros list end*
%ADD10C,0.150000*%
%TA.AperFunction,NonConductor*%
%ADD11C,0.150000*%
%TD*%
%TA.AperFunction,ComponentPad*%
%ADD12R,3.000000X3.000000*%
%TD*%
%TA.AperFunction,ComponentPad*%
%ADD13C,3.000000*%
%TD*%
%TA.AperFunction,ComponentPad*%
%ADD14R,1.050000X1.500000*%
%TD*%
%TA.AperFunction,ComponentPad*%
%ADD15O,1.050000X1.500000*%
%TD*%
%TA.AperFunction,ComponentPad*%
%ADD16C,1.600000*%
%TD*%
%TA.AperFunction,ComponentPad*%
%ADD17O,1.600000X1.600000*%
%TD*%
%TA.AperFunction,ComponentPad*%
%ADD18C,2.000000*%
%TD*%
%TA.AperFunction,ComponentPad*%
%ADD19C,2.500000*%
%TD*%
%TA.AperFunction,ComponentPad*%
%ADD20R,1.700000X1.700000*%
%TD*%
%TA.AperFunction,ComponentPad*%
%ADD21O,1.700000X1.700000*%
%TD*%
%TA.AperFunction,ComponentPad*%
%ADD22C,1.700000*%
%TD*%
%TA.AperFunction,ComponentPad*%
%ADD23RoundRect,0.625000X-0.625000X0.625000X-0.625000X-0.625000X0.625000X-0.625000X0.625000X0.625000X0*%
%TD*%
%TA.AperFunction,ComponentPad*%
%ADD24R,2.200000X2.200000*%
%TD*%
%TA.AperFunction,ComponentPad*%
%ADD25O,2.200000X2.200000*%
%TD*%
%TA.AperFunction,ComponentPad*%
%ADD26R,2.600000X2.600000*%
%TD*%
%TA.AperFunction,ComponentPad*%
%ADD27C,2.600000*%
%TD*%
%TA.AperFunction,ComponentPad*%
%ADD28C,1.000000*%
%TD*%
%TA.AperFunction,ComponentPad*%
%ADD29C,1.400000*%
%TD*%
%TA.AperFunction,ComponentPad*%
%ADD30R,1.600000X1.600000*%
%TD*%
%TA.AperFunction,Conductor*%
%ADD31C,1.000000*%
%TD*%
%TA.AperFunction,Conductor*%
%ADD32C,0.250000*%
%TD*%
G04 APERTURE END LIST*
D10*
D11*
X57953522Y-50635019D02*
X58524950Y-50635019D01*
X58239236Y-51635019D02*
X58239236Y-50635019D01*
X59001141Y-51635019D02*
X58905903Y-51587400D01*
X58905903Y-51587400D02*
X58858284Y-51539780D01*
X58858284Y-51539780D02*
X58810665Y-51444542D01*
X58810665Y-51444542D02*
X58810665Y-51158828D01*
X58810665Y-51158828D02*
X58858284Y-51063590D01*
X58858284Y-51063590D02*
X58905903Y-51015971D01*
X58905903Y-51015971D02*
X59001141Y-50968352D01*
X59001141Y-50968352D02*
X59143998Y-50968352D01*
X59143998Y-50968352D02*
X59239236Y-51015971D01*
X59239236Y-51015971D02*
X59286855Y-51063590D01*
X59286855Y-51063590D02*
X59334474Y-51158828D01*
X59334474Y-51158828D02*
X59334474Y-51444542D01*
X59334474Y-51444542D02*
X59286855Y-51539780D01*
X59286855Y-51539780D02*
X59239236Y-51587400D01*
X59239236Y-51587400D02*
X59143998Y-51635019D01*
X59143998Y-51635019D02*
X59001141Y-51635019D01*
X59763046Y-51635019D02*
X59763046Y-50968352D01*
X59763046Y-51063590D02*
X59810665Y-51015971D01*
X59810665Y-51015971D02*
X59905903Y-50968352D01*
X59905903Y-50968352D02*
X60048760Y-50968352D01*
X60048760Y-50968352D02*
X60143998Y-51015971D01*
X60143998Y-51015971D02*
X60191617Y-51111209D01*
X60191617Y-51111209D02*
X60191617Y-51635019D01*
X60191617Y-51111209D02*
X60239236Y-51015971D01*
X60239236Y-51015971D02*
X60334474Y-50968352D01*
X60334474Y-50968352D02*
X60477331Y-50968352D01*
X60477331Y-50968352D02*
X60572570Y-51015971D01*
X60572570Y-51015971D02*
X60620189Y-51111209D01*
X60620189Y-51111209D02*
X60620189Y-51635019D01*
X61096379Y-51635019D02*
X61096379Y-50968352D01*
X61096379Y-51063590D02*
X61143998Y-51015971D01*
X61143998Y-51015971D02*
X61239236Y-50968352D01*
X61239236Y-50968352D02*
X61382093Y-50968352D01*
X61382093Y-50968352D02*
X61477331Y-51015971D01*
X61477331Y-51015971D02*
X61524950Y-51111209D01*
X61524950Y-51111209D02*
X61524950Y-51635019D01*
X61524950Y-51111209D02*
X61572569Y-51015971D01*
X61572569Y-51015971D02*
X61667807Y-50968352D01*
X61667807Y-50968352D02*
X61810664Y-50968352D01*
X61810664Y-50968352D02*
X61905903Y-51015971D01*
X61905903Y-51015971D02*
X61953522Y-51111209D01*
X61953522Y-51111209D02*
X61953522Y-51635019D01*
X62334474Y-50968352D02*
X62572569Y-51635019D01*
X62810664Y-50968352D02*
X62572569Y-51635019D01*
X62572569Y-51635019D02*
X62477331Y-51873114D01*
X62477331Y-51873114D02*
X62429712Y-51920733D01*
X62429712Y-51920733D02*
X62334474Y-51968352D01*
X63048760Y-50968352D02*
X63429712Y-50968352D01*
X63191617Y-50635019D02*
X63191617Y-51492161D01*
X63191617Y-51492161D02*
X63239236Y-51587400D01*
X63239236Y-51587400D02*
X63334474Y-51635019D01*
X63334474Y-51635019D02*
X63429712Y-51635019D01*
X64143998Y-51587400D02*
X64048760Y-51635019D01*
X64048760Y-51635019D02*
X63858284Y-51635019D01*
X63858284Y-51635019D02*
X63763046Y-51587400D01*
X63763046Y-51587400D02*
X63715427Y-51492161D01*
X63715427Y-51492161D02*
X63715427Y-51111209D01*
X63715427Y-51111209D02*
X63763046Y-51015971D01*
X63763046Y-51015971D02*
X63858284Y-50968352D01*
X63858284Y-50968352D02*
X64048760Y-50968352D01*
X64048760Y-50968352D02*
X64143998Y-51015971D01*
X64143998Y-51015971D02*
X64191617Y-51111209D01*
X64191617Y-51111209D02*
X64191617Y-51206447D01*
X64191617Y-51206447D02*
X63715427Y-51301685D01*
X65001141Y-51587400D02*
X64905903Y-51635019D01*
X64905903Y-51635019D02*
X64715427Y-51635019D01*
X64715427Y-51635019D02*
X64620189Y-51587400D01*
X64620189Y-51587400D02*
X64572570Y-51492161D01*
X64572570Y-51492161D02*
X64572570Y-51111209D01*
X64572570Y-51111209D02*
X64620189Y-51015971D01*
X64620189Y-51015971D02*
X64715427Y-50968352D01*
X64715427Y-50968352D02*
X64905903Y-50968352D01*
X64905903Y-50968352D02*
X65001141Y-51015971D01*
X65001141Y-51015971D02*
X65048760Y-51111209D01*
X65048760Y-51111209D02*
X65048760Y-51206447D01*
X65048760Y-51206447D02*
X64572570Y-51301685D01*
X65429713Y-51587400D02*
X65524951Y-51635019D01*
X65524951Y-51635019D02*
X65715427Y-51635019D01*
X65715427Y-51635019D02*
X65810665Y-51587400D01*
X65810665Y-51587400D02*
X65858284Y-51492161D01*
X65858284Y-51492161D02*
X65858284Y-51444542D01*
X65858284Y-51444542D02*
X65810665Y-51349304D01*
X65810665Y-51349304D02*
X65715427Y-51301685D01*
X65715427Y-51301685D02*
X65572570Y-51301685D01*
X65572570Y-51301685D02*
X65477332Y-51254066D01*
X65477332Y-51254066D02*
X65429713Y-51158828D01*
X65429713Y-51158828D02*
X65429713Y-51111209D01*
X65429713Y-51111209D02*
X65477332Y-51015971D01*
X65477332Y-51015971D02*
X65572570Y-50968352D01*
X65572570Y-50968352D02*
X65715427Y-50968352D01*
X65715427Y-50968352D02*
X65810665Y-51015971D01*
X67477332Y-51587400D02*
X67382094Y-51635019D01*
X67382094Y-51635019D02*
X67191618Y-51635019D01*
X67191618Y-51635019D02*
X67096380Y-51587400D01*
X67096380Y-51587400D02*
X67048761Y-51539780D01*
X67048761Y-51539780D02*
X67001142Y-51444542D01*
X67001142Y-51444542D02*
X67001142Y-51158828D01*
X67001142Y-51158828D02*
X67048761Y-51063590D01*
X67048761Y-51063590D02*
X67096380Y-51015971D01*
X67096380Y-51015971D02*
X67191618Y-50968352D01*
X67191618Y-50968352D02*
X67382094Y-50968352D01*
X67382094Y-50968352D02*
X67477332Y-51015971D01*
X68048761Y-51635019D02*
X67953523Y-51587400D01*
X67953523Y-51587400D02*
X67905904Y-51539780D01*
X67905904Y-51539780D02*
X67858285Y-51444542D01*
X67858285Y-51444542D02*
X67858285Y-51158828D01*
X67858285Y-51158828D02*
X67905904Y-51063590D01*
X67905904Y-51063590D02*
X67953523Y-51015971D01*
X67953523Y-51015971D02*
X68048761Y-50968352D01*
X68048761Y-50968352D02*
X68191618Y-50968352D01*
X68191618Y-50968352D02*
X68286856Y-51015971D01*
X68286856Y-51015971D02*
X68334475Y-51063590D01*
X68334475Y-51063590D02*
X68382094Y-51158828D01*
X68382094Y-51158828D02*
X68382094Y-51444542D01*
X68382094Y-51444542D02*
X68334475Y-51539780D01*
X68334475Y-51539780D02*
X68286856Y-51587400D01*
X68286856Y-51587400D02*
X68191618Y-51635019D01*
X68191618Y-51635019D02*
X68048761Y-51635019D01*
X68953523Y-51635019D02*
X68858285Y-51587400D01*
X68858285Y-51587400D02*
X68810666Y-51539780D01*
X68810666Y-51539780D02*
X68763047Y-51444542D01*
X68763047Y-51444542D02*
X68763047Y-51158828D01*
X68763047Y-51158828D02*
X68810666Y-51063590D01*
X68810666Y-51063590D02*
X68858285Y-51015971D01*
X68858285Y-51015971D02*
X68953523Y-50968352D01*
X68953523Y-50968352D02*
X69096380Y-50968352D01*
X69096380Y-50968352D02*
X69191618Y-51015971D01*
X69191618Y-51015971D02*
X69239237Y-51063590D01*
X69239237Y-51063590D02*
X69286856Y-51158828D01*
X69286856Y-51158828D02*
X69286856Y-51444542D01*
X69286856Y-51444542D02*
X69239237Y-51539780D01*
X69239237Y-51539780D02*
X69191618Y-51587400D01*
X69191618Y-51587400D02*
X69096380Y-51635019D01*
X69096380Y-51635019D02*
X68953523Y-51635019D01*
X69858285Y-51635019D02*
X69763047Y-51587400D01*
X69763047Y-51587400D02*
X69715428Y-51492161D01*
X69715428Y-51492161D02*
X69715428Y-50635019D01*
X71001143Y-51635019D02*
X71001143Y-50635019D01*
X71429714Y-51635019D02*
X71429714Y-51111209D01*
X71429714Y-51111209D02*
X71382095Y-51015971D01*
X71382095Y-51015971D02*
X71286857Y-50968352D01*
X71286857Y-50968352D02*
X71144000Y-50968352D01*
X71144000Y-50968352D02*
X71048762Y-51015971D01*
X71048762Y-51015971D02*
X71001143Y-51063590D01*
X72048762Y-51635019D02*
X71953524Y-51587400D01*
X71953524Y-51587400D02*
X71905905Y-51539780D01*
X71905905Y-51539780D02*
X71858286Y-51444542D01*
X71858286Y-51444542D02*
X71858286Y-51158828D01*
X71858286Y-51158828D02*
X71905905Y-51063590D01*
X71905905Y-51063590D02*
X71953524Y-51015971D01*
X71953524Y-51015971D02*
X72048762Y-50968352D01*
X72048762Y-50968352D02*
X72191619Y-50968352D01*
X72191619Y-50968352D02*
X72286857Y-51015971D01*
X72286857Y-51015971D02*
X72334476Y-51063590D01*
X72334476Y-51063590D02*
X72382095Y-51158828D01*
X72382095Y-51158828D02*
X72382095Y-51444542D01*
X72382095Y-51444542D02*
X72334476Y-51539780D01*
X72334476Y-51539780D02*
X72286857Y-51587400D01*
X72286857Y-51587400D02*
X72191619Y-51635019D01*
X72191619Y-51635019D02*
X72048762Y-51635019D01*
X72810667Y-51635019D02*
X72810667Y-50968352D01*
X72810667Y-51158828D02*
X72858286Y-51063590D01*
X72858286Y-51063590D02*
X72905905Y-51015971D01*
X72905905Y-51015971D02*
X73001143Y-50968352D01*
X73001143Y-50968352D02*
X73096381Y-50968352D01*
X73382096Y-51587400D02*
X73477334Y-51635019D01*
X73477334Y-51635019D02*
X73667810Y-51635019D01*
X73667810Y-51635019D02*
X73763048Y-51587400D01*
X73763048Y-51587400D02*
X73810667Y-51492161D01*
X73810667Y-51492161D02*
X73810667Y-51444542D01*
X73810667Y-51444542D02*
X73763048Y-51349304D01*
X73763048Y-51349304D02*
X73667810Y-51301685D01*
X73667810Y-51301685D02*
X73524953Y-51301685D01*
X73524953Y-51301685D02*
X73429715Y-51254066D01*
X73429715Y-51254066D02*
X73382096Y-51158828D01*
X73382096Y-51158828D02*
X73382096Y-51111209D01*
X73382096Y-51111209D02*
X73429715Y-51015971D01*
X73429715Y-51015971D02*
X73524953Y-50968352D01*
X73524953Y-50968352D02*
X73667810Y-50968352D01*
X73667810Y-50968352D02*
X73763048Y-51015971D01*
X74620191Y-51587400D02*
X74524953Y-51635019D01*
X74524953Y-51635019D02*
X74334477Y-51635019D01*
X74334477Y-51635019D02*
X74239239Y-51587400D01*
X74239239Y-51587400D02*
X74191620Y-51492161D01*
X74191620Y-51492161D02*
X74191620Y-51111209D01*
X74191620Y-51111209D02*
X74239239Y-51015971D01*
X74239239Y-51015971D02*
X74334477Y-50968352D01*
X74334477Y-50968352D02*
X74524953Y-50968352D01*
X74524953Y-50968352D02*
X74620191Y-51015971D01*
X74620191Y-51015971D02*
X74667810Y-51111209D01*
X74667810Y-51111209D02*
X74667810Y-51206447D01*
X74667810Y-51206447D02*
X74191620Y-51301685D01*
X74953525Y-50968352D02*
X75334477Y-50968352D01*
X75096382Y-51635019D02*
X75096382Y-50777876D01*
X75096382Y-50777876D02*
X75144001Y-50682638D01*
X75144001Y-50682638D02*
X75239239Y-50635019D01*
X75239239Y-50635019D02*
X75334477Y-50635019D01*
X76048763Y-51587400D02*
X75953525Y-51635019D01*
X75953525Y-51635019D02*
X75763049Y-51635019D01*
X75763049Y-51635019D02*
X75667811Y-51587400D01*
X75667811Y-51587400D02*
X75620192Y-51492161D01*
X75620192Y-51492161D02*
X75620192Y-51111209D01*
X75620192Y-51111209D02*
X75667811Y-51015971D01*
X75667811Y-51015971D02*
X75763049Y-50968352D01*
X75763049Y-50968352D02*
X75953525Y-50968352D01*
X75953525Y-50968352D02*
X76048763Y-51015971D01*
X76048763Y-51015971D02*
X76096382Y-51111209D01*
X76096382Y-51111209D02*
X76096382Y-51206447D01*
X76096382Y-51206447D02*
X75620192Y-51301685D01*
X76905906Y-51587400D02*
X76810668Y-51635019D01*
X76810668Y-51635019D02*
X76620192Y-51635019D01*
X76620192Y-51635019D02*
X76524954Y-51587400D01*
X76524954Y-51587400D02*
X76477335Y-51492161D01*
X76477335Y-51492161D02*
X76477335Y-51111209D01*
X76477335Y-51111209D02*
X76524954Y-51015971D01*
X76524954Y-51015971D02*
X76620192Y-50968352D01*
X76620192Y-50968352D02*
X76810668Y-50968352D01*
X76810668Y-50968352D02*
X76905906Y-51015971D01*
X76905906Y-51015971D02*
X76953525Y-51111209D01*
X76953525Y-51111209D02*
X76953525Y-51206447D01*
X76953525Y-51206447D02*
X76477335Y-51301685D01*
X77810668Y-51635019D02*
X77810668Y-50635019D01*
X77810668Y-51587400D02*
X77715430Y-51635019D01*
X77715430Y-51635019D02*
X77524954Y-51635019D01*
X77524954Y-51635019D02*
X77429716Y-51587400D01*
X77429716Y-51587400D02*
X77382097Y-51539780D01*
X77382097Y-51539780D02*
X77334478Y-51444542D01*
X77334478Y-51444542D02*
X77334478Y-51158828D01*
X77334478Y-51158828D02*
X77382097Y-51063590D01*
X77382097Y-51063590D02*
X77429716Y-51015971D01*
X77429716Y-51015971D02*
X77524954Y-50968352D01*
X77524954Y-50968352D02*
X77715430Y-50968352D01*
X77715430Y-50968352D02*
X77810668Y-51015971D01*
X78667811Y-51587400D02*
X78572573Y-51635019D01*
X78572573Y-51635019D02*
X78382097Y-51635019D01*
X78382097Y-51635019D02*
X78286859Y-51587400D01*
X78286859Y-51587400D02*
X78239240Y-51492161D01*
X78239240Y-51492161D02*
X78239240Y-51111209D01*
X78239240Y-51111209D02*
X78286859Y-51015971D01*
X78286859Y-51015971D02*
X78382097Y-50968352D01*
X78382097Y-50968352D02*
X78572573Y-50968352D01*
X78572573Y-50968352D02*
X78667811Y-51015971D01*
X78667811Y-51015971D02*
X78715430Y-51111209D01*
X78715430Y-51111209D02*
X78715430Y-51206447D01*
X78715430Y-51206447D02*
X78239240Y-51301685D01*
X79144002Y-51635019D02*
X79144002Y-50968352D01*
X79144002Y-51158828D02*
X79191621Y-51063590D01*
X79191621Y-51063590D02*
X79239240Y-51015971D01*
X79239240Y-51015971D02*
X79334478Y-50968352D01*
X79334478Y-50968352D02*
X79429716Y-50968352D01*
D12*
%TO.P,J2,1,Pin_1*%
%TO.N,Net-(J2-Pin_1)*%
X202666800Y-106248400D03*
D13*
%TO.P,J2,2,Pin_2*%
%TO.N,GND*%
X197586800Y-106248400D03*
%TD*%
D14*
%TO.P,Q4,1,C*%
%TO.N,Net-(D4-A)*%
X170764400Y-55956400D03*
D15*
%TO.P,Q4,2,B*%
%TO.N,Net-(Q4-B)*%
X172034400Y-55956400D03*
%TO.P,Q4,3,E*%
%TO.N,GND*%
X173304400Y-55956400D03*
%TD*%
D14*
%TO.P,Q2,1,C*%
%TO.N,Net-(D2-A)*%
X190595600Y-109543200D03*
D15*
%TO.P,Q2,2,B*%
%TO.N,Net-(Q2-B)*%
X191865600Y-109543200D03*
%TO.P,Q2,3,E*%
%TO.N,GND*%
X193135600Y-109543200D03*
%TD*%
D16*
%TO.P,R9,1*%
%TO.N,+5V*%
X115240000Y-102997200D03*
D17*
%TO.P,R9,2*%
%TO.N,/Resetbutton*%
X115240000Y-92837200D03*
%TD*%
D16*
%TO.P,R10,1*%
%TO.N,+5V*%
X91236800Y-59334400D03*
D17*
%TO.P,R10,2*%
%TO.N,/AnalogPin4{slash}SDA*%
X81076800Y-59334400D03*
%TD*%
D18*
%TO.P,SW1,1,1*%
%TO.N,Net-(C1-Pad2)*%
X61873200Y-109844400D03*
%TO.P,SW1,2,2*%
%TO.N,GND*%
X54862800Y-109844400D03*
%TO.P,SW1,3,K*%
%TO.N,/Resetbutton*%
X54862800Y-104815200D03*
%TO.P,SW1,4,A*%
%TO.N,Net-(SW1-A)*%
X61924000Y-104815200D03*
%TD*%
D12*
%TO.P,J1,1,Pin_1*%
%TO.N,Net-(J1-Pin_1)*%
X197416000Y-58140200D03*
D13*
%TO.P,J1,2,Pin_2*%
%TO.N,GND*%
X202496000Y-58140200D03*
%TD*%
D16*
%TO.P,R12,1*%
%TO.N,+5V*%
X81026000Y-56134000D03*
D17*
%TO.P,R12,2*%
%TO.N,/AnalogPin0*%
X91186000Y-56134000D03*
%TD*%
D13*
%TO.P,K5,1*%
%TO.N,/Power_input*%
X163008400Y-90449600D03*
D19*
%TO.P,K5,2*%
%TO.N,Net-(D5-A)*%
X161058400Y-84399600D03*
D13*
%TO.P,K5,3*%
%TO.N,unconnected-(K5-Pad3)*%
X148858400Y-84399600D03*
%TO.P,K5,4*%
%TO.N,Net-(J5-Pin_1)*%
X148808400Y-96449600D03*
D19*
%TO.P,K5,5*%
%TO.N,+5V*%
X161058400Y-96399600D03*
%TD*%
D13*
%TO.P,K6,1*%
%TO.N,/Power_input*%
X146250000Y-74500000D03*
D19*
%TO.P,K6,2*%
%TO.N,Net-(D6-A)*%
X148200000Y-80550000D03*
D13*
%TO.P,K6,3*%
%TO.N,unconnected-(K6-Pad3)*%
X160400000Y-80550000D03*
%TO.P,K6,4*%
%TO.N,Net-(J6-Pin_1)*%
X160450000Y-68500000D03*
D19*
%TO.P,K6,5*%
%TO.N,+5V*%
X148200000Y-68550000D03*
%TD*%
D16*
%TO.P,R11,1*%
%TO.N,+5V*%
X91236800Y-62433200D03*
D17*
%TO.P,R11,2*%
%TO.N,/AnalogPin5{slash}SCL*%
X81076800Y-62433200D03*
%TD*%
D13*
%TO.P,K8,1*%
%TO.N,/Power_input*%
X125850000Y-74450000D03*
D19*
%TO.P,K8,2*%
%TO.N,Net-(D8-A)*%
X127800000Y-80500000D03*
D13*
%TO.P,K8,3*%
%TO.N,unconnected-(K8-Pad3)*%
X140000000Y-80500000D03*
%TO.P,K8,4*%
%TO.N,Net-(J8-Pin_1)*%
X140050000Y-68450000D03*
D19*
%TO.P,K8,5*%
%TO.N,+5V*%
X127800000Y-68500000D03*
%TD*%
D20*
%TO.P,J12,1,Pin_1*%
%TO.N,+5V*%
X57556400Y-62026800D03*
D21*
%TO.P,J12,2,Pin_2*%
%TO.N,/AnalogPin0*%
X60096400Y-62026800D03*
%TO.P,J12,3,Pin_3*%
%TO.N,GND*%
X62636400Y-62026800D03*
%TD*%
D14*
%TO.P,Q6,1,C*%
%TO.N,Net-(D6-A)*%
X150057200Y-55796800D03*
D15*
%TO.P,Q6,2,B*%
%TO.N,Net-(Q6-B)*%
X151327200Y-55796800D03*
%TO.P,Q6,3,E*%
%TO.N,GND*%
X152597200Y-55796800D03*
%TD*%
D14*
%TO.P,Q5,1,C*%
%TO.N,Net-(D5-A)*%
X150057200Y-109187600D03*
D15*
%TO.P,Q5,2,B*%
%TO.N,Net-(Q5-B)*%
X151327200Y-109187600D03*
%TO.P,Q5,3,E*%
%TO.N,GND*%
X152597200Y-109187600D03*
%TD*%
D22*
%TO.P,Y1,1,1*%
%TO.N,/XTAL2{slash}TOSC2*%
X96378400Y-94996000D03*
%TO.P,Y1,2,2*%
%TO.N,/XTAL1{slash}TOSC1*%
X91378400Y-94996000D03*
%TD*%
D14*
%TO.P,Q3,1,C*%
%TO.N,Net-(D3-A)*%
X170916800Y-109804400D03*
D15*
%TO.P,Q3,2,B*%
%TO.N,Net-(Q3-B)*%
X172186800Y-109804400D03*
%TO.P,Q3,3,E*%
%TO.N,GND*%
X173456800Y-109804400D03*
%TD*%
D23*
%TO.P,Volt_regulator1,1,INPUT-*%
%TO.N,Net-(BJ1-Pad3)*%
X79121000Y-91490800D03*
D19*
%TO.P,Volt_regulator1,2,INPUT-*%
X76581000Y-91490800D03*
%TO.P,Volt_regulator1,3,INPUT+*%
%TO.N,/Power_input*%
X68529200Y-91490800D03*
%TO.P,Volt_regulator1,4,INPUT+*%
X65918000Y-91490800D03*
%TO.P,Volt_regulator1,5,OUTPUT-*%
%TO.N,GND*%
X79146400Y-109829600D03*
%TO.P,Volt_regulator1,6,OUTPUT-*%
X76606400Y-109829600D03*
%TO.P,Volt_regulator1,7,OUTPUT+*%
%TO.N,+5V*%
X68554600Y-109829600D03*
%TO.P,Volt_regulator1,8,OUTPUT+*%
X65943400Y-109829600D03*
%TD*%
D12*
%TO.P,J3,1,Pin_1*%
%TO.N,Net-(J3-Pin_1)*%
X182702400Y-106197600D03*
D13*
%TO.P,J3,2,Pin_2*%
%TO.N,GND*%
X177622400Y-106197600D03*
%TD*%
D16*
%TO.P,R6,1*%
%TO.N,/DIG_I{slash}O6*%
X110261600Y-71145600D03*
D17*
%TO.P,R6,2*%
%TO.N,Net-(Q6-B)*%
X120421600Y-71145600D03*
%TD*%
D24*
%TO.P,D3,1,K*%
%TO.N,+5V*%
X167208400Y-100050800D03*
D25*
%TO.P,D3,2,A*%
%TO.N,Net-(D3-A)*%
X167208400Y-110210800D03*
%TD*%
D26*
%TO.P,BJ1,1*%
%TO.N,/Power_input*%
X62636400Y-86360000D03*
D27*
%TO.P,BJ1,2*%
%TO.N,Net-(J9-Pin_1)*%
X56636400Y-86360000D03*
%TO.P,BJ1,3*%
%TO.N,Net-(BJ1-Pad3)*%
X59636400Y-91060000D03*
%TD*%
D16*
%TO.P,R5,1*%
%TO.N,/DIG_I{slash}O1*%
X110109200Y-87046000D03*
D17*
%TO.P,R5,2*%
%TO.N,Net-(Q5-B)*%
X120269200Y-87046000D03*
%TD*%
D12*
%TO.P,J4,1,Pin_1*%
%TO.N,Net-(J4-Pin_1)*%
X177520800Y-58191600D03*
D13*
%TO.P,J4,2,Pin_2*%
%TO.N,GND*%
X182600800Y-58191600D03*
%TD*%
D28*
%TO.P,Y2,1,1*%
%TO.N,/X2-Crystal*%
X83566000Y-104077200D03*
%TO.P,Y2,2,2*%
%TO.N,/X1-Crystal*%
X83566000Y-102577200D03*
%TD*%
D12*
%TO.P,J7,1,Pin_1*%
%TO.N,Net-(J7-Pin_1)*%
X141198800Y-105987800D03*
D13*
%TO.P,J7,2,Pin_2*%
%TO.N,GND*%
X136118800Y-105987800D03*
%TD*%
D29*
%TO.P,C1,1*%
%TO.N,Net-(SW1-A)*%
X82550000Y-109931200D03*
%TO.P,C1,2*%
%TO.N,Net-(C1-Pad2)*%
X85050000Y-109931200D03*
%TD*%
D13*
%TO.P,K3,1*%
%TO.N,/Power_input*%
X183734800Y-90500400D03*
D19*
%TO.P,K3,2*%
%TO.N,Net-(D3-A)*%
X181784800Y-84450400D03*
D13*
%TO.P,K3,3*%
%TO.N,unconnected-(K3-Pad3)*%
X169584800Y-84450400D03*
%TO.P,K3,4*%
%TO.N,Net-(J3-Pin_1)*%
X169534800Y-96500400D03*
D19*
%TO.P,K3,5*%
%TO.N,+5V*%
X181784800Y-96450400D03*
%TD*%
D14*
%TO.P,Q8,1,C*%
%TO.N,Net-(D8-A)*%
X129330800Y-55796800D03*
D15*
%TO.P,Q8,2,B*%
%TO.N,Net-(Q8-B)*%
X130600800Y-55796800D03*
%TO.P,Q8,3,E*%
%TO.N,GND*%
X131870800Y-55796800D03*
%TD*%
D16*
%TO.P,R13,1*%
%TO.N,+5V*%
X107899200Y-103530400D03*
D17*
%TO.P,R13,2*%
%TO.N,Net-(U2-SQW{slash}OUT)*%
X97739200Y-103530400D03*
%TD*%
D20*
%TO.P,J11,1,MISO*%
%TO.N,/MISO*%
X60960000Y-79197200D03*
D21*
%TO.P,J11,2,VCC*%
%TO.N,+5V*%
X58420000Y-79197200D03*
%TO.P,J11,3,SCK*%
%TO.N,/SCK*%
X60960000Y-76657200D03*
%TO.P,J11,4,MOSI*%
%TO.N,/MOSI{slash}OC2A*%
X58420000Y-76657200D03*
%TO.P,J11,5,~{RST}*%
%TO.N,/Resetbutton*%
X60960000Y-74117200D03*
%TO.P,J11,6,GND*%
%TO.N,GND*%
X58420000Y-74117200D03*
%TD*%
D24*
%TO.P,D4,1,K*%
%TO.N,+5V*%
X167462400Y-64687400D03*
D25*
%TO.P,D4,2,A*%
%TO.N,Net-(D4-A)*%
X167462400Y-54527400D03*
%TD*%
D24*
%TO.P,D2,1,K*%
%TO.N,+5V*%
X187172800Y-100050800D03*
D25*
%TO.P,D2,2,A*%
%TO.N,Net-(D2-A)*%
X187172800Y-110210800D03*
%TD*%
D24*
%TO.P,D1,1,K*%
%TO.N,+5V*%
X187122000Y-64795600D03*
D25*
%TO.P,D1,2,A*%
%TO.N,Net-(D1-A)*%
X187122000Y-54635600D03*
%TD*%
D12*
%TO.P,J8,1,Pin_1*%
%TO.N,Net-(J8-Pin_1)*%
X136068000Y-58134200D03*
D13*
%TO.P,J8,2,Pin_2*%
%TO.N,GND*%
X141148000Y-58134200D03*
%TD*%
D29*
%TO.P,C3,1*%
%TO.N,/XTAL2{slash}TOSC2*%
X96977200Y-91420000D03*
%TO.P,C3,2*%
%TO.N,GND*%
X96977200Y-88920000D03*
%TD*%
D12*
%TO.P,J9,1,Pin_1*%
%TO.N,Net-(J9-Pin_1)*%
X58420000Y-100736400D03*
D13*
%TO.P,J9,2,Pin_2*%
%TO.N,GND*%
X58420000Y-95656400D03*
%TD*%
%TO.P,K1,1*%
%TO.N,/Power_input*%
X187250000Y-74500000D03*
D19*
%TO.P,K1,2*%
%TO.N,Net-(D1-A)*%
X189200000Y-80550000D03*
D13*
%TO.P,K1,3*%
%TO.N,unconnected-(K1-Pad3)*%
X201400000Y-80550000D03*
%TO.P,K1,4*%
%TO.N,Net-(J1-Pin_1)*%
X201450000Y-68500000D03*
D19*
%TO.P,K1,5*%
%TO.N,+5V*%
X189200000Y-68550000D03*
%TD*%
D14*
%TO.P,Q7,1,C*%
%TO.N,Net-(D7-A)*%
X129330800Y-109340000D03*
D15*
%TO.P,Q7,2,B*%
%TO.N,Net-(Q7-B)*%
X130600800Y-109340000D03*
%TO.P,Q7,3,E*%
%TO.N,GND*%
X131870800Y-109340000D03*
%TD*%
D12*
%TO.P,J6,1,Pin_1*%
%TO.N,Net-(J6-Pin_1)*%
X156997600Y-58039200D03*
D13*
%TO.P,J6,2,Pin_2*%
%TO.N,GND*%
X162077600Y-58039200D03*
%TD*%
D20*
%TO.P,J10,1,Pin_1*%
%TO.N,GND*%
X68783200Y-62077600D03*
D21*
%TO.P,J10,2,Pin_2*%
%TO.N,+5V*%
X71323200Y-62077600D03*
%TO.P,J10,3,Pin_3*%
%TO.N,/AnalogPin4{slash}SDA*%
X73863200Y-62077600D03*
%TO.P,J10,4,Pin_4*%
%TO.N,/AnalogPin5{slash}SCL*%
X76403200Y-62077600D03*
%TD*%
D16*
%TO.P,R2,1*%
%TO.N,/DIG_I{slash}O3*%
X110160000Y-80696000D03*
D17*
%TO.P,R2,2*%
%TO.N,Net-(Q2-B)*%
X120320000Y-80696000D03*
%TD*%
D16*
%TO.P,R8,1*%
%TO.N,/DIG_I{slash}O7*%
X110261600Y-67996000D03*
D17*
%TO.P,R8,2*%
%TO.N,Net-(Q8-B)*%
X120421600Y-67996000D03*
%TD*%
D24*
%TO.P,D8,1,K*%
%TO.N,+5V*%
X126009600Y-64541600D03*
D25*
%TO.P,D8,2,A*%
%TO.N,Net-(D8-A)*%
X126009600Y-54381600D03*
%TD*%
D16*
%TO.P,R4,1*%
%TO.N,/DIG_I{slash}O5*%
X110210800Y-74498400D03*
D17*
%TO.P,R4,2*%
%TO.N,Net-(Q4-B)*%
X120370800Y-74498400D03*
%TD*%
D12*
%TO.P,BT1,1,+*%
%TO.N,Net-(BT1-+)*%
X84886800Y-91846400D03*
D13*
%TO.P,BT1,2,-*%
%TO.N,GND*%
X84886800Y-73304400D03*
%TD*%
D14*
%TO.P,Q1,1,C*%
%TO.N,Net-(D1-A)*%
X190525600Y-55905600D03*
D15*
%TO.P,Q1,2,B*%
%TO.N,Net-(Q1-B)*%
X191795600Y-55905600D03*
%TO.P,Q1,3,E*%
%TO.N,GND*%
X193065600Y-55905600D03*
%TD*%
D24*
%TO.P,D6,1,K*%
%TO.N,+5V*%
X146736000Y-64535000D03*
D25*
%TO.P,D6,2,A*%
%TO.N,Net-(D6-A)*%
X146736000Y-54375000D03*
%TD*%
D24*
%TO.P,D7,1,K*%
%TO.N,+5V*%
X125755600Y-100050800D03*
D25*
%TO.P,D7,2,A*%
%TO.N,Net-(D7-A)*%
X125755600Y-110210800D03*
%TD*%
D16*
%TO.P,R1,1*%
%TO.N,/DIG_I{slash}O4*%
X110160000Y-77597200D03*
D17*
%TO.P,R1,2*%
%TO.N,Net-(Q1-B)*%
X120320000Y-77597200D03*
%TD*%
D24*
%TO.P,D5,1,K*%
%TO.N,+5V*%
X146278800Y-100000000D03*
D25*
%TO.P,D5,2,A*%
%TO.N,Net-(D5-A)*%
X146278800Y-110160000D03*
%TD*%
D13*
%TO.P,K7,1*%
%TO.N,/Power_input*%
X142891600Y-90449600D03*
D19*
%TO.P,K7,2*%
%TO.N,Net-(D7-A)*%
X140941600Y-84399600D03*
D13*
%TO.P,K7,3*%
%TO.N,unconnected-(K7-Pad3)*%
X128741600Y-84399600D03*
%TO.P,K7,4*%
%TO.N,Net-(J7-Pin_1)*%
X128691600Y-96449600D03*
D19*
%TO.P,K7,5*%
%TO.N,+5V*%
X140941600Y-96399600D03*
%TD*%
D13*
%TO.P,K4,1*%
%TO.N,/Power_input*%
X166850000Y-74450000D03*
D19*
%TO.P,K4,2*%
%TO.N,Net-(D4-A)*%
X168800000Y-80500000D03*
D13*
%TO.P,K4,3*%
%TO.N,unconnected-(K4-Pad3)*%
X181000000Y-80500000D03*
%TO.P,K4,4*%
%TO.N,Net-(J4-Pin_1)*%
X181050000Y-68450000D03*
D19*
%TO.P,K4,5*%
%TO.N,+5V*%
X168800000Y-68500000D03*
%TD*%
D30*
%TO.P,U1,1,~{RESET}/PC6*%
%TO.N,/Resetbutton*%
X107467600Y-95732800D03*
D17*
%TO.P,U1,2,PD0*%
%TO.N,/DIG_I{slash}O0*%
X107467600Y-93192800D03*
%TO.P,U1,3,PD1*%
%TO.N,/DIG_I{slash}O1*%
X107467600Y-90652800D03*
%TO.P,U1,4,PD2*%
%TO.N,/DIG_I{slash}O2*%
X107467600Y-88112800D03*
%TO.P,U1,5,PD3*%
%TO.N,/DIG_I{slash}O3*%
X107467600Y-85572800D03*
%TO.P,U1,6,PD4*%
%TO.N,/DIG_I{slash}O4*%
X107467600Y-83032800D03*
%TO.P,U1,7,VCC*%
%TO.N,+5V*%
X107467600Y-80492800D03*
%TO.P,U1,8,GND*%
%TO.N,GND*%
X107467600Y-77952800D03*
%TO.P,U1,9,XTAL1/PB6*%
%TO.N,/XTAL1{slash}TOSC1*%
X107467600Y-75412800D03*
%TO.P,U1,10,XTAL2/PB7*%
%TO.N,/XTAL2{slash}TOSC2*%
X107467600Y-72872800D03*
%TO.P,U1,11,PD5*%
%TO.N,/DIG_I{slash}O5*%
X107467600Y-70332800D03*
%TO.P,U1,12,PD6*%
%TO.N,/DIG_I{slash}O6*%
X107467600Y-67792800D03*
%TO.P,U1,13,PD7*%
%TO.N,/DIG_I{slash}O7*%
X107467600Y-65252800D03*
%TO.P,U1,14,PB0*%
%TO.N,/CLKO{slash}ICP1*%
X107467600Y-62712800D03*
%TO.P,U1,15,PB1*%
%TO.N,/OC1A*%
X99847600Y-62712800D03*
%TO.P,U1,16,PB2*%
%TO.N,/SS{slash}OC1B*%
X99847600Y-65252800D03*
%TO.P,U1,17,PB3*%
%TO.N,/MOSI{slash}OC2A*%
X99847600Y-67792800D03*
%TO.P,U1,18,PB4*%
%TO.N,/MISO*%
X99847600Y-70332800D03*
%TO.P,U1,19,PB5*%
%TO.N,/SCK*%
X99847600Y-72872800D03*
%TO.P,U1,20,AVCC*%
%TO.N,+5V*%
X99847600Y-75412800D03*
%TO.P,U1,21,AREF*%
%TO.N,unconnected-(U1-AREF-Pad21)*%
X99847600Y-77952800D03*
%TO.P,U1,22,GND*%
%TO.N,GND*%
X99847600Y-80492800D03*
%TO.P,U1,23,PC0*%
%TO.N,/AnalogPin0*%
X99847600Y-83032800D03*
%TO.P,U1,24,PC1*%
%TO.N,/AnalogPin1*%
X99847600Y-85572800D03*
%TO.P,U1,25,PC2*%
%TO.N,/AnalogPin2*%
X99847600Y-88112800D03*
%TO.P,U1,26,PC3*%
%TO.N,/AnalogPin5{slash}SCL*%
X99847600Y-90652800D03*
%TO.P,U1,27,PC4*%
%TO.N,/AnalogPin4{slash}SDA*%
X99847600Y-93192800D03*
%TO.P,U1,28,PC5*%
%TO.N,/AnalogPin5*%
X99847600Y-95732800D03*
%TD*%
D13*
%TO.P,K2,1*%
%TO.N,/Power_input*%
X204105600Y-90602000D03*
D19*
%TO.P,K2,2*%
%TO.N,Net-(D2-A)*%
X202155600Y-84552000D03*
D13*
%TO.P,K2,3*%
%TO.N,unconnected-(K2-Pad3)*%
X189955600Y-84552000D03*
%TO.P,K2,4*%
%TO.N,Net-(J2-Pin_1)*%
X189905600Y-96602000D03*
D19*
%TO.P,K2,5*%
%TO.N,+5V*%
X202155600Y-96552000D03*
%TD*%
D29*
%TO.P,C2,1*%
%TO.N,/XTAL1{slash}TOSC1*%
X94284800Y-91420000D03*
%TO.P,C2,2*%
%TO.N,GND*%
X94284800Y-88920000D03*
%TD*%
D30*
%TO.P,U2,1,X1*%
%TO.N,/X1-Crystal*%
X87833200Y-102260400D03*
D17*
%TO.P,U2,2,X2*%
%TO.N,/X2-Crystal*%
X87833200Y-104800400D03*
%TO.P,U2,3,VBAT*%
%TO.N,Net-(BT1-+)*%
X87833200Y-107340400D03*
%TO.P,U2,4,GND*%
%TO.N,GND*%
X87833200Y-109880400D03*
%TO.P,U2,5,SDA*%
%TO.N,/AnalogPin4{slash}SDA*%
X95453200Y-109880400D03*
%TO.P,U2,6,SCL*%
%TO.N,/AnalogPin5{slash}SCL*%
X95453200Y-107340400D03*
%TO.P,U2,7,SQW/OUT*%
%TO.N,Net-(U2-SQW{slash}OUT)*%
X95453200Y-104800400D03*
%TO.P,U2,8,VCC*%
%TO.N,+5V*%
X95453200Y-102260400D03*
%TD*%
D12*
%TO.P,J5,1,Pin_1*%
%TO.N,Net-(J5-Pin_1)*%
X162128400Y-106451600D03*
D13*
%TO.P,J5,2,Pin_2*%
%TO.N,GND*%
X157048400Y-106451600D03*
%TD*%
D16*
%TO.P,R3,1*%
%TO.N,/DIG_I{slash}O2*%
X110160000Y-83896400D03*
D17*
%TO.P,R3,2*%
%TO.N,Net-(Q3-B)*%
X120320000Y-83896400D03*
%TD*%
D16*
%TO.P,R7,1*%
%TO.N,/DIG_I{slash}O0*%
X110058400Y-90144800D03*
D17*
%TO.P,R7,2*%
%TO.N,Net-(Q7-B)*%
X120218400Y-90144800D03*
%TD*%
D31*
%TO.N,GND*%
X141148000Y-58134200D02*
X141148000Y-55702000D01*
X113334800Y-103987600D02*
X115335000Y-105987800D01*
X192202000Y-107467600D02*
X193135600Y-108401200D01*
X202496000Y-58140200D02*
X199448600Y-55092800D01*
X84886800Y-73304400D02*
X93776800Y-73304400D01*
X54862800Y-109844400D02*
X57671600Y-107035600D01*
X149608612Y-52120800D02*
X152597200Y-55109388D01*
X79146400Y-98196400D02*
X82042000Y-95300800D01*
X131870800Y-109340000D02*
X132766600Y-109340000D01*
X58420000Y-95656400D02*
X58623200Y-95656400D01*
X162077600Y-58039200D02*
X162077600Y-55905200D01*
X115335000Y-105987800D02*
X136118800Y-105987800D01*
X177622400Y-106197600D02*
X180568800Y-109144000D01*
X190324012Y-52476600D02*
X193065600Y-55218188D01*
X174320400Y-54940400D02*
X179349600Y-54940400D01*
D32*
X193135600Y-109318200D02*
X193135600Y-109543200D01*
D31*
X58420000Y-66243200D02*
X58420000Y-74117200D01*
X173304400Y-55268988D02*
X173304400Y-56181400D01*
X145262800Y-107162800D02*
X143535600Y-108890000D01*
X164312800Y-109296400D02*
X159893200Y-109296400D01*
X193065600Y-55218188D02*
X193065600Y-55905600D01*
X113334800Y-102108000D02*
X113334800Y-103987600D01*
X63754000Y-107035600D02*
X73827600Y-107035600D01*
X132828800Y-54838800D02*
X137852600Y-54838800D01*
X162077600Y-55905200D02*
X165709600Y-52273200D01*
X131870800Y-55109388D02*
X131870800Y-55796800D01*
X58420000Y-74117200D02*
X54457600Y-78079600D01*
X173456800Y-108432800D02*
X172694800Y-107670800D01*
X111963200Y-70561200D02*
X122783600Y-59740800D01*
X111809600Y-79196000D02*
X111963200Y-79349600D01*
X152597200Y-108962600D02*
X152597200Y-108500188D01*
X111963200Y-79349600D02*
X117805200Y-85191600D01*
X199448600Y-55092800D02*
X193878400Y-55092800D01*
X108710800Y-79196000D02*
X111809600Y-79196000D01*
X152597200Y-55109388D02*
X152597200Y-56021800D01*
X180568800Y-109144000D02*
X184902400Y-109144000D01*
X131870800Y-55796800D02*
X132828800Y-54838800D01*
X54457600Y-78079600D02*
X54457600Y-91490800D01*
X96952000Y-76479600D02*
X96952000Y-80492800D01*
X117805200Y-97637600D02*
X113334800Y-102108000D01*
X64516000Y-106273600D02*
X63754000Y-107035600D01*
X172694800Y-107670800D02*
X165938400Y-107670800D01*
X79146400Y-109829600D02*
X79146400Y-98196400D01*
X82042000Y-95300800D02*
X82042000Y-90291200D01*
X54457600Y-91490800D02*
X58420000Y-95453200D01*
X83413200Y-88920000D02*
X94284800Y-88920000D01*
X57671600Y-107035600D02*
X63754000Y-107035600D01*
X96977200Y-88920000D02*
X96952000Y-88894800D01*
X139021000Y-108890000D02*
X136118800Y-105987800D01*
X96977200Y-88920000D02*
X94284800Y-88920000D01*
X158928000Y-54889600D02*
X162077600Y-58039200D01*
X193135600Y-108401200D02*
X193135600Y-109318200D01*
X144729200Y-52120800D02*
X149608612Y-52120800D01*
X80822800Y-108153200D02*
X79146400Y-109829600D01*
X82042000Y-90291200D02*
X83413200Y-88920000D01*
X93776800Y-73304400D02*
X96952000Y-76479600D01*
X141148000Y-55702000D02*
X144729200Y-52120800D01*
X64516000Y-101549200D02*
X64516000Y-106273600D01*
X165938400Y-107670800D02*
X164312800Y-109296400D01*
X96952000Y-88894800D02*
X96952000Y-80492800D01*
X159893200Y-109296400D02*
X157048400Y-106451600D01*
X122783600Y-59740800D02*
X122783600Y-54051200D01*
X86106000Y-108153200D02*
X80822800Y-108153200D01*
X152597200Y-108500188D02*
X151259812Y-107162800D01*
X62636400Y-62026800D02*
X58420000Y-66243200D01*
X182600800Y-55498800D02*
X185623000Y-52476600D01*
D32*
X68732400Y-62026800D02*
X68783200Y-62077600D01*
D31*
X99847600Y-80492800D02*
X96952000Y-80492800D01*
X143535600Y-108890000D02*
X139021000Y-108890000D01*
X117805200Y-85191600D02*
X117805200Y-97637600D01*
X111963200Y-78014121D02*
X111963200Y-79349600D01*
X165709600Y-52273200D02*
X170308612Y-52273200D01*
X154312400Y-109187600D02*
X157048400Y-106451600D01*
X152597200Y-55796800D02*
X153504400Y-54889600D01*
X137852600Y-54838800D02*
X141148000Y-58134200D01*
X153504400Y-54889600D02*
X158928000Y-54889600D01*
X76606400Y-109829600D02*
X79146400Y-109829600D01*
X122783600Y-54051200D02*
X124714000Y-52120800D01*
D32*
X152597200Y-109187600D02*
X152597200Y-108962600D01*
D31*
X124714000Y-52120800D02*
X128882212Y-52120800D01*
X152597200Y-109187600D02*
X154312400Y-109187600D01*
X107467600Y-77952800D02*
X108710800Y-79196000D01*
X128882212Y-52120800D02*
X131870800Y-55109388D01*
X151259812Y-107162800D02*
X145262800Y-107162800D01*
D32*
X173456800Y-109804400D02*
X173456800Y-109579400D01*
D31*
X182600800Y-58191600D02*
X182600800Y-55498800D01*
X185623000Y-52476600D02*
X190324012Y-52476600D01*
X76606400Y-109814400D02*
X76606400Y-109829600D01*
X173456800Y-109579400D02*
X173456800Y-108432800D01*
X58420000Y-95453200D02*
X58420000Y-95656400D01*
X193878400Y-55092800D02*
X193065600Y-55905600D01*
X194292000Y-109543200D02*
X197586800Y-106248400D01*
X186578800Y-107467600D02*
X192202000Y-107467600D01*
X132766600Y-109340000D02*
X136118800Y-105987800D01*
X58623200Y-95656400D02*
X64516000Y-101549200D01*
X179349600Y-54940400D02*
X182600800Y-58191600D01*
X111963200Y-78014121D02*
X111963200Y-70561200D01*
X173304400Y-55956400D02*
X174320400Y-54940400D01*
X193135600Y-109543200D02*
X194292000Y-109543200D01*
X62636400Y-62026800D02*
X68732400Y-62026800D01*
X73827600Y-107035600D02*
X76606400Y-109814400D01*
X170308612Y-52273200D02*
X173304400Y-55268988D01*
X87833200Y-109880400D02*
X86106000Y-108153200D01*
X184902400Y-109144000D02*
X186578800Y-107467600D01*
D32*
%TO.N,+5V*%
X125755600Y-100050800D02*
X118186400Y-100050800D01*
X91236800Y-66802000D02*
X99847600Y-75412800D01*
X91236800Y-62433200D02*
X91236800Y-66802000D01*
X91236800Y-62433200D02*
X91236800Y-59334400D01*
X118186400Y-100050800D02*
X115240000Y-102997200D01*
%TO.N,Net-(D1-A)*%
X190525600Y-55905600D02*
X188392000Y-55905600D01*
X190525600Y-56820000D02*
X191465200Y-57759600D01*
X188392000Y-55905600D02*
X187122000Y-54635600D01*
X191465200Y-57759600D02*
X191465200Y-78284800D01*
X191465200Y-78284800D02*
X189200000Y-80550000D01*
X190525600Y-55905600D02*
X190525600Y-56820000D01*
%TO.N,/Resetbutton*%
X108940800Y-95732800D02*
X107467600Y-95732800D01*
X111836400Y-92837200D02*
X108940800Y-95732800D01*
X115240000Y-92837200D02*
X111836400Y-92837200D01*
%TO.N,/XTAL1{slash}TOSC1*%
X98514409Y-87769191D02*
X99585800Y-86697800D01*
X95309800Y-92445000D02*
X97801000Y-92445000D01*
X91378400Y-94326400D02*
X94284800Y-91420000D01*
X99585800Y-86697800D02*
X102853591Y-86697800D01*
X102853591Y-86697800D02*
X104394000Y-85157391D01*
X104394000Y-85157391D02*
X104394000Y-78486400D01*
X104394000Y-78486400D02*
X107467600Y-75412800D01*
X97801000Y-92445000D02*
X98514409Y-91731591D01*
X94284800Y-91420000D02*
X95309800Y-92445000D01*
X98514409Y-91731591D02*
X98514409Y-87769191D01*
X91378400Y-94996000D02*
X91378400Y-94326400D01*
%TO.N,/XTAL2{slash}TOSC2*%
X89814400Y-93573600D02*
X93268800Y-90119200D01*
X99381609Y-84447800D02*
X102837400Y-84447800D01*
X96378400Y-94996000D02*
X95006800Y-96367600D01*
X89814400Y-95504000D02*
X89814400Y-93573600D01*
X98064409Y-85765000D02*
X99381609Y-84447800D01*
X90678000Y-96367600D02*
X89814400Y-95504000D01*
X95006800Y-96367600D02*
X90678000Y-96367600D01*
X93268800Y-90119200D02*
X95676400Y-90119200D01*
X102837400Y-84447800D02*
X102837400Y-77503000D01*
X95676400Y-90119200D02*
X96977200Y-91420000D01*
X96977200Y-91420000D02*
X98064409Y-90332791D01*
X102837400Y-77503000D02*
X107467600Y-72872800D01*
X98064409Y-90332791D02*
X98064409Y-85765000D01*
%TO.N,/AnalogPin4{slash}SDA*%
X98501200Y-95199200D02*
X99847600Y-93852800D01*
X99001105Y-106332495D02*
X99001105Y-99610705D01*
X99847600Y-93852800D02*
X99847600Y-93192800D01*
X99001105Y-99610705D02*
X98501200Y-99110800D01*
X95453200Y-109880400D02*
X99001105Y-106332495D01*
X98501200Y-99110800D02*
X98501200Y-95199200D01*
%TO.N,Net-(D4-A)*%
X170764400Y-78535600D02*
X170764400Y-55956400D01*
X170764400Y-55956400D02*
X168891400Y-55956400D01*
X168800000Y-80500000D02*
X170764400Y-78535600D01*
X168891400Y-55956400D02*
X167462400Y-54527400D01*
%TO.N,Net-(D6-A)*%
X148200000Y-80550000D02*
X150057200Y-78692800D01*
X150057200Y-78692800D02*
X150057200Y-55796800D01*
X150057200Y-55796800D02*
X148157800Y-55796800D01*
X148157800Y-55796800D02*
X146736000Y-54375000D01*
%TO.N,Net-(D8-A)*%
X127800000Y-80500000D02*
X123748800Y-76448800D01*
X123748800Y-76448800D02*
X123748800Y-56642400D01*
X123748800Y-56642400D02*
X126009600Y-54381600D01*
X127424800Y-55796800D02*
X126009600Y-54381600D01*
X129330800Y-55796800D02*
X127424800Y-55796800D01*
%TO.N,/AnalogPin5{slash}SCL*%
X96614200Y-106179400D02*
X96614200Y-96425800D01*
X98722600Y-92387000D02*
X99847600Y-91262000D01*
X98722600Y-94317400D02*
X98722600Y-92387000D01*
X95453200Y-107340400D02*
X96614200Y-106179400D01*
X99847600Y-91262000D02*
X99847600Y-90652800D01*
X96614200Y-96425800D02*
X98722600Y-94317400D01*
%TO.N,Net-(BT1-+)*%
X84886800Y-91846400D02*
X85445600Y-92405200D01*
X85445600Y-92405200D02*
X85445600Y-104952800D01*
X85445600Y-104952800D02*
X87833200Y-107340400D01*
%TD*%
M02*
