%TF.GenerationSoftware,KiCad,Pcbnew,7.0.7*%
%TF.CreationDate,2024-02-15T10:32:16+01:00*%
%TF.ProjectId,Projektarbete_P3,50726f6a-656b-4746-9172-626574655f50,rev?*%
%TF.SameCoordinates,Original*%
%TF.FileFunction,Drillmap*%
%TF.FilePolarity,Positive*%
%FSLAX45Y45*%
G04 Gerber Fmt 4.5, Leading zero omitted, Abs format (unit mm)*
G04 Created by KiCad (PCBNEW 7.0.7) date 2024-02-15 10:32:16*
%MOMM*%
%LPD*%
G01*
G04 APERTURE LIST*
%ADD10C,0.150000*%
%ADD11C,0.200000*%
%ADD12C,0.120000*%
G04 APERTURE END LIST*
D10*
X5342220Y-11318292D02*
X5342220Y-5091460D01*
X5433680Y-5000000D02*
G75*
G03*
X5342220Y-5091460I-10J-91450D01*
G01*
X20699593Y-5080599D02*
X20699593Y-11318240D01*
X20604480Y-11394440D02*
X5425440Y-11394440D01*
X5433680Y-5000000D02*
X20619720Y-5000000D01*
X5342211Y-11318293D02*
G75*
G03*
X5425440Y-11394440I79699J3553D01*
G01*
X20604481Y-11394433D02*
G75*
G03*
X20699593Y-11318240I9459J85653D01*
G01*
X20699584Y-5080599D02*
G75*
G03*
X20619720Y-5000726I-79874J-1D01*
G01*
D11*
D12*
X5446720Y-5116520D02*
X5566720Y-5236520D01*
X5566720Y-5116520D02*
X5446720Y-5236520D01*
X5446720Y-11212520D02*
X5566720Y-11332520D01*
X5566720Y-11212520D02*
X5446720Y-11332520D01*
X20544480Y-5116520D02*
X20664480Y-5236520D01*
X20664480Y-5116520D02*
X20544480Y-5236520D01*
X20544480Y-11212520D02*
X20664480Y-11332520D01*
X20664480Y-11212520D02*
X20544480Y-11332520D01*
D11*
X5595497Y-11713937D02*
X5595497Y-11513937D01*
X5595497Y-11513937D02*
X5643116Y-11513937D01*
X5643116Y-11513937D02*
X5671687Y-11523461D01*
X5671687Y-11523461D02*
X5690735Y-11542509D01*
X5690735Y-11542509D02*
X5700259Y-11561556D01*
X5700259Y-11561556D02*
X5709783Y-11599652D01*
X5709783Y-11599652D02*
X5709783Y-11628223D01*
X5709783Y-11628223D02*
X5700259Y-11666318D01*
X5700259Y-11666318D02*
X5690735Y-11685366D01*
X5690735Y-11685366D02*
X5671687Y-11704414D01*
X5671687Y-11704414D02*
X5643116Y-11713937D01*
X5643116Y-11713937D02*
X5595497Y-11713937D01*
X5795497Y-11713937D02*
X5795497Y-11580604D01*
X5795497Y-11618699D02*
X5805021Y-11599652D01*
X5805021Y-11599652D02*
X5814545Y-11590128D01*
X5814545Y-11590128D02*
X5833592Y-11580604D01*
X5833592Y-11580604D02*
X5852640Y-11580604D01*
X5919306Y-11713937D02*
X5919306Y-11580604D01*
X5919306Y-11513937D02*
X5909783Y-11523461D01*
X5909783Y-11523461D02*
X5919306Y-11532985D01*
X5919306Y-11532985D02*
X5928830Y-11523461D01*
X5928830Y-11523461D02*
X5919306Y-11513937D01*
X5919306Y-11513937D02*
X5919306Y-11532985D01*
X6043116Y-11713937D02*
X6024068Y-11704414D01*
X6024068Y-11704414D02*
X6014545Y-11685366D01*
X6014545Y-11685366D02*
X6014545Y-11513937D01*
X6147878Y-11713937D02*
X6128830Y-11704414D01*
X6128830Y-11704414D02*
X6119306Y-11685366D01*
X6119306Y-11685366D02*
X6119306Y-11513937D01*
X6376449Y-11713937D02*
X6376449Y-11513937D01*
X6376449Y-11513937D02*
X6443116Y-11656795D01*
X6443116Y-11656795D02*
X6509783Y-11513937D01*
X6509783Y-11513937D02*
X6509783Y-11713937D01*
X6690735Y-11713937D02*
X6690735Y-11609176D01*
X6690735Y-11609176D02*
X6681211Y-11590128D01*
X6681211Y-11590128D02*
X6662164Y-11580604D01*
X6662164Y-11580604D02*
X6624068Y-11580604D01*
X6624068Y-11580604D02*
X6605021Y-11590128D01*
X6690735Y-11704414D02*
X6671687Y-11713937D01*
X6671687Y-11713937D02*
X6624068Y-11713937D01*
X6624068Y-11713937D02*
X6605021Y-11704414D01*
X6605021Y-11704414D02*
X6595497Y-11685366D01*
X6595497Y-11685366D02*
X6595497Y-11666318D01*
X6595497Y-11666318D02*
X6605021Y-11647271D01*
X6605021Y-11647271D02*
X6624068Y-11637747D01*
X6624068Y-11637747D02*
X6671687Y-11637747D01*
X6671687Y-11637747D02*
X6690735Y-11628223D01*
X6785973Y-11580604D02*
X6785973Y-11780604D01*
X6785973Y-11590128D02*
X6805021Y-11580604D01*
X6805021Y-11580604D02*
X6843116Y-11580604D01*
X6843116Y-11580604D02*
X6862164Y-11590128D01*
X6862164Y-11590128D02*
X6871687Y-11599652D01*
X6871687Y-11599652D02*
X6881211Y-11618699D01*
X6881211Y-11618699D02*
X6881211Y-11675842D01*
X6881211Y-11675842D02*
X6871687Y-11694890D01*
X6871687Y-11694890D02*
X6862164Y-11704414D01*
X6862164Y-11704414D02*
X6843116Y-11713937D01*
X6843116Y-11713937D02*
X6805021Y-11713937D01*
X6805021Y-11713937D02*
X6785973Y-11704414D01*
X6966926Y-11694890D02*
X6976449Y-11704414D01*
X6976449Y-11704414D02*
X6966926Y-11713937D01*
X6966926Y-11713937D02*
X6957402Y-11704414D01*
X6957402Y-11704414D02*
X6966926Y-11694890D01*
X6966926Y-11694890D02*
X6966926Y-11713937D01*
X6966926Y-11590128D02*
X6976449Y-11599652D01*
X6976449Y-11599652D02*
X6966926Y-11609176D01*
X6966926Y-11609176D02*
X6957402Y-11599652D01*
X6957402Y-11599652D02*
X6966926Y-11590128D01*
X6966926Y-11590128D02*
X6966926Y-11609176D01*
D12*
X5214720Y-11982454D02*
X5334720Y-12102454D01*
X5334720Y-11982454D02*
X5214720Y-12102454D01*
D11*
X5700259Y-12133937D02*
X5585973Y-12133937D01*
X5643116Y-12133937D02*
X5643116Y-11933937D01*
X5643116Y-11933937D02*
X5624068Y-11962509D01*
X5624068Y-11962509D02*
X5605021Y-11981556D01*
X5605021Y-11981556D02*
X5585973Y-11991080D01*
X5785973Y-12114890D02*
X5795497Y-12124414D01*
X5795497Y-12124414D02*
X5785973Y-12133937D01*
X5785973Y-12133937D02*
X5776449Y-12124414D01*
X5776449Y-12124414D02*
X5785973Y-12114890D01*
X5785973Y-12114890D02*
X5785973Y-12133937D01*
X5871687Y-11952985D02*
X5881211Y-11943461D01*
X5881211Y-11943461D02*
X5900259Y-11933937D01*
X5900259Y-11933937D02*
X5947878Y-11933937D01*
X5947878Y-11933937D02*
X5966926Y-11943461D01*
X5966926Y-11943461D02*
X5976449Y-11952985D01*
X5976449Y-11952985D02*
X5985973Y-11972033D01*
X5985973Y-11972033D02*
X5985973Y-11991080D01*
X5985973Y-11991080D02*
X5976449Y-12019652D01*
X5976449Y-12019652D02*
X5862164Y-12133937D01*
X5862164Y-12133937D02*
X5985973Y-12133937D01*
X6109783Y-11933937D02*
X6128830Y-11933937D01*
X6128830Y-11933937D02*
X6147878Y-11943461D01*
X6147878Y-11943461D02*
X6157402Y-11952985D01*
X6157402Y-11952985D02*
X6166926Y-11972033D01*
X6166926Y-11972033D02*
X6176449Y-12010128D01*
X6176449Y-12010128D02*
X6176449Y-12057747D01*
X6176449Y-12057747D02*
X6166926Y-12095842D01*
X6166926Y-12095842D02*
X6157402Y-12114890D01*
X6157402Y-12114890D02*
X6147878Y-12124414D01*
X6147878Y-12124414D02*
X6128830Y-12133937D01*
X6128830Y-12133937D02*
X6109783Y-12133937D01*
X6109783Y-12133937D02*
X6090735Y-12124414D01*
X6090735Y-12124414D02*
X6081211Y-12114890D01*
X6081211Y-12114890D02*
X6071687Y-12095842D01*
X6071687Y-12095842D02*
X6062164Y-12057747D01*
X6062164Y-12057747D02*
X6062164Y-12010128D01*
X6062164Y-12010128D02*
X6071687Y-11972033D01*
X6071687Y-11972033D02*
X6081211Y-11952985D01*
X6081211Y-11952985D02*
X6090735Y-11943461D01*
X6090735Y-11943461D02*
X6109783Y-11933937D01*
X6300259Y-11933937D02*
X6319307Y-11933937D01*
X6319307Y-11933937D02*
X6338354Y-11943461D01*
X6338354Y-11943461D02*
X6347878Y-11952985D01*
X6347878Y-11952985D02*
X6357402Y-11972033D01*
X6357402Y-11972033D02*
X6366926Y-12010128D01*
X6366926Y-12010128D02*
X6366926Y-12057747D01*
X6366926Y-12057747D02*
X6357402Y-12095842D01*
X6357402Y-12095842D02*
X6347878Y-12114890D01*
X6347878Y-12114890D02*
X6338354Y-12124414D01*
X6338354Y-12124414D02*
X6319307Y-12133937D01*
X6319307Y-12133937D02*
X6300259Y-12133937D01*
X6300259Y-12133937D02*
X6281211Y-12124414D01*
X6281211Y-12124414D02*
X6271687Y-12114890D01*
X6271687Y-12114890D02*
X6262164Y-12095842D01*
X6262164Y-12095842D02*
X6252640Y-12057747D01*
X6252640Y-12057747D02*
X6252640Y-12010128D01*
X6252640Y-12010128D02*
X6262164Y-11972033D01*
X6262164Y-11972033D02*
X6271687Y-11952985D01*
X6271687Y-11952985D02*
X6281211Y-11943461D01*
X6281211Y-11943461D02*
X6300259Y-11933937D01*
X6452640Y-12133937D02*
X6452640Y-12000604D01*
X6452640Y-12019652D02*
X6462164Y-12010128D01*
X6462164Y-12010128D02*
X6481211Y-12000604D01*
X6481211Y-12000604D02*
X6509783Y-12000604D01*
X6509783Y-12000604D02*
X6528830Y-12010128D01*
X6528830Y-12010128D02*
X6538354Y-12029176D01*
X6538354Y-12029176D02*
X6538354Y-12133937D01*
X6538354Y-12029176D02*
X6547878Y-12010128D01*
X6547878Y-12010128D02*
X6566926Y-12000604D01*
X6566926Y-12000604D02*
X6595497Y-12000604D01*
X6595497Y-12000604D02*
X6614545Y-12010128D01*
X6614545Y-12010128D02*
X6624068Y-12029176D01*
X6624068Y-12029176D02*
X6624068Y-12133937D01*
X6719307Y-12133937D02*
X6719307Y-12000604D01*
X6719307Y-12019652D02*
X6728830Y-12010128D01*
X6728830Y-12010128D02*
X6747878Y-12000604D01*
X6747878Y-12000604D02*
X6776449Y-12000604D01*
X6776449Y-12000604D02*
X6795497Y-12010128D01*
X6795497Y-12010128D02*
X6805021Y-12029176D01*
X6805021Y-12029176D02*
X6805021Y-12133937D01*
X6805021Y-12029176D02*
X6814545Y-12010128D01*
X6814545Y-12010128D02*
X6833592Y-12000604D01*
X6833592Y-12000604D02*
X6862164Y-12000604D01*
X6862164Y-12000604D02*
X6881211Y-12010128D01*
X6881211Y-12010128D02*
X6890735Y-12029176D01*
X6890735Y-12029176D02*
X6890735Y-12133937D01*
X7281211Y-11924414D02*
X7109783Y-12181556D01*
X7538354Y-11933937D02*
X7557402Y-11933937D01*
X7557402Y-11933937D02*
X7576450Y-11943461D01*
X7576450Y-11943461D02*
X7585973Y-11952985D01*
X7585973Y-11952985D02*
X7595497Y-11972033D01*
X7595497Y-11972033D02*
X7605021Y-12010128D01*
X7605021Y-12010128D02*
X7605021Y-12057747D01*
X7605021Y-12057747D02*
X7595497Y-12095842D01*
X7595497Y-12095842D02*
X7585973Y-12114890D01*
X7585973Y-12114890D02*
X7576450Y-12124414D01*
X7576450Y-12124414D02*
X7557402Y-12133937D01*
X7557402Y-12133937D02*
X7538354Y-12133937D01*
X7538354Y-12133937D02*
X7519307Y-12124414D01*
X7519307Y-12124414D02*
X7509783Y-12114890D01*
X7509783Y-12114890D02*
X7500259Y-12095842D01*
X7500259Y-12095842D02*
X7490735Y-12057747D01*
X7490735Y-12057747D02*
X7490735Y-12010128D01*
X7490735Y-12010128D02*
X7500259Y-11972033D01*
X7500259Y-11972033D02*
X7509783Y-11952985D01*
X7509783Y-11952985D02*
X7519307Y-11943461D01*
X7519307Y-11943461D02*
X7538354Y-11933937D01*
X7690735Y-12114890D02*
X7700259Y-12124414D01*
X7700259Y-12124414D02*
X7690735Y-12133937D01*
X7690735Y-12133937D02*
X7681211Y-12124414D01*
X7681211Y-12124414D02*
X7690735Y-12114890D01*
X7690735Y-12114890D02*
X7690735Y-12133937D01*
X7824069Y-11933937D02*
X7843116Y-11933937D01*
X7843116Y-11933937D02*
X7862164Y-11943461D01*
X7862164Y-11943461D02*
X7871688Y-11952985D01*
X7871688Y-11952985D02*
X7881211Y-11972033D01*
X7881211Y-11972033D02*
X7890735Y-12010128D01*
X7890735Y-12010128D02*
X7890735Y-12057747D01*
X7890735Y-12057747D02*
X7881211Y-12095842D01*
X7881211Y-12095842D02*
X7871688Y-12114890D01*
X7871688Y-12114890D02*
X7862164Y-12124414D01*
X7862164Y-12124414D02*
X7843116Y-12133937D01*
X7843116Y-12133937D02*
X7824069Y-12133937D01*
X7824069Y-12133937D02*
X7805021Y-12124414D01*
X7805021Y-12124414D02*
X7795497Y-12114890D01*
X7795497Y-12114890D02*
X7785973Y-12095842D01*
X7785973Y-12095842D02*
X7776450Y-12057747D01*
X7776450Y-12057747D02*
X7776450Y-12010128D01*
X7776450Y-12010128D02*
X7785973Y-11972033D01*
X7785973Y-11972033D02*
X7795497Y-11952985D01*
X7795497Y-11952985D02*
X7805021Y-11943461D01*
X7805021Y-11943461D02*
X7824069Y-11933937D01*
X8062164Y-12000604D02*
X8062164Y-12133937D01*
X8014545Y-11924414D02*
X7966926Y-12067271D01*
X7966926Y-12067271D02*
X8090735Y-12067271D01*
X8147878Y-11933937D02*
X8281211Y-11933937D01*
X8281211Y-11933937D02*
X8195497Y-12133937D01*
X8347878Y-11952985D02*
X8357402Y-11943461D01*
X8357402Y-11943461D02*
X8376450Y-11933937D01*
X8376450Y-11933937D02*
X8424069Y-11933937D01*
X8424069Y-11933937D02*
X8443116Y-11943461D01*
X8443116Y-11943461D02*
X8452640Y-11952985D01*
X8452640Y-11952985D02*
X8462164Y-11972033D01*
X8462164Y-11972033D02*
X8462164Y-11991080D01*
X8462164Y-11991080D02*
X8452640Y-12019652D01*
X8452640Y-12019652D02*
X8338354Y-12133937D01*
X8338354Y-12133937D02*
X8462164Y-12133937D01*
X8538354Y-11933937D02*
X8538354Y-11972033D01*
X8614545Y-11933937D02*
X8614545Y-11972033D01*
X8909783Y-12210128D02*
X8900259Y-12200604D01*
X8900259Y-12200604D02*
X8881212Y-12172033D01*
X8881212Y-12172033D02*
X8871688Y-12152985D01*
X8871688Y-12152985D02*
X8862164Y-12124414D01*
X8862164Y-12124414D02*
X8852640Y-12076795D01*
X8852640Y-12076795D02*
X8852640Y-12038699D01*
X8852640Y-12038699D02*
X8862164Y-11991080D01*
X8862164Y-11991080D02*
X8871688Y-11962509D01*
X8871688Y-11962509D02*
X8881212Y-11943461D01*
X8881212Y-11943461D02*
X8900259Y-11914890D01*
X8900259Y-11914890D02*
X8909783Y-11905366D01*
X9071688Y-12000604D02*
X9071688Y-12133937D01*
X9024069Y-11924414D02*
X8976450Y-12067271D01*
X8976450Y-12067271D02*
X9100259Y-12067271D01*
X9328831Y-12133937D02*
X9328831Y-11933937D01*
X9414545Y-12133937D02*
X9414545Y-12029176D01*
X9414545Y-12029176D02*
X9405021Y-12010128D01*
X9405021Y-12010128D02*
X9385974Y-12000604D01*
X9385974Y-12000604D02*
X9357402Y-12000604D01*
X9357402Y-12000604D02*
X9338355Y-12010128D01*
X9338355Y-12010128D02*
X9328831Y-12019652D01*
X9538355Y-12133937D02*
X9519307Y-12124414D01*
X9519307Y-12124414D02*
X9509783Y-12114890D01*
X9509783Y-12114890D02*
X9500259Y-12095842D01*
X9500259Y-12095842D02*
X9500259Y-12038699D01*
X9500259Y-12038699D02*
X9509783Y-12019652D01*
X9509783Y-12019652D02*
X9519307Y-12010128D01*
X9519307Y-12010128D02*
X9538355Y-12000604D01*
X9538355Y-12000604D02*
X9566926Y-12000604D01*
X9566926Y-12000604D02*
X9585974Y-12010128D01*
X9585974Y-12010128D02*
X9595497Y-12019652D01*
X9595497Y-12019652D02*
X9605021Y-12038699D01*
X9605021Y-12038699D02*
X9605021Y-12095842D01*
X9605021Y-12095842D02*
X9595497Y-12114890D01*
X9595497Y-12114890D02*
X9585974Y-12124414D01*
X9585974Y-12124414D02*
X9566926Y-12133937D01*
X9566926Y-12133937D02*
X9538355Y-12133937D01*
X9719307Y-12133937D02*
X9700259Y-12124414D01*
X9700259Y-12124414D02*
X9690736Y-12105366D01*
X9690736Y-12105366D02*
X9690736Y-11933937D01*
X9871688Y-12124414D02*
X9852640Y-12133937D01*
X9852640Y-12133937D02*
X9814545Y-12133937D01*
X9814545Y-12133937D02*
X9795497Y-12124414D01*
X9795497Y-12124414D02*
X9785974Y-12105366D01*
X9785974Y-12105366D02*
X9785974Y-12029176D01*
X9785974Y-12029176D02*
X9795497Y-12010128D01*
X9795497Y-12010128D02*
X9814545Y-12000604D01*
X9814545Y-12000604D02*
X9852640Y-12000604D01*
X9852640Y-12000604D02*
X9871688Y-12010128D01*
X9871688Y-12010128D02*
X9881212Y-12029176D01*
X9881212Y-12029176D02*
X9881212Y-12048223D01*
X9881212Y-12048223D02*
X9785974Y-12067271D01*
X9957402Y-12124414D02*
X9976450Y-12133937D01*
X9976450Y-12133937D02*
X10014545Y-12133937D01*
X10014545Y-12133937D02*
X10033593Y-12124414D01*
X10033593Y-12124414D02*
X10043117Y-12105366D01*
X10043117Y-12105366D02*
X10043117Y-12095842D01*
X10043117Y-12095842D02*
X10033593Y-12076795D01*
X10033593Y-12076795D02*
X10014545Y-12067271D01*
X10014545Y-12067271D02*
X9985974Y-12067271D01*
X9985974Y-12067271D02*
X9966926Y-12057747D01*
X9966926Y-12057747D02*
X9957402Y-12038699D01*
X9957402Y-12038699D02*
X9957402Y-12029176D01*
X9957402Y-12029176D02*
X9966926Y-12010128D01*
X9966926Y-12010128D02*
X9985974Y-12000604D01*
X9985974Y-12000604D02*
X10014545Y-12000604D01*
X10014545Y-12000604D02*
X10033593Y-12010128D01*
X10109783Y-12210128D02*
X10119307Y-12200604D01*
X10119307Y-12200604D02*
X10138355Y-12172033D01*
X10138355Y-12172033D02*
X10147878Y-12152985D01*
X10147878Y-12152985D02*
X10157402Y-12124414D01*
X10157402Y-12124414D02*
X10166926Y-12076795D01*
X10166926Y-12076795D02*
X10166926Y-12038699D01*
X10166926Y-12038699D02*
X10157402Y-11991080D01*
X10157402Y-11991080D02*
X10147878Y-11962509D01*
X10147878Y-11962509D02*
X10138355Y-11943461D01*
X10138355Y-11943461D02*
X10119307Y-11914890D01*
X10119307Y-11914890D02*
X10109783Y-11905366D01*
X10471688Y-12210128D02*
X10462164Y-12200604D01*
X10462164Y-12200604D02*
X10443117Y-12172033D01*
X10443117Y-12172033D02*
X10433593Y-12152985D01*
X10433593Y-12152985D02*
X10424069Y-12124414D01*
X10424069Y-12124414D02*
X10414545Y-12076795D01*
X10414545Y-12076795D02*
X10414545Y-12038699D01*
X10414545Y-12038699D02*
X10424069Y-11991080D01*
X10424069Y-11991080D02*
X10433593Y-11962509D01*
X10433593Y-11962509D02*
X10443117Y-11943461D01*
X10443117Y-11943461D02*
X10462164Y-11914890D01*
X10462164Y-11914890D02*
X10471688Y-11905366D01*
X10547878Y-12000604D02*
X10547878Y-12133937D01*
X10547878Y-12019652D02*
X10557402Y-12010128D01*
X10557402Y-12010128D02*
X10576450Y-12000604D01*
X10576450Y-12000604D02*
X10605021Y-12000604D01*
X10605021Y-12000604D02*
X10624069Y-12010128D01*
X10624069Y-12010128D02*
X10633593Y-12029176D01*
X10633593Y-12029176D02*
X10633593Y-12133937D01*
X10757402Y-12133937D02*
X10738355Y-12124414D01*
X10738355Y-12124414D02*
X10728831Y-12114890D01*
X10728831Y-12114890D02*
X10719307Y-12095842D01*
X10719307Y-12095842D02*
X10719307Y-12038699D01*
X10719307Y-12038699D02*
X10728831Y-12019652D01*
X10728831Y-12019652D02*
X10738355Y-12010128D01*
X10738355Y-12010128D02*
X10757402Y-12000604D01*
X10757402Y-12000604D02*
X10785974Y-12000604D01*
X10785974Y-12000604D02*
X10805021Y-12010128D01*
X10805021Y-12010128D02*
X10814545Y-12019652D01*
X10814545Y-12019652D02*
X10824069Y-12038699D01*
X10824069Y-12038699D02*
X10824069Y-12095842D01*
X10824069Y-12095842D02*
X10814545Y-12114890D01*
X10814545Y-12114890D02*
X10805021Y-12124414D01*
X10805021Y-12124414D02*
X10785974Y-12133937D01*
X10785974Y-12133937D02*
X10757402Y-12133937D01*
X10881212Y-12000604D02*
X10957402Y-12000604D01*
X10909783Y-11933937D02*
X10909783Y-12105366D01*
X10909783Y-12105366D02*
X10919307Y-12124414D01*
X10919307Y-12124414D02*
X10938355Y-12133937D01*
X10938355Y-12133937D02*
X10957402Y-12133937D01*
X11176450Y-12000604D02*
X11176450Y-12200604D01*
X11176450Y-12010128D02*
X11195497Y-12000604D01*
X11195497Y-12000604D02*
X11233593Y-12000604D01*
X11233593Y-12000604D02*
X11252640Y-12010128D01*
X11252640Y-12010128D02*
X11262164Y-12019652D01*
X11262164Y-12019652D02*
X11271688Y-12038699D01*
X11271688Y-12038699D02*
X11271688Y-12095842D01*
X11271688Y-12095842D02*
X11262164Y-12114890D01*
X11262164Y-12114890D02*
X11252640Y-12124414D01*
X11252640Y-12124414D02*
X11233593Y-12133937D01*
X11233593Y-12133937D02*
X11195497Y-12133937D01*
X11195497Y-12133937D02*
X11176450Y-12124414D01*
X11385974Y-12133937D02*
X11366926Y-12124414D01*
X11366926Y-12124414D02*
X11357402Y-12105366D01*
X11357402Y-12105366D02*
X11357402Y-11933937D01*
X11547878Y-12133937D02*
X11547878Y-12029176D01*
X11547878Y-12029176D02*
X11538355Y-12010128D01*
X11538355Y-12010128D02*
X11519307Y-12000604D01*
X11519307Y-12000604D02*
X11481212Y-12000604D01*
X11481212Y-12000604D02*
X11462164Y-12010128D01*
X11547878Y-12124414D02*
X11528831Y-12133937D01*
X11528831Y-12133937D02*
X11481212Y-12133937D01*
X11481212Y-12133937D02*
X11462164Y-12124414D01*
X11462164Y-12124414D02*
X11452640Y-12105366D01*
X11452640Y-12105366D02*
X11452640Y-12086318D01*
X11452640Y-12086318D02*
X11462164Y-12067271D01*
X11462164Y-12067271D02*
X11481212Y-12057747D01*
X11481212Y-12057747D02*
X11528831Y-12057747D01*
X11528831Y-12057747D02*
X11547878Y-12048223D01*
X11614545Y-12000604D02*
X11690736Y-12000604D01*
X11643117Y-11933937D02*
X11643117Y-12105366D01*
X11643117Y-12105366D02*
X11652640Y-12124414D01*
X11652640Y-12124414D02*
X11671688Y-12133937D01*
X11671688Y-12133937D02*
X11690736Y-12133937D01*
X11833593Y-12124414D02*
X11814545Y-12133937D01*
X11814545Y-12133937D02*
X11776450Y-12133937D01*
X11776450Y-12133937D02*
X11757402Y-12124414D01*
X11757402Y-12124414D02*
X11747878Y-12105366D01*
X11747878Y-12105366D02*
X11747878Y-12029176D01*
X11747878Y-12029176D02*
X11757402Y-12010128D01*
X11757402Y-12010128D02*
X11776450Y-12000604D01*
X11776450Y-12000604D02*
X11814545Y-12000604D01*
X11814545Y-12000604D02*
X11833593Y-12010128D01*
X11833593Y-12010128D02*
X11843117Y-12029176D01*
X11843117Y-12029176D02*
X11843117Y-12048223D01*
X11843117Y-12048223D02*
X11747878Y-12067271D01*
X12014545Y-12133937D02*
X12014545Y-11933937D01*
X12014545Y-12124414D02*
X11995498Y-12133937D01*
X11995498Y-12133937D02*
X11957402Y-12133937D01*
X11957402Y-12133937D02*
X11938355Y-12124414D01*
X11938355Y-12124414D02*
X11928831Y-12114890D01*
X11928831Y-12114890D02*
X11919307Y-12095842D01*
X11919307Y-12095842D02*
X11919307Y-12038699D01*
X11919307Y-12038699D02*
X11928831Y-12019652D01*
X11928831Y-12019652D02*
X11938355Y-12010128D01*
X11938355Y-12010128D02*
X11957402Y-12000604D01*
X11957402Y-12000604D02*
X11995498Y-12000604D01*
X11995498Y-12000604D02*
X12014545Y-12010128D01*
X12090736Y-12210128D02*
X12100259Y-12200604D01*
X12100259Y-12200604D02*
X12119307Y-12172033D01*
X12119307Y-12172033D02*
X12128831Y-12152985D01*
X12128831Y-12152985D02*
X12138355Y-12124414D01*
X12138355Y-12124414D02*
X12147878Y-12076795D01*
X12147878Y-12076795D02*
X12147878Y-12038699D01*
X12147878Y-12038699D02*
X12138355Y-11991080D01*
X12138355Y-11991080D02*
X12128831Y-11962509D01*
X12128831Y-11962509D02*
X12119307Y-11943461D01*
X12119307Y-11943461D02*
X12100259Y-11914890D01*
X12100259Y-11914890D02*
X12090736Y-11905366D01*
M02*
