%TF.GenerationSoftware,KiCad,Pcbnew,7.0.7*%
%TF.CreationDate,2024-02-15T10:32:16+01:00*%
%TF.ProjectId,Projektarbete_P3,50726f6a-656b-4746-9172-626574655f50,rev?*%
%TF.SameCoordinates,Original*%
%TF.FileFunction,Drillmap*%
%TF.FilePolarity,Positive*%
%FSLAX45Y45*%
G04 Gerber Fmt 4.5, Leading zero omitted, Abs format (unit mm)*
G04 Created by KiCad (PCBNEW 7.0.7) date 2024-02-15 10:32:16*
%MOMM*%
%LPD*%
G01*
G04 APERTURE LIST*
%ADD10C,0.150000*%
%ADD11C,0.200000*%
%ADD12C,0.050000*%
%ADD13C,0.070000*%
%ADD14C,0.075000*%
%ADD15C,0.080000*%
%ADD16C,0.100000*%
%ADD17C,0.110000*%
%ADD18C,0.130000*%
%ADD19C,0.140000*%
%ADD20C,0.152000*%
%ADD21C,0.160000*%
G04 APERTURE END LIST*
D10*
X5342220Y-11318292D02*
X5342220Y-5091460D01*
X5433680Y-5000000D02*
G75*
G03*
X5342220Y-5091460I-10J-91450D01*
G01*
X20699593Y-5080599D02*
X20699593Y-11318240D01*
X20604480Y-11394440D02*
X5425440Y-11394440D01*
X5433680Y-5000000D02*
X20619720Y-5000000D01*
X5342211Y-11318293D02*
G75*
G03*
X5425440Y-11394440I79699J3553D01*
G01*
X20604481Y-11394433D02*
G75*
G03*
X20699593Y-11318240I9459J85653D01*
G01*
X20699584Y-5080599D02*
G75*
G03*
X20619720Y-5000726I-79874J-1D01*
G01*
D11*
D12*
X8331600Y-10232720D02*
X8381600Y-10282720D01*
X8381600Y-10232720D02*
X8331600Y-10282720D01*
X8331600Y-10382720D02*
X8381600Y-10432720D01*
X8381600Y-10382720D02*
X8331600Y-10432720D01*
D13*
X8290000Y-10993120D02*
G75*
G03*
X8290000Y-10993120I-35000J0D01*
G01*
X8540000Y-10993120D02*
G75*
G03*
X8540000Y-10993120I-35000J0D01*
G01*
X9463480Y-8892000D02*
G75*
G03*
X9463480Y-8892000I-35000J0D01*
G01*
X9463480Y-9142000D02*
G75*
G03*
X9463480Y-9142000I-35000J0D01*
G01*
X9732720Y-8892000D02*
G75*
G03*
X9732720Y-8892000I-35000J0D01*
G01*
X9732720Y-9142000D02*
G75*
G03*
X9732720Y-9142000I-35000J0D01*
G01*
D14*
X12933080Y-5542180D02*
X12933080Y-5617180D01*
X12895580Y-5579680D02*
X12970580Y-5579680D01*
X12933080Y-10896500D02*
X12933080Y-10971500D01*
X12895580Y-10934000D02*
X12970580Y-10934000D01*
X13060080Y-5542180D02*
X13060080Y-5617180D01*
X13022580Y-5579680D02*
X13097580Y-5579680D01*
X13060080Y-10896500D02*
X13060080Y-10971500D01*
X13022580Y-10934000D02*
X13097580Y-10934000D01*
X13187080Y-5542180D02*
X13187080Y-5617180D01*
X13149580Y-5579680D02*
X13224580Y-5579680D01*
X13187080Y-10896500D02*
X13187080Y-10971500D01*
X13149580Y-10934000D02*
X13224580Y-10934000D01*
X15005720Y-5542180D02*
X15005720Y-5617180D01*
X14968220Y-5579680D02*
X15043220Y-5579680D01*
X15005720Y-10881260D02*
X15005720Y-10956260D01*
X14968220Y-10918760D02*
X15043220Y-10918760D01*
X15132720Y-5542180D02*
X15132720Y-5617180D01*
X15095220Y-5579680D02*
X15170220Y-5579680D01*
X15132720Y-10881260D02*
X15132720Y-10956260D01*
X15095220Y-10918760D02*
X15170220Y-10918760D01*
X15259720Y-5542180D02*
X15259720Y-5617180D01*
X15222220Y-5579680D02*
X15297220Y-5579680D01*
X15259720Y-10881260D02*
X15259720Y-10956260D01*
X15222220Y-10918760D02*
X15297220Y-10918760D01*
X17076440Y-5558140D02*
X17076440Y-5633140D01*
X17038940Y-5595640D02*
X17113940Y-5595640D01*
X17091680Y-10942940D02*
X17091680Y-11017940D01*
X17054180Y-10980440D02*
X17129180Y-10980440D01*
X17203440Y-5558140D02*
X17203440Y-5633140D01*
X17165940Y-5595640D02*
X17240940Y-5595640D01*
X17218680Y-10942940D02*
X17218680Y-11017940D01*
X17181180Y-10980440D02*
X17256180Y-10980440D01*
X17330440Y-5558140D02*
X17330440Y-5633140D01*
X17292940Y-5595640D02*
X17367940Y-5595640D01*
X17345680Y-10942940D02*
X17345680Y-11017940D01*
X17308180Y-10980440D02*
X17383180Y-10980440D01*
X19052560Y-5553060D02*
X19052560Y-5628060D01*
X19015060Y-5590560D02*
X19090060Y-5590560D01*
X19059560Y-10916820D02*
X19059560Y-10991820D01*
X19022060Y-10954320D02*
X19097060Y-10954320D01*
X19179560Y-5553060D02*
X19179560Y-5628060D01*
X19142060Y-5590560D02*
X19217060Y-5590560D01*
X19186560Y-10916820D02*
X19186560Y-10991820D01*
X19149060Y-10954320D02*
X19224060Y-10954320D01*
X19306560Y-5553060D02*
X19306560Y-5628060D01*
X19269060Y-5590560D02*
X19344060Y-5590560D01*
X19313560Y-10916820D02*
X19313560Y-10991820D01*
X19276060Y-10954320D02*
X19351060Y-10954320D01*
D15*
X8130884Y-5641684D02*
X8130884Y-5585116D01*
X8074315Y-5585116D01*
X8074315Y-5641684D01*
X8130884Y-5641684D01*
X8135964Y-5961724D02*
X8135964Y-5905155D01*
X8079395Y-5905155D01*
X8079395Y-5961724D01*
X8135964Y-5961724D01*
X8135964Y-6271604D02*
X8135964Y-6215035D01*
X8079395Y-6215035D01*
X8079395Y-6271604D01*
X8135964Y-6271604D01*
X8811605Y-10254325D02*
X8811605Y-10197756D01*
X8755036Y-10197756D01*
X8755036Y-10254325D01*
X8811605Y-10254325D01*
X8811605Y-10508325D02*
X8811605Y-10451756D01*
X8755036Y-10451756D01*
X8755036Y-10508325D01*
X8811605Y-10508325D01*
X8811605Y-10762325D02*
X8811605Y-10705756D01*
X8755036Y-10705756D01*
X8755036Y-10762325D01*
X8811605Y-10762325D01*
X8811605Y-11016325D02*
X8811605Y-10959756D01*
X8755036Y-10959756D01*
X8755036Y-11016325D01*
X8811605Y-11016325D01*
X9146885Y-5641684D02*
X9146885Y-5585116D01*
X9090316Y-5585116D01*
X9090316Y-5641684D01*
X9146885Y-5641684D01*
X9151965Y-5961724D02*
X9151965Y-5905155D01*
X9095396Y-5905155D01*
X9095396Y-5961724D01*
X9151965Y-5961724D01*
X9151965Y-6271604D02*
X9151965Y-6215035D01*
X9095396Y-6215035D01*
X9095396Y-6271604D01*
X9151965Y-6271604D01*
X9573605Y-10254325D02*
X9573605Y-10197756D01*
X9517036Y-10197756D01*
X9517036Y-10254325D01*
X9573605Y-10254325D01*
X9573605Y-10508325D02*
X9573605Y-10451756D01*
X9517036Y-10451756D01*
X9517036Y-10508325D01*
X9573605Y-10508325D01*
X9573605Y-10762325D02*
X9573605Y-10705756D01*
X9517036Y-10705756D01*
X9517036Y-10762325D01*
X9573605Y-10762325D01*
X9573605Y-11016325D02*
X9573605Y-10959756D01*
X9517036Y-10959756D01*
X9517036Y-11016325D01*
X9573605Y-11016325D01*
X9802205Y-10381325D02*
X9802205Y-10324756D01*
X9745636Y-10324756D01*
X9745636Y-10381325D01*
X9802205Y-10381325D01*
X10013045Y-6299564D02*
X10013045Y-6242995D01*
X9956476Y-6242995D01*
X9956476Y-6299564D01*
X10013045Y-6299564D01*
X10013045Y-6553564D02*
X10013045Y-6496995D01*
X9956476Y-6496995D01*
X9956476Y-6553564D01*
X10013045Y-6553564D01*
X10013045Y-6807564D02*
X10013045Y-6750995D01*
X9956476Y-6750995D01*
X9956476Y-6807564D01*
X10013045Y-6807564D01*
X10013045Y-7061564D02*
X10013045Y-7004995D01*
X9956476Y-7004995D01*
X9956476Y-7061564D01*
X10013045Y-7061564D01*
X10013045Y-7315564D02*
X10013045Y-7258995D01*
X9956476Y-7258995D01*
X9956476Y-7315564D01*
X10013045Y-7315564D01*
X10013045Y-7569564D02*
X10013045Y-7512995D01*
X9956476Y-7512995D01*
X9956476Y-7569564D01*
X10013045Y-7569564D01*
X10013045Y-7823564D02*
X10013045Y-7766995D01*
X9956476Y-7766995D01*
X9956476Y-7823564D01*
X10013045Y-7823564D01*
X10013045Y-8077564D02*
X10013045Y-8020995D01*
X9956476Y-8020995D01*
X9956476Y-8077564D01*
X10013045Y-8077564D01*
X10013045Y-8331564D02*
X10013045Y-8274995D01*
X9956476Y-8274995D01*
X9956476Y-8331564D01*
X10013045Y-8331564D01*
X10013045Y-8585565D02*
X10013045Y-8528996D01*
X9956476Y-8528996D01*
X9956476Y-8585565D01*
X10013045Y-8585565D01*
X10013045Y-8839565D02*
X10013045Y-8782996D01*
X9956476Y-8782996D01*
X9956476Y-8839565D01*
X10013045Y-8839565D01*
X10013045Y-9093565D02*
X10013045Y-9036996D01*
X9956476Y-9036996D01*
X9956476Y-9093565D01*
X10013045Y-9093565D01*
X10013045Y-9347565D02*
X10013045Y-9290996D01*
X9956476Y-9290996D01*
X9956476Y-9347565D01*
X10013045Y-9347565D01*
X10013045Y-9601565D02*
X10013045Y-9544996D01*
X9956476Y-9544996D01*
X9956476Y-9601565D01*
X10013045Y-9601565D01*
X10775045Y-6299564D02*
X10775045Y-6242995D01*
X10718476Y-6242995D01*
X10718476Y-6299564D01*
X10775045Y-6299564D01*
X10775045Y-6553564D02*
X10775045Y-6496995D01*
X10718476Y-6496995D01*
X10718476Y-6553564D01*
X10775045Y-6553564D01*
X10775045Y-6807564D02*
X10775045Y-6750995D01*
X10718476Y-6750995D01*
X10718476Y-6807564D01*
X10775045Y-6807564D01*
X10775045Y-7061564D02*
X10775045Y-7004995D01*
X10718476Y-7004995D01*
X10718476Y-7061564D01*
X10775045Y-7061564D01*
X10775045Y-7315564D02*
X10775045Y-7258995D01*
X10718476Y-7258995D01*
X10718476Y-7315564D01*
X10775045Y-7315564D01*
X10775045Y-7569564D02*
X10775045Y-7512995D01*
X10718476Y-7512995D01*
X10718476Y-7569564D01*
X10775045Y-7569564D01*
X10775045Y-7823564D02*
X10775045Y-7766995D01*
X10718476Y-7766995D01*
X10718476Y-7823564D01*
X10775045Y-7823564D01*
X10775045Y-8077564D02*
X10775045Y-8020995D01*
X10718476Y-8020995D01*
X10718476Y-8077564D01*
X10775045Y-8077564D01*
X10775045Y-8331564D02*
X10775045Y-8274995D01*
X10718476Y-8274995D01*
X10718476Y-8331564D01*
X10775045Y-8331564D01*
X10775045Y-8585565D02*
X10775045Y-8528996D01*
X10718476Y-8528996D01*
X10718476Y-8585565D01*
X10775045Y-8585565D01*
X10775045Y-8839565D02*
X10775045Y-8782996D01*
X10718476Y-8782996D01*
X10718476Y-8839565D01*
X10775045Y-8839565D01*
X10775045Y-9093565D02*
X10775045Y-9036996D01*
X10718476Y-9036996D01*
X10718476Y-9093565D01*
X10775045Y-9093565D01*
X10775045Y-9347565D02*
X10775045Y-9290996D01*
X10718476Y-9290996D01*
X10718476Y-9347565D01*
X10775045Y-9347565D01*
X10775045Y-9601565D02*
X10775045Y-9544996D01*
X10718476Y-9544996D01*
X10718476Y-9601565D01*
X10775045Y-9601565D01*
X10818205Y-10381325D02*
X10818205Y-10324756D01*
X10761636Y-10324756D01*
X10761636Y-10381325D01*
X10818205Y-10381325D01*
X11034125Y-9042765D02*
X11034125Y-8986196D01*
X10977556Y-8986196D01*
X10977556Y-9042765D01*
X11034125Y-9042765D01*
X11039205Y-8732885D02*
X11039205Y-8676316D01*
X10982636Y-8676316D01*
X10982636Y-8732885D01*
X11039205Y-8732885D01*
X11044285Y-7788004D02*
X11044285Y-7731435D01*
X10987716Y-7731435D01*
X10987716Y-7788004D01*
X11044285Y-7788004D01*
X11044285Y-8097884D02*
X11044285Y-8041315D01*
X10987716Y-8041315D01*
X10987716Y-8097884D01*
X11044285Y-8097884D01*
X11044285Y-8417925D02*
X11044285Y-8361355D01*
X10987716Y-8361355D01*
X10987716Y-8417925D01*
X11044285Y-8417925D01*
X11049365Y-7478124D02*
X11049365Y-7421555D01*
X10992796Y-7421555D01*
X10992796Y-7478124D01*
X11049365Y-7478124D01*
X11054445Y-6827884D02*
X11054445Y-6771315D01*
X10997876Y-6771315D01*
X10997876Y-6827884D01*
X11054445Y-6827884D01*
X11054445Y-7142844D02*
X11054445Y-7086275D01*
X10997876Y-7086275D01*
X10997876Y-7142844D01*
X11054445Y-7142844D01*
X11552284Y-9312005D02*
X11552284Y-9255436D01*
X11495715Y-9255436D01*
X11495715Y-9312005D01*
X11552284Y-9312005D01*
X11552284Y-10328005D02*
X11552284Y-10271436D01*
X11495715Y-10271436D01*
X11495715Y-10328005D01*
X11552284Y-10328005D01*
X12050124Y-9042765D02*
X12050124Y-8986196D01*
X11993555Y-8986196D01*
X11993555Y-9042765D01*
X12050124Y-9042765D01*
X12055204Y-8732885D02*
X12055204Y-8676316D01*
X11998635Y-8676316D01*
X11998635Y-8732885D01*
X12055204Y-8732885D01*
X12060284Y-7788004D02*
X12060284Y-7731435D01*
X12003715Y-7731435D01*
X12003715Y-7788004D01*
X12060284Y-7788004D01*
X12060284Y-8097884D02*
X12060284Y-8041315D01*
X12003715Y-8041315D01*
X12003715Y-8097884D01*
X12060284Y-8097884D01*
X12060284Y-8417925D02*
X12060284Y-8361355D01*
X12003715Y-8361355D01*
X12003715Y-8417925D01*
X12060284Y-8417925D01*
X12065364Y-7478124D02*
X12065364Y-7421555D01*
X12008795Y-7421555D01*
X12008795Y-7478124D01*
X12065364Y-7478124D01*
X12070444Y-6827884D02*
X12070444Y-6771315D01*
X12013875Y-6771315D01*
X12013875Y-6827884D01*
X12070444Y-6827884D01*
X12070444Y-7142844D02*
X12070444Y-7086275D01*
X12013875Y-7086275D01*
X12013875Y-7142844D01*
X12070444Y-7142844D01*
D16*
X5755640Y-6252680D02*
X5805640Y-6202680D01*
X5755640Y-6152680D01*
X5705640Y-6202680D01*
X5755640Y-6252680D01*
X5842000Y-7461720D02*
X5892000Y-7411720D01*
X5842000Y-7361720D01*
X5792000Y-7411720D01*
X5842000Y-7461720D01*
X5842000Y-7715720D02*
X5892000Y-7665720D01*
X5842000Y-7615720D01*
X5792000Y-7665720D01*
X5842000Y-7715720D01*
X5842000Y-7969720D02*
X5892000Y-7919720D01*
X5842000Y-7869720D01*
X5792000Y-7919720D01*
X5842000Y-7969720D01*
X6009640Y-6252680D02*
X6059640Y-6202680D01*
X6009640Y-6152680D01*
X5959640Y-6202680D01*
X6009640Y-6252680D01*
X6096000Y-7461720D02*
X6146000Y-7411720D01*
X6096000Y-7361720D01*
X6046000Y-7411720D01*
X6096000Y-7461720D01*
X6096000Y-7715720D02*
X6146000Y-7665720D01*
X6096000Y-7615720D01*
X6046000Y-7665720D01*
X6096000Y-7715720D01*
X6096000Y-7969720D02*
X6146000Y-7919720D01*
X6096000Y-7869720D01*
X6046000Y-7919720D01*
X6096000Y-7969720D01*
X6263640Y-6252680D02*
X6313640Y-6202680D01*
X6263640Y-6152680D01*
X6213640Y-6202680D01*
X6263640Y-6252680D01*
X6878320Y-6257760D02*
X6928320Y-6207760D01*
X6878320Y-6157760D01*
X6828320Y-6207760D01*
X6878320Y-6257760D01*
X7132320Y-6257760D02*
X7182320Y-6207760D01*
X7132320Y-6157760D01*
X7082320Y-6207760D01*
X7132320Y-6257760D01*
X7386320Y-6257760D02*
X7436320Y-6207760D01*
X7386320Y-6157760D01*
X7336320Y-6207760D01*
X7386320Y-6257760D01*
X7640320Y-6257760D02*
X7690320Y-6207760D01*
X7640320Y-6157760D01*
X7590320Y-6207760D01*
X7640320Y-6257760D01*
X9137840Y-9549600D02*
X9187840Y-9499600D01*
X9137840Y-9449600D01*
X9087840Y-9499600D01*
X9137840Y-9549600D01*
X9637840Y-9549600D02*
X9687840Y-9499600D01*
X9637840Y-9449600D01*
X9587840Y-9499600D01*
X9637840Y-9549600D01*
X12780000Y-6900000D02*
X12830000Y-6850000D01*
X12780000Y-6800000D01*
X12730000Y-6850000D01*
X12780000Y-6900000D01*
X12780000Y-8100000D02*
X12830000Y-8050000D01*
X12780000Y-8000000D01*
X12730000Y-8050000D01*
X12780000Y-8100000D01*
X14094160Y-8489960D02*
X14144160Y-8439960D01*
X14094160Y-8389960D01*
X14044160Y-8439960D01*
X14094160Y-8489960D01*
X14094160Y-9689960D02*
X14144160Y-9639960D01*
X14094160Y-9589960D01*
X14044160Y-9639960D01*
X14094160Y-9689960D01*
X14820000Y-6905000D02*
X14870000Y-6855000D01*
X14820000Y-6805000D01*
X14770000Y-6855000D01*
X14820000Y-6905000D01*
X14820000Y-8105000D02*
X14870000Y-8055000D01*
X14820000Y-8005000D01*
X14770000Y-8055000D01*
X14820000Y-8105000D01*
X16105840Y-8489960D02*
X16155840Y-8439960D01*
X16105840Y-8389960D01*
X16055840Y-8439960D01*
X16105840Y-8489960D01*
X16105840Y-9689960D02*
X16155840Y-9639960D01*
X16105840Y-9589960D01*
X16055840Y-9639960D01*
X16105840Y-9689960D01*
X16880000Y-6900000D02*
X16930000Y-6850000D01*
X16880000Y-6800000D01*
X16830000Y-6850000D01*
X16880000Y-6900000D01*
X16880000Y-8100000D02*
X16930000Y-8050000D01*
X16880000Y-8000000D01*
X16830000Y-8050000D01*
X16880000Y-8100000D01*
X18178480Y-8495040D02*
X18228480Y-8445040D01*
X18178480Y-8395040D01*
X18128480Y-8445040D01*
X18178480Y-8495040D01*
X18178480Y-9695040D02*
X18228480Y-9645040D01*
X18178480Y-9595040D01*
X18128480Y-9645040D01*
X18178480Y-9695040D01*
X18920000Y-6905000D02*
X18970000Y-6855000D01*
X18920000Y-6805000D01*
X18870000Y-6855000D01*
X18920000Y-6905000D01*
X18920000Y-8105000D02*
X18970000Y-8055000D01*
X18920000Y-8005000D01*
X18870000Y-8055000D01*
X18920000Y-8105000D01*
X20215560Y-8505200D02*
X20265560Y-8455200D01*
X20215560Y-8405200D01*
X20165560Y-8455200D01*
X20215560Y-8505200D01*
X20215560Y-9705200D02*
X20265560Y-9655200D01*
X20215560Y-9605200D01*
X20165560Y-9655200D01*
X20215560Y-9705200D01*
D17*
X5431280Y-10426520D02*
X5541280Y-10536520D01*
X5541280Y-10426520D02*
X5431280Y-10536520D01*
X5541280Y-10481520D02*
G75*
G03*
X5541280Y-10481520I-55000J0D01*
G01*
X5431280Y-10929440D02*
X5541280Y-11039440D01*
X5541280Y-10929440D02*
X5431280Y-11039440D01*
X5541280Y-10984440D02*
G75*
G03*
X5541280Y-10984440I-55000J0D01*
G01*
X6132320Y-10929440D02*
X6242320Y-11039440D01*
X6242320Y-10929440D02*
X6132320Y-11039440D01*
X6242320Y-10984440D02*
G75*
G03*
X6242320Y-10984440I-55000J0D01*
G01*
X6137400Y-10426520D02*
X6247400Y-10536520D01*
X6247400Y-10426520D02*
X6137400Y-10536520D01*
X6247400Y-10481520D02*
G75*
G03*
X6247400Y-10481520I-55000J0D01*
G01*
X12520560Y-9950080D02*
X12630560Y-10060080D01*
X12630560Y-9950080D02*
X12520560Y-10060080D01*
X12630560Y-10005080D02*
G75*
G03*
X12630560Y-10005080I-55000J0D01*
G01*
X12520560Y-10966080D02*
X12630560Y-11076080D01*
X12630560Y-10966080D02*
X12520560Y-11076080D01*
X12630560Y-11021080D02*
G75*
G03*
X12630560Y-11021080I-55000J0D01*
G01*
X12545960Y-5383160D02*
X12655960Y-5493160D01*
X12655960Y-5383160D02*
X12545960Y-5493160D01*
X12655960Y-5438160D02*
G75*
G03*
X12655960Y-5438160I-55000J0D01*
G01*
X12545960Y-6399160D02*
X12655960Y-6509160D01*
X12655960Y-6399160D02*
X12545960Y-6509160D01*
X12655960Y-6454160D02*
G75*
G03*
X12655960Y-6454160I-55000J0D01*
G01*
X14572880Y-9945000D02*
X14682880Y-10055000D01*
X14682880Y-9945000D02*
X14572880Y-10055000D01*
X14682880Y-10000000D02*
G75*
G03*
X14682880Y-10000000I-55000J0D01*
G01*
X14572880Y-10961000D02*
X14682880Y-11071000D01*
X14682880Y-10961000D02*
X14572880Y-11071000D01*
X14682880Y-11016000D02*
G75*
G03*
X14682880Y-11016000I-55000J0D01*
G01*
X14618600Y-5382500D02*
X14728600Y-5492500D01*
X14728600Y-5382500D02*
X14618600Y-5492500D01*
X14728600Y-5437500D02*
G75*
G03*
X14728600Y-5437500I-55000J0D01*
G01*
X14618600Y-6398500D02*
X14728600Y-6508500D01*
X14728600Y-6398500D02*
X14618600Y-6508500D01*
X14728600Y-6453500D02*
G75*
G03*
X14728600Y-6453500I-55000J0D01*
G01*
X16665840Y-9950080D02*
X16775840Y-10060080D01*
X16775840Y-9950080D02*
X16665840Y-10060080D01*
X16775840Y-10005080D02*
G75*
G03*
X16775840Y-10005080I-55000J0D01*
G01*
X16665840Y-10966080D02*
X16775840Y-11076080D01*
X16775840Y-10966080D02*
X16665840Y-11076080D01*
X16775840Y-11021080D02*
G75*
G03*
X16775840Y-11021080I-55000J0D01*
G01*
X16691240Y-5397740D02*
X16801240Y-5507740D01*
X16801240Y-5397740D02*
X16691240Y-5507740D01*
X16801240Y-5452740D02*
G75*
G03*
X16801240Y-5452740I-55000J0D01*
G01*
X16691240Y-6413740D02*
X16801240Y-6523740D01*
X16801240Y-6413740D02*
X16691240Y-6523740D01*
X16801240Y-6468740D02*
G75*
G03*
X16801240Y-6468740I-55000J0D01*
G01*
X18657200Y-5408560D02*
X18767200Y-5518560D01*
X18767200Y-5408560D02*
X18657200Y-5518560D01*
X18767200Y-5463560D02*
G75*
G03*
X18767200Y-5463560I-55000J0D01*
G01*
X18657200Y-6424560D02*
X18767200Y-6534560D01*
X18767200Y-6424560D02*
X18657200Y-6534560D01*
X18767200Y-6479560D02*
G75*
G03*
X18767200Y-6479560I-55000J0D01*
G01*
X18662280Y-9950080D02*
X18772280Y-10060080D01*
X18772280Y-9950080D02*
X18662280Y-10060080D01*
X18772280Y-10005080D02*
G75*
G03*
X18772280Y-10005080I-55000J0D01*
G01*
X18662280Y-10966080D02*
X18772280Y-11076080D01*
X18772280Y-10966080D02*
X18662280Y-11076080D01*
X18772280Y-11021080D02*
G75*
G03*
X18772280Y-11021080I-55000J0D01*
G01*
D18*
X12520000Y-7380000D02*
X12650000Y-7510000D01*
X12650000Y-7380000D02*
X12520000Y-7510000D01*
X12585000Y-7380000D02*
X12585000Y-7510000D01*
X12520000Y-7445000D02*
X12650000Y-7445000D01*
X12804160Y-9579960D02*
X12934160Y-9709960D01*
X12934160Y-9579960D02*
X12804160Y-9709960D01*
X12869160Y-9579960D02*
X12869160Y-9709960D01*
X12804160Y-9644960D02*
X12934160Y-9644960D01*
X12809160Y-8374960D02*
X12939160Y-8504960D01*
X12939160Y-8374960D02*
X12809160Y-8504960D01*
X12874160Y-8374960D02*
X12874160Y-8504960D01*
X12809160Y-8439960D02*
X12939160Y-8439960D01*
X13935000Y-7985000D02*
X14065000Y-8115000D01*
X14065000Y-7985000D02*
X13935000Y-8115000D01*
X14000000Y-7985000D02*
X14000000Y-8115000D01*
X13935000Y-8050000D02*
X14065000Y-8050000D01*
X13940000Y-6780000D02*
X14070000Y-6910000D01*
X14070000Y-6780000D02*
X13940000Y-6910000D01*
X14005000Y-6780000D02*
X14005000Y-6910000D01*
X13940000Y-6845000D02*
X14070000Y-6845000D01*
X14224160Y-8979960D02*
X14354160Y-9109960D01*
X14354160Y-8979960D02*
X14224160Y-9109960D01*
X14289160Y-8979960D02*
X14289160Y-9109960D01*
X14224160Y-9044960D02*
X14354160Y-9044960D01*
X14560000Y-7385000D02*
X14690000Y-7515000D01*
X14690000Y-7385000D02*
X14560000Y-7515000D01*
X14625000Y-7385000D02*
X14625000Y-7515000D01*
X14560000Y-7450000D02*
X14690000Y-7450000D01*
X14815840Y-9579960D02*
X14945840Y-9709960D01*
X14945840Y-9579960D02*
X14815840Y-9709960D01*
X14880840Y-9579960D02*
X14880840Y-9709960D01*
X14815840Y-9644960D02*
X14945840Y-9644960D01*
X14820840Y-8374960D02*
X14950840Y-8504960D01*
X14950840Y-8374960D02*
X14820840Y-8504960D01*
X14885840Y-8374960D02*
X14885840Y-8504960D01*
X14820840Y-8439960D02*
X14950840Y-8439960D01*
X15975000Y-7990000D02*
X16105000Y-8120000D01*
X16105000Y-7990000D02*
X15975000Y-8120000D01*
X16040000Y-7990000D02*
X16040000Y-8120000D01*
X15975000Y-8055000D02*
X16105000Y-8055000D01*
X15980000Y-6785000D02*
X16110000Y-6915000D01*
X16110000Y-6785000D02*
X15980000Y-6915000D01*
X16045000Y-6785000D02*
X16045000Y-6915000D01*
X15980000Y-6850000D02*
X16110000Y-6850000D01*
X16235840Y-8979960D02*
X16365840Y-9109960D01*
X16365840Y-8979960D02*
X16235840Y-9109960D01*
X16300840Y-8979960D02*
X16300840Y-9109960D01*
X16235840Y-9044960D02*
X16365840Y-9044960D01*
X16620000Y-7380000D02*
X16750000Y-7510000D01*
X16750000Y-7380000D02*
X16620000Y-7510000D01*
X16685000Y-7380000D02*
X16685000Y-7510000D01*
X16620000Y-7445000D02*
X16750000Y-7445000D01*
X16888480Y-9585040D02*
X17018480Y-9715040D01*
X17018480Y-9585040D02*
X16888480Y-9715040D01*
X16953480Y-9585040D02*
X16953480Y-9715040D01*
X16888480Y-9650040D02*
X17018480Y-9650040D01*
X16893480Y-8380040D02*
X17023480Y-8510040D01*
X17023480Y-8380040D02*
X16893480Y-8510040D01*
X16958480Y-8380040D02*
X16958480Y-8510040D01*
X16893480Y-8445040D02*
X17023480Y-8445040D01*
X18035000Y-7985000D02*
X18165000Y-8115000D01*
X18165000Y-7985000D02*
X18035000Y-8115000D01*
X18100000Y-7985000D02*
X18100000Y-8115000D01*
X18035000Y-8050000D02*
X18165000Y-8050000D01*
X18040000Y-6780000D02*
X18170000Y-6910000D01*
X18170000Y-6780000D02*
X18040000Y-6910000D01*
X18105000Y-6780000D02*
X18105000Y-6910000D01*
X18040000Y-6845000D02*
X18170000Y-6845000D01*
X18308480Y-8985040D02*
X18438480Y-9115040D01*
X18438480Y-8985040D02*
X18308480Y-9115040D01*
X18373480Y-8985040D02*
X18373480Y-9115040D01*
X18308480Y-9050040D02*
X18438480Y-9050040D01*
X18660000Y-7385000D02*
X18790000Y-7515000D01*
X18790000Y-7385000D02*
X18660000Y-7515000D01*
X18725000Y-7385000D02*
X18725000Y-7515000D01*
X18660000Y-7450000D02*
X18790000Y-7450000D01*
X18925560Y-9595200D02*
X19055560Y-9725200D01*
X19055560Y-9595200D02*
X18925560Y-9725200D01*
X18990560Y-9595200D02*
X18990560Y-9725200D01*
X18925560Y-9660200D02*
X19055560Y-9660200D01*
X18930560Y-8390200D02*
X19060560Y-8520200D01*
X19060560Y-8390200D02*
X18930560Y-8520200D01*
X18995560Y-8390200D02*
X18995560Y-8520200D01*
X18930560Y-8455200D02*
X19060560Y-8455200D01*
X20075000Y-7990000D02*
X20205000Y-8120000D01*
X20205000Y-7990000D02*
X20075000Y-8120000D01*
X20140000Y-7990000D02*
X20140000Y-8120000D01*
X20075000Y-8055000D02*
X20205000Y-8055000D01*
X20080000Y-6785000D02*
X20210000Y-6915000D01*
X20210000Y-6785000D02*
X20080000Y-6915000D01*
X20145000Y-6785000D02*
X20145000Y-6915000D01*
X20080000Y-6850000D02*
X20210000Y-6850000D01*
X20345560Y-8995200D02*
X20475560Y-9125200D01*
X20475560Y-8995200D02*
X20345560Y-9125200D01*
X20410560Y-8995200D02*
X20410560Y-9125200D01*
X20345560Y-9060200D02*
X20475560Y-9060200D01*
D19*
X6521800Y-9079080D02*
X6661800Y-9219080D01*
X6661800Y-9079080D02*
X6521800Y-9219080D01*
X6641298Y-9198578D02*
X6641298Y-9099582D01*
X6542302Y-9099582D01*
X6542302Y-9198578D01*
X6641298Y-9198578D01*
X6524340Y-10912960D02*
X6664340Y-11052960D01*
X6664340Y-10912960D02*
X6524340Y-11052960D01*
X6643838Y-11032458D02*
X6643838Y-10933462D01*
X6544842Y-10933462D01*
X6544842Y-11032458D01*
X6643838Y-11032458D01*
X6782920Y-9079080D02*
X6922920Y-9219080D01*
X6922920Y-9079080D02*
X6782920Y-9219080D01*
X6902418Y-9198578D02*
X6902418Y-9099582D01*
X6803422Y-9099582D01*
X6803422Y-9198578D01*
X6902418Y-9198578D01*
X6785460Y-10912960D02*
X6925460Y-11052960D01*
X6925460Y-10912960D02*
X6785460Y-11052960D01*
X6904958Y-11032458D02*
X6904958Y-10933462D01*
X6805962Y-10933462D01*
X6805962Y-11032458D01*
X6904958Y-11032458D01*
X7588100Y-9079080D02*
X7728100Y-9219080D01*
X7728100Y-9079080D02*
X7588100Y-9219080D01*
X7707598Y-9198578D02*
X7707598Y-9099582D01*
X7608602Y-9099582D01*
X7608602Y-9198578D01*
X7707598Y-9198578D01*
X7590640Y-10912960D02*
X7730640Y-11052960D01*
X7730640Y-10912960D02*
X7590640Y-11052960D01*
X7710138Y-11032458D02*
X7710138Y-10933462D01*
X7611142Y-10933462D01*
X7611142Y-11032458D01*
X7710138Y-11032458D01*
X7842100Y-9079080D02*
X7982100Y-9219080D01*
X7982100Y-9079080D02*
X7842100Y-9219080D01*
X7961598Y-9198578D02*
X7961598Y-9099582D01*
X7862602Y-9099582D01*
X7862602Y-9198578D01*
X7961598Y-9198578D01*
X7844640Y-10912960D02*
X7984640Y-11052960D01*
X7984640Y-10912960D02*
X7844640Y-11052960D01*
X7964138Y-11032458D02*
X7964138Y-10933462D01*
X7865142Y-10933462D01*
X7865142Y-11032458D01*
X7964138Y-11032458D01*
D10*
X8413680Y-7255440D02*
X8563680Y-7405440D01*
X8563680Y-7255440D02*
X8413680Y-7405440D01*
X8488680Y-7405440D02*
X8563680Y-7330440D01*
X8488680Y-7255440D01*
X8413680Y-7330440D01*
X8488680Y-7405440D01*
X8413680Y-9109640D02*
X8563680Y-9259640D01*
X8563680Y-9109640D02*
X8413680Y-9259640D01*
X8488680Y-9259640D02*
X8563680Y-9184640D01*
X8488680Y-9109640D01*
X8413680Y-9184640D01*
X8488680Y-9259640D01*
D20*
X5842000Y-9489640D02*
X5842000Y-9641640D01*
X5766000Y-9565640D02*
X5918000Y-9565640D01*
X5918000Y-9565640D02*
G75*
G03*
X5918000Y-9565640I-76000J0D01*
G01*
X5842000Y-9997640D02*
X5842000Y-10149640D01*
X5766000Y-10073640D02*
X5918000Y-10073640D01*
X5918000Y-10073640D02*
G75*
G03*
X5918000Y-10073640I-76000J0D01*
G01*
X13606800Y-5737420D02*
X13606800Y-5889420D01*
X13530800Y-5813420D02*
X13682800Y-5813420D01*
X13682800Y-5813420D02*
G75*
G03*
X13682800Y-5813420I-76000J0D01*
G01*
X13611880Y-10522780D02*
X13611880Y-10674780D01*
X13535880Y-10598780D02*
X13687880Y-10598780D01*
X13687880Y-10598780D02*
G75*
G03*
X13687880Y-10598780I-76000J0D01*
G01*
X14114800Y-5737420D02*
X14114800Y-5889420D01*
X14038800Y-5813420D02*
X14190800Y-5813420D01*
X14190800Y-5813420D02*
G75*
G03*
X14190800Y-5813420I-76000J0D01*
G01*
X14119880Y-10522780D02*
X14119880Y-10674780D01*
X14043880Y-10598780D02*
X14195880Y-10598780D01*
X14195880Y-10598780D02*
G75*
G03*
X14195880Y-10598780I-76000J0D01*
G01*
X15699760Y-5727920D02*
X15699760Y-5879920D01*
X15623760Y-5803920D02*
X15775760Y-5803920D01*
X15775760Y-5803920D02*
G75*
G03*
X15775760Y-5803920I-76000J0D01*
G01*
X15704840Y-10569160D02*
X15704840Y-10721160D01*
X15628840Y-10645160D02*
X15780840Y-10645160D01*
X15780840Y-10645160D02*
G75*
G03*
X15780840Y-10645160I-76000J0D01*
G01*
X16207760Y-5727920D02*
X16207760Y-5879920D01*
X16131760Y-5803920D02*
X16283760Y-5803920D01*
X16283760Y-5803920D02*
G75*
G03*
X16283760Y-5803920I-76000J0D01*
G01*
X16212840Y-10569160D02*
X16212840Y-10721160D01*
X16136840Y-10645160D02*
X16288840Y-10645160D01*
X16288840Y-10645160D02*
G75*
G03*
X16288840Y-10645160I-76000J0D01*
G01*
X17752080Y-5743160D02*
X17752080Y-5895160D01*
X17676080Y-5819160D02*
X17828080Y-5819160D01*
X17828080Y-5819160D02*
G75*
G03*
X17828080Y-5819160I-76000J0D01*
G01*
X17762240Y-10543760D02*
X17762240Y-10695760D01*
X17686240Y-10619760D02*
X17838240Y-10619760D01*
X17838240Y-10619760D02*
G75*
G03*
X17838240Y-10619760I-76000J0D01*
G01*
X18260080Y-5743160D02*
X18260080Y-5895160D01*
X18184080Y-5819160D02*
X18336080Y-5819160D01*
X18336080Y-5819160D02*
G75*
G03*
X18336080Y-5819160I-76000J0D01*
G01*
X18270240Y-10543760D02*
X18270240Y-10695760D01*
X18194240Y-10619760D02*
X18346240Y-10619760D01*
X18346240Y-10619760D02*
G75*
G03*
X18346240Y-10619760I-76000J0D01*
G01*
X19741600Y-5738020D02*
X19741600Y-5890020D01*
X19665600Y-5814020D02*
X19817600Y-5814020D01*
X19817600Y-5814020D02*
G75*
G03*
X19817600Y-5814020I-76000J0D01*
G01*
X19758680Y-10548840D02*
X19758680Y-10700840D01*
X19682680Y-10624840D02*
X19834680Y-10624840D01*
X19834680Y-10624840D02*
G75*
G03*
X19834680Y-10624840I-76000J0D01*
G01*
X20249600Y-5738020D02*
X20249600Y-5890020D01*
X20173600Y-5814020D02*
X20325600Y-5814020D01*
X20325600Y-5814020D02*
G75*
G03*
X20325600Y-5814020I-76000J0D01*
G01*
X20266680Y-10548840D02*
X20266680Y-10700840D01*
X20190680Y-10624840D02*
X20342680Y-10624840D01*
X20342680Y-10624840D02*
G75*
G03*
X20342680Y-10624840I-76000J0D01*
G01*
D21*
X5720209Y-8692569D02*
X5720209Y-8579431D01*
X5607071Y-8579431D01*
X5607071Y-8692569D01*
X5720209Y-8692569D01*
X5743640Y-8636000D02*
G75*
G03*
X5743640Y-8636000I-80000J0D01*
G01*
X6020209Y-9162569D02*
X6020209Y-9049431D01*
X5907071Y-9049431D01*
X5907071Y-9162569D01*
X6020209Y-9162569D01*
X6043640Y-9106000D02*
G75*
G03*
X6043640Y-9106000I-80000J0D01*
G01*
X6320209Y-8692569D02*
X6320209Y-8579431D01*
X6207071Y-8579431D01*
X6207071Y-8692569D01*
X6320209Y-8692569D01*
X6343640Y-8636000D02*
G75*
G03*
X6343640Y-8636000I-80000J0D01*
G01*
D11*
X5595497Y-11713937D02*
X5595497Y-11513937D01*
X5595497Y-11513937D02*
X5643116Y-11513937D01*
X5643116Y-11513937D02*
X5671687Y-11523461D01*
X5671687Y-11523461D02*
X5690735Y-11542509D01*
X5690735Y-11542509D02*
X5700259Y-11561556D01*
X5700259Y-11561556D02*
X5709783Y-11599652D01*
X5709783Y-11599652D02*
X5709783Y-11628223D01*
X5709783Y-11628223D02*
X5700259Y-11666318D01*
X5700259Y-11666318D02*
X5690735Y-11685366D01*
X5690735Y-11685366D02*
X5671687Y-11704414D01*
X5671687Y-11704414D02*
X5643116Y-11713937D01*
X5643116Y-11713937D02*
X5595497Y-11713937D01*
X5795497Y-11713937D02*
X5795497Y-11580604D01*
X5795497Y-11618699D02*
X5805021Y-11599652D01*
X5805021Y-11599652D02*
X5814545Y-11590128D01*
X5814545Y-11590128D02*
X5833592Y-11580604D01*
X5833592Y-11580604D02*
X5852640Y-11580604D01*
X5919306Y-11713937D02*
X5919306Y-11580604D01*
X5919306Y-11513937D02*
X5909783Y-11523461D01*
X5909783Y-11523461D02*
X5919306Y-11532985D01*
X5919306Y-11532985D02*
X5928830Y-11523461D01*
X5928830Y-11523461D02*
X5919306Y-11513937D01*
X5919306Y-11513937D02*
X5919306Y-11532985D01*
X6043116Y-11713937D02*
X6024068Y-11704414D01*
X6024068Y-11704414D02*
X6014545Y-11685366D01*
X6014545Y-11685366D02*
X6014545Y-11513937D01*
X6147878Y-11713937D02*
X6128830Y-11704414D01*
X6128830Y-11704414D02*
X6119306Y-11685366D01*
X6119306Y-11685366D02*
X6119306Y-11513937D01*
X6376449Y-11713937D02*
X6376449Y-11513937D01*
X6376449Y-11513937D02*
X6443116Y-11656795D01*
X6443116Y-11656795D02*
X6509783Y-11513937D01*
X6509783Y-11513937D02*
X6509783Y-11713937D01*
X6690735Y-11713937D02*
X6690735Y-11609176D01*
X6690735Y-11609176D02*
X6681211Y-11590128D01*
X6681211Y-11590128D02*
X6662164Y-11580604D01*
X6662164Y-11580604D02*
X6624068Y-11580604D01*
X6624068Y-11580604D02*
X6605021Y-11590128D01*
X6690735Y-11704414D02*
X6671687Y-11713937D01*
X6671687Y-11713937D02*
X6624068Y-11713937D01*
X6624068Y-11713937D02*
X6605021Y-11704414D01*
X6605021Y-11704414D02*
X6595497Y-11685366D01*
X6595497Y-11685366D02*
X6595497Y-11666318D01*
X6595497Y-11666318D02*
X6605021Y-11647271D01*
X6605021Y-11647271D02*
X6624068Y-11637747D01*
X6624068Y-11637747D02*
X6671687Y-11637747D01*
X6671687Y-11637747D02*
X6690735Y-11628223D01*
X6785973Y-11580604D02*
X6785973Y-11780604D01*
X6785973Y-11590128D02*
X6805021Y-11580604D01*
X6805021Y-11580604D02*
X6843116Y-11580604D01*
X6843116Y-11580604D02*
X6862164Y-11590128D01*
X6862164Y-11590128D02*
X6871687Y-11599652D01*
X6871687Y-11599652D02*
X6881211Y-11618699D01*
X6881211Y-11618699D02*
X6881211Y-11675842D01*
X6881211Y-11675842D02*
X6871687Y-11694890D01*
X6871687Y-11694890D02*
X6862164Y-11704414D01*
X6862164Y-11704414D02*
X6843116Y-11713937D01*
X6843116Y-11713937D02*
X6805021Y-11713937D01*
X6805021Y-11713937D02*
X6785973Y-11704414D01*
X6966926Y-11694890D02*
X6976449Y-11704414D01*
X6976449Y-11704414D02*
X6966926Y-11713937D01*
X6966926Y-11713937D02*
X6957402Y-11704414D01*
X6957402Y-11704414D02*
X6966926Y-11694890D01*
X6966926Y-11694890D02*
X6966926Y-11713937D01*
X6966926Y-11590128D02*
X6976449Y-11599652D01*
X6976449Y-11599652D02*
X6966926Y-11609176D01*
X6966926Y-11609176D02*
X6957402Y-11599652D01*
X6957402Y-11599652D02*
X6966926Y-11590128D01*
X6966926Y-11590128D02*
X6966926Y-11609176D01*
D12*
X5284720Y-12017454D02*
X5334720Y-12067454D01*
X5334720Y-12017454D02*
X5284720Y-12067454D01*
D11*
X5633592Y-11933937D02*
X5652640Y-11933937D01*
X5652640Y-11933937D02*
X5671687Y-11943461D01*
X5671687Y-11943461D02*
X5681211Y-11952985D01*
X5681211Y-11952985D02*
X5690735Y-11972033D01*
X5690735Y-11972033D02*
X5700259Y-12010128D01*
X5700259Y-12010128D02*
X5700259Y-12057747D01*
X5700259Y-12057747D02*
X5690735Y-12095842D01*
X5690735Y-12095842D02*
X5681211Y-12114890D01*
X5681211Y-12114890D02*
X5671687Y-12124414D01*
X5671687Y-12124414D02*
X5652640Y-12133937D01*
X5652640Y-12133937D02*
X5633592Y-12133937D01*
X5633592Y-12133937D02*
X5614545Y-12124414D01*
X5614545Y-12124414D02*
X5605021Y-12114890D01*
X5605021Y-12114890D02*
X5595497Y-12095842D01*
X5595497Y-12095842D02*
X5585973Y-12057747D01*
X5585973Y-12057747D02*
X5585973Y-12010128D01*
X5585973Y-12010128D02*
X5595497Y-11972033D01*
X5595497Y-11972033D02*
X5605021Y-11952985D01*
X5605021Y-11952985D02*
X5614545Y-11943461D01*
X5614545Y-11943461D02*
X5633592Y-11933937D01*
X5785973Y-12114890D02*
X5795497Y-12124414D01*
X5795497Y-12124414D02*
X5785973Y-12133937D01*
X5785973Y-12133937D02*
X5776449Y-12124414D01*
X5776449Y-12124414D02*
X5785973Y-12114890D01*
X5785973Y-12114890D02*
X5785973Y-12133937D01*
X5976449Y-11933937D02*
X5881211Y-11933937D01*
X5881211Y-11933937D02*
X5871687Y-12029176D01*
X5871687Y-12029176D02*
X5881211Y-12019652D01*
X5881211Y-12019652D02*
X5900259Y-12010128D01*
X5900259Y-12010128D02*
X5947878Y-12010128D01*
X5947878Y-12010128D02*
X5966926Y-12019652D01*
X5966926Y-12019652D02*
X5976449Y-12029176D01*
X5976449Y-12029176D02*
X5985973Y-12048223D01*
X5985973Y-12048223D02*
X5985973Y-12095842D01*
X5985973Y-12095842D02*
X5976449Y-12114890D01*
X5976449Y-12114890D02*
X5966926Y-12124414D01*
X5966926Y-12124414D02*
X5947878Y-12133937D01*
X5947878Y-12133937D02*
X5900259Y-12133937D01*
X5900259Y-12133937D02*
X5881211Y-12124414D01*
X5881211Y-12124414D02*
X5871687Y-12114890D01*
X6109783Y-11933937D02*
X6128830Y-11933937D01*
X6128830Y-11933937D02*
X6147878Y-11943461D01*
X6147878Y-11943461D02*
X6157402Y-11952985D01*
X6157402Y-11952985D02*
X6166926Y-11972033D01*
X6166926Y-11972033D02*
X6176449Y-12010128D01*
X6176449Y-12010128D02*
X6176449Y-12057747D01*
X6176449Y-12057747D02*
X6166926Y-12095842D01*
X6166926Y-12095842D02*
X6157402Y-12114890D01*
X6157402Y-12114890D02*
X6147878Y-12124414D01*
X6147878Y-12124414D02*
X6128830Y-12133937D01*
X6128830Y-12133937D02*
X6109783Y-12133937D01*
X6109783Y-12133937D02*
X6090735Y-12124414D01*
X6090735Y-12124414D02*
X6081211Y-12114890D01*
X6081211Y-12114890D02*
X6071687Y-12095842D01*
X6071687Y-12095842D02*
X6062164Y-12057747D01*
X6062164Y-12057747D02*
X6062164Y-12010128D01*
X6062164Y-12010128D02*
X6071687Y-11972033D01*
X6071687Y-11972033D02*
X6081211Y-11952985D01*
X6081211Y-11952985D02*
X6090735Y-11943461D01*
X6090735Y-11943461D02*
X6109783Y-11933937D01*
X6300259Y-11933937D02*
X6319307Y-11933937D01*
X6319307Y-11933937D02*
X6338354Y-11943461D01*
X6338354Y-11943461D02*
X6347878Y-11952985D01*
X6347878Y-11952985D02*
X6357402Y-11972033D01*
X6357402Y-11972033D02*
X6366926Y-12010128D01*
X6366926Y-12010128D02*
X6366926Y-12057747D01*
X6366926Y-12057747D02*
X6357402Y-12095842D01*
X6357402Y-12095842D02*
X6347878Y-12114890D01*
X6347878Y-12114890D02*
X6338354Y-12124414D01*
X6338354Y-12124414D02*
X6319307Y-12133937D01*
X6319307Y-12133937D02*
X6300259Y-12133937D01*
X6300259Y-12133937D02*
X6281211Y-12124414D01*
X6281211Y-12124414D02*
X6271687Y-12114890D01*
X6271687Y-12114890D02*
X6262164Y-12095842D01*
X6262164Y-12095842D02*
X6252640Y-12057747D01*
X6252640Y-12057747D02*
X6252640Y-12010128D01*
X6252640Y-12010128D02*
X6262164Y-11972033D01*
X6262164Y-11972033D02*
X6271687Y-11952985D01*
X6271687Y-11952985D02*
X6281211Y-11943461D01*
X6281211Y-11943461D02*
X6300259Y-11933937D01*
X6452640Y-12133937D02*
X6452640Y-12000604D01*
X6452640Y-12019652D02*
X6462164Y-12010128D01*
X6462164Y-12010128D02*
X6481211Y-12000604D01*
X6481211Y-12000604D02*
X6509783Y-12000604D01*
X6509783Y-12000604D02*
X6528830Y-12010128D01*
X6528830Y-12010128D02*
X6538354Y-12029176D01*
X6538354Y-12029176D02*
X6538354Y-12133937D01*
X6538354Y-12029176D02*
X6547878Y-12010128D01*
X6547878Y-12010128D02*
X6566926Y-12000604D01*
X6566926Y-12000604D02*
X6595497Y-12000604D01*
X6595497Y-12000604D02*
X6614545Y-12010128D01*
X6614545Y-12010128D02*
X6624068Y-12029176D01*
X6624068Y-12029176D02*
X6624068Y-12133937D01*
X6719307Y-12133937D02*
X6719307Y-12000604D01*
X6719307Y-12019652D02*
X6728830Y-12010128D01*
X6728830Y-12010128D02*
X6747878Y-12000604D01*
X6747878Y-12000604D02*
X6776449Y-12000604D01*
X6776449Y-12000604D02*
X6795497Y-12010128D01*
X6795497Y-12010128D02*
X6805021Y-12029176D01*
X6805021Y-12029176D02*
X6805021Y-12133937D01*
X6805021Y-12029176D02*
X6814545Y-12010128D01*
X6814545Y-12010128D02*
X6833592Y-12000604D01*
X6833592Y-12000604D02*
X6862164Y-12000604D01*
X6862164Y-12000604D02*
X6881211Y-12010128D01*
X6881211Y-12010128D02*
X6890735Y-12029176D01*
X6890735Y-12029176D02*
X6890735Y-12133937D01*
X7281211Y-11924414D02*
X7109783Y-12181556D01*
X7538354Y-11933937D02*
X7557402Y-11933937D01*
X7557402Y-11933937D02*
X7576450Y-11943461D01*
X7576450Y-11943461D02*
X7585973Y-11952985D01*
X7585973Y-11952985D02*
X7595497Y-11972033D01*
X7595497Y-11972033D02*
X7605021Y-12010128D01*
X7605021Y-12010128D02*
X7605021Y-12057747D01*
X7605021Y-12057747D02*
X7595497Y-12095842D01*
X7595497Y-12095842D02*
X7585973Y-12114890D01*
X7585973Y-12114890D02*
X7576450Y-12124414D01*
X7576450Y-12124414D02*
X7557402Y-12133937D01*
X7557402Y-12133937D02*
X7538354Y-12133937D01*
X7538354Y-12133937D02*
X7519307Y-12124414D01*
X7519307Y-12124414D02*
X7509783Y-12114890D01*
X7509783Y-12114890D02*
X7500259Y-12095842D01*
X7500259Y-12095842D02*
X7490735Y-12057747D01*
X7490735Y-12057747D02*
X7490735Y-12010128D01*
X7490735Y-12010128D02*
X7500259Y-11972033D01*
X7500259Y-11972033D02*
X7509783Y-11952985D01*
X7509783Y-11952985D02*
X7519307Y-11943461D01*
X7519307Y-11943461D02*
X7538354Y-11933937D01*
X7690735Y-12114890D02*
X7700259Y-12124414D01*
X7700259Y-12124414D02*
X7690735Y-12133937D01*
X7690735Y-12133937D02*
X7681211Y-12124414D01*
X7681211Y-12124414D02*
X7690735Y-12114890D01*
X7690735Y-12114890D02*
X7690735Y-12133937D01*
X7824069Y-11933937D02*
X7843116Y-11933937D01*
X7843116Y-11933937D02*
X7862164Y-11943461D01*
X7862164Y-11943461D02*
X7871688Y-11952985D01*
X7871688Y-11952985D02*
X7881211Y-11972033D01*
X7881211Y-11972033D02*
X7890735Y-12010128D01*
X7890735Y-12010128D02*
X7890735Y-12057747D01*
X7890735Y-12057747D02*
X7881211Y-12095842D01*
X7881211Y-12095842D02*
X7871688Y-12114890D01*
X7871688Y-12114890D02*
X7862164Y-12124414D01*
X7862164Y-12124414D02*
X7843116Y-12133937D01*
X7843116Y-12133937D02*
X7824069Y-12133937D01*
X7824069Y-12133937D02*
X7805021Y-12124414D01*
X7805021Y-12124414D02*
X7795497Y-12114890D01*
X7795497Y-12114890D02*
X7785973Y-12095842D01*
X7785973Y-12095842D02*
X7776450Y-12057747D01*
X7776450Y-12057747D02*
X7776450Y-12010128D01*
X7776450Y-12010128D02*
X7785973Y-11972033D01*
X7785973Y-11972033D02*
X7795497Y-11952985D01*
X7795497Y-11952985D02*
X7805021Y-11943461D01*
X7805021Y-11943461D02*
X7824069Y-11933937D01*
X8081211Y-12133937D02*
X7966926Y-12133937D01*
X8024069Y-12133937D02*
X8024069Y-11933937D01*
X8024069Y-11933937D02*
X8005021Y-11962509D01*
X8005021Y-11962509D02*
X7985973Y-11981556D01*
X7985973Y-11981556D02*
X7966926Y-11991080D01*
X8176450Y-12133937D02*
X8214545Y-12133937D01*
X8214545Y-12133937D02*
X8233592Y-12124414D01*
X8233592Y-12124414D02*
X8243116Y-12114890D01*
X8243116Y-12114890D02*
X8262164Y-12086318D01*
X8262164Y-12086318D02*
X8271688Y-12048223D01*
X8271688Y-12048223D02*
X8271688Y-11972033D01*
X8271688Y-11972033D02*
X8262164Y-11952985D01*
X8262164Y-11952985D02*
X8252640Y-11943461D01*
X8252640Y-11943461D02*
X8233592Y-11933937D01*
X8233592Y-11933937D02*
X8195497Y-11933937D01*
X8195497Y-11933937D02*
X8176450Y-11943461D01*
X8176450Y-11943461D02*
X8166926Y-11952985D01*
X8166926Y-11952985D02*
X8157402Y-11972033D01*
X8157402Y-11972033D02*
X8157402Y-12019652D01*
X8157402Y-12019652D02*
X8166926Y-12038699D01*
X8166926Y-12038699D02*
X8176450Y-12048223D01*
X8176450Y-12048223D02*
X8195497Y-12057747D01*
X8195497Y-12057747D02*
X8233592Y-12057747D01*
X8233592Y-12057747D02*
X8252640Y-12048223D01*
X8252640Y-12048223D02*
X8262164Y-12038699D01*
X8262164Y-12038699D02*
X8271688Y-12019652D01*
X8338354Y-11933937D02*
X8471688Y-11933937D01*
X8471688Y-11933937D02*
X8385973Y-12133937D01*
X8538354Y-11933937D02*
X8538354Y-11972033D01*
X8614545Y-11933937D02*
X8614545Y-11972033D01*
X8909783Y-12210128D02*
X8900259Y-12200604D01*
X8900259Y-12200604D02*
X8881212Y-12172033D01*
X8881212Y-12172033D02*
X8871688Y-12152985D01*
X8871688Y-12152985D02*
X8862164Y-12124414D01*
X8862164Y-12124414D02*
X8852640Y-12076795D01*
X8852640Y-12076795D02*
X8852640Y-12038699D01*
X8852640Y-12038699D02*
X8862164Y-11991080D01*
X8862164Y-11991080D02*
X8871688Y-11962509D01*
X8871688Y-11962509D02*
X8881212Y-11943461D01*
X8881212Y-11943461D02*
X8900259Y-11914890D01*
X8900259Y-11914890D02*
X8909783Y-11905366D01*
X8976450Y-11952985D02*
X8985974Y-11943461D01*
X8985974Y-11943461D02*
X9005021Y-11933937D01*
X9005021Y-11933937D02*
X9052640Y-11933937D01*
X9052640Y-11933937D02*
X9071688Y-11943461D01*
X9071688Y-11943461D02*
X9081212Y-11952985D01*
X9081212Y-11952985D02*
X9090735Y-11972033D01*
X9090735Y-11972033D02*
X9090735Y-11991080D01*
X9090735Y-11991080D02*
X9081212Y-12019652D01*
X9081212Y-12019652D02*
X8966926Y-12133937D01*
X8966926Y-12133937D02*
X9090735Y-12133937D01*
X9328831Y-12133937D02*
X9328831Y-11933937D01*
X9414545Y-12133937D02*
X9414545Y-12029176D01*
X9414545Y-12029176D02*
X9405021Y-12010128D01*
X9405021Y-12010128D02*
X9385974Y-12000604D01*
X9385974Y-12000604D02*
X9357402Y-12000604D01*
X9357402Y-12000604D02*
X9338355Y-12010128D01*
X9338355Y-12010128D02*
X9328831Y-12019652D01*
X9538355Y-12133937D02*
X9519307Y-12124414D01*
X9519307Y-12124414D02*
X9509783Y-12114890D01*
X9509783Y-12114890D02*
X9500259Y-12095842D01*
X9500259Y-12095842D02*
X9500259Y-12038699D01*
X9500259Y-12038699D02*
X9509783Y-12019652D01*
X9509783Y-12019652D02*
X9519307Y-12010128D01*
X9519307Y-12010128D02*
X9538355Y-12000604D01*
X9538355Y-12000604D02*
X9566926Y-12000604D01*
X9566926Y-12000604D02*
X9585974Y-12010128D01*
X9585974Y-12010128D02*
X9595497Y-12019652D01*
X9595497Y-12019652D02*
X9605021Y-12038699D01*
X9605021Y-12038699D02*
X9605021Y-12095842D01*
X9605021Y-12095842D02*
X9595497Y-12114890D01*
X9595497Y-12114890D02*
X9585974Y-12124414D01*
X9585974Y-12124414D02*
X9566926Y-12133937D01*
X9566926Y-12133937D02*
X9538355Y-12133937D01*
X9719307Y-12133937D02*
X9700259Y-12124414D01*
X9700259Y-12124414D02*
X9690736Y-12105366D01*
X9690736Y-12105366D02*
X9690736Y-11933937D01*
X9871688Y-12124414D02*
X9852640Y-12133937D01*
X9852640Y-12133937D02*
X9814545Y-12133937D01*
X9814545Y-12133937D02*
X9795497Y-12124414D01*
X9795497Y-12124414D02*
X9785974Y-12105366D01*
X9785974Y-12105366D02*
X9785974Y-12029176D01*
X9785974Y-12029176D02*
X9795497Y-12010128D01*
X9795497Y-12010128D02*
X9814545Y-12000604D01*
X9814545Y-12000604D02*
X9852640Y-12000604D01*
X9852640Y-12000604D02*
X9871688Y-12010128D01*
X9871688Y-12010128D02*
X9881212Y-12029176D01*
X9881212Y-12029176D02*
X9881212Y-12048223D01*
X9881212Y-12048223D02*
X9785974Y-12067271D01*
X9957402Y-12124414D02*
X9976450Y-12133937D01*
X9976450Y-12133937D02*
X10014545Y-12133937D01*
X10014545Y-12133937D02*
X10033593Y-12124414D01*
X10033593Y-12124414D02*
X10043117Y-12105366D01*
X10043117Y-12105366D02*
X10043117Y-12095842D01*
X10043117Y-12095842D02*
X10033593Y-12076795D01*
X10033593Y-12076795D02*
X10014545Y-12067271D01*
X10014545Y-12067271D02*
X9985974Y-12067271D01*
X9985974Y-12067271D02*
X9966926Y-12057747D01*
X9966926Y-12057747D02*
X9957402Y-12038699D01*
X9957402Y-12038699D02*
X9957402Y-12029176D01*
X9957402Y-12029176D02*
X9966926Y-12010128D01*
X9966926Y-12010128D02*
X9985974Y-12000604D01*
X9985974Y-12000604D02*
X10014545Y-12000604D01*
X10014545Y-12000604D02*
X10033593Y-12010128D01*
X10109783Y-12210128D02*
X10119307Y-12200604D01*
X10119307Y-12200604D02*
X10138355Y-12172033D01*
X10138355Y-12172033D02*
X10147878Y-12152985D01*
X10147878Y-12152985D02*
X10157402Y-12124414D01*
X10157402Y-12124414D02*
X10166926Y-12076795D01*
X10166926Y-12076795D02*
X10166926Y-12038699D01*
X10166926Y-12038699D02*
X10157402Y-11991080D01*
X10157402Y-11991080D02*
X10147878Y-11962509D01*
X10147878Y-11962509D02*
X10138355Y-11943461D01*
X10138355Y-11943461D02*
X10119307Y-11914890D01*
X10119307Y-11914890D02*
X10109783Y-11905366D01*
D13*
X5334720Y-12306454D02*
G75*
G03*
X5334720Y-12306454I-35000J0D01*
G01*
D11*
X5633592Y-12197937D02*
X5652640Y-12197937D01*
X5652640Y-12197937D02*
X5671687Y-12207461D01*
X5671687Y-12207461D02*
X5681211Y-12216985D01*
X5681211Y-12216985D02*
X5690735Y-12236033D01*
X5690735Y-12236033D02*
X5700259Y-12274128D01*
X5700259Y-12274128D02*
X5700259Y-12321747D01*
X5700259Y-12321747D02*
X5690735Y-12359842D01*
X5690735Y-12359842D02*
X5681211Y-12378890D01*
X5681211Y-12378890D02*
X5671687Y-12388414D01*
X5671687Y-12388414D02*
X5652640Y-12397937D01*
X5652640Y-12397937D02*
X5633592Y-12397937D01*
X5633592Y-12397937D02*
X5614545Y-12388414D01*
X5614545Y-12388414D02*
X5605021Y-12378890D01*
X5605021Y-12378890D02*
X5595497Y-12359842D01*
X5595497Y-12359842D02*
X5585973Y-12321747D01*
X5585973Y-12321747D02*
X5585973Y-12274128D01*
X5585973Y-12274128D02*
X5595497Y-12236033D01*
X5595497Y-12236033D02*
X5605021Y-12216985D01*
X5605021Y-12216985D02*
X5614545Y-12207461D01*
X5614545Y-12207461D02*
X5633592Y-12197937D01*
X5785973Y-12378890D02*
X5795497Y-12388414D01*
X5795497Y-12388414D02*
X5785973Y-12397937D01*
X5785973Y-12397937D02*
X5776449Y-12388414D01*
X5776449Y-12388414D02*
X5785973Y-12378890D01*
X5785973Y-12378890D02*
X5785973Y-12397937D01*
X5862164Y-12197937D02*
X5995497Y-12197937D01*
X5995497Y-12197937D02*
X5909783Y-12397937D01*
X6109783Y-12197937D02*
X6128830Y-12197937D01*
X6128830Y-12197937D02*
X6147878Y-12207461D01*
X6147878Y-12207461D02*
X6157402Y-12216985D01*
X6157402Y-12216985D02*
X6166926Y-12236033D01*
X6166926Y-12236033D02*
X6176449Y-12274128D01*
X6176449Y-12274128D02*
X6176449Y-12321747D01*
X6176449Y-12321747D02*
X6166926Y-12359842D01*
X6166926Y-12359842D02*
X6157402Y-12378890D01*
X6157402Y-12378890D02*
X6147878Y-12388414D01*
X6147878Y-12388414D02*
X6128830Y-12397937D01*
X6128830Y-12397937D02*
X6109783Y-12397937D01*
X6109783Y-12397937D02*
X6090735Y-12388414D01*
X6090735Y-12388414D02*
X6081211Y-12378890D01*
X6081211Y-12378890D02*
X6071687Y-12359842D01*
X6071687Y-12359842D02*
X6062164Y-12321747D01*
X6062164Y-12321747D02*
X6062164Y-12274128D01*
X6062164Y-12274128D02*
X6071687Y-12236033D01*
X6071687Y-12236033D02*
X6081211Y-12216985D01*
X6081211Y-12216985D02*
X6090735Y-12207461D01*
X6090735Y-12207461D02*
X6109783Y-12197937D01*
X6300259Y-12197937D02*
X6319307Y-12197937D01*
X6319307Y-12197937D02*
X6338354Y-12207461D01*
X6338354Y-12207461D02*
X6347878Y-12216985D01*
X6347878Y-12216985D02*
X6357402Y-12236033D01*
X6357402Y-12236033D02*
X6366926Y-12274128D01*
X6366926Y-12274128D02*
X6366926Y-12321747D01*
X6366926Y-12321747D02*
X6357402Y-12359842D01*
X6357402Y-12359842D02*
X6347878Y-12378890D01*
X6347878Y-12378890D02*
X6338354Y-12388414D01*
X6338354Y-12388414D02*
X6319307Y-12397937D01*
X6319307Y-12397937D02*
X6300259Y-12397937D01*
X6300259Y-12397937D02*
X6281211Y-12388414D01*
X6281211Y-12388414D02*
X6271687Y-12378890D01*
X6271687Y-12378890D02*
X6262164Y-12359842D01*
X6262164Y-12359842D02*
X6252640Y-12321747D01*
X6252640Y-12321747D02*
X6252640Y-12274128D01*
X6252640Y-12274128D02*
X6262164Y-12236033D01*
X6262164Y-12236033D02*
X6271687Y-12216985D01*
X6271687Y-12216985D02*
X6281211Y-12207461D01*
X6281211Y-12207461D02*
X6300259Y-12197937D01*
X6452640Y-12397937D02*
X6452640Y-12264604D01*
X6452640Y-12283652D02*
X6462164Y-12274128D01*
X6462164Y-12274128D02*
X6481211Y-12264604D01*
X6481211Y-12264604D02*
X6509783Y-12264604D01*
X6509783Y-12264604D02*
X6528830Y-12274128D01*
X6528830Y-12274128D02*
X6538354Y-12293176D01*
X6538354Y-12293176D02*
X6538354Y-12397937D01*
X6538354Y-12293176D02*
X6547878Y-12274128D01*
X6547878Y-12274128D02*
X6566926Y-12264604D01*
X6566926Y-12264604D02*
X6595497Y-12264604D01*
X6595497Y-12264604D02*
X6614545Y-12274128D01*
X6614545Y-12274128D02*
X6624068Y-12293176D01*
X6624068Y-12293176D02*
X6624068Y-12397937D01*
X6719307Y-12397937D02*
X6719307Y-12264604D01*
X6719307Y-12283652D02*
X6728830Y-12274128D01*
X6728830Y-12274128D02*
X6747878Y-12264604D01*
X6747878Y-12264604D02*
X6776449Y-12264604D01*
X6776449Y-12264604D02*
X6795497Y-12274128D01*
X6795497Y-12274128D02*
X6805021Y-12293176D01*
X6805021Y-12293176D02*
X6805021Y-12397937D01*
X6805021Y-12293176D02*
X6814545Y-12274128D01*
X6814545Y-12274128D02*
X6833592Y-12264604D01*
X6833592Y-12264604D02*
X6862164Y-12264604D01*
X6862164Y-12264604D02*
X6881211Y-12274128D01*
X6881211Y-12274128D02*
X6890735Y-12293176D01*
X6890735Y-12293176D02*
X6890735Y-12397937D01*
X7281211Y-12188414D02*
X7109783Y-12445556D01*
X7538354Y-12197937D02*
X7557402Y-12197937D01*
X7557402Y-12197937D02*
X7576450Y-12207461D01*
X7576450Y-12207461D02*
X7585973Y-12216985D01*
X7585973Y-12216985D02*
X7595497Y-12236033D01*
X7595497Y-12236033D02*
X7605021Y-12274128D01*
X7605021Y-12274128D02*
X7605021Y-12321747D01*
X7605021Y-12321747D02*
X7595497Y-12359842D01*
X7595497Y-12359842D02*
X7585973Y-12378890D01*
X7585973Y-12378890D02*
X7576450Y-12388414D01*
X7576450Y-12388414D02*
X7557402Y-12397937D01*
X7557402Y-12397937D02*
X7538354Y-12397937D01*
X7538354Y-12397937D02*
X7519307Y-12388414D01*
X7519307Y-12388414D02*
X7509783Y-12378890D01*
X7509783Y-12378890D02*
X7500259Y-12359842D01*
X7500259Y-12359842D02*
X7490735Y-12321747D01*
X7490735Y-12321747D02*
X7490735Y-12274128D01*
X7490735Y-12274128D02*
X7500259Y-12236033D01*
X7500259Y-12236033D02*
X7509783Y-12216985D01*
X7509783Y-12216985D02*
X7519307Y-12207461D01*
X7519307Y-12207461D02*
X7538354Y-12197937D01*
X7690735Y-12378890D02*
X7700259Y-12388414D01*
X7700259Y-12388414D02*
X7690735Y-12397937D01*
X7690735Y-12397937D02*
X7681211Y-12388414D01*
X7681211Y-12388414D02*
X7690735Y-12378890D01*
X7690735Y-12378890D02*
X7690735Y-12397937D01*
X7824069Y-12197937D02*
X7843116Y-12197937D01*
X7843116Y-12197937D02*
X7862164Y-12207461D01*
X7862164Y-12207461D02*
X7871688Y-12216985D01*
X7871688Y-12216985D02*
X7881211Y-12236033D01*
X7881211Y-12236033D02*
X7890735Y-12274128D01*
X7890735Y-12274128D02*
X7890735Y-12321747D01*
X7890735Y-12321747D02*
X7881211Y-12359842D01*
X7881211Y-12359842D02*
X7871688Y-12378890D01*
X7871688Y-12378890D02*
X7862164Y-12388414D01*
X7862164Y-12388414D02*
X7843116Y-12397937D01*
X7843116Y-12397937D02*
X7824069Y-12397937D01*
X7824069Y-12397937D02*
X7805021Y-12388414D01*
X7805021Y-12388414D02*
X7795497Y-12378890D01*
X7795497Y-12378890D02*
X7785973Y-12359842D01*
X7785973Y-12359842D02*
X7776450Y-12321747D01*
X7776450Y-12321747D02*
X7776450Y-12274128D01*
X7776450Y-12274128D02*
X7785973Y-12236033D01*
X7785973Y-12236033D02*
X7795497Y-12216985D01*
X7795497Y-12216985D02*
X7805021Y-12207461D01*
X7805021Y-12207461D02*
X7824069Y-12197937D01*
X7966926Y-12216985D02*
X7976450Y-12207461D01*
X7976450Y-12207461D02*
X7995497Y-12197937D01*
X7995497Y-12197937D02*
X8043116Y-12197937D01*
X8043116Y-12197937D02*
X8062164Y-12207461D01*
X8062164Y-12207461D02*
X8071688Y-12216985D01*
X8071688Y-12216985D02*
X8081211Y-12236033D01*
X8081211Y-12236033D02*
X8081211Y-12255080D01*
X8081211Y-12255080D02*
X8071688Y-12283652D01*
X8071688Y-12283652D02*
X7957402Y-12397937D01*
X7957402Y-12397937D02*
X8081211Y-12397937D01*
X8147878Y-12197937D02*
X8281211Y-12197937D01*
X8281211Y-12197937D02*
X8195497Y-12397937D01*
X8443116Y-12197937D02*
X8405021Y-12197937D01*
X8405021Y-12197937D02*
X8385973Y-12207461D01*
X8385973Y-12207461D02*
X8376450Y-12216985D01*
X8376450Y-12216985D02*
X8357402Y-12245556D01*
X8357402Y-12245556D02*
X8347878Y-12283652D01*
X8347878Y-12283652D02*
X8347878Y-12359842D01*
X8347878Y-12359842D02*
X8357402Y-12378890D01*
X8357402Y-12378890D02*
X8366926Y-12388414D01*
X8366926Y-12388414D02*
X8385973Y-12397937D01*
X8385973Y-12397937D02*
X8424069Y-12397937D01*
X8424069Y-12397937D02*
X8443116Y-12388414D01*
X8443116Y-12388414D02*
X8452640Y-12378890D01*
X8452640Y-12378890D02*
X8462164Y-12359842D01*
X8462164Y-12359842D02*
X8462164Y-12312223D01*
X8462164Y-12312223D02*
X8452640Y-12293176D01*
X8452640Y-12293176D02*
X8443116Y-12283652D01*
X8443116Y-12283652D02*
X8424069Y-12274128D01*
X8424069Y-12274128D02*
X8385973Y-12274128D01*
X8385973Y-12274128D02*
X8366926Y-12283652D01*
X8366926Y-12283652D02*
X8357402Y-12293176D01*
X8357402Y-12293176D02*
X8347878Y-12312223D01*
X8538354Y-12197937D02*
X8538354Y-12236033D01*
X8614545Y-12197937D02*
X8614545Y-12236033D01*
X8909783Y-12474128D02*
X8900259Y-12464604D01*
X8900259Y-12464604D02*
X8881212Y-12436033D01*
X8881212Y-12436033D02*
X8871688Y-12416985D01*
X8871688Y-12416985D02*
X8862164Y-12388414D01*
X8862164Y-12388414D02*
X8852640Y-12340795D01*
X8852640Y-12340795D02*
X8852640Y-12302699D01*
X8852640Y-12302699D02*
X8862164Y-12255080D01*
X8862164Y-12255080D02*
X8871688Y-12226509D01*
X8871688Y-12226509D02*
X8881212Y-12207461D01*
X8881212Y-12207461D02*
X8900259Y-12178890D01*
X8900259Y-12178890D02*
X8909783Y-12169366D01*
X9071688Y-12197937D02*
X9033593Y-12197937D01*
X9033593Y-12197937D02*
X9014545Y-12207461D01*
X9014545Y-12207461D02*
X9005021Y-12216985D01*
X9005021Y-12216985D02*
X8985974Y-12245556D01*
X8985974Y-12245556D02*
X8976450Y-12283652D01*
X8976450Y-12283652D02*
X8976450Y-12359842D01*
X8976450Y-12359842D02*
X8985974Y-12378890D01*
X8985974Y-12378890D02*
X8995497Y-12388414D01*
X8995497Y-12388414D02*
X9014545Y-12397937D01*
X9014545Y-12397937D02*
X9052640Y-12397937D01*
X9052640Y-12397937D02*
X9071688Y-12388414D01*
X9071688Y-12388414D02*
X9081212Y-12378890D01*
X9081212Y-12378890D02*
X9090735Y-12359842D01*
X9090735Y-12359842D02*
X9090735Y-12312223D01*
X9090735Y-12312223D02*
X9081212Y-12293176D01*
X9081212Y-12293176D02*
X9071688Y-12283652D01*
X9071688Y-12283652D02*
X9052640Y-12274128D01*
X9052640Y-12274128D02*
X9014545Y-12274128D01*
X9014545Y-12274128D02*
X8995497Y-12283652D01*
X8995497Y-12283652D02*
X8985974Y-12293176D01*
X8985974Y-12293176D02*
X8976450Y-12312223D01*
X9328831Y-12397937D02*
X9328831Y-12197937D01*
X9414545Y-12397937D02*
X9414545Y-12293176D01*
X9414545Y-12293176D02*
X9405021Y-12274128D01*
X9405021Y-12274128D02*
X9385974Y-12264604D01*
X9385974Y-12264604D02*
X9357402Y-12264604D01*
X9357402Y-12264604D02*
X9338355Y-12274128D01*
X9338355Y-12274128D02*
X9328831Y-12283652D01*
X9538355Y-12397937D02*
X9519307Y-12388414D01*
X9519307Y-12388414D02*
X9509783Y-12378890D01*
X9509783Y-12378890D02*
X9500259Y-12359842D01*
X9500259Y-12359842D02*
X9500259Y-12302699D01*
X9500259Y-12302699D02*
X9509783Y-12283652D01*
X9509783Y-12283652D02*
X9519307Y-12274128D01*
X9519307Y-12274128D02*
X9538355Y-12264604D01*
X9538355Y-12264604D02*
X9566926Y-12264604D01*
X9566926Y-12264604D02*
X9585974Y-12274128D01*
X9585974Y-12274128D02*
X9595497Y-12283652D01*
X9595497Y-12283652D02*
X9605021Y-12302699D01*
X9605021Y-12302699D02*
X9605021Y-12359842D01*
X9605021Y-12359842D02*
X9595497Y-12378890D01*
X9595497Y-12378890D02*
X9585974Y-12388414D01*
X9585974Y-12388414D02*
X9566926Y-12397937D01*
X9566926Y-12397937D02*
X9538355Y-12397937D01*
X9719307Y-12397937D02*
X9700259Y-12388414D01*
X9700259Y-12388414D02*
X9690736Y-12369366D01*
X9690736Y-12369366D02*
X9690736Y-12197937D01*
X9871688Y-12388414D02*
X9852640Y-12397937D01*
X9852640Y-12397937D02*
X9814545Y-12397937D01*
X9814545Y-12397937D02*
X9795497Y-12388414D01*
X9795497Y-12388414D02*
X9785974Y-12369366D01*
X9785974Y-12369366D02*
X9785974Y-12293176D01*
X9785974Y-12293176D02*
X9795497Y-12274128D01*
X9795497Y-12274128D02*
X9814545Y-12264604D01*
X9814545Y-12264604D02*
X9852640Y-12264604D01*
X9852640Y-12264604D02*
X9871688Y-12274128D01*
X9871688Y-12274128D02*
X9881212Y-12293176D01*
X9881212Y-12293176D02*
X9881212Y-12312223D01*
X9881212Y-12312223D02*
X9785974Y-12331271D01*
X9957402Y-12388414D02*
X9976450Y-12397937D01*
X9976450Y-12397937D02*
X10014545Y-12397937D01*
X10014545Y-12397937D02*
X10033593Y-12388414D01*
X10033593Y-12388414D02*
X10043117Y-12369366D01*
X10043117Y-12369366D02*
X10043117Y-12359842D01*
X10043117Y-12359842D02*
X10033593Y-12340795D01*
X10033593Y-12340795D02*
X10014545Y-12331271D01*
X10014545Y-12331271D02*
X9985974Y-12331271D01*
X9985974Y-12331271D02*
X9966926Y-12321747D01*
X9966926Y-12321747D02*
X9957402Y-12302699D01*
X9957402Y-12302699D02*
X9957402Y-12293176D01*
X9957402Y-12293176D02*
X9966926Y-12274128D01*
X9966926Y-12274128D02*
X9985974Y-12264604D01*
X9985974Y-12264604D02*
X10014545Y-12264604D01*
X10014545Y-12264604D02*
X10033593Y-12274128D01*
X10109783Y-12474128D02*
X10119307Y-12464604D01*
X10119307Y-12464604D02*
X10138355Y-12436033D01*
X10138355Y-12436033D02*
X10147878Y-12416985D01*
X10147878Y-12416985D02*
X10157402Y-12388414D01*
X10157402Y-12388414D02*
X10166926Y-12340795D01*
X10166926Y-12340795D02*
X10166926Y-12302699D01*
X10166926Y-12302699D02*
X10157402Y-12255080D01*
X10157402Y-12255080D02*
X10147878Y-12226509D01*
X10147878Y-12226509D02*
X10138355Y-12207461D01*
X10138355Y-12207461D02*
X10119307Y-12178890D01*
X10119307Y-12178890D02*
X10109783Y-12169366D01*
D14*
X5297220Y-12532954D02*
X5297220Y-12607954D01*
X5259720Y-12570454D02*
X5334720Y-12570454D01*
D11*
X5633592Y-12461937D02*
X5652640Y-12461937D01*
X5652640Y-12461937D02*
X5671687Y-12471461D01*
X5671687Y-12471461D02*
X5681211Y-12480985D01*
X5681211Y-12480985D02*
X5690735Y-12500033D01*
X5690735Y-12500033D02*
X5700259Y-12538128D01*
X5700259Y-12538128D02*
X5700259Y-12585747D01*
X5700259Y-12585747D02*
X5690735Y-12623842D01*
X5690735Y-12623842D02*
X5681211Y-12642890D01*
X5681211Y-12642890D02*
X5671687Y-12652414D01*
X5671687Y-12652414D02*
X5652640Y-12661937D01*
X5652640Y-12661937D02*
X5633592Y-12661937D01*
X5633592Y-12661937D02*
X5614545Y-12652414D01*
X5614545Y-12652414D02*
X5605021Y-12642890D01*
X5605021Y-12642890D02*
X5595497Y-12623842D01*
X5595497Y-12623842D02*
X5585973Y-12585747D01*
X5585973Y-12585747D02*
X5585973Y-12538128D01*
X5585973Y-12538128D02*
X5595497Y-12500033D01*
X5595497Y-12500033D02*
X5605021Y-12480985D01*
X5605021Y-12480985D02*
X5614545Y-12471461D01*
X5614545Y-12471461D02*
X5633592Y-12461937D01*
X5785973Y-12642890D02*
X5795497Y-12652414D01*
X5795497Y-12652414D02*
X5785973Y-12661937D01*
X5785973Y-12661937D02*
X5776449Y-12652414D01*
X5776449Y-12652414D02*
X5785973Y-12642890D01*
X5785973Y-12642890D02*
X5785973Y-12661937D01*
X5862164Y-12461937D02*
X5995497Y-12461937D01*
X5995497Y-12461937D02*
X5909783Y-12661937D01*
X6166926Y-12461937D02*
X6071687Y-12461937D01*
X6071687Y-12461937D02*
X6062164Y-12557176D01*
X6062164Y-12557176D02*
X6071687Y-12547652D01*
X6071687Y-12547652D02*
X6090735Y-12538128D01*
X6090735Y-12538128D02*
X6138354Y-12538128D01*
X6138354Y-12538128D02*
X6157402Y-12547652D01*
X6157402Y-12547652D02*
X6166926Y-12557176D01*
X6166926Y-12557176D02*
X6176449Y-12576223D01*
X6176449Y-12576223D02*
X6176449Y-12623842D01*
X6176449Y-12623842D02*
X6166926Y-12642890D01*
X6166926Y-12642890D02*
X6157402Y-12652414D01*
X6157402Y-12652414D02*
X6138354Y-12661937D01*
X6138354Y-12661937D02*
X6090735Y-12661937D01*
X6090735Y-12661937D02*
X6071687Y-12652414D01*
X6071687Y-12652414D02*
X6062164Y-12642890D01*
X6300259Y-12461937D02*
X6319307Y-12461937D01*
X6319307Y-12461937D02*
X6338354Y-12471461D01*
X6338354Y-12471461D02*
X6347878Y-12480985D01*
X6347878Y-12480985D02*
X6357402Y-12500033D01*
X6357402Y-12500033D02*
X6366926Y-12538128D01*
X6366926Y-12538128D02*
X6366926Y-12585747D01*
X6366926Y-12585747D02*
X6357402Y-12623842D01*
X6357402Y-12623842D02*
X6347878Y-12642890D01*
X6347878Y-12642890D02*
X6338354Y-12652414D01*
X6338354Y-12652414D02*
X6319307Y-12661937D01*
X6319307Y-12661937D02*
X6300259Y-12661937D01*
X6300259Y-12661937D02*
X6281211Y-12652414D01*
X6281211Y-12652414D02*
X6271687Y-12642890D01*
X6271687Y-12642890D02*
X6262164Y-12623842D01*
X6262164Y-12623842D02*
X6252640Y-12585747D01*
X6252640Y-12585747D02*
X6252640Y-12538128D01*
X6252640Y-12538128D02*
X6262164Y-12500033D01*
X6262164Y-12500033D02*
X6271687Y-12480985D01*
X6271687Y-12480985D02*
X6281211Y-12471461D01*
X6281211Y-12471461D02*
X6300259Y-12461937D01*
X6452640Y-12661937D02*
X6452640Y-12528604D01*
X6452640Y-12547652D02*
X6462164Y-12538128D01*
X6462164Y-12538128D02*
X6481211Y-12528604D01*
X6481211Y-12528604D02*
X6509783Y-12528604D01*
X6509783Y-12528604D02*
X6528830Y-12538128D01*
X6528830Y-12538128D02*
X6538354Y-12557176D01*
X6538354Y-12557176D02*
X6538354Y-12661937D01*
X6538354Y-12557176D02*
X6547878Y-12538128D01*
X6547878Y-12538128D02*
X6566926Y-12528604D01*
X6566926Y-12528604D02*
X6595497Y-12528604D01*
X6595497Y-12528604D02*
X6614545Y-12538128D01*
X6614545Y-12538128D02*
X6624068Y-12557176D01*
X6624068Y-12557176D02*
X6624068Y-12661937D01*
X6719307Y-12661937D02*
X6719307Y-12528604D01*
X6719307Y-12547652D02*
X6728830Y-12538128D01*
X6728830Y-12538128D02*
X6747878Y-12528604D01*
X6747878Y-12528604D02*
X6776449Y-12528604D01*
X6776449Y-12528604D02*
X6795497Y-12538128D01*
X6795497Y-12538128D02*
X6805021Y-12557176D01*
X6805021Y-12557176D02*
X6805021Y-12661937D01*
X6805021Y-12557176D02*
X6814545Y-12538128D01*
X6814545Y-12538128D02*
X6833592Y-12528604D01*
X6833592Y-12528604D02*
X6862164Y-12528604D01*
X6862164Y-12528604D02*
X6881211Y-12538128D01*
X6881211Y-12538128D02*
X6890735Y-12557176D01*
X6890735Y-12557176D02*
X6890735Y-12661937D01*
X7281211Y-12452414D02*
X7109783Y-12709556D01*
X7538354Y-12461937D02*
X7557402Y-12461937D01*
X7557402Y-12461937D02*
X7576450Y-12471461D01*
X7576450Y-12471461D02*
X7585973Y-12480985D01*
X7585973Y-12480985D02*
X7595497Y-12500033D01*
X7595497Y-12500033D02*
X7605021Y-12538128D01*
X7605021Y-12538128D02*
X7605021Y-12585747D01*
X7605021Y-12585747D02*
X7595497Y-12623842D01*
X7595497Y-12623842D02*
X7585973Y-12642890D01*
X7585973Y-12642890D02*
X7576450Y-12652414D01*
X7576450Y-12652414D02*
X7557402Y-12661937D01*
X7557402Y-12661937D02*
X7538354Y-12661937D01*
X7538354Y-12661937D02*
X7519307Y-12652414D01*
X7519307Y-12652414D02*
X7509783Y-12642890D01*
X7509783Y-12642890D02*
X7500259Y-12623842D01*
X7500259Y-12623842D02*
X7490735Y-12585747D01*
X7490735Y-12585747D02*
X7490735Y-12538128D01*
X7490735Y-12538128D02*
X7500259Y-12500033D01*
X7500259Y-12500033D02*
X7509783Y-12480985D01*
X7509783Y-12480985D02*
X7519307Y-12471461D01*
X7519307Y-12471461D02*
X7538354Y-12461937D01*
X7690735Y-12642890D02*
X7700259Y-12652414D01*
X7700259Y-12652414D02*
X7690735Y-12661937D01*
X7690735Y-12661937D02*
X7681211Y-12652414D01*
X7681211Y-12652414D02*
X7690735Y-12642890D01*
X7690735Y-12642890D02*
X7690735Y-12661937D01*
X7824069Y-12461937D02*
X7843116Y-12461937D01*
X7843116Y-12461937D02*
X7862164Y-12471461D01*
X7862164Y-12471461D02*
X7871688Y-12480985D01*
X7871688Y-12480985D02*
X7881211Y-12500033D01*
X7881211Y-12500033D02*
X7890735Y-12538128D01*
X7890735Y-12538128D02*
X7890735Y-12585747D01*
X7890735Y-12585747D02*
X7881211Y-12623842D01*
X7881211Y-12623842D02*
X7871688Y-12642890D01*
X7871688Y-12642890D02*
X7862164Y-12652414D01*
X7862164Y-12652414D02*
X7843116Y-12661937D01*
X7843116Y-12661937D02*
X7824069Y-12661937D01*
X7824069Y-12661937D02*
X7805021Y-12652414D01*
X7805021Y-12652414D02*
X7795497Y-12642890D01*
X7795497Y-12642890D02*
X7785973Y-12623842D01*
X7785973Y-12623842D02*
X7776450Y-12585747D01*
X7776450Y-12585747D02*
X7776450Y-12538128D01*
X7776450Y-12538128D02*
X7785973Y-12500033D01*
X7785973Y-12500033D02*
X7795497Y-12480985D01*
X7795497Y-12480985D02*
X7805021Y-12471461D01*
X7805021Y-12471461D02*
X7824069Y-12461937D01*
X7966926Y-12480985D02*
X7976450Y-12471461D01*
X7976450Y-12471461D02*
X7995497Y-12461937D01*
X7995497Y-12461937D02*
X8043116Y-12461937D01*
X8043116Y-12461937D02*
X8062164Y-12471461D01*
X8062164Y-12471461D02*
X8071688Y-12480985D01*
X8071688Y-12480985D02*
X8081211Y-12500033D01*
X8081211Y-12500033D02*
X8081211Y-12519080D01*
X8081211Y-12519080D02*
X8071688Y-12547652D01*
X8071688Y-12547652D02*
X7957402Y-12661937D01*
X7957402Y-12661937D02*
X8081211Y-12661937D01*
X8176450Y-12661937D02*
X8214545Y-12661937D01*
X8214545Y-12661937D02*
X8233592Y-12652414D01*
X8233592Y-12652414D02*
X8243116Y-12642890D01*
X8243116Y-12642890D02*
X8262164Y-12614318D01*
X8262164Y-12614318D02*
X8271688Y-12576223D01*
X8271688Y-12576223D02*
X8271688Y-12500033D01*
X8271688Y-12500033D02*
X8262164Y-12480985D01*
X8262164Y-12480985D02*
X8252640Y-12471461D01*
X8252640Y-12471461D02*
X8233592Y-12461937D01*
X8233592Y-12461937D02*
X8195497Y-12461937D01*
X8195497Y-12461937D02*
X8176450Y-12471461D01*
X8176450Y-12471461D02*
X8166926Y-12480985D01*
X8166926Y-12480985D02*
X8157402Y-12500033D01*
X8157402Y-12500033D02*
X8157402Y-12547652D01*
X8157402Y-12547652D02*
X8166926Y-12566699D01*
X8166926Y-12566699D02*
X8176450Y-12576223D01*
X8176450Y-12576223D02*
X8195497Y-12585747D01*
X8195497Y-12585747D02*
X8233592Y-12585747D01*
X8233592Y-12585747D02*
X8252640Y-12576223D01*
X8252640Y-12576223D02*
X8262164Y-12566699D01*
X8262164Y-12566699D02*
X8271688Y-12547652D01*
X8452640Y-12461937D02*
X8357402Y-12461937D01*
X8357402Y-12461937D02*
X8347878Y-12557176D01*
X8347878Y-12557176D02*
X8357402Y-12547652D01*
X8357402Y-12547652D02*
X8376450Y-12538128D01*
X8376450Y-12538128D02*
X8424069Y-12538128D01*
X8424069Y-12538128D02*
X8443116Y-12547652D01*
X8443116Y-12547652D02*
X8452640Y-12557176D01*
X8452640Y-12557176D02*
X8462164Y-12576223D01*
X8462164Y-12576223D02*
X8462164Y-12623842D01*
X8462164Y-12623842D02*
X8452640Y-12642890D01*
X8452640Y-12642890D02*
X8443116Y-12652414D01*
X8443116Y-12652414D02*
X8424069Y-12661937D01*
X8424069Y-12661937D02*
X8376450Y-12661937D01*
X8376450Y-12661937D02*
X8357402Y-12652414D01*
X8357402Y-12652414D02*
X8347878Y-12642890D01*
X8538354Y-12461937D02*
X8538354Y-12500033D01*
X8614545Y-12461937D02*
X8614545Y-12500033D01*
X8909783Y-12738128D02*
X8900259Y-12728604D01*
X8900259Y-12728604D02*
X8881212Y-12700033D01*
X8881212Y-12700033D02*
X8871688Y-12680985D01*
X8871688Y-12680985D02*
X8862164Y-12652414D01*
X8862164Y-12652414D02*
X8852640Y-12604795D01*
X8852640Y-12604795D02*
X8852640Y-12566699D01*
X8852640Y-12566699D02*
X8862164Y-12519080D01*
X8862164Y-12519080D02*
X8871688Y-12490509D01*
X8871688Y-12490509D02*
X8881212Y-12471461D01*
X8881212Y-12471461D02*
X8900259Y-12442890D01*
X8900259Y-12442890D02*
X8909783Y-12433366D01*
X8976450Y-12480985D02*
X8985974Y-12471461D01*
X8985974Y-12471461D02*
X9005021Y-12461937D01*
X9005021Y-12461937D02*
X9052640Y-12461937D01*
X9052640Y-12461937D02*
X9071688Y-12471461D01*
X9071688Y-12471461D02*
X9081212Y-12480985D01*
X9081212Y-12480985D02*
X9090735Y-12500033D01*
X9090735Y-12500033D02*
X9090735Y-12519080D01*
X9090735Y-12519080D02*
X9081212Y-12547652D01*
X9081212Y-12547652D02*
X8966926Y-12661937D01*
X8966926Y-12661937D02*
X9090735Y-12661937D01*
X9262164Y-12528604D02*
X9262164Y-12661937D01*
X9214545Y-12452414D02*
X9166926Y-12595271D01*
X9166926Y-12595271D02*
X9290735Y-12595271D01*
X9519307Y-12661937D02*
X9519307Y-12461937D01*
X9605021Y-12661937D02*
X9605021Y-12557176D01*
X9605021Y-12557176D02*
X9595497Y-12538128D01*
X9595497Y-12538128D02*
X9576450Y-12528604D01*
X9576450Y-12528604D02*
X9547878Y-12528604D01*
X9547878Y-12528604D02*
X9528831Y-12538128D01*
X9528831Y-12538128D02*
X9519307Y-12547652D01*
X9728831Y-12661937D02*
X9709783Y-12652414D01*
X9709783Y-12652414D02*
X9700259Y-12642890D01*
X9700259Y-12642890D02*
X9690736Y-12623842D01*
X9690736Y-12623842D02*
X9690736Y-12566699D01*
X9690736Y-12566699D02*
X9700259Y-12547652D01*
X9700259Y-12547652D02*
X9709783Y-12538128D01*
X9709783Y-12538128D02*
X9728831Y-12528604D01*
X9728831Y-12528604D02*
X9757402Y-12528604D01*
X9757402Y-12528604D02*
X9776450Y-12538128D01*
X9776450Y-12538128D02*
X9785974Y-12547652D01*
X9785974Y-12547652D02*
X9795497Y-12566699D01*
X9795497Y-12566699D02*
X9795497Y-12623842D01*
X9795497Y-12623842D02*
X9785974Y-12642890D01*
X9785974Y-12642890D02*
X9776450Y-12652414D01*
X9776450Y-12652414D02*
X9757402Y-12661937D01*
X9757402Y-12661937D02*
X9728831Y-12661937D01*
X9909783Y-12661937D02*
X9890736Y-12652414D01*
X9890736Y-12652414D02*
X9881212Y-12633366D01*
X9881212Y-12633366D02*
X9881212Y-12461937D01*
X10062164Y-12652414D02*
X10043117Y-12661937D01*
X10043117Y-12661937D02*
X10005021Y-12661937D01*
X10005021Y-12661937D02*
X9985974Y-12652414D01*
X9985974Y-12652414D02*
X9976450Y-12633366D01*
X9976450Y-12633366D02*
X9976450Y-12557176D01*
X9976450Y-12557176D02*
X9985974Y-12538128D01*
X9985974Y-12538128D02*
X10005021Y-12528604D01*
X10005021Y-12528604D02*
X10043117Y-12528604D01*
X10043117Y-12528604D02*
X10062164Y-12538128D01*
X10062164Y-12538128D02*
X10071688Y-12557176D01*
X10071688Y-12557176D02*
X10071688Y-12576223D01*
X10071688Y-12576223D02*
X9976450Y-12595271D01*
X10147878Y-12652414D02*
X10166926Y-12661937D01*
X10166926Y-12661937D02*
X10205021Y-12661937D01*
X10205021Y-12661937D02*
X10224069Y-12652414D01*
X10224069Y-12652414D02*
X10233593Y-12633366D01*
X10233593Y-12633366D02*
X10233593Y-12623842D01*
X10233593Y-12623842D02*
X10224069Y-12604795D01*
X10224069Y-12604795D02*
X10205021Y-12595271D01*
X10205021Y-12595271D02*
X10176450Y-12595271D01*
X10176450Y-12595271D02*
X10157402Y-12585747D01*
X10157402Y-12585747D02*
X10147878Y-12566699D01*
X10147878Y-12566699D02*
X10147878Y-12557176D01*
X10147878Y-12557176D02*
X10157402Y-12538128D01*
X10157402Y-12538128D02*
X10176450Y-12528604D01*
X10176450Y-12528604D02*
X10205021Y-12528604D01*
X10205021Y-12528604D02*
X10224069Y-12538128D01*
X10300259Y-12738128D02*
X10309783Y-12728604D01*
X10309783Y-12728604D02*
X10328831Y-12700033D01*
X10328831Y-12700033D02*
X10338355Y-12680985D01*
X10338355Y-12680985D02*
X10347878Y-12652414D01*
X10347878Y-12652414D02*
X10357402Y-12604795D01*
X10357402Y-12604795D02*
X10357402Y-12566699D01*
X10357402Y-12566699D02*
X10347878Y-12519080D01*
X10347878Y-12519080D02*
X10338355Y-12490509D01*
X10338355Y-12490509D02*
X10328831Y-12471461D01*
X10328831Y-12471461D02*
X10309783Y-12442890D01*
X10309783Y-12442890D02*
X10300259Y-12433366D01*
D15*
X5323005Y-12862738D02*
X5323005Y-12806169D01*
X5266436Y-12806169D01*
X5266436Y-12862738D01*
X5323005Y-12862738D01*
D11*
X5633592Y-12725937D02*
X5652640Y-12725937D01*
X5652640Y-12725937D02*
X5671687Y-12735461D01*
X5671687Y-12735461D02*
X5681211Y-12744985D01*
X5681211Y-12744985D02*
X5690735Y-12764033D01*
X5690735Y-12764033D02*
X5700259Y-12802128D01*
X5700259Y-12802128D02*
X5700259Y-12849747D01*
X5700259Y-12849747D02*
X5690735Y-12887842D01*
X5690735Y-12887842D02*
X5681211Y-12906890D01*
X5681211Y-12906890D02*
X5671687Y-12916414D01*
X5671687Y-12916414D02*
X5652640Y-12925937D01*
X5652640Y-12925937D02*
X5633592Y-12925937D01*
X5633592Y-12925937D02*
X5614545Y-12916414D01*
X5614545Y-12916414D02*
X5605021Y-12906890D01*
X5605021Y-12906890D02*
X5595497Y-12887842D01*
X5595497Y-12887842D02*
X5585973Y-12849747D01*
X5585973Y-12849747D02*
X5585973Y-12802128D01*
X5585973Y-12802128D02*
X5595497Y-12764033D01*
X5595497Y-12764033D02*
X5605021Y-12744985D01*
X5605021Y-12744985D02*
X5614545Y-12735461D01*
X5614545Y-12735461D02*
X5633592Y-12725937D01*
X5785973Y-12906890D02*
X5795497Y-12916414D01*
X5795497Y-12916414D02*
X5785973Y-12925937D01*
X5785973Y-12925937D02*
X5776449Y-12916414D01*
X5776449Y-12916414D02*
X5785973Y-12906890D01*
X5785973Y-12906890D02*
X5785973Y-12925937D01*
X5909783Y-12811652D02*
X5890735Y-12802128D01*
X5890735Y-12802128D02*
X5881211Y-12792604D01*
X5881211Y-12792604D02*
X5871687Y-12773556D01*
X5871687Y-12773556D02*
X5871687Y-12764033D01*
X5871687Y-12764033D02*
X5881211Y-12744985D01*
X5881211Y-12744985D02*
X5890735Y-12735461D01*
X5890735Y-12735461D02*
X5909783Y-12725937D01*
X5909783Y-12725937D02*
X5947878Y-12725937D01*
X5947878Y-12725937D02*
X5966926Y-12735461D01*
X5966926Y-12735461D02*
X5976449Y-12744985D01*
X5976449Y-12744985D02*
X5985973Y-12764033D01*
X5985973Y-12764033D02*
X5985973Y-12773556D01*
X5985973Y-12773556D02*
X5976449Y-12792604D01*
X5976449Y-12792604D02*
X5966926Y-12802128D01*
X5966926Y-12802128D02*
X5947878Y-12811652D01*
X5947878Y-12811652D02*
X5909783Y-12811652D01*
X5909783Y-12811652D02*
X5890735Y-12821176D01*
X5890735Y-12821176D02*
X5881211Y-12830699D01*
X5881211Y-12830699D02*
X5871687Y-12849747D01*
X5871687Y-12849747D02*
X5871687Y-12887842D01*
X5871687Y-12887842D02*
X5881211Y-12906890D01*
X5881211Y-12906890D02*
X5890735Y-12916414D01*
X5890735Y-12916414D02*
X5909783Y-12925937D01*
X5909783Y-12925937D02*
X5947878Y-12925937D01*
X5947878Y-12925937D02*
X5966926Y-12916414D01*
X5966926Y-12916414D02*
X5976449Y-12906890D01*
X5976449Y-12906890D02*
X5985973Y-12887842D01*
X5985973Y-12887842D02*
X5985973Y-12849747D01*
X5985973Y-12849747D02*
X5976449Y-12830699D01*
X5976449Y-12830699D02*
X5966926Y-12821176D01*
X5966926Y-12821176D02*
X5947878Y-12811652D01*
X6109783Y-12725937D02*
X6128830Y-12725937D01*
X6128830Y-12725937D02*
X6147878Y-12735461D01*
X6147878Y-12735461D02*
X6157402Y-12744985D01*
X6157402Y-12744985D02*
X6166926Y-12764033D01*
X6166926Y-12764033D02*
X6176449Y-12802128D01*
X6176449Y-12802128D02*
X6176449Y-12849747D01*
X6176449Y-12849747D02*
X6166926Y-12887842D01*
X6166926Y-12887842D02*
X6157402Y-12906890D01*
X6157402Y-12906890D02*
X6147878Y-12916414D01*
X6147878Y-12916414D02*
X6128830Y-12925937D01*
X6128830Y-12925937D02*
X6109783Y-12925937D01*
X6109783Y-12925937D02*
X6090735Y-12916414D01*
X6090735Y-12916414D02*
X6081211Y-12906890D01*
X6081211Y-12906890D02*
X6071687Y-12887842D01*
X6071687Y-12887842D02*
X6062164Y-12849747D01*
X6062164Y-12849747D02*
X6062164Y-12802128D01*
X6062164Y-12802128D02*
X6071687Y-12764033D01*
X6071687Y-12764033D02*
X6081211Y-12744985D01*
X6081211Y-12744985D02*
X6090735Y-12735461D01*
X6090735Y-12735461D02*
X6109783Y-12725937D01*
X6300259Y-12725937D02*
X6319307Y-12725937D01*
X6319307Y-12725937D02*
X6338354Y-12735461D01*
X6338354Y-12735461D02*
X6347878Y-12744985D01*
X6347878Y-12744985D02*
X6357402Y-12764033D01*
X6357402Y-12764033D02*
X6366926Y-12802128D01*
X6366926Y-12802128D02*
X6366926Y-12849747D01*
X6366926Y-12849747D02*
X6357402Y-12887842D01*
X6357402Y-12887842D02*
X6347878Y-12906890D01*
X6347878Y-12906890D02*
X6338354Y-12916414D01*
X6338354Y-12916414D02*
X6319307Y-12925937D01*
X6319307Y-12925937D02*
X6300259Y-12925937D01*
X6300259Y-12925937D02*
X6281211Y-12916414D01*
X6281211Y-12916414D02*
X6271687Y-12906890D01*
X6271687Y-12906890D02*
X6262164Y-12887842D01*
X6262164Y-12887842D02*
X6252640Y-12849747D01*
X6252640Y-12849747D02*
X6252640Y-12802128D01*
X6252640Y-12802128D02*
X6262164Y-12764033D01*
X6262164Y-12764033D02*
X6271687Y-12744985D01*
X6271687Y-12744985D02*
X6281211Y-12735461D01*
X6281211Y-12735461D02*
X6300259Y-12725937D01*
X6452640Y-12925937D02*
X6452640Y-12792604D01*
X6452640Y-12811652D02*
X6462164Y-12802128D01*
X6462164Y-12802128D02*
X6481211Y-12792604D01*
X6481211Y-12792604D02*
X6509783Y-12792604D01*
X6509783Y-12792604D02*
X6528830Y-12802128D01*
X6528830Y-12802128D02*
X6538354Y-12821176D01*
X6538354Y-12821176D02*
X6538354Y-12925937D01*
X6538354Y-12821176D02*
X6547878Y-12802128D01*
X6547878Y-12802128D02*
X6566926Y-12792604D01*
X6566926Y-12792604D02*
X6595497Y-12792604D01*
X6595497Y-12792604D02*
X6614545Y-12802128D01*
X6614545Y-12802128D02*
X6624068Y-12821176D01*
X6624068Y-12821176D02*
X6624068Y-12925937D01*
X6719307Y-12925937D02*
X6719307Y-12792604D01*
X6719307Y-12811652D02*
X6728830Y-12802128D01*
X6728830Y-12802128D02*
X6747878Y-12792604D01*
X6747878Y-12792604D02*
X6776449Y-12792604D01*
X6776449Y-12792604D02*
X6795497Y-12802128D01*
X6795497Y-12802128D02*
X6805021Y-12821176D01*
X6805021Y-12821176D02*
X6805021Y-12925937D01*
X6805021Y-12821176D02*
X6814545Y-12802128D01*
X6814545Y-12802128D02*
X6833592Y-12792604D01*
X6833592Y-12792604D02*
X6862164Y-12792604D01*
X6862164Y-12792604D02*
X6881211Y-12802128D01*
X6881211Y-12802128D02*
X6890735Y-12821176D01*
X6890735Y-12821176D02*
X6890735Y-12925937D01*
X7281211Y-12716414D02*
X7109783Y-12973556D01*
X7538354Y-12725937D02*
X7557402Y-12725937D01*
X7557402Y-12725937D02*
X7576450Y-12735461D01*
X7576450Y-12735461D02*
X7585973Y-12744985D01*
X7585973Y-12744985D02*
X7595497Y-12764033D01*
X7595497Y-12764033D02*
X7605021Y-12802128D01*
X7605021Y-12802128D02*
X7605021Y-12849747D01*
X7605021Y-12849747D02*
X7595497Y-12887842D01*
X7595497Y-12887842D02*
X7585973Y-12906890D01*
X7585973Y-12906890D02*
X7576450Y-12916414D01*
X7576450Y-12916414D02*
X7557402Y-12925937D01*
X7557402Y-12925937D02*
X7538354Y-12925937D01*
X7538354Y-12925937D02*
X7519307Y-12916414D01*
X7519307Y-12916414D02*
X7509783Y-12906890D01*
X7509783Y-12906890D02*
X7500259Y-12887842D01*
X7500259Y-12887842D02*
X7490735Y-12849747D01*
X7490735Y-12849747D02*
X7490735Y-12802128D01*
X7490735Y-12802128D02*
X7500259Y-12764033D01*
X7500259Y-12764033D02*
X7509783Y-12744985D01*
X7509783Y-12744985D02*
X7519307Y-12735461D01*
X7519307Y-12735461D02*
X7538354Y-12725937D01*
X7690735Y-12906890D02*
X7700259Y-12916414D01*
X7700259Y-12916414D02*
X7690735Y-12925937D01*
X7690735Y-12925937D02*
X7681211Y-12916414D01*
X7681211Y-12916414D02*
X7690735Y-12906890D01*
X7690735Y-12906890D02*
X7690735Y-12925937D01*
X7824069Y-12725937D02*
X7843116Y-12725937D01*
X7843116Y-12725937D02*
X7862164Y-12735461D01*
X7862164Y-12735461D02*
X7871688Y-12744985D01*
X7871688Y-12744985D02*
X7881211Y-12764033D01*
X7881211Y-12764033D02*
X7890735Y-12802128D01*
X7890735Y-12802128D02*
X7890735Y-12849747D01*
X7890735Y-12849747D02*
X7881211Y-12887842D01*
X7881211Y-12887842D02*
X7871688Y-12906890D01*
X7871688Y-12906890D02*
X7862164Y-12916414D01*
X7862164Y-12916414D02*
X7843116Y-12925937D01*
X7843116Y-12925937D02*
X7824069Y-12925937D01*
X7824069Y-12925937D02*
X7805021Y-12916414D01*
X7805021Y-12916414D02*
X7795497Y-12906890D01*
X7795497Y-12906890D02*
X7785973Y-12887842D01*
X7785973Y-12887842D02*
X7776450Y-12849747D01*
X7776450Y-12849747D02*
X7776450Y-12802128D01*
X7776450Y-12802128D02*
X7785973Y-12764033D01*
X7785973Y-12764033D02*
X7795497Y-12744985D01*
X7795497Y-12744985D02*
X7805021Y-12735461D01*
X7805021Y-12735461D02*
X7824069Y-12725937D01*
X7957402Y-12725937D02*
X8081211Y-12725937D01*
X8081211Y-12725937D02*
X8014545Y-12802128D01*
X8014545Y-12802128D02*
X8043116Y-12802128D01*
X8043116Y-12802128D02*
X8062164Y-12811652D01*
X8062164Y-12811652D02*
X8071688Y-12821176D01*
X8071688Y-12821176D02*
X8081211Y-12840223D01*
X8081211Y-12840223D02*
X8081211Y-12887842D01*
X8081211Y-12887842D02*
X8071688Y-12906890D01*
X8071688Y-12906890D02*
X8062164Y-12916414D01*
X8062164Y-12916414D02*
X8043116Y-12925937D01*
X8043116Y-12925937D02*
X7985973Y-12925937D01*
X7985973Y-12925937D02*
X7966926Y-12916414D01*
X7966926Y-12916414D02*
X7957402Y-12906890D01*
X8271688Y-12925937D02*
X8157402Y-12925937D01*
X8214545Y-12925937D02*
X8214545Y-12725937D01*
X8214545Y-12725937D02*
X8195497Y-12754509D01*
X8195497Y-12754509D02*
X8176450Y-12773556D01*
X8176450Y-12773556D02*
X8157402Y-12783080D01*
X8452640Y-12725937D02*
X8357402Y-12725937D01*
X8357402Y-12725937D02*
X8347878Y-12821176D01*
X8347878Y-12821176D02*
X8357402Y-12811652D01*
X8357402Y-12811652D02*
X8376450Y-12802128D01*
X8376450Y-12802128D02*
X8424069Y-12802128D01*
X8424069Y-12802128D02*
X8443116Y-12811652D01*
X8443116Y-12811652D02*
X8452640Y-12821176D01*
X8452640Y-12821176D02*
X8462164Y-12840223D01*
X8462164Y-12840223D02*
X8462164Y-12887842D01*
X8462164Y-12887842D02*
X8452640Y-12906890D01*
X8452640Y-12906890D02*
X8443116Y-12916414D01*
X8443116Y-12916414D02*
X8424069Y-12925937D01*
X8424069Y-12925937D02*
X8376450Y-12925937D01*
X8376450Y-12925937D02*
X8357402Y-12916414D01*
X8357402Y-12916414D02*
X8347878Y-12906890D01*
X8538354Y-12725937D02*
X8538354Y-12764033D01*
X8614545Y-12725937D02*
X8614545Y-12764033D01*
X8909783Y-13002128D02*
X8900259Y-12992604D01*
X8900259Y-12992604D02*
X8881212Y-12964033D01*
X8881212Y-12964033D02*
X8871688Y-12944985D01*
X8871688Y-12944985D02*
X8862164Y-12916414D01*
X8862164Y-12916414D02*
X8852640Y-12868795D01*
X8852640Y-12868795D02*
X8852640Y-12830699D01*
X8852640Y-12830699D02*
X8862164Y-12783080D01*
X8862164Y-12783080D02*
X8871688Y-12754509D01*
X8871688Y-12754509D02*
X8881212Y-12735461D01*
X8881212Y-12735461D02*
X8900259Y-12706890D01*
X8900259Y-12706890D02*
X8909783Y-12697366D01*
X9071688Y-12725937D02*
X9033593Y-12725937D01*
X9033593Y-12725937D02*
X9014545Y-12735461D01*
X9014545Y-12735461D02*
X9005021Y-12744985D01*
X9005021Y-12744985D02*
X8985974Y-12773556D01*
X8985974Y-12773556D02*
X8976450Y-12811652D01*
X8976450Y-12811652D02*
X8976450Y-12887842D01*
X8976450Y-12887842D02*
X8985974Y-12906890D01*
X8985974Y-12906890D02*
X8995497Y-12916414D01*
X8995497Y-12916414D02*
X9014545Y-12925937D01*
X9014545Y-12925937D02*
X9052640Y-12925937D01*
X9052640Y-12925937D02*
X9071688Y-12916414D01*
X9071688Y-12916414D02*
X9081212Y-12906890D01*
X9081212Y-12906890D02*
X9090735Y-12887842D01*
X9090735Y-12887842D02*
X9090735Y-12840223D01*
X9090735Y-12840223D02*
X9081212Y-12821176D01*
X9081212Y-12821176D02*
X9071688Y-12811652D01*
X9071688Y-12811652D02*
X9052640Y-12802128D01*
X9052640Y-12802128D02*
X9014545Y-12802128D01*
X9014545Y-12802128D02*
X8995497Y-12811652D01*
X8995497Y-12811652D02*
X8985974Y-12821176D01*
X8985974Y-12821176D02*
X8976450Y-12840223D01*
X9166926Y-12744985D02*
X9176450Y-12735461D01*
X9176450Y-12735461D02*
X9195497Y-12725937D01*
X9195497Y-12725937D02*
X9243116Y-12725937D01*
X9243116Y-12725937D02*
X9262164Y-12735461D01*
X9262164Y-12735461D02*
X9271688Y-12744985D01*
X9271688Y-12744985D02*
X9281212Y-12764033D01*
X9281212Y-12764033D02*
X9281212Y-12783080D01*
X9281212Y-12783080D02*
X9271688Y-12811652D01*
X9271688Y-12811652D02*
X9157402Y-12925937D01*
X9157402Y-12925937D02*
X9281212Y-12925937D01*
X9519307Y-12925937D02*
X9519307Y-12725937D01*
X9605021Y-12925937D02*
X9605021Y-12821176D01*
X9605021Y-12821176D02*
X9595497Y-12802128D01*
X9595497Y-12802128D02*
X9576450Y-12792604D01*
X9576450Y-12792604D02*
X9547878Y-12792604D01*
X9547878Y-12792604D02*
X9528831Y-12802128D01*
X9528831Y-12802128D02*
X9519307Y-12811652D01*
X9728831Y-12925937D02*
X9709783Y-12916414D01*
X9709783Y-12916414D02*
X9700259Y-12906890D01*
X9700259Y-12906890D02*
X9690736Y-12887842D01*
X9690736Y-12887842D02*
X9690736Y-12830699D01*
X9690736Y-12830699D02*
X9700259Y-12811652D01*
X9700259Y-12811652D02*
X9709783Y-12802128D01*
X9709783Y-12802128D02*
X9728831Y-12792604D01*
X9728831Y-12792604D02*
X9757402Y-12792604D01*
X9757402Y-12792604D02*
X9776450Y-12802128D01*
X9776450Y-12802128D02*
X9785974Y-12811652D01*
X9785974Y-12811652D02*
X9795497Y-12830699D01*
X9795497Y-12830699D02*
X9795497Y-12887842D01*
X9795497Y-12887842D02*
X9785974Y-12906890D01*
X9785974Y-12906890D02*
X9776450Y-12916414D01*
X9776450Y-12916414D02*
X9757402Y-12925937D01*
X9757402Y-12925937D02*
X9728831Y-12925937D01*
X9909783Y-12925937D02*
X9890736Y-12916414D01*
X9890736Y-12916414D02*
X9881212Y-12897366D01*
X9881212Y-12897366D02*
X9881212Y-12725937D01*
X10062164Y-12916414D02*
X10043117Y-12925937D01*
X10043117Y-12925937D02*
X10005021Y-12925937D01*
X10005021Y-12925937D02*
X9985974Y-12916414D01*
X9985974Y-12916414D02*
X9976450Y-12897366D01*
X9976450Y-12897366D02*
X9976450Y-12821176D01*
X9976450Y-12821176D02*
X9985974Y-12802128D01*
X9985974Y-12802128D02*
X10005021Y-12792604D01*
X10005021Y-12792604D02*
X10043117Y-12792604D01*
X10043117Y-12792604D02*
X10062164Y-12802128D01*
X10062164Y-12802128D02*
X10071688Y-12821176D01*
X10071688Y-12821176D02*
X10071688Y-12840223D01*
X10071688Y-12840223D02*
X9976450Y-12859271D01*
X10147878Y-12916414D02*
X10166926Y-12925937D01*
X10166926Y-12925937D02*
X10205021Y-12925937D01*
X10205021Y-12925937D02*
X10224069Y-12916414D01*
X10224069Y-12916414D02*
X10233593Y-12897366D01*
X10233593Y-12897366D02*
X10233593Y-12887842D01*
X10233593Y-12887842D02*
X10224069Y-12868795D01*
X10224069Y-12868795D02*
X10205021Y-12859271D01*
X10205021Y-12859271D02*
X10176450Y-12859271D01*
X10176450Y-12859271D02*
X10157402Y-12849747D01*
X10157402Y-12849747D02*
X10147878Y-12830699D01*
X10147878Y-12830699D02*
X10147878Y-12821176D01*
X10147878Y-12821176D02*
X10157402Y-12802128D01*
X10157402Y-12802128D02*
X10176450Y-12792604D01*
X10176450Y-12792604D02*
X10205021Y-12792604D01*
X10205021Y-12792604D02*
X10224069Y-12802128D01*
X10300259Y-13002128D02*
X10309783Y-12992604D01*
X10309783Y-12992604D02*
X10328831Y-12964033D01*
X10328831Y-12964033D02*
X10338355Y-12944985D01*
X10338355Y-12944985D02*
X10347878Y-12916414D01*
X10347878Y-12916414D02*
X10357402Y-12868795D01*
X10357402Y-12868795D02*
X10357402Y-12830699D01*
X10357402Y-12830699D02*
X10347878Y-12783080D01*
X10347878Y-12783080D02*
X10338355Y-12754509D01*
X10338355Y-12754509D02*
X10328831Y-12735461D01*
X10328831Y-12735461D02*
X10309783Y-12706890D01*
X10309783Y-12706890D02*
X10300259Y-12697366D01*
D16*
X5284720Y-13148454D02*
X5334720Y-13098454D01*
X5284720Y-13048454D01*
X5234720Y-13098454D01*
X5284720Y-13148454D01*
D11*
X5700259Y-13189937D02*
X5585973Y-13189937D01*
X5643116Y-13189937D02*
X5643116Y-12989937D01*
X5643116Y-12989937D02*
X5624068Y-13018509D01*
X5624068Y-13018509D02*
X5605021Y-13037556D01*
X5605021Y-13037556D02*
X5585973Y-13047080D01*
X5785973Y-13170890D02*
X5795497Y-13180414D01*
X5795497Y-13180414D02*
X5785973Y-13189937D01*
X5785973Y-13189937D02*
X5776449Y-13180414D01*
X5776449Y-13180414D02*
X5785973Y-13170890D01*
X5785973Y-13170890D02*
X5785973Y-13189937D01*
X5919306Y-12989937D02*
X5938354Y-12989937D01*
X5938354Y-12989937D02*
X5957402Y-12999461D01*
X5957402Y-12999461D02*
X5966926Y-13008985D01*
X5966926Y-13008985D02*
X5976449Y-13028033D01*
X5976449Y-13028033D02*
X5985973Y-13066128D01*
X5985973Y-13066128D02*
X5985973Y-13113747D01*
X5985973Y-13113747D02*
X5976449Y-13151842D01*
X5976449Y-13151842D02*
X5966926Y-13170890D01*
X5966926Y-13170890D02*
X5957402Y-13180414D01*
X5957402Y-13180414D02*
X5938354Y-13189937D01*
X5938354Y-13189937D02*
X5919306Y-13189937D01*
X5919306Y-13189937D02*
X5900259Y-13180414D01*
X5900259Y-13180414D02*
X5890735Y-13170890D01*
X5890735Y-13170890D02*
X5881211Y-13151842D01*
X5881211Y-13151842D02*
X5871687Y-13113747D01*
X5871687Y-13113747D02*
X5871687Y-13066128D01*
X5871687Y-13066128D02*
X5881211Y-13028033D01*
X5881211Y-13028033D02*
X5890735Y-13008985D01*
X5890735Y-13008985D02*
X5900259Y-12999461D01*
X5900259Y-12999461D02*
X5919306Y-12989937D01*
X6109783Y-12989937D02*
X6128830Y-12989937D01*
X6128830Y-12989937D02*
X6147878Y-12999461D01*
X6147878Y-12999461D02*
X6157402Y-13008985D01*
X6157402Y-13008985D02*
X6166926Y-13028033D01*
X6166926Y-13028033D02*
X6176449Y-13066128D01*
X6176449Y-13066128D02*
X6176449Y-13113747D01*
X6176449Y-13113747D02*
X6166926Y-13151842D01*
X6166926Y-13151842D02*
X6157402Y-13170890D01*
X6157402Y-13170890D02*
X6147878Y-13180414D01*
X6147878Y-13180414D02*
X6128830Y-13189937D01*
X6128830Y-13189937D02*
X6109783Y-13189937D01*
X6109783Y-13189937D02*
X6090735Y-13180414D01*
X6090735Y-13180414D02*
X6081211Y-13170890D01*
X6081211Y-13170890D02*
X6071687Y-13151842D01*
X6071687Y-13151842D02*
X6062164Y-13113747D01*
X6062164Y-13113747D02*
X6062164Y-13066128D01*
X6062164Y-13066128D02*
X6071687Y-13028033D01*
X6071687Y-13028033D02*
X6081211Y-13008985D01*
X6081211Y-13008985D02*
X6090735Y-12999461D01*
X6090735Y-12999461D02*
X6109783Y-12989937D01*
X6300259Y-12989937D02*
X6319307Y-12989937D01*
X6319307Y-12989937D02*
X6338354Y-12999461D01*
X6338354Y-12999461D02*
X6347878Y-13008985D01*
X6347878Y-13008985D02*
X6357402Y-13028033D01*
X6357402Y-13028033D02*
X6366926Y-13066128D01*
X6366926Y-13066128D02*
X6366926Y-13113747D01*
X6366926Y-13113747D02*
X6357402Y-13151842D01*
X6357402Y-13151842D02*
X6347878Y-13170890D01*
X6347878Y-13170890D02*
X6338354Y-13180414D01*
X6338354Y-13180414D02*
X6319307Y-13189937D01*
X6319307Y-13189937D02*
X6300259Y-13189937D01*
X6300259Y-13189937D02*
X6281211Y-13180414D01*
X6281211Y-13180414D02*
X6271687Y-13170890D01*
X6271687Y-13170890D02*
X6262164Y-13151842D01*
X6262164Y-13151842D02*
X6252640Y-13113747D01*
X6252640Y-13113747D02*
X6252640Y-13066128D01*
X6252640Y-13066128D02*
X6262164Y-13028033D01*
X6262164Y-13028033D02*
X6271687Y-13008985D01*
X6271687Y-13008985D02*
X6281211Y-12999461D01*
X6281211Y-12999461D02*
X6300259Y-12989937D01*
X6452640Y-13189937D02*
X6452640Y-13056604D01*
X6452640Y-13075652D02*
X6462164Y-13066128D01*
X6462164Y-13066128D02*
X6481211Y-13056604D01*
X6481211Y-13056604D02*
X6509783Y-13056604D01*
X6509783Y-13056604D02*
X6528830Y-13066128D01*
X6528830Y-13066128D02*
X6538354Y-13085176D01*
X6538354Y-13085176D02*
X6538354Y-13189937D01*
X6538354Y-13085176D02*
X6547878Y-13066128D01*
X6547878Y-13066128D02*
X6566926Y-13056604D01*
X6566926Y-13056604D02*
X6595497Y-13056604D01*
X6595497Y-13056604D02*
X6614545Y-13066128D01*
X6614545Y-13066128D02*
X6624068Y-13085176D01*
X6624068Y-13085176D02*
X6624068Y-13189937D01*
X6719307Y-13189937D02*
X6719307Y-13056604D01*
X6719307Y-13075652D02*
X6728830Y-13066128D01*
X6728830Y-13066128D02*
X6747878Y-13056604D01*
X6747878Y-13056604D02*
X6776449Y-13056604D01*
X6776449Y-13056604D02*
X6795497Y-13066128D01*
X6795497Y-13066128D02*
X6805021Y-13085176D01*
X6805021Y-13085176D02*
X6805021Y-13189937D01*
X6805021Y-13085176D02*
X6814545Y-13066128D01*
X6814545Y-13066128D02*
X6833592Y-13056604D01*
X6833592Y-13056604D02*
X6862164Y-13056604D01*
X6862164Y-13056604D02*
X6881211Y-13066128D01*
X6881211Y-13066128D02*
X6890735Y-13085176D01*
X6890735Y-13085176D02*
X6890735Y-13189937D01*
X7281211Y-12980414D02*
X7109783Y-13237556D01*
X7538354Y-12989937D02*
X7557402Y-12989937D01*
X7557402Y-12989937D02*
X7576450Y-12999461D01*
X7576450Y-12999461D02*
X7585973Y-13008985D01*
X7585973Y-13008985D02*
X7595497Y-13028033D01*
X7595497Y-13028033D02*
X7605021Y-13066128D01*
X7605021Y-13066128D02*
X7605021Y-13113747D01*
X7605021Y-13113747D02*
X7595497Y-13151842D01*
X7595497Y-13151842D02*
X7585973Y-13170890D01*
X7585973Y-13170890D02*
X7576450Y-13180414D01*
X7576450Y-13180414D02*
X7557402Y-13189937D01*
X7557402Y-13189937D02*
X7538354Y-13189937D01*
X7538354Y-13189937D02*
X7519307Y-13180414D01*
X7519307Y-13180414D02*
X7509783Y-13170890D01*
X7509783Y-13170890D02*
X7500259Y-13151842D01*
X7500259Y-13151842D02*
X7490735Y-13113747D01*
X7490735Y-13113747D02*
X7490735Y-13066128D01*
X7490735Y-13066128D02*
X7500259Y-13028033D01*
X7500259Y-13028033D02*
X7509783Y-13008985D01*
X7509783Y-13008985D02*
X7519307Y-12999461D01*
X7519307Y-12999461D02*
X7538354Y-12989937D01*
X7690735Y-13170890D02*
X7700259Y-13180414D01*
X7700259Y-13180414D02*
X7690735Y-13189937D01*
X7690735Y-13189937D02*
X7681211Y-13180414D01*
X7681211Y-13180414D02*
X7690735Y-13170890D01*
X7690735Y-13170890D02*
X7690735Y-13189937D01*
X7824069Y-12989937D02*
X7843116Y-12989937D01*
X7843116Y-12989937D02*
X7862164Y-12999461D01*
X7862164Y-12999461D02*
X7871688Y-13008985D01*
X7871688Y-13008985D02*
X7881211Y-13028033D01*
X7881211Y-13028033D02*
X7890735Y-13066128D01*
X7890735Y-13066128D02*
X7890735Y-13113747D01*
X7890735Y-13113747D02*
X7881211Y-13151842D01*
X7881211Y-13151842D02*
X7871688Y-13170890D01*
X7871688Y-13170890D02*
X7862164Y-13180414D01*
X7862164Y-13180414D02*
X7843116Y-13189937D01*
X7843116Y-13189937D02*
X7824069Y-13189937D01*
X7824069Y-13189937D02*
X7805021Y-13180414D01*
X7805021Y-13180414D02*
X7795497Y-13170890D01*
X7795497Y-13170890D02*
X7785973Y-13151842D01*
X7785973Y-13151842D02*
X7776450Y-13113747D01*
X7776450Y-13113747D02*
X7776450Y-13066128D01*
X7776450Y-13066128D02*
X7785973Y-13028033D01*
X7785973Y-13028033D02*
X7795497Y-13008985D01*
X7795497Y-13008985D02*
X7805021Y-12999461D01*
X7805021Y-12999461D02*
X7824069Y-12989937D01*
X7957402Y-12989937D02*
X8081211Y-12989937D01*
X8081211Y-12989937D02*
X8014545Y-13066128D01*
X8014545Y-13066128D02*
X8043116Y-13066128D01*
X8043116Y-13066128D02*
X8062164Y-13075652D01*
X8062164Y-13075652D02*
X8071688Y-13085176D01*
X8071688Y-13085176D02*
X8081211Y-13104223D01*
X8081211Y-13104223D02*
X8081211Y-13151842D01*
X8081211Y-13151842D02*
X8071688Y-13170890D01*
X8071688Y-13170890D02*
X8062164Y-13180414D01*
X8062164Y-13180414D02*
X8043116Y-13189937D01*
X8043116Y-13189937D02*
X7985973Y-13189937D01*
X7985973Y-13189937D02*
X7966926Y-13180414D01*
X7966926Y-13180414D02*
X7957402Y-13170890D01*
X8176450Y-13189937D02*
X8214545Y-13189937D01*
X8214545Y-13189937D02*
X8233592Y-13180414D01*
X8233592Y-13180414D02*
X8243116Y-13170890D01*
X8243116Y-13170890D02*
X8262164Y-13142318D01*
X8262164Y-13142318D02*
X8271688Y-13104223D01*
X8271688Y-13104223D02*
X8271688Y-13028033D01*
X8271688Y-13028033D02*
X8262164Y-13008985D01*
X8262164Y-13008985D02*
X8252640Y-12999461D01*
X8252640Y-12999461D02*
X8233592Y-12989937D01*
X8233592Y-12989937D02*
X8195497Y-12989937D01*
X8195497Y-12989937D02*
X8176450Y-12999461D01*
X8176450Y-12999461D02*
X8166926Y-13008985D01*
X8166926Y-13008985D02*
X8157402Y-13028033D01*
X8157402Y-13028033D02*
X8157402Y-13075652D01*
X8157402Y-13075652D02*
X8166926Y-13094699D01*
X8166926Y-13094699D02*
X8176450Y-13104223D01*
X8176450Y-13104223D02*
X8195497Y-13113747D01*
X8195497Y-13113747D02*
X8233592Y-13113747D01*
X8233592Y-13113747D02*
X8252640Y-13104223D01*
X8252640Y-13104223D02*
X8262164Y-13094699D01*
X8262164Y-13094699D02*
X8271688Y-13075652D01*
X8443116Y-13056604D02*
X8443116Y-13189937D01*
X8395497Y-12980414D02*
X8347878Y-13123271D01*
X8347878Y-13123271D02*
X8471688Y-13123271D01*
X8538354Y-12989937D02*
X8538354Y-13028033D01*
X8614545Y-12989937D02*
X8614545Y-13028033D01*
X8909783Y-13266128D02*
X8900259Y-13256604D01*
X8900259Y-13256604D02*
X8881212Y-13228033D01*
X8881212Y-13228033D02*
X8871688Y-13208985D01*
X8871688Y-13208985D02*
X8862164Y-13180414D01*
X8862164Y-13180414D02*
X8852640Y-13132795D01*
X8852640Y-13132795D02*
X8852640Y-13094699D01*
X8852640Y-13094699D02*
X8862164Y-13047080D01*
X8862164Y-13047080D02*
X8871688Y-13018509D01*
X8871688Y-13018509D02*
X8881212Y-12999461D01*
X8881212Y-12999461D02*
X8900259Y-12970890D01*
X8900259Y-12970890D02*
X8909783Y-12961366D01*
X8966926Y-12989937D02*
X9090735Y-12989937D01*
X9090735Y-12989937D02*
X9024069Y-13066128D01*
X9024069Y-13066128D02*
X9052640Y-13066128D01*
X9052640Y-13066128D02*
X9071688Y-13075652D01*
X9071688Y-13075652D02*
X9081212Y-13085176D01*
X9081212Y-13085176D02*
X9090735Y-13104223D01*
X9090735Y-13104223D02*
X9090735Y-13151842D01*
X9090735Y-13151842D02*
X9081212Y-13170890D01*
X9081212Y-13170890D02*
X9071688Y-13180414D01*
X9071688Y-13180414D02*
X9052640Y-13189937D01*
X9052640Y-13189937D02*
X8995497Y-13189937D01*
X8995497Y-13189937D02*
X8976450Y-13180414D01*
X8976450Y-13180414D02*
X8966926Y-13170890D01*
X9281212Y-13189937D02*
X9166926Y-13189937D01*
X9224069Y-13189937D02*
X9224069Y-12989937D01*
X9224069Y-12989937D02*
X9205021Y-13018509D01*
X9205021Y-13018509D02*
X9185974Y-13037556D01*
X9185974Y-13037556D02*
X9166926Y-13047080D01*
X9519307Y-13189937D02*
X9519307Y-12989937D01*
X9605021Y-13189937D02*
X9605021Y-13085176D01*
X9605021Y-13085176D02*
X9595497Y-13066128D01*
X9595497Y-13066128D02*
X9576450Y-13056604D01*
X9576450Y-13056604D02*
X9547878Y-13056604D01*
X9547878Y-13056604D02*
X9528831Y-13066128D01*
X9528831Y-13066128D02*
X9519307Y-13075652D01*
X9728831Y-13189937D02*
X9709783Y-13180414D01*
X9709783Y-13180414D02*
X9700259Y-13170890D01*
X9700259Y-13170890D02*
X9690736Y-13151842D01*
X9690736Y-13151842D02*
X9690736Y-13094699D01*
X9690736Y-13094699D02*
X9700259Y-13075652D01*
X9700259Y-13075652D02*
X9709783Y-13066128D01*
X9709783Y-13066128D02*
X9728831Y-13056604D01*
X9728831Y-13056604D02*
X9757402Y-13056604D01*
X9757402Y-13056604D02*
X9776450Y-13066128D01*
X9776450Y-13066128D02*
X9785974Y-13075652D01*
X9785974Y-13075652D02*
X9795497Y-13094699D01*
X9795497Y-13094699D02*
X9795497Y-13151842D01*
X9795497Y-13151842D02*
X9785974Y-13170890D01*
X9785974Y-13170890D02*
X9776450Y-13180414D01*
X9776450Y-13180414D02*
X9757402Y-13189937D01*
X9757402Y-13189937D02*
X9728831Y-13189937D01*
X9909783Y-13189937D02*
X9890736Y-13180414D01*
X9890736Y-13180414D02*
X9881212Y-13161366D01*
X9881212Y-13161366D02*
X9881212Y-12989937D01*
X10062164Y-13180414D02*
X10043117Y-13189937D01*
X10043117Y-13189937D02*
X10005021Y-13189937D01*
X10005021Y-13189937D02*
X9985974Y-13180414D01*
X9985974Y-13180414D02*
X9976450Y-13161366D01*
X9976450Y-13161366D02*
X9976450Y-13085176D01*
X9976450Y-13085176D02*
X9985974Y-13066128D01*
X9985974Y-13066128D02*
X10005021Y-13056604D01*
X10005021Y-13056604D02*
X10043117Y-13056604D01*
X10043117Y-13056604D02*
X10062164Y-13066128D01*
X10062164Y-13066128D02*
X10071688Y-13085176D01*
X10071688Y-13085176D02*
X10071688Y-13104223D01*
X10071688Y-13104223D02*
X9976450Y-13123271D01*
X10147878Y-13180414D02*
X10166926Y-13189937D01*
X10166926Y-13189937D02*
X10205021Y-13189937D01*
X10205021Y-13189937D02*
X10224069Y-13180414D01*
X10224069Y-13180414D02*
X10233593Y-13161366D01*
X10233593Y-13161366D02*
X10233593Y-13151842D01*
X10233593Y-13151842D02*
X10224069Y-13132795D01*
X10224069Y-13132795D02*
X10205021Y-13123271D01*
X10205021Y-13123271D02*
X10176450Y-13123271D01*
X10176450Y-13123271D02*
X10157402Y-13113747D01*
X10157402Y-13113747D02*
X10147878Y-13094699D01*
X10147878Y-13094699D02*
X10147878Y-13085176D01*
X10147878Y-13085176D02*
X10157402Y-13066128D01*
X10157402Y-13066128D02*
X10176450Y-13056604D01*
X10176450Y-13056604D02*
X10205021Y-13056604D01*
X10205021Y-13056604D02*
X10224069Y-13066128D01*
X10300259Y-13266128D02*
X10309783Y-13256604D01*
X10309783Y-13256604D02*
X10328831Y-13228033D01*
X10328831Y-13228033D02*
X10338355Y-13208985D01*
X10338355Y-13208985D02*
X10347878Y-13180414D01*
X10347878Y-13180414D02*
X10357402Y-13132795D01*
X10357402Y-13132795D02*
X10357402Y-13094699D01*
X10357402Y-13094699D02*
X10347878Y-13047080D01*
X10347878Y-13047080D02*
X10338355Y-13018509D01*
X10338355Y-13018509D02*
X10328831Y-12999461D01*
X10328831Y-12999461D02*
X10309783Y-12970890D01*
X10309783Y-12970890D02*
X10300259Y-12961366D01*
D17*
X5224720Y-13307454D02*
X5334720Y-13417454D01*
X5334720Y-13307454D02*
X5224720Y-13417454D01*
X5334720Y-13362454D02*
G75*
G03*
X5334720Y-13362454I-55000J0D01*
G01*
D11*
X5700259Y-13453937D02*
X5585973Y-13453937D01*
X5643116Y-13453937D02*
X5643116Y-13253937D01*
X5643116Y-13253937D02*
X5624068Y-13282509D01*
X5624068Y-13282509D02*
X5605021Y-13301556D01*
X5605021Y-13301556D02*
X5585973Y-13311080D01*
X5785973Y-13434890D02*
X5795497Y-13444414D01*
X5795497Y-13444414D02*
X5785973Y-13453937D01*
X5785973Y-13453937D02*
X5776449Y-13444414D01*
X5776449Y-13444414D02*
X5785973Y-13434890D01*
X5785973Y-13434890D02*
X5785973Y-13453937D01*
X5985973Y-13453937D02*
X5871687Y-13453937D01*
X5928830Y-13453937D02*
X5928830Y-13253937D01*
X5928830Y-13253937D02*
X5909783Y-13282509D01*
X5909783Y-13282509D02*
X5890735Y-13301556D01*
X5890735Y-13301556D02*
X5871687Y-13311080D01*
X6109783Y-13253937D02*
X6128830Y-13253937D01*
X6128830Y-13253937D02*
X6147878Y-13263461D01*
X6147878Y-13263461D02*
X6157402Y-13272985D01*
X6157402Y-13272985D02*
X6166926Y-13292033D01*
X6166926Y-13292033D02*
X6176449Y-13330128D01*
X6176449Y-13330128D02*
X6176449Y-13377747D01*
X6176449Y-13377747D02*
X6166926Y-13415842D01*
X6166926Y-13415842D02*
X6157402Y-13434890D01*
X6157402Y-13434890D02*
X6147878Y-13444414D01*
X6147878Y-13444414D02*
X6128830Y-13453937D01*
X6128830Y-13453937D02*
X6109783Y-13453937D01*
X6109783Y-13453937D02*
X6090735Y-13444414D01*
X6090735Y-13444414D02*
X6081211Y-13434890D01*
X6081211Y-13434890D02*
X6071687Y-13415842D01*
X6071687Y-13415842D02*
X6062164Y-13377747D01*
X6062164Y-13377747D02*
X6062164Y-13330128D01*
X6062164Y-13330128D02*
X6071687Y-13292033D01*
X6071687Y-13292033D02*
X6081211Y-13272985D01*
X6081211Y-13272985D02*
X6090735Y-13263461D01*
X6090735Y-13263461D02*
X6109783Y-13253937D01*
X6300259Y-13253937D02*
X6319307Y-13253937D01*
X6319307Y-13253937D02*
X6338354Y-13263461D01*
X6338354Y-13263461D02*
X6347878Y-13272985D01*
X6347878Y-13272985D02*
X6357402Y-13292033D01*
X6357402Y-13292033D02*
X6366926Y-13330128D01*
X6366926Y-13330128D02*
X6366926Y-13377747D01*
X6366926Y-13377747D02*
X6357402Y-13415842D01*
X6357402Y-13415842D02*
X6347878Y-13434890D01*
X6347878Y-13434890D02*
X6338354Y-13444414D01*
X6338354Y-13444414D02*
X6319307Y-13453937D01*
X6319307Y-13453937D02*
X6300259Y-13453937D01*
X6300259Y-13453937D02*
X6281211Y-13444414D01*
X6281211Y-13444414D02*
X6271687Y-13434890D01*
X6271687Y-13434890D02*
X6262164Y-13415842D01*
X6262164Y-13415842D02*
X6252640Y-13377747D01*
X6252640Y-13377747D02*
X6252640Y-13330128D01*
X6252640Y-13330128D02*
X6262164Y-13292033D01*
X6262164Y-13292033D02*
X6271687Y-13272985D01*
X6271687Y-13272985D02*
X6281211Y-13263461D01*
X6281211Y-13263461D02*
X6300259Y-13253937D01*
X6452640Y-13453937D02*
X6452640Y-13320604D01*
X6452640Y-13339652D02*
X6462164Y-13330128D01*
X6462164Y-13330128D02*
X6481211Y-13320604D01*
X6481211Y-13320604D02*
X6509783Y-13320604D01*
X6509783Y-13320604D02*
X6528830Y-13330128D01*
X6528830Y-13330128D02*
X6538354Y-13349176D01*
X6538354Y-13349176D02*
X6538354Y-13453937D01*
X6538354Y-13349176D02*
X6547878Y-13330128D01*
X6547878Y-13330128D02*
X6566926Y-13320604D01*
X6566926Y-13320604D02*
X6595497Y-13320604D01*
X6595497Y-13320604D02*
X6614545Y-13330128D01*
X6614545Y-13330128D02*
X6624068Y-13349176D01*
X6624068Y-13349176D02*
X6624068Y-13453937D01*
X6719307Y-13453937D02*
X6719307Y-13320604D01*
X6719307Y-13339652D02*
X6728830Y-13330128D01*
X6728830Y-13330128D02*
X6747878Y-13320604D01*
X6747878Y-13320604D02*
X6776449Y-13320604D01*
X6776449Y-13320604D02*
X6795497Y-13330128D01*
X6795497Y-13330128D02*
X6805021Y-13349176D01*
X6805021Y-13349176D02*
X6805021Y-13453937D01*
X6805021Y-13349176D02*
X6814545Y-13330128D01*
X6814545Y-13330128D02*
X6833592Y-13320604D01*
X6833592Y-13320604D02*
X6862164Y-13320604D01*
X6862164Y-13320604D02*
X6881211Y-13330128D01*
X6881211Y-13330128D02*
X6890735Y-13349176D01*
X6890735Y-13349176D02*
X6890735Y-13453937D01*
X7281211Y-13244414D02*
X7109783Y-13501556D01*
X7538354Y-13253937D02*
X7557402Y-13253937D01*
X7557402Y-13253937D02*
X7576450Y-13263461D01*
X7576450Y-13263461D02*
X7585973Y-13272985D01*
X7585973Y-13272985D02*
X7595497Y-13292033D01*
X7595497Y-13292033D02*
X7605021Y-13330128D01*
X7605021Y-13330128D02*
X7605021Y-13377747D01*
X7605021Y-13377747D02*
X7595497Y-13415842D01*
X7595497Y-13415842D02*
X7585973Y-13434890D01*
X7585973Y-13434890D02*
X7576450Y-13444414D01*
X7576450Y-13444414D02*
X7557402Y-13453937D01*
X7557402Y-13453937D02*
X7538354Y-13453937D01*
X7538354Y-13453937D02*
X7519307Y-13444414D01*
X7519307Y-13444414D02*
X7509783Y-13434890D01*
X7509783Y-13434890D02*
X7500259Y-13415842D01*
X7500259Y-13415842D02*
X7490735Y-13377747D01*
X7490735Y-13377747D02*
X7490735Y-13330128D01*
X7490735Y-13330128D02*
X7500259Y-13292033D01*
X7500259Y-13292033D02*
X7509783Y-13272985D01*
X7509783Y-13272985D02*
X7519307Y-13263461D01*
X7519307Y-13263461D02*
X7538354Y-13253937D01*
X7690735Y-13434890D02*
X7700259Y-13444414D01*
X7700259Y-13444414D02*
X7690735Y-13453937D01*
X7690735Y-13453937D02*
X7681211Y-13444414D01*
X7681211Y-13444414D02*
X7690735Y-13434890D01*
X7690735Y-13434890D02*
X7690735Y-13453937D01*
X7824069Y-13253937D02*
X7843116Y-13253937D01*
X7843116Y-13253937D02*
X7862164Y-13263461D01*
X7862164Y-13263461D02*
X7871688Y-13272985D01*
X7871688Y-13272985D02*
X7881211Y-13292033D01*
X7881211Y-13292033D02*
X7890735Y-13330128D01*
X7890735Y-13330128D02*
X7890735Y-13377747D01*
X7890735Y-13377747D02*
X7881211Y-13415842D01*
X7881211Y-13415842D02*
X7871688Y-13434890D01*
X7871688Y-13434890D02*
X7862164Y-13444414D01*
X7862164Y-13444414D02*
X7843116Y-13453937D01*
X7843116Y-13453937D02*
X7824069Y-13453937D01*
X7824069Y-13453937D02*
X7805021Y-13444414D01*
X7805021Y-13444414D02*
X7795497Y-13434890D01*
X7795497Y-13434890D02*
X7785973Y-13415842D01*
X7785973Y-13415842D02*
X7776450Y-13377747D01*
X7776450Y-13377747D02*
X7776450Y-13330128D01*
X7776450Y-13330128D02*
X7785973Y-13292033D01*
X7785973Y-13292033D02*
X7795497Y-13272985D01*
X7795497Y-13272985D02*
X7805021Y-13263461D01*
X7805021Y-13263461D02*
X7824069Y-13253937D01*
X8062164Y-13320604D02*
X8062164Y-13453937D01*
X8014545Y-13244414D02*
X7966926Y-13387271D01*
X7966926Y-13387271D02*
X8090735Y-13387271D01*
X8147878Y-13253937D02*
X8271688Y-13253937D01*
X8271688Y-13253937D02*
X8205021Y-13330128D01*
X8205021Y-13330128D02*
X8233592Y-13330128D01*
X8233592Y-13330128D02*
X8252640Y-13339652D01*
X8252640Y-13339652D02*
X8262164Y-13349176D01*
X8262164Y-13349176D02*
X8271688Y-13368223D01*
X8271688Y-13368223D02*
X8271688Y-13415842D01*
X8271688Y-13415842D02*
X8262164Y-13434890D01*
X8262164Y-13434890D02*
X8252640Y-13444414D01*
X8252640Y-13444414D02*
X8233592Y-13453937D01*
X8233592Y-13453937D02*
X8176450Y-13453937D01*
X8176450Y-13453937D02*
X8157402Y-13444414D01*
X8157402Y-13444414D02*
X8147878Y-13434890D01*
X8338354Y-13253937D02*
X8462164Y-13253937D01*
X8462164Y-13253937D02*
X8395497Y-13330128D01*
X8395497Y-13330128D02*
X8424069Y-13330128D01*
X8424069Y-13330128D02*
X8443116Y-13339652D01*
X8443116Y-13339652D02*
X8452640Y-13349176D01*
X8452640Y-13349176D02*
X8462164Y-13368223D01*
X8462164Y-13368223D02*
X8462164Y-13415842D01*
X8462164Y-13415842D02*
X8452640Y-13434890D01*
X8452640Y-13434890D02*
X8443116Y-13444414D01*
X8443116Y-13444414D02*
X8424069Y-13453937D01*
X8424069Y-13453937D02*
X8366926Y-13453937D01*
X8366926Y-13453937D02*
X8347878Y-13444414D01*
X8347878Y-13444414D02*
X8338354Y-13434890D01*
X8538354Y-13253937D02*
X8538354Y-13292033D01*
X8614545Y-13253937D02*
X8614545Y-13292033D01*
X8909783Y-13530128D02*
X8900259Y-13520604D01*
X8900259Y-13520604D02*
X8881212Y-13492033D01*
X8881212Y-13492033D02*
X8871688Y-13472985D01*
X8871688Y-13472985D02*
X8862164Y-13444414D01*
X8862164Y-13444414D02*
X8852640Y-13396795D01*
X8852640Y-13396795D02*
X8852640Y-13358699D01*
X8852640Y-13358699D02*
X8862164Y-13311080D01*
X8862164Y-13311080D02*
X8871688Y-13282509D01*
X8871688Y-13282509D02*
X8881212Y-13263461D01*
X8881212Y-13263461D02*
X8900259Y-13234890D01*
X8900259Y-13234890D02*
X8909783Y-13225366D01*
X8976450Y-13272985D02*
X8985974Y-13263461D01*
X8985974Y-13263461D02*
X9005021Y-13253937D01*
X9005021Y-13253937D02*
X9052640Y-13253937D01*
X9052640Y-13253937D02*
X9071688Y-13263461D01*
X9071688Y-13263461D02*
X9081212Y-13272985D01*
X9081212Y-13272985D02*
X9090735Y-13292033D01*
X9090735Y-13292033D02*
X9090735Y-13311080D01*
X9090735Y-13311080D02*
X9081212Y-13339652D01*
X9081212Y-13339652D02*
X8966926Y-13453937D01*
X8966926Y-13453937D02*
X9090735Y-13453937D01*
X9214545Y-13253937D02*
X9233593Y-13253937D01*
X9233593Y-13253937D02*
X9252640Y-13263461D01*
X9252640Y-13263461D02*
X9262164Y-13272985D01*
X9262164Y-13272985D02*
X9271688Y-13292033D01*
X9271688Y-13292033D02*
X9281212Y-13330128D01*
X9281212Y-13330128D02*
X9281212Y-13377747D01*
X9281212Y-13377747D02*
X9271688Y-13415842D01*
X9271688Y-13415842D02*
X9262164Y-13434890D01*
X9262164Y-13434890D02*
X9252640Y-13444414D01*
X9252640Y-13444414D02*
X9233593Y-13453937D01*
X9233593Y-13453937D02*
X9214545Y-13453937D01*
X9214545Y-13453937D02*
X9195497Y-13444414D01*
X9195497Y-13444414D02*
X9185974Y-13434890D01*
X9185974Y-13434890D02*
X9176450Y-13415842D01*
X9176450Y-13415842D02*
X9166926Y-13377747D01*
X9166926Y-13377747D02*
X9166926Y-13330128D01*
X9166926Y-13330128D02*
X9176450Y-13292033D01*
X9176450Y-13292033D02*
X9185974Y-13272985D01*
X9185974Y-13272985D02*
X9195497Y-13263461D01*
X9195497Y-13263461D02*
X9214545Y-13253937D01*
X9519307Y-13453937D02*
X9519307Y-13253937D01*
X9605021Y-13453937D02*
X9605021Y-13349176D01*
X9605021Y-13349176D02*
X9595497Y-13330128D01*
X9595497Y-13330128D02*
X9576450Y-13320604D01*
X9576450Y-13320604D02*
X9547878Y-13320604D01*
X9547878Y-13320604D02*
X9528831Y-13330128D01*
X9528831Y-13330128D02*
X9519307Y-13339652D01*
X9728831Y-13453937D02*
X9709783Y-13444414D01*
X9709783Y-13444414D02*
X9700259Y-13434890D01*
X9700259Y-13434890D02*
X9690736Y-13415842D01*
X9690736Y-13415842D02*
X9690736Y-13358699D01*
X9690736Y-13358699D02*
X9700259Y-13339652D01*
X9700259Y-13339652D02*
X9709783Y-13330128D01*
X9709783Y-13330128D02*
X9728831Y-13320604D01*
X9728831Y-13320604D02*
X9757402Y-13320604D01*
X9757402Y-13320604D02*
X9776450Y-13330128D01*
X9776450Y-13330128D02*
X9785974Y-13339652D01*
X9785974Y-13339652D02*
X9795497Y-13358699D01*
X9795497Y-13358699D02*
X9795497Y-13415842D01*
X9795497Y-13415842D02*
X9785974Y-13434890D01*
X9785974Y-13434890D02*
X9776450Y-13444414D01*
X9776450Y-13444414D02*
X9757402Y-13453937D01*
X9757402Y-13453937D02*
X9728831Y-13453937D01*
X9909783Y-13453937D02*
X9890736Y-13444414D01*
X9890736Y-13444414D02*
X9881212Y-13425366D01*
X9881212Y-13425366D02*
X9881212Y-13253937D01*
X10062164Y-13444414D02*
X10043117Y-13453937D01*
X10043117Y-13453937D02*
X10005021Y-13453937D01*
X10005021Y-13453937D02*
X9985974Y-13444414D01*
X9985974Y-13444414D02*
X9976450Y-13425366D01*
X9976450Y-13425366D02*
X9976450Y-13349176D01*
X9976450Y-13349176D02*
X9985974Y-13330128D01*
X9985974Y-13330128D02*
X10005021Y-13320604D01*
X10005021Y-13320604D02*
X10043117Y-13320604D01*
X10043117Y-13320604D02*
X10062164Y-13330128D01*
X10062164Y-13330128D02*
X10071688Y-13349176D01*
X10071688Y-13349176D02*
X10071688Y-13368223D01*
X10071688Y-13368223D02*
X9976450Y-13387271D01*
X10147878Y-13444414D02*
X10166926Y-13453937D01*
X10166926Y-13453937D02*
X10205021Y-13453937D01*
X10205021Y-13453937D02*
X10224069Y-13444414D01*
X10224069Y-13444414D02*
X10233593Y-13425366D01*
X10233593Y-13425366D02*
X10233593Y-13415842D01*
X10233593Y-13415842D02*
X10224069Y-13396795D01*
X10224069Y-13396795D02*
X10205021Y-13387271D01*
X10205021Y-13387271D02*
X10176450Y-13387271D01*
X10176450Y-13387271D02*
X10157402Y-13377747D01*
X10157402Y-13377747D02*
X10147878Y-13358699D01*
X10147878Y-13358699D02*
X10147878Y-13349176D01*
X10147878Y-13349176D02*
X10157402Y-13330128D01*
X10157402Y-13330128D02*
X10176450Y-13320604D01*
X10176450Y-13320604D02*
X10205021Y-13320604D01*
X10205021Y-13320604D02*
X10224069Y-13330128D01*
X10300259Y-13530128D02*
X10309783Y-13520604D01*
X10309783Y-13520604D02*
X10328831Y-13492033D01*
X10328831Y-13492033D02*
X10338355Y-13472985D01*
X10338355Y-13472985D02*
X10347878Y-13444414D01*
X10347878Y-13444414D02*
X10357402Y-13396795D01*
X10357402Y-13396795D02*
X10357402Y-13358699D01*
X10357402Y-13358699D02*
X10347878Y-13311080D01*
X10347878Y-13311080D02*
X10338355Y-13282509D01*
X10338355Y-13282509D02*
X10328831Y-13263461D01*
X10328831Y-13263461D02*
X10309783Y-13234890D01*
X10309783Y-13234890D02*
X10300259Y-13225366D01*
D18*
X5204720Y-13561454D02*
X5334720Y-13691454D01*
X5334720Y-13561454D02*
X5204720Y-13691454D01*
X5269720Y-13561454D02*
X5269720Y-13691454D01*
X5204720Y-13626454D02*
X5334720Y-13626454D01*
D11*
X5700259Y-13717937D02*
X5585973Y-13717937D01*
X5643116Y-13717937D02*
X5643116Y-13517937D01*
X5643116Y-13517937D02*
X5624068Y-13546509D01*
X5624068Y-13546509D02*
X5605021Y-13565556D01*
X5605021Y-13565556D02*
X5585973Y-13575080D01*
X5785973Y-13698890D02*
X5795497Y-13708414D01*
X5795497Y-13708414D02*
X5785973Y-13717937D01*
X5785973Y-13717937D02*
X5776449Y-13708414D01*
X5776449Y-13708414D02*
X5785973Y-13698890D01*
X5785973Y-13698890D02*
X5785973Y-13717937D01*
X5862164Y-13517937D02*
X5985973Y-13517937D01*
X5985973Y-13517937D02*
X5919306Y-13594128D01*
X5919306Y-13594128D02*
X5947878Y-13594128D01*
X5947878Y-13594128D02*
X5966926Y-13603652D01*
X5966926Y-13603652D02*
X5976449Y-13613176D01*
X5976449Y-13613176D02*
X5985973Y-13632223D01*
X5985973Y-13632223D02*
X5985973Y-13679842D01*
X5985973Y-13679842D02*
X5976449Y-13698890D01*
X5976449Y-13698890D02*
X5966926Y-13708414D01*
X5966926Y-13708414D02*
X5947878Y-13717937D01*
X5947878Y-13717937D02*
X5890735Y-13717937D01*
X5890735Y-13717937D02*
X5871687Y-13708414D01*
X5871687Y-13708414D02*
X5862164Y-13698890D01*
X6109783Y-13517937D02*
X6128830Y-13517937D01*
X6128830Y-13517937D02*
X6147878Y-13527461D01*
X6147878Y-13527461D02*
X6157402Y-13536985D01*
X6157402Y-13536985D02*
X6166926Y-13556033D01*
X6166926Y-13556033D02*
X6176449Y-13594128D01*
X6176449Y-13594128D02*
X6176449Y-13641747D01*
X6176449Y-13641747D02*
X6166926Y-13679842D01*
X6166926Y-13679842D02*
X6157402Y-13698890D01*
X6157402Y-13698890D02*
X6147878Y-13708414D01*
X6147878Y-13708414D02*
X6128830Y-13717937D01*
X6128830Y-13717937D02*
X6109783Y-13717937D01*
X6109783Y-13717937D02*
X6090735Y-13708414D01*
X6090735Y-13708414D02*
X6081211Y-13698890D01*
X6081211Y-13698890D02*
X6071687Y-13679842D01*
X6071687Y-13679842D02*
X6062164Y-13641747D01*
X6062164Y-13641747D02*
X6062164Y-13594128D01*
X6062164Y-13594128D02*
X6071687Y-13556033D01*
X6071687Y-13556033D02*
X6081211Y-13536985D01*
X6081211Y-13536985D02*
X6090735Y-13527461D01*
X6090735Y-13527461D02*
X6109783Y-13517937D01*
X6300259Y-13517937D02*
X6319307Y-13517937D01*
X6319307Y-13517937D02*
X6338354Y-13527461D01*
X6338354Y-13527461D02*
X6347878Y-13536985D01*
X6347878Y-13536985D02*
X6357402Y-13556033D01*
X6357402Y-13556033D02*
X6366926Y-13594128D01*
X6366926Y-13594128D02*
X6366926Y-13641747D01*
X6366926Y-13641747D02*
X6357402Y-13679842D01*
X6357402Y-13679842D02*
X6347878Y-13698890D01*
X6347878Y-13698890D02*
X6338354Y-13708414D01*
X6338354Y-13708414D02*
X6319307Y-13717937D01*
X6319307Y-13717937D02*
X6300259Y-13717937D01*
X6300259Y-13717937D02*
X6281211Y-13708414D01*
X6281211Y-13708414D02*
X6271687Y-13698890D01*
X6271687Y-13698890D02*
X6262164Y-13679842D01*
X6262164Y-13679842D02*
X6252640Y-13641747D01*
X6252640Y-13641747D02*
X6252640Y-13594128D01*
X6252640Y-13594128D02*
X6262164Y-13556033D01*
X6262164Y-13556033D02*
X6271687Y-13536985D01*
X6271687Y-13536985D02*
X6281211Y-13527461D01*
X6281211Y-13527461D02*
X6300259Y-13517937D01*
X6452640Y-13717937D02*
X6452640Y-13584604D01*
X6452640Y-13603652D02*
X6462164Y-13594128D01*
X6462164Y-13594128D02*
X6481211Y-13584604D01*
X6481211Y-13584604D02*
X6509783Y-13584604D01*
X6509783Y-13584604D02*
X6528830Y-13594128D01*
X6528830Y-13594128D02*
X6538354Y-13613176D01*
X6538354Y-13613176D02*
X6538354Y-13717937D01*
X6538354Y-13613176D02*
X6547878Y-13594128D01*
X6547878Y-13594128D02*
X6566926Y-13584604D01*
X6566926Y-13584604D02*
X6595497Y-13584604D01*
X6595497Y-13584604D02*
X6614545Y-13594128D01*
X6614545Y-13594128D02*
X6624068Y-13613176D01*
X6624068Y-13613176D02*
X6624068Y-13717937D01*
X6719307Y-13717937D02*
X6719307Y-13584604D01*
X6719307Y-13603652D02*
X6728830Y-13594128D01*
X6728830Y-13594128D02*
X6747878Y-13584604D01*
X6747878Y-13584604D02*
X6776449Y-13584604D01*
X6776449Y-13584604D02*
X6795497Y-13594128D01*
X6795497Y-13594128D02*
X6805021Y-13613176D01*
X6805021Y-13613176D02*
X6805021Y-13717937D01*
X6805021Y-13613176D02*
X6814545Y-13594128D01*
X6814545Y-13594128D02*
X6833592Y-13584604D01*
X6833592Y-13584604D02*
X6862164Y-13584604D01*
X6862164Y-13584604D02*
X6881211Y-13594128D01*
X6881211Y-13594128D02*
X6890735Y-13613176D01*
X6890735Y-13613176D02*
X6890735Y-13717937D01*
X7281211Y-13508414D02*
X7109783Y-13765556D01*
X7538354Y-13517937D02*
X7557402Y-13517937D01*
X7557402Y-13517937D02*
X7576450Y-13527461D01*
X7576450Y-13527461D02*
X7585973Y-13536985D01*
X7585973Y-13536985D02*
X7595497Y-13556033D01*
X7595497Y-13556033D02*
X7605021Y-13594128D01*
X7605021Y-13594128D02*
X7605021Y-13641747D01*
X7605021Y-13641747D02*
X7595497Y-13679842D01*
X7595497Y-13679842D02*
X7585973Y-13698890D01*
X7585973Y-13698890D02*
X7576450Y-13708414D01*
X7576450Y-13708414D02*
X7557402Y-13717937D01*
X7557402Y-13717937D02*
X7538354Y-13717937D01*
X7538354Y-13717937D02*
X7519307Y-13708414D01*
X7519307Y-13708414D02*
X7509783Y-13698890D01*
X7509783Y-13698890D02*
X7500259Y-13679842D01*
X7500259Y-13679842D02*
X7490735Y-13641747D01*
X7490735Y-13641747D02*
X7490735Y-13594128D01*
X7490735Y-13594128D02*
X7500259Y-13556033D01*
X7500259Y-13556033D02*
X7509783Y-13536985D01*
X7509783Y-13536985D02*
X7519307Y-13527461D01*
X7519307Y-13527461D02*
X7538354Y-13517937D01*
X7690735Y-13698890D02*
X7700259Y-13708414D01*
X7700259Y-13708414D02*
X7690735Y-13717937D01*
X7690735Y-13717937D02*
X7681211Y-13708414D01*
X7681211Y-13708414D02*
X7690735Y-13698890D01*
X7690735Y-13698890D02*
X7690735Y-13717937D01*
X7824069Y-13517937D02*
X7843116Y-13517937D01*
X7843116Y-13517937D02*
X7862164Y-13527461D01*
X7862164Y-13527461D02*
X7871688Y-13536985D01*
X7871688Y-13536985D02*
X7881211Y-13556033D01*
X7881211Y-13556033D02*
X7890735Y-13594128D01*
X7890735Y-13594128D02*
X7890735Y-13641747D01*
X7890735Y-13641747D02*
X7881211Y-13679842D01*
X7881211Y-13679842D02*
X7871688Y-13698890D01*
X7871688Y-13698890D02*
X7862164Y-13708414D01*
X7862164Y-13708414D02*
X7843116Y-13717937D01*
X7843116Y-13717937D02*
X7824069Y-13717937D01*
X7824069Y-13717937D02*
X7805021Y-13708414D01*
X7805021Y-13708414D02*
X7795497Y-13698890D01*
X7795497Y-13698890D02*
X7785973Y-13679842D01*
X7785973Y-13679842D02*
X7776450Y-13641747D01*
X7776450Y-13641747D02*
X7776450Y-13594128D01*
X7776450Y-13594128D02*
X7785973Y-13556033D01*
X7785973Y-13556033D02*
X7795497Y-13536985D01*
X7795497Y-13536985D02*
X7805021Y-13527461D01*
X7805021Y-13527461D02*
X7824069Y-13517937D01*
X8071688Y-13517937D02*
X7976450Y-13517937D01*
X7976450Y-13517937D02*
X7966926Y-13613176D01*
X7966926Y-13613176D02*
X7976450Y-13603652D01*
X7976450Y-13603652D02*
X7995497Y-13594128D01*
X7995497Y-13594128D02*
X8043116Y-13594128D01*
X8043116Y-13594128D02*
X8062164Y-13603652D01*
X8062164Y-13603652D02*
X8071688Y-13613176D01*
X8071688Y-13613176D02*
X8081211Y-13632223D01*
X8081211Y-13632223D02*
X8081211Y-13679842D01*
X8081211Y-13679842D02*
X8071688Y-13698890D01*
X8071688Y-13698890D02*
X8062164Y-13708414D01*
X8062164Y-13708414D02*
X8043116Y-13717937D01*
X8043116Y-13717937D02*
X7995497Y-13717937D01*
X7995497Y-13717937D02*
X7976450Y-13708414D01*
X7976450Y-13708414D02*
X7966926Y-13698890D01*
X8271688Y-13717937D02*
X8157402Y-13717937D01*
X8214545Y-13717937D02*
X8214545Y-13517937D01*
X8214545Y-13517937D02*
X8195497Y-13546509D01*
X8195497Y-13546509D02*
X8176450Y-13565556D01*
X8176450Y-13565556D02*
X8157402Y-13575080D01*
X8347878Y-13536985D02*
X8357402Y-13527461D01*
X8357402Y-13527461D02*
X8376450Y-13517937D01*
X8376450Y-13517937D02*
X8424069Y-13517937D01*
X8424069Y-13517937D02*
X8443116Y-13527461D01*
X8443116Y-13527461D02*
X8452640Y-13536985D01*
X8452640Y-13536985D02*
X8462164Y-13556033D01*
X8462164Y-13556033D02*
X8462164Y-13575080D01*
X8462164Y-13575080D02*
X8452640Y-13603652D01*
X8452640Y-13603652D02*
X8338354Y-13717937D01*
X8338354Y-13717937D02*
X8462164Y-13717937D01*
X8538354Y-13517937D02*
X8538354Y-13556033D01*
X8614545Y-13517937D02*
X8614545Y-13556033D01*
X8909783Y-13794128D02*
X8900259Y-13784604D01*
X8900259Y-13784604D02*
X8881212Y-13756033D01*
X8881212Y-13756033D02*
X8871688Y-13736985D01*
X8871688Y-13736985D02*
X8862164Y-13708414D01*
X8862164Y-13708414D02*
X8852640Y-13660795D01*
X8852640Y-13660795D02*
X8852640Y-13622699D01*
X8852640Y-13622699D02*
X8862164Y-13575080D01*
X8862164Y-13575080D02*
X8871688Y-13546509D01*
X8871688Y-13546509D02*
X8881212Y-13527461D01*
X8881212Y-13527461D02*
X8900259Y-13498890D01*
X8900259Y-13498890D02*
X8909783Y-13489366D01*
X8976450Y-13536985D02*
X8985974Y-13527461D01*
X8985974Y-13527461D02*
X9005021Y-13517937D01*
X9005021Y-13517937D02*
X9052640Y-13517937D01*
X9052640Y-13517937D02*
X9071688Y-13527461D01*
X9071688Y-13527461D02*
X9081212Y-13536985D01*
X9081212Y-13536985D02*
X9090735Y-13556033D01*
X9090735Y-13556033D02*
X9090735Y-13575080D01*
X9090735Y-13575080D02*
X9081212Y-13603652D01*
X9081212Y-13603652D02*
X8966926Y-13717937D01*
X8966926Y-13717937D02*
X9090735Y-13717937D01*
X9262164Y-13584604D02*
X9262164Y-13717937D01*
X9214545Y-13508414D02*
X9166926Y-13651271D01*
X9166926Y-13651271D02*
X9290735Y-13651271D01*
X9519307Y-13717937D02*
X9519307Y-13517937D01*
X9605021Y-13717937D02*
X9605021Y-13613176D01*
X9605021Y-13613176D02*
X9595497Y-13594128D01*
X9595497Y-13594128D02*
X9576450Y-13584604D01*
X9576450Y-13584604D02*
X9547878Y-13584604D01*
X9547878Y-13584604D02*
X9528831Y-13594128D01*
X9528831Y-13594128D02*
X9519307Y-13603652D01*
X9728831Y-13717937D02*
X9709783Y-13708414D01*
X9709783Y-13708414D02*
X9700259Y-13698890D01*
X9700259Y-13698890D02*
X9690736Y-13679842D01*
X9690736Y-13679842D02*
X9690736Y-13622699D01*
X9690736Y-13622699D02*
X9700259Y-13603652D01*
X9700259Y-13603652D02*
X9709783Y-13594128D01*
X9709783Y-13594128D02*
X9728831Y-13584604D01*
X9728831Y-13584604D02*
X9757402Y-13584604D01*
X9757402Y-13584604D02*
X9776450Y-13594128D01*
X9776450Y-13594128D02*
X9785974Y-13603652D01*
X9785974Y-13603652D02*
X9795497Y-13622699D01*
X9795497Y-13622699D02*
X9795497Y-13679842D01*
X9795497Y-13679842D02*
X9785974Y-13698890D01*
X9785974Y-13698890D02*
X9776450Y-13708414D01*
X9776450Y-13708414D02*
X9757402Y-13717937D01*
X9757402Y-13717937D02*
X9728831Y-13717937D01*
X9909783Y-13717937D02*
X9890736Y-13708414D01*
X9890736Y-13708414D02*
X9881212Y-13689366D01*
X9881212Y-13689366D02*
X9881212Y-13517937D01*
X10062164Y-13708414D02*
X10043117Y-13717937D01*
X10043117Y-13717937D02*
X10005021Y-13717937D01*
X10005021Y-13717937D02*
X9985974Y-13708414D01*
X9985974Y-13708414D02*
X9976450Y-13689366D01*
X9976450Y-13689366D02*
X9976450Y-13613176D01*
X9976450Y-13613176D02*
X9985974Y-13594128D01*
X9985974Y-13594128D02*
X10005021Y-13584604D01*
X10005021Y-13584604D02*
X10043117Y-13584604D01*
X10043117Y-13584604D02*
X10062164Y-13594128D01*
X10062164Y-13594128D02*
X10071688Y-13613176D01*
X10071688Y-13613176D02*
X10071688Y-13632223D01*
X10071688Y-13632223D02*
X9976450Y-13651271D01*
X10147878Y-13708414D02*
X10166926Y-13717937D01*
X10166926Y-13717937D02*
X10205021Y-13717937D01*
X10205021Y-13717937D02*
X10224069Y-13708414D01*
X10224069Y-13708414D02*
X10233593Y-13689366D01*
X10233593Y-13689366D02*
X10233593Y-13679842D01*
X10233593Y-13679842D02*
X10224069Y-13660795D01*
X10224069Y-13660795D02*
X10205021Y-13651271D01*
X10205021Y-13651271D02*
X10176450Y-13651271D01*
X10176450Y-13651271D02*
X10157402Y-13641747D01*
X10157402Y-13641747D02*
X10147878Y-13622699D01*
X10147878Y-13622699D02*
X10147878Y-13613176D01*
X10147878Y-13613176D02*
X10157402Y-13594128D01*
X10157402Y-13594128D02*
X10176450Y-13584604D01*
X10176450Y-13584604D02*
X10205021Y-13584604D01*
X10205021Y-13584604D02*
X10224069Y-13594128D01*
X10300259Y-13794128D02*
X10309783Y-13784604D01*
X10309783Y-13784604D02*
X10328831Y-13756033D01*
X10328831Y-13756033D02*
X10338355Y-13736985D01*
X10338355Y-13736985D02*
X10347878Y-13708414D01*
X10347878Y-13708414D02*
X10357402Y-13660795D01*
X10357402Y-13660795D02*
X10357402Y-13622699D01*
X10357402Y-13622699D02*
X10347878Y-13575080D01*
X10347878Y-13575080D02*
X10338355Y-13546509D01*
X10338355Y-13546509D02*
X10328831Y-13527461D01*
X10328831Y-13527461D02*
X10309783Y-13498890D01*
X10309783Y-13498890D02*
X10300259Y-13489366D01*
D19*
X5194720Y-13820454D02*
X5334720Y-13960454D01*
X5334720Y-13820454D02*
X5194720Y-13960454D01*
X5314218Y-13939952D02*
X5314218Y-13840956D01*
X5215222Y-13840956D01*
X5215222Y-13939952D01*
X5314218Y-13939952D01*
D11*
X5700259Y-13981937D02*
X5585973Y-13981937D01*
X5643116Y-13981937D02*
X5643116Y-13781937D01*
X5643116Y-13781937D02*
X5624068Y-13810509D01*
X5624068Y-13810509D02*
X5605021Y-13829556D01*
X5605021Y-13829556D02*
X5585973Y-13839080D01*
X5785973Y-13962890D02*
X5795497Y-13972414D01*
X5795497Y-13972414D02*
X5785973Y-13981937D01*
X5785973Y-13981937D02*
X5776449Y-13972414D01*
X5776449Y-13972414D02*
X5785973Y-13962890D01*
X5785973Y-13962890D02*
X5785973Y-13981937D01*
X5966926Y-13848604D02*
X5966926Y-13981937D01*
X5919306Y-13772414D02*
X5871687Y-13915271D01*
X5871687Y-13915271D02*
X5995497Y-13915271D01*
X6109783Y-13781937D02*
X6128830Y-13781937D01*
X6128830Y-13781937D02*
X6147878Y-13791461D01*
X6147878Y-13791461D02*
X6157402Y-13800985D01*
X6157402Y-13800985D02*
X6166926Y-13820033D01*
X6166926Y-13820033D02*
X6176449Y-13858128D01*
X6176449Y-13858128D02*
X6176449Y-13905747D01*
X6176449Y-13905747D02*
X6166926Y-13943842D01*
X6166926Y-13943842D02*
X6157402Y-13962890D01*
X6157402Y-13962890D02*
X6147878Y-13972414D01*
X6147878Y-13972414D02*
X6128830Y-13981937D01*
X6128830Y-13981937D02*
X6109783Y-13981937D01*
X6109783Y-13981937D02*
X6090735Y-13972414D01*
X6090735Y-13972414D02*
X6081211Y-13962890D01*
X6081211Y-13962890D02*
X6071687Y-13943842D01*
X6071687Y-13943842D02*
X6062164Y-13905747D01*
X6062164Y-13905747D02*
X6062164Y-13858128D01*
X6062164Y-13858128D02*
X6071687Y-13820033D01*
X6071687Y-13820033D02*
X6081211Y-13800985D01*
X6081211Y-13800985D02*
X6090735Y-13791461D01*
X6090735Y-13791461D02*
X6109783Y-13781937D01*
X6300259Y-13781937D02*
X6319307Y-13781937D01*
X6319307Y-13781937D02*
X6338354Y-13791461D01*
X6338354Y-13791461D02*
X6347878Y-13800985D01*
X6347878Y-13800985D02*
X6357402Y-13820033D01*
X6357402Y-13820033D02*
X6366926Y-13858128D01*
X6366926Y-13858128D02*
X6366926Y-13905747D01*
X6366926Y-13905747D02*
X6357402Y-13943842D01*
X6357402Y-13943842D02*
X6347878Y-13962890D01*
X6347878Y-13962890D02*
X6338354Y-13972414D01*
X6338354Y-13972414D02*
X6319307Y-13981937D01*
X6319307Y-13981937D02*
X6300259Y-13981937D01*
X6300259Y-13981937D02*
X6281211Y-13972414D01*
X6281211Y-13972414D02*
X6271687Y-13962890D01*
X6271687Y-13962890D02*
X6262164Y-13943842D01*
X6262164Y-13943842D02*
X6252640Y-13905747D01*
X6252640Y-13905747D02*
X6252640Y-13858128D01*
X6252640Y-13858128D02*
X6262164Y-13820033D01*
X6262164Y-13820033D02*
X6271687Y-13800985D01*
X6271687Y-13800985D02*
X6281211Y-13791461D01*
X6281211Y-13791461D02*
X6300259Y-13781937D01*
X6452640Y-13981937D02*
X6452640Y-13848604D01*
X6452640Y-13867652D02*
X6462164Y-13858128D01*
X6462164Y-13858128D02*
X6481211Y-13848604D01*
X6481211Y-13848604D02*
X6509783Y-13848604D01*
X6509783Y-13848604D02*
X6528830Y-13858128D01*
X6528830Y-13858128D02*
X6538354Y-13877176D01*
X6538354Y-13877176D02*
X6538354Y-13981937D01*
X6538354Y-13877176D02*
X6547878Y-13858128D01*
X6547878Y-13858128D02*
X6566926Y-13848604D01*
X6566926Y-13848604D02*
X6595497Y-13848604D01*
X6595497Y-13848604D02*
X6614545Y-13858128D01*
X6614545Y-13858128D02*
X6624068Y-13877176D01*
X6624068Y-13877176D02*
X6624068Y-13981937D01*
X6719307Y-13981937D02*
X6719307Y-13848604D01*
X6719307Y-13867652D02*
X6728830Y-13858128D01*
X6728830Y-13858128D02*
X6747878Y-13848604D01*
X6747878Y-13848604D02*
X6776449Y-13848604D01*
X6776449Y-13848604D02*
X6795497Y-13858128D01*
X6795497Y-13858128D02*
X6805021Y-13877176D01*
X6805021Y-13877176D02*
X6805021Y-13981937D01*
X6805021Y-13877176D02*
X6814545Y-13858128D01*
X6814545Y-13858128D02*
X6833592Y-13848604D01*
X6833592Y-13848604D02*
X6862164Y-13848604D01*
X6862164Y-13848604D02*
X6881211Y-13858128D01*
X6881211Y-13858128D02*
X6890735Y-13877176D01*
X6890735Y-13877176D02*
X6890735Y-13981937D01*
X7281211Y-13772414D02*
X7109783Y-14029556D01*
X7538354Y-13781937D02*
X7557402Y-13781937D01*
X7557402Y-13781937D02*
X7576450Y-13791461D01*
X7576450Y-13791461D02*
X7585973Y-13800985D01*
X7585973Y-13800985D02*
X7595497Y-13820033D01*
X7595497Y-13820033D02*
X7605021Y-13858128D01*
X7605021Y-13858128D02*
X7605021Y-13905747D01*
X7605021Y-13905747D02*
X7595497Y-13943842D01*
X7595497Y-13943842D02*
X7585973Y-13962890D01*
X7585973Y-13962890D02*
X7576450Y-13972414D01*
X7576450Y-13972414D02*
X7557402Y-13981937D01*
X7557402Y-13981937D02*
X7538354Y-13981937D01*
X7538354Y-13981937D02*
X7519307Y-13972414D01*
X7519307Y-13972414D02*
X7509783Y-13962890D01*
X7509783Y-13962890D02*
X7500259Y-13943842D01*
X7500259Y-13943842D02*
X7490735Y-13905747D01*
X7490735Y-13905747D02*
X7490735Y-13858128D01*
X7490735Y-13858128D02*
X7500259Y-13820033D01*
X7500259Y-13820033D02*
X7509783Y-13800985D01*
X7509783Y-13800985D02*
X7519307Y-13791461D01*
X7519307Y-13791461D02*
X7538354Y-13781937D01*
X7690735Y-13962890D02*
X7700259Y-13972414D01*
X7700259Y-13972414D02*
X7690735Y-13981937D01*
X7690735Y-13981937D02*
X7681211Y-13972414D01*
X7681211Y-13972414D02*
X7690735Y-13962890D01*
X7690735Y-13962890D02*
X7690735Y-13981937D01*
X7824069Y-13781937D02*
X7843116Y-13781937D01*
X7843116Y-13781937D02*
X7862164Y-13791461D01*
X7862164Y-13791461D02*
X7871688Y-13800985D01*
X7871688Y-13800985D02*
X7881211Y-13820033D01*
X7881211Y-13820033D02*
X7890735Y-13858128D01*
X7890735Y-13858128D02*
X7890735Y-13905747D01*
X7890735Y-13905747D02*
X7881211Y-13943842D01*
X7881211Y-13943842D02*
X7871688Y-13962890D01*
X7871688Y-13962890D02*
X7862164Y-13972414D01*
X7862164Y-13972414D02*
X7843116Y-13981937D01*
X7843116Y-13981937D02*
X7824069Y-13981937D01*
X7824069Y-13981937D02*
X7805021Y-13972414D01*
X7805021Y-13972414D02*
X7795497Y-13962890D01*
X7795497Y-13962890D02*
X7785973Y-13943842D01*
X7785973Y-13943842D02*
X7776450Y-13905747D01*
X7776450Y-13905747D02*
X7776450Y-13858128D01*
X7776450Y-13858128D02*
X7785973Y-13820033D01*
X7785973Y-13820033D02*
X7795497Y-13800985D01*
X7795497Y-13800985D02*
X7805021Y-13791461D01*
X7805021Y-13791461D02*
X7824069Y-13781937D01*
X8071688Y-13781937D02*
X7976450Y-13781937D01*
X7976450Y-13781937D02*
X7966926Y-13877176D01*
X7966926Y-13877176D02*
X7976450Y-13867652D01*
X7976450Y-13867652D02*
X7995497Y-13858128D01*
X7995497Y-13858128D02*
X8043116Y-13858128D01*
X8043116Y-13858128D02*
X8062164Y-13867652D01*
X8062164Y-13867652D02*
X8071688Y-13877176D01*
X8071688Y-13877176D02*
X8081211Y-13896223D01*
X8081211Y-13896223D02*
X8081211Y-13943842D01*
X8081211Y-13943842D02*
X8071688Y-13962890D01*
X8071688Y-13962890D02*
X8062164Y-13972414D01*
X8062164Y-13972414D02*
X8043116Y-13981937D01*
X8043116Y-13981937D02*
X7995497Y-13981937D01*
X7995497Y-13981937D02*
X7976450Y-13972414D01*
X7976450Y-13972414D02*
X7966926Y-13962890D01*
X8262164Y-13781937D02*
X8166926Y-13781937D01*
X8166926Y-13781937D02*
X8157402Y-13877176D01*
X8157402Y-13877176D02*
X8166926Y-13867652D01*
X8166926Y-13867652D02*
X8185973Y-13858128D01*
X8185973Y-13858128D02*
X8233592Y-13858128D01*
X8233592Y-13858128D02*
X8252640Y-13867652D01*
X8252640Y-13867652D02*
X8262164Y-13877176D01*
X8262164Y-13877176D02*
X8271688Y-13896223D01*
X8271688Y-13896223D02*
X8271688Y-13943842D01*
X8271688Y-13943842D02*
X8262164Y-13962890D01*
X8262164Y-13962890D02*
X8252640Y-13972414D01*
X8252640Y-13972414D02*
X8233592Y-13981937D01*
X8233592Y-13981937D02*
X8185973Y-13981937D01*
X8185973Y-13981937D02*
X8166926Y-13972414D01*
X8166926Y-13972414D02*
X8157402Y-13962890D01*
X8462164Y-13981937D02*
X8347878Y-13981937D01*
X8405021Y-13981937D02*
X8405021Y-13781937D01*
X8405021Y-13781937D02*
X8385973Y-13810509D01*
X8385973Y-13810509D02*
X8366926Y-13829556D01*
X8366926Y-13829556D02*
X8347878Y-13839080D01*
X8538354Y-13781937D02*
X8538354Y-13820033D01*
X8614545Y-13781937D02*
X8614545Y-13820033D01*
X8909783Y-14058128D02*
X8900259Y-14048604D01*
X8900259Y-14048604D02*
X8881212Y-14020033D01*
X8881212Y-14020033D02*
X8871688Y-14000985D01*
X8871688Y-14000985D02*
X8862164Y-13972414D01*
X8862164Y-13972414D02*
X8852640Y-13924795D01*
X8852640Y-13924795D02*
X8852640Y-13886699D01*
X8852640Y-13886699D02*
X8862164Y-13839080D01*
X8862164Y-13839080D02*
X8871688Y-13810509D01*
X8871688Y-13810509D02*
X8881212Y-13791461D01*
X8881212Y-13791461D02*
X8900259Y-13762890D01*
X8900259Y-13762890D02*
X8909783Y-13753366D01*
X9014545Y-13867652D02*
X8995497Y-13858128D01*
X8995497Y-13858128D02*
X8985974Y-13848604D01*
X8985974Y-13848604D02*
X8976450Y-13829556D01*
X8976450Y-13829556D02*
X8976450Y-13820033D01*
X8976450Y-13820033D02*
X8985974Y-13800985D01*
X8985974Y-13800985D02*
X8995497Y-13791461D01*
X8995497Y-13791461D02*
X9014545Y-13781937D01*
X9014545Y-13781937D02*
X9052640Y-13781937D01*
X9052640Y-13781937D02*
X9071688Y-13791461D01*
X9071688Y-13791461D02*
X9081212Y-13800985D01*
X9081212Y-13800985D02*
X9090735Y-13820033D01*
X9090735Y-13820033D02*
X9090735Y-13829556D01*
X9090735Y-13829556D02*
X9081212Y-13848604D01*
X9081212Y-13848604D02*
X9071688Y-13858128D01*
X9071688Y-13858128D02*
X9052640Y-13867652D01*
X9052640Y-13867652D02*
X9014545Y-13867652D01*
X9014545Y-13867652D02*
X8995497Y-13877176D01*
X8995497Y-13877176D02*
X8985974Y-13886699D01*
X8985974Y-13886699D02*
X8976450Y-13905747D01*
X8976450Y-13905747D02*
X8976450Y-13943842D01*
X8976450Y-13943842D02*
X8985974Y-13962890D01*
X8985974Y-13962890D02*
X8995497Y-13972414D01*
X8995497Y-13972414D02*
X9014545Y-13981937D01*
X9014545Y-13981937D02*
X9052640Y-13981937D01*
X9052640Y-13981937D02*
X9071688Y-13972414D01*
X9071688Y-13972414D02*
X9081212Y-13962890D01*
X9081212Y-13962890D02*
X9090735Y-13943842D01*
X9090735Y-13943842D02*
X9090735Y-13905747D01*
X9090735Y-13905747D02*
X9081212Y-13886699D01*
X9081212Y-13886699D02*
X9071688Y-13877176D01*
X9071688Y-13877176D02*
X9052640Y-13867652D01*
X9328831Y-13981937D02*
X9328831Y-13781937D01*
X9414545Y-13981937D02*
X9414545Y-13877176D01*
X9414545Y-13877176D02*
X9405021Y-13858128D01*
X9405021Y-13858128D02*
X9385974Y-13848604D01*
X9385974Y-13848604D02*
X9357402Y-13848604D01*
X9357402Y-13848604D02*
X9338355Y-13858128D01*
X9338355Y-13858128D02*
X9328831Y-13867652D01*
X9538355Y-13981937D02*
X9519307Y-13972414D01*
X9519307Y-13972414D02*
X9509783Y-13962890D01*
X9509783Y-13962890D02*
X9500259Y-13943842D01*
X9500259Y-13943842D02*
X9500259Y-13886699D01*
X9500259Y-13886699D02*
X9509783Y-13867652D01*
X9509783Y-13867652D02*
X9519307Y-13858128D01*
X9519307Y-13858128D02*
X9538355Y-13848604D01*
X9538355Y-13848604D02*
X9566926Y-13848604D01*
X9566926Y-13848604D02*
X9585974Y-13858128D01*
X9585974Y-13858128D02*
X9595497Y-13867652D01*
X9595497Y-13867652D02*
X9605021Y-13886699D01*
X9605021Y-13886699D02*
X9605021Y-13943842D01*
X9605021Y-13943842D02*
X9595497Y-13962890D01*
X9595497Y-13962890D02*
X9585974Y-13972414D01*
X9585974Y-13972414D02*
X9566926Y-13981937D01*
X9566926Y-13981937D02*
X9538355Y-13981937D01*
X9719307Y-13981937D02*
X9700259Y-13972414D01*
X9700259Y-13972414D02*
X9690736Y-13953366D01*
X9690736Y-13953366D02*
X9690736Y-13781937D01*
X9871688Y-13972414D02*
X9852640Y-13981937D01*
X9852640Y-13981937D02*
X9814545Y-13981937D01*
X9814545Y-13981937D02*
X9795497Y-13972414D01*
X9795497Y-13972414D02*
X9785974Y-13953366D01*
X9785974Y-13953366D02*
X9785974Y-13877176D01*
X9785974Y-13877176D02*
X9795497Y-13858128D01*
X9795497Y-13858128D02*
X9814545Y-13848604D01*
X9814545Y-13848604D02*
X9852640Y-13848604D01*
X9852640Y-13848604D02*
X9871688Y-13858128D01*
X9871688Y-13858128D02*
X9881212Y-13877176D01*
X9881212Y-13877176D02*
X9881212Y-13896223D01*
X9881212Y-13896223D02*
X9785974Y-13915271D01*
X9957402Y-13972414D02*
X9976450Y-13981937D01*
X9976450Y-13981937D02*
X10014545Y-13981937D01*
X10014545Y-13981937D02*
X10033593Y-13972414D01*
X10033593Y-13972414D02*
X10043117Y-13953366D01*
X10043117Y-13953366D02*
X10043117Y-13943842D01*
X10043117Y-13943842D02*
X10033593Y-13924795D01*
X10033593Y-13924795D02*
X10014545Y-13915271D01*
X10014545Y-13915271D02*
X9985974Y-13915271D01*
X9985974Y-13915271D02*
X9966926Y-13905747D01*
X9966926Y-13905747D02*
X9957402Y-13886699D01*
X9957402Y-13886699D02*
X9957402Y-13877176D01*
X9957402Y-13877176D02*
X9966926Y-13858128D01*
X9966926Y-13858128D02*
X9985974Y-13848604D01*
X9985974Y-13848604D02*
X10014545Y-13848604D01*
X10014545Y-13848604D02*
X10033593Y-13858128D01*
X10109783Y-14058128D02*
X10119307Y-14048604D01*
X10119307Y-14048604D02*
X10138355Y-14020033D01*
X10138355Y-14020033D02*
X10147878Y-14000985D01*
X10147878Y-14000985D02*
X10157402Y-13972414D01*
X10157402Y-13972414D02*
X10166926Y-13924795D01*
X10166926Y-13924795D02*
X10166926Y-13886699D01*
X10166926Y-13886699D02*
X10157402Y-13839080D01*
X10157402Y-13839080D02*
X10147878Y-13810509D01*
X10147878Y-13810509D02*
X10138355Y-13791461D01*
X10138355Y-13791461D02*
X10119307Y-13762890D01*
X10119307Y-13762890D02*
X10109783Y-13753366D01*
D10*
X5184720Y-14079454D02*
X5334720Y-14229454D01*
X5334720Y-14079454D02*
X5184720Y-14229454D01*
X5259720Y-14229454D02*
X5334720Y-14154454D01*
X5259720Y-14079454D01*
X5184720Y-14154454D01*
X5259720Y-14229454D01*
D11*
X5700259Y-14245937D02*
X5585973Y-14245937D01*
X5643116Y-14245937D02*
X5643116Y-14045937D01*
X5643116Y-14045937D02*
X5624068Y-14074509D01*
X5624068Y-14074509D02*
X5605021Y-14093556D01*
X5605021Y-14093556D02*
X5585973Y-14103080D01*
X5785973Y-14226890D02*
X5795497Y-14236414D01*
X5795497Y-14236414D02*
X5785973Y-14245937D01*
X5785973Y-14245937D02*
X5776449Y-14236414D01*
X5776449Y-14236414D02*
X5785973Y-14226890D01*
X5785973Y-14226890D02*
X5785973Y-14245937D01*
X5976449Y-14045937D02*
X5881211Y-14045937D01*
X5881211Y-14045937D02*
X5871687Y-14141176D01*
X5871687Y-14141176D02*
X5881211Y-14131652D01*
X5881211Y-14131652D02*
X5900259Y-14122128D01*
X5900259Y-14122128D02*
X5947878Y-14122128D01*
X5947878Y-14122128D02*
X5966926Y-14131652D01*
X5966926Y-14131652D02*
X5976449Y-14141176D01*
X5976449Y-14141176D02*
X5985973Y-14160223D01*
X5985973Y-14160223D02*
X5985973Y-14207842D01*
X5985973Y-14207842D02*
X5976449Y-14226890D01*
X5976449Y-14226890D02*
X5966926Y-14236414D01*
X5966926Y-14236414D02*
X5947878Y-14245937D01*
X5947878Y-14245937D02*
X5900259Y-14245937D01*
X5900259Y-14245937D02*
X5881211Y-14236414D01*
X5881211Y-14236414D02*
X5871687Y-14226890D01*
X6109783Y-14045937D02*
X6128830Y-14045937D01*
X6128830Y-14045937D02*
X6147878Y-14055461D01*
X6147878Y-14055461D02*
X6157402Y-14064985D01*
X6157402Y-14064985D02*
X6166926Y-14084033D01*
X6166926Y-14084033D02*
X6176449Y-14122128D01*
X6176449Y-14122128D02*
X6176449Y-14169747D01*
X6176449Y-14169747D02*
X6166926Y-14207842D01*
X6166926Y-14207842D02*
X6157402Y-14226890D01*
X6157402Y-14226890D02*
X6147878Y-14236414D01*
X6147878Y-14236414D02*
X6128830Y-14245937D01*
X6128830Y-14245937D02*
X6109783Y-14245937D01*
X6109783Y-14245937D02*
X6090735Y-14236414D01*
X6090735Y-14236414D02*
X6081211Y-14226890D01*
X6081211Y-14226890D02*
X6071687Y-14207842D01*
X6071687Y-14207842D02*
X6062164Y-14169747D01*
X6062164Y-14169747D02*
X6062164Y-14122128D01*
X6062164Y-14122128D02*
X6071687Y-14084033D01*
X6071687Y-14084033D02*
X6081211Y-14064985D01*
X6081211Y-14064985D02*
X6090735Y-14055461D01*
X6090735Y-14055461D02*
X6109783Y-14045937D01*
X6300259Y-14045937D02*
X6319307Y-14045937D01*
X6319307Y-14045937D02*
X6338354Y-14055461D01*
X6338354Y-14055461D02*
X6347878Y-14064985D01*
X6347878Y-14064985D02*
X6357402Y-14084033D01*
X6357402Y-14084033D02*
X6366926Y-14122128D01*
X6366926Y-14122128D02*
X6366926Y-14169747D01*
X6366926Y-14169747D02*
X6357402Y-14207842D01*
X6357402Y-14207842D02*
X6347878Y-14226890D01*
X6347878Y-14226890D02*
X6338354Y-14236414D01*
X6338354Y-14236414D02*
X6319307Y-14245937D01*
X6319307Y-14245937D02*
X6300259Y-14245937D01*
X6300259Y-14245937D02*
X6281211Y-14236414D01*
X6281211Y-14236414D02*
X6271687Y-14226890D01*
X6271687Y-14226890D02*
X6262164Y-14207842D01*
X6262164Y-14207842D02*
X6252640Y-14169747D01*
X6252640Y-14169747D02*
X6252640Y-14122128D01*
X6252640Y-14122128D02*
X6262164Y-14084033D01*
X6262164Y-14084033D02*
X6271687Y-14064985D01*
X6271687Y-14064985D02*
X6281211Y-14055461D01*
X6281211Y-14055461D02*
X6300259Y-14045937D01*
X6452640Y-14245937D02*
X6452640Y-14112604D01*
X6452640Y-14131652D02*
X6462164Y-14122128D01*
X6462164Y-14122128D02*
X6481211Y-14112604D01*
X6481211Y-14112604D02*
X6509783Y-14112604D01*
X6509783Y-14112604D02*
X6528830Y-14122128D01*
X6528830Y-14122128D02*
X6538354Y-14141176D01*
X6538354Y-14141176D02*
X6538354Y-14245937D01*
X6538354Y-14141176D02*
X6547878Y-14122128D01*
X6547878Y-14122128D02*
X6566926Y-14112604D01*
X6566926Y-14112604D02*
X6595497Y-14112604D01*
X6595497Y-14112604D02*
X6614545Y-14122128D01*
X6614545Y-14122128D02*
X6624068Y-14141176D01*
X6624068Y-14141176D02*
X6624068Y-14245937D01*
X6719307Y-14245937D02*
X6719307Y-14112604D01*
X6719307Y-14131652D02*
X6728830Y-14122128D01*
X6728830Y-14122128D02*
X6747878Y-14112604D01*
X6747878Y-14112604D02*
X6776449Y-14112604D01*
X6776449Y-14112604D02*
X6795497Y-14122128D01*
X6795497Y-14122128D02*
X6805021Y-14141176D01*
X6805021Y-14141176D02*
X6805021Y-14245937D01*
X6805021Y-14141176D02*
X6814545Y-14122128D01*
X6814545Y-14122128D02*
X6833592Y-14112604D01*
X6833592Y-14112604D02*
X6862164Y-14112604D01*
X6862164Y-14112604D02*
X6881211Y-14122128D01*
X6881211Y-14122128D02*
X6890735Y-14141176D01*
X6890735Y-14141176D02*
X6890735Y-14245937D01*
X7281211Y-14036414D02*
X7109783Y-14293556D01*
X7538354Y-14045937D02*
X7557402Y-14045937D01*
X7557402Y-14045937D02*
X7576450Y-14055461D01*
X7576450Y-14055461D02*
X7585973Y-14064985D01*
X7585973Y-14064985D02*
X7595497Y-14084033D01*
X7595497Y-14084033D02*
X7605021Y-14122128D01*
X7605021Y-14122128D02*
X7605021Y-14169747D01*
X7605021Y-14169747D02*
X7595497Y-14207842D01*
X7595497Y-14207842D02*
X7585973Y-14226890D01*
X7585973Y-14226890D02*
X7576450Y-14236414D01*
X7576450Y-14236414D02*
X7557402Y-14245937D01*
X7557402Y-14245937D02*
X7538354Y-14245937D01*
X7538354Y-14245937D02*
X7519307Y-14236414D01*
X7519307Y-14236414D02*
X7509783Y-14226890D01*
X7509783Y-14226890D02*
X7500259Y-14207842D01*
X7500259Y-14207842D02*
X7490735Y-14169747D01*
X7490735Y-14169747D02*
X7490735Y-14122128D01*
X7490735Y-14122128D02*
X7500259Y-14084033D01*
X7500259Y-14084033D02*
X7509783Y-14064985D01*
X7509783Y-14064985D02*
X7519307Y-14055461D01*
X7519307Y-14055461D02*
X7538354Y-14045937D01*
X7690735Y-14226890D02*
X7700259Y-14236414D01*
X7700259Y-14236414D02*
X7690735Y-14245937D01*
X7690735Y-14245937D02*
X7681211Y-14236414D01*
X7681211Y-14236414D02*
X7690735Y-14226890D01*
X7690735Y-14226890D02*
X7690735Y-14245937D01*
X7824069Y-14045937D02*
X7843116Y-14045937D01*
X7843116Y-14045937D02*
X7862164Y-14055461D01*
X7862164Y-14055461D02*
X7871688Y-14064985D01*
X7871688Y-14064985D02*
X7881211Y-14084033D01*
X7881211Y-14084033D02*
X7890735Y-14122128D01*
X7890735Y-14122128D02*
X7890735Y-14169747D01*
X7890735Y-14169747D02*
X7881211Y-14207842D01*
X7881211Y-14207842D02*
X7871688Y-14226890D01*
X7871688Y-14226890D02*
X7862164Y-14236414D01*
X7862164Y-14236414D02*
X7843116Y-14245937D01*
X7843116Y-14245937D02*
X7824069Y-14245937D01*
X7824069Y-14245937D02*
X7805021Y-14236414D01*
X7805021Y-14236414D02*
X7795497Y-14226890D01*
X7795497Y-14226890D02*
X7785973Y-14207842D01*
X7785973Y-14207842D02*
X7776450Y-14169747D01*
X7776450Y-14169747D02*
X7776450Y-14122128D01*
X7776450Y-14122128D02*
X7785973Y-14084033D01*
X7785973Y-14084033D02*
X7795497Y-14064985D01*
X7795497Y-14064985D02*
X7805021Y-14055461D01*
X7805021Y-14055461D02*
X7824069Y-14045937D01*
X8071688Y-14045937D02*
X7976450Y-14045937D01*
X7976450Y-14045937D02*
X7966926Y-14141176D01*
X7966926Y-14141176D02*
X7976450Y-14131652D01*
X7976450Y-14131652D02*
X7995497Y-14122128D01*
X7995497Y-14122128D02*
X8043116Y-14122128D01*
X8043116Y-14122128D02*
X8062164Y-14131652D01*
X8062164Y-14131652D02*
X8071688Y-14141176D01*
X8071688Y-14141176D02*
X8081211Y-14160223D01*
X8081211Y-14160223D02*
X8081211Y-14207842D01*
X8081211Y-14207842D02*
X8071688Y-14226890D01*
X8071688Y-14226890D02*
X8062164Y-14236414D01*
X8062164Y-14236414D02*
X8043116Y-14245937D01*
X8043116Y-14245937D02*
X7995497Y-14245937D01*
X7995497Y-14245937D02*
X7976450Y-14236414D01*
X7976450Y-14236414D02*
X7966926Y-14226890D01*
X8176450Y-14245937D02*
X8214545Y-14245937D01*
X8214545Y-14245937D02*
X8233592Y-14236414D01*
X8233592Y-14236414D02*
X8243116Y-14226890D01*
X8243116Y-14226890D02*
X8262164Y-14198318D01*
X8262164Y-14198318D02*
X8271688Y-14160223D01*
X8271688Y-14160223D02*
X8271688Y-14084033D01*
X8271688Y-14084033D02*
X8262164Y-14064985D01*
X8262164Y-14064985D02*
X8252640Y-14055461D01*
X8252640Y-14055461D02*
X8233592Y-14045937D01*
X8233592Y-14045937D02*
X8195497Y-14045937D01*
X8195497Y-14045937D02*
X8176450Y-14055461D01*
X8176450Y-14055461D02*
X8166926Y-14064985D01*
X8166926Y-14064985D02*
X8157402Y-14084033D01*
X8157402Y-14084033D02*
X8157402Y-14131652D01*
X8157402Y-14131652D02*
X8166926Y-14150699D01*
X8166926Y-14150699D02*
X8176450Y-14160223D01*
X8176450Y-14160223D02*
X8195497Y-14169747D01*
X8195497Y-14169747D02*
X8233592Y-14169747D01*
X8233592Y-14169747D02*
X8252640Y-14160223D01*
X8252640Y-14160223D02*
X8262164Y-14150699D01*
X8262164Y-14150699D02*
X8271688Y-14131652D01*
X8462164Y-14245937D02*
X8347878Y-14245937D01*
X8405021Y-14245937D02*
X8405021Y-14045937D01*
X8405021Y-14045937D02*
X8385973Y-14074509D01*
X8385973Y-14074509D02*
X8366926Y-14093556D01*
X8366926Y-14093556D02*
X8347878Y-14103080D01*
X8538354Y-14045937D02*
X8538354Y-14084033D01*
X8614545Y-14045937D02*
X8614545Y-14084033D01*
X8909783Y-14322128D02*
X8900259Y-14312604D01*
X8900259Y-14312604D02*
X8881212Y-14284033D01*
X8881212Y-14284033D02*
X8871688Y-14264985D01*
X8871688Y-14264985D02*
X8862164Y-14236414D01*
X8862164Y-14236414D02*
X8852640Y-14188795D01*
X8852640Y-14188795D02*
X8852640Y-14150699D01*
X8852640Y-14150699D02*
X8862164Y-14103080D01*
X8862164Y-14103080D02*
X8871688Y-14074509D01*
X8871688Y-14074509D02*
X8881212Y-14055461D01*
X8881212Y-14055461D02*
X8900259Y-14026890D01*
X8900259Y-14026890D02*
X8909783Y-14017366D01*
X8976450Y-14064985D02*
X8985974Y-14055461D01*
X8985974Y-14055461D02*
X9005021Y-14045937D01*
X9005021Y-14045937D02*
X9052640Y-14045937D01*
X9052640Y-14045937D02*
X9071688Y-14055461D01*
X9071688Y-14055461D02*
X9081212Y-14064985D01*
X9081212Y-14064985D02*
X9090735Y-14084033D01*
X9090735Y-14084033D02*
X9090735Y-14103080D01*
X9090735Y-14103080D02*
X9081212Y-14131652D01*
X9081212Y-14131652D02*
X8966926Y-14245937D01*
X8966926Y-14245937D02*
X9090735Y-14245937D01*
X9328831Y-14245937D02*
X9328831Y-14045937D01*
X9414545Y-14245937D02*
X9414545Y-14141176D01*
X9414545Y-14141176D02*
X9405021Y-14122128D01*
X9405021Y-14122128D02*
X9385974Y-14112604D01*
X9385974Y-14112604D02*
X9357402Y-14112604D01*
X9357402Y-14112604D02*
X9338355Y-14122128D01*
X9338355Y-14122128D02*
X9328831Y-14131652D01*
X9538355Y-14245937D02*
X9519307Y-14236414D01*
X9519307Y-14236414D02*
X9509783Y-14226890D01*
X9509783Y-14226890D02*
X9500259Y-14207842D01*
X9500259Y-14207842D02*
X9500259Y-14150699D01*
X9500259Y-14150699D02*
X9509783Y-14131652D01*
X9509783Y-14131652D02*
X9519307Y-14122128D01*
X9519307Y-14122128D02*
X9538355Y-14112604D01*
X9538355Y-14112604D02*
X9566926Y-14112604D01*
X9566926Y-14112604D02*
X9585974Y-14122128D01*
X9585974Y-14122128D02*
X9595497Y-14131652D01*
X9595497Y-14131652D02*
X9605021Y-14150699D01*
X9605021Y-14150699D02*
X9605021Y-14207842D01*
X9605021Y-14207842D02*
X9595497Y-14226890D01*
X9595497Y-14226890D02*
X9585974Y-14236414D01*
X9585974Y-14236414D02*
X9566926Y-14245937D01*
X9566926Y-14245937D02*
X9538355Y-14245937D01*
X9719307Y-14245937D02*
X9700259Y-14236414D01*
X9700259Y-14236414D02*
X9690736Y-14217366D01*
X9690736Y-14217366D02*
X9690736Y-14045937D01*
X9871688Y-14236414D02*
X9852640Y-14245937D01*
X9852640Y-14245937D02*
X9814545Y-14245937D01*
X9814545Y-14245937D02*
X9795497Y-14236414D01*
X9795497Y-14236414D02*
X9785974Y-14217366D01*
X9785974Y-14217366D02*
X9785974Y-14141176D01*
X9785974Y-14141176D02*
X9795497Y-14122128D01*
X9795497Y-14122128D02*
X9814545Y-14112604D01*
X9814545Y-14112604D02*
X9852640Y-14112604D01*
X9852640Y-14112604D02*
X9871688Y-14122128D01*
X9871688Y-14122128D02*
X9881212Y-14141176D01*
X9881212Y-14141176D02*
X9881212Y-14160223D01*
X9881212Y-14160223D02*
X9785974Y-14179271D01*
X9957402Y-14236414D02*
X9976450Y-14245937D01*
X9976450Y-14245937D02*
X10014545Y-14245937D01*
X10014545Y-14245937D02*
X10033593Y-14236414D01*
X10033593Y-14236414D02*
X10043117Y-14217366D01*
X10043117Y-14217366D02*
X10043117Y-14207842D01*
X10043117Y-14207842D02*
X10033593Y-14188795D01*
X10033593Y-14188795D02*
X10014545Y-14179271D01*
X10014545Y-14179271D02*
X9985974Y-14179271D01*
X9985974Y-14179271D02*
X9966926Y-14169747D01*
X9966926Y-14169747D02*
X9957402Y-14150699D01*
X9957402Y-14150699D02*
X9957402Y-14141176D01*
X9957402Y-14141176D02*
X9966926Y-14122128D01*
X9966926Y-14122128D02*
X9985974Y-14112604D01*
X9985974Y-14112604D02*
X10014545Y-14112604D01*
X10014545Y-14112604D02*
X10033593Y-14122128D01*
X10109783Y-14322128D02*
X10119307Y-14312604D01*
X10119307Y-14312604D02*
X10138355Y-14284033D01*
X10138355Y-14284033D02*
X10147878Y-14264985D01*
X10147878Y-14264985D02*
X10157402Y-14236414D01*
X10157402Y-14236414D02*
X10166926Y-14188795D01*
X10166926Y-14188795D02*
X10166926Y-14150699D01*
X10166926Y-14150699D02*
X10157402Y-14103080D01*
X10157402Y-14103080D02*
X10147878Y-14074509D01*
X10147878Y-14074509D02*
X10138355Y-14055461D01*
X10138355Y-14055461D02*
X10119307Y-14026890D01*
X10119307Y-14026890D02*
X10109783Y-14017366D01*
D20*
X5258720Y-14348454D02*
X5258720Y-14500454D01*
X5182720Y-14424454D02*
X5334720Y-14424454D01*
X5334720Y-14424454D02*
G75*
G03*
X5334720Y-14424454I-76000J0D01*
G01*
D11*
X5700259Y-14515937D02*
X5585973Y-14515937D01*
X5643116Y-14515937D02*
X5643116Y-14315937D01*
X5643116Y-14315937D02*
X5624068Y-14344509D01*
X5624068Y-14344509D02*
X5605021Y-14363556D01*
X5605021Y-14363556D02*
X5585973Y-14373080D01*
X5785973Y-14496890D02*
X5795497Y-14506414D01*
X5795497Y-14506414D02*
X5785973Y-14515937D01*
X5785973Y-14515937D02*
X5776449Y-14506414D01*
X5776449Y-14506414D02*
X5785973Y-14496890D01*
X5785973Y-14496890D02*
X5785973Y-14515937D01*
X5976449Y-14315937D02*
X5881211Y-14315937D01*
X5881211Y-14315937D02*
X5871687Y-14411176D01*
X5871687Y-14411176D02*
X5881211Y-14401652D01*
X5881211Y-14401652D02*
X5900259Y-14392128D01*
X5900259Y-14392128D02*
X5947878Y-14392128D01*
X5947878Y-14392128D02*
X5966926Y-14401652D01*
X5966926Y-14401652D02*
X5976449Y-14411176D01*
X5976449Y-14411176D02*
X5985973Y-14430223D01*
X5985973Y-14430223D02*
X5985973Y-14477842D01*
X5985973Y-14477842D02*
X5976449Y-14496890D01*
X5976449Y-14496890D02*
X5966926Y-14506414D01*
X5966926Y-14506414D02*
X5947878Y-14515937D01*
X5947878Y-14515937D02*
X5900259Y-14515937D01*
X5900259Y-14515937D02*
X5881211Y-14506414D01*
X5881211Y-14506414D02*
X5871687Y-14496890D01*
X6062164Y-14334985D02*
X6071687Y-14325461D01*
X6071687Y-14325461D02*
X6090735Y-14315937D01*
X6090735Y-14315937D02*
X6138354Y-14315937D01*
X6138354Y-14315937D02*
X6157402Y-14325461D01*
X6157402Y-14325461D02*
X6166926Y-14334985D01*
X6166926Y-14334985D02*
X6176449Y-14354033D01*
X6176449Y-14354033D02*
X6176449Y-14373080D01*
X6176449Y-14373080D02*
X6166926Y-14401652D01*
X6166926Y-14401652D02*
X6052640Y-14515937D01*
X6052640Y-14515937D02*
X6176449Y-14515937D01*
X6300259Y-14315937D02*
X6319307Y-14315937D01*
X6319307Y-14315937D02*
X6338354Y-14325461D01*
X6338354Y-14325461D02*
X6347878Y-14334985D01*
X6347878Y-14334985D02*
X6357402Y-14354033D01*
X6357402Y-14354033D02*
X6366926Y-14392128D01*
X6366926Y-14392128D02*
X6366926Y-14439747D01*
X6366926Y-14439747D02*
X6357402Y-14477842D01*
X6357402Y-14477842D02*
X6347878Y-14496890D01*
X6347878Y-14496890D02*
X6338354Y-14506414D01*
X6338354Y-14506414D02*
X6319307Y-14515937D01*
X6319307Y-14515937D02*
X6300259Y-14515937D01*
X6300259Y-14515937D02*
X6281211Y-14506414D01*
X6281211Y-14506414D02*
X6271687Y-14496890D01*
X6271687Y-14496890D02*
X6262164Y-14477842D01*
X6262164Y-14477842D02*
X6252640Y-14439747D01*
X6252640Y-14439747D02*
X6252640Y-14392128D01*
X6252640Y-14392128D02*
X6262164Y-14354033D01*
X6262164Y-14354033D02*
X6271687Y-14334985D01*
X6271687Y-14334985D02*
X6281211Y-14325461D01*
X6281211Y-14325461D02*
X6300259Y-14315937D01*
X6452640Y-14515937D02*
X6452640Y-14382604D01*
X6452640Y-14401652D02*
X6462164Y-14392128D01*
X6462164Y-14392128D02*
X6481211Y-14382604D01*
X6481211Y-14382604D02*
X6509783Y-14382604D01*
X6509783Y-14382604D02*
X6528830Y-14392128D01*
X6528830Y-14392128D02*
X6538354Y-14411176D01*
X6538354Y-14411176D02*
X6538354Y-14515937D01*
X6538354Y-14411176D02*
X6547878Y-14392128D01*
X6547878Y-14392128D02*
X6566926Y-14382604D01*
X6566926Y-14382604D02*
X6595497Y-14382604D01*
X6595497Y-14382604D02*
X6614545Y-14392128D01*
X6614545Y-14392128D02*
X6624068Y-14411176D01*
X6624068Y-14411176D02*
X6624068Y-14515937D01*
X6719307Y-14515937D02*
X6719307Y-14382604D01*
X6719307Y-14401652D02*
X6728830Y-14392128D01*
X6728830Y-14392128D02*
X6747878Y-14382604D01*
X6747878Y-14382604D02*
X6776449Y-14382604D01*
X6776449Y-14382604D02*
X6795497Y-14392128D01*
X6795497Y-14392128D02*
X6805021Y-14411176D01*
X6805021Y-14411176D02*
X6805021Y-14515937D01*
X6805021Y-14411176D02*
X6814545Y-14392128D01*
X6814545Y-14392128D02*
X6833592Y-14382604D01*
X6833592Y-14382604D02*
X6862164Y-14382604D01*
X6862164Y-14382604D02*
X6881211Y-14392128D01*
X6881211Y-14392128D02*
X6890735Y-14411176D01*
X6890735Y-14411176D02*
X6890735Y-14515937D01*
X7281211Y-14306414D02*
X7109783Y-14563556D01*
X7538354Y-14315937D02*
X7557402Y-14315937D01*
X7557402Y-14315937D02*
X7576450Y-14325461D01*
X7576450Y-14325461D02*
X7585973Y-14334985D01*
X7585973Y-14334985D02*
X7595497Y-14354033D01*
X7595497Y-14354033D02*
X7605021Y-14392128D01*
X7605021Y-14392128D02*
X7605021Y-14439747D01*
X7605021Y-14439747D02*
X7595497Y-14477842D01*
X7595497Y-14477842D02*
X7585973Y-14496890D01*
X7585973Y-14496890D02*
X7576450Y-14506414D01*
X7576450Y-14506414D02*
X7557402Y-14515937D01*
X7557402Y-14515937D02*
X7538354Y-14515937D01*
X7538354Y-14515937D02*
X7519307Y-14506414D01*
X7519307Y-14506414D02*
X7509783Y-14496890D01*
X7509783Y-14496890D02*
X7500259Y-14477842D01*
X7500259Y-14477842D02*
X7490735Y-14439747D01*
X7490735Y-14439747D02*
X7490735Y-14392128D01*
X7490735Y-14392128D02*
X7500259Y-14354033D01*
X7500259Y-14354033D02*
X7509783Y-14334985D01*
X7509783Y-14334985D02*
X7519307Y-14325461D01*
X7519307Y-14325461D02*
X7538354Y-14315937D01*
X7690735Y-14496890D02*
X7700259Y-14506414D01*
X7700259Y-14506414D02*
X7690735Y-14515937D01*
X7690735Y-14515937D02*
X7681211Y-14506414D01*
X7681211Y-14506414D02*
X7690735Y-14496890D01*
X7690735Y-14496890D02*
X7690735Y-14515937D01*
X7824069Y-14315937D02*
X7843116Y-14315937D01*
X7843116Y-14315937D02*
X7862164Y-14325461D01*
X7862164Y-14325461D02*
X7871688Y-14334985D01*
X7871688Y-14334985D02*
X7881211Y-14354033D01*
X7881211Y-14354033D02*
X7890735Y-14392128D01*
X7890735Y-14392128D02*
X7890735Y-14439747D01*
X7890735Y-14439747D02*
X7881211Y-14477842D01*
X7881211Y-14477842D02*
X7871688Y-14496890D01*
X7871688Y-14496890D02*
X7862164Y-14506414D01*
X7862164Y-14506414D02*
X7843116Y-14515937D01*
X7843116Y-14515937D02*
X7824069Y-14515937D01*
X7824069Y-14515937D02*
X7805021Y-14506414D01*
X7805021Y-14506414D02*
X7795497Y-14496890D01*
X7795497Y-14496890D02*
X7785973Y-14477842D01*
X7785973Y-14477842D02*
X7776450Y-14439747D01*
X7776450Y-14439747D02*
X7776450Y-14392128D01*
X7776450Y-14392128D02*
X7785973Y-14354033D01*
X7785973Y-14354033D02*
X7795497Y-14334985D01*
X7795497Y-14334985D02*
X7805021Y-14325461D01*
X7805021Y-14325461D02*
X7824069Y-14315937D01*
X8071688Y-14315937D02*
X7976450Y-14315937D01*
X7976450Y-14315937D02*
X7966926Y-14411176D01*
X7966926Y-14411176D02*
X7976450Y-14401652D01*
X7976450Y-14401652D02*
X7995497Y-14392128D01*
X7995497Y-14392128D02*
X8043116Y-14392128D01*
X8043116Y-14392128D02*
X8062164Y-14401652D01*
X8062164Y-14401652D02*
X8071688Y-14411176D01*
X8071688Y-14411176D02*
X8081211Y-14430223D01*
X8081211Y-14430223D02*
X8081211Y-14477842D01*
X8081211Y-14477842D02*
X8071688Y-14496890D01*
X8071688Y-14496890D02*
X8062164Y-14506414D01*
X8062164Y-14506414D02*
X8043116Y-14515937D01*
X8043116Y-14515937D02*
X7995497Y-14515937D01*
X7995497Y-14515937D02*
X7976450Y-14506414D01*
X7976450Y-14506414D02*
X7966926Y-14496890D01*
X8176450Y-14515937D02*
X8214545Y-14515937D01*
X8214545Y-14515937D02*
X8233592Y-14506414D01*
X8233592Y-14506414D02*
X8243116Y-14496890D01*
X8243116Y-14496890D02*
X8262164Y-14468318D01*
X8262164Y-14468318D02*
X8271688Y-14430223D01*
X8271688Y-14430223D02*
X8271688Y-14354033D01*
X8271688Y-14354033D02*
X8262164Y-14334985D01*
X8262164Y-14334985D02*
X8252640Y-14325461D01*
X8252640Y-14325461D02*
X8233592Y-14315937D01*
X8233592Y-14315937D02*
X8195497Y-14315937D01*
X8195497Y-14315937D02*
X8176450Y-14325461D01*
X8176450Y-14325461D02*
X8166926Y-14334985D01*
X8166926Y-14334985D02*
X8157402Y-14354033D01*
X8157402Y-14354033D02*
X8157402Y-14401652D01*
X8157402Y-14401652D02*
X8166926Y-14420699D01*
X8166926Y-14420699D02*
X8176450Y-14430223D01*
X8176450Y-14430223D02*
X8195497Y-14439747D01*
X8195497Y-14439747D02*
X8233592Y-14439747D01*
X8233592Y-14439747D02*
X8252640Y-14430223D01*
X8252640Y-14430223D02*
X8262164Y-14420699D01*
X8262164Y-14420699D02*
X8271688Y-14401652D01*
X8385973Y-14401652D02*
X8366926Y-14392128D01*
X8366926Y-14392128D02*
X8357402Y-14382604D01*
X8357402Y-14382604D02*
X8347878Y-14363556D01*
X8347878Y-14363556D02*
X8347878Y-14354033D01*
X8347878Y-14354033D02*
X8357402Y-14334985D01*
X8357402Y-14334985D02*
X8366926Y-14325461D01*
X8366926Y-14325461D02*
X8385973Y-14315937D01*
X8385973Y-14315937D02*
X8424069Y-14315937D01*
X8424069Y-14315937D02*
X8443116Y-14325461D01*
X8443116Y-14325461D02*
X8452640Y-14334985D01*
X8452640Y-14334985D02*
X8462164Y-14354033D01*
X8462164Y-14354033D02*
X8462164Y-14363556D01*
X8462164Y-14363556D02*
X8452640Y-14382604D01*
X8452640Y-14382604D02*
X8443116Y-14392128D01*
X8443116Y-14392128D02*
X8424069Y-14401652D01*
X8424069Y-14401652D02*
X8385973Y-14401652D01*
X8385973Y-14401652D02*
X8366926Y-14411176D01*
X8366926Y-14411176D02*
X8357402Y-14420699D01*
X8357402Y-14420699D02*
X8347878Y-14439747D01*
X8347878Y-14439747D02*
X8347878Y-14477842D01*
X8347878Y-14477842D02*
X8357402Y-14496890D01*
X8357402Y-14496890D02*
X8366926Y-14506414D01*
X8366926Y-14506414D02*
X8385973Y-14515937D01*
X8385973Y-14515937D02*
X8424069Y-14515937D01*
X8424069Y-14515937D02*
X8443116Y-14506414D01*
X8443116Y-14506414D02*
X8452640Y-14496890D01*
X8452640Y-14496890D02*
X8462164Y-14477842D01*
X8462164Y-14477842D02*
X8462164Y-14439747D01*
X8462164Y-14439747D02*
X8452640Y-14420699D01*
X8452640Y-14420699D02*
X8443116Y-14411176D01*
X8443116Y-14411176D02*
X8424069Y-14401652D01*
X8538354Y-14315937D02*
X8538354Y-14354033D01*
X8614545Y-14315937D02*
X8614545Y-14354033D01*
X8909783Y-14592128D02*
X8900259Y-14582604D01*
X8900259Y-14582604D02*
X8881212Y-14554033D01*
X8881212Y-14554033D02*
X8871688Y-14534985D01*
X8871688Y-14534985D02*
X8862164Y-14506414D01*
X8862164Y-14506414D02*
X8852640Y-14458795D01*
X8852640Y-14458795D02*
X8852640Y-14420699D01*
X8852640Y-14420699D02*
X8862164Y-14373080D01*
X8862164Y-14373080D02*
X8871688Y-14344509D01*
X8871688Y-14344509D02*
X8881212Y-14325461D01*
X8881212Y-14325461D02*
X8900259Y-14296890D01*
X8900259Y-14296890D02*
X8909783Y-14287366D01*
X9090735Y-14515937D02*
X8976450Y-14515937D01*
X9033593Y-14515937D02*
X9033593Y-14315937D01*
X9033593Y-14315937D02*
X9014545Y-14344509D01*
X9014545Y-14344509D02*
X8995497Y-14363556D01*
X8995497Y-14363556D02*
X8976450Y-14373080D01*
X9205021Y-14401652D02*
X9185974Y-14392128D01*
X9185974Y-14392128D02*
X9176450Y-14382604D01*
X9176450Y-14382604D02*
X9166926Y-14363556D01*
X9166926Y-14363556D02*
X9166926Y-14354033D01*
X9166926Y-14354033D02*
X9176450Y-14334985D01*
X9176450Y-14334985D02*
X9185974Y-14325461D01*
X9185974Y-14325461D02*
X9205021Y-14315937D01*
X9205021Y-14315937D02*
X9243116Y-14315937D01*
X9243116Y-14315937D02*
X9262164Y-14325461D01*
X9262164Y-14325461D02*
X9271688Y-14334985D01*
X9271688Y-14334985D02*
X9281212Y-14354033D01*
X9281212Y-14354033D02*
X9281212Y-14363556D01*
X9281212Y-14363556D02*
X9271688Y-14382604D01*
X9271688Y-14382604D02*
X9262164Y-14392128D01*
X9262164Y-14392128D02*
X9243116Y-14401652D01*
X9243116Y-14401652D02*
X9205021Y-14401652D01*
X9205021Y-14401652D02*
X9185974Y-14411176D01*
X9185974Y-14411176D02*
X9176450Y-14420699D01*
X9176450Y-14420699D02*
X9166926Y-14439747D01*
X9166926Y-14439747D02*
X9166926Y-14477842D01*
X9166926Y-14477842D02*
X9176450Y-14496890D01*
X9176450Y-14496890D02*
X9185974Y-14506414D01*
X9185974Y-14506414D02*
X9205021Y-14515937D01*
X9205021Y-14515937D02*
X9243116Y-14515937D01*
X9243116Y-14515937D02*
X9262164Y-14506414D01*
X9262164Y-14506414D02*
X9271688Y-14496890D01*
X9271688Y-14496890D02*
X9281212Y-14477842D01*
X9281212Y-14477842D02*
X9281212Y-14439747D01*
X9281212Y-14439747D02*
X9271688Y-14420699D01*
X9271688Y-14420699D02*
X9262164Y-14411176D01*
X9262164Y-14411176D02*
X9243116Y-14401652D01*
X9519307Y-14515937D02*
X9519307Y-14315937D01*
X9605021Y-14515937D02*
X9605021Y-14411176D01*
X9605021Y-14411176D02*
X9595497Y-14392128D01*
X9595497Y-14392128D02*
X9576450Y-14382604D01*
X9576450Y-14382604D02*
X9547878Y-14382604D01*
X9547878Y-14382604D02*
X9528831Y-14392128D01*
X9528831Y-14392128D02*
X9519307Y-14401652D01*
X9728831Y-14515937D02*
X9709783Y-14506414D01*
X9709783Y-14506414D02*
X9700259Y-14496890D01*
X9700259Y-14496890D02*
X9690736Y-14477842D01*
X9690736Y-14477842D02*
X9690736Y-14420699D01*
X9690736Y-14420699D02*
X9700259Y-14401652D01*
X9700259Y-14401652D02*
X9709783Y-14392128D01*
X9709783Y-14392128D02*
X9728831Y-14382604D01*
X9728831Y-14382604D02*
X9757402Y-14382604D01*
X9757402Y-14382604D02*
X9776450Y-14392128D01*
X9776450Y-14392128D02*
X9785974Y-14401652D01*
X9785974Y-14401652D02*
X9795497Y-14420699D01*
X9795497Y-14420699D02*
X9795497Y-14477842D01*
X9795497Y-14477842D02*
X9785974Y-14496890D01*
X9785974Y-14496890D02*
X9776450Y-14506414D01*
X9776450Y-14506414D02*
X9757402Y-14515937D01*
X9757402Y-14515937D02*
X9728831Y-14515937D01*
X9909783Y-14515937D02*
X9890736Y-14506414D01*
X9890736Y-14506414D02*
X9881212Y-14487366D01*
X9881212Y-14487366D02*
X9881212Y-14315937D01*
X10062164Y-14506414D02*
X10043117Y-14515937D01*
X10043117Y-14515937D02*
X10005021Y-14515937D01*
X10005021Y-14515937D02*
X9985974Y-14506414D01*
X9985974Y-14506414D02*
X9976450Y-14487366D01*
X9976450Y-14487366D02*
X9976450Y-14411176D01*
X9976450Y-14411176D02*
X9985974Y-14392128D01*
X9985974Y-14392128D02*
X10005021Y-14382604D01*
X10005021Y-14382604D02*
X10043117Y-14382604D01*
X10043117Y-14382604D02*
X10062164Y-14392128D01*
X10062164Y-14392128D02*
X10071688Y-14411176D01*
X10071688Y-14411176D02*
X10071688Y-14430223D01*
X10071688Y-14430223D02*
X9976450Y-14449271D01*
X10147878Y-14506414D02*
X10166926Y-14515937D01*
X10166926Y-14515937D02*
X10205021Y-14515937D01*
X10205021Y-14515937D02*
X10224069Y-14506414D01*
X10224069Y-14506414D02*
X10233593Y-14487366D01*
X10233593Y-14487366D02*
X10233593Y-14477842D01*
X10233593Y-14477842D02*
X10224069Y-14458795D01*
X10224069Y-14458795D02*
X10205021Y-14449271D01*
X10205021Y-14449271D02*
X10176450Y-14449271D01*
X10176450Y-14449271D02*
X10157402Y-14439747D01*
X10157402Y-14439747D02*
X10147878Y-14420699D01*
X10147878Y-14420699D02*
X10147878Y-14411176D01*
X10147878Y-14411176D02*
X10157402Y-14392128D01*
X10157402Y-14392128D02*
X10176450Y-14382604D01*
X10176450Y-14382604D02*
X10205021Y-14382604D01*
X10205021Y-14382604D02*
X10224069Y-14392128D01*
X10300259Y-14592128D02*
X10309783Y-14582604D01*
X10309783Y-14582604D02*
X10328831Y-14554033D01*
X10328831Y-14554033D02*
X10338355Y-14534985D01*
X10338355Y-14534985D02*
X10347878Y-14506414D01*
X10347878Y-14506414D02*
X10357402Y-14458795D01*
X10357402Y-14458795D02*
X10357402Y-14420699D01*
X10357402Y-14420699D02*
X10347878Y-14373080D01*
X10347878Y-14373080D02*
X10338355Y-14344509D01*
X10338355Y-14344509D02*
X10328831Y-14325461D01*
X10328831Y-14325461D02*
X10309783Y-14296890D01*
X10309783Y-14296890D02*
X10300259Y-14287366D01*
D21*
X5311289Y-14753023D02*
X5311289Y-14639885D01*
X5198151Y-14639885D01*
X5198151Y-14753023D01*
X5311289Y-14753023D01*
X5334720Y-14696454D02*
G75*
G03*
X5334720Y-14696454I-80000J0D01*
G01*
D11*
X5700259Y-14787937D02*
X5585973Y-14787937D01*
X5643116Y-14787937D02*
X5643116Y-14587937D01*
X5643116Y-14587937D02*
X5624068Y-14616509D01*
X5624068Y-14616509D02*
X5605021Y-14635556D01*
X5605021Y-14635556D02*
X5585973Y-14645080D01*
X5785973Y-14768890D02*
X5795497Y-14778414D01*
X5795497Y-14778414D02*
X5785973Y-14787937D01*
X5785973Y-14787937D02*
X5776449Y-14778414D01*
X5776449Y-14778414D02*
X5785973Y-14768890D01*
X5785973Y-14768890D02*
X5785973Y-14787937D01*
X5966926Y-14587937D02*
X5928830Y-14587937D01*
X5928830Y-14587937D02*
X5909783Y-14597461D01*
X5909783Y-14597461D02*
X5900259Y-14606985D01*
X5900259Y-14606985D02*
X5881211Y-14635556D01*
X5881211Y-14635556D02*
X5871687Y-14673652D01*
X5871687Y-14673652D02*
X5871687Y-14749842D01*
X5871687Y-14749842D02*
X5881211Y-14768890D01*
X5881211Y-14768890D02*
X5890735Y-14778414D01*
X5890735Y-14778414D02*
X5909783Y-14787937D01*
X5909783Y-14787937D02*
X5947878Y-14787937D01*
X5947878Y-14787937D02*
X5966926Y-14778414D01*
X5966926Y-14778414D02*
X5976449Y-14768890D01*
X5976449Y-14768890D02*
X5985973Y-14749842D01*
X5985973Y-14749842D02*
X5985973Y-14702223D01*
X5985973Y-14702223D02*
X5976449Y-14683176D01*
X5976449Y-14683176D02*
X5966926Y-14673652D01*
X5966926Y-14673652D02*
X5947878Y-14664128D01*
X5947878Y-14664128D02*
X5909783Y-14664128D01*
X5909783Y-14664128D02*
X5890735Y-14673652D01*
X5890735Y-14673652D02*
X5881211Y-14683176D01*
X5881211Y-14683176D02*
X5871687Y-14702223D01*
X6109783Y-14587937D02*
X6128830Y-14587937D01*
X6128830Y-14587937D02*
X6147878Y-14597461D01*
X6147878Y-14597461D02*
X6157402Y-14606985D01*
X6157402Y-14606985D02*
X6166926Y-14626033D01*
X6166926Y-14626033D02*
X6176449Y-14664128D01*
X6176449Y-14664128D02*
X6176449Y-14711747D01*
X6176449Y-14711747D02*
X6166926Y-14749842D01*
X6166926Y-14749842D02*
X6157402Y-14768890D01*
X6157402Y-14768890D02*
X6147878Y-14778414D01*
X6147878Y-14778414D02*
X6128830Y-14787937D01*
X6128830Y-14787937D02*
X6109783Y-14787937D01*
X6109783Y-14787937D02*
X6090735Y-14778414D01*
X6090735Y-14778414D02*
X6081211Y-14768890D01*
X6081211Y-14768890D02*
X6071687Y-14749842D01*
X6071687Y-14749842D02*
X6062164Y-14711747D01*
X6062164Y-14711747D02*
X6062164Y-14664128D01*
X6062164Y-14664128D02*
X6071687Y-14626033D01*
X6071687Y-14626033D02*
X6081211Y-14606985D01*
X6081211Y-14606985D02*
X6090735Y-14597461D01*
X6090735Y-14597461D02*
X6109783Y-14587937D01*
X6300259Y-14587937D02*
X6319307Y-14587937D01*
X6319307Y-14587937D02*
X6338354Y-14597461D01*
X6338354Y-14597461D02*
X6347878Y-14606985D01*
X6347878Y-14606985D02*
X6357402Y-14626033D01*
X6357402Y-14626033D02*
X6366926Y-14664128D01*
X6366926Y-14664128D02*
X6366926Y-14711747D01*
X6366926Y-14711747D02*
X6357402Y-14749842D01*
X6357402Y-14749842D02*
X6347878Y-14768890D01*
X6347878Y-14768890D02*
X6338354Y-14778414D01*
X6338354Y-14778414D02*
X6319307Y-14787937D01*
X6319307Y-14787937D02*
X6300259Y-14787937D01*
X6300259Y-14787937D02*
X6281211Y-14778414D01*
X6281211Y-14778414D02*
X6271687Y-14768890D01*
X6271687Y-14768890D02*
X6262164Y-14749842D01*
X6262164Y-14749842D02*
X6252640Y-14711747D01*
X6252640Y-14711747D02*
X6252640Y-14664128D01*
X6252640Y-14664128D02*
X6262164Y-14626033D01*
X6262164Y-14626033D02*
X6271687Y-14606985D01*
X6271687Y-14606985D02*
X6281211Y-14597461D01*
X6281211Y-14597461D02*
X6300259Y-14587937D01*
X6452640Y-14787937D02*
X6452640Y-14654604D01*
X6452640Y-14673652D02*
X6462164Y-14664128D01*
X6462164Y-14664128D02*
X6481211Y-14654604D01*
X6481211Y-14654604D02*
X6509783Y-14654604D01*
X6509783Y-14654604D02*
X6528830Y-14664128D01*
X6528830Y-14664128D02*
X6538354Y-14683176D01*
X6538354Y-14683176D02*
X6538354Y-14787937D01*
X6538354Y-14683176D02*
X6547878Y-14664128D01*
X6547878Y-14664128D02*
X6566926Y-14654604D01*
X6566926Y-14654604D02*
X6595497Y-14654604D01*
X6595497Y-14654604D02*
X6614545Y-14664128D01*
X6614545Y-14664128D02*
X6624068Y-14683176D01*
X6624068Y-14683176D02*
X6624068Y-14787937D01*
X6719307Y-14787937D02*
X6719307Y-14654604D01*
X6719307Y-14673652D02*
X6728830Y-14664128D01*
X6728830Y-14664128D02*
X6747878Y-14654604D01*
X6747878Y-14654604D02*
X6776449Y-14654604D01*
X6776449Y-14654604D02*
X6795497Y-14664128D01*
X6795497Y-14664128D02*
X6805021Y-14683176D01*
X6805021Y-14683176D02*
X6805021Y-14787937D01*
X6805021Y-14683176D02*
X6814545Y-14664128D01*
X6814545Y-14664128D02*
X6833592Y-14654604D01*
X6833592Y-14654604D02*
X6862164Y-14654604D01*
X6862164Y-14654604D02*
X6881211Y-14664128D01*
X6881211Y-14664128D02*
X6890735Y-14683176D01*
X6890735Y-14683176D02*
X6890735Y-14787937D01*
X7281211Y-14578414D02*
X7109783Y-14835556D01*
X7538354Y-14587937D02*
X7557402Y-14587937D01*
X7557402Y-14587937D02*
X7576450Y-14597461D01*
X7576450Y-14597461D02*
X7585973Y-14606985D01*
X7585973Y-14606985D02*
X7595497Y-14626033D01*
X7595497Y-14626033D02*
X7605021Y-14664128D01*
X7605021Y-14664128D02*
X7605021Y-14711747D01*
X7605021Y-14711747D02*
X7595497Y-14749842D01*
X7595497Y-14749842D02*
X7585973Y-14768890D01*
X7585973Y-14768890D02*
X7576450Y-14778414D01*
X7576450Y-14778414D02*
X7557402Y-14787937D01*
X7557402Y-14787937D02*
X7538354Y-14787937D01*
X7538354Y-14787937D02*
X7519307Y-14778414D01*
X7519307Y-14778414D02*
X7509783Y-14768890D01*
X7509783Y-14768890D02*
X7500259Y-14749842D01*
X7500259Y-14749842D02*
X7490735Y-14711747D01*
X7490735Y-14711747D02*
X7490735Y-14664128D01*
X7490735Y-14664128D02*
X7500259Y-14626033D01*
X7500259Y-14626033D02*
X7509783Y-14606985D01*
X7509783Y-14606985D02*
X7519307Y-14597461D01*
X7519307Y-14597461D02*
X7538354Y-14587937D01*
X7690735Y-14768890D02*
X7700259Y-14778414D01*
X7700259Y-14778414D02*
X7690735Y-14787937D01*
X7690735Y-14787937D02*
X7681211Y-14778414D01*
X7681211Y-14778414D02*
X7690735Y-14768890D01*
X7690735Y-14768890D02*
X7690735Y-14787937D01*
X7824069Y-14587937D02*
X7843116Y-14587937D01*
X7843116Y-14587937D02*
X7862164Y-14597461D01*
X7862164Y-14597461D02*
X7871688Y-14606985D01*
X7871688Y-14606985D02*
X7881211Y-14626033D01*
X7881211Y-14626033D02*
X7890735Y-14664128D01*
X7890735Y-14664128D02*
X7890735Y-14711747D01*
X7890735Y-14711747D02*
X7881211Y-14749842D01*
X7881211Y-14749842D02*
X7871688Y-14768890D01*
X7871688Y-14768890D02*
X7862164Y-14778414D01*
X7862164Y-14778414D02*
X7843116Y-14787937D01*
X7843116Y-14787937D02*
X7824069Y-14787937D01*
X7824069Y-14787937D02*
X7805021Y-14778414D01*
X7805021Y-14778414D02*
X7795497Y-14768890D01*
X7795497Y-14768890D02*
X7785973Y-14749842D01*
X7785973Y-14749842D02*
X7776450Y-14711747D01*
X7776450Y-14711747D02*
X7776450Y-14664128D01*
X7776450Y-14664128D02*
X7785973Y-14626033D01*
X7785973Y-14626033D02*
X7795497Y-14606985D01*
X7795497Y-14606985D02*
X7805021Y-14597461D01*
X7805021Y-14597461D02*
X7824069Y-14587937D01*
X8062164Y-14587937D02*
X8024069Y-14587937D01*
X8024069Y-14587937D02*
X8005021Y-14597461D01*
X8005021Y-14597461D02*
X7995497Y-14606985D01*
X7995497Y-14606985D02*
X7976450Y-14635556D01*
X7976450Y-14635556D02*
X7966926Y-14673652D01*
X7966926Y-14673652D02*
X7966926Y-14749842D01*
X7966926Y-14749842D02*
X7976450Y-14768890D01*
X7976450Y-14768890D02*
X7985973Y-14778414D01*
X7985973Y-14778414D02*
X8005021Y-14787937D01*
X8005021Y-14787937D02*
X8043116Y-14787937D01*
X8043116Y-14787937D02*
X8062164Y-14778414D01*
X8062164Y-14778414D02*
X8071688Y-14768890D01*
X8071688Y-14768890D02*
X8081211Y-14749842D01*
X8081211Y-14749842D02*
X8081211Y-14702223D01*
X8081211Y-14702223D02*
X8071688Y-14683176D01*
X8071688Y-14683176D02*
X8062164Y-14673652D01*
X8062164Y-14673652D02*
X8043116Y-14664128D01*
X8043116Y-14664128D02*
X8005021Y-14664128D01*
X8005021Y-14664128D02*
X7985973Y-14673652D01*
X7985973Y-14673652D02*
X7976450Y-14683176D01*
X7976450Y-14683176D02*
X7966926Y-14702223D01*
X8147878Y-14587937D02*
X8271688Y-14587937D01*
X8271688Y-14587937D02*
X8205021Y-14664128D01*
X8205021Y-14664128D02*
X8233592Y-14664128D01*
X8233592Y-14664128D02*
X8252640Y-14673652D01*
X8252640Y-14673652D02*
X8262164Y-14683176D01*
X8262164Y-14683176D02*
X8271688Y-14702223D01*
X8271688Y-14702223D02*
X8271688Y-14749842D01*
X8271688Y-14749842D02*
X8262164Y-14768890D01*
X8262164Y-14768890D02*
X8252640Y-14778414D01*
X8252640Y-14778414D02*
X8233592Y-14787937D01*
X8233592Y-14787937D02*
X8176450Y-14787937D01*
X8176450Y-14787937D02*
X8157402Y-14778414D01*
X8157402Y-14778414D02*
X8147878Y-14768890D01*
X8395497Y-14587937D02*
X8414545Y-14587937D01*
X8414545Y-14587937D02*
X8433593Y-14597461D01*
X8433593Y-14597461D02*
X8443116Y-14606985D01*
X8443116Y-14606985D02*
X8452640Y-14626033D01*
X8452640Y-14626033D02*
X8462164Y-14664128D01*
X8462164Y-14664128D02*
X8462164Y-14711747D01*
X8462164Y-14711747D02*
X8452640Y-14749842D01*
X8452640Y-14749842D02*
X8443116Y-14768890D01*
X8443116Y-14768890D02*
X8433593Y-14778414D01*
X8433593Y-14778414D02*
X8414545Y-14787937D01*
X8414545Y-14787937D02*
X8395497Y-14787937D01*
X8395497Y-14787937D02*
X8376450Y-14778414D01*
X8376450Y-14778414D02*
X8366926Y-14768890D01*
X8366926Y-14768890D02*
X8357402Y-14749842D01*
X8357402Y-14749842D02*
X8347878Y-14711747D01*
X8347878Y-14711747D02*
X8347878Y-14664128D01*
X8347878Y-14664128D02*
X8357402Y-14626033D01*
X8357402Y-14626033D02*
X8366926Y-14606985D01*
X8366926Y-14606985D02*
X8376450Y-14597461D01*
X8376450Y-14597461D02*
X8395497Y-14587937D01*
X8538354Y-14587937D02*
X8538354Y-14626033D01*
X8614545Y-14587937D02*
X8614545Y-14626033D01*
X8909783Y-14864128D02*
X8900259Y-14854604D01*
X8900259Y-14854604D02*
X8881212Y-14826033D01*
X8881212Y-14826033D02*
X8871688Y-14806985D01*
X8871688Y-14806985D02*
X8862164Y-14778414D01*
X8862164Y-14778414D02*
X8852640Y-14730795D01*
X8852640Y-14730795D02*
X8852640Y-14692699D01*
X8852640Y-14692699D02*
X8862164Y-14645080D01*
X8862164Y-14645080D02*
X8871688Y-14616509D01*
X8871688Y-14616509D02*
X8881212Y-14597461D01*
X8881212Y-14597461D02*
X8900259Y-14568890D01*
X8900259Y-14568890D02*
X8909783Y-14559366D01*
X8966926Y-14587937D02*
X9090735Y-14587937D01*
X9090735Y-14587937D02*
X9024069Y-14664128D01*
X9024069Y-14664128D02*
X9052640Y-14664128D01*
X9052640Y-14664128D02*
X9071688Y-14673652D01*
X9071688Y-14673652D02*
X9081212Y-14683176D01*
X9081212Y-14683176D02*
X9090735Y-14702223D01*
X9090735Y-14702223D02*
X9090735Y-14749842D01*
X9090735Y-14749842D02*
X9081212Y-14768890D01*
X9081212Y-14768890D02*
X9071688Y-14778414D01*
X9071688Y-14778414D02*
X9052640Y-14787937D01*
X9052640Y-14787937D02*
X8995497Y-14787937D01*
X8995497Y-14787937D02*
X8976450Y-14778414D01*
X8976450Y-14778414D02*
X8966926Y-14768890D01*
X9328831Y-14787937D02*
X9328831Y-14587937D01*
X9414545Y-14787937D02*
X9414545Y-14683176D01*
X9414545Y-14683176D02*
X9405021Y-14664128D01*
X9405021Y-14664128D02*
X9385974Y-14654604D01*
X9385974Y-14654604D02*
X9357402Y-14654604D01*
X9357402Y-14654604D02*
X9338355Y-14664128D01*
X9338355Y-14664128D02*
X9328831Y-14673652D01*
X9538355Y-14787937D02*
X9519307Y-14778414D01*
X9519307Y-14778414D02*
X9509783Y-14768890D01*
X9509783Y-14768890D02*
X9500259Y-14749842D01*
X9500259Y-14749842D02*
X9500259Y-14692699D01*
X9500259Y-14692699D02*
X9509783Y-14673652D01*
X9509783Y-14673652D02*
X9519307Y-14664128D01*
X9519307Y-14664128D02*
X9538355Y-14654604D01*
X9538355Y-14654604D02*
X9566926Y-14654604D01*
X9566926Y-14654604D02*
X9585974Y-14664128D01*
X9585974Y-14664128D02*
X9595497Y-14673652D01*
X9595497Y-14673652D02*
X9605021Y-14692699D01*
X9605021Y-14692699D02*
X9605021Y-14749842D01*
X9605021Y-14749842D02*
X9595497Y-14768890D01*
X9595497Y-14768890D02*
X9585974Y-14778414D01*
X9585974Y-14778414D02*
X9566926Y-14787937D01*
X9566926Y-14787937D02*
X9538355Y-14787937D01*
X9719307Y-14787937D02*
X9700259Y-14778414D01*
X9700259Y-14778414D02*
X9690736Y-14759366D01*
X9690736Y-14759366D02*
X9690736Y-14587937D01*
X9871688Y-14778414D02*
X9852640Y-14787937D01*
X9852640Y-14787937D02*
X9814545Y-14787937D01*
X9814545Y-14787937D02*
X9795497Y-14778414D01*
X9795497Y-14778414D02*
X9785974Y-14759366D01*
X9785974Y-14759366D02*
X9785974Y-14683176D01*
X9785974Y-14683176D02*
X9795497Y-14664128D01*
X9795497Y-14664128D02*
X9814545Y-14654604D01*
X9814545Y-14654604D02*
X9852640Y-14654604D01*
X9852640Y-14654604D02*
X9871688Y-14664128D01*
X9871688Y-14664128D02*
X9881212Y-14683176D01*
X9881212Y-14683176D02*
X9881212Y-14702223D01*
X9881212Y-14702223D02*
X9785974Y-14721271D01*
X9957402Y-14778414D02*
X9976450Y-14787937D01*
X9976450Y-14787937D02*
X10014545Y-14787937D01*
X10014545Y-14787937D02*
X10033593Y-14778414D01*
X10033593Y-14778414D02*
X10043117Y-14759366D01*
X10043117Y-14759366D02*
X10043117Y-14749842D01*
X10043117Y-14749842D02*
X10033593Y-14730795D01*
X10033593Y-14730795D02*
X10014545Y-14721271D01*
X10014545Y-14721271D02*
X9985974Y-14721271D01*
X9985974Y-14721271D02*
X9966926Y-14711747D01*
X9966926Y-14711747D02*
X9957402Y-14692699D01*
X9957402Y-14692699D02*
X9957402Y-14683176D01*
X9957402Y-14683176D02*
X9966926Y-14664128D01*
X9966926Y-14664128D02*
X9985974Y-14654604D01*
X9985974Y-14654604D02*
X10014545Y-14654604D01*
X10014545Y-14654604D02*
X10033593Y-14664128D01*
X10109783Y-14864128D02*
X10119307Y-14854604D01*
X10119307Y-14854604D02*
X10138355Y-14826033D01*
X10138355Y-14826033D02*
X10147878Y-14806985D01*
X10147878Y-14806985D02*
X10157402Y-14778414D01*
X10157402Y-14778414D02*
X10166926Y-14730795D01*
X10166926Y-14730795D02*
X10166926Y-14692699D01*
X10166926Y-14692699D02*
X10157402Y-14645080D01*
X10157402Y-14645080D02*
X10147878Y-14616509D01*
X10147878Y-14616509D02*
X10138355Y-14597461D01*
X10138355Y-14597461D02*
X10119307Y-14568890D01*
X10119307Y-14568890D02*
X10109783Y-14559366D01*
M02*
