%TF.GenerationSoftware,KiCad,Pcbnew,7.0.7*%
%TF.CreationDate,2024-02-15T10:33:02+01:00*%
%TF.ProjectId,Projektarbete_P3,50726f6a-656b-4746-9172-626574655f50,rev?*%
%TF.SameCoordinates,Original*%
%TF.FileFunction,Legend,Top*%
%TF.FilePolarity,Positive*%
%FSLAX46Y46*%
G04 Gerber Fmt 4.6, Leading zero omitted, Abs format (unit mm)*
G04 Created by KiCad (PCBNEW 7.0.7) date 2024-02-15 10:33:02*
%MOMM*%
%LPD*%
G01*
G04 APERTURE LIST*
%ADD10C,0.150000*%
%ADD11C,0.120000*%
G04 APERTURE END LIST*
D10*
X199767866Y-109640019D02*
X199767866Y-110354304D01*
X199767866Y-110354304D02*
X199720247Y-110497161D01*
X199720247Y-110497161D02*
X199625009Y-110592400D01*
X199625009Y-110592400D02*
X199482152Y-110640019D01*
X199482152Y-110640019D02*
X199386914Y-110640019D01*
X200196438Y-109735257D02*
X200244057Y-109687638D01*
X200244057Y-109687638D02*
X200339295Y-109640019D01*
X200339295Y-109640019D02*
X200577390Y-109640019D01*
X200577390Y-109640019D02*
X200672628Y-109687638D01*
X200672628Y-109687638D02*
X200720247Y-109735257D01*
X200720247Y-109735257D02*
X200767866Y-109830495D01*
X200767866Y-109830495D02*
X200767866Y-109925733D01*
X200767866Y-109925733D02*
X200720247Y-110068590D01*
X200720247Y-110068590D02*
X200148819Y-110640019D01*
X200148819Y-110640019D02*
X200767866Y-110640019D01*
X171859161Y-59427257D02*
X171763923Y-59379638D01*
X171763923Y-59379638D02*
X171668685Y-59284400D01*
X171668685Y-59284400D02*
X171525828Y-59141542D01*
X171525828Y-59141542D02*
X171430590Y-59093923D01*
X171430590Y-59093923D02*
X171335352Y-59093923D01*
X171382971Y-59332019D02*
X171287733Y-59284400D01*
X171287733Y-59284400D02*
X171192495Y-59189161D01*
X171192495Y-59189161D02*
X171144876Y-58998685D01*
X171144876Y-58998685D02*
X171144876Y-58665352D01*
X171144876Y-58665352D02*
X171192495Y-58474876D01*
X171192495Y-58474876D02*
X171287733Y-58379638D01*
X171287733Y-58379638D02*
X171382971Y-58332019D01*
X171382971Y-58332019D02*
X171573447Y-58332019D01*
X171573447Y-58332019D02*
X171668685Y-58379638D01*
X171668685Y-58379638D02*
X171763923Y-58474876D01*
X171763923Y-58474876D02*
X171811542Y-58665352D01*
X171811542Y-58665352D02*
X171811542Y-58998685D01*
X171811542Y-58998685D02*
X171763923Y-59189161D01*
X171763923Y-59189161D02*
X171668685Y-59284400D01*
X171668685Y-59284400D02*
X171573447Y-59332019D01*
X171573447Y-59332019D02*
X171382971Y-59332019D01*
X172668685Y-58665352D02*
X172668685Y-59332019D01*
X172430590Y-58284400D02*
X172192495Y-58998685D01*
X172192495Y-58998685D02*
X172811542Y-58998685D01*
X191690361Y-106533257D02*
X191595123Y-106485638D01*
X191595123Y-106485638D02*
X191499885Y-106390400D01*
X191499885Y-106390400D02*
X191357028Y-106247542D01*
X191357028Y-106247542D02*
X191261790Y-106199923D01*
X191261790Y-106199923D02*
X191166552Y-106199923D01*
X191214171Y-106438019D02*
X191118933Y-106390400D01*
X191118933Y-106390400D02*
X191023695Y-106295161D01*
X191023695Y-106295161D02*
X190976076Y-106104685D01*
X190976076Y-106104685D02*
X190976076Y-105771352D01*
X190976076Y-105771352D02*
X191023695Y-105580876D01*
X191023695Y-105580876D02*
X191118933Y-105485638D01*
X191118933Y-105485638D02*
X191214171Y-105438019D01*
X191214171Y-105438019D02*
X191404647Y-105438019D01*
X191404647Y-105438019D02*
X191499885Y-105485638D01*
X191499885Y-105485638D02*
X191595123Y-105580876D01*
X191595123Y-105580876D02*
X191642742Y-105771352D01*
X191642742Y-105771352D02*
X191642742Y-106104685D01*
X191642742Y-106104685D02*
X191595123Y-106295161D01*
X191595123Y-106295161D02*
X191499885Y-106390400D01*
X191499885Y-106390400D02*
X191404647Y-106438019D01*
X191404647Y-106438019D02*
X191214171Y-106438019D01*
X192023695Y-105533257D02*
X192071314Y-105485638D01*
X192071314Y-105485638D02*
X192166552Y-105438019D01*
X192166552Y-105438019D02*
X192404647Y-105438019D01*
X192404647Y-105438019D02*
X192499885Y-105485638D01*
X192499885Y-105485638D02*
X192547504Y-105533257D01*
X192547504Y-105533257D02*
X192595123Y-105628495D01*
X192595123Y-105628495D02*
X192595123Y-105723733D01*
X192595123Y-105723733D02*
X192547504Y-105866590D01*
X192547504Y-105866590D02*
X191976076Y-106438019D01*
X191976076Y-106438019D02*
X192595123Y-106438019D01*
X115669219Y-98109066D02*
X115193028Y-98442399D01*
X115669219Y-98680494D02*
X114669219Y-98680494D01*
X114669219Y-98680494D02*
X114669219Y-98299542D01*
X114669219Y-98299542D02*
X114716838Y-98204304D01*
X114716838Y-98204304D02*
X114764457Y-98156685D01*
X114764457Y-98156685D02*
X114859695Y-98109066D01*
X114859695Y-98109066D02*
X115002552Y-98109066D01*
X115002552Y-98109066D02*
X115097790Y-98156685D01*
X115097790Y-98156685D02*
X115145409Y-98204304D01*
X115145409Y-98204304D02*
X115193028Y-98299542D01*
X115193028Y-98299542D02*
X115193028Y-98680494D01*
X115669219Y-97632875D02*
X115669219Y-97442399D01*
X115669219Y-97442399D02*
X115621600Y-97347161D01*
X115621600Y-97347161D02*
X115573980Y-97299542D01*
X115573980Y-97299542D02*
X115431123Y-97204304D01*
X115431123Y-97204304D02*
X115240647Y-97156685D01*
X115240647Y-97156685D02*
X114859695Y-97156685D01*
X114859695Y-97156685D02*
X114764457Y-97204304D01*
X114764457Y-97204304D02*
X114716838Y-97251923D01*
X114716838Y-97251923D02*
X114669219Y-97347161D01*
X114669219Y-97347161D02*
X114669219Y-97537637D01*
X114669219Y-97537637D02*
X114716838Y-97632875D01*
X114716838Y-97632875D02*
X114764457Y-97680494D01*
X114764457Y-97680494D02*
X114859695Y-97728113D01*
X114859695Y-97728113D02*
X115097790Y-97728113D01*
X115097790Y-97728113D02*
X115193028Y-97680494D01*
X115193028Y-97680494D02*
X115240647Y-97632875D01*
X115240647Y-97632875D02*
X115288266Y-97537637D01*
X115288266Y-97537637D02*
X115288266Y-97347161D01*
X115288266Y-97347161D02*
X115240647Y-97251923D01*
X115240647Y-97251923D02*
X115193028Y-97204304D01*
X115193028Y-97204304D02*
X115097790Y-97156685D01*
X85513942Y-59890819D02*
X85180609Y-59414628D01*
X84942514Y-59890819D02*
X84942514Y-58890819D01*
X84942514Y-58890819D02*
X85323466Y-58890819D01*
X85323466Y-58890819D02*
X85418704Y-58938438D01*
X85418704Y-58938438D02*
X85466323Y-58986057D01*
X85466323Y-58986057D02*
X85513942Y-59081295D01*
X85513942Y-59081295D02*
X85513942Y-59224152D01*
X85513942Y-59224152D02*
X85466323Y-59319390D01*
X85466323Y-59319390D02*
X85418704Y-59367009D01*
X85418704Y-59367009D02*
X85323466Y-59414628D01*
X85323466Y-59414628D02*
X84942514Y-59414628D01*
X86466323Y-59890819D02*
X85894895Y-59890819D01*
X86180609Y-59890819D02*
X86180609Y-58890819D01*
X86180609Y-58890819D02*
X86085371Y-59033676D01*
X86085371Y-59033676D02*
X85990133Y-59128914D01*
X85990133Y-59128914D02*
X85894895Y-59176533D01*
X87085371Y-58890819D02*
X87180609Y-58890819D01*
X87180609Y-58890819D02*
X87275847Y-58938438D01*
X87275847Y-58938438D02*
X87323466Y-58986057D01*
X87323466Y-58986057D02*
X87371085Y-59081295D01*
X87371085Y-59081295D02*
X87418704Y-59271771D01*
X87418704Y-59271771D02*
X87418704Y-59509866D01*
X87418704Y-59509866D02*
X87371085Y-59700342D01*
X87371085Y-59700342D02*
X87323466Y-59795580D01*
X87323466Y-59795580D02*
X87275847Y-59843200D01*
X87275847Y-59843200D02*
X87180609Y-59890819D01*
X87180609Y-59890819D02*
X87085371Y-59890819D01*
X87085371Y-59890819D02*
X86990133Y-59843200D01*
X86990133Y-59843200D02*
X86942514Y-59795580D01*
X86942514Y-59795580D02*
X86894895Y-59700342D01*
X86894895Y-59700342D02*
X86847276Y-59509866D01*
X86847276Y-59509866D02*
X86847276Y-59271771D01*
X86847276Y-59271771D02*
X86894895Y-59081295D01*
X86894895Y-59081295D02*
X86942514Y-58986057D01*
X86942514Y-58986057D02*
X86990133Y-58938438D01*
X86990133Y-58938438D02*
X87085371Y-58890819D01*
X57086667Y-112675200D02*
X57229524Y-112722819D01*
X57229524Y-112722819D02*
X57467619Y-112722819D01*
X57467619Y-112722819D02*
X57562857Y-112675200D01*
X57562857Y-112675200D02*
X57610476Y-112627580D01*
X57610476Y-112627580D02*
X57658095Y-112532342D01*
X57658095Y-112532342D02*
X57658095Y-112437104D01*
X57658095Y-112437104D02*
X57610476Y-112341866D01*
X57610476Y-112341866D02*
X57562857Y-112294247D01*
X57562857Y-112294247D02*
X57467619Y-112246628D01*
X57467619Y-112246628D02*
X57277143Y-112199009D01*
X57277143Y-112199009D02*
X57181905Y-112151390D01*
X57181905Y-112151390D02*
X57134286Y-112103771D01*
X57134286Y-112103771D02*
X57086667Y-112008533D01*
X57086667Y-112008533D02*
X57086667Y-111913295D01*
X57086667Y-111913295D02*
X57134286Y-111818057D01*
X57134286Y-111818057D02*
X57181905Y-111770438D01*
X57181905Y-111770438D02*
X57277143Y-111722819D01*
X57277143Y-111722819D02*
X57515238Y-111722819D01*
X57515238Y-111722819D02*
X57658095Y-111770438D01*
X57991429Y-111722819D02*
X58229524Y-112722819D01*
X58229524Y-112722819D02*
X58420000Y-112008533D01*
X58420000Y-112008533D02*
X58610476Y-112722819D01*
X58610476Y-112722819D02*
X58848572Y-111722819D01*
X59753333Y-112722819D02*
X59181905Y-112722819D01*
X59467619Y-112722819D02*
X59467619Y-111722819D01*
X59467619Y-111722819D02*
X59372381Y-111865676D01*
X59372381Y-111865676D02*
X59277143Y-111960914D01*
X59277143Y-111960914D02*
X59181905Y-112008533D01*
X199615466Y-58890819D02*
X199615466Y-59605104D01*
X199615466Y-59605104D02*
X199567847Y-59747961D01*
X199567847Y-59747961D02*
X199472609Y-59843200D01*
X199472609Y-59843200D02*
X199329752Y-59890819D01*
X199329752Y-59890819D02*
X199234514Y-59890819D01*
X200615466Y-59890819D02*
X200044038Y-59890819D01*
X200329752Y-59890819D02*
X200329752Y-58890819D01*
X200329752Y-58890819D02*
X200234514Y-59033676D01*
X200234514Y-59033676D02*
X200139276Y-59128914D01*
X200139276Y-59128914D02*
X200044038Y-59176533D01*
X85463142Y-56588819D02*
X85129809Y-56112628D01*
X84891714Y-56588819D02*
X84891714Y-55588819D01*
X84891714Y-55588819D02*
X85272666Y-55588819D01*
X85272666Y-55588819D02*
X85367904Y-55636438D01*
X85367904Y-55636438D02*
X85415523Y-55684057D01*
X85415523Y-55684057D02*
X85463142Y-55779295D01*
X85463142Y-55779295D02*
X85463142Y-55922152D01*
X85463142Y-55922152D02*
X85415523Y-56017390D01*
X85415523Y-56017390D02*
X85367904Y-56065009D01*
X85367904Y-56065009D02*
X85272666Y-56112628D01*
X85272666Y-56112628D02*
X84891714Y-56112628D01*
X86415523Y-56588819D02*
X85844095Y-56588819D01*
X86129809Y-56588819D02*
X86129809Y-55588819D01*
X86129809Y-55588819D02*
X86034571Y-55731676D01*
X86034571Y-55731676D02*
X85939333Y-55826914D01*
X85939333Y-55826914D02*
X85844095Y-55874533D01*
X86796476Y-55684057D02*
X86844095Y-55636438D01*
X86844095Y-55636438D02*
X86939333Y-55588819D01*
X86939333Y-55588819D02*
X87177428Y-55588819D01*
X87177428Y-55588819D02*
X87272666Y-55636438D01*
X87272666Y-55636438D02*
X87320285Y-55684057D01*
X87320285Y-55684057D02*
X87367904Y-55779295D01*
X87367904Y-55779295D02*
X87367904Y-55874533D01*
X87367904Y-55874533D02*
X87320285Y-56017390D01*
X87320285Y-56017390D02*
X86748857Y-56588819D01*
X86748857Y-56588819D02*
X87367904Y-56588819D01*
X85513942Y-62938819D02*
X85180609Y-62462628D01*
X84942514Y-62938819D02*
X84942514Y-61938819D01*
X84942514Y-61938819D02*
X85323466Y-61938819D01*
X85323466Y-61938819D02*
X85418704Y-61986438D01*
X85418704Y-61986438D02*
X85466323Y-62034057D01*
X85466323Y-62034057D02*
X85513942Y-62129295D01*
X85513942Y-62129295D02*
X85513942Y-62272152D01*
X85513942Y-62272152D02*
X85466323Y-62367390D01*
X85466323Y-62367390D02*
X85418704Y-62415009D01*
X85418704Y-62415009D02*
X85323466Y-62462628D01*
X85323466Y-62462628D02*
X84942514Y-62462628D01*
X86466323Y-62938819D02*
X85894895Y-62938819D01*
X86180609Y-62938819D02*
X86180609Y-61938819D01*
X86180609Y-61938819D02*
X86085371Y-62081676D01*
X86085371Y-62081676D02*
X85990133Y-62176914D01*
X85990133Y-62176914D02*
X85894895Y-62224533D01*
X87418704Y-62938819D02*
X86847276Y-62938819D01*
X87132990Y-62938819D02*
X87132990Y-61938819D01*
X87132990Y-61938819D02*
X87037752Y-62081676D01*
X87037752Y-62081676D02*
X86942514Y-62176914D01*
X86942514Y-62176914D02*
X86847276Y-62224533D01*
X59540876Y-58738419D02*
X59540876Y-59452704D01*
X59540876Y-59452704D02*
X59493257Y-59595561D01*
X59493257Y-59595561D02*
X59398019Y-59690800D01*
X59398019Y-59690800D02*
X59255162Y-59738419D01*
X59255162Y-59738419D02*
X59159924Y-59738419D01*
X60540876Y-59738419D02*
X59969448Y-59738419D01*
X60255162Y-59738419D02*
X60255162Y-58738419D01*
X60255162Y-58738419D02*
X60159924Y-58881276D01*
X60159924Y-58881276D02*
X60064686Y-58976514D01*
X60064686Y-58976514D02*
X59969448Y-59024133D01*
X60921829Y-58833657D02*
X60969448Y-58786038D01*
X60969448Y-58786038D02*
X61064686Y-58738419D01*
X61064686Y-58738419D02*
X61302781Y-58738419D01*
X61302781Y-58738419D02*
X61398019Y-58786038D01*
X61398019Y-58786038D02*
X61445638Y-58833657D01*
X61445638Y-58833657D02*
X61493257Y-58928895D01*
X61493257Y-58928895D02*
X61493257Y-59024133D01*
X61493257Y-59024133D02*
X61445638Y-59166990D01*
X61445638Y-59166990D02*
X60874210Y-59738419D01*
X60874210Y-59738419D02*
X61493257Y-59738419D01*
X151151961Y-106177657D02*
X151056723Y-106130038D01*
X151056723Y-106130038D02*
X150961485Y-106034800D01*
X150961485Y-106034800D02*
X150818628Y-105891942D01*
X150818628Y-105891942D02*
X150723390Y-105844323D01*
X150723390Y-105844323D02*
X150628152Y-105844323D01*
X150675771Y-106082419D02*
X150580533Y-106034800D01*
X150580533Y-106034800D02*
X150485295Y-105939561D01*
X150485295Y-105939561D02*
X150437676Y-105749085D01*
X150437676Y-105749085D02*
X150437676Y-105415752D01*
X150437676Y-105415752D02*
X150485295Y-105225276D01*
X150485295Y-105225276D02*
X150580533Y-105130038D01*
X150580533Y-105130038D02*
X150675771Y-105082419D01*
X150675771Y-105082419D02*
X150866247Y-105082419D01*
X150866247Y-105082419D02*
X150961485Y-105130038D01*
X150961485Y-105130038D02*
X151056723Y-105225276D01*
X151056723Y-105225276D02*
X151104342Y-105415752D01*
X151104342Y-105415752D02*
X151104342Y-105749085D01*
X151104342Y-105749085D02*
X151056723Y-105939561D01*
X151056723Y-105939561D02*
X150961485Y-106034800D01*
X150961485Y-106034800D02*
X150866247Y-106082419D01*
X150866247Y-106082419D02*
X150675771Y-106082419D01*
X152009104Y-105082419D02*
X151532914Y-105082419D01*
X151532914Y-105082419D02*
X151485295Y-105558609D01*
X151485295Y-105558609D02*
X151532914Y-105510990D01*
X151532914Y-105510990D02*
X151628152Y-105463371D01*
X151628152Y-105463371D02*
X151866247Y-105463371D01*
X151866247Y-105463371D02*
X151961485Y-105510990D01*
X151961485Y-105510990D02*
X152009104Y-105558609D01*
X152009104Y-105558609D02*
X152056723Y-105653847D01*
X152056723Y-105653847D02*
X152056723Y-105891942D01*
X152056723Y-105891942D02*
X152009104Y-105987180D01*
X152009104Y-105987180D02*
X151961485Y-106034800D01*
X151961485Y-106034800D02*
X151866247Y-106082419D01*
X151866247Y-106082419D02*
X151628152Y-106082419D01*
X151628152Y-106082419D02*
X151532914Y-106034800D01*
X151532914Y-106034800D02*
X151485295Y-105987180D01*
X93402209Y-94974628D02*
X93402209Y-95450819D01*
X93068876Y-94450819D02*
X93402209Y-94974628D01*
X93402209Y-94974628D02*
X93735542Y-94450819D01*
X94592685Y-95450819D02*
X94021257Y-95450819D01*
X94306971Y-95450819D02*
X94306971Y-94450819D01*
X94306971Y-94450819D02*
X94211733Y-94593676D01*
X94211733Y-94593676D02*
X94116495Y-94688914D01*
X94116495Y-94688914D02*
X94021257Y-94736533D01*
X172011561Y-106794457D02*
X171916323Y-106746838D01*
X171916323Y-106746838D02*
X171821085Y-106651600D01*
X171821085Y-106651600D02*
X171678228Y-106508742D01*
X171678228Y-106508742D02*
X171582990Y-106461123D01*
X171582990Y-106461123D02*
X171487752Y-106461123D01*
X171535371Y-106699219D02*
X171440133Y-106651600D01*
X171440133Y-106651600D02*
X171344895Y-106556361D01*
X171344895Y-106556361D02*
X171297276Y-106365885D01*
X171297276Y-106365885D02*
X171297276Y-106032552D01*
X171297276Y-106032552D02*
X171344895Y-105842076D01*
X171344895Y-105842076D02*
X171440133Y-105746838D01*
X171440133Y-105746838D02*
X171535371Y-105699219D01*
X171535371Y-105699219D02*
X171725847Y-105699219D01*
X171725847Y-105699219D02*
X171821085Y-105746838D01*
X171821085Y-105746838D02*
X171916323Y-105842076D01*
X171916323Y-105842076D02*
X171963942Y-106032552D01*
X171963942Y-106032552D02*
X171963942Y-106365885D01*
X171963942Y-106365885D02*
X171916323Y-106556361D01*
X171916323Y-106556361D02*
X171821085Y-106651600D01*
X171821085Y-106651600D02*
X171725847Y-106699219D01*
X171725847Y-106699219D02*
X171535371Y-106699219D01*
X172297276Y-105699219D02*
X172916323Y-105699219D01*
X172916323Y-105699219D02*
X172582990Y-106080171D01*
X172582990Y-106080171D02*
X172725847Y-106080171D01*
X172725847Y-106080171D02*
X172821085Y-106127790D01*
X172821085Y-106127790D02*
X172868704Y-106175409D01*
X172868704Y-106175409D02*
X172916323Y-106270647D01*
X172916323Y-106270647D02*
X172916323Y-106508742D01*
X172916323Y-106508742D02*
X172868704Y-106603980D01*
X172868704Y-106603980D02*
X172821085Y-106651600D01*
X172821085Y-106651600D02*
X172725847Y-106699219D01*
X172725847Y-106699219D02*
X172440133Y-106699219D01*
X172440133Y-106699219D02*
X172344895Y-106651600D01*
X172344895Y-106651600D02*
X172297276Y-106603980D01*
X178889066Y-109741619D02*
X178889066Y-110455904D01*
X178889066Y-110455904D02*
X178841447Y-110598761D01*
X178841447Y-110598761D02*
X178746209Y-110694000D01*
X178746209Y-110694000D02*
X178603352Y-110741619D01*
X178603352Y-110741619D02*
X178508114Y-110741619D01*
X179270019Y-109741619D02*
X179889066Y-109741619D01*
X179889066Y-109741619D02*
X179555733Y-110122571D01*
X179555733Y-110122571D02*
X179698590Y-110122571D01*
X179698590Y-110122571D02*
X179793828Y-110170190D01*
X179793828Y-110170190D02*
X179841447Y-110217809D01*
X179841447Y-110217809D02*
X179889066Y-110313047D01*
X179889066Y-110313047D02*
X179889066Y-110551142D01*
X179889066Y-110551142D02*
X179841447Y-110646380D01*
X179841447Y-110646380D02*
X179793828Y-110694000D01*
X179793828Y-110694000D02*
X179698590Y-110741619D01*
X179698590Y-110741619D02*
X179412876Y-110741619D01*
X179412876Y-110741619D02*
X179317638Y-110694000D01*
X179317638Y-110694000D02*
X179270019Y-110646380D01*
X115174933Y-71574819D02*
X114841600Y-71098628D01*
X114603505Y-71574819D02*
X114603505Y-70574819D01*
X114603505Y-70574819D02*
X114984457Y-70574819D01*
X114984457Y-70574819D02*
X115079695Y-70622438D01*
X115079695Y-70622438D02*
X115127314Y-70670057D01*
X115127314Y-70670057D02*
X115174933Y-70765295D01*
X115174933Y-70765295D02*
X115174933Y-70908152D01*
X115174933Y-70908152D02*
X115127314Y-71003390D01*
X115127314Y-71003390D02*
X115079695Y-71051009D01*
X115079695Y-71051009D02*
X114984457Y-71098628D01*
X114984457Y-71098628D02*
X114603505Y-71098628D01*
X116032076Y-70574819D02*
X115841600Y-70574819D01*
X115841600Y-70574819D02*
X115746362Y-70622438D01*
X115746362Y-70622438D02*
X115698743Y-70670057D01*
X115698743Y-70670057D02*
X115603505Y-70812914D01*
X115603505Y-70812914D02*
X115555886Y-71003390D01*
X115555886Y-71003390D02*
X115555886Y-71384342D01*
X115555886Y-71384342D02*
X115603505Y-71479580D01*
X115603505Y-71479580D02*
X115651124Y-71527200D01*
X115651124Y-71527200D02*
X115746362Y-71574819D01*
X115746362Y-71574819D02*
X115936838Y-71574819D01*
X115936838Y-71574819D02*
X116032076Y-71527200D01*
X116032076Y-71527200D02*
X116079695Y-71479580D01*
X116079695Y-71479580D02*
X116127314Y-71384342D01*
X116127314Y-71384342D02*
X116127314Y-71146247D01*
X116127314Y-71146247D02*
X116079695Y-71051009D01*
X116079695Y-71051009D02*
X116032076Y-71003390D01*
X116032076Y-71003390D02*
X115936838Y-70955771D01*
X115936838Y-70955771D02*
X115746362Y-70955771D01*
X115746362Y-70955771D02*
X115651124Y-71003390D01*
X115651124Y-71003390D02*
X115603505Y-71051009D01*
X115603505Y-71051009D02*
X115555886Y-71146247D01*
X167688419Y-106249694D02*
X166688419Y-106249694D01*
X166688419Y-106249694D02*
X166688419Y-106011599D01*
X166688419Y-106011599D02*
X166736038Y-105868742D01*
X166736038Y-105868742D02*
X166831276Y-105773504D01*
X166831276Y-105773504D02*
X166926514Y-105725885D01*
X166926514Y-105725885D02*
X167116990Y-105678266D01*
X167116990Y-105678266D02*
X167259847Y-105678266D01*
X167259847Y-105678266D02*
X167450323Y-105725885D01*
X167450323Y-105725885D02*
X167545561Y-105773504D01*
X167545561Y-105773504D02*
X167640800Y-105868742D01*
X167640800Y-105868742D02*
X167688419Y-106011599D01*
X167688419Y-106011599D02*
X167688419Y-106249694D01*
X166688419Y-105344932D02*
X166688419Y-104725885D01*
X166688419Y-104725885D02*
X167069371Y-105059218D01*
X167069371Y-105059218D02*
X167069371Y-104916361D01*
X167069371Y-104916361D02*
X167116990Y-104821123D01*
X167116990Y-104821123D02*
X167164609Y-104773504D01*
X167164609Y-104773504D02*
X167259847Y-104725885D01*
X167259847Y-104725885D02*
X167497942Y-104725885D01*
X167497942Y-104725885D02*
X167593180Y-104773504D01*
X167593180Y-104773504D02*
X167640800Y-104821123D01*
X167640800Y-104821123D02*
X167688419Y-104916361D01*
X167688419Y-104916361D02*
X167688419Y-105202075D01*
X167688419Y-105202075D02*
X167640800Y-105297313D01*
X167640800Y-105297313D02*
X167593180Y-105344932D01*
X65412209Y-87196514D02*
X65459828Y-87053657D01*
X65459828Y-87053657D02*
X65507447Y-87006038D01*
X65507447Y-87006038D02*
X65602685Y-86958419D01*
X65602685Y-86958419D02*
X65745542Y-86958419D01*
X65745542Y-86958419D02*
X65840780Y-87006038D01*
X65840780Y-87006038D02*
X65888400Y-87053657D01*
X65888400Y-87053657D02*
X65936019Y-87148895D01*
X65936019Y-87148895D02*
X65936019Y-87529847D01*
X65936019Y-87529847D02*
X64936019Y-87529847D01*
X64936019Y-87529847D02*
X64936019Y-87196514D01*
X64936019Y-87196514D02*
X64983638Y-87101276D01*
X64983638Y-87101276D02*
X65031257Y-87053657D01*
X65031257Y-87053657D02*
X65126495Y-87006038D01*
X65126495Y-87006038D02*
X65221733Y-87006038D01*
X65221733Y-87006038D02*
X65316971Y-87053657D01*
X65316971Y-87053657D02*
X65364590Y-87101276D01*
X65364590Y-87101276D02*
X65412209Y-87196514D01*
X65412209Y-87196514D02*
X65412209Y-87529847D01*
X64936019Y-86244133D02*
X65650304Y-86244133D01*
X65650304Y-86244133D02*
X65793161Y-86291752D01*
X65793161Y-86291752D02*
X65888400Y-86386990D01*
X65888400Y-86386990D02*
X65936019Y-86529847D01*
X65936019Y-86529847D02*
X65936019Y-86625085D01*
X65936019Y-85244133D02*
X65936019Y-85815561D01*
X65936019Y-85529847D02*
X64936019Y-85529847D01*
X64936019Y-85529847D02*
X65078876Y-85625085D01*
X65078876Y-85625085D02*
X65174114Y-85720323D01*
X65174114Y-85720323D02*
X65221733Y-85815561D01*
X115047733Y-87475219D02*
X114714400Y-86999028D01*
X114476305Y-87475219D02*
X114476305Y-86475219D01*
X114476305Y-86475219D02*
X114857257Y-86475219D01*
X114857257Y-86475219D02*
X114952495Y-86522838D01*
X114952495Y-86522838D02*
X115000114Y-86570457D01*
X115000114Y-86570457D02*
X115047733Y-86665695D01*
X115047733Y-86665695D02*
X115047733Y-86808552D01*
X115047733Y-86808552D02*
X115000114Y-86903790D01*
X115000114Y-86903790D02*
X114952495Y-86951409D01*
X114952495Y-86951409D02*
X114857257Y-86999028D01*
X114857257Y-86999028D02*
X114476305Y-86999028D01*
X115952495Y-86475219D02*
X115476305Y-86475219D01*
X115476305Y-86475219D02*
X115428686Y-86951409D01*
X115428686Y-86951409D02*
X115476305Y-86903790D01*
X115476305Y-86903790D02*
X115571543Y-86856171D01*
X115571543Y-86856171D02*
X115809638Y-86856171D01*
X115809638Y-86856171D02*
X115904876Y-86903790D01*
X115904876Y-86903790D02*
X115952495Y-86951409D01*
X115952495Y-86951409D02*
X116000114Y-87046647D01*
X116000114Y-87046647D02*
X116000114Y-87284742D01*
X116000114Y-87284742D02*
X115952495Y-87379980D01*
X115952495Y-87379980D02*
X115904876Y-87427600D01*
X115904876Y-87427600D02*
X115809638Y-87475219D01*
X115809638Y-87475219D02*
X115571543Y-87475219D01*
X115571543Y-87475219D02*
X115476305Y-87427600D01*
X115476305Y-87427600D02*
X115428686Y-87379980D01*
X179701866Y-58890819D02*
X179701866Y-59605104D01*
X179701866Y-59605104D02*
X179654247Y-59747961D01*
X179654247Y-59747961D02*
X179559009Y-59843200D01*
X179559009Y-59843200D02*
X179416152Y-59890819D01*
X179416152Y-59890819D02*
X179320914Y-59890819D01*
X180606628Y-59224152D02*
X180606628Y-59890819D01*
X180368533Y-58843200D02*
X180130438Y-59557485D01*
X180130438Y-59557485D02*
X180749485Y-59557485D01*
X83089809Y-101070628D02*
X83089809Y-101546819D01*
X82756476Y-100546819D02*
X83089809Y-101070628D01*
X83089809Y-101070628D02*
X83423142Y-100546819D01*
X83708857Y-100642057D02*
X83756476Y-100594438D01*
X83756476Y-100594438D02*
X83851714Y-100546819D01*
X83851714Y-100546819D02*
X84089809Y-100546819D01*
X84089809Y-100546819D02*
X84185047Y-100594438D01*
X84185047Y-100594438D02*
X84232666Y-100642057D01*
X84232666Y-100642057D02*
X84280285Y-100737295D01*
X84280285Y-100737295D02*
X84280285Y-100832533D01*
X84280285Y-100832533D02*
X84232666Y-100975390D01*
X84232666Y-100975390D02*
X83661238Y-101546819D01*
X83661238Y-101546819D02*
X84280285Y-101546819D01*
X137385466Y-109538419D02*
X137385466Y-110252704D01*
X137385466Y-110252704D02*
X137337847Y-110395561D01*
X137337847Y-110395561D02*
X137242609Y-110490800D01*
X137242609Y-110490800D02*
X137099752Y-110538419D01*
X137099752Y-110538419D02*
X137004514Y-110538419D01*
X137766419Y-109538419D02*
X138433085Y-109538419D01*
X138433085Y-109538419D02*
X138004514Y-110538419D01*
X83500933Y-108309580D02*
X83453314Y-108357200D01*
X83453314Y-108357200D02*
X83310457Y-108404819D01*
X83310457Y-108404819D02*
X83215219Y-108404819D01*
X83215219Y-108404819D02*
X83072362Y-108357200D01*
X83072362Y-108357200D02*
X82977124Y-108261961D01*
X82977124Y-108261961D02*
X82929505Y-108166723D01*
X82929505Y-108166723D02*
X82881886Y-107976247D01*
X82881886Y-107976247D02*
X82881886Y-107833390D01*
X82881886Y-107833390D02*
X82929505Y-107642914D01*
X82929505Y-107642914D02*
X82977124Y-107547676D01*
X82977124Y-107547676D02*
X83072362Y-107452438D01*
X83072362Y-107452438D02*
X83215219Y-107404819D01*
X83215219Y-107404819D02*
X83310457Y-107404819D01*
X83310457Y-107404819D02*
X83453314Y-107452438D01*
X83453314Y-107452438D02*
X83500933Y-107500057D01*
X84453314Y-108404819D02*
X83881886Y-108404819D01*
X84167600Y-108404819D02*
X84167600Y-107404819D01*
X84167600Y-107404819D02*
X84072362Y-107547676D01*
X84072362Y-107547676D02*
X83977124Y-107642914D01*
X83977124Y-107642914D02*
X83881886Y-107690533D01*
X130257561Y-59173257D02*
X130162323Y-59125638D01*
X130162323Y-59125638D02*
X130067085Y-59030400D01*
X130067085Y-59030400D02*
X129924228Y-58887542D01*
X129924228Y-58887542D02*
X129828990Y-58839923D01*
X129828990Y-58839923D02*
X129733752Y-58839923D01*
X129781371Y-59078019D02*
X129686133Y-59030400D01*
X129686133Y-59030400D02*
X129590895Y-58935161D01*
X129590895Y-58935161D02*
X129543276Y-58744685D01*
X129543276Y-58744685D02*
X129543276Y-58411352D01*
X129543276Y-58411352D02*
X129590895Y-58220876D01*
X129590895Y-58220876D02*
X129686133Y-58125638D01*
X129686133Y-58125638D02*
X129781371Y-58078019D01*
X129781371Y-58078019D02*
X129971847Y-58078019D01*
X129971847Y-58078019D02*
X130067085Y-58125638D01*
X130067085Y-58125638D02*
X130162323Y-58220876D01*
X130162323Y-58220876D02*
X130209942Y-58411352D01*
X130209942Y-58411352D02*
X130209942Y-58744685D01*
X130209942Y-58744685D02*
X130162323Y-58935161D01*
X130162323Y-58935161D02*
X130067085Y-59030400D01*
X130067085Y-59030400D02*
X129971847Y-59078019D01*
X129971847Y-59078019D02*
X129781371Y-59078019D01*
X130781371Y-58506590D02*
X130686133Y-58458971D01*
X130686133Y-58458971D02*
X130638514Y-58411352D01*
X130638514Y-58411352D02*
X130590895Y-58316114D01*
X130590895Y-58316114D02*
X130590895Y-58268495D01*
X130590895Y-58268495D02*
X130638514Y-58173257D01*
X130638514Y-58173257D02*
X130686133Y-58125638D01*
X130686133Y-58125638D02*
X130781371Y-58078019D01*
X130781371Y-58078019D02*
X130971847Y-58078019D01*
X130971847Y-58078019D02*
X131067085Y-58125638D01*
X131067085Y-58125638D02*
X131114704Y-58173257D01*
X131114704Y-58173257D02*
X131162323Y-58268495D01*
X131162323Y-58268495D02*
X131162323Y-58316114D01*
X131162323Y-58316114D02*
X131114704Y-58411352D01*
X131114704Y-58411352D02*
X131067085Y-58458971D01*
X131067085Y-58458971D02*
X130971847Y-58506590D01*
X130971847Y-58506590D02*
X130781371Y-58506590D01*
X130781371Y-58506590D02*
X130686133Y-58554209D01*
X130686133Y-58554209D02*
X130638514Y-58601828D01*
X130638514Y-58601828D02*
X130590895Y-58697066D01*
X130590895Y-58697066D02*
X130590895Y-58887542D01*
X130590895Y-58887542D02*
X130638514Y-58982780D01*
X130638514Y-58982780D02*
X130686133Y-59030400D01*
X130686133Y-59030400D02*
X130781371Y-59078019D01*
X130781371Y-59078019D02*
X130971847Y-59078019D01*
X130971847Y-59078019D02*
X131067085Y-59030400D01*
X131067085Y-59030400D02*
X131114704Y-58982780D01*
X131114704Y-58982780D02*
X131162323Y-58887542D01*
X131162323Y-58887542D02*
X131162323Y-58697066D01*
X131162323Y-58697066D02*
X131114704Y-58601828D01*
X131114704Y-58601828D02*
X131067085Y-58554209D01*
X131067085Y-58554209D02*
X130971847Y-58506590D01*
X102176342Y-103985219D02*
X101843009Y-103509028D01*
X101604914Y-103985219D02*
X101604914Y-102985219D01*
X101604914Y-102985219D02*
X101985866Y-102985219D01*
X101985866Y-102985219D02*
X102081104Y-103032838D01*
X102081104Y-103032838D02*
X102128723Y-103080457D01*
X102128723Y-103080457D02*
X102176342Y-103175695D01*
X102176342Y-103175695D02*
X102176342Y-103318552D01*
X102176342Y-103318552D02*
X102128723Y-103413790D01*
X102128723Y-103413790D02*
X102081104Y-103461409D01*
X102081104Y-103461409D02*
X101985866Y-103509028D01*
X101985866Y-103509028D02*
X101604914Y-103509028D01*
X103128723Y-103985219D02*
X102557295Y-103985219D01*
X102843009Y-103985219D02*
X102843009Y-102985219D01*
X102843009Y-102985219D02*
X102747771Y-103128076D01*
X102747771Y-103128076D02*
X102652533Y-103223314D01*
X102652533Y-103223314D02*
X102557295Y-103270933D01*
X103462057Y-102985219D02*
X104081104Y-102985219D01*
X104081104Y-102985219D02*
X103747771Y-103366171D01*
X103747771Y-103366171D02*
X103890628Y-103366171D01*
X103890628Y-103366171D02*
X103985866Y-103413790D01*
X103985866Y-103413790D02*
X104033485Y-103461409D01*
X104033485Y-103461409D02*
X104081104Y-103556647D01*
X104081104Y-103556647D02*
X104081104Y-103794742D01*
X104081104Y-103794742D02*
X104033485Y-103889980D01*
X104033485Y-103889980D02*
X103985866Y-103937600D01*
X103985866Y-103937600D02*
X103890628Y-103985219D01*
X103890628Y-103985219D02*
X103604914Y-103985219D01*
X103604914Y-103985219D02*
X103509676Y-103937600D01*
X103509676Y-103937600D02*
X103462057Y-103889980D01*
X63259619Y-77619123D02*
X63973904Y-77619123D01*
X63973904Y-77619123D02*
X64116761Y-77666742D01*
X64116761Y-77666742D02*
X64212000Y-77761980D01*
X64212000Y-77761980D02*
X64259619Y-77904837D01*
X64259619Y-77904837D02*
X64259619Y-78000075D01*
X64259619Y-76619123D02*
X64259619Y-77190551D01*
X64259619Y-76904837D02*
X63259619Y-76904837D01*
X63259619Y-76904837D02*
X63402476Y-77000075D01*
X63402476Y-77000075D02*
X63497714Y-77095313D01*
X63497714Y-77095313D02*
X63545333Y-77190551D01*
X64259619Y-75666742D02*
X64259619Y-76238170D01*
X64259619Y-75952456D02*
X63259619Y-75952456D01*
X63259619Y-75952456D02*
X63402476Y-76047694D01*
X63402476Y-76047694D02*
X63497714Y-76142932D01*
X63497714Y-76142932D02*
X63545333Y-76238170D01*
X167891619Y-59970894D02*
X166891619Y-59970894D01*
X166891619Y-59970894D02*
X166891619Y-59732799D01*
X166891619Y-59732799D02*
X166939238Y-59589942D01*
X166939238Y-59589942D02*
X167034476Y-59494704D01*
X167034476Y-59494704D02*
X167129714Y-59447085D01*
X167129714Y-59447085D02*
X167320190Y-59399466D01*
X167320190Y-59399466D02*
X167463047Y-59399466D01*
X167463047Y-59399466D02*
X167653523Y-59447085D01*
X167653523Y-59447085D02*
X167748761Y-59494704D01*
X167748761Y-59494704D02*
X167844000Y-59589942D01*
X167844000Y-59589942D02*
X167891619Y-59732799D01*
X167891619Y-59732799D02*
X167891619Y-59970894D01*
X167224952Y-58542323D02*
X167891619Y-58542323D01*
X166844000Y-58780418D02*
X167558285Y-59018513D01*
X167558285Y-59018513D02*
X167558285Y-58399466D01*
X187602019Y-106300494D02*
X186602019Y-106300494D01*
X186602019Y-106300494D02*
X186602019Y-106062399D01*
X186602019Y-106062399D02*
X186649638Y-105919542D01*
X186649638Y-105919542D02*
X186744876Y-105824304D01*
X186744876Y-105824304D02*
X186840114Y-105776685D01*
X186840114Y-105776685D02*
X187030590Y-105729066D01*
X187030590Y-105729066D02*
X187173447Y-105729066D01*
X187173447Y-105729066D02*
X187363923Y-105776685D01*
X187363923Y-105776685D02*
X187459161Y-105824304D01*
X187459161Y-105824304D02*
X187554400Y-105919542D01*
X187554400Y-105919542D02*
X187602019Y-106062399D01*
X187602019Y-106062399D02*
X187602019Y-106300494D01*
X186697257Y-105348113D02*
X186649638Y-105300494D01*
X186649638Y-105300494D02*
X186602019Y-105205256D01*
X186602019Y-105205256D02*
X186602019Y-104967161D01*
X186602019Y-104967161D02*
X186649638Y-104871923D01*
X186649638Y-104871923D02*
X186697257Y-104824304D01*
X186697257Y-104824304D02*
X186792495Y-104776685D01*
X186792495Y-104776685D02*
X186887733Y-104776685D01*
X186887733Y-104776685D02*
X187030590Y-104824304D01*
X187030590Y-104824304D02*
X187602019Y-105395732D01*
X187602019Y-105395732D02*
X187602019Y-104776685D01*
X187551219Y-60072494D02*
X186551219Y-60072494D01*
X186551219Y-60072494D02*
X186551219Y-59834399D01*
X186551219Y-59834399D02*
X186598838Y-59691542D01*
X186598838Y-59691542D02*
X186694076Y-59596304D01*
X186694076Y-59596304D02*
X186789314Y-59548685D01*
X186789314Y-59548685D02*
X186979790Y-59501066D01*
X186979790Y-59501066D02*
X187122647Y-59501066D01*
X187122647Y-59501066D02*
X187313123Y-59548685D01*
X187313123Y-59548685D02*
X187408361Y-59596304D01*
X187408361Y-59596304D02*
X187503600Y-59691542D01*
X187503600Y-59691542D02*
X187551219Y-59834399D01*
X187551219Y-59834399D02*
X187551219Y-60072494D01*
X187551219Y-58548685D02*
X187551219Y-59120113D01*
X187551219Y-58834399D02*
X186551219Y-58834399D01*
X186551219Y-58834399D02*
X186694076Y-58929637D01*
X186694076Y-58929637D02*
X186789314Y-59024875D01*
X186789314Y-59024875D02*
X186836933Y-59120113D01*
X138782666Y-50477019D02*
X138782666Y-51191304D01*
X138782666Y-51191304D02*
X138735047Y-51334161D01*
X138735047Y-51334161D02*
X138639809Y-51429400D01*
X138639809Y-51429400D02*
X138496952Y-51477019D01*
X138496952Y-51477019D02*
X138401714Y-51477019D01*
X139401714Y-50905590D02*
X139306476Y-50857971D01*
X139306476Y-50857971D02*
X139258857Y-50810352D01*
X139258857Y-50810352D02*
X139211238Y-50715114D01*
X139211238Y-50715114D02*
X139211238Y-50667495D01*
X139211238Y-50667495D02*
X139258857Y-50572257D01*
X139258857Y-50572257D02*
X139306476Y-50524638D01*
X139306476Y-50524638D02*
X139401714Y-50477019D01*
X139401714Y-50477019D02*
X139592190Y-50477019D01*
X139592190Y-50477019D02*
X139687428Y-50524638D01*
X139687428Y-50524638D02*
X139735047Y-50572257D01*
X139735047Y-50572257D02*
X139782666Y-50667495D01*
X139782666Y-50667495D02*
X139782666Y-50715114D01*
X139782666Y-50715114D02*
X139735047Y-50810352D01*
X139735047Y-50810352D02*
X139687428Y-50857971D01*
X139687428Y-50857971D02*
X139592190Y-50905590D01*
X139592190Y-50905590D02*
X139401714Y-50905590D01*
X139401714Y-50905590D02*
X139306476Y-50953209D01*
X139306476Y-50953209D02*
X139258857Y-51000828D01*
X139258857Y-51000828D02*
X139211238Y-51096066D01*
X139211238Y-51096066D02*
X139211238Y-51286542D01*
X139211238Y-51286542D02*
X139258857Y-51381780D01*
X139258857Y-51381780D02*
X139306476Y-51429400D01*
X139306476Y-51429400D02*
X139401714Y-51477019D01*
X139401714Y-51477019D02*
X139592190Y-51477019D01*
X139592190Y-51477019D02*
X139687428Y-51429400D01*
X139687428Y-51429400D02*
X139735047Y-51381780D01*
X139735047Y-51381780D02*
X139782666Y-51286542D01*
X139782666Y-51286542D02*
X139782666Y-51096066D01*
X139782666Y-51096066D02*
X139735047Y-51000828D01*
X139735047Y-51000828D02*
X139687428Y-50953209D01*
X139687428Y-50953209D02*
X139592190Y-50905590D01*
X96810533Y-87227580D02*
X96762914Y-87275200D01*
X96762914Y-87275200D02*
X96620057Y-87322819D01*
X96620057Y-87322819D02*
X96524819Y-87322819D01*
X96524819Y-87322819D02*
X96381962Y-87275200D01*
X96381962Y-87275200D02*
X96286724Y-87179961D01*
X96286724Y-87179961D02*
X96239105Y-87084723D01*
X96239105Y-87084723D02*
X96191486Y-86894247D01*
X96191486Y-86894247D02*
X96191486Y-86751390D01*
X96191486Y-86751390D02*
X96239105Y-86560914D01*
X96239105Y-86560914D02*
X96286724Y-86465676D01*
X96286724Y-86465676D02*
X96381962Y-86370438D01*
X96381962Y-86370438D02*
X96524819Y-86322819D01*
X96524819Y-86322819D02*
X96620057Y-86322819D01*
X96620057Y-86322819D02*
X96762914Y-86370438D01*
X96762914Y-86370438D02*
X96810533Y-86418057D01*
X97143867Y-86322819D02*
X97762914Y-86322819D01*
X97762914Y-86322819D02*
X97429581Y-86703771D01*
X97429581Y-86703771D02*
X97572438Y-86703771D01*
X97572438Y-86703771D02*
X97667676Y-86751390D01*
X97667676Y-86751390D02*
X97715295Y-86799009D01*
X97715295Y-86799009D02*
X97762914Y-86894247D01*
X97762914Y-86894247D02*
X97762914Y-87132342D01*
X97762914Y-87132342D02*
X97715295Y-87227580D01*
X97715295Y-87227580D02*
X97667676Y-87275200D01*
X97667676Y-87275200D02*
X97572438Y-87322819D01*
X97572438Y-87322819D02*
X97286724Y-87322819D01*
X97286724Y-87322819D02*
X97191486Y-87275200D01*
X97191486Y-87275200D02*
X97143867Y-87227580D01*
X58382819Y-98580533D02*
X59097104Y-98580533D01*
X59097104Y-98580533D02*
X59239961Y-98628152D01*
X59239961Y-98628152D02*
X59335200Y-98723390D01*
X59335200Y-98723390D02*
X59382819Y-98866247D01*
X59382819Y-98866247D02*
X59382819Y-98961485D01*
X59382819Y-98056723D02*
X59382819Y-97866247D01*
X59382819Y-97866247D02*
X59335200Y-97771009D01*
X59335200Y-97771009D02*
X59287580Y-97723390D01*
X59287580Y-97723390D02*
X59144723Y-97628152D01*
X59144723Y-97628152D02*
X58954247Y-97580533D01*
X58954247Y-97580533D02*
X58573295Y-97580533D01*
X58573295Y-97580533D02*
X58478057Y-97628152D01*
X58478057Y-97628152D02*
X58430438Y-97675771D01*
X58430438Y-97675771D02*
X58382819Y-97771009D01*
X58382819Y-97771009D02*
X58382819Y-97961485D01*
X58382819Y-97961485D02*
X58430438Y-98056723D01*
X58430438Y-98056723D02*
X58478057Y-98104342D01*
X58478057Y-98104342D02*
X58573295Y-98151961D01*
X58573295Y-98151961D02*
X58811390Y-98151961D01*
X58811390Y-98151961D02*
X58906628Y-98104342D01*
X58906628Y-98104342D02*
X58954247Y-98056723D01*
X58954247Y-98056723D02*
X59001866Y-97961485D01*
X59001866Y-97961485D02*
X59001866Y-97771009D01*
X59001866Y-97771009D02*
X58954247Y-97675771D01*
X58954247Y-97675771D02*
X58906628Y-97628152D01*
X58906628Y-97628152D02*
X58811390Y-97580533D01*
X130425561Y-106330057D02*
X130330323Y-106282438D01*
X130330323Y-106282438D02*
X130235085Y-106187200D01*
X130235085Y-106187200D02*
X130092228Y-106044342D01*
X130092228Y-106044342D02*
X129996990Y-105996723D01*
X129996990Y-105996723D02*
X129901752Y-105996723D01*
X129949371Y-106234819D02*
X129854133Y-106187200D01*
X129854133Y-106187200D02*
X129758895Y-106091961D01*
X129758895Y-106091961D02*
X129711276Y-105901485D01*
X129711276Y-105901485D02*
X129711276Y-105568152D01*
X129711276Y-105568152D02*
X129758895Y-105377676D01*
X129758895Y-105377676D02*
X129854133Y-105282438D01*
X129854133Y-105282438D02*
X129949371Y-105234819D01*
X129949371Y-105234819D02*
X130139847Y-105234819D01*
X130139847Y-105234819D02*
X130235085Y-105282438D01*
X130235085Y-105282438D02*
X130330323Y-105377676D01*
X130330323Y-105377676D02*
X130377942Y-105568152D01*
X130377942Y-105568152D02*
X130377942Y-105901485D01*
X130377942Y-105901485D02*
X130330323Y-106091961D01*
X130330323Y-106091961D02*
X130235085Y-106187200D01*
X130235085Y-106187200D02*
X130139847Y-106234819D01*
X130139847Y-106234819D02*
X129949371Y-106234819D01*
X130711276Y-105234819D02*
X131377942Y-105234819D01*
X131377942Y-105234819D02*
X130949371Y-106234819D01*
X159178666Y-58738419D02*
X159178666Y-59452704D01*
X159178666Y-59452704D02*
X159131047Y-59595561D01*
X159131047Y-59595561D02*
X159035809Y-59690800D01*
X159035809Y-59690800D02*
X158892952Y-59738419D01*
X158892952Y-59738419D02*
X158797714Y-59738419D01*
X160083428Y-58738419D02*
X159892952Y-58738419D01*
X159892952Y-58738419D02*
X159797714Y-58786038D01*
X159797714Y-58786038D02*
X159750095Y-58833657D01*
X159750095Y-58833657D02*
X159654857Y-58976514D01*
X159654857Y-58976514D02*
X159607238Y-59166990D01*
X159607238Y-59166990D02*
X159607238Y-59547942D01*
X159607238Y-59547942D02*
X159654857Y-59643180D01*
X159654857Y-59643180D02*
X159702476Y-59690800D01*
X159702476Y-59690800D02*
X159797714Y-59738419D01*
X159797714Y-59738419D02*
X159988190Y-59738419D01*
X159988190Y-59738419D02*
X160083428Y-59690800D01*
X160083428Y-59690800D02*
X160131047Y-59643180D01*
X160131047Y-59643180D02*
X160178666Y-59547942D01*
X160178666Y-59547942D02*
X160178666Y-59309847D01*
X160178666Y-59309847D02*
X160131047Y-59214609D01*
X160131047Y-59214609D02*
X160083428Y-59166990D01*
X160083428Y-59166990D02*
X159988190Y-59119371D01*
X159988190Y-59119371D02*
X159797714Y-59119371D01*
X159797714Y-59119371D02*
X159702476Y-59166990D01*
X159702476Y-59166990D02*
X159654857Y-59214609D01*
X159654857Y-59214609D02*
X159607238Y-59309847D01*
X71885276Y-58738419D02*
X71885276Y-59452704D01*
X71885276Y-59452704D02*
X71837657Y-59595561D01*
X71837657Y-59595561D02*
X71742419Y-59690800D01*
X71742419Y-59690800D02*
X71599562Y-59738419D01*
X71599562Y-59738419D02*
X71504324Y-59738419D01*
X72885276Y-59738419D02*
X72313848Y-59738419D01*
X72599562Y-59738419D02*
X72599562Y-58738419D01*
X72599562Y-58738419D02*
X72504324Y-58881276D01*
X72504324Y-58881276D02*
X72409086Y-58976514D01*
X72409086Y-58976514D02*
X72313848Y-59024133D01*
X73504324Y-58738419D02*
X73599562Y-58738419D01*
X73599562Y-58738419D02*
X73694800Y-58786038D01*
X73694800Y-58786038D02*
X73742419Y-58833657D01*
X73742419Y-58833657D02*
X73790038Y-58928895D01*
X73790038Y-58928895D02*
X73837657Y-59119371D01*
X73837657Y-59119371D02*
X73837657Y-59357466D01*
X73837657Y-59357466D02*
X73790038Y-59547942D01*
X73790038Y-59547942D02*
X73742419Y-59643180D01*
X73742419Y-59643180D02*
X73694800Y-59690800D01*
X73694800Y-59690800D02*
X73599562Y-59738419D01*
X73599562Y-59738419D02*
X73504324Y-59738419D01*
X73504324Y-59738419D02*
X73409086Y-59690800D01*
X73409086Y-59690800D02*
X73361467Y-59643180D01*
X73361467Y-59643180D02*
X73313848Y-59547942D01*
X73313848Y-59547942D02*
X73266229Y-59357466D01*
X73266229Y-59357466D02*
X73266229Y-59119371D01*
X73266229Y-59119371D02*
X73313848Y-58928895D01*
X73313848Y-58928895D02*
X73361467Y-58833657D01*
X73361467Y-58833657D02*
X73409086Y-58786038D01*
X73409086Y-58786038D02*
X73504324Y-58738419D01*
X115073333Y-81176019D02*
X114740000Y-80699828D01*
X114501905Y-81176019D02*
X114501905Y-80176019D01*
X114501905Y-80176019D02*
X114882857Y-80176019D01*
X114882857Y-80176019D02*
X114978095Y-80223638D01*
X114978095Y-80223638D02*
X115025714Y-80271257D01*
X115025714Y-80271257D02*
X115073333Y-80366495D01*
X115073333Y-80366495D02*
X115073333Y-80509352D01*
X115073333Y-80509352D02*
X115025714Y-80604590D01*
X115025714Y-80604590D02*
X114978095Y-80652209D01*
X114978095Y-80652209D02*
X114882857Y-80699828D01*
X114882857Y-80699828D02*
X114501905Y-80699828D01*
X115454286Y-80271257D02*
X115501905Y-80223638D01*
X115501905Y-80223638D02*
X115597143Y-80176019D01*
X115597143Y-80176019D02*
X115835238Y-80176019D01*
X115835238Y-80176019D02*
X115930476Y-80223638D01*
X115930476Y-80223638D02*
X115978095Y-80271257D01*
X115978095Y-80271257D02*
X116025714Y-80366495D01*
X116025714Y-80366495D02*
X116025714Y-80461733D01*
X116025714Y-80461733D02*
X115978095Y-80604590D01*
X115978095Y-80604590D02*
X115406667Y-81176019D01*
X115406667Y-81176019D02*
X116025714Y-81176019D01*
X115098533Y-68425219D02*
X114765200Y-67949028D01*
X114527105Y-68425219D02*
X114527105Y-67425219D01*
X114527105Y-67425219D02*
X114908057Y-67425219D01*
X114908057Y-67425219D02*
X115003295Y-67472838D01*
X115003295Y-67472838D02*
X115050914Y-67520457D01*
X115050914Y-67520457D02*
X115098533Y-67615695D01*
X115098533Y-67615695D02*
X115098533Y-67758552D01*
X115098533Y-67758552D02*
X115050914Y-67853790D01*
X115050914Y-67853790D02*
X115003295Y-67901409D01*
X115003295Y-67901409D02*
X114908057Y-67949028D01*
X114908057Y-67949028D02*
X114527105Y-67949028D01*
X115669962Y-67853790D02*
X115574724Y-67806171D01*
X115574724Y-67806171D02*
X115527105Y-67758552D01*
X115527105Y-67758552D02*
X115479486Y-67663314D01*
X115479486Y-67663314D02*
X115479486Y-67615695D01*
X115479486Y-67615695D02*
X115527105Y-67520457D01*
X115527105Y-67520457D02*
X115574724Y-67472838D01*
X115574724Y-67472838D02*
X115669962Y-67425219D01*
X115669962Y-67425219D02*
X115860438Y-67425219D01*
X115860438Y-67425219D02*
X115955676Y-67472838D01*
X115955676Y-67472838D02*
X116003295Y-67520457D01*
X116003295Y-67520457D02*
X116050914Y-67615695D01*
X116050914Y-67615695D02*
X116050914Y-67663314D01*
X116050914Y-67663314D02*
X116003295Y-67758552D01*
X116003295Y-67758552D02*
X115955676Y-67806171D01*
X115955676Y-67806171D02*
X115860438Y-67853790D01*
X115860438Y-67853790D02*
X115669962Y-67853790D01*
X115669962Y-67853790D02*
X115574724Y-67901409D01*
X115574724Y-67901409D02*
X115527105Y-67949028D01*
X115527105Y-67949028D02*
X115479486Y-68044266D01*
X115479486Y-68044266D02*
X115479486Y-68234742D01*
X115479486Y-68234742D02*
X115527105Y-68329980D01*
X115527105Y-68329980D02*
X115574724Y-68377600D01*
X115574724Y-68377600D02*
X115669962Y-68425219D01*
X115669962Y-68425219D02*
X115860438Y-68425219D01*
X115860438Y-68425219D02*
X115955676Y-68377600D01*
X115955676Y-68377600D02*
X116003295Y-68329980D01*
X116003295Y-68329980D02*
X116050914Y-68234742D01*
X116050914Y-68234742D02*
X116050914Y-68044266D01*
X116050914Y-68044266D02*
X116003295Y-67949028D01*
X116003295Y-67949028D02*
X115955676Y-67901409D01*
X115955676Y-67901409D02*
X115860438Y-67853790D01*
X126438819Y-59818494D02*
X125438819Y-59818494D01*
X125438819Y-59818494D02*
X125438819Y-59580399D01*
X125438819Y-59580399D02*
X125486438Y-59437542D01*
X125486438Y-59437542D02*
X125581676Y-59342304D01*
X125581676Y-59342304D02*
X125676914Y-59294685D01*
X125676914Y-59294685D02*
X125867390Y-59247066D01*
X125867390Y-59247066D02*
X126010247Y-59247066D01*
X126010247Y-59247066D02*
X126200723Y-59294685D01*
X126200723Y-59294685D02*
X126295961Y-59342304D01*
X126295961Y-59342304D02*
X126391200Y-59437542D01*
X126391200Y-59437542D02*
X126438819Y-59580399D01*
X126438819Y-59580399D02*
X126438819Y-59818494D01*
X125867390Y-58675637D02*
X125819771Y-58770875D01*
X125819771Y-58770875D02*
X125772152Y-58818494D01*
X125772152Y-58818494D02*
X125676914Y-58866113D01*
X125676914Y-58866113D02*
X125629295Y-58866113D01*
X125629295Y-58866113D02*
X125534057Y-58818494D01*
X125534057Y-58818494D02*
X125486438Y-58770875D01*
X125486438Y-58770875D02*
X125438819Y-58675637D01*
X125438819Y-58675637D02*
X125438819Y-58485161D01*
X125438819Y-58485161D02*
X125486438Y-58389923D01*
X125486438Y-58389923D02*
X125534057Y-58342304D01*
X125534057Y-58342304D02*
X125629295Y-58294685D01*
X125629295Y-58294685D02*
X125676914Y-58294685D01*
X125676914Y-58294685D02*
X125772152Y-58342304D01*
X125772152Y-58342304D02*
X125819771Y-58389923D01*
X125819771Y-58389923D02*
X125867390Y-58485161D01*
X125867390Y-58485161D02*
X125867390Y-58675637D01*
X125867390Y-58675637D02*
X125915009Y-58770875D01*
X125915009Y-58770875D02*
X125962628Y-58818494D01*
X125962628Y-58818494D02*
X126057866Y-58866113D01*
X126057866Y-58866113D02*
X126248342Y-58866113D01*
X126248342Y-58866113D02*
X126343580Y-58818494D01*
X126343580Y-58818494D02*
X126391200Y-58770875D01*
X126391200Y-58770875D02*
X126438819Y-58675637D01*
X126438819Y-58675637D02*
X126438819Y-58485161D01*
X126438819Y-58485161D02*
X126391200Y-58389923D01*
X126391200Y-58389923D02*
X126343580Y-58342304D01*
X126343580Y-58342304D02*
X126248342Y-58294685D01*
X126248342Y-58294685D02*
X126057866Y-58294685D01*
X126057866Y-58294685D02*
X125962628Y-58342304D01*
X125962628Y-58342304D02*
X125915009Y-58389923D01*
X125915009Y-58389923D02*
X125867390Y-58485161D01*
X115149333Y-74876819D02*
X114816000Y-74400628D01*
X114577905Y-74876819D02*
X114577905Y-73876819D01*
X114577905Y-73876819D02*
X114958857Y-73876819D01*
X114958857Y-73876819D02*
X115054095Y-73924438D01*
X115054095Y-73924438D02*
X115101714Y-73972057D01*
X115101714Y-73972057D02*
X115149333Y-74067295D01*
X115149333Y-74067295D02*
X115149333Y-74210152D01*
X115149333Y-74210152D02*
X115101714Y-74305390D01*
X115101714Y-74305390D02*
X115054095Y-74353009D01*
X115054095Y-74353009D02*
X114958857Y-74400628D01*
X114958857Y-74400628D02*
X114577905Y-74400628D01*
X116006476Y-74210152D02*
X116006476Y-74876819D01*
X115768381Y-73829200D02*
X115530286Y-74543485D01*
X115530286Y-74543485D02*
X116149333Y-74543485D01*
X84899900Y-87693428D02*
X84899900Y-86550571D01*
X85471328Y-87121999D02*
X84328471Y-87121999D01*
X192893961Y-59274857D02*
X192798723Y-59227238D01*
X192798723Y-59227238D02*
X192703485Y-59132000D01*
X192703485Y-59132000D02*
X192560628Y-58989142D01*
X192560628Y-58989142D02*
X192465390Y-58941523D01*
X192465390Y-58941523D02*
X192370152Y-58941523D01*
X192417771Y-59179619D02*
X192322533Y-59132000D01*
X192322533Y-59132000D02*
X192227295Y-59036761D01*
X192227295Y-59036761D02*
X192179676Y-58846285D01*
X192179676Y-58846285D02*
X192179676Y-58512952D01*
X192179676Y-58512952D02*
X192227295Y-58322476D01*
X192227295Y-58322476D02*
X192322533Y-58227238D01*
X192322533Y-58227238D02*
X192417771Y-58179619D01*
X192417771Y-58179619D02*
X192608247Y-58179619D01*
X192608247Y-58179619D02*
X192703485Y-58227238D01*
X192703485Y-58227238D02*
X192798723Y-58322476D01*
X192798723Y-58322476D02*
X192846342Y-58512952D01*
X192846342Y-58512952D02*
X192846342Y-58846285D01*
X192846342Y-58846285D02*
X192798723Y-59036761D01*
X192798723Y-59036761D02*
X192703485Y-59132000D01*
X192703485Y-59132000D02*
X192608247Y-59179619D01*
X192608247Y-59179619D02*
X192417771Y-59179619D01*
X193798723Y-59179619D02*
X193227295Y-59179619D01*
X193513009Y-59179619D02*
X193513009Y-58179619D01*
X193513009Y-58179619D02*
X193417771Y-58322476D01*
X193417771Y-58322476D02*
X193322533Y-58417714D01*
X193322533Y-58417714D02*
X193227295Y-58465333D01*
X147165219Y-59818494D02*
X146165219Y-59818494D01*
X146165219Y-59818494D02*
X146165219Y-59580399D01*
X146165219Y-59580399D02*
X146212838Y-59437542D01*
X146212838Y-59437542D02*
X146308076Y-59342304D01*
X146308076Y-59342304D02*
X146403314Y-59294685D01*
X146403314Y-59294685D02*
X146593790Y-59247066D01*
X146593790Y-59247066D02*
X146736647Y-59247066D01*
X146736647Y-59247066D02*
X146927123Y-59294685D01*
X146927123Y-59294685D02*
X147022361Y-59342304D01*
X147022361Y-59342304D02*
X147117600Y-59437542D01*
X147117600Y-59437542D02*
X147165219Y-59580399D01*
X147165219Y-59580399D02*
X147165219Y-59818494D01*
X146165219Y-58389923D02*
X146165219Y-58580399D01*
X146165219Y-58580399D02*
X146212838Y-58675637D01*
X146212838Y-58675637D02*
X146260457Y-58723256D01*
X146260457Y-58723256D02*
X146403314Y-58818494D01*
X146403314Y-58818494D02*
X146593790Y-58866113D01*
X146593790Y-58866113D02*
X146974742Y-58866113D01*
X146974742Y-58866113D02*
X147069980Y-58818494D01*
X147069980Y-58818494D02*
X147117600Y-58770875D01*
X147117600Y-58770875D02*
X147165219Y-58675637D01*
X147165219Y-58675637D02*
X147165219Y-58485161D01*
X147165219Y-58485161D02*
X147117600Y-58389923D01*
X147117600Y-58389923D02*
X147069980Y-58342304D01*
X147069980Y-58342304D02*
X146974742Y-58294685D01*
X146974742Y-58294685D02*
X146736647Y-58294685D01*
X146736647Y-58294685D02*
X146641409Y-58342304D01*
X146641409Y-58342304D02*
X146593790Y-58389923D01*
X146593790Y-58389923D02*
X146546171Y-58485161D01*
X146546171Y-58485161D02*
X146546171Y-58675637D01*
X146546171Y-58675637D02*
X146593790Y-58770875D01*
X146593790Y-58770875D02*
X146641409Y-58818494D01*
X146641409Y-58818494D02*
X146736647Y-58866113D01*
X126184819Y-106249694D02*
X125184819Y-106249694D01*
X125184819Y-106249694D02*
X125184819Y-106011599D01*
X125184819Y-106011599D02*
X125232438Y-105868742D01*
X125232438Y-105868742D02*
X125327676Y-105773504D01*
X125327676Y-105773504D02*
X125422914Y-105725885D01*
X125422914Y-105725885D02*
X125613390Y-105678266D01*
X125613390Y-105678266D02*
X125756247Y-105678266D01*
X125756247Y-105678266D02*
X125946723Y-105725885D01*
X125946723Y-105725885D02*
X126041961Y-105773504D01*
X126041961Y-105773504D02*
X126137200Y-105868742D01*
X126137200Y-105868742D02*
X126184819Y-106011599D01*
X126184819Y-106011599D02*
X126184819Y-106249694D01*
X125184819Y-105344932D02*
X125184819Y-104678266D01*
X125184819Y-104678266D02*
X126184819Y-105106837D01*
X115073333Y-78026419D02*
X114740000Y-77550228D01*
X114501905Y-78026419D02*
X114501905Y-77026419D01*
X114501905Y-77026419D02*
X114882857Y-77026419D01*
X114882857Y-77026419D02*
X114978095Y-77074038D01*
X114978095Y-77074038D02*
X115025714Y-77121657D01*
X115025714Y-77121657D02*
X115073333Y-77216895D01*
X115073333Y-77216895D02*
X115073333Y-77359752D01*
X115073333Y-77359752D02*
X115025714Y-77454990D01*
X115025714Y-77454990D02*
X114978095Y-77502609D01*
X114978095Y-77502609D02*
X114882857Y-77550228D01*
X114882857Y-77550228D02*
X114501905Y-77550228D01*
X116025714Y-78026419D02*
X115454286Y-78026419D01*
X115740000Y-78026419D02*
X115740000Y-77026419D01*
X115740000Y-77026419D02*
X115644762Y-77169276D01*
X115644762Y-77169276D02*
X115549524Y-77264514D01*
X115549524Y-77264514D02*
X115454286Y-77312133D01*
X146708019Y-106249694D02*
X145708019Y-106249694D01*
X145708019Y-106249694D02*
X145708019Y-106011599D01*
X145708019Y-106011599D02*
X145755638Y-105868742D01*
X145755638Y-105868742D02*
X145850876Y-105773504D01*
X145850876Y-105773504D02*
X145946114Y-105725885D01*
X145946114Y-105725885D02*
X146136590Y-105678266D01*
X146136590Y-105678266D02*
X146279447Y-105678266D01*
X146279447Y-105678266D02*
X146469923Y-105725885D01*
X146469923Y-105725885D02*
X146565161Y-105773504D01*
X146565161Y-105773504D02*
X146660400Y-105868742D01*
X146660400Y-105868742D02*
X146708019Y-106011599D01*
X146708019Y-106011599D02*
X146708019Y-106249694D01*
X145708019Y-104773504D02*
X145708019Y-105249694D01*
X145708019Y-105249694D02*
X146184209Y-105297313D01*
X146184209Y-105297313D02*
X146136590Y-105249694D01*
X146136590Y-105249694D02*
X146088971Y-105154456D01*
X146088971Y-105154456D02*
X146088971Y-104916361D01*
X146088971Y-104916361D02*
X146136590Y-104821123D01*
X146136590Y-104821123D02*
X146184209Y-104773504D01*
X146184209Y-104773504D02*
X146279447Y-104725885D01*
X146279447Y-104725885D02*
X146517542Y-104725885D01*
X146517542Y-104725885D02*
X146612780Y-104773504D01*
X146612780Y-104773504D02*
X146660400Y-104821123D01*
X146660400Y-104821123D02*
X146708019Y-104916361D01*
X146708019Y-104916361D02*
X146708019Y-105154456D01*
X146708019Y-105154456D02*
X146660400Y-105249694D01*
X146660400Y-105249694D02*
X146612780Y-105297313D01*
X102895695Y-93206419D02*
X102895695Y-94015942D01*
X102895695Y-94015942D02*
X102943314Y-94111180D01*
X102943314Y-94111180D02*
X102990933Y-94158800D01*
X102990933Y-94158800D02*
X103086171Y-94206419D01*
X103086171Y-94206419D02*
X103276647Y-94206419D01*
X103276647Y-94206419D02*
X103371885Y-94158800D01*
X103371885Y-94158800D02*
X103419504Y-94111180D01*
X103419504Y-94111180D02*
X103467123Y-94015942D01*
X103467123Y-94015942D02*
X103467123Y-93206419D01*
X104467123Y-94206419D02*
X103895695Y-94206419D01*
X104181409Y-94206419D02*
X104181409Y-93206419D01*
X104181409Y-93206419D02*
X104086171Y-93349276D01*
X104086171Y-93349276D02*
X103990933Y-93444514D01*
X103990933Y-93444514D02*
X103895695Y-93492133D01*
X94067333Y-87176780D02*
X94019714Y-87224400D01*
X94019714Y-87224400D02*
X93876857Y-87272019D01*
X93876857Y-87272019D02*
X93781619Y-87272019D01*
X93781619Y-87272019D02*
X93638762Y-87224400D01*
X93638762Y-87224400D02*
X93543524Y-87129161D01*
X93543524Y-87129161D02*
X93495905Y-87033923D01*
X93495905Y-87033923D02*
X93448286Y-86843447D01*
X93448286Y-86843447D02*
X93448286Y-86700590D01*
X93448286Y-86700590D02*
X93495905Y-86510114D01*
X93495905Y-86510114D02*
X93543524Y-86414876D01*
X93543524Y-86414876D02*
X93638762Y-86319638D01*
X93638762Y-86319638D02*
X93781619Y-86272019D01*
X93781619Y-86272019D02*
X93876857Y-86272019D01*
X93876857Y-86272019D02*
X94019714Y-86319638D01*
X94019714Y-86319638D02*
X94067333Y-86367257D01*
X94448286Y-86367257D02*
X94495905Y-86319638D01*
X94495905Y-86319638D02*
X94591143Y-86272019D01*
X94591143Y-86272019D02*
X94829238Y-86272019D01*
X94829238Y-86272019D02*
X94924476Y-86319638D01*
X94924476Y-86319638D02*
X94972095Y-86367257D01*
X94972095Y-86367257D02*
X95019714Y-86462495D01*
X95019714Y-86462495D02*
X95019714Y-86557733D01*
X95019714Y-86557733D02*
X94972095Y-86700590D01*
X94972095Y-86700590D02*
X94400667Y-87272019D01*
X94400667Y-87272019D02*
X95019714Y-87272019D01*
X90881295Y-99385219D02*
X90881295Y-100194742D01*
X90881295Y-100194742D02*
X90928914Y-100289980D01*
X90928914Y-100289980D02*
X90976533Y-100337600D01*
X90976533Y-100337600D02*
X91071771Y-100385219D01*
X91071771Y-100385219D02*
X91262247Y-100385219D01*
X91262247Y-100385219D02*
X91357485Y-100337600D01*
X91357485Y-100337600D02*
X91405104Y-100289980D01*
X91405104Y-100289980D02*
X91452723Y-100194742D01*
X91452723Y-100194742D02*
X91452723Y-99385219D01*
X91881295Y-99480457D02*
X91928914Y-99432838D01*
X91928914Y-99432838D02*
X92024152Y-99385219D01*
X92024152Y-99385219D02*
X92262247Y-99385219D01*
X92262247Y-99385219D02*
X92357485Y-99432838D01*
X92357485Y-99432838D02*
X92405104Y-99480457D01*
X92405104Y-99480457D02*
X92452723Y-99575695D01*
X92452723Y-99575695D02*
X92452723Y-99670933D01*
X92452723Y-99670933D02*
X92405104Y-99813790D01*
X92405104Y-99813790D02*
X91833676Y-100385219D01*
X91833676Y-100385219D02*
X92452723Y-100385219D01*
X158569066Y-110046419D02*
X158569066Y-110760704D01*
X158569066Y-110760704D02*
X158521447Y-110903561D01*
X158521447Y-110903561D02*
X158426209Y-110998800D01*
X158426209Y-110998800D02*
X158283352Y-111046419D01*
X158283352Y-111046419D02*
X158188114Y-111046419D01*
X159521447Y-110046419D02*
X159045257Y-110046419D01*
X159045257Y-110046419D02*
X158997638Y-110522609D01*
X158997638Y-110522609D02*
X159045257Y-110474990D01*
X159045257Y-110474990D02*
X159140495Y-110427371D01*
X159140495Y-110427371D02*
X159378590Y-110427371D01*
X159378590Y-110427371D02*
X159473828Y-110474990D01*
X159473828Y-110474990D02*
X159521447Y-110522609D01*
X159521447Y-110522609D02*
X159569066Y-110617847D01*
X159569066Y-110617847D02*
X159569066Y-110855942D01*
X159569066Y-110855942D02*
X159521447Y-110951180D01*
X159521447Y-110951180D02*
X159473828Y-110998800D01*
X159473828Y-110998800D02*
X159378590Y-111046419D01*
X159378590Y-111046419D02*
X159140495Y-111046419D01*
X159140495Y-111046419D02*
X159045257Y-110998800D01*
X159045257Y-110998800D02*
X158997638Y-110951180D01*
X115073333Y-84325619D02*
X114740000Y-83849428D01*
X114501905Y-84325619D02*
X114501905Y-83325619D01*
X114501905Y-83325619D02*
X114882857Y-83325619D01*
X114882857Y-83325619D02*
X114978095Y-83373238D01*
X114978095Y-83373238D02*
X115025714Y-83420857D01*
X115025714Y-83420857D02*
X115073333Y-83516095D01*
X115073333Y-83516095D02*
X115073333Y-83658952D01*
X115073333Y-83658952D02*
X115025714Y-83754190D01*
X115025714Y-83754190D02*
X114978095Y-83801809D01*
X114978095Y-83801809D02*
X114882857Y-83849428D01*
X114882857Y-83849428D02*
X114501905Y-83849428D01*
X115406667Y-83325619D02*
X116025714Y-83325619D01*
X116025714Y-83325619D02*
X115692381Y-83706571D01*
X115692381Y-83706571D02*
X115835238Y-83706571D01*
X115835238Y-83706571D02*
X115930476Y-83754190D01*
X115930476Y-83754190D02*
X115978095Y-83801809D01*
X115978095Y-83801809D02*
X116025714Y-83897047D01*
X116025714Y-83897047D02*
X116025714Y-84135142D01*
X116025714Y-84135142D02*
X115978095Y-84230380D01*
X115978095Y-84230380D02*
X115930476Y-84278000D01*
X115930476Y-84278000D02*
X115835238Y-84325619D01*
X115835238Y-84325619D02*
X115549524Y-84325619D01*
X115549524Y-84325619D02*
X115454286Y-84278000D01*
X115454286Y-84278000D02*
X115406667Y-84230380D01*
X114971733Y-90574019D02*
X114638400Y-90097828D01*
X114400305Y-90574019D02*
X114400305Y-89574019D01*
X114400305Y-89574019D02*
X114781257Y-89574019D01*
X114781257Y-89574019D02*
X114876495Y-89621638D01*
X114876495Y-89621638D02*
X114924114Y-89669257D01*
X114924114Y-89669257D02*
X114971733Y-89764495D01*
X114971733Y-89764495D02*
X114971733Y-89907352D01*
X114971733Y-89907352D02*
X114924114Y-90002590D01*
X114924114Y-90002590D02*
X114876495Y-90050209D01*
X114876495Y-90050209D02*
X114781257Y-90097828D01*
X114781257Y-90097828D02*
X114400305Y-90097828D01*
X115305067Y-89574019D02*
X115971733Y-89574019D01*
X115971733Y-89574019D02*
X115543162Y-90574019D01*
D11*
%TO.C,J2*%
X205206800Y-111201400D02*
X205206800Y-101168400D01*
X205206800Y-101168400D02*
X195046800Y-101168400D01*
X195046800Y-111201400D02*
X205206800Y-111201400D01*
X195046800Y-104343400D02*
X205206800Y-104343400D01*
X195046800Y-101168400D02*
X195046800Y-111201400D01*
%TO.C,Q4*%
X170014400Y-57656400D02*
X173864400Y-57656400D01*
X173903011Y-57646522D02*
G75*
G03*
X170014400Y-57656400I-1948611J1690122D01*
G01*
%TO.C,Q2*%
X189845600Y-111243200D02*
X193695600Y-111243200D01*
X193734211Y-111233322D02*
G75*
G03*
X189845600Y-111243200I-1948611J1690122D01*
G01*
%TO.C,R9*%
X115240000Y-101957200D02*
X115240000Y-101187200D01*
X113870000Y-101187200D02*
X116610000Y-101187200D01*
X116610000Y-101187200D02*
X116610000Y-94647200D01*
X113870000Y-94647200D02*
X113870000Y-101187200D01*
X116610000Y-94647200D02*
X113870000Y-94647200D01*
X115240000Y-93877200D02*
X115240000Y-94647200D01*
%TO.C,R10*%
X90196800Y-59334400D02*
X89426800Y-59334400D01*
X89426800Y-60704400D02*
X89426800Y-57964400D01*
X89426800Y-57964400D02*
X82886800Y-57964400D01*
X82886800Y-60704400D02*
X89426800Y-60704400D01*
X82886800Y-57964400D02*
X82886800Y-60704400D01*
X82116800Y-59334400D02*
X82886800Y-59334400D01*
%TO.C,SW1*%
X61869200Y-108090400D02*
X61869200Y-106590400D01*
X60619200Y-104090400D02*
X56119200Y-104090400D01*
X56119200Y-110590400D02*
X60619200Y-110590400D01*
X54869200Y-106590400D02*
X54869200Y-108090400D01*
%TO.C,J1*%
X194876000Y-53187200D02*
X194876000Y-63220200D01*
X194876000Y-63220200D02*
X205036000Y-63220200D01*
X205036000Y-53187200D02*
X194876000Y-53187200D01*
X205036000Y-60045200D02*
X194876000Y-60045200D01*
X205036000Y-63220200D02*
X205036000Y-53187200D01*
%TO.C,R12*%
X82066000Y-56134000D02*
X82836000Y-56134000D01*
X82836000Y-54764000D02*
X82836000Y-57504000D01*
X82836000Y-57504000D02*
X89376000Y-57504000D01*
X89376000Y-54764000D02*
X82836000Y-54764000D01*
X89376000Y-57504000D02*
X89376000Y-54764000D01*
X90146000Y-56134000D02*
X89376000Y-56134000D01*
%TO.C,K5*%
X164408400Y-98249600D02*
X164408400Y-91649600D01*
X164408400Y-98249600D02*
X144608400Y-98249600D01*
X164408400Y-89249600D02*
X164408400Y-82649600D01*
X160358400Y-90399600D02*
X161158400Y-90399600D01*
X160358400Y-90399600D02*
X160358400Y-86799600D01*
X159458400Y-84399600D02*
X156958400Y-84399600D01*
X158958400Y-92199600D02*
X154958400Y-92199600D01*
X158958400Y-88599600D02*
X158958400Y-92199600D01*
X156958400Y-96399600D02*
X159458400Y-96399600D01*
X156958400Y-96399600D02*
X156958400Y-92199600D01*
X156958400Y-88599600D02*
X156958400Y-84399600D01*
X154958400Y-92199600D02*
X154958400Y-88599600D01*
X154958400Y-88599600D02*
X158958400Y-92199600D01*
X154958400Y-88599600D02*
X158958400Y-88599600D01*
X153558400Y-90399600D02*
X153558400Y-86799600D01*
X153558400Y-90399600D02*
X152058400Y-90399600D01*
X153558400Y-86799600D02*
X160358400Y-86799600D01*
X152058400Y-90399600D02*
X147458400Y-92899600D01*
X148858400Y-94649600D02*
X148858400Y-92149600D01*
X148858400Y-86249600D02*
X148858400Y-88699600D01*
X144608400Y-98249600D02*
X144608400Y-82649600D01*
X144608400Y-82649600D02*
X164408400Y-82649600D01*
%TO.C,K6*%
X144850000Y-66700000D02*
X144850000Y-73300000D01*
X144850000Y-66700000D02*
X164650000Y-66700000D01*
X144850000Y-75700000D02*
X144850000Y-82300000D01*
X148900000Y-74550000D02*
X148100000Y-74550000D01*
X148900000Y-74550000D02*
X148900000Y-78150000D01*
X149800000Y-80550000D02*
X152300000Y-80550000D01*
X150300000Y-72750000D02*
X154300000Y-72750000D01*
X150300000Y-76350000D02*
X150300000Y-72750000D01*
X152300000Y-68550000D02*
X149800000Y-68550000D01*
X152300000Y-68550000D02*
X152300000Y-72750000D01*
X152300000Y-76350000D02*
X152300000Y-80550000D01*
X154300000Y-72750000D02*
X154300000Y-76350000D01*
X154300000Y-76350000D02*
X150300000Y-72750000D01*
X154300000Y-76350000D02*
X150300000Y-76350000D01*
X155700000Y-74550000D02*
X155700000Y-78150000D01*
X155700000Y-74550000D02*
X157200000Y-74550000D01*
X155700000Y-78150000D02*
X148900000Y-78150000D01*
X157200000Y-74550000D02*
X161800000Y-72050000D01*
X160400000Y-70300000D02*
X160400000Y-72800000D01*
X160400000Y-78700000D02*
X160400000Y-76250000D01*
X164650000Y-66700000D02*
X164650000Y-82300000D01*
X164650000Y-82300000D02*
X144850000Y-82300000D01*
%TO.C,R11*%
X90196800Y-62433200D02*
X89426800Y-62433200D01*
X89426800Y-63803200D02*
X89426800Y-61063200D01*
X89426800Y-61063200D02*
X82886800Y-61063200D01*
X82886800Y-63803200D02*
X89426800Y-63803200D01*
X82886800Y-61063200D02*
X82886800Y-63803200D01*
X82116800Y-62433200D02*
X82886800Y-62433200D01*
%TO.C,K8*%
X124450000Y-66650000D02*
X124450000Y-73250000D01*
X124450000Y-66650000D02*
X144250000Y-66650000D01*
X124450000Y-75650000D02*
X124450000Y-82250000D01*
X128500000Y-74500000D02*
X127700000Y-74500000D01*
X128500000Y-74500000D02*
X128500000Y-78100000D01*
X129400000Y-80500000D02*
X131900000Y-80500000D01*
X129900000Y-72700000D02*
X133900000Y-72700000D01*
X129900000Y-76300000D02*
X129900000Y-72700000D01*
X131900000Y-68500000D02*
X129400000Y-68500000D01*
X131900000Y-68500000D02*
X131900000Y-72700000D01*
X131900000Y-76300000D02*
X131900000Y-80500000D01*
X133900000Y-72700000D02*
X133900000Y-76300000D01*
X133900000Y-76300000D02*
X129900000Y-72700000D01*
X133900000Y-76300000D02*
X129900000Y-76300000D01*
X135300000Y-74500000D02*
X135300000Y-78100000D01*
X135300000Y-74500000D02*
X136800000Y-74500000D01*
X135300000Y-78100000D02*
X128500000Y-78100000D01*
X136800000Y-74500000D02*
X141400000Y-72000000D01*
X140000000Y-70250000D02*
X140000000Y-72750000D01*
X140000000Y-78650000D02*
X140000000Y-76200000D01*
X144250000Y-66650000D02*
X144250000Y-82250000D01*
X144250000Y-82250000D02*
X124450000Y-82250000D01*
%TO.C,J12*%
X56226400Y-63356800D02*
X56226400Y-62026800D01*
X57556400Y-63356800D02*
X56226400Y-63356800D01*
X58826400Y-63356800D02*
X63966400Y-63356800D01*
X58826400Y-63356800D02*
X58826400Y-60696800D01*
X63966400Y-63356800D02*
X63966400Y-60696800D01*
X58826400Y-60696800D02*
X63966400Y-60696800D01*
%TO.C,Q6*%
X149307200Y-57496800D02*
X153157200Y-57496800D01*
X153195811Y-57486922D02*
G75*
G03*
X149307200Y-57496800I-1948611J1690122D01*
G01*
%TO.C,Q5*%
X149307200Y-110887600D02*
X153157200Y-110887600D01*
X153195811Y-110877722D02*
G75*
G03*
X149307200Y-110887600I-1948611J1690122D01*
G01*
%TO.C,Y1*%
X96128400Y-96946000D02*
X91628400Y-96946000D01*
X96128400Y-93046000D02*
X91628400Y-93046000D01*
X96128400Y-96946000D02*
G75*
G03*
X96128400Y-93046000I0J1950000D01*
G01*
X91628400Y-93046000D02*
G75*
G03*
X91628400Y-96946000I0J-1950000D01*
G01*
%TO.C,Q3*%
X170166800Y-111504400D02*
X174016800Y-111504400D01*
X174055411Y-111494522D02*
G75*
G03*
X170166800Y-111504400I-1948611J1690122D01*
G01*
%TO.C,Volt_regulator1*%
X80772000Y-89865200D02*
X64262000Y-89865200D01*
X80772000Y-89865200D02*
X80772000Y-111455200D01*
X64262000Y-89865200D02*
X64258000Y-111455200D01*
X80772000Y-111455200D02*
X64258000Y-111455200D01*
%TO.C,J3*%
X185242400Y-111150600D02*
X185242400Y-101117600D01*
X185242400Y-101117600D02*
X175082400Y-101117600D01*
X175082400Y-111150600D02*
X185242400Y-111150600D01*
X175082400Y-104292600D02*
X185242400Y-104292600D01*
X175082400Y-101117600D02*
X175082400Y-111150600D01*
%TO.C,R6*%
X111301600Y-71145600D02*
X112071600Y-71145600D01*
X112071600Y-69775600D02*
X112071600Y-72515600D01*
X112071600Y-72515600D02*
X118611600Y-72515600D01*
X118611600Y-69775600D02*
X112071600Y-69775600D01*
X118611600Y-72515600D02*
X118611600Y-69775600D01*
X119381600Y-71145600D02*
X118611600Y-71145600D01*
%TO.C,D3*%
X167208400Y-101390800D02*
X167208400Y-102410800D01*
X168678400Y-102410800D02*
X165738400Y-102410800D01*
X165738400Y-102410800D02*
X165738400Y-107850800D01*
X168678400Y-103190800D02*
X165738400Y-103190800D01*
X168678400Y-103310800D02*
X165738400Y-103310800D01*
X168678400Y-103430800D02*
X165738400Y-103430800D01*
X168678400Y-107850800D02*
X168678400Y-102410800D01*
X165738400Y-107850800D02*
X168678400Y-107850800D01*
X167208400Y-108870800D02*
X167208400Y-107850800D01*
%TO.C,BJ1*%
X63676400Y-81520000D02*
X63676400Y-83260000D01*
X61936400Y-81520000D02*
X63676400Y-81520000D01*
X63436400Y-81760000D02*
X63436400Y-84560000D01*
X48836400Y-81760000D02*
X63436400Y-81760000D01*
X63436400Y-88160000D02*
X63436400Y-90960000D01*
X63436400Y-90960000D02*
X61436400Y-90960000D01*
X57836400Y-90960000D02*
X48836400Y-90960000D01*
X48836400Y-90960000D02*
X48836400Y-81760000D01*
%TO.C,R5*%
X111149200Y-87046000D02*
X111919200Y-87046000D01*
X111919200Y-85676000D02*
X111919200Y-88416000D01*
X111919200Y-88416000D02*
X118459200Y-88416000D01*
X118459200Y-85676000D02*
X111919200Y-85676000D01*
X118459200Y-88416000D02*
X118459200Y-85676000D01*
X119229200Y-87046000D02*
X118459200Y-87046000D01*
%TO.C,J4*%
X174980800Y-53238600D02*
X174980800Y-63271600D01*
X174980800Y-63271600D02*
X185140800Y-63271600D01*
X185140800Y-53238600D02*
X174980800Y-53238600D01*
X185140800Y-60096600D02*
X174980800Y-60096600D01*
X185140800Y-63271600D02*
X185140800Y-53238600D01*
%TO.C,Y2*%
X82865347Y-102577810D02*
G75*
G03*
X82866000Y-104077200I700653J-749390D01*
G01*
X84266000Y-104077200D02*
G75*
G03*
X84266653Y-102577810I-700000J750000D01*
G01*
%TO.C,J7*%
X143738800Y-110940800D02*
X143738800Y-100907800D01*
X143738800Y-100907800D02*
X133578800Y-100907800D01*
X133578800Y-110940800D02*
X143738800Y-110940800D01*
X133578800Y-104082800D02*
X143738800Y-104082800D01*
X133578800Y-100907800D02*
X133578800Y-110940800D01*
%TO.C,C1*%
X81380000Y-108811200D02*
X81380000Y-111051200D01*
X81380000Y-108811200D02*
X86220000Y-108811200D01*
X81380000Y-111051200D02*
X86220000Y-111051200D01*
X86220000Y-108811200D02*
X86220000Y-111051200D01*
%TO.C,K3*%
X185134800Y-98300400D02*
X185134800Y-91700400D01*
X185134800Y-98300400D02*
X165334800Y-98300400D01*
X185134800Y-89300400D02*
X185134800Y-82700400D01*
X181084800Y-90450400D02*
X181884800Y-90450400D01*
X181084800Y-90450400D02*
X181084800Y-86850400D01*
X180184800Y-84450400D02*
X177684800Y-84450400D01*
X179684800Y-92250400D02*
X175684800Y-92250400D01*
X179684800Y-88650400D02*
X179684800Y-92250400D01*
X177684800Y-96450400D02*
X180184800Y-96450400D01*
X177684800Y-96450400D02*
X177684800Y-92250400D01*
X177684800Y-88650400D02*
X177684800Y-84450400D01*
X175684800Y-92250400D02*
X175684800Y-88650400D01*
X175684800Y-88650400D02*
X179684800Y-92250400D01*
X175684800Y-88650400D02*
X179684800Y-88650400D01*
X174284800Y-90450400D02*
X174284800Y-86850400D01*
X174284800Y-90450400D02*
X172784800Y-90450400D01*
X174284800Y-86850400D02*
X181084800Y-86850400D01*
X172784800Y-90450400D02*
X168184800Y-92950400D01*
X169584800Y-94700400D02*
X169584800Y-92200400D01*
X169584800Y-86300400D02*
X169584800Y-88750400D01*
X165334800Y-98300400D02*
X165334800Y-82700400D01*
X165334800Y-82700400D02*
X185134800Y-82700400D01*
%TO.C,Q8*%
X128580800Y-57496800D02*
X132430800Y-57496800D01*
X132469411Y-57486922D02*
G75*
G03*
X128580800Y-57496800I-1948611J1690122D01*
G01*
%TO.C,R13*%
X106859200Y-103530400D02*
X106089200Y-103530400D01*
X106089200Y-104900400D02*
X106089200Y-102160400D01*
X106089200Y-102160400D02*
X99549200Y-102160400D01*
X99549200Y-104900400D02*
X106089200Y-104900400D01*
X99549200Y-102160400D02*
X99549200Y-104900400D01*
X98779200Y-103530400D02*
X99549200Y-103530400D01*
%TO.C,J11*%
X62230000Y-80467200D02*
X60960000Y-80467200D01*
X62230000Y-79197200D02*
X62230000Y-80467200D01*
X59917071Y-77037200D02*
X59462929Y-77037200D01*
X59917071Y-76277200D02*
X59462929Y-76277200D01*
X59917071Y-74497200D02*
X59462929Y-74497200D01*
X59917071Y-73737200D02*
X59462929Y-73737200D01*
X59850000Y-79577200D02*
X59462929Y-79577200D01*
X59850000Y-78817200D02*
X59462929Y-78817200D01*
X57377071Y-79577200D02*
X56980000Y-79577200D01*
X57377071Y-78817200D02*
X56980000Y-78817200D01*
X57377071Y-77037200D02*
X56980000Y-77037200D01*
X57377071Y-76277200D02*
X56980000Y-76277200D01*
X57377071Y-74497200D02*
X56980000Y-74497200D01*
X57377071Y-73737200D02*
X56980000Y-73737200D01*
X56980000Y-80527200D02*
X56980000Y-72787200D01*
X56980000Y-77927200D02*
X54320000Y-77927200D01*
X56980000Y-75387200D02*
X54320000Y-75387200D01*
X56980000Y-72787200D02*
X54320000Y-72787200D01*
X54320000Y-80527200D02*
X56980000Y-80527200D01*
X54320000Y-79577200D02*
X48320000Y-79577200D01*
X54320000Y-79517200D02*
X48320000Y-79517200D01*
X54320000Y-79397200D02*
X48320000Y-79397200D01*
X54320000Y-79277200D02*
X48320000Y-79277200D01*
X54320000Y-79157200D02*
X48320000Y-79157200D01*
X54320000Y-79037200D02*
X48320000Y-79037200D01*
X54320000Y-78917200D02*
X48320000Y-78917200D01*
X54320000Y-77037200D02*
X48320000Y-77037200D01*
X54320000Y-74497200D02*
X48320000Y-74497200D01*
X54320000Y-72787200D02*
X54320000Y-80527200D01*
X48320000Y-79577200D02*
X48320000Y-78817200D01*
X48320000Y-78817200D02*
X54320000Y-78817200D01*
X48320000Y-77037200D02*
X48320000Y-76277200D01*
X48320000Y-76277200D02*
X54320000Y-76277200D01*
X48320000Y-74497200D02*
X48320000Y-73737200D01*
X48320000Y-73737200D02*
X54320000Y-73737200D01*
%TO.C,D4*%
X167462400Y-63347400D02*
X167462400Y-62327400D01*
X165992400Y-62327400D02*
X168932400Y-62327400D01*
X168932400Y-62327400D02*
X168932400Y-56887400D01*
X165992400Y-61547400D02*
X168932400Y-61547400D01*
X165992400Y-61427400D02*
X168932400Y-61427400D01*
X165992400Y-61307400D02*
X168932400Y-61307400D01*
X165992400Y-56887400D02*
X165992400Y-62327400D01*
X168932400Y-56887400D02*
X165992400Y-56887400D01*
X167462400Y-55867400D02*
X167462400Y-56887400D01*
%TO.C,D2*%
X187172800Y-101390800D02*
X187172800Y-102410800D01*
X188642800Y-102410800D02*
X185702800Y-102410800D01*
X185702800Y-102410800D02*
X185702800Y-107850800D01*
X188642800Y-103190800D02*
X185702800Y-103190800D01*
X188642800Y-103310800D02*
X185702800Y-103310800D01*
X188642800Y-103430800D02*
X185702800Y-103430800D01*
X188642800Y-107850800D02*
X188642800Y-102410800D01*
X185702800Y-107850800D02*
X188642800Y-107850800D01*
X187172800Y-108870800D02*
X187172800Y-107850800D01*
%TO.C,D1*%
X187122000Y-63455600D02*
X187122000Y-62435600D01*
X185652000Y-62435600D02*
X188592000Y-62435600D01*
X188592000Y-62435600D02*
X188592000Y-56995600D01*
X185652000Y-61655600D02*
X188592000Y-61655600D01*
X185652000Y-61535600D02*
X188592000Y-61535600D01*
X185652000Y-61415600D02*
X188592000Y-61415600D01*
X185652000Y-56995600D02*
X185652000Y-62435600D01*
X188592000Y-56995600D02*
X185652000Y-56995600D01*
X187122000Y-55975600D02*
X187122000Y-56995600D01*
%TO.C,J8*%
X133528000Y-53181200D02*
X133528000Y-63214200D01*
X133528000Y-63214200D02*
X143688000Y-63214200D01*
X143688000Y-53181200D02*
X133528000Y-53181200D01*
X143688000Y-60039200D02*
X133528000Y-60039200D01*
X143688000Y-63214200D02*
X143688000Y-53181200D01*
%TO.C,C3*%
X95857200Y-92590000D02*
X98097200Y-92590000D01*
X95857200Y-92590000D02*
X95857200Y-87750000D01*
X98097200Y-92590000D02*
X98097200Y-87750000D01*
X95857200Y-87750000D02*
X98097200Y-87750000D01*
%TO.C,J9*%
X53467000Y-103276400D02*
X63500000Y-103276400D01*
X63500000Y-103276400D02*
X63500000Y-93116400D01*
X53467000Y-93116400D02*
X53467000Y-103276400D01*
X60325000Y-93116400D02*
X60325000Y-103276400D01*
X63500000Y-93116400D02*
X53467000Y-93116400D01*
%TO.C,K1*%
X185850000Y-66700000D02*
X185850000Y-73300000D01*
X185850000Y-66700000D02*
X205650000Y-66700000D01*
X185850000Y-75700000D02*
X185850000Y-82300000D01*
X189900000Y-74550000D02*
X189100000Y-74550000D01*
X189900000Y-74550000D02*
X189900000Y-78150000D01*
X190800000Y-80550000D02*
X193300000Y-80550000D01*
X191300000Y-72750000D02*
X195300000Y-72750000D01*
X191300000Y-76350000D02*
X191300000Y-72750000D01*
X193300000Y-68550000D02*
X190800000Y-68550000D01*
X193300000Y-68550000D02*
X193300000Y-72750000D01*
X193300000Y-76350000D02*
X193300000Y-80550000D01*
X195300000Y-72750000D02*
X195300000Y-76350000D01*
X195300000Y-76350000D02*
X191300000Y-72750000D01*
X195300000Y-76350000D02*
X191300000Y-76350000D01*
X196700000Y-74550000D02*
X196700000Y-78150000D01*
X196700000Y-74550000D02*
X198200000Y-74550000D01*
X196700000Y-78150000D02*
X189900000Y-78150000D01*
X198200000Y-74550000D02*
X202800000Y-72050000D01*
X201400000Y-70300000D02*
X201400000Y-72800000D01*
X201400000Y-78700000D02*
X201400000Y-76250000D01*
X205650000Y-66700000D02*
X205650000Y-82300000D01*
X205650000Y-82300000D02*
X185850000Y-82300000D01*
%TO.C,Q7*%
X128580800Y-111040000D02*
X132430800Y-111040000D01*
X132469411Y-111030122D02*
G75*
G03*
X128580800Y-111040000I-1948611J1690122D01*
G01*
%TO.C,J6*%
X154457600Y-53086200D02*
X154457600Y-63119200D01*
X154457600Y-63119200D02*
X164617600Y-63119200D01*
X164617600Y-53086200D02*
X154457600Y-53086200D01*
X164617600Y-59944200D02*
X154457600Y-59944200D01*
X164617600Y-63119200D02*
X164617600Y-53086200D01*
%TO.C,J10*%
X70053200Y-63407600D02*
X77733200Y-63407600D01*
X70053200Y-63407600D02*
X70053200Y-60747600D01*
X77733200Y-63407600D02*
X77733200Y-60747600D01*
X67453200Y-62077600D02*
X67453200Y-60747600D01*
X67453200Y-60747600D02*
X68783200Y-60747600D01*
X70053200Y-60747600D02*
X77733200Y-60747600D01*
%TO.C,R2*%
X111200000Y-80696000D02*
X111970000Y-80696000D01*
X111970000Y-79326000D02*
X111970000Y-82066000D01*
X111970000Y-82066000D02*
X118510000Y-82066000D01*
X118510000Y-79326000D02*
X111970000Y-79326000D01*
X118510000Y-82066000D02*
X118510000Y-79326000D01*
X119280000Y-80696000D02*
X118510000Y-80696000D01*
%TO.C,R8*%
X111301600Y-67996000D02*
X112071600Y-67996000D01*
X112071600Y-66626000D02*
X112071600Y-69366000D01*
X112071600Y-69366000D02*
X118611600Y-69366000D01*
X118611600Y-66626000D02*
X112071600Y-66626000D01*
X118611600Y-69366000D02*
X118611600Y-66626000D01*
X119381600Y-67996000D02*
X118611600Y-67996000D01*
%TO.C,D8*%
X126009600Y-63201600D02*
X126009600Y-62181600D01*
X124539600Y-62181600D02*
X127479600Y-62181600D01*
X127479600Y-62181600D02*
X127479600Y-56741600D01*
X124539600Y-61401600D02*
X127479600Y-61401600D01*
X124539600Y-61281600D02*
X127479600Y-61281600D01*
X124539600Y-61161600D02*
X127479600Y-61161600D01*
X124539600Y-56741600D02*
X124539600Y-62181600D01*
X127479600Y-56741600D02*
X124539600Y-56741600D01*
X126009600Y-55721600D02*
X126009600Y-56741600D01*
%TO.C,R4*%
X111250800Y-74498400D02*
X112020800Y-74498400D01*
X112020800Y-73128400D02*
X112020800Y-75868400D01*
X112020800Y-75868400D02*
X118560800Y-75868400D01*
X118560800Y-73128400D02*
X112020800Y-73128400D01*
X118560800Y-75868400D02*
X118560800Y-73128400D01*
X119330800Y-74498400D02*
X118560800Y-74498400D01*
%TO.C,BT1*%
X81886800Y-95062400D02*
X81886800Y-89362400D01*
X87886800Y-95062400D02*
X81886800Y-95062400D01*
X87886800Y-95062400D02*
X87886800Y-89362400D01*
X88413184Y-88610646D02*
G75*
G03*
X87886800Y-89362400I273616J-751754D01*
G01*
X84932081Y-66166729D02*
G75*
G03*
X81386800Y-88612400I-45281J-11495671D01*
G01*
X81886799Y-89362400D02*
G75*
G03*
X81360416Y-88610647I-799999J0D01*
G01*
X88386800Y-88612400D02*
G75*
G03*
X84841519Y-66166729I-3500000J10950000D01*
G01*
%TO.C,Q1*%
X189775600Y-57605600D02*
X193625600Y-57605600D01*
X193664211Y-57595722D02*
G75*
G03*
X189775600Y-57605600I-1948611J1690122D01*
G01*
%TO.C,D6*%
X146736000Y-63195000D02*
X146736000Y-62175000D01*
X145266000Y-62175000D02*
X148206000Y-62175000D01*
X148206000Y-62175000D02*
X148206000Y-56735000D01*
X145266000Y-61395000D02*
X148206000Y-61395000D01*
X145266000Y-61275000D02*
X148206000Y-61275000D01*
X145266000Y-61155000D02*
X148206000Y-61155000D01*
X145266000Y-56735000D02*
X145266000Y-62175000D01*
X148206000Y-56735000D02*
X145266000Y-56735000D01*
X146736000Y-55715000D02*
X146736000Y-56735000D01*
%TO.C,D7*%
X125755600Y-101390800D02*
X125755600Y-102410800D01*
X127225600Y-102410800D02*
X124285600Y-102410800D01*
X124285600Y-102410800D02*
X124285600Y-107850800D01*
X127225600Y-103190800D02*
X124285600Y-103190800D01*
X127225600Y-103310800D02*
X124285600Y-103310800D01*
X127225600Y-103430800D02*
X124285600Y-103430800D01*
X127225600Y-107850800D02*
X127225600Y-102410800D01*
X124285600Y-107850800D02*
X127225600Y-107850800D01*
X125755600Y-108870800D02*
X125755600Y-107850800D01*
%TO.C,R1*%
X111200000Y-77597200D02*
X111970000Y-77597200D01*
X111970000Y-76227200D02*
X111970000Y-78967200D01*
X111970000Y-78967200D02*
X118510000Y-78967200D01*
X118510000Y-76227200D02*
X111970000Y-76227200D01*
X118510000Y-78967200D02*
X118510000Y-76227200D01*
X119280000Y-77597200D02*
X118510000Y-77597200D01*
%TO.C,D5*%
X146278800Y-101340000D02*
X146278800Y-102360000D01*
X147748800Y-102360000D02*
X144808800Y-102360000D01*
X144808800Y-102360000D02*
X144808800Y-107800000D01*
X147748800Y-103140000D02*
X144808800Y-103140000D01*
X147748800Y-103260000D02*
X144808800Y-103260000D01*
X147748800Y-103380000D02*
X144808800Y-103380000D01*
X147748800Y-107800000D02*
X147748800Y-102360000D01*
X144808800Y-107800000D02*
X147748800Y-107800000D01*
X146278800Y-108820000D02*
X146278800Y-107800000D01*
%TO.C,K7*%
X144291600Y-98249600D02*
X144291600Y-91649600D01*
X144291600Y-98249600D02*
X124491600Y-98249600D01*
X144291600Y-89249600D02*
X144291600Y-82649600D01*
X140241600Y-90399600D02*
X141041600Y-90399600D01*
X140241600Y-90399600D02*
X140241600Y-86799600D01*
X139341600Y-84399600D02*
X136841600Y-84399600D01*
X138841600Y-92199600D02*
X134841600Y-92199600D01*
X138841600Y-88599600D02*
X138841600Y-92199600D01*
X136841600Y-96399600D02*
X139341600Y-96399600D01*
X136841600Y-96399600D02*
X136841600Y-92199600D01*
X136841600Y-88599600D02*
X136841600Y-84399600D01*
X134841600Y-92199600D02*
X134841600Y-88599600D01*
X134841600Y-88599600D02*
X138841600Y-92199600D01*
X134841600Y-88599600D02*
X138841600Y-88599600D01*
X133441600Y-90399600D02*
X133441600Y-86799600D01*
X133441600Y-90399600D02*
X131941600Y-90399600D01*
X133441600Y-86799600D02*
X140241600Y-86799600D01*
X131941600Y-90399600D02*
X127341600Y-92899600D01*
X128741600Y-94649600D02*
X128741600Y-92149600D01*
X128741600Y-86249600D02*
X128741600Y-88699600D01*
X124491600Y-98249600D02*
X124491600Y-82649600D01*
X124491600Y-82649600D02*
X144291600Y-82649600D01*
%TO.C,K4*%
X165450000Y-66650000D02*
X165450000Y-73250000D01*
X165450000Y-66650000D02*
X185250000Y-66650000D01*
X165450000Y-75650000D02*
X165450000Y-82250000D01*
X169500000Y-74500000D02*
X168700000Y-74500000D01*
X169500000Y-74500000D02*
X169500000Y-78100000D01*
X170400000Y-80500000D02*
X172900000Y-80500000D01*
X170900000Y-72700000D02*
X174900000Y-72700000D01*
X170900000Y-76300000D02*
X170900000Y-72700000D01*
X172900000Y-68500000D02*
X170400000Y-68500000D01*
X172900000Y-68500000D02*
X172900000Y-72700000D01*
X172900000Y-76300000D02*
X172900000Y-80500000D01*
X174900000Y-72700000D02*
X174900000Y-76300000D01*
X174900000Y-76300000D02*
X170900000Y-72700000D01*
X174900000Y-76300000D02*
X170900000Y-76300000D01*
X176300000Y-74500000D02*
X176300000Y-78100000D01*
X176300000Y-74500000D02*
X177800000Y-74500000D01*
X176300000Y-78100000D02*
X169500000Y-78100000D01*
X177800000Y-74500000D02*
X182400000Y-72000000D01*
X181000000Y-70250000D02*
X181000000Y-72750000D01*
X181000000Y-78650000D02*
X181000000Y-76200000D01*
X185250000Y-66650000D02*
X185250000Y-82250000D01*
X185250000Y-82250000D02*
X165450000Y-82250000D01*
%TO.C,U1*%
X106307600Y-97062800D02*
X106307600Y-61382800D01*
X106307600Y-61382800D02*
X101007600Y-61382800D01*
X104657600Y-97062800D02*
X106307600Y-97062800D01*
X101007600Y-97062800D02*
X102657600Y-97062800D01*
X101007600Y-61382800D02*
X101007600Y-97062800D01*
X104657600Y-97062800D02*
G75*
G03*
X102657600Y-97062800I-1000000J0D01*
G01*
%TO.C,K2*%
X205505600Y-98402000D02*
X205505600Y-91802000D01*
X205505600Y-98402000D02*
X185705600Y-98402000D01*
X205505600Y-89402000D02*
X205505600Y-82802000D01*
X201455600Y-90552000D02*
X202255600Y-90552000D01*
X201455600Y-90552000D02*
X201455600Y-86952000D01*
X200555600Y-84552000D02*
X198055600Y-84552000D01*
X200055600Y-92352000D02*
X196055600Y-92352000D01*
X200055600Y-88752000D02*
X200055600Y-92352000D01*
X198055600Y-96552000D02*
X200555600Y-96552000D01*
X198055600Y-96552000D02*
X198055600Y-92352000D01*
X198055600Y-88752000D02*
X198055600Y-84552000D01*
X196055600Y-92352000D02*
X196055600Y-88752000D01*
X196055600Y-88752000D02*
X200055600Y-92352000D01*
X196055600Y-88752000D02*
X200055600Y-88752000D01*
X194655600Y-90552000D02*
X194655600Y-86952000D01*
X194655600Y-90552000D02*
X193155600Y-90552000D01*
X194655600Y-86952000D02*
X201455600Y-86952000D01*
X193155600Y-90552000D02*
X188555600Y-93052000D01*
X189955600Y-94802000D02*
X189955600Y-92302000D01*
X189955600Y-86402000D02*
X189955600Y-88852000D01*
X185705600Y-98402000D02*
X185705600Y-82802000D01*
X185705600Y-82802000D02*
X205505600Y-82802000D01*
%TO.C,C2*%
X93164800Y-92590000D02*
X95404800Y-92590000D01*
X93164800Y-92590000D02*
X93164800Y-87750000D01*
X95404800Y-92590000D02*
X95404800Y-87750000D01*
X93164800Y-87750000D02*
X95404800Y-87750000D01*
%TO.C,U2*%
X88993200Y-100930400D02*
X88993200Y-111210400D01*
X88993200Y-111210400D02*
X94293200Y-111210400D01*
X90643200Y-100930400D02*
X88993200Y-100930400D01*
X94293200Y-100930400D02*
X92643200Y-100930400D01*
X94293200Y-111210400D02*
X94293200Y-100930400D01*
X90643200Y-100930400D02*
G75*
G03*
X92643200Y-100930400I1000000J0D01*
G01*
%TO.C,J5*%
X164668400Y-111404600D02*
X164668400Y-101371600D01*
X164668400Y-101371600D02*
X154508400Y-101371600D01*
X154508400Y-111404600D02*
X164668400Y-111404600D01*
X154508400Y-104546600D02*
X164668400Y-104546600D01*
X154508400Y-101371600D02*
X154508400Y-111404600D01*
%TO.C,R3*%
X111200000Y-83896400D02*
X111970000Y-83896400D01*
X111970000Y-82526400D02*
X111970000Y-85266400D01*
X111970000Y-85266400D02*
X118510000Y-85266400D01*
X118510000Y-82526400D02*
X111970000Y-82526400D01*
X118510000Y-85266400D02*
X118510000Y-82526400D01*
X119280000Y-83896400D02*
X118510000Y-83896400D01*
%TO.C,R7*%
X111098400Y-90144800D02*
X111868400Y-90144800D01*
X111868400Y-88774800D02*
X111868400Y-91514800D01*
X111868400Y-91514800D02*
X118408400Y-91514800D01*
X118408400Y-88774800D02*
X111868400Y-88774800D01*
X118408400Y-91514800D02*
X118408400Y-88774800D01*
X119178400Y-90144800D02*
X118408400Y-90144800D01*
%TD*%
M02*
