%TF.GenerationSoftware,KiCad,Pcbnew,7.0.7*%
%TF.CreationDate,2024-02-15T10:33:02+01:00*%
%TF.ProjectId,Projektarbete_P3,50726f6a-656b-4746-9172-626574655f50,rev?*%
%TF.SameCoordinates,Original*%
%TF.FileFunction,Copper,L2,Bot*%
%TF.FilePolarity,Positive*%
%FSLAX46Y46*%
G04 Gerber Fmt 4.6, Leading zero omitted, Abs format (unit mm)*
G04 Created by KiCad (PCBNEW 7.0.7) date 2024-02-15 10:33:02*
%MOMM*%
%LPD*%
G01*
G04 APERTURE LIST*
G04 Aperture macros list*
%AMRoundRect*
0 Rectangle with rounded corners*
0 $1 Rounding radius*
0 $2 $3 $4 $5 $6 $7 $8 $9 X,Y pos of 4 corners*
0 Add a 4 corners polygon primitive as box body*
4,1,4,$2,$3,$4,$5,$6,$7,$8,$9,$2,$3,0*
0 Add four circle primitives for the rounded corners*
1,1,$1+$1,$2,$3*
1,1,$1+$1,$4,$5*
1,1,$1+$1,$6,$7*
1,1,$1+$1,$8,$9*
0 Add four rect primitives between the rounded corners*
20,1,$1+$1,$2,$3,$4,$5,0*
20,1,$1+$1,$4,$5,$6,$7,0*
20,1,$1+$1,$6,$7,$8,$9,0*
20,1,$1+$1,$8,$9,$2,$3,0*%
G04 Aperture macros list end*
%TA.AperFunction,ComponentPad*%
%ADD10R,3.000000X3.000000*%
%TD*%
%TA.AperFunction,ComponentPad*%
%ADD11C,3.000000*%
%TD*%
%TA.AperFunction,ComponentPad*%
%ADD12R,1.050000X1.500000*%
%TD*%
%TA.AperFunction,ComponentPad*%
%ADD13O,1.050000X1.500000*%
%TD*%
%TA.AperFunction,ComponentPad*%
%ADD14C,1.600000*%
%TD*%
%TA.AperFunction,ComponentPad*%
%ADD15O,1.600000X1.600000*%
%TD*%
%TA.AperFunction,ComponentPad*%
%ADD16C,2.000000*%
%TD*%
%TA.AperFunction,ComponentPad*%
%ADD17C,2.500000*%
%TD*%
%TA.AperFunction,ComponentPad*%
%ADD18R,1.700000X1.700000*%
%TD*%
%TA.AperFunction,ComponentPad*%
%ADD19O,1.700000X1.700000*%
%TD*%
%TA.AperFunction,ComponentPad*%
%ADD20C,1.700000*%
%TD*%
%TA.AperFunction,ComponentPad*%
%ADD21RoundRect,0.625000X-0.625000X0.625000X-0.625000X-0.625000X0.625000X-0.625000X0.625000X0.625000X0*%
%TD*%
%TA.AperFunction,ComponentPad*%
%ADD22R,2.200000X2.200000*%
%TD*%
%TA.AperFunction,ComponentPad*%
%ADD23O,2.200000X2.200000*%
%TD*%
%TA.AperFunction,ComponentPad*%
%ADD24R,2.600000X2.600000*%
%TD*%
%TA.AperFunction,ComponentPad*%
%ADD25C,2.600000*%
%TD*%
%TA.AperFunction,ComponentPad*%
%ADD26C,1.000000*%
%TD*%
%TA.AperFunction,ComponentPad*%
%ADD27C,1.400000*%
%TD*%
%TA.AperFunction,ComponentPad*%
%ADD28R,1.600000X1.600000*%
%TD*%
%TA.AperFunction,Conductor*%
%ADD29C,0.250000*%
%TD*%
%TA.AperFunction,Conductor*%
%ADD30C,1.000000*%
%TD*%
G04 APERTURE END LIST*
D10*
%TO.P,J2,1,Pin_1*%
%TO.N,Net-(J2-Pin_1)*%
X202666800Y-106248400D03*
D11*
%TO.P,J2,2,Pin_2*%
%TO.N,GND*%
X197586800Y-106248400D03*
%TD*%
D12*
%TO.P,Q4,1,C*%
%TO.N,Net-(D4-A)*%
X170764400Y-55956400D03*
D13*
%TO.P,Q4,2,B*%
%TO.N,Net-(Q4-B)*%
X172034400Y-55956400D03*
%TO.P,Q4,3,E*%
%TO.N,GND*%
X173304400Y-55956400D03*
%TD*%
D12*
%TO.P,Q2,1,C*%
%TO.N,Net-(D2-A)*%
X190595600Y-109543200D03*
D13*
%TO.P,Q2,2,B*%
%TO.N,Net-(Q2-B)*%
X191865600Y-109543200D03*
%TO.P,Q2,3,E*%
%TO.N,GND*%
X193135600Y-109543200D03*
%TD*%
D14*
%TO.P,R9,1*%
%TO.N,+5V*%
X115240000Y-102997200D03*
D15*
%TO.P,R9,2*%
%TO.N,/Resetbutton*%
X115240000Y-92837200D03*
%TD*%
D14*
%TO.P,R10,1*%
%TO.N,+5V*%
X91236800Y-59334400D03*
D15*
%TO.P,R10,2*%
%TO.N,/AnalogPin4{slash}SDA*%
X81076800Y-59334400D03*
%TD*%
D16*
%TO.P,SW1,1,1*%
%TO.N,Net-(C1-Pad2)*%
X61873200Y-109844400D03*
%TO.P,SW1,2,2*%
%TO.N,GND*%
X54862800Y-109844400D03*
%TO.P,SW1,3,K*%
%TO.N,/Resetbutton*%
X54862800Y-104815200D03*
%TO.P,SW1,4,A*%
%TO.N,Net-(SW1-A)*%
X61924000Y-104815200D03*
%TD*%
D10*
%TO.P,J1,1,Pin_1*%
%TO.N,Net-(J1-Pin_1)*%
X197416000Y-58140200D03*
D11*
%TO.P,J1,2,Pin_2*%
%TO.N,GND*%
X202496000Y-58140200D03*
%TD*%
D14*
%TO.P,R12,1*%
%TO.N,+5V*%
X81026000Y-56134000D03*
D15*
%TO.P,R12,2*%
%TO.N,/AnalogPin0*%
X91186000Y-56134000D03*
%TD*%
D11*
%TO.P,K5,1*%
%TO.N,/Power_input*%
X163008400Y-90449600D03*
D17*
%TO.P,K5,2*%
%TO.N,Net-(D5-A)*%
X161058400Y-84399600D03*
D11*
%TO.P,K5,3*%
%TO.N,unconnected-(K5-Pad3)*%
X148858400Y-84399600D03*
%TO.P,K5,4*%
%TO.N,Net-(J5-Pin_1)*%
X148808400Y-96449600D03*
D17*
%TO.P,K5,5*%
%TO.N,+5V*%
X161058400Y-96399600D03*
%TD*%
D11*
%TO.P,K6,1*%
%TO.N,/Power_input*%
X146250000Y-74500000D03*
D17*
%TO.P,K6,2*%
%TO.N,Net-(D6-A)*%
X148200000Y-80550000D03*
D11*
%TO.P,K6,3*%
%TO.N,unconnected-(K6-Pad3)*%
X160400000Y-80550000D03*
%TO.P,K6,4*%
%TO.N,Net-(J6-Pin_1)*%
X160450000Y-68500000D03*
D17*
%TO.P,K6,5*%
%TO.N,+5V*%
X148200000Y-68550000D03*
%TD*%
D14*
%TO.P,R11,1*%
%TO.N,+5V*%
X91236800Y-62433200D03*
D15*
%TO.P,R11,2*%
%TO.N,/AnalogPin5{slash}SCL*%
X81076800Y-62433200D03*
%TD*%
D11*
%TO.P,K8,1*%
%TO.N,/Power_input*%
X125850000Y-74450000D03*
D17*
%TO.P,K8,2*%
%TO.N,Net-(D8-A)*%
X127800000Y-80500000D03*
D11*
%TO.P,K8,3*%
%TO.N,unconnected-(K8-Pad3)*%
X140000000Y-80500000D03*
%TO.P,K8,4*%
%TO.N,Net-(J8-Pin_1)*%
X140050000Y-68450000D03*
D17*
%TO.P,K8,5*%
%TO.N,+5V*%
X127800000Y-68500000D03*
%TD*%
D18*
%TO.P,J12,1,Pin_1*%
%TO.N,+5V*%
X57556400Y-62026800D03*
D19*
%TO.P,J12,2,Pin_2*%
%TO.N,/AnalogPin0*%
X60096400Y-62026800D03*
%TO.P,J12,3,Pin_3*%
%TO.N,GND*%
X62636400Y-62026800D03*
%TD*%
D12*
%TO.P,Q6,1,C*%
%TO.N,Net-(D6-A)*%
X150057200Y-55796800D03*
D13*
%TO.P,Q6,2,B*%
%TO.N,Net-(Q6-B)*%
X151327200Y-55796800D03*
%TO.P,Q6,3,E*%
%TO.N,GND*%
X152597200Y-55796800D03*
%TD*%
D12*
%TO.P,Q5,1,C*%
%TO.N,Net-(D5-A)*%
X150057200Y-109187600D03*
D13*
%TO.P,Q5,2,B*%
%TO.N,Net-(Q5-B)*%
X151327200Y-109187600D03*
%TO.P,Q5,3,E*%
%TO.N,GND*%
X152597200Y-109187600D03*
%TD*%
D20*
%TO.P,Y1,1,1*%
%TO.N,/XTAL2{slash}TOSC2*%
X96378400Y-94996000D03*
%TO.P,Y1,2,2*%
%TO.N,/XTAL1{slash}TOSC1*%
X91378400Y-94996000D03*
%TD*%
D12*
%TO.P,Q3,1,C*%
%TO.N,Net-(D3-A)*%
X170916800Y-109804400D03*
D13*
%TO.P,Q3,2,B*%
%TO.N,Net-(Q3-B)*%
X172186800Y-109804400D03*
%TO.P,Q3,3,E*%
%TO.N,GND*%
X173456800Y-109804400D03*
%TD*%
D21*
%TO.P,Volt_regulator1,1,INPUT-*%
%TO.N,Net-(BJ1-Pad3)*%
X79121000Y-91490800D03*
D17*
%TO.P,Volt_regulator1,2,INPUT-*%
X76581000Y-91490800D03*
%TO.P,Volt_regulator1,3,INPUT+*%
%TO.N,/Power_input*%
X68529200Y-91490800D03*
%TO.P,Volt_regulator1,4,INPUT+*%
X65918000Y-91490800D03*
%TO.P,Volt_regulator1,5,OUTPUT-*%
%TO.N,GND*%
X79146400Y-109829600D03*
%TO.P,Volt_regulator1,6,OUTPUT-*%
X76606400Y-109829600D03*
%TO.P,Volt_regulator1,7,OUTPUT+*%
%TO.N,+5V*%
X68554600Y-109829600D03*
%TO.P,Volt_regulator1,8,OUTPUT+*%
X65943400Y-109829600D03*
%TD*%
D10*
%TO.P,J3,1,Pin_1*%
%TO.N,Net-(J3-Pin_1)*%
X182702400Y-106197600D03*
D11*
%TO.P,J3,2,Pin_2*%
%TO.N,GND*%
X177622400Y-106197600D03*
%TD*%
D14*
%TO.P,R6,1*%
%TO.N,/DIG_I{slash}O6*%
X110261600Y-71145600D03*
D15*
%TO.P,R6,2*%
%TO.N,Net-(Q6-B)*%
X120421600Y-71145600D03*
%TD*%
D22*
%TO.P,D3,1,K*%
%TO.N,+5V*%
X167208400Y-100050800D03*
D23*
%TO.P,D3,2,A*%
%TO.N,Net-(D3-A)*%
X167208400Y-110210800D03*
%TD*%
D24*
%TO.P,BJ1,1*%
%TO.N,/Power_input*%
X62636400Y-86360000D03*
D25*
%TO.P,BJ1,2*%
%TO.N,Net-(J9-Pin_1)*%
X56636400Y-86360000D03*
%TO.P,BJ1,3*%
%TO.N,Net-(BJ1-Pad3)*%
X59636400Y-91060000D03*
%TD*%
D14*
%TO.P,R5,1*%
%TO.N,/DIG_I{slash}O1*%
X110109200Y-87046000D03*
D15*
%TO.P,R5,2*%
%TO.N,Net-(Q5-B)*%
X120269200Y-87046000D03*
%TD*%
D10*
%TO.P,J4,1,Pin_1*%
%TO.N,Net-(J4-Pin_1)*%
X177520800Y-58191600D03*
D11*
%TO.P,J4,2,Pin_2*%
%TO.N,GND*%
X182600800Y-58191600D03*
%TD*%
D26*
%TO.P,Y2,1,1*%
%TO.N,/X2-Crystal*%
X83566000Y-104077200D03*
%TO.P,Y2,2,2*%
%TO.N,/X1-Crystal*%
X83566000Y-102577200D03*
%TD*%
D10*
%TO.P,J7,1,Pin_1*%
%TO.N,Net-(J7-Pin_1)*%
X141198800Y-105987800D03*
D11*
%TO.P,J7,2,Pin_2*%
%TO.N,GND*%
X136118800Y-105987800D03*
%TD*%
D27*
%TO.P,C1,1*%
%TO.N,Net-(SW1-A)*%
X82550000Y-109931200D03*
%TO.P,C1,2*%
%TO.N,Net-(C1-Pad2)*%
X85050000Y-109931200D03*
%TD*%
D11*
%TO.P,K3,1*%
%TO.N,/Power_input*%
X183734800Y-90500400D03*
D17*
%TO.P,K3,2*%
%TO.N,Net-(D3-A)*%
X181784800Y-84450400D03*
D11*
%TO.P,K3,3*%
%TO.N,unconnected-(K3-Pad3)*%
X169584800Y-84450400D03*
%TO.P,K3,4*%
%TO.N,Net-(J3-Pin_1)*%
X169534800Y-96500400D03*
D17*
%TO.P,K3,5*%
%TO.N,+5V*%
X181784800Y-96450400D03*
%TD*%
D12*
%TO.P,Q8,1,C*%
%TO.N,Net-(D8-A)*%
X129330800Y-55796800D03*
D13*
%TO.P,Q8,2,B*%
%TO.N,Net-(Q8-B)*%
X130600800Y-55796800D03*
%TO.P,Q8,3,E*%
%TO.N,GND*%
X131870800Y-55796800D03*
%TD*%
D14*
%TO.P,R13,1*%
%TO.N,+5V*%
X107899200Y-103530400D03*
D15*
%TO.P,R13,2*%
%TO.N,Net-(U2-SQW{slash}OUT)*%
X97739200Y-103530400D03*
%TD*%
D18*
%TO.P,J11,1,MISO*%
%TO.N,/MISO*%
X60960000Y-79197200D03*
D19*
%TO.P,J11,2,VCC*%
%TO.N,+5V*%
X58420000Y-79197200D03*
%TO.P,J11,3,SCK*%
%TO.N,/SCK*%
X60960000Y-76657200D03*
%TO.P,J11,4,MOSI*%
%TO.N,/MOSI{slash}OC2A*%
X58420000Y-76657200D03*
%TO.P,J11,5,~{RST}*%
%TO.N,/Resetbutton*%
X60960000Y-74117200D03*
%TO.P,J11,6,GND*%
%TO.N,GND*%
X58420000Y-74117200D03*
%TD*%
D22*
%TO.P,D4,1,K*%
%TO.N,+5V*%
X167462400Y-64687400D03*
D23*
%TO.P,D4,2,A*%
%TO.N,Net-(D4-A)*%
X167462400Y-54527400D03*
%TD*%
D22*
%TO.P,D2,1,K*%
%TO.N,+5V*%
X187172800Y-100050800D03*
D23*
%TO.P,D2,2,A*%
%TO.N,Net-(D2-A)*%
X187172800Y-110210800D03*
%TD*%
D22*
%TO.P,D1,1,K*%
%TO.N,+5V*%
X187122000Y-64795600D03*
D23*
%TO.P,D1,2,A*%
%TO.N,Net-(D1-A)*%
X187122000Y-54635600D03*
%TD*%
D10*
%TO.P,J8,1,Pin_1*%
%TO.N,Net-(J8-Pin_1)*%
X136068000Y-58134200D03*
D11*
%TO.P,J8,2,Pin_2*%
%TO.N,GND*%
X141148000Y-58134200D03*
%TD*%
D27*
%TO.P,C3,1*%
%TO.N,/XTAL2{slash}TOSC2*%
X96977200Y-91420000D03*
%TO.P,C3,2*%
%TO.N,GND*%
X96977200Y-88920000D03*
%TD*%
D10*
%TO.P,J9,1,Pin_1*%
%TO.N,Net-(J9-Pin_1)*%
X58420000Y-100736400D03*
D11*
%TO.P,J9,2,Pin_2*%
%TO.N,GND*%
X58420000Y-95656400D03*
%TD*%
%TO.P,K1,1*%
%TO.N,/Power_input*%
X187250000Y-74500000D03*
D17*
%TO.P,K1,2*%
%TO.N,Net-(D1-A)*%
X189200000Y-80550000D03*
D11*
%TO.P,K1,3*%
%TO.N,unconnected-(K1-Pad3)*%
X201400000Y-80550000D03*
%TO.P,K1,4*%
%TO.N,Net-(J1-Pin_1)*%
X201450000Y-68500000D03*
D17*
%TO.P,K1,5*%
%TO.N,+5V*%
X189200000Y-68550000D03*
%TD*%
D12*
%TO.P,Q7,1,C*%
%TO.N,Net-(D7-A)*%
X129330800Y-109340000D03*
D13*
%TO.P,Q7,2,B*%
%TO.N,Net-(Q7-B)*%
X130600800Y-109340000D03*
%TO.P,Q7,3,E*%
%TO.N,GND*%
X131870800Y-109340000D03*
%TD*%
D10*
%TO.P,J6,1,Pin_1*%
%TO.N,Net-(J6-Pin_1)*%
X156997600Y-58039200D03*
D11*
%TO.P,J6,2,Pin_2*%
%TO.N,GND*%
X162077600Y-58039200D03*
%TD*%
D18*
%TO.P,J10,1,Pin_1*%
%TO.N,GND*%
X68783200Y-62077600D03*
D19*
%TO.P,J10,2,Pin_2*%
%TO.N,+5V*%
X71323200Y-62077600D03*
%TO.P,J10,3,Pin_3*%
%TO.N,/AnalogPin4{slash}SDA*%
X73863200Y-62077600D03*
%TO.P,J10,4,Pin_4*%
%TO.N,/AnalogPin5{slash}SCL*%
X76403200Y-62077600D03*
%TD*%
D14*
%TO.P,R2,1*%
%TO.N,/DIG_I{slash}O3*%
X110160000Y-80696000D03*
D15*
%TO.P,R2,2*%
%TO.N,Net-(Q2-B)*%
X120320000Y-80696000D03*
%TD*%
D14*
%TO.P,R8,1*%
%TO.N,/DIG_I{slash}O7*%
X110261600Y-67996000D03*
D15*
%TO.P,R8,2*%
%TO.N,Net-(Q8-B)*%
X120421600Y-67996000D03*
%TD*%
D22*
%TO.P,D8,1,K*%
%TO.N,+5V*%
X126009600Y-64541600D03*
D23*
%TO.P,D8,2,A*%
%TO.N,Net-(D8-A)*%
X126009600Y-54381600D03*
%TD*%
D14*
%TO.P,R4,1*%
%TO.N,/DIG_I{slash}O5*%
X110210800Y-74498400D03*
D15*
%TO.P,R4,2*%
%TO.N,Net-(Q4-B)*%
X120370800Y-74498400D03*
%TD*%
D10*
%TO.P,BT1,1,+*%
%TO.N,Net-(BT1-+)*%
X84886800Y-91846400D03*
D11*
%TO.P,BT1,2,-*%
%TO.N,GND*%
X84886800Y-73304400D03*
%TD*%
D12*
%TO.P,Q1,1,C*%
%TO.N,Net-(D1-A)*%
X190525600Y-55905600D03*
D13*
%TO.P,Q1,2,B*%
%TO.N,Net-(Q1-B)*%
X191795600Y-55905600D03*
%TO.P,Q1,3,E*%
%TO.N,GND*%
X193065600Y-55905600D03*
%TD*%
D22*
%TO.P,D6,1,K*%
%TO.N,+5V*%
X146736000Y-64535000D03*
D23*
%TO.P,D6,2,A*%
%TO.N,Net-(D6-A)*%
X146736000Y-54375000D03*
%TD*%
D22*
%TO.P,D7,1,K*%
%TO.N,+5V*%
X125755600Y-100050800D03*
D23*
%TO.P,D7,2,A*%
%TO.N,Net-(D7-A)*%
X125755600Y-110210800D03*
%TD*%
D14*
%TO.P,R1,1*%
%TO.N,/DIG_I{slash}O4*%
X110160000Y-77597200D03*
D15*
%TO.P,R1,2*%
%TO.N,Net-(Q1-B)*%
X120320000Y-77597200D03*
%TD*%
D22*
%TO.P,D5,1,K*%
%TO.N,+5V*%
X146278800Y-100000000D03*
D23*
%TO.P,D5,2,A*%
%TO.N,Net-(D5-A)*%
X146278800Y-110160000D03*
%TD*%
D11*
%TO.P,K7,1*%
%TO.N,/Power_input*%
X142891600Y-90449600D03*
D17*
%TO.P,K7,2*%
%TO.N,Net-(D7-A)*%
X140941600Y-84399600D03*
D11*
%TO.P,K7,3*%
%TO.N,unconnected-(K7-Pad3)*%
X128741600Y-84399600D03*
%TO.P,K7,4*%
%TO.N,Net-(J7-Pin_1)*%
X128691600Y-96449600D03*
D17*
%TO.P,K7,5*%
%TO.N,+5V*%
X140941600Y-96399600D03*
%TD*%
D11*
%TO.P,K4,1*%
%TO.N,/Power_input*%
X166850000Y-74450000D03*
D17*
%TO.P,K4,2*%
%TO.N,Net-(D4-A)*%
X168800000Y-80500000D03*
D11*
%TO.P,K4,3*%
%TO.N,unconnected-(K4-Pad3)*%
X181000000Y-80500000D03*
%TO.P,K4,4*%
%TO.N,Net-(J4-Pin_1)*%
X181050000Y-68450000D03*
D17*
%TO.P,K4,5*%
%TO.N,+5V*%
X168800000Y-68500000D03*
%TD*%
D28*
%TO.P,U1,1,~{RESET}/PC6*%
%TO.N,/Resetbutton*%
X107467600Y-95732800D03*
D15*
%TO.P,U1,2,PD0*%
%TO.N,/DIG_I{slash}O0*%
X107467600Y-93192800D03*
%TO.P,U1,3,PD1*%
%TO.N,/DIG_I{slash}O1*%
X107467600Y-90652800D03*
%TO.P,U1,4,PD2*%
%TO.N,/DIG_I{slash}O2*%
X107467600Y-88112800D03*
%TO.P,U1,5,PD3*%
%TO.N,/DIG_I{slash}O3*%
X107467600Y-85572800D03*
%TO.P,U1,6,PD4*%
%TO.N,/DIG_I{slash}O4*%
X107467600Y-83032800D03*
%TO.P,U1,7,VCC*%
%TO.N,+5V*%
X107467600Y-80492800D03*
%TO.P,U1,8,GND*%
%TO.N,GND*%
X107467600Y-77952800D03*
%TO.P,U1,9,XTAL1/PB6*%
%TO.N,/XTAL1{slash}TOSC1*%
X107467600Y-75412800D03*
%TO.P,U1,10,XTAL2/PB7*%
%TO.N,/XTAL2{slash}TOSC2*%
X107467600Y-72872800D03*
%TO.P,U1,11,PD5*%
%TO.N,/DIG_I{slash}O5*%
X107467600Y-70332800D03*
%TO.P,U1,12,PD6*%
%TO.N,/DIG_I{slash}O6*%
X107467600Y-67792800D03*
%TO.P,U1,13,PD7*%
%TO.N,/DIG_I{slash}O7*%
X107467600Y-65252800D03*
%TO.P,U1,14,PB0*%
%TO.N,/CLKO{slash}ICP1*%
X107467600Y-62712800D03*
%TO.P,U1,15,PB1*%
%TO.N,/OC1A*%
X99847600Y-62712800D03*
%TO.P,U1,16,PB2*%
%TO.N,/SS{slash}OC1B*%
X99847600Y-65252800D03*
%TO.P,U1,17,PB3*%
%TO.N,/MOSI{slash}OC2A*%
X99847600Y-67792800D03*
%TO.P,U1,18,PB4*%
%TO.N,/MISO*%
X99847600Y-70332800D03*
%TO.P,U1,19,PB5*%
%TO.N,/SCK*%
X99847600Y-72872800D03*
%TO.P,U1,20,AVCC*%
%TO.N,+5V*%
X99847600Y-75412800D03*
%TO.P,U1,21,AREF*%
%TO.N,unconnected-(U1-AREF-Pad21)*%
X99847600Y-77952800D03*
%TO.P,U1,22,GND*%
%TO.N,GND*%
X99847600Y-80492800D03*
%TO.P,U1,23,PC0*%
%TO.N,/AnalogPin0*%
X99847600Y-83032800D03*
%TO.P,U1,24,PC1*%
%TO.N,/AnalogPin1*%
X99847600Y-85572800D03*
%TO.P,U1,25,PC2*%
%TO.N,/AnalogPin2*%
X99847600Y-88112800D03*
%TO.P,U1,26,PC3*%
%TO.N,/AnalogPin5{slash}SCL*%
X99847600Y-90652800D03*
%TO.P,U1,27,PC4*%
%TO.N,/AnalogPin4{slash}SDA*%
X99847600Y-93192800D03*
%TO.P,U1,28,PC5*%
%TO.N,/AnalogPin5*%
X99847600Y-95732800D03*
%TD*%
D11*
%TO.P,K2,1*%
%TO.N,/Power_input*%
X204105600Y-90602000D03*
D17*
%TO.P,K2,2*%
%TO.N,Net-(D2-A)*%
X202155600Y-84552000D03*
D11*
%TO.P,K2,3*%
%TO.N,unconnected-(K2-Pad3)*%
X189955600Y-84552000D03*
%TO.P,K2,4*%
%TO.N,Net-(J2-Pin_1)*%
X189905600Y-96602000D03*
D17*
%TO.P,K2,5*%
%TO.N,+5V*%
X202155600Y-96552000D03*
%TD*%
D27*
%TO.P,C2,1*%
%TO.N,/XTAL1{slash}TOSC1*%
X94284800Y-91420000D03*
%TO.P,C2,2*%
%TO.N,GND*%
X94284800Y-88920000D03*
%TD*%
D28*
%TO.P,U2,1,X1*%
%TO.N,/X1-Crystal*%
X87833200Y-102260400D03*
D15*
%TO.P,U2,2,X2*%
%TO.N,/X2-Crystal*%
X87833200Y-104800400D03*
%TO.P,U2,3,VBAT*%
%TO.N,Net-(BT1-+)*%
X87833200Y-107340400D03*
%TO.P,U2,4,GND*%
%TO.N,GND*%
X87833200Y-109880400D03*
%TO.P,U2,5,SDA*%
%TO.N,/AnalogPin4{slash}SDA*%
X95453200Y-109880400D03*
%TO.P,U2,6,SCL*%
%TO.N,/AnalogPin5{slash}SCL*%
X95453200Y-107340400D03*
%TO.P,U2,7,SQW/OUT*%
%TO.N,Net-(U2-SQW{slash}OUT)*%
X95453200Y-104800400D03*
%TO.P,U2,8,VCC*%
%TO.N,+5V*%
X95453200Y-102260400D03*
%TD*%
D10*
%TO.P,J5,1,Pin_1*%
%TO.N,Net-(J5-Pin_1)*%
X162128400Y-106451600D03*
D11*
%TO.P,J5,2,Pin_2*%
%TO.N,GND*%
X157048400Y-106451600D03*
%TD*%
D14*
%TO.P,R3,1*%
%TO.N,/DIG_I{slash}O2*%
X110160000Y-83896400D03*
D15*
%TO.P,R3,2*%
%TO.N,Net-(Q3-B)*%
X120320000Y-83896400D03*
%TD*%
D14*
%TO.P,R7,1*%
%TO.N,/DIG_I{slash}O0*%
X110058400Y-90144800D03*
D15*
%TO.P,R7,2*%
%TO.N,Net-(Q7-B)*%
X120218400Y-90144800D03*
%TD*%
D29*
%TO.N,GND*%
X174015600Y-109804400D02*
X177622400Y-106197600D01*
X173456800Y-109804400D02*
X174015600Y-109804400D01*
X152597200Y-56021800D02*
X152597200Y-55796800D01*
X173304400Y-56181400D02*
X173304400Y-55956400D01*
%TO.N,Net-(SW1-A)*%
X76793600Y-104815200D02*
X61924000Y-104815200D01*
X81909600Y-109931200D02*
X76793600Y-104815200D01*
X82550000Y-109931200D02*
X81909600Y-109931200D01*
%TO.N,+5V*%
X167157600Y-100000000D02*
X167208400Y-100050800D01*
X115240000Y-106780404D02*
X115240000Y-102997200D01*
X140941600Y-96399600D02*
X140941600Y-94008800D01*
X107899200Y-109829600D02*
X107899200Y-106680000D01*
X186868000Y-79172000D02*
X186868000Y-81204000D01*
X98618200Y-76642200D02*
X99847600Y-75412800D01*
X141046400Y-93904000D02*
X146228000Y-93904000D01*
X59994800Y-80772000D02*
X62331600Y-80772000D01*
X168800000Y-68500000D02*
X168800000Y-66025000D01*
X167208400Y-100050800D02*
X167208400Y-93904000D01*
X146228000Y-100050800D02*
X146278800Y-100000000D01*
X205816400Y-70511996D02*
X205816400Y-56769200D01*
X127940000Y-93904000D02*
X141046400Y-93904000D01*
X161058400Y-93951600D02*
X161010800Y-93904000D01*
X93116400Y-104597200D02*
X93116400Y-111829200D01*
X168800000Y-70620800D02*
X168783200Y-70637600D01*
X106172000Y-79197200D02*
X107467600Y-80492800D01*
X90111800Y-58209400D02*
X91236800Y-59334400D01*
X126009600Y-64541600D02*
X126009600Y-66709600D01*
X93065600Y-111880000D02*
X107238800Y-111880000D01*
X107899200Y-103530400D02*
X107899200Y-106680000D01*
X205816400Y-56769200D02*
X199872800Y-50825600D01*
X58420000Y-79197200D02*
X59994800Y-80772000D01*
X125755600Y-96088400D02*
X127940000Y-93904000D01*
X140941600Y-94008800D02*
X141046400Y-93904000D01*
X148200000Y-68550000D02*
X148200000Y-65999000D01*
X167208400Y-93904000D02*
X181737200Y-93904000D01*
X189200000Y-68550000D02*
X187122000Y-66472000D01*
X187112400Y-70637600D02*
X189200000Y-68550000D01*
X106172000Y-62417409D02*
X106172000Y-79197200D01*
X181784800Y-96450400D02*
X181784800Y-93951600D01*
X187172800Y-93904000D02*
X199507600Y-93904000D01*
X148200000Y-68550000D02*
X148200000Y-70526800D01*
X146736000Y-65374800D02*
X146736000Y-64535000D01*
X168800000Y-68500000D02*
X168800000Y-70620800D01*
X193953396Y-82375000D02*
X205816400Y-70511996D01*
X189200000Y-68550000D02*
X189200000Y-76840000D01*
X107899200Y-109829600D02*
X107899200Y-111829200D01*
X62331600Y-80772000D02*
X62331600Y-78461996D01*
X181784800Y-93951600D02*
X181737200Y-93904000D01*
X146278800Y-93954800D02*
X146228000Y-93904000D01*
X186868000Y-81204000D02*
X188039000Y-82375000D01*
X70620200Y-111880000D02*
X93065600Y-111880000D01*
X148310800Y-70637600D02*
X168783200Y-70637600D01*
X68569800Y-109829600D02*
X70620200Y-111880000D01*
X161058400Y-96399600D02*
X161058400Y-93951600D01*
X127800000Y-68770400D02*
X129667200Y-70637600D01*
X110140404Y-111880000D02*
X115240000Y-106780404D01*
X93116400Y-111829200D02*
X93065600Y-111880000D01*
X187172800Y-100050800D02*
X187172800Y-93904000D01*
X71323200Y-62077600D02*
X75191400Y-58209400D01*
X81026000Y-56134000D02*
X79799400Y-56134000D01*
X188039000Y-82375000D02*
X193953396Y-82375000D01*
X64151396Y-76642200D02*
X98618200Y-76642200D01*
X148200000Y-65999000D02*
X146736000Y-64535000D01*
X62331600Y-78461996D02*
X64151396Y-76642200D01*
X79799400Y-56134000D02*
X77724000Y-58209400D01*
X68554600Y-109829600D02*
X65943400Y-109829600D01*
X75191400Y-58209400D02*
X77724000Y-58209400D01*
X187122000Y-66472000D02*
X187122000Y-64795600D01*
X129667200Y-70637600D02*
X148310800Y-70637600D01*
X77724000Y-58209400D02*
X90111800Y-58209400D01*
X168783200Y-70637600D02*
X187112400Y-70637600D01*
X68554600Y-109829600D02*
X68569800Y-109829600D01*
X168800000Y-66025000D02*
X167462400Y-64687400D01*
X146228000Y-93904000D02*
X161010800Y-93904000D01*
X161010800Y-93904000D02*
X167208400Y-93904000D01*
X70097400Y-60851800D02*
X71323200Y-62077600D01*
X199507600Y-93904000D02*
X202155600Y-96552000D01*
X126009600Y-66709600D02*
X127800000Y-68500000D01*
X189200000Y-76840000D02*
X186868000Y-79172000D01*
X107238800Y-111880000D02*
X110140404Y-111880000D01*
X146278800Y-100000000D02*
X146278800Y-93954800D01*
X167462400Y-65298400D02*
X167462400Y-64687400D01*
X125755600Y-100050800D02*
X125755600Y-96088400D01*
X57556400Y-62026800D02*
X58731400Y-60851800D01*
X181737200Y-93904000D02*
X187172800Y-93904000D01*
X58731400Y-60851800D02*
X70097400Y-60851800D01*
X95453200Y-102260400D02*
X93116400Y-104597200D01*
X117763809Y-50825600D02*
X106172000Y-62417409D01*
X199872800Y-50825600D02*
X117763809Y-50825600D01*
X148200000Y-70526800D02*
X148310800Y-70637600D01*
%TO.N,Net-(C1-Pad2)*%
X72397587Y-111430000D02*
X83551200Y-111430000D01*
X61873200Y-109844400D02*
X63920000Y-107797600D01*
X83551200Y-111430000D02*
X85050000Y-109931200D01*
X63920000Y-107797600D02*
X68765187Y-107797600D01*
X68765187Y-107797600D02*
X72397587Y-111430000D01*
%TO.N,Net-(D1-A)*%
X190525600Y-55748518D02*
X190525600Y-55905600D01*
%TO.N,/MISO*%
X101270000Y-73330000D02*
X101270000Y-71755200D01*
X63965000Y-76192200D02*
X97164596Y-76192200D01*
X101270000Y-71755200D02*
X99847600Y-70332800D01*
X97164596Y-76192200D02*
X99188796Y-74168000D01*
X100432000Y-74168000D02*
X101270000Y-73330000D01*
X60960000Y-79197200D02*
X63965000Y-76192200D01*
X99188796Y-74168000D02*
X100432000Y-74168000D01*
%TO.N,/SCK*%
X61875000Y-75742200D02*
X92534596Y-75742200D01*
X97625798Y-70650998D02*
X99847600Y-72872800D01*
X92534596Y-75742200D02*
X97625798Y-70650998D01*
X60960000Y-76657200D02*
X61875000Y-75742200D01*
%TO.N,/MOSI{slash}OC2A*%
X59785000Y-75292200D02*
X92348200Y-75292200D01*
X92348200Y-75292200D02*
X99847600Y-67792800D01*
X58420000Y-76657200D02*
X59785000Y-75292200D01*
%TO.N,/Resetbutton*%
X116695000Y-94292200D02*
X115240000Y-92837200D01*
X57454800Y-72542400D02*
X54102000Y-75895200D01*
X116695000Y-105961800D02*
X116695000Y-94292200D01*
X59385200Y-72542400D02*
X57454800Y-72542400D01*
X62377600Y-112330000D02*
X110326800Y-112330000D01*
X54102000Y-104054400D02*
X54862800Y-104815200D01*
X54102000Y-75895200D02*
X54102000Y-104054400D01*
X60960000Y-74117200D02*
X59385200Y-72542400D01*
X110326800Y-112330000D02*
X116695000Y-105961800D01*
X54862800Y-104815200D02*
X62377600Y-112330000D01*
D30*
%TO.N,Net-(J5-Pin_1)*%
X162128400Y-106451600D02*
X152126400Y-96449600D01*
X152126400Y-96449600D02*
X148808400Y-96449600D01*
%TO.N,/Power_input*%
X68529200Y-91490800D02*
X65918000Y-91490800D01*
D29*
X163008400Y-74616400D02*
X162992000Y-74600000D01*
D30*
X112344400Y-85725200D02*
X112344400Y-94412000D01*
D29*
X125900000Y-74500000D02*
X125850000Y-74450000D01*
D30*
X68544400Y-91490800D02*
X68529200Y-91490800D01*
X142891600Y-90449600D02*
X163008400Y-90449600D01*
X164262000Y-75870000D02*
X163008400Y-74616400D01*
X183734800Y-90500400D02*
X163059200Y-90500400D01*
X62636400Y-86979200D02*
X62636400Y-86360000D01*
D29*
X163059200Y-90500400D02*
X163008400Y-90449600D01*
D30*
X163008400Y-90449600D02*
X164262000Y-89196000D01*
X123300120Y-79121200D02*
X118948400Y-79121200D01*
X187250000Y-74500000D02*
X162992000Y-74500000D01*
X162992000Y-74500000D02*
X125900000Y-74500000D01*
X125850000Y-74450000D02*
X125850000Y-76571320D01*
X108331200Y-98425200D02*
X75478800Y-98425200D01*
D29*
X204004000Y-90500400D02*
X204105600Y-90602000D01*
X143042000Y-90600000D02*
X142891600Y-90449600D01*
D30*
X112344400Y-94412000D02*
X108331200Y-98425200D01*
X65918000Y-90260800D02*
X62636400Y-86979200D01*
X164262000Y-89196000D02*
X164262000Y-75870000D01*
X125850000Y-76571320D02*
X123300120Y-79121200D01*
X75478800Y-98425200D02*
X68544400Y-91490800D01*
X65918000Y-91490800D02*
X65918000Y-90260800D01*
X118948400Y-79121200D02*
X112344400Y-85725200D01*
X183734800Y-90500400D02*
X204004000Y-90500400D01*
%TO.N,Net-(J7-Pin_1)*%
X128691600Y-96449600D02*
X131660600Y-96449600D01*
X131660600Y-96449600D02*
X141198800Y-105987800D01*
D29*
%TO.N,Net-(Q1-B)*%
X120320000Y-77597200D02*
X117965000Y-75242200D01*
X191398800Y-57302400D02*
X191795600Y-56905600D01*
X181746745Y-51275600D02*
X187773545Y-57302400D01*
X124896408Y-51275600D02*
X181746745Y-51275600D01*
X117965000Y-58207008D02*
X124896408Y-51275600D01*
X187773545Y-57302400D02*
X191398800Y-57302400D01*
X117965000Y-75242200D02*
X117965000Y-58207008D01*
X191795600Y-56905600D02*
X191795600Y-55905600D01*
%TO.N,/DIG_I{slash}O1*%
X110109200Y-88011200D02*
X110109200Y-87046000D01*
X107467600Y-90652800D02*
X110109200Y-88011200D01*
%TO.N,/DIG_I{slash}O6*%
X110261600Y-70586800D02*
X110261600Y-71145600D01*
X107467600Y-67792800D02*
X110261600Y-70586800D01*
%TO.N,/DIG_I{slash}O5*%
X110210800Y-72923600D02*
X110210800Y-74447600D01*
X107467600Y-70332800D02*
X107620000Y-70332800D01*
X107620000Y-70332800D02*
X110210800Y-72923600D01*
%TO.N,/DIG_I{slash}O4*%
X108839200Y-81661200D02*
X108839200Y-79781600D01*
X110160000Y-78460800D02*
X110160000Y-77597200D01*
X107467600Y-83032800D02*
X108839200Y-81661200D01*
X108839200Y-79781600D02*
X110160000Y-78460800D01*
%TO.N,/DIG_I{slash}O3*%
X110160000Y-82118400D02*
X110160000Y-80696000D01*
X107467600Y-84810800D02*
X110160000Y-82118400D01*
X107467600Y-85572800D02*
X107467600Y-84810800D01*
%TO.N,/DIG_I{slash}O2*%
X107467600Y-88112800D02*
X108788400Y-86792000D01*
X108788400Y-85268000D02*
X110160000Y-83896400D01*
X108788400Y-86792000D02*
X108788400Y-85268000D01*
%TO.N,/DIG_I{slash}O0*%
X107467600Y-93192800D02*
X110058400Y-90602000D01*
X110058400Y-90602000D02*
X110058400Y-90144800D01*
%TO.N,/AnalogPin0*%
X101752400Y-81128000D02*
X99847600Y-83032800D01*
X100092191Y-63906400D02*
X101752400Y-65566609D01*
X60096400Y-62026800D02*
X61976000Y-63906400D01*
X55626000Y-63246000D02*
X56134000Y-63754000D01*
X90061000Y-55009000D02*
X62224200Y-55009000D01*
X91186000Y-56134000D02*
X90061000Y-55009000D01*
X55626000Y-61607200D02*
X55626000Y-63246000D01*
X61976000Y-63906400D02*
X100092191Y-63906400D01*
X101752400Y-65566609D02*
X101752400Y-81128000D01*
X62224200Y-55009000D02*
X55626000Y-61607200D01*
X56134000Y-63754000D02*
X58369200Y-63754000D01*
X58369200Y-63754000D02*
X60096400Y-62026800D01*
%TO.N,/AnalogPin4{slash}SDA*%
X100220387Y-60858200D02*
X103022400Y-63660213D01*
X103022400Y-63660213D02*
X103022400Y-90018000D01*
X76606400Y-59334400D02*
X81076800Y-59334400D01*
X103022400Y-90018000D02*
X99847600Y-93192800D01*
X82600600Y-60858200D02*
X100220387Y-60858200D01*
X73863200Y-62077600D02*
X76606400Y-59334400D01*
X81076800Y-59334400D02*
X82600600Y-60858200D01*
%TO.N,Net-(BJ1-Pad3)*%
X79121000Y-91490800D02*
X79121000Y-91475600D01*
X79121000Y-91490800D02*
X76581000Y-91490800D01*
X60960000Y-84023200D02*
X59636400Y-85346800D01*
X79121000Y-91475600D02*
X71668600Y-84023200D01*
X71668600Y-84023200D02*
X60960000Y-84023200D01*
X59636400Y-85346800D02*
X59636400Y-91060000D01*
D30*
%TO.N,Net-(J1-Pin_1)*%
X197416000Y-58140200D02*
X197416000Y-64466000D01*
X197416000Y-64466000D02*
X201450000Y-68500000D01*
%TO.N,Net-(J2-Pin_1)*%
X193020400Y-96602000D02*
X202666800Y-106248400D01*
X189905600Y-96602000D02*
X193020400Y-96602000D01*
%TO.N,Net-(J6-Pin_1)*%
X156997600Y-58039200D02*
X156997600Y-65047600D01*
X156997600Y-65047600D02*
X160450000Y-68500000D01*
D29*
%TO.N,Net-(D2-A)*%
X187172800Y-110210800D02*
X189928000Y-110210800D01*
X195874118Y-104107600D02*
X190595600Y-109386118D01*
X204756800Y-108933600D02*
X200804004Y-108933600D01*
X198721204Y-104107600D02*
X195874118Y-104107600D01*
X202155600Y-84552000D02*
X203881200Y-84552000D01*
X190595600Y-109386118D02*
X190595600Y-109543200D01*
X189928000Y-110210800D02*
X190595600Y-109543200D01*
X200804004Y-108933600D02*
X199930800Y-108060396D01*
X206502000Y-107188400D02*
X204756800Y-108933600D01*
X199930800Y-105317196D02*
X198721204Y-104107600D01*
X199930800Y-108060396D02*
X199930800Y-105317196D01*
X203881200Y-84552000D02*
X206502000Y-87172800D01*
X206502000Y-87172800D02*
X206502000Y-107188400D01*
%TO.N,Net-(D3-A)*%
X184527400Y-110134400D02*
X182575200Y-110134400D01*
X180314800Y-105232400D02*
X178943200Y-103860800D01*
X182575200Y-110134400D02*
X180314800Y-107874000D01*
X200380800Y-107874000D02*
X200380800Y-105130800D01*
X200990400Y-108483600D02*
X200380800Y-107874000D01*
X176047600Y-103860800D02*
X170916800Y-108991600D01*
X181784800Y-84502800D02*
X185140800Y-87858800D01*
X200380800Y-105130800D02*
X198907600Y-103657600D01*
X167208400Y-110210800D02*
X170510400Y-110210800D01*
X181784800Y-84450400D02*
X181784800Y-84502800D01*
X185140800Y-87858800D02*
X205105200Y-87858800D01*
X205105200Y-87858800D02*
X206019600Y-88773200D01*
X198907600Y-103657600D02*
X191004200Y-103657600D01*
X204570404Y-108483600D02*
X200990400Y-108483600D01*
X180314800Y-107874000D02*
X180314800Y-105232400D01*
X206019600Y-107034404D02*
X204570404Y-108483600D01*
X191004200Y-103657600D02*
X184527400Y-110134400D01*
X170916800Y-108991600D02*
X170916800Y-109804400D01*
X170510400Y-110210800D02*
X170916800Y-109804400D01*
X206019600Y-88773200D02*
X206019600Y-107034404D01*
X178943200Y-103860800D02*
X176047600Y-103860800D01*
%TO.N,Net-(D5-A)*%
X146278800Y-110160000D02*
X149084800Y-110160000D01*
X122395600Y-99540800D02*
X126563200Y-103708400D01*
X138506400Y-108178800D02*
X140487600Y-110160000D01*
X137439600Y-103708400D02*
X138506400Y-104775200D01*
X126563200Y-103708400D02*
X137439600Y-103708400D01*
X149084800Y-110160000D02*
X150057200Y-109187600D01*
X161058400Y-84399600D02*
X159233400Y-86224600D01*
X131555400Y-86224600D02*
X122395600Y-95384400D01*
X140487600Y-110160000D02*
X146278800Y-110160000D01*
X122395600Y-95384400D02*
X122395600Y-99540800D01*
X159233400Y-86224600D02*
X131555400Y-86224600D01*
X138506400Y-104775200D02*
X138506400Y-108178800D01*
%TO.N,Net-(D7-A)*%
X121945600Y-106400800D02*
X125755600Y-110210800D01*
X128460000Y-110210800D02*
X129330800Y-109340000D01*
X121945600Y-95050800D02*
X121945600Y-106400800D01*
X140941600Y-84399600D02*
X132596800Y-84399600D01*
X125755600Y-110210800D02*
X128460000Y-110210800D01*
X132596800Y-84399600D02*
X121945600Y-95050800D01*
D30*
%TO.N,Net-(J3-Pin_1)*%
X169534800Y-96500400D02*
X173005200Y-96500400D01*
X173005200Y-96500400D02*
X182702400Y-106197600D01*
%TO.N,Net-(J4-Pin_1)*%
X177520800Y-64920800D02*
X181050000Y-68450000D01*
X177520800Y-58191600D02*
X177520800Y-64920800D01*
%TO.N,Net-(J8-Pin_1)*%
X136068000Y-58134200D02*
X136068000Y-64468000D01*
X136068000Y-64468000D02*
X140050000Y-68450000D01*
D29*
%TO.N,Net-(J9-Pin_1)*%
X55927600Y-98040800D02*
X55927600Y-87068800D01*
X58420000Y-100736400D02*
X58420000Y-100533200D01*
X55927600Y-87068800D02*
X56636400Y-86360000D01*
X58420000Y-100533200D02*
X55927600Y-98040800D01*
%TO.N,Net-(Q2-B)*%
X117145000Y-107239000D02*
X123063200Y-113157200D01*
X123063200Y-113157200D02*
X189251600Y-113157200D01*
X189251600Y-113157200D02*
X191865600Y-110543200D01*
X191865600Y-110543200D02*
X191865600Y-109543200D01*
X117145000Y-83871000D02*
X117145000Y-107239000D01*
X120320000Y-80696000D02*
X117145000Y-83871000D01*
%TO.N,Net-(Q3-B)*%
X172186800Y-110459400D02*
X172186800Y-109804400D01*
X117780000Y-107237604D02*
X123235196Y-112692800D01*
X169953400Y-112692800D02*
X172186800Y-110459400D01*
X123235196Y-112692800D02*
X169953400Y-112692800D01*
X120320000Y-83896400D02*
X117780000Y-86436400D01*
X117780000Y-86436400D02*
X117780000Y-107237604D01*
%TO.N,Net-(Q4-B)*%
X125082804Y-51725600D02*
X168803600Y-51725600D01*
X168803600Y-51725600D02*
X172034400Y-54956400D01*
X118415000Y-58393404D02*
X125082804Y-51725600D01*
X172034400Y-54956400D02*
X172034400Y-55956400D01*
X118415000Y-72491800D02*
X118415000Y-58393404D01*
X120370800Y-74447600D02*
X118415000Y-72491800D01*
%TO.N,Net-(Q5-B)*%
X118415000Y-88900200D02*
X118415000Y-107236208D01*
X123421592Y-112242800D02*
X149682400Y-112242800D01*
X120269200Y-87046000D02*
X118415000Y-88900200D01*
X151327200Y-110598000D02*
X151327200Y-109187600D01*
X118415000Y-107236208D02*
X123421592Y-112242800D01*
X149682400Y-112242800D02*
X151327200Y-110598000D01*
%TO.N,Net-(Q6-B)*%
X148848000Y-52175600D02*
X125269200Y-52175600D01*
X125269200Y-52175600D02*
X119050000Y-58394800D01*
X119050000Y-69774000D02*
X120421600Y-71145600D01*
X151327200Y-55796800D02*
X151327200Y-54654800D01*
X151327200Y-54654800D02*
X148848000Y-52175600D01*
X119050000Y-58394800D02*
X119050000Y-69774000D01*
%TO.N,Net-(Q7-B)*%
X120269200Y-108454012D02*
X123600788Y-111785600D01*
X123600788Y-111785600D02*
X129616400Y-111785600D01*
X130600800Y-110801200D02*
X130600800Y-109340000D01*
X120269200Y-90195600D02*
X120269200Y-108454012D01*
X120218400Y-90144800D02*
X120269200Y-90195600D01*
X129616400Y-111785600D02*
X130600800Y-110801200D01*
%TO.N,Net-(Q8-B)*%
X120421600Y-57659596D02*
X125455596Y-52625600D01*
X130600800Y-54451600D02*
X130600800Y-55796800D01*
X128774800Y-52625600D02*
X130600800Y-54451600D01*
X125455596Y-52625600D02*
X128774800Y-52625600D01*
X120421600Y-67996000D02*
X120421600Y-57659596D01*
%TO.N,/DIG_I{slash}O7*%
X107467600Y-65252800D02*
X110210800Y-67996000D01*
X110210800Y-67996000D02*
X110261600Y-67996000D01*
%TO.N,/AnalogPin5{slash}SCL*%
X76403200Y-62077600D02*
X80721200Y-62077600D01*
X80721200Y-62077600D02*
X81076800Y-62433200D01*
X81076800Y-62433200D02*
X82201800Y-61308200D01*
X82201800Y-61308200D02*
X100033991Y-61308200D01*
X102362000Y-88138400D02*
X99847600Y-90652800D01*
X102362000Y-63636209D02*
X102362000Y-88138400D01*
X100033991Y-61308200D02*
X102362000Y-63636209D01*
%TO.N,Net-(U2-SQW{slash}OUT)*%
X96723200Y-103530400D02*
X97739200Y-103530400D01*
X95453200Y-104800400D02*
X96723200Y-103530400D01*
%TO.N,/X1-Crystal*%
X87782400Y-102311200D02*
X83832000Y-102311200D01*
X87833200Y-102260400D02*
X87782400Y-102311200D01*
X83832000Y-102311200D02*
X83566000Y-102577200D01*
%TO.N,/X2-Crystal*%
X87782400Y-104851200D02*
X84340000Y-104851200D01*
X87833200Y-104800400D02*
X87782400Y-104851200D01*
X84340000Y-104851200D02*
X83566000Y-104077200D01*
%TD*%
M02*
