%TF.GenerationSoftware,KiCad,Pcbnew,7.0.5*%
%TF.CreationDate,2023-11-13T20:32:54+01:00*%
%TF.ProjectId,atmega328p_dev_board,61746d65-6761-4333-9238-705f6465765f,rev?*%
%TF.SameCoordinates,Original*%
%TF.FileFunction,AssemblyDrawing,Top*%
%FSLAX46Y46*%
G04 Gerber Fmt 4.6, Leading zero omitted, Abs format (unit mm)*
G04 Created by KiCad (PCBNEW 7.0.5) date 2023-11-13 20:32:54*
%MOMM*%
%LPD*%
G01*
G04 APERTURE LIST*
%ADD10C,0.150000*%
%ADD11C,0.200000*%
%ADD12C,0.100000*%
G04 APERTURE END LIST*
D10*
%TO.C,J1*%
X134853809Y-101724819D02*
X134853809Y-100724819D01*
X134853809Y-100724819D02*
X135234761Y-100724819D01*
X135234761Y-100724819D02*
X135329999Y-100772438D01*
X135329999Y-100772438D02*
X135377618Y-100820057D01*
X135377618Y-100820057D02*
X135425237Y-100915295D01*
X135425237Y-100915295D02*
X135425237Y-101058152D01*
X135425237Y-101058152D02*
X135377618Y-101153390D01*
X135377618Y-101153390D02*
X135329999Y-101201009D01*
X135329999Y-101201009D02*
X135234761Y-101248628D01*
X135234761Y-101248628D02*
X134853809Y-101248628D01*
X135996666Y-101724819D02*
X135901428Y-101677200D01*
X135901428Y-101677200D02*
X135853809Y-101629580D01*
X135853809Y-101629580D02*
X135806190Y-101534342D01*
X135806190Y-101534342D02*
X135806190Y-101248628D01*
X135806190Y-101248628D02*
X135853809Y-101153390D01*
X135853809Y-101153390D02*
X135901428Y-101105771D01*
X135901428Y-101105771D02*
X135996666Y-101058152D01*
X135996666Y-101058152D02*
X136139523Y-101058152D01*
X136139523Y-101058152D02*
X136234761Y-101105771D01*
X136234761Y-101105771D02*
X136282380Y-101153390D01*
X136282380Y-101153390D02*
X136329999Y-101248628D01*
X136329999Y-101248628D02*
X136329999Y-101534342D01*
X136329999Y-101534342D02*
X136282380Y-101629580D01*
X136282380Y-101629580D02*
X136234761Y-101677200D01*
X136234761Y-101677200D02*
X136139523Y-101724819D01*
X136139523Y-101724819D02*
X135996666Y-101724819D01*
X136663333Y-101058152D02*
X136853809Y-101724819D01*
X136853809Y-101724819D02*
X137044285Y-101248628D01*
X137044285Y-101248628D02*
X137234761Y-101724819D01*
X137234761Y-101724819D02*
X137425237Y-101058152D01*
X138187142Y-101677200D02*
X138091904Y-101724819D01*
X138091904Y-101724819D02*
X137901428Y-101724819D01*
X137901428Y-101724819D02*
X137806190Y-101677200D01*
X137806190Y-101677200D02*
X137758571Y-101581961D01*
X137758571Y-101581961D02*
X137758571Y-101201009D01*
X137758571Y-101201009D02*
X137806190Y-101105771D01*
X137806190Y-101105771D02*
X137901428Y-101058152D01*
X137901428Y-101058152D02*
X138091904Y-101058152D01*
X138091904Y-101058152D02*
X138187142Y-101105771D01*
X138187142Y-101105771D02*
X138234761Y-101201009D01*
X138234761Y-101201009D02*
X138234761Y-101296247D01*
X138234761Y-101296247D02*
X137758571Y-101391485D01*
X138663333Y-101724819D02*
X138663333Y-101058152D01*
X138663333Y-101248628D02*
X138710952Y-101153390D01*
X138710952Y-101153390D02*
X138758571Y-101105771D01*
X138758571Y-101105771D02*
X138853809Y-101058152D01*
X138853809Y-101058152D02*
X138949047Y-101058152D01*
X127606666Y-100724819D02*
X127606666Y-101439104D01*
X127606666Y-101439104D02*
X127559047Y-101581961D01*
X127559047Y-101581961D02*
X127463809Y-101677200D01*
X127463809Y-101677200D02*
X127320952Y-101724819D01*
X127320952Y-101724819D02*
X127225714Y-101724819D01*
X128606666Y-101724819D02*
X128035238Y-101724819D01*
X128320952Y-101724819D02*
X128320952Y-100724819D01*
X128320952Y-100724819D02*
X128225714Y-100867676D01*
X128225714Y-100867676D02*
X128130476Y-100962914D01*
X128130476Y-100962914D02*
X128035238Y-101010533D01*
%TO.C,J3*%
X154840476Y-101439104D02*
X155316666Y-101439104D01*
X154745238Y-101724819D02*
X155078571Y-100724819D01*
X155078571Y-100724819D02*
X155411904Y-101724819D01*
X155745238Y-101058152D02*
X155745238Y-101724819D01*
X155745238Y-101153390D02*
X155792857Y-101105771D01*
X155792857Y-101105771D02*
X155888095Y-101058152D01*
X155888095Y-101058152D02*
X156030952Y-101058152D01*
X156030952Y-101058152D02*
X156126190Y-101105771D01*
X156126190Y-101105771D02*
X156173809Y-101201009D01*
X156173809Y-101201009D02*
X156173809Y-101724819D01*
X157078571Y-101724819D02*
X157078571Y-101201009D01*
X157078571Y-101201009D02*
X157030952Y-101105771D01*
X157030952Y-101105771D02*
X156935714Y-101058152D01*
X156935714Y-101058152D02*
X156745238Y-101058152D01*
X156745238Y-101058152D02*
X156650000Y-101105771D01*
X157078571Y-101677200D02*
X156983333Y-101724819D01*
X156983333Y-101724819D02*
X156745238Y-101724819D01*
X156745238Y-101724819D02*
X156650000Y-101677200D01*
X156650000Y-101677200D02*
X156602381Y-101581961D01*
X156602381Y-101581961D02*
X156602381Y-101486723D01*
X156602381Y-101486723D02*
X156650000Y-101391485D01*
X156650000Y-101391485D02*
X156745238Y-101343866D01*
X156745238Y-101343866D02*
X156983333Y-101343866D01*
X156983333Y-101343866D02*
X157078571Y-101296247D01*
X157697619Y-101724819D02*
X157602381Y-101677200D01*
X157602381Y-101677200D02*
X157554762Y-101581961D01*
X157554762Y-101581961D02*
X157554762Y-100724819D01*
X158221429Y-101724819D02*
X158126191Y-101677200D01*
X158126191Y-101677200D02*
X158078572Y-101629580D01*
X158078572Y-101629580D02*
X158030953Y-101534342D01*
X158030953Y-101534342D02*
X158030953Y-101248628D01*
X158030953Y-101248628D02*
X158078572Y-101153390D01*
X158078572Y-101153390D02*
X158126191Y-101105771D01*
X158126191Y-101105771D02*
X158221429Y-101058152D01*
X158221429Y-101058152D02*
X158364286Y-101058152D01*
X158364286Y-101058152D02*
X158459524Y-101105771D01*
X158459524Y-101105771D02*
X158507143Y-101153390D01*
X158507143Y-101153390D02*
X158554762Y-101248628D01*
X158554762Y-101248628D02*
X158554762Y-101534342D01*
X158554762Y-101534342D02*
X158507143Y-101629580D01*
X158507143Y-101629580D02*
X158459524Y-101677200D01*
X158459524Y-101677200D02*
X158364286Y-101724819D01*
X158364286Y-101724819D02*
X158221429Y-101724819D01*
X159411905Y-101058152D02*
X159411905Y-101867676D01*
X159411905Y-101867676D02*
X159364286Y-101962914D01*
X159364286Y-101962914D02*
X159316667Y-102010533D01*
X159316667Y-102010533D02*
X159221429Y-102058152D01*
X159221429Y-102058152D02*
X159078572Y-102058152D01*
X159078572Y-102058152D02*
X158983334Y-102010533D01*
X159411905Y-101677200D02*
X159316667Y-101724819D01*
X159316667Y-101724819D02*
X159126191Y-101724819D01*
X159126191Y-101724819D02*
X159030953Y-101677200D01*
X159030953Y-101677200D02*
X158983334Y-101629580D01*
X158983334Y-101629580D02*
X158935715Y-101534342D01*
X158935715Y-101534342D02*
X158935715Y-101248628D01*
X158935715Y-101248628D02*
X158983334Y-101153390D01*
X158983334Y-101153390D02*
X159030953Y-101105771D01*
X159030953Y-101105771D02*
X159126191Y-101058152D01*
X159126191Y-101058152D02*
X159316667Y-101058152D01*
X159316667Y-101058152D02*
X159411905Y-101105771D01*
X150466666Y-100724819D02*
X150466666Y-101439104D01*
X150466666Y-101439104D02*
X150419047Y-101581961D01*
X150419047Y-101581961D02*
X150323809Y-101677200D01*
X150323809Y-101677200D02*
X150180952Y-101724819D01*
X150180952Y-101724819D02*
X150085714Y-101724819D01*
X150847619Y-100724819D02*
X151466666Y-100724819D01*
X151466666Y-100724819D02*
X151133333Y-101105771D01*
X151133333Y-101105771D02*
X151276190Y-101105771D01*
X151276190Y-101105771D02*
X151371428Y-101153390D01*
X151371428Y-101153390D02*
X151419047Y-101201009D01*
X151419047Y-101201009D02*
X151466666Y-101296247D01*
X151466666Y-101296247D02*
X151466666Y-101534342D01*
X151466666Y-101534342D02*
X151419047Y-101629580D01*
X151419047Y-101629580D02*
X151371428Y-101677200D01*
X151371428Y-101677200D02*
X151276190Y-101724819D01*
X151276190Y-101724819D02*
X150990476Y-101724819D01*
X150990476Y-101724819D02*
X150895238Y-101677200D01*
X150895238Y-101677200D02*
X150847619Y-101629580D01*
%TO.C,J2*%
X125868857Y-45844819D02*
X125868857Y-44844819D01*
X125868857Y-44844819D02*
X126106952Y-44844819D01*
X126106952Y-44844819D02*
X126249809Y-44892438D01*
X126249809Y-44892438D02*
X126345047Y-44987676D01*
X126345047Y-44987676D02*
X126392666Y-45082914D01*
X126392666Y-45082914D02*
X126440285Y-45273390D01*
X126440285Y-45273390D02*
X126440285Y-45416247D01*
X126440285Y-45416247D02*
X126392666Y-45606723D01*
X126392666Y-45606723D02*
X126345047Y-45701961D01*
X126345047Y-45701961D02*
X126249809Y-45797200D01*
X126249809Y-45797200D02*
X126106952Y-45844819D01*
X126106952Y-45844819D02*
X125868857Y-45844819D01*
X126868857Y-45844819D02*
X126868857Y-45178152D01*
X126868857Y-44844819D02*
X126821238Y-44892438D01*
X126821238Y-44892438D02*
X126868857Y-44940057D01*
X126868857Y-44940057D02*
X126916476Y-44892438D01*
X126916476Y-44892438D02*
X126868857Y-44844819D01*
X126868857Y-44844819D02*
X126868857Y-44940057D01*
X127773618Y-45178152D02*
X127773618Y-45987676D01*
X127773618Y-45987676D02*
X127725999Y-46082914D01*
X127725999Y-46082914D02*
X127678380Y-46130533D01*
X127678380Y-46130533D02*
X127583142Y-46178152D01*
X127583142Y-46178152D02*
X127440285Y-46178152D01*
X127440285Y-46178152D02*
X127345047Y-46130533D01*
X127773618Y-45797200D02*
X127678380Y-45844819D01*
X127678380Y-45844819D02*
X127487904Y-45844819D01*
X127487904Y-45844819D02*
X127392666Y-45797200D01*
X127392666Y-45797200D02*
X127345047Y-45749580D01*
X127345047Y-45749580D02*
X127297428Y-45654342D01*
X127297428Y-45654342D02*
X127297428Y-45368628D01*
X127297428Y-45368628D02*
X127345047Y-45273390D01*
X127345047Y-45273390D02*
X127392666Y-45225771D01*
X127392666Y-45225771D02*
X127487904Y-45178152D01*
X127487904Y-45178152D02*
X127678380Y-45178152D01*
X127678380Y-45178152D02*
X127773618Y-45225771D01*
X128249809Y-45844819D02*
X128249809Y-45178152D01*
X128249809Y-44844819D02*
X128202190Y-44892438D01*
X128202190Y-44892438D02*
X128249809Y-44940057D01*
X128249809Y-44940057D02*
X128297428Y-44892438D01*
X128297428Y-44892438D02*
X128249809Y-44844819D01*
X128249809Y-44844819D02*
X128249809Y-44940057D01*
X128583142Y-45178152D02*
X128964094Y-45178152D01*
X128725999Y-44844819D02*
X128725999Y-45701961D01*
X128725999Y-45701961D02*
X128773618Y-45797200D01*
X128773618Y-45797200D02*
X128868856Y-45844819D01*
X128868856Y-45844819D02*
X128964094Y-45844819D01*
X129725999Y-45844819D02*
X129725999Y-45321009D01*
X129725999Y-45321009D02*
X129678380Y-45225771D01*
X129678380Y-45225771D02*
X129583142Y-45178152D01*
X129583142Y-45178152D02*
X129392666Y-45178152D01*
X129392666Y-45178152D02*
X129297428Y-45225771D01*
X129725999Y-45797200D02*
X129630761Y-45844819D01*
X129630761Y-45844819D02*
X129392666Y-45844819D01*
X129392666Y-45844819D02*
X129297428Y-45797200D01*
X129297428Y-45797200D02*
X129249809Y-45701961D01*
X129249809Y-45701961D02*
X129249809Y-45606723D01*
X129249809Y-45606723D02*
X129297428Y-45511485D01*
X129297428Y-45511485D02*
X129392666Y-45463866D01*
X129392666Y-45463866D02*
X129630761Y-45463866D01*
X129630761Y-45463866D02*
X129725999Y-45416247D01*
X130345047Y-45844819D02*
X130249809Y-45797200D01*
X130249809Y-45797200D02*
X130202190Y-45701961D01*
X130202190Y-45701961D02*
X130202190Y-44844819D01*
X131440285Y-44797200D02*
X130583143Y-46082914D01*
X131773619Y-45844819D02*
X131773619Y-44844819D01*
X131773619Y-44844819D02*
X132154571Y-44844819D01*
X132154571Y-44844819D02*
X132249809Y-44892438D01*
X132249809Y-44892438D02*
X132297428Y-44940057D01*
X132297428Y-44940057D02*
X132345047Y-45035295D01*
X132345047Y-45035295D02*
X132345047Y-45178152D01*
X132345047Y-45178152D02*
X132297428Y-45273390D01*
X132297428Y-45273390D02*
X132249809Y-45321009D01*
X132249809Y-45321009D02*
X132154571Y-45368628D01*
X132154571Y-45368628D02*
X131773619Y-45368628D01*
X132678381Y-44844819D02*
X132916476Y-45844819D01*
X132916476Y-45844819D02*
X133106952Y-45130533D01*
X133106952Y-45130533D02*
X133297428Y-45844819D01*
X133297428Y-45844819D02*
X133535524Y-44844819D01*
X133916476Y-45844819D02*
X133916476Y-44844819D01*
X133916476Y-44844819D02*
X134249809Y-45559104D01*
X134249809Y-45559104D02*
X134583142Y-44844819D01*
X134583142Y-44844819D02*
X134583142Y-45844819D01*
X118462666Y-44844819D02*
X118462666Y-45559104D01*
X118462666Y-45559104D02*
X118415047Y-45701961D01*
X118415047Y-45701961D02*
X118319809Y-45797200D01*
X118319809Y-45797200D02*
X118176952Y-45844819D01*
X118176952Y-45844819D02*
X118081714Y-45844819D01*
X118891238Y-44940057D02*
X118938857Y-44892438D01*
X118938857Y-44892438D02*
X119034095Y-44844819D01*
X119034095Y-44844819D02*
X119272190Y-44844819D01*
X119272190Y-44844819D02*
X119367428Y-44892438D01*
X119367428Y-44892438D02*
X119415047Y-44940057D01*
X119415047Y-44940057D02*
X119462666Y-45035295D01*
X119462666Y-45035295D02*
X119462666Y-45130533D01*
X119462666Y-45130533D02*
X119415047Y-45273390D01*
X119415047Y-45273390D02*
X118843619Y-45844819D01*
X118843619Y-45844819D02*
X119462666Y-45844819D01*
%TO.C,J4*%
X150252857Y-45844819D02*
X150252857Y-44844819D01*
X150252857Y-44844819D02*
X150490952Y-44844819D01*
X150490952Y-44844819D02*
X150633809Y-44892438D01*
X150633809Y-44892438D02*
X150729047Y-44987676D01*
X150729047Y-44987676D02*
X150776666Y-45082914D01*
X150776666Y-45082914D02*
X150824285Y-45273390D01*
X150824285Y-45273390D02*
X150824285Y-45416247D01*
X150824285Y-45416247D02*
X150776666Y-45606723D01*
X150776666Y-45606723D02*
X150729047Y-45701961D01*
X150729047Y-45701961D02*
X150633809Y-45797200D01*
X150633809Y-45797200D02*
X150490952Y-45844819D01*
X150490952Y-45844819D02*
X150252857Y-45844819D01*
X151252857Y-45844819D02*
X151252857Y-45178152D01*
X151252857Y-44844819D02*
X151205238Y-44892438D01*
X151205238Y-44892438D02*
X151252857Y-44940057D01*
X151252857Y-44940057D02*
X151300476Y-44892438D01*
X151300476Y-44892438D02*
X151252857Y-44844819D01*
X151252857Y-44844819D02*
X151252857Y-44940057D01*
X152157618Y-45178152D02*
X152157618Y-45987676D01*
X152157618Y-45987676D02*
X152109999Y-46082914D01*
X152109999Y-46082914D02*
X152062380Y-46130533D01*
X152062380Y-46130533D02*
X151967142Y-46178152D01*
X151967142Y-46178152D02*
X151824285Y-46178152D01*
X151824285Y-46178152D02*
X151729047Y-46130533D01*
X152157618Y-45797200D02*
X152062380Y-45844819D01*
X152062380Y-45844819D02*
X151871904Y-45844819D01*
X151871904Y-45844819D02*
X151776666Y-45797200D01*
X151776666Y-45797200D02*
X151729047Y-45749580D01*
X151729047Y-45749580D02*
X151681428Y-45654342D01*
X151681428Y-45654342D02*
X151681428Y-45368628D01*
X151681428Y-45368628D02*
X151729047Y-45273390D01*
X151729047Y-45273390D02*
X151776666Y-45225771D01*
X151776666Y-45225771D02*
X151871904Y-45178152D01*
X151871904Y-45178152D02*
X152062380Y-45178152D01*
X152062380Y-45178152D02*
X152157618Y-45225771D01*
X152633809Y-45844819D02*
X152633809Y-45178152D01*
X152633809Y-44844819D02*
X152586190Y-44892438D01*
X152586190Y-44892438D02*
X152633809Y-44940057D01*
X152633809Y-44940057D02*
X152681428Y-44892438D01*
X152681428Y-44892438D02*
X152633809Y-44844819D01*
X152633809Y-44844819D02*
X152633809Y-44940057D01*
X152967142Y-45178152D02*
X153348094Y-45178152D01*
X153109999Y-44844819D02*
X153109999Y-45701961D01*
X153109999Y-45701961D02*
X153157618Y-45797200D01*
X153157618Y-45797200D02*
X153252856Y-45844819D01*
X153252856Y-45844819D02*
X153348094Y-45844819D01*
X154109999Y-45844819D02*
X154109999Y-45321009D01*
X154109999Y-45321009D02*
X154062380Y-45225771D01*
X154062380Y-45225771D02*
X153967142Y-45178152D01*
X153967142Y-45178152D02*
X153776666Y-45178152D01*
X153776666Y-45178152D02*
X153681428Y-45225771D01*
X154109999Y-45797200D02*
X154014761Y-45844819D01*
X154014761Y-45844819D02*
X153776666Y-45844819D01*
X153776666Y-45844819D02*
X153681428Y-45797200D01*
X153681428Y-45797200D02*
X153633809Y-45701961D01*
X153633809Y-45701961D02*
X153633809Y-45606723D01*
X153633809Y-45606723D02*
X153681428Y-45511485D01*
X153681428Y-45511485D02*
X153776666Y-45463866D01*
X153776666Y-45463866D02*
X154014761Y-45463866D01*
X154014761Y-45463866D02*
X154109999Y-45416247D01*
X154729047Y-45844819D02*
X154633809Y-45797200D01*
X154633809Y-45797200D02*
X154586190Y-45701961D01*
X154586190Y-45701961D02*
X154586190Y-44844819D01*
X155824285Y-44797200D02*
X154967143Y-46082914D01*
X156157619Y-45844819D02*
X156157619Y-44844819D01*
X156157619Y-44844819D02*
X156538571Y-44844819D01*
X156538571Y-44844819D02*
X156633809Y-44892438D01*
X156633809Y-44892438D02*
X156681428Y-44940057D01*
X156681428Y-44940057D02*
X156729047Y-45035295D01*
X156729047Y-45035295D02*
X156729047Y-45178152D01*
X156729047Y-45178152D02*
X156681428Y-45273390D01*
X156681428Y-45273390D02*
X156633809Y-45321009D01*
X156633809Y-45321009D02*
X156538571Y-45368628D01*
X156538571Y-45368628D02*
X156157619Y-45368628D01*
X157062381Y-44844819D02*
X157300476Y-45844819D01*
X157300476Y-45844819D02*
X157490952Y-45130533D01*
X157490952Y-45130533D02*
X157681428Y-45844819D01*
X157681428Y-45844819D02*
X157919524Y-44844819D01*
X158300476Y-45844819D02*
X158300476Y-44844819D01*
X158300476Y-44844819D02*
X158633809Y-45559104D01*
X158633809Y-45559104D02*
X158967142Y-44844819D01*
X158967142Y-44844819D02*
X158967142Y-45844819D01*
X145386666Y-44844819D02*
X145386666Y-45559104D01*
X145386666Y-45559104D02*
X145339047Y-45701961D01*
X145339047Y-45701961D02*
X145243809Y-45797200D01*
X145243809Y-45797200D02*
X145100952Y-45844819D01*
X145100952Y-45844819D02*
X145005714Y-45844819D01*
X146291428Y-45178152D02*
X146291428Y-45844819D01*
X146053333Y-44797200D02*
X145815238Y-45511485D01*
X145815238Y-45511485D02*
X146434285Y-45511485D01*
%TO.C,U1*%
X146444819Y-79171904D02*
X147254342Y-79171904D01*
X147254342Y-79171904D02*
X147349580Y-79124285D01*
X147349580Y-79124285D02*
X147397200Y-79076666D01*
X147397200Y-79076666D02*
X147444819Y-78981428D01*
X147444819Y-78981428D02*
X147444819Y-78790952D01*
X147444819Y-78790952D02*
X147397200Y-78695714D01*
X147397200Y-78695714D02*
X147349580Y-78648095D01*
X147349580Y-78648095D02*
X147254342Y-78600476D01*
X147254342Y-78600476D02*
X146444819Y-78600476D01*
X147444819Y-77600476D02*
X147444819Y-78171904D01*
X147444819Y-77886190D02*
X146444819Y-77886190D01*
X146444819Y-77886190D02*
X146587676Y-77981428D01*
X146587676Y-77981428D02*
X146682914Y-78076666D01*
X146682914Y-78076666D02*
X146730533Y-78171904D01*
%TO.C,J6*%
X113154819Y-94990952D02*
X112154819Y-94990952D01*
X113107200Y-94562381D02*
X113154819Y-94419524D01*
X113154819Y-94419524D02*
X113154819Y-94181429D01*
X113154819Y-94181429D02*
X113107200Y-94086191D01*
X113107200Y-94086191D02*
X113059580Y-94038572D01*
X113059580Y-94038572D02*
X112964342Y-93990953D01*
X112964342Y-93990953D02*
X112869104Y-93990953D01*
X112869104Y-93990953D02*
X112773866Y-94038572D01*
X112773866Y-94038572D02*
X112726247Y-94086191D01*
X112726247Y-94086191D02*
X112678628Y-94181429D01*
X112678628Y-94181429D02*
X112631009Y-94371905D01*
X112631009Y-94371905D02*
X112583390Y-94467143D01*
X112583390Y-94467143D02*
X112535771Y-94514762D01*
X112535771Y-94514762D02*
X112440533Y-94562381D01*
X112440533Y-94562381D02*
X112345295Y-94562381D01*
X112345295Y-94562381D02*
X112250057Y-94514762D01*
X112250057Y-94514762D02*
X112202438Y-94467143D01*
X112202438Y-94467143D02*
X112154819Y-94371905D01*
X112154819Y-94371905D02*
X112154819Y-94133810D01*
X112154819Y-94133810D02*
X112202438Y-93990953D01*
X113154819Y-93562381D02*
X112154819Y-93562381D01*
X112154819Y-93562381D02*
X112154819Y-93181429D01*
X112154819Y-93181429D02*
X112202438Y-93086191D01*
X112202438Y-93086191D02*
X112250057Y-93038572D01*
X112250057Y-93038572D02*
X112345295Y-92990953D01*
X112345295Y-92990953D02*
X112488152Y-92990953D01*
X112488152Y-92990953D02*
X112583390Y-93038572D01*
X112583390Y-93038572D02*
X112631009Y-93086191D01*
X112631009Y-93086191D02*
X112678628Y-93181429D01*
X112678628Y-93181429D02*
X112678628Y-93562381D01*
X113154819Y-91800476D02*
X112154819Y-91800476D01*
X113154819Y-91371905D02*
X112631009Y-91371905D01*
X112631009Y-91371905D02*
X112535771Y-91419524D01*
X112535771Y-91419524D02*
X112488152Y-91514762D01*
X112488152Y-91514762D02*
X112488152Y-91657619D01*
X112488152Y-91657619D02*
X112535771Y-91752857D01*
X112535771Y-91752857D02*
X112583390Y-91800476D01*
X113107200Y-90514762D02*
X113154819Y-90610000D01*
X113154819Y-90610000D02*
X113154819Y-90800476D01*
X113154819Y-90800476D02*
X113107200Y-90895714D01*
X113107200Y-90895714D02*
X113011961Y-90943333D01*
X113011961Y-90943333D02*
X112631009Y-90943333D01*
X112631009Y-90943333D02*
X112535771Y-90895714D01*
X112535771Y-90895714D02*
X112488152Y-90800476D01*
X112488152Y-90800476D02*
X112488152Y-90610000D01*
X112488152Y-90610000D02*
X112535771Y-90514762D01*
X112535771Y-90514762D02*
X112631009Y-90467143D01*
X112631009Y-90467143D02*
X112726247Y-90467143D01*
X112726247Y-90467143D02*
X112821485Y-90943333D01*
X113154819Y-89610000D02*
X112631009Y-89610000D01*
X112631009Y-89610000D02*
X112535771Y-89657619D01*
X112535771Y-89657619D02*
X112488152Y-89752857D01*
X112488152Y-89752857D02*
X112488152Y-89943333D01*
X112488152Y-89943333D02*
X112535771Y-90038571D01*
X113107200Y-89610000D02*
X113154819Y-89705238D01*
X113154819Y-89705238D02*
X113154819Y-89943333D01*
X113154819Y-89943333D02*
X113107200Y-90038571D01*
X113107200Y-90038571D02*
X113011961Y-90086190D01*
X113011961Y-90086190D02*
X112916723Y-90086190D01*
X112916723Y-90086190D02*
X112821485Y-90038571D01*
X112821485Y-90038571D02*
X112773866Y-89943333D01*
X112773866Y-89943333D02*
X112773866Y-89705238D01*
X112773866Y-89705238D02*
X112726247Y-89610000D01*
X113154819Y-88705238D02*
X112154819Y-88705238D01*
X113107200Y-88705238D02*
X113154819Y-88800476D01*
X113154819Y-88800476D02*
X113154819Y-88990952D01*
X113154819Y-88990952D02*
X113107200Y-89086190D01*
X113107200Y-89086190D02*
X113059580Y-89133809D01*
X113059580Y-89133809D02*
X112964342Y-89181428D01*
X112964342Y-89181428D02*
X112678628Y-89181428D01*
X112678628Y-89181428D02*
X112583390Y-89133809D01*
X112583390Y-89133809D02*
X112535771Y-89086190D01*
X112535771Y-89086190D02*
X112488152Y-88990952D01*
X112488152Y-88990952D02*
X112488152Y-88800476D01*
X112488152Y-88800476D02*
X112535771Y-88705238D01*
X113107200Y-87848095D02*
X113154819Y-87943333D01*
X113154819Y-87943333D02*
X113154819Y-88133809D01*
X113154819Y-88133809D02*
X113107200Y-88229047D01*
X113107200Y-88229047D02*
X113011961Y-88276666D01*
X113011961Y-88276666D02*
X112631009Y-88276666D01*
X112631009Y-88276666D02*
X112535771Y-88229047D01*
X112535771Y-88229047D02*
X112488152Y-88133809D01*
X112488152Y-88133809D02*
X112488152Y-87943333D01*
X112488152Y-87943333D02*
X112535771Y-87848095D01*
X112535771Y-87848095D02*
X112631009Y-87800476D01*
X112631009Y-87800476D02*
X112726247Y-87800476D01*
X112726247Y-87800476D02*
X112821485Y-88276666D01*
X113154819Y-87371904D02*
X112488152Y-87371904D01*
X112678628Y-87371904D02*
X112583390Y-87324285D01*
X112583390Y-87324285D02*
X112535771Y-87276666D01*
X112535771Y-87276666D02*
X112488152Y-87181428D01*
X112488152Y-87181428D02*
X112488152Y-87086190D01*
X102334819Y-93018333D02*
X103049104Y-93018333D01*
X103049104Y-93018333D02*
X103191961Y-93065952D01*
X103191961Y-93065952D02*
X103287200Y-93161190D01*
X103287200Y-93161190D02*
X103334819Y-93304047D01*
X103334819Y-93304047D02*
X103334819Y-93399285D01*
X102334819Y-92113571D02*
X102334819Y-92304047D01*
X102334819Y-92304047D02*
X102382438Y-92399285D01*
X102382438Y-92399285D02*
X102430057Y-92446904D01*
X102430057Y-92446904D02*
X102572914Y-92542142D01*
X102572914Y-92542142D02*
X102763390Y-92589761D01*
X102763390Y-92589761D02*
X103144342Y-92589761D01*
X103144342Y-92589761D02*
X103239580Y-92542142D01*
X103239580Y-92542142D02*
X103287200Y-92494523D01*
X103287200Y-92494523D02*
X103334819Y-92399285D01*
X103334819Y-92399285D02*
X103334819Y-92208809D01*
X103334819Y-92208809D02*
X103287200Y-92113571D01*
X103287200Y-92113571D02*
X103239580Y-92065952D01*
X103239580Y-92065952D02*
X103144342Y-92018333D01*
X103144342Y-92018333D02*
X102906247Y-92018333D01*
X102906247Y-92018333D02*
X102811009Y-92065952D01*
X102811009Y-92065952D02*
X102763390Y-92113571D01*
X102763390Y-92113571D02*
X102715771Y-92208809D01*
X102715771Y-92208809D02*
X102715771Y-92399285D01*
X102715771Y-92399285D02*
X102763390Y-92494523D01*
X102763390Y-92494523D02*
X102811009Y-92542142D01*
X102811009Y-92542142D02*
X102906247Y-92589761D01*
%TO.C,D7*%
X149754819Y-57716857D02*
X149754819Y-58193047D01*
X149754819Y-58193047D02*
X148754819Y-58193047D01*
X149231009Y-57383523D02*
X149231009Y-57050190D01*
X149754819Y-56907333D02*
X149754819Y-57383523D01*
X149754819Y-57383523D02*
X148754819Y-57383523D01*
X148754819Y-57383523D02*
X148754819Y-56907333D01*
X149754819Y-56478761D02*
X148754819Y-56478761D01*
X148754819Y-56478761D02*
X148754819Y-56240666D01*
X148754819Y-56240666D02*
X148802438Y-56097809D01*
X148802438Y-56097809D02*
X148897676Y-56002571D01*
X148897676Y-56002571D02*
X148992914Y-55954952D01*
X148992914Y-55954952D02*
X149183390Y-55907333D01*
X149183390Y-55907333D02*
X149326247Y-55907333D01*
X149326247Y-55907333D02*
X149516723Y-55954952D01*
X149516723Y-55954952D02*
X149611961Y-56002571D01*
X149611961Y-56002571D02*
X149707200Y-56097809D01*
X149707200Y-56097809D02*
X149754819Y-56240666D01*
X149754819Y-56240666D02*
X149754819Y-56478761D01*
%TO.C,D9*%
X118010476Y-101112819D02*
X118010476Y-100112819D01*
X118010476Y-100112819D02*
X118391428Y-100112819D01*
X118391428Y-100112819D02*
X118486666Y-100160438D01*
X118486666Y-100160438D02*
X118534285Y-100208057D01*
X118534285Y-100208057D02*
X118581904Y-100303295D01*
X118581904Y-100303295D02*
X118581904Y-100446152D01*
X118581904Y-100446152D02*
X118534285Y-100541390D01*
X118534285Y-100541390D02*
X118486666Y-100589009D01*
X118486666Y-100589009D02*
X118391428Y-100636628D01*
X118391428Y-100636628D02*
X118010476Y-100636628D01*
X119200952Y-100112819D02*
X119391428Y-100112819D01*
X119391428Y-100112819D02*
X119486666Y-100160438D01*
X119486666Y-100160438D02*
X119581904Y-100255676D01*
X119581904Y-100255676D02*
X119629523Y-100446152D01*
X119629523Y-100446152D02*
X119629523Y-100779485D01*
X119629523Y-100779485D02*
X119581904Y-100969961D01*
X119581904Y-100969961D02*
X119486666Y-101065200D01*
X119486666Y-101065200D02*
X119391428Y-101112819D01*
X119391428Y-101112819D02*
X119200952Y-101112819D01*
X119200952Y-101112819D02*
X119105714Y-101065200D01*
X119105714Y-101065200D02*
X119010476Y-100969961D01*
X119010476Y-100969961D02*
X118962857Y-100779485D01*
X118962857Y-100779485D02*
X118962857Y-100446152D01*
X118962857Y-100446152D02*
X119010476Y-100255676D01*
X119010476Y-100255676D02*
X119105714Y-100160438D01*
X119105714Y-100160438D02*
X119200952Y-100112819D01*
X119962857Y-100112819D02*
X120200952Y-101112819D01*
X120200952Y-101112819D02*
X120391428Y-100398533D01*
X120391428Y-100398533D02*
X120581904Y-101112819D01*
X120581904Y-101112819D02*
X120820000Y-100112819D01*
X121200952Y-100589009D02*
X121534285Y-100589009D01*
X121677142Y-101112819D02*
X121200952Y-101112819D01*
X121200952Y-101112819D02*
X121200952Y-100112819D01*
X121200952Y-100112819D02*
X121677142Y-100112819D01*
X122677142Y-101112819D02*
X122343809Y-100636628D01*
X122105714Y-101112819D02*
X122105714Y-100112819D01*
X122105714Y-100112819D02*
X122486666Y-100112819D01*
X122486666Y-100112819D02*
X122581904Y-100160438D01*
X122581904Y-100160438D02*
X122629523Y-100208057D01*
X122629523Y-100208057D02*
X122677142Y-100303295D01*
X122677142Y-100303295D02*
X122677142Y-100446152D01*
X122677142Y-100446152D02*
X122629523Y-100541390D01*
X122629523Y-100541390D02*
X122581904Y-100589009D01*
X122581904Y-100589009D02*
X122486666Y-100636628D01*
X122486666Y-100636628D02*
X122105714Y-100636628D01*
D11*
X119709524Y-97057695D02*
X119709524Y-96257695D01*
X119709524Y-96257695D02*
X119900000Y-96257695D01*
X119900000Y-96257695D02*
X120014286Y-96295790D01*
X120014286Y-96295790D02*
X120090476Y-96371980D01*
X120090476Y-96371980D02*
X120128571Y-96448171D01*
X120128571Y-96448171D02*
X120166667Y-96600552D01*
X120166667Y-96600552D02*
X120166667Y-96714838D01*
X120166667Y-96714838D02*
X120128571Y-96867219D01*
X120128571Y-96867219D02*
X120090476Y-96943409D01*
X120090476Y-96943409D02*
X120014286Y-97019600D01*
X120014286Y-97019600D02*
X119900000Y-97057695D01*
X119900000Y-97057695D02*
X119709524Y-97057695D01*
X120547619Y-97057695D02*
X120700000Y-97057695D01*
X120700000Y-97057695D02*
X120776190Y-97019600D01*
X120776190Y-97019600D02*
X120814286Y-96981504D01*
X120814286Y-96981504D02*
X120890476Y-96867219D01*
X120890476Y-96867219D02*
X120928571Y-96714838D01*
X120928571Y-96714838D02*
X120928571Y-96410076D01*
X120928571Y-96410076D02*
X120890476Y-96333885D01*
X120890476Y-96333885D02*
X120852381Y-96295790D01*
X120852381Y-96295790D02*
X120776190Y-96257695D01*
X120776190Y-96257695D02*
X120623809Y-96257695D01*
X120623809Y-96257695D02*
X120547619Y-96295790D01*
X120547619Y-96295790D02*
X120509524Y-96333885D01*
X120509524Y-96333885D02*
X120471428Y-96410076D01*
X120471428Y-96410076D02*
X120471428Y-96600552D01*
X120471428Y-96600552D02*
X120509524Y-96676742D01*
X120509524Y-96676742D02*
X120547619Y-96714838D01*
X120547619Y-96714838D02*
X120623809Y-96752933D01*
X120623809Y-96752933D02*
X120776190Y-96752933D01*
X120776190Y-96752933D02*
X120852381Y-96714838D01*
X120852381Y-96714838D02*
X120890476Y-96676742D01*
X120890476Y-96676742D02*
X120928571Y-96600552D01*
D10*
%TO.C,D2*%
X163724819Y-57716857D02*
X163724819Y-58193047D01*
X163724819Y-58193047D02*
X162724819Y-58193047D01*
X163201009Y-57383523D02*
X163201009Y-57050190D01*
X163724819Y-56907333D02*
X163724819Y-57383523D01*
X163724819Y-57383523D02*
X162724819Y-57383523D01*
X162724819Y-57383523D02*
X162724819Y-56907333D01*
X163724819Y-56478761D02*
X162724819Y-56478761D01*
X162724819Y-56478761D02*
X162724819Y-56240666D01*
X162724819Y-56240666D02*
X162772438Y-56097809D01*
X162772438Y-56097809D02*
X162867676Y-56002571D01*
X162867676Y-56002571D02*
X162962914Y-55954952D01*
X162962914Y-55954952D02*
X163153390Y-55907333D01*
X163153390Y-55907333D02*
X163296247Y-55907333D01*
X163296247Y-55907333D02*
X163486723Y-55954952D01*
X163486723Y-55954952D02*
X163581961Y-56002571D01*
X163581961Y-56002571D02*
X163677200Y-56097809D01*
X163677200Y-56097809D02*
X163724819Y-56240666D01*
X163724819Y-56240666D02*
X163724819Y-56478761D01*
%TO.C,SW1*%
X140743714Y-72003200D02*
X140886571Y-72050819D01*
X140886571Y-72050819D02*
X141124666Y-72050819D01*
X141124666Y-72050819D02*
X141219904Y-72003200D01*
X141219904Y-72003200D02*
X141267523Y-71955580D01*
X141267523Y-71955580D02*
X141315142Y-71860342D01*
X141315142Y-71860342D02*
X141315142Y-71765104D01*
X141315142Y-71765104D02*
X141267523Y-71669866D01*
X141267523Y-71669866D02*
X141219904Y-71622247D01*
X141219904Y-71622247D02*
X141124666Y-71574628D01*
X141124666Y-71574628D02*
X140934190Y-71527009D01*
X140934190Y-71527009D02*
X140838952Y-71479390D01*
X140838952Y-71479390D02*
X140791333Y-71431771D01*
X140791333Y-71431771D02*
X140743714Y-71336533D01*
X140743714Y-71336533D02*
X140743714Y-71241295D01*
X140743714Y-71241295D02*
X140791333Y-71146057D01*
X140791333Y-71146057D02*
X140838952Y-71098438D01*
X140838952Y-71098438D02*
X140934190Y-71050819D01*
X140934190Y-71050819D02*
X141172285Y-71050819D01*
X141172285Y-71050819D02*
X141315142Y-71098438D01*
X141648476Y-71050819D02*
X141886571Y-72050819D01*
X141886571Y-72050819D02*
X142077047Y-71336533D01*
X142077047Y-71336533D02*
X142267523Y-72050819D01*
X142267523Y-72050819D02*
X142505619Y-71050819D01*
X142648476Y-72146057D02*
X143410380Y-72146057D01*
X143648476Y-72050819D02*
X143648476Y-71050819D01*
X143648476Y-71050819D02*
X143886571Y-71050819D01*
X143886571Y-71050819D02*
X144029428Y-71098438D01*
X144029428Y-71098438D02*
X144124666Y-71193676D01*
X144124666Y-71193676D02*
X144172285Y-71288914D01*
X144172285Y-71288914D02*
X144219904Y-71479390D01*
X144219904Y-71479390D02*
X144219904Y-71622247D01*
X144219904Y-71622247D02*
X144172285Y-71812723D01*
X144172285Y-71812723D02*
X144124666Y-71907961D01*
X144124666Y-71907961D02*
X144029428Y-72003200D01*
X144029428Y-72003200D02*
X143886571Y-72050819D01*
X143886571Y-72050819D02*
X143648476Y-72050819D01*
X144648476Y-72050819D02*
X144648476Y-71050819D01*
X145124666Y-72050819D02*
X145124666Y-71050819D01*
X145124666Y-71050819D02*
X145505618Y-71050819D01*
X145505618Y-71050819D02*
X145600856Y-71098438D01*
X145600856Y-71098438D02*
X145648475Y-71146057D01*
X145648475Y-71146057D02*
X145696094Y-71241295D01*
X145696094Y-71241295D02*
X145696094Y-71384152D01*
X145696094Y-71384152D02*
X145648475Y-71479390D01*
X145648475Y-71479390D02*
X145600856Y-71527009D01*
X145600856Y-71527009D02*
X145505618Y-71574628D01*
X145505618Y-71574628D02*
X145124666Y-71574628D01*
X145886571Y-72146057D02*
X146648475Y-72146057D01*
X146791333Y-72050819D02*
X147315142Y-71384152D01*
X146791333Y-71384152D02*
X147315142Y-72050819D01*
X147886571Y-71050819D02*
X147981809Y-71050819D01*
X147981809Y-71050819D02*
X148077047Y-71098438D01*
X148077047Y-71098438D02*
X148124666Y-71146057D01*
X148124666Y-71146057D02*
X148172285Y-71241295D01*
X148172285Y-71241295D02*
X148219904Y-71431771D01*
X148219904Y-71431771D02*
X148219904Y-71669866D01*
X148219904Y-71669866D02*
X148172285Y-71860342D01*
X148172285Y-71860342D02*
X148124666Y-71955580D01*
X148124666Y-71955580D02*
X148077047Y-72003200D01*
X148077047Y-72003200D02*
X147981809Y-72050819D01*
X147981809Y-72050819D02*
X147886571Y-72050819D01*
X147886571Y-72050819D02*
X147791333Y-72003200D01*
X147791333Y-72003200D02*
X147743714Y-71955580D01*
X147743714Y-71955580D02*
X147696095Y-71860342D01*
X147696095Y-71860342D02*
X147648476Y-71669866D01*
X147648476Y-71669866D02*
X147648476Y-71431771D01*
X147648476Y-71431771D02*
X147696095Y-71241295D01*
X147696095Y-71241295D02*
X147743714Y-71146057D01*
X147743714Y-71146057D02*
X147791333Y-71098438D01*
X147791333Y-71098438D02*
X147886571Y-71050819D01*
X148600857Y-71146057D02*
X148648476Y-71098438D01*
X148648476Y-71098438D02*
X148743714Y-71050819D01*
X148743714Y-71050819D02*
X148981809Y-71050819D01*
X148981809Y-71050819D02*
X149077047Y-71098438D01*
X149077047Y-71098438D02*
X149124666Y-71146057D01*
X149124666Y-71146057D02*
X149172285Y-71241295D01*
X149172285Y-71241295D02*
X149172285Y-71336533D01*
X149172285Y-71336533D02*
X149124666Y-71479390D01*
X149124666Y-71479390D02*
X148553238Y-72050819D01*
X148553238Y-72050819D02*
X149172285Y-72050819D01*
X143624667Y-68403200D02*
X143767524Y-68450819D01*
X143767524Y-68450819D02*
X144005619Y-68450819D01*
X144005619Y-68450819D02*
X144100857Y-68403200D01*
X144100857Y-68403200D02*
X144148476Y-68355580D01*
X144148476Y-68355580D02*
X144196095Y-68260342D01*
X144196095Y-68260342D02*
X144196095Y-68165104D01*
X144196095Y-68165104D02*
X144148476Y-68069866D01*
X144148476Y-68069866D02*
X144100857Y-68022247D01*
X144100857Y-68022247D02*
X144005619Y-67974628D01*
X144005619Y-67974628D02*
X143815143Y-67927009D01*
X143815143Y-67927009D02*
X143719905Y-67879390D01*
X143719905Y-67879390D02*
X143672286Y-67831771D01*
X143672286Y-67831771D02*
X143624667Y-67736533D01*
X143624667Y-67736533D02*
X143624667Y-67641295D01*
X143624667Y-67641295D02*
X143672286Y-67546057D01*
X143672286Y-67546057D02*
X143719905Y-67498438D01*
X143719905Y-67498438D02*
X143815143Y-67450819D01*
X143815143Y-67450819D02*
X144053238Y-67450819D01*
X144053238Y-67450819D02*
X144196095Y-67498438D01*
X144529429Y-67450819D02*
X144767524Y-68450819D01*
X144767524Y-68450819D02*
X144958000Y-67736533D01*
X144958000Y-67736533D02*
X145148476Y-68450819D01*
X145148476Y-68450819D02*
X145386572Y-67450819D01*
X146291333Y-68450819D02*
X145719905Y-68450819D01*
X146005619Y-68450819D02*
X146005619Y-67450819D01*
X146005619Y-67450819D02*
X145910381Y-67593676D01*
X145910381Y-67593676D02*
X145815143Y-67688914D01*
X145815143Y-67688914D02*
X145719905Y-67736533D01*
%TO.C,D1*%
X166518819Y-57716857D02*
X166518819Y-58193047D01*
X166518819Y-58193047D02*
X165518819Y-58193047D01*
X165995009Y-57383523D02*
X165995009Y-57050190D01*
X166518819Y-56907333D02*
X166518819Y-57383523D01*
X166518819Y-57383523D02*
X165518819Y-57383523D01*
X165518819Y-57383523D02*
X165518819Y-56907333D01*
X166518819Y-56478761D02*
X165518819Y-56478761D01*
X165518819Y-56478761D02*
X165518819Y-56240666D01*
X165518819Y-56240666D02*
X165566438Y-56097809D01*
X165566438Y-56097809D02*
X165661676Y-56002571D01*
X165661676Y-56002571D02*
X165756914Y-55954952D01*
X165756914Y-55954952D02*
X165947390Y-55907333D01*
X165947390Y-55907333D02*
X166090247Y-55907333D01*
X166090247Y-55907333D02*
X166280723Y-55954952D01*
X166280723Y-55954952D02*
X166375961Y-56002571D01*
X166375961Y-56002571D02*
X166471200Y-56097809D01*
X166471200Y-56097809D02*
X166518819Y-56240666D01*
X166518819Y-56240666D02*
X166518819Y-56478761D01*
%TO.C,RN1*%
X148879618Y-66278819D02*
X148546285Y-65802628D01*
X148308190Y-66278819D02*
X148308190Y-65278819D01*
X148308190Y-65278819D02*
X148689142Y-65278819D01*
X148689142Y-65278819D02*
X148784380Y-65326438D01*
X148784380Y-65326438D02*
X148831999Y-65374057D01*
X148831999Y-65374057D02*
X148879618Y-65469295D01*
X148879618Y-65469295D02*
X148879618Y-65612152D01*
X148879618Y-65612152D02*
X148831999Y-65707390D01*
X148831999Y-65707390D02*
X148784380Y-65755009D01*
X148784380Y-65755009D02*
X148689142Y-65802628D01*
X148689142Y-65802628D02*
X148308190Y-65802628D01*
X149070095Y-66374057D02*
X149831999Y-66374057D01*
X150070095Y-66278819D02*
X150070095Y-65278819D01*
X150070095Y-65278819D02*
X150641523Y-66278819D01*
X150641523Y-66278819D02*
X150641523Y-65278819D01*
X151498666Y-66231200D02*
X151403428Y-66278819D01*
X151403428Y-66278819D02*
X151212952Y-66278819D01*
X151212952Y-66278819D02*
X151117714Y-66231200D01*
X151117714Y-66231200D02*
X151070095Y-66135961D01*
X151070095Y-66135961D02*
X151070095Y-65755009D01*
X151070095Y-65755009D02*
X151117714Y-65659771D01*
X151117714Y-65659771D02*
X151212952Y-65612152D01*
X151212952Y-65612152D02*
X151403428Y-65612152D01*
X151403428Y-65612152D02*
X151498666Y-65659771D01*
X151498666Y-65659771D02*
X151546285Y-65755009D01*
X151546285Y-65755009D02*
X151546285Y-65850247D01*
X151546285Y-65850247D02*
X151070095Y-65945485D01*
X151832000Y-65612152D02*
X152212952Y-65612152D01*
X151974857Y-65278819D02*
X151974857Y-66135961D01*
X151974857Y-66135961D02*
X152022476Y-66231200D01*
X152022476Y-66231200D02*
X152117714Y-66278819D01*
X152117714Y-66278819D02*
X152212952Y-66278819D01*
X152451048Y-65612152D02*
X152641524Y-66278819D01*
X152641524Y-66278819D02*
X152832000Y-65802628D01*
X152832000Y-65802628D02*
X153022476Y-66278819D01*
X153022476Y-66278819D02*
X153212952Y-65612152D01*
X153736762Y-66278819D02*
X153641524Y-66231200D01*
X153641524Y-66231200D02*
X153593905Y-66183580D01*
X153593905Y-66183580D02*
X153546286Y-66088342D01*
X153546286Y-66088342D02*
X153546286Y-65802628D01*
X153546286Y-65802628D02*
X153593905Y-65707390D01*
X153593905Y-65707390D02*
X153641524Y-65659771D01*
X153641524Y-65659771D02*
X153736762Y-65612152D01*
X153736762Y-65612152D02*
X153879619Y-65612152D01*
X153879619Y-65612152D02*
X153974857Y-65659771D01*
X153974857Y-65659771D02*
X154022476Y-65707390D01*
X154022476Y-65707390D02*
X154070095Y-65802628D01*
X154070095Y-65802628D02*
X154070095Y-66088342D01*
X154070095Y-66088342D02*
X154022476Y-66183580D01*
X154022476Y-66183580D02*
X153974857Y-66231200D01*
X153974857Y-66231200D02*
X153879619Y-66278819D01*
X153879619Y-66278819D02*
X153736762Y-66278819D01*
X154498667Y-66278819D02*
X154498667Y-65612152D01*
X154498667Y-65802628D02*
X154546286Y-65707390D01*
X154546286Y-65707390D02*
X154593905Y-65659771D01*
X154593905Y-65659771D02*
X154689143Y-65612152D01*
X154689143Y-65612152D02*
X154784381Y-65612152D01*
X155117715Y-66278819D02*
X155117715Y-65278819D01*
X155212953Y-65897866D02*
X155498667Y-66278819D01*
X155498667Y-65612152D02*
X155117715Y-65993104D01*
X156117715Y-65278819D02*
X156212953Y-65278819D01*
X156212953Y-65278819D02*
X156308191Y-65326438D01*
X156308191Y-65326438D02*
X156355810Y-65374057D01*
X156355810Y-65374057D02*
X156403429Y-65469295D01*
X156403429Y-65469295D02*
X156451048Y-65659771D01*
X156451048Y-65659771D02*
X156451048Y-65897866D01*
X156451048Y-65897866D02*
X156403429Y-66088342D01*
X156403429Y-66088342D02*
X156355810Y-66183580D01*
X156355810Y-66183580D02*
X156308191Y-66231200D01*
X156308191Y-66231200D02*
X156212953Y-66278819D01*
X156212953Y-66278819D02*
X156117715Y-66278819D01*
X156117715Y-66278819D02*
X156022477Y-66231200D01*
X156022477Y-66231200D02*
X155974858Y-66183580D01*
X155974858Y-66183580D02*
X155927239Y-66088342D01*
X155927239Y-66088342D02*
X155879620Y-65897866D01*
X155879620Y-65897866D02*
X155879620Y-65659771D01*
X155879620Y-65659771D02*
X155927239Y-65469295D01*
X155927239Y-65469295D02*
X155974858Y-65374057D01*
X155974858Y-65374057D02*
X156022477Y-65326438D01*
X156022477Y-65326438D02*
X156117715Y-65278819D01*
X157022477Y-65707390D02*
X156927239Y-65659771D01*
X156927239Y-65659771D02*
X156879620Y-65612152D01*
X156879620Y-65612152D02*
X156832001Y-65516914D01*
X156832001Y-65516914D02*
X156832001Y-65469295D01*
X156832001Y-65469295D02*
X156879620Y-65374057D01*
X156879620Y-65374057D02*
X156927239Y-65326438D01*
X156927239Y-65326438D02*
X157022477Y-65278819D01*
X157022477Y-65278819D02*
X157212953Y-65278819D01*
X157212953Y-65278819D02*
X157308191Y-65326438D01*
X157308191Y-65326438D02*
X157355810Y-65374057D01*
X157355810Y-65374057D02*
X157403429Y-65469295D01*
X157403429Y-65469295D02*
X157403429Y-65516914D01*
X157403429Y-65516914D02*
X157355810Y-65612152D01*
X157355810Y-65612152D02*
X157308191Y-65659771D01*
X157308191Y-65659771D02*
X157212953Y-65707390D01*
X157212953Y-65707390D02*
X157022477Y-65707390D01*
X157022477Y-65707390D02*
X156927239Y-65755009D01*
X156927239Y-65755009D02*
X156879620Y-65802628D01*
X156879620Y-65802628D02*
X156832001Y-65897866D01*
X156832001Y-65897866D02*
X156832001Y-66088342D01*
X156832001Y-66088342D02*
X156879620Y-66183580D01*
X156879620Y-66183580D02*
X156927239Y-66231200D01*
X156927239Y-66231200D02*
X157022477Y-66278819D01*
X157022477Y-66278819D02*
X157212953Y-66278819D01*
X157212953Y-66278819D02*
X157308191Y-66231200D01*
X157308191Y-66231200D02*
X157355810Y-66183580D01*
X157355810Y-66183580D02*
X157403429Y-66088342D01*
X157403429Y-66088342D02*
X157403429Y-65897866D01*
X157403429Y-65897866D02*
X157355810Y-65802628D01*
X157355810Y-65802628D02*
X157308191Y-65755009D01*
X157308191Y-65755009D02*
X157212953Y-65707390D01*
X150871523Y-63878819D02*
X150538190Y-63402628D01*
X150300095Y-63878819D02*
X150300095Y-62878819D01*
X150300095Y-62878819D02*
X150681047Y-62878819D01*
X150681047Y-62878819D02*
X150776285Y-62926438D01*
X150776285Y-62926438D02*
X150823904Y-62974057D01*
X150823904Y-62974057D02*
X150871523Y-63069295D01*
X150871523Y-63069295D02*
X150871523Y-63212152D01*
X150871523Y-63212152D02*
X150823904Y-63307390D01*
X150823904Y-63307390D02*
X150776285Y-63355009D01*
X150776285Y-63355009D02*
X150681047Y-63402628D01*
X150681047Y-63402628D02*
X150300095Y-63402628D01*
X151300095Y-63878819D02*
X151300095Y-62878819D01*
X151300095Y-62878819D02*
X151871523Y-63878819D01*
X151871523Y-63878819D02*
X151871523Y-62878819D01*
X152871523Y-63878819D02*
X152300095Y-63878819D01*
X152585809Y-63878819D02*
X152585809Y-62878819D01*
X152585809Y-62878819D02*
X152490571Y-63021676D01*
X152490571Y-63021676D02*
X152395333Y-63116914D01*
X152395333Y-63116914D02*
X152300095Y-63164533D01*
%TO.C,D4*%
X158136819Y-57716857D02*
X158136819Y-58193047D01*
X158136819Y-58193047D02*
X157136819Y-58193047D01*
X157613009Y-57383523D02*
X157613009Y-57050190D01*
X158136819Y-56907333D02*
X158136819Y-57383523D01*
X158136819Y-57383523D02*
X157136819Y-57383523D01*
X157136819Y-57383523D02*
X157136819Y-56907333D01*
X158136819Y-56478761D02*
X157136819Y-56478761D01*
X157136819Y-56478761D02*
X157136819Y-56240666D01*
X157136819Y-56240666D02*
X157184438Y-56097809D01*
X157184438Y-56097809D02*
X157279676Y-56002571D01*
X157279676Y-56002571D02*
X157374914Y-55954952D01*
X157374914Y-55954952D02*
X157565390Y-55907333D01*
X157565390Y-55907333D02*
X157708247Y-55907333D01*
X157708247Y-55907333D02*
X157898723Y-55954952D01*
X157898723Y-55954952D02*
X157993961Y-56002571D01*
X157993961Y-56002571D02*
X158089200Y-56097809D01*
X158089200Y-56097809D02*
X158136819Y-56240666D01*
X158136819Y-56240666D02*
X158136819Y-56478761D01*
%TO.C,C2*%
X111057143Y-80500057D02*
X111104762Y-80452438D01*
X111104762Y-80452438D02*
X111200000Y-80404819D01*
X111200000Y-80404819D02*
X111438095Y-80404819D01*
X111438095Y-80404819D02*
X111533333Y-80452438D01*
X111533333Y-80452438D02*
X111580952Y-80500057D01*
X111580952Y-80500057D02*
X111628571Y-80595295D01*
X111628571Y-80595295D02*
X111628571Y-80690533D01*
X111628571Y-80690533D02*
X111580952Y-80833390D01*
X111580952Y-80833390D02*
X111009524Y-81404819D01*
X111009524Y-81404819D02*
X111628571Y-81404819D01*
X112009524Y-80500057D02*
X112057143Y-80452438D01*
X112057143Y-80452438D02*
X112152381Y-80404819D01*
X112152381Y-80404819D02*
X112390476Y-80404819D01*
X112390476Y-80404819D02*
X112485714Y-80452438D01*
X112485714Y-80452438D02*
X112533333Y-80500057D01*
X112533333Y-80500057D02*
X112580952Y-80595295D01*
X112580952Y-80595295D02*
X112580952Y-80690533D01*
X112580952Y-80690533D02*
X112533333Y-80833390D01*
X112533333Y-80833390D02*
X111961905Y-81404819D01*
X111961905Y-81404819D02*
X112580952Y-81404819D01*
X113009524Y-80738152D02*
X113009524Y-81738152D01*
X113009524Y-80785771D02*
X113104762Y-80738152D01*
X113104762Y-80738152D02*
X113295238Y-80738152D01*
X113295238Y-80738152D02*
X113390476Y-80785771D01*
X113390476Y-80785771D02*
X113438095Y-80833390D01*
X113438095Y-80833390D02*
X113485714Y-80928628D01*
X113485714Y-80928628D02*
X113485714Y-81214342D01*
X113485714Y-81214342D02*
X113438095Y-81309580D01*
X113438095Y-81309580D02*
X113390476Y-81357200D01*
X113390476Y-81357200D02*
X113295238Y-81404819D01*
X113295238Y-81404819D02*
X113104762Y-81404819D01*
X113104762Y-81404819D02*
X113009524Y-81357200D01*
X114247619Y-80881009D02*
X113914286Y-80881009D01*
X113914286Y-81404819D02*
X113914286Y-80404819D01*
X113914286Y-80404819D02*
X114390476Y-80404819D01*
X113059580Y-77326666D02*
X113107200Y-77374285D01*
X113107200Y-77374285D02*
X113154819Y-77517142D01*
X113154819Y-77517142D02*
X113154819Y-77612380D01*
X113154819Y-77612380D02*
X113107200Y-77755237D01*
X113107200Y-77755237D02*
X113011961Y-77850475D01*
X113011961Y-77850475D02*
X112916723Y-77898094D01*
X112916723Y-77898094D02*
X112726247Y-77945713D01*
X112726247Y-77945713D02*
X112583390Y-77945713D01*
X112583390Y-77945713D02*
X112392914Y-77898094D01*
X112392914Y-77898094D02*
X112297676Y-77850475D01*
X112297676Y-77850475D02*
X112202438Y-77755237D01*
X112202438Y-77755237D02*
X112154819Y-77612380D01*
X112154819Y-77612380D02*
X112154819Y-77517142D01*
X112154819Y-77517142D02*
X112202438Y-77374285D01*
X112202438Y-77374285D02*
X112250057Y-77326666D01*
X112250057Y-76945713D02*
X112202438Y-76898094D01*
X112202438Y-76898094D02*
X112154819Y-76802856D01*
X112154819Y-76802856D02*
X112154819Y-76564761D01*
X112154819Y-76564761D02*
X112202438Y-76469523D01*
X112202438Y-76469523D02*
X112250057Y-76421904D01*
X112250057Y-76421904D02*
X112345295Y-76374285D01*
X112345295Y-76374285D02*
X112440533Y-76374285D01*
X112440533Y-76374285D02*
X112583390Y-76421904D01*
X112583390Y-76421904D02*
X113154819Y-76993332D01*
X113154819Y-76993332D02*
X113154819Y-76374285D01*
%TO.C,C3*%
X115654819Y-63447619D02*
X115654819Y-64019047D01*
X115654819Y-63733333D02*
X114654819Y-63733333D01*
X114654819Y-63733333D02*
X114797676Y-63828571D01*
X114797676Y-63828571D02*
X114892914Y-63923809D01*
X114892914Y-63923809D02*
X114940533Y-64019047D01*
X114654819Y-62828571D02*
X114654819Y-62733333D01*
X114654819Y-62733333D02*
X114702438Y-62638095D01*
X114702438Y-62638095D02*
X114750057Y-62590476D01*
X114750057Y-62590476D02*
X114845295Y-62542857D01*
X114845295Y-62542857D02*
X115035771Y-62495238D01*
X115035771Y-62495238D02*
X115273866Y-62495238D01*
X115273866Y-62495238D02*
X115464342Y-62542857D01*
X115464342Y-62542857D02*
X115559580Y-62590476D01*
X115559580Y-62590476D02*
X115607200Y-62638095D01*
X115607200Y-62638095D02*
X115654819Y-62733333D01*
X115654819Y-62733333D02*
X115654819Y-62828571D01*
X115654819Y-62828571D02*
X115607200Y-62923809D01*
X115607200Y-62923809D02*
X115559580Y-62971428D01*
X115559580Y-62971428D02*
X115464342Y-63019047D01*
X115464342Y-63019047D02*
X115273866Y-63066666D01*
X115273866Y-63066666D02*
X115035771Y-63066666D01*
X115035771Y-63066666D02*
X114845295Y-63019047D01*
X114845295Y-63019047D02*
X114750057Y-62971428D01*
X114750057Y-62971428D02*
X114702438Y-62923809D01*
X114702438Y-62923809D02*
X114654819Y-62828571D01*
X114654819Y-61876190D02*
X114654819Y-61780952D01*
X114654819Y-61780952D02*
X114702438Y-61685714D01*
X114702438Y-61685714D02*
X114750057Y-61638095D01*
X114750057Y-61638095D02*
X114845295Y-61590476D01*
X114845295Y-61590476D02*
X115035771Y-61542857D01*
X115035771Y-61542857D02*
X115273866Y-61542857D01*
X115273866Y-61542857D02*
X115464342Y-61590476D01*
X115464342Y-61590476D02*
X115559580Y-61638095D01*
X115559580Y-61638095D02*
X115607200Y-61685714D01*
X115607200Y-61685714D02*
X115654819Y-61780952D01*
X115654819Y-61780952D02*
X115654819Y-61876190D01*
X115654819Y-61876190D02*
X115607200Y-61971428D01*
X115607200Y-61971428D02*
X115559580Y-62019047D01*
X115559580Y-62019047D02*
X115464342Y-62066666D01*
X115464342Y-62066666D02*
X115273866Y-62114285D01*
X115273866Y-62114285D02*
X115035771Y-62114285D01*
X115035771Y-62114285D02*
X114845295Y-62066666D01*
X114845295Y-62066666D02*
X114750057Y-62019047D01*
X114750057Y-62019047D02*
X114702438Y-61971428D01*
X114702438Y-61971428D02*
X114654819Y-61876190D01*
X114988152Y-61114285D02*
X115654819Y-61114285D01*
X115083390Y-61114285D02*
X115035771Y-61066666D01*
X115035771Y-61066666D02*
X114988152Y-60971428D01*
X114988152Y-60971428D02*
X114988152Y-60828571D01*
X114988152Y-60828571D02*
X115035771Y-60733333D01*
X115035771Y-60733333D02*
X115131009Y-60685714D01*
X115131009Y-60685714D02*
X115654819Y-60685714D01*
X115131009Y-59876190D02*
X115131009Y-60209523D01*
X115654819Y-60209523D02*
X114654819Y-60209523D01*
X114654819Y-60209523D02*
X114654819Y-59733333D01*
X113059580Y-62066666D02*
X113107200Y-62114285D01*
X113107200Y-62114285D02*
X113154819Y-62257142D01*
X113154819Y-62257142D02*
X113154819Y-62352380D01*
X113154819Y-62352380D02*
X113107200Y-62495237D01*
X113107200Y-62495237D02*
X113011961Y-62590475D01*
X113011961Y-62590475D02*
X112916723Y-62638094D01*
X112916723Y-62638094D02*
X112726247Y-62685713D01*
X112726247Y-62685713D02*
X112583390Y-62685713D01*
X112583390Y-62685713D02*
X112392914Y-62638094D01*
X112392914Y-62638094D02*
X112297676Y-62590475D01*
X112297676Y-62590475D02*
X112202438Y-62495237D01*
X112202438Y-62495237D02*
X112154819Y-62352380D01*
X112154819Y-62352380D02*
X112154819Y-62257142D01*
X112154819Y-62257142D02*
X112202438Y-62114285D01*
X112202438Y-62114285D02*
X112250057Y-62066666D01*
X112154819Y-61733332D02*
X112154819Y-61114285D01*
X112154819Y-61114285D02*
X112535771Y-61447618D01*
X112535771Y-61447618D02*
X112535771Y-61304761D01*
X112535771Y-61304761D02*
X112583390Y-61209523D01*
X112583390Y-61209523D02*
X112631009Y-61161904D01*
X112631009Y-61161904D02*
X112726247Y-61114285D01*
X112726247Y-61114285D02*
X112964342Y-61114285D01*
X112964342Y-61114285D02*
X113059580Y-61161904D01*
X113059580Y-61161904D02*
X113107200Y-61209523D01*
X113107200Y-61209523D02*
X113154819Y-61304761D01*
X113154819Y-61304761D02*
X113154819Y-61590475D01*
X113154819Y-61590475D02*
X113107200Y-61685713D01*
X113107200Y-61685713D02*
X113059580Y-61733332D01*
%TO.C,D8*%
X146706819Y-57721857D02*
X146706819Y-58198047D01*
X146706819Y-58198047D02*
X145706819Y-58198047D01*
X146183009Y-57388523D02*
X146183009Y-57055190D01*
X146706819Y-56912333D02*
X146706819Y-57388523D01*
X146706819Y-57388523D02*
X145706819Y-57388523D01*
X145706819Y-57388523D02*
X145706819Y-56912333D01*
X146706819Y-56483761D02*
X145706819Y-56483761D01*
X145706819Y-56483761D02*
X145706819Y-56245666D01*
X145706819Y-56245666D02*
X145754438Y-56102809D01*
X145754438Y-56102809D02*
X145849676Y-56007571D01*
X145849676Y-56007571D02*
X145944914Y-55959952D01*
X145944914Y-55959952D02*
X146135390Y-55912333D01*
X146135390Y-55912333D02*
X146278247Y-55912333D01*
X146278247Y-55912333D02*
X146468723Y-55959952D01*
X146468723Y-55959952D02*
X146563961Y-56007571D01*
X146563961Y-56007571D02*
X146659200Y-56102809D01*
X146659200Y-56102809D02*
X146706819Y-56245666D01*
X146706819Y-56245666D02*
X146706819Y-56483761D01*
%TO.C,J5*%
X100397143Y-62624819D02*
X100397143Y-63434342D01*
X100397143Y-63434342D02*
X100444762Y-63529580D01*
X100444762Y-63529580D02*
X100492381Y-63577200D01*
X100492381Y-63577200D02*
X100587619Y-63624819D01*
X100587619Y-63624819D02*
X100778095Y-63624819D01*
X100778095Y-63624819D02*
X100873333Y-63577200D01*
X100873333Y-63577200D02*
X100920952Y-63529580D01*
X100920952Y-63529580D02*
X100968571Y-63434342D01*
X100968571Y-63434342D02*
X100968571Y-62624819D01*
X101397143Y-63577200D02*
X101540000Y-63624819D01*
X101540000Y-63624819D02*
X101778095Y-63624819D01*
X101778095Y-63624819D02*
X101873333Y-63577200D01*
X101873333Y-63577200D02*
X101920952Y-63529580D01*
X101920952Y-63529580D02*
X101968571Y-63434342D01*
X101968571Y-63434342D02*
X101968571Y-63339104D01*
X101968571Y-63339104D02*
X101920952Y-63243866D01*
X101920952Y-63243866D02*
X101873333Y-63196247D01*
X101873333Y-63196247D02*
X101778095Y-63148628D01*
X101778095Y-63148628D02*
X101587619Y-63101009D01*
X101587619Y-63101009D02*
X101492381Y-63053390D01*
X101492381Y-63053390D02*
X101444762Y-63005771D01*
X101444762Y-63005771D02*
X101397143Y-62910533D01*
X101397143Y-62910533D02*
X101397143Y-62815295D01*
X101397143Y-62815295D02*
X101444762Y-62720057D01*
X101444762Y-62720057D02*
X101492381Y-62672438D01*
X101492381Y-62672438D02*
X101587619Y-62624819D01*
X101587619Y-62624819D02*
X101825714Y-62624819D01*
X101825714Y-62624819D02*
X101968571Y-62672438D01*
X102730476Y-63101009D02*
X102873333Y-63148628D01*
X102873333Y-63148628D02*
X102920952Y-63196247D01*
X102920952Y-63196247D02*
X102968571Y-63291485D01*
X102968571Y-63291485D02*
X102968571Y-63434342D01*
X102968571Y-63434342D02*
X102920952Y-63529580D01*
X102920952Y-63529580D02*
X102873333Y-63577200D01*
X102873333Y-63577200D02*
X102778095Y-63624819D01*
X102778095Y-63624819D02*
X102397143Y-63624819D01*
X102397143Y-63624819D02*
X102397143Y-62624819D01*
X102397143Y-62624819D02*
X102730476Y-62624819D01*
X102730476Y-62624819D02*
X102825714Y-62672438D01*
X102825714Y-62672438D02*
X102873333Y-62720057D01*
X102873333Y-62720057D02*
X102920952Y-62815295D01*
X102920952Y-62815295D02*
X102920952Y-62910533D01*
X102920952Y-62910533D02*
X102873333Y-63005771D01*
X102873333Y-63005771D02*
X102825714Y-63053390D01*
X102825714Y-63053390D02*
X102730476Y-63101009D01*
X102730476Y-63101009D02*
X102397143Y-63101009D01*
X103159048Y-63720057D02*
X103920952Y-63720057D01*
X104492381Y-63101009D02*
X104635238Y-63148628D01*
X104635238Y-63148628D02*
X104682857Y-63196247D01*
X104682857Y-63196247D02*
X104730476Y-63291485D01*
X104730476Y-63291485D02*
X104730476Y-63434342D01*
X104730476Y-63434342D02*
X104682857Y-63529580D01*
X104682857Y-63529580D02*
X104635238Y-63577200D01*
X104635238Y-63577200D02*
X104540000Y-63624819D01*
X104540000Y-63624819D02*
X104159048Y-63624819D01*
X104159048Y-63624819D02*
X104159048Y-62624819D01*
X104159048Y-62624819D02*
X104492381Y-62624819D01*
X104492381Y-62624819D02*
X104587619Y-62672438D01*
X104587619Y-62672438D02*
X104635238Y-62720057D01*
X104635238Y-62720057D02*
X104682857Y-62815295D01*
X104682857Y-62815295D02*
X104682857Y-62910533D01*
X104682857Y-62910533D02*
X104635238Y-63005771D01*
X104635238Y-63005771D02*
X104587619Y-63053390D01*
X104587619Y-63053390D02*
X104492381Y-63101009D01*
X104492381Y-63101009D02*
X104159048Y-63101009D01*
X100836666Y-61004819D02*
X100836666Y-61719104D01*
X100836666Y-61719104D02*
X100789047Y-61861961D01*
X100789047Y-61861961D02*
X100693809Y-61957200D01*
X100693809Y-61957200D02*
X100550952Y-62004819D01*
X100550952Y-62004819D02*
X100455714Y-62004819D01*
X101789047Y-61004819D02*
X101312857Y-61004819D01*
X101312857Y-61004819D02*
X101265238Y-61481009D01*
X101265238Y-61481009D02*
X101312857Y-61433390D01*
X101312857Y-61433390D02*
X101408095Y-61385771D01*
X101408095Y-61385771D02*
X101646190Y-61385771D01*
X101646190Y-61385771D02*
X101741428Y-61433390D01*
X101741428Y-61433390D02*
X101789047Y-61481009D01*
X101789047Y-61481009D02*
X101836666Y-61576247D01*
X101836666Y-61576247D02*
X101836666Y-61814342D01*
X101836666Y-61814342D02*
X101789047Y-61909580D01*
X101789047Y-61909580D02*
X101741428Y-61957200D01*
X101741428Y-61957200D02*
X101646190Y-62004819D01*
X101646190Y-62004819D02*
X101408095Y-62004819D01*
X101408095Y-62004819D02*
X101312857Y-61957200D01*
X101312857Y-61957200D02*
X101265238Y-61909580D01*
%TO.C,Y1*%
X116202819Y-75601047D02*
X116202819Y-76172475D01*
X116202819Y-75886761D02*
X115202819Y-75886761D01*
X115202819Y-75886761D02*
X115345676Y-75981999D01*
X115345676Y-75981999D02*
X115440914Y-76077237D01*
X115440914Y-76077237D02*
X115488533Y-76172475D01*
X115202819Y-74743904D02*
X115202819Y-74934380D01*
X115202819Y-74934380D02*
X115250438Y-75029618D01*
X115250438Y-75029618D02*
X115298057Y-75077237D01*
X115298057Y-75077237D02*
X115440914Y-75172475D01*
X115440914Y-75172475D02*
X115631390Y-75220094D01*
X115631390Y-75220094D02*
X116012342Y-75220094D01*
X116012342Y-75220094D02*
X116107580Y-75172475D01*
X116107580Y-75172475D02*
X116155200Y-75124856D01*
X116155200Y-75124856D02*
X116202819Y-75029618D01*
X116202819Y-75029618D02*
X116202819Y-74839142D01*
X116202819Y-74839142D02*
X116155200Y-74743904D01*
X116155200Y-74743904D02*
X116107580Y-74696285D01*
X116107580Y-74696285D02*
X116012342Y-74648666D01*
X116012342Y-74648666D02*
X115774247Y-74648666D01*
X115774247Y-74648666D02*
X115679009Y-74696285D01*
X115679009Y-74696285D02*
X115631390Y-74743904D01*
X115631390Y-74743904D02*
X115583771Y-74839142D01*
X115583771Y-74839142D02*
X115583771Y-75029618D01*
X115583771Y-75029618D02*
X115631390Y-75124856D01*
X115631390Y-75124856D02*
X115679009Y-75172475D01*
X115679009Y-75172475D02*
X115774247Y-75220094D01*
X116202819Y-74220094D02*
X115202819Y-74220094D01*
X115202819Y-74220094D02*
X115917104Y-73886761D01*
X115917104Y-73886761D02*
X115202819Y-73553428D01*
X115202819Y-73553428D02*
X116202819Y-73553428D01*
X116202819Y-73077237D02*
X115202819Y-73077237D01*
X116202819Y-72648666D02*
X115679009Y-72648666D01*
X115679009Y-72648666D02*
X115583771Y-72696285D01*
X115583771Y-72696285D02*
X115536152Y-72791523D01*
X115536152Y-72791523D02*
X115536152Y-72934380D01*
X115536152Y-72934380D02*
X115583771Y-73029618D01*
X115583771Y-73029618D02*
X115631390Y-73077237D01*
X115536152Y-72267713D02*
X115536152Y-71743904D01*
X115536152Y-71743904D02*
X116202819Y-72267713D01*
X116202819Y-72267713D02*
X116202819Y-71743904D01*
X116996628Y-74468190D02*
X117472819Y-74468190D01*
X116472819Y-74801523D02*
X116996628Y-74468190D01*
X116996628Y-74468190D02*
X116472819Y-74134857D01*
X117472819Y-73277714D02*
X117472819Y-73849142D01*
X117472819Y-73563428D02*
X116472819Y-73563428D01*
X116472819Y-73563428D02*
X116615676Y-73658666D01*
X116615676Y-73658666D02*
X116710914Y-73753904D01*
X116710914Y-73753904D02*
X116758533Y-73849142D01*
%TO.C,R1*%
X107024761Y-87584819D02*
X106453333Y-87584819D01*
X106739047Y-87584819D02*
X106739047Y-86584819D01*
X106739047Y-86584819D02*
X106643809Y-86727676D01*
X106643809Y-86727676D02*
X106548571Y-86822914D01*
X106548571Y-86822914D02*
X106453333Y-86870533D01*
X107643809Y-86584819D02*
X107739047Y-86584819D01*
X107739047Y-86584819D02*
X107834285Y-86632438D01*
X107834285Y-86632438D02*
X107881904Y-86680057D01*
X107881904Y-86680057D02*
X107929523Y-86775295D01*
X107929523Y-86775295D02*
X107977142Y-86965771D01*
X107977142Y-86965771D02*
X107977142Y-87203866D01*
X107977142Y-87203866D02*
X107929523Y-87394342D01*
X107929523Y-87394342D02*
X107881904Y-87489580D01*
X107881904Y-87489580D02*
X107834285Y-87537200D01*
X107834285Y-87537200D02*
X107739047Y-87584819D01*
X107739047Y-87584819D02*
X107643809Y-87584819D01*
X107643809Y-87584819D02*
X107548571Y-87537200D01*
X107548571Y-87537200D02*
X107500952Y-87489580D01*
X107500952Y-87489580D02*
X107453333Y-87394342D01*
X107453333Y-87394342D02*
X107405714Y-87203866D01*
X107405714Y-87203866D02*
X107405714Y-86965771D01*
X107405714Y-86965771D02*
X107453333Y-86775295D01*
X107453333Y-86775295D02*
X107500952Y-86680057D01*
X107500952Y-86680057D02*
X107548571Y-86632438D01*
X107548571Y-86632438D02*
X107643809Y-86584819D01*
X108405714Y-87584819D02*
X108405714Y-86584819D01*
X108500952Y-87203866D02*
X108786666Y-87584819D01*
X108786666Y-86918152D02*
X108405714Y-87299104D01*
X107453333Y-85214819D02*
X107120000Y-84738628D01*
X106881905Y-85214819D02*
X106881905Y-84214819D01*
X106881905Y-84214819D02*
X107262857Y-84214819D01*
X107262857Y-84214819D02*
X107358095Y-84262438D01*
X107358095Y-84262438D02*
X107405714Y-84310057D01*
X107405714Y-84310057D02*
X107453333Y-84405295D01*
X107453333Y-84405295D02*
X107453333Y-84548152D01*
X107453333Y-84548152D02*
X107405714Y-84643390D01*
X107405714Y-84643390D02*
X107358095Y-84691009D01*
X107358095Y-84691009D02*
X107262857Y-84738628D01*
X107262857Y-84738628D02*
X106881905Y-84738628D01*
X108405714Y-85214819D02*
X107834286Y-85214819D01*
X108120000Y-85214819D02*
X108120000Y-84214819D01*
X108120000Y-84214819D02*
X108024762Y-84357676D01*
X108024762Y-84357676D02*
X107929524Y-84452914D01*
X107929524Y-84452914D02*
X107834286Y-84500533D01*
%TO.C,D6*%
X152548819Y-57721857D02*
X152548819Y-58198047D01*
X152548819Y-58198047D02*
X151548819Y-58198047D01*
X152025009Y-57388523D02*
X152025009Y-57055190D01*
X152548819Y-56912333D02*
X152548819Y-57388523D01*
X152548819Y-57388523D02*
X151548819Y-57388523D01*
X151548819Y-57388523D02*
X151548819Y-56912333D01*
X152548819Y-56483761D02*
X151548819Y-56483761D01*
X151548819Y-56483761D02*
X151548819Y-56245666D01*
X151548819Y-56245666D02*
X151596438Y-56102809D01*
X151596438Y-56102809D02*
X151691676Y-56007571D01*
X151691676Y-56007571D02*
X151786914Y-55959952D01*
X151786914Y-55959952D02*
X151977390Y-55912333D01*
X151977390Y-55912333D02*
X152120247Y-55912333D01*
X152120247Y-55912333D02*
X152310723Y-55959952D01*
X152310723Y-55959952D02*
X152405961Y-56007571D01*
X152405961Y-56007571D02*
X152501200Y-56102809D01*
X152501200Y-56102809D02*
X152548819Y-56245666D01*
X152548819Y-56245666D02*
X152548819Y-56483761D01*
%TO.C,D3*%
X160930819Y-57716857D02*
X160930819Y-58193047D01*
X160930819Y-58193047D02*
X159930819Y-58193047D01*
X160407009Y-57383523D02*
X160407009Y-57050190D01*
X160930819Y-56907333D02*
X160930819Y-57383523D01*
X160930819Y-57383523D02*
X159930819Y-57383523D01*
X159930819Y-57383523D02*
X159930819Y-56907333D01*
X160930819Y-56478761D02*
X159930819Y-56478761D01*
X159930819Y-56478761D02*
X159930819Y-56240666D01*
X159930819Y-56240666D02*
X159978438Y-56097809D01*
X159978438Y-56097809D02*
X160073676Y-56002571D01*
X160073676Y-56002571D02*
X160168914Y-55954952D01*
X160168914Y-55954952D02*
X160359390Y-55907333D01*
X160359390Y-55907333D02*
X160502247Y-55907333D01*
X160502247Y-55907333D02*
X160692723Y-55954952D01*
X160692723Y-55954952D02*
X160787961Y-56002571D01*
X160787961Y-56002571D02*
X160883200Y-56097809D01*
X160883200Y-56097809D02*
X160930819Y-56240666D01*
X160930819Y-56240666D02*
X160930819Y-56478761D01*
%TO.C,C1*%
X111057143Y-74150057D02*
X111104762Y-74102438D01*
X111104762Y-74102438D02*
X111200000Y-74054819D01*
X111200000Y-74054819D02*
X111438095Y-74054819D01*
X111438095Y-74054819D02*
X111533333Y-74102438D01*
X111533333Y-74102438D02*
X111580952Y-74150057D01*
X111580952Y-74150057D02*
X111628571Y-74245295D01*
X111628571Y-74245295D02*
X111628571Y-74340533D01*
X111628571Y-74340533D02*
X111580952Y-74483390D01*
X111580952Y-74483390D02*
X111009524Y-75054819D01*
X111009524Y-75054819D02*
X111628571Y-75054819D01*
X112009524Y-74150057D02*
X112057143Y-74102438D01*
X112057143Y-74102438D02*
X112152381Y-74054819D01*
X112152381Y-74054819D02*
X112390476Y-74054819D01*
X112390476Y-74054819D02*
X112485714Y-74102438D01*
X112485714Y-74102438D02*
X112533333Y-74150057D01*
X112533333Y-74150057D02*
X112580952Y-74245295D01*
X112580952Y-74245295D02*
X112580952Y-74340533D01*
X112580952Y-74340533D02*
X112533333Y-74483390D01*
X112533333Y-74483390D02*
X111961905Y-75054819D01*
X111961905Y-75054819D02*
X112580952Y-75054819D01*
X113009524Y-74388152D02*
X113009524Y-75388152D01*
X113009524Y-74435771D02*
X113104762Y-74388152D01*
X113104762Y-74388152D02*
X113295238Y-74388152D01*
X113295238Y-74388152D02*
X113390476Y-74435771D01*
X113390476Y-74435771D02*
X113438095Y-74483390D01*
X113438095Y-74483390D02*
X113485714Y-74578628D01*
X113485714Y-74578628D02*
X113485714Y-74864342D01*
X113485714Y-74864342D02*
X113438095Y-74959580D01*
X113438095Y-74959580D02*
X113390476Y-75007200D01*
X113390476Y-75007200D02*
X113295238Y-75054819D01*
X113295238Y-75054819D02*
X113104762Y-75054819D01*
X113104762Y-75054819D02*
X113009524Y-75007200D01*
X114247619Y-74531009D02*
X113914286Y-74531009D01*
X113914286Y-75054819D02*
X113914286Y-74054819D01*
X113914286Y-74054819D02*
X114390476Y-74054819D01*
X113059580Y-70976666D02*
X113107200Y-71024285D01*
X113107200Y-71024285D02*
X113154819Y-71167142D01*
X113154819Y-71167142D02*
X113154819Y-71262380D01*
X113154819Y-71262380D02*
X113107200Y-71405237D01*
X113107200Y-71405237D02*
X113011961Y-71500475D01*
X113011961Y-71500475D02*
X112916723Y-71548094D01*
X112916723Y-71548094D02*
X112726247Y-71595713D01*
X112726247Y-71595713D02*
X112583390Y-71595713D01*
X112583390Y-71595713D02*
X112392914Y-71548094D01*
X112392914Y-71548094D02*
X112297676Y-71500475D01*
X112297676Y-71500475D02*
X112202438Y-71405237D01*
X112202438Y-71405237D02*
X112154819Y-71262380D01*
X112154819Y-71262380D02*
X112154819Y-71167142D01*
X112154819Y-71167142D02*
X112202438Y-71024285D01*
X112202438Y-71024285D02*
X112250057Y-70976666D01*
X113154819Y-70024285D02*
X113154819Y-70595713D01*
X113154819Y-70309999D02*
X112154819Y-70309999D01*
X112154819Y-70309999D02*
X112297676Y-70405237D01*
X112297676Y-70405237D02*
X112392914Y-70500475D01*
X112392914Y-70500475D02*
X112440533Y-70595713D01*
%TO.C,SW2*%
X108384699Y-81382381D02*
X107908508Y-81715714D01*
X108384699Y-81953809D02*
X107384699Y-81953809D01*
X107384699Y-81953809D02*
X107384699Y-81572857D01*
X107384699Y-81572857D02*
X107432318Y-81477619D01*
X107432318Y-81477619D02*
X107479937Y-81430000D01*
X107479937Y-81430000D02*
X107575175Y-81382381D01*
X107575175Y-81382381D02*
X107718032Y-81382381D01*
X107718032Y-81382381D02*
X107813270Y-81430000D01*
X107813270Y-81430000D02*
X107860889Y-81477619D01*
X107860889Y-81477619D02*
X107908508Y-81572857D01*
X107908508Y-81572857D02*
X107908508Y-81953809D01*
X108337080Y-80572857D02*
X108384699Y-80668095D01*
X108384699Y-80668095D02*
X108384699Y-80858571D01*
X108384699Y-80858571D02*
X108337080Y-80953809D01*
X108337080Y-80953809D02*
X108241841Y-81001428D01*
X108241841Y-81001428D02*
X107860889Y-81001428D01*
X107860889Y-81001428D02*
X107765651Y-80953809D01*
X107765651Y-80953809D02*
X107718032Y-80858571D01*
X107718032Y-80858571D02*
X107718032Y-80668095D01*
X107718032Y-80668095D02*
X107765651Y-80572857D01*
X107765651Y-80572857D02*
X107860889Y-80525238D01*
X107860889Y-80525238D02*
X107956127Y-80525238D01*
X107956127Y-80525238D02*
X108051365Y-81001428D01*
X108337080Y-80144285D02*
X108384699Y-80049047D01*
X108384699Y-80049047D02*
X108384699Y-79858571D01*
X108384699Y-79858571D02*
X108337080Y-79763333D01*
X108337080Y-79763333D02*
X108241841Y-79715714D01*
X108241841Y-79715714D02*
X108194222Y-79715714D01*
X108194222Y-79715714D02*
X108098984Y-79763333D01*
X108098984Y-79763333D02*
X108051365Y-79858571D01*
X108051365Y-79858571D02*
X108051365Y-80001428D01*
X108051365Y-80001428D02*
X108003746Y-80096666D01*
X108003746Y-80096666D02*
X107908508Y-80144285D01*
X107908508Y-80144285D02*
X107860889Y-80144285D01*
X107860889Y-80144285D02*
X107765651Y-80096666D01*
X107765651Y-80096666D02*
X107718032Y-80001428D01*
X107718032Y-80001428D02*
X107718032Y-79858571D01*
X107718032Y-79858571D02*
X107765651Y-79763333D01*
X108337080Y-78906190D02*
X108384699Y-79001428D01*
X108384699Y-79001428D02*
X108384699Y-79191904D01*
X108384699Y-79191904D02*
X108337080Y-79287142D01*
X108337080Y-79287142D02*
X108241841Y-79334761D01*
X108241841Y-79334761D02*
X107860889Y-79334761D01*
X107860889Y-79334761D02*
X107765651Y-79287142D01*
X107765651Y-79287142D02*
X107718032Y-79191904D01*
X107718032Y-79191904D02*
X107718032Y-79001428D01*
X107718032Y-79001428D02*
X107765651Y-78906190D01*
X107765651Y-78906190D02*
X107860889Y-78858571D01*
X107860889Y-78858571D02*
X107956127Y-78858571D01*
X107956127Y-78858571D02*
X108051365Y-79334761D01*
X107718032Y-78572856D02*
X107718032Y-78191904D01*
X107384699Y-78429999D02*
X108241841Y-78429999D01*
X108241841Y-78429999D02*
X108337080Y-78382380D01*
X108337080Y-78382380D02*
X108384699Y-78287142D01*
X108384699Y-78287142D02*
X108384699Y-78191904D01*
X108337080Y-77144284D02*
X108384699Y-77049046D01*
X108384699Y-77049046D02*
X108384699Y-76858570D01*
X108384699Y-76858570D02*
X108337080Y-76763332D01*
X108337080Y-76763332D02*
X108241841Y-76715713D01*
X108241841Y-76715713D02*
X108194222Y-76715713D01*
X108194222Y-76715713D02*
X108098984Y-76763332D01*
X108098984Y-76763332D02*
X108051365Y-76858570D01*
X108051365Y-76858570D02*
X108051365Y-77001427D01*
X108051365Y-77001427D02*
X108003746Y-77096665D01*
X108003746Y-77096665D02*
X107908508Y-77144284D01*
X107908508Y-77144284D02*
X107860889Y-77144284D01*
X107860889Y-77144284D02*
X107765651Y-77096665D01*
X107765651Y-77096665D02*
X107718032Y-77001427D01*
X107718032Y-77001427D02*
X107718032Y-76858570D01*
X107718032Y-76858570D02*
X107765651Y-76763332D01*
X107718032Y-76382379D02*
X108384699Y-76191903D01*
X108384699Y-76191903D02*
X107908508Y-76001427D01*
X107908508Y-76001427D02*
X108384699Y-75810951D01*
X108384699Y-75810951D02*
X107718032Y-75620475D01*
X108384699Y-75239522D02*
X107718032Y-75239522D01*
X107384699Y-75239522D02*
X107432318Y-75287141D01*
X107432318Y-75287141D02*
X107479937Y-75239522D01*
X107479937Y-75239522D02*
X107432318Y-75191903D01*
X107432318Y-75191903D02*
X107384699Y-75239522D01*
X107384699Y-75239522D02*
X107479937Y-75239522D01*
X107718032Y-74906189D02*
X107718032Y-74525237D01*
X107384699Y-74763332D02*
X108241841Y-74763332D01*
X108241841Y-74763332D02*
X108337080Y-74715713D01*
X108337080Y-74715713D02*
X108384699Y-74620475D01*
X108384699Y-74620475D02*
X108384699Y-74525237D01*
X108337080Y-73763332D02*
X108384699Y-73858570D01*
X108384699Y-73858570D02*
X108384699Y-74049046D01*
X108384699Y-74049046D02*
X108337080Y-74144284D01*
X108337080Y-74144284D02*
X108289460Y-74191903D01*
X108289460Y-74191903D02*
X108194222Y-74239522D01*
X108194222Y-74239522D02*
X107908508Y-74239522D01*
X107908508Y-74239522D02*
X107813270Y-74191903D01*
X107813270Y-74191903D02*
X107765651Y-74144284D01*
X107765651Y-74144284D02*
X107718032Y-74049046D01*
X107718032Y-74049046D02*
X107718032Y-73858570D01*
X107718032Y-73858570D02*
X107765651Y-73763332D01*
X108384699Y-73334760D02*
X107384699Y-73334760D01*
X108384699Y-72906189D02*
X107860889Y-72906189D01*
X107860889Y-72906189D02*
X107765651Y-72953808D01*
X107765651Y-72953808D02*
X107718032Y-73049046D01*
X107718032Y-73049046D02*
X107718032Y-73191903D01*
X107718032Y-73191903D02*
X107765651Y-73287141D01*
X107765651Y-73287141D02*
X107813270Y-73334760D01*
X104627200Y-78763332D02*
X104674819Y-78620475D01*
X104674819Y-78620475D02*
X104674819Y-78382380D01*
X104674819Y-78382380D02*
X104627200Y-78287142D01*
X104627200Y-78287142D02*
X104579580Y-78239523D01*
X104579580Y-78239523D02*
X104484342Y-78191904D01*
X104484342Y-78191904D02*
X104389104Y-78191904D01*
X104389104Y-78191904D02*
X104293866Y-78239523D01*
X104293866Y-78239523D02*
X104246247Y-78287142D01*
X104246247Y-78287142D02*
X104198628Y-78382380D01*
X104198628Y-78382380D02*
X104151009Y-78572856D01*
X104151009Y-78572856D02*
X104103390Y-78668094D01*
X104103390Y-78668094D02*
X104055771Y-78715713D01*
X104055771Y-78715713D02*
X103960533Y-78763332D01*
X103960533Y-78763332D02*
X103865295Y-78763332D01*
X103865295Y-78763332D02*
X103770057Y-78715713D01*
X103770057Y-78715713D02*
X103722438Y-78668094D01*
X103722438Y-78668094D02*
X103674819Y-78572856D01*
X103674819Y-78572856D02*
X103674819Y-78334761D01*
X103674819Y-78334761D02*
X103722438Y-78191904D01*
X103674819Y-77858570D02*
X104674819Y-77620475D01*
X104674819Y-77620475D02*
X103960533Y-77429999D01*
X103960533Y-77429999D02*
X104674819Y-77239523D01*
X104674819Y-77239523D02*
X103674819Y-77001428D01*
X103770057Y-76668094D02*
X103722438Y-76620475D01*
X103722438Y-76620475D02*
X103674819Y-76525237D01*
X103674819Y-76525237D02*
X103674819Y-76287142D01*
X103674819Y-76287142D02*
X103722438Y-76191904D01*
X103722438Y-76191904D02*
X103770057Y-76144285D01*
X103770057Y-76144285D02*
X103865295Y-76096666D01*
X103865295Y-76096666D02*
X103960533Y-76096666D01*
X103960533Y-76096666D02*
X104103390Y-76144285D01*
X104103390Y-76144285D02*
X104674819Y-76715713D01*
X104674819Y-76715713D02*
X104674819Y-76096666D01*
%TO.C,R2*%
X121875905Y-89052057D02*
X121923524Y-89004438D01*
X121923524Y-89004438D02*
X122018762Y-88956819D01*
X122018762Y-88956819D02*
X122256857Y-88956819D01*
X122256857Y-88956819D02*
X122352095Y-89004438D01*
X122352095Y-89004438D02*
X122399714Y-89052057D01*
X122399714Y-89052057D02*
X122447333Y-89147295D01*
X122447333Y-89147295D02*
X122447333Y-89242533D01*
X122447333Y-89242533D02*
X122399714Y-89385390D01*
X122399714Y-89385390D02*
X121828286Y-89956819D01*
X121828286Y-89956819D02*
X122447333Y-89956819D01*
X122828286Y-89052057D02*
X122875905Y-89004438D01*
X122875905Y-89004438D02*
X122971143Y-88956819D01*
X122971143Y-88956819D02*
X123209238Y-88956819D01*
X123209238Y-88956819D02*
X123304476Y-89004438D01*
X123304476Y-89004438D02*
X123352095Y-89052057D01*
X123352095Y-89052057D02*
X123399714Y-89147295D01*
X123399714Y-89147295D02*
X123399714Y-89242533D01*
X123399714Y-89242533D02*
X123352095Y-89385390D01*
X123352095Y-89385390D02*
X122780667Y-89956819D01*
X122780667Y-89956819D02*
X123399714Y-89956819D01*
X124018762Y-88956819D02*
X124114000Y-88956819D01*
X124114000Y-88956819D02*
X124209238Y-89004438D01*
X124209238Y-89004438D02*
X124256857Y-89052057D01*
X124256857Y-89052057D02*
X124304476Y-89147295D01*
X124304476Y-89147295D02*
X124352095Y-89337771D01*
X124352095Y-89337771D02*
X124352095Y-89575866D01*
X124352095Y-89575866D02*
X124304476Y-89766342D01*
X124304476Y-89766342D02*
X124256857Y-89861580D01*
X124256857Y-89861580D02*
X124209238Y-89909200D01*
X124209238Y-89909200D02*
X124114000Y-89956819D01*
X124114000Y-89956819D02*
X124018762Y-89956819D01*
X124018762Y-89956819D02*
X123923524Y-89909200D01*
X123923524Y-89909200D02*
X123875905Y-89861580D01*
X123875905Y-89861580D02*
X123828286Y-89766342D01*
X123828286Y-89766342D02*
X123780667Y-89575866D01*
X123780667Y-89575866D02*
X123780667Y-89337771D01*
X123780667Y-89337771D02*
X123828286Y-89147295D01*
X123828286Y-89147295D02*
X123875905Y-89052057D01*
X123875905Y-89052057D02*
X123923524Y-89004438D01*
X123923524Y-89004438D02*
X124018762Y-88956819D01*
X122947333Y-92326819D02*
X122614000Y-91850628D01*
X122375905Y-92326819D02*
X122375905Y-91326819D01*
X122375905Y-91326819D02*
X122756857Y-91326819D01*
X122756857Y-91326819D02*
X122852095Y-91374438D01*
X122852095Y-91374438D02*
X122899714Y-91422057D01*
X122899714Y-91422057D02*
X122947333Y-91517295D01*
X122947333Y-91517295D02*
X122947333Y-91660152D01*
X122947333Y-91660152D02*
X122899714Y-91755390D01*
X122899714Y-91755390D02*
X122852095Y-91803009D01*
X122852095Y-91803009D02*
X122756857Y-91850628D01*
X122756857Y-91850628D02*
X122375905Y-91850628D01*
X123328286Y-91422057D02*
X123375905Y-91374438D01*
X123375905Y-91374438D02*
X123471143Y-91326819D01*
X123471143Y-91326819D02*
X123709238Y-91326819D01*
X123709238Y-91326819D02*
X123804476Y-91374438D01*
X123804476Y-91374438D02*
X123852095Y-91422057D01*
X123852095Y-91422057D02*
X123899714Y-91517295D01*
X123899714Y-91517295D02*
X123899714Y-91612533D01*
X123899714Y-91612533D02*
X123852095Y-91755390D01*
X123852095Y-91755390D02*
X123280667Y-92326819D01*
X123280667Y-92326819D02*
X123899714Y-92326819D01*
D12*
%TO.C,J1*%
X126670000Y-98730000D02*
X126670000Y-96825000D01*
X146990000Y-98730000D02*
X126670000Y-98730000D01*
X126670000Y-96825000D02*
X127305000Y-96190000D01*
X127305000Y-96190000D02*
X146990000Y-96190000D01*
X146990000Y-96190000D02*
X146990000Y-98730000D01*
%TO.C,J3*%
X149530000Y-98730000D02*
X149530000Y-96825000D01*
X164770000Y-98730000D02*
X149530000Y-98730000D01*
X149530000Y-96825000D02*
X150165000Y-96190000D01*
X150165000Y-96190000D02*
X164770000Y-96190000D01*
X164770000Y-96190000D02*
X164770000Y-98730000D01*
%TO.C,J2*%
X117526000Y-50470000D02*
X117526000Y-48565000D01*
X142926000Y-50470000D02*
X117526000Y-50470000D01*
X117526000Y-48565000D02*
X118161000Y-47930000D01*
X118161000Y-47930000D02*
X142926000Y-47930000D01*
X142926000Y-47930000D02*
X142926000Y-50470000D01*
%TO.C,J4*%
X144450000Y-50470000D02*
X144450000Y-48565000D01*
X164770000Y-50470000D02*
X144450000Y-50470000D01*
X144450000Y-48565000D02*
X145085000Y-47930000D01*
X145085000Y-47930000D02*
X164770000Y-47930000D01*
X164770000Y-47930000D02*
X164770000Y-50470000D01*
%TO.C,U1*%
X163770000Y-75235000D02*
X164770000Y-76235000D01*
X129210000Y-75235000D02*
X163770000Y-75235000D01*
X164770000Y-76235000D02*
X164770000Y-81585000D01*
X164770000Y-81585000D02*
X129210000Y-81585000D01*
X129210000Y-81585000D02*
X129210000Y-75235000D01*
%TO.C,J6*%
X109780000Y-95225000D02*
X109780000Y-94585000D01*
X109780000Y-95225000D02*
X105420000Y-95225000D01*
X109780000Y-94585000D02*
X105420000Y-94585000D01*
X109780000Y-92685000D02*
X109780000Y-92045000D01*
X109780000Y-92685000D02*
X105420000Y-92685000D01*
X109780000Y-92045000D02*
X105420000Y-92045000D01*
X109780000Y-90145000D02*
X109780000Y-89505000D01*
X109780000Y-90145000D02*
X105420000Y-90145000D01*
X109780000Y-89505000D02*
X105420000Y-89505000D01*
X105420000Y-95540000D02*
X104785000Y-96175000D01*
X105420000Y-88555000D02*
X105420000Y-95540000D01*
X104785000Y-96175000D02*
X102880000Y-96175000D01*
X102880000Y-96175000D02*
X102880000Y-88555000D01*
X102880000Y-95225000D02*
X96880000Y-95225000D01*
X102880000Y-94585000D02*
X96880000Y-94585000D01*
X102880000Y-92685000D02*
X96880000Y-92685000D01*
X102880000Y-92045000D02*
X96880000Y-92045000D01*
X102880000Y-90145000D02*
X96880000Y-90145000D01*
X102880000Y-89505000D02*
X96880000Y-89505000D01*
X102880000Y-88555000D02*
X105420000Y-88555000D01*
X96880000Y-95225000D02*
X96880000Y-94585000D01*
X96880000Y-92685000D02*
X96880000Y-92045000D01*
X96880000Y-90145000D02*
X96880000Y-89505000D01*
%TO.C,D7*%
X145740000Y-59474000D02*
X148240000Y-59474000D01*
X148240000Y-59474000D02*
X148240000Y-54674000D01*
X145740000Y-54674000D02*
X145740000Y-59474000D01*
X148240000Y-54674000D02*
X145740000Y-54674000D01*
X147990000Y-57074000D02*
G75*
G03*
X147990000Y-57074000I-1000000J0D01*
G01*
%TO.C,D9*%
X117820000Y-95228306D02*
X117820000Y-98167694D01*
X117819984Y-98167666D02*
G75*
G03*
X117820000Y-95228306I2500016J1469666D01*
G01*
X122820000Y-96698000D02*
G75*
G03*
X122820000Y-96698000I-2500000J0D01*
G01*
%TO.C,D2*%
X159710000Y-59474000D02*
X162210000Y-59474000D01*
X162210000Y-59474000D02*
X162210000Y-54674000D01*
X159710000Y-54674000D02*
X159710000Y-59474000D01*
X162210000Y-54674000D02*
X159710000Y-54674000D01*
X161960000Y-57074000D02*
G75*
G03*
X161960000Y-57074000I-1000000J0D01*
G01*
%TO.C,SW1*%
X141783000Y-66456000D02*
X142783000Y-65456000D01*
X141783000Y-70536000D02*
X141783000Y-66456000D01*
X142783000Y-65456000D02*
X148133000Y-65456000D01*
X148133000Y-65456000D02*
X148133000Y-70536000D01*
X148133000Y-70536000D02*
X141783000Y-70536000D01*
%TO.C,D1*%
X162504000Y-59474000D02*
X165004000Y-59474000D01*
X165004000Y-59474000D02*
X165004000Y-54674000D01*
X162504000Y-54674000D02*
X162504000Y-59474000D01*
X165004000Y-54674000D02*
X162504000Y-54674000D01*
X164754000Y-57074000D02*
G75*
G03*
X164754000Y-57074000I-1000000J0D01*
G01*
%TO.C,RN1*%
X140112000Y-62174000D02*
X140112000Y-64674000D01*
X140112000Y-64674000D02*
X163012000Y-64674000D01*
X142672000Y-62174000D02*
X142672000Y-64674000D01*
X163012000Y-62174000D02*
X140112000Y-62174000D01*
X163012000Y-64674000D02*
X163012000Y-62174000D01*
%TO.C,D4*%
X154122000Y-59474000D02*
X156622000Y-59474000D01*
X156622000Y-59474000D02*
X156622000Y-54674000D01*
X154122000Y-54674000D02*
X154122000Y-59474000D01*
X156622000Y-54674000D02*
X154122000Y-54674000D01*
X156372000Y-57074000D02*
G75*
G03*
X156372000Y-57074000I-1000000J0D01*
G01*
%TO.C,C2*%
X111450000Y-79660000D02*
X113950000Y-79660000D01*
X113950000Y-79660000D02*
X113950000Y-74660000D01*
X111450000Y-74660000D02*
X111450000Y-79660000D01*
X113950000Y-74660000D02*
X111450000Y-74660000D01*
%TO.C,C3*%
X111450000Y-65500000D02*
X113950000Y-65500000D01*
X113950000Y-65500000D02*
X113950000Y-58300000D01*
X111450000Y-58300000D02*
X111450000Y-65500000D01*
X113950000Y-58300000D02*
X111450000Y-58300000D01*
%TO.C,D8*%
X142692000Y-59479000D02*
X145192000Y-59479000D01*
X145192000Y-59479000D02*
X145192000Y-54679000D01*
X142692000Y-54679000D02*
X142692000Y-59479000D01*
X145192000Y-54679000D02*
X142692000Y-54679000D01*
X144942000Y-57079000D02*
G75*
G03*
X144942000Y-57079000I-1000000J0D01*
G01*
%TO.C,J5*%
X109910000Y-67550000D02*
X93510000Y-67550000D01*
X109910000Y-62310000D02*
X109420000Y-62800000D01*
X109910000Y-55550000D02*
X109910000Y-67550000D01*
X109420000Y-62800000D02*
X109910000Y-63290000D01*
X93510000Y-67550000D02*
X93510000Y-55550000D01*
X93510000Y-55550000D02*
X109910000Y-55550000D01*
%TO.C,Y1*%
X114693000Y-77117000D02*
X114693000Y-70867000D01*
X119343000Y-77117000D02*
X119343000Y-70867000D01*
X115018000Y-76992000D02*
X115018000Y-70992000D01*
X119018000Y-76992000D02*
X119018000Y-70992000D01*
X114693000Y-77117000D02*
G75*
G03*
X119343000Y-77117000I2325000J0D01*
G01*
X115018000Y-76992000D02*
G75*
G03*
X119018000Y-76992000I2000000J0D01*
G01*
X119018000Y-70992000D02*
G75*
G03*
X115018000Y-70992000I-2000000J0D01*
G01*
X119343000Y-70867000D02*
G75*
G03*
X114693000Y-70867000I-2325000J0D01*
G01*
%TO.C,R1*%
X102540000Y-84760000D02*
X104470000Y-84760000D01*
X104470000Y-83510000D02*
X104470000Y-86010000D01*
X104470000Y-86010000D02*
X110770000Y-86010000D01*
X110770000Y-83510000D02*
X104470000Y-83510000D01*
X110770000Y-86010000D02*
X110770000Y-83510000D01*
X112700000Y-84760000D02*
X110770000Y-84760000D01*
%TO.C,D5*%
X151328000Y-59474000D02*
X153828000Y-59474000D01*
X153828000Y-59474000D02*
X153828000Y-54674000D01*
X151328000Y-54674000D02*
X151328000Y-59474000D01*
X153828000Y-54674000D02*
X151328000Y-54674000D01*
X153578000Y-57074000D02*
G75*
G03*
X153578000Y-57074000I-1000000J0D01*
G01*
%TO.C,D6*%
X148534000Y-59479000D02*
X151034000Y-59479000D01*
X151034000Y-59479000D02*
X151034000Y-54679000D01*
X148534000Y-54679000D02*
X148534000Y-59479000D01*
X151034000Y-54679000D02*
X148534000Y-54679000D01*
X150784000Y-57079000D02*
G75*
G03*
X150784000Y-57079000I-1000000J0D01*
G01*
%TO.C,D3*%
X156916000Y-59474000D02*
X159416000Y-59474000D01*
X159416000Y-59474000D02*
X159416000Y-54674000D01*
X156916000Y-54674000D02*
X156916000Y-59474000D01*
X159416000Y-54674000D02*
X156916000Y-54674000D01*
X159166000Y-57074000D02*
G75*
G03*
X159166000Y-57074000I-1000000J0D01*
G01*
%TO.C,C1*%
X111450000Y-73310000D02*
X113950000Y-73310000D01*
X113950000Y-73310000D02*
X113950000Y-68310000D01*
X111450000Y-68310000D02*
X111450000Y-73310000D01*
X113950000Y-68310000D02*
X111450000Y-68310000D01*
%TO.C,SW2*%
X99950000Y-81180000D02*
X99950000Y-73680000D01*
X106740000Y-81180000D02*
X99950000Y-81180000D01*
X106740000Y-81180000D02*
X106740000Y-80880000D01*
X103400000Y-80880000D02*
X103400000Y-73980000D01*
X106740000Y-80880000D02*
X103400000Y-80880000D01*
X96690000Y-79180000D02*
X99950000Y-79180000D01*
X96690000Y-79180000D02*
X96690000Y-75680000D01*
X96690000Y-75680000D02*
X99950000Y-75680000D01*
X106740000Y-73980000D02*
X103400000Y-73980000D01*
X106740000Y-73980000D02*
X106740000Y-73680000D01*
X106740000Y-73680000D02*
X99950000Y-73680000D01*
%TO.C,R2*%
X128194000Y-91872000D02*
X126264000Y-91872000D01*
X126264000Y-93122000D02*
X126264000Y-90622000D01*
X126264000Y-90622000D02*
X119964000Y-90622000D01*
X119964000Y-93122000D02*
X126264000Y-93122000D01*
X119964000Y-90622000D02*
X119964000Y-93122000D01*
X118034000Y-91872000D02*
X119964000Y-91872000D01*
%TD*%
M02*
