%TF.GenerationSoftware,KiCad,Pcbnew,7.0.5*%
%TF.CreationDate,2023-11-13T20:32:54+01:00*%
%TF.ProjectId,atmega328p_dev_board,61746d65-6761-4333-9238-705f6465765f,rev?*%
%TF.SameCoordinates,Original*%
%TF.FileFunction,Copper,L2,Bot*%
%TF.FilePolarity,Positive*%
%FSLAX46Y46*%
G04 Gerber Fmt 4.6, Leading zero omitted, Abs format (unit mm)*
G04 Created by KiCad (PCBNEW 7.0.5) date 2023-11-13 20:32:54*
%MOMM*%
%LPD*%
G01*
G04 APERTURE LIST*
%TA.AperFunction,ComponentPad*%
%ADD10R,1.700000X1.700000*%
%TD*%
%TA.AperFunction,ComponentPad*%
%ADD11O,1.700000X1.700000*%
%TD*%
%TA.AperFunction,ComponentPad*%
%ADD12R,1.600000X1.600000*%
%TD*%
%TA.AperFunction,ComponentPad*%
%ADD13O,1.600000X1.600000*%
%TD*%
%TA.AperFunction,ComponentPad*%
%ADD14R,1.800000X1.800000*%
%TD*%
%TA.AperFunction,ComponentPad*%
%ADD15C,1.800000*%
%TD*%
%TA.AperFunction,ComponentPad*%
%ADD16C,1.600000*%
%TD*%
%TA.AperFunction,ComponentPad*%
%ADD17C,4.000000*%
%TD*%
%TA.AperFunction,ComponentPad*%
%ADD18C,1.500000*%
%TD*%
%TA.AperFunction,ComponentPad*%
%ADD19C,2.100000*%
%TD*%
%TA.AperFunction,ComponentPad*%
%ADD20C,1.750000*%
%TD*%
%TA.AperFunction,ViaPad*%
%ADD21C,0.600000*%
%TD*%
%TA.AperFunction,Conductor*%
%ADD22C,0.250000*%
%TD*%
%TA.AperFunction,Conductor*%
%ADD23C,0.400000*%
%TD*%
%TA.AperFunction,Conductor*%
%ADD24C,1.000000*%
%TD*%
G04 APERTURE END LIST*
D10*
%TO.P,J1,1,Pin_1*%
%TO.N,unconnected-(J1-Pin_1-Pad1)*%
X127940000Y-97460000D03*
D11*
%TO.P,J1,2,Pin_2*%
%TO.N,+5V*%
X130480000Y-97460000D03*
%TO.P,J1,3,Pin_3*%
%TO.N,Reset*%
X133020000Y-97460000D03*
%TO.P,J1,4,Pin_4*%
%TO.N,+5V*%
X135560000Y-97460000D03*
%TO.P,J1,5,Pin_5*%
X138100000Y-97460000D03*
%TO.P,J1,6,Pin_6*%
%TO.N,GND*%
X140640000Y-97460000D03*
%TO.P,J1,7,Pin_7*%
X143180000Y-97460000D03*
%TO.P,J1,8,Pin_8*%
%TO.N,unconnected-(J1-Pin_8-Pad8)*%
X145720000Y-97460000D03*
%TD*%
D10*
%TO.P,J3,1,Pin_1*%
%TO.N,PC0*%
X150800000Y-97460000D03*
D11*
%TO.P,J3,2,Pin_2*%
%TO.N,PC1*%
X153340000Y-97460000D03*
%TO.P,J3,3,Pin_3*%
%TO.N,PC2*%
X155880000Y-97460000D03*
%TO.P,J3,4,Pin_4*%
%TO.N,PC3*%
X158420000Y-97460000D03*
%TO.P,J3,5,Pin_5*%
%TO.N,PC4*%
X160960000Y-97460000D03*
%TO.P,J3,6,Pin_6*%
%TO.N,PC5*%
X163500000Y-97460000D03*
%TD*%
D10*
%TO.P,J2,1,Pin_1*%
%TO.N,PC5*%
X118796000Y-49200000D03*
D11*
%TO.P,J2,2,Pin_2*%
%TO.N,PC4*%
X121336000Y-49200000D03*
%TO.P,J2,3,Pin_3*%
%TO.N,AREF*%
X123876000Y-49200000D03*
%TO.P,J2,4,Pin_4*%
%TO.N,GND*%
X126416000Y-49200000D03*
%TO.P,J2,5,Pin_5*%
%TO.N,SCK*%
X128956000Y-49200000D03*
%TO.P,J2,6,Pin_6*%
%TO.N,MISO*%
X131496000Y-49200000D03*
%TO.P,J2,7,Pin_7*%
%TO.N,MOSI*%
X134036000Y-49200000D03*
%TO.P,J2,8,Pin_8*%
%TO.N,PB2*%
X136576000Y-49200000D03*
%TO.P,J2,9,Pin_9*%
%TO.N,PB1*%
X139116000Y-49200000D03*
%TO.P,J2,10,Pin_10*%
%TO.N,PB0*%
X141656000Y-49200000D03*
%TD*%
D10*
%TO.P,J4,1,Pin_1*%
%TO.N,PD7*%
X145720000Y-49200000D03*
D11*
%TO.P,J4,2,Pin_2*%
%TO.N,PD6*%
X148260000Y-49200000D03*
%TO.P,J4,3,Pin_3*%
%TO.N,PD5*%
X150800000Y-49200000D03*
%TO.P,J4,4,Pin_4*%
%TO.N,PD4*%
X153340000Y-49200000D03*
%TO.P,J4,5,Pin_5*%
%TO.N,PD3*%
X155880000Y-49200000D03*
%TO.P,J4,6,Pin_6*%
%TO.N,PD2*%
X158420000Y-49200000D03*
%TO.P,J4,7,Pin_7*%
%TO.N,PD1*%
X160960000Y-49200000D03*
%TO.P,J4,8,Pin_8*%
%TO.N,PD0*%
X163500000Y-49200000D03*
%TD*%
D12*
%TO.P,U1,1,~{RESET}/PC6*%
%TO.N,Reset*%
X163500000Y-74600000D03*
D13*
%TO.P,U1,2,PD0*%
%TO.N,PD0*%
X160960000Y-74600000D03*
%TO.P,U1,3,PD1*%
%TO.N,PD1*%
X158420000Y-74600000D03*
%TO.P,U1,4,PD2*%
%TO.N,PD2*%
X155880000Y-74600000D03*
%TO.P,U1,5,PD3*%
%TO.N,PD3*%
X153340000Y-74600000D03*
%TO.P,U1,6,PD4*%
%TO.N,PD4*%
X150800000Y-74600000D03*
%TO.P,U1,7,VCC*%
%TO.N,+5V*%
X148260000Y-74600000D03*
%TO.P,U1,8,GND*%
%TO.N,GND*%
X145720000Y-74600000D03*
%TO.P,U1,9,XTAL1/PB6*%
%TO.N,Net-(U1-XTAL1{slash}PB6)*%
X143180000Y-74600000D03*
%TO.P,U1,10,XTAL2/PB7*%
%TO.N,Net-(U1-XTAL2{slash}PB7)*%
X140640000Y-74600000D03*
%TO.P,U1,11,PD5*%
%TO.N,PD5*%
X138100000Y-74600000D03*
%TO.P,U1,12,PD6*%
%TO.N,PD6*%
X135560000Y-74600000D03*
%TO.P,U1,13,PD7*%
%TO.N,PD7*%
X133020000Y-74600000D03*
%TO.P,U1,14,PB0*%
%TO.N,PB0*%
X130480000Y-74600000D03*
%TO.P,U1,15,PB1*%
%TO.N,PB1*%
X130480000Y-82220000D03*
%TO.P,U1,16,PB2*%
%TO.N,PB2*%
X133020000Y-82220000D03*
%TO.P,U1,17,PB3*%
%TO.N,MOSI*%
X135560000Y-82220000D03*
%TO.P,U1,18,PB4*%
%TO.N,MISO*%
X138100000Y-82220000D03*
%TO.P,U1,19,PB5*%
%TO.N,SCK*%
X140640000Y-82220000D03*
%TO.P,U1,20,AVCC*%
%TO.N,+5V*%
X143180000Y-82220000D03*
%TO.P,U1,21,AREF*%
%TO.N,AREF*%
X145720000Y-82220000D03*
%TO.P,U1,22,GND*%
%TO.N,GND*%
X148260000Y-82220000D03*
%TO.P,U1,23,PC0*%
%TO.N,PC0*%
X150800000Y-82220000D03*
%TO.P,U1,24,PC1*%
%TO.N,PC1*%
X153340000Y-82220000D03*
%TO.P,U1,25,PC2*%
%TO.N,PC2*%
X155880000Y-82220000D03*
%TO.P,U1,26,PC3*%
%TO.N,PC3*%
X158420000Y-82220000D03*
%TO.P,U1,27,PC4*%
%TO.N,PC4*%
X160960000Y-82220000D03*
%TO.P,U1,28,PC5*%
%TO.N,PC5*%
X163500000Y-82220000D03*
%TD*%
D10*
%TO.P,J6,1,Pin_1*%
%TO.N,MISO*%
X109460000Y-94905000D03*
D11*
%TO.P,J6,2,Pin_2*%
%TO.N,+5V*%
X106920000Y-94905000D03*
%TO.P,J6,3,Pin_3*%
%TO.N,SCK*%
X109460000Y-92365000D03*
%TO.P,J6,4,Pin_4*%
%TO.N,MOSI*%
X106920000Y-92365000D03*
%TO.P,J6,5,Pin_5*%
%TO.N,Reset*%
X109460000Y-89825000D03*
%TO.P,J6,6,Pin_6*%
%TO.N,GND*%
X106920000Y-89825000D03*
%TD*%
D14*
%TO.P,D7,1,K*%
%TO.N,Net-(D7-K)*%
X146990000Y-58344000D03*
D15*
%TO.P,D7,2,A*%
%TO.N,PD6*%
X146990000Y-55804000D03*
%TD*%
D14*
%TO.P,D9,1,K*%
%TO.N,Net-(D9-K)*%
X119050000Y-96698000D03*
D15*
%TO.P,D9,2,A*%
%TO.N,+5V*%
X121590000Y-96698000D03*
%TD*%
D14*
%TO.P,D2,1,K*%
%TO.N,Net-(D2-K)*%
X160960000Y-58344000D03*
D15*
%TO.P,D2,2,A*%
%TO.N,PD1*%
X160960000Y-55804000D03*
%TD*%
D12*
%TO.P,SW1,1*%
%TO.N,Net-(RN1-common)*%
X141148000Y-66726000D03*
D13*
%TO.P,SW1,2*%
%TO.N,Net-(R2-Pad1)*%
X141148000Y-69266000D03*
%TO.P,SW1,3*%
%TO.N,GND*%
X148768000Y-69266000D03*
%TO.P,SW1,4*%
X148768000Y-66726000D03*
%TD*%
D14*
%TO.P,D1,1,K*%
%TO.N,Net-(D1-K)*%
X163754000Y-58344000D03*
D15*
%TO.P,D1,2,A*%
%TO.N,PD0*%
X163754000Y-55804000D03*
%TD*%
D12*
%TO.P,RN1,1,common*%
%TO.N,Net-(RN1-common)*%
X141402000Y-63424000D03*
D13*
%TO.P,RN1,2,R1*%
%TO.N,Net-(D8-K)*%
X143942000Y-63424000D03*
%TO.P,RN1,3,R2*%
%TO.N,Net-(D7-K)*%
X146482000Y-63424000D03*
%TO.P,RN1,4,R3*%
%TO.N,Net-(D6-K)*%
X149022000Y-63424000D03*
%TO.P,RN1,5,R4*%
%TO.N,Net-(D5-K)*%
X151562000Y-63424000D03*
%TO.P,RN1,6,R5*%
%TO.N,Net-(D4-K)*%
X154102000Y-63424000D03*
%TO.P,RN1,7,R6*%
%TO.N,Net-(D3-K)*%
X156642000Y-63424000D03*
%TO.P,RN1,8,R7*%
%TO.N,Net-(D2-K)*%
X159182000Y-63424000D03*
%TO.P,RN1,9,R8*%
%TO.N,Net-(D1-K)*%
X161722000Y-63424000D03*
%TD*%
D14*
%TO.P,D4,1,K*%
%TO.N,Net-(D4-K)*%
X155372000Y-58344000D03*
D15*
%TO.P,D4,2,A*%
%TO.N,PD3*%
X155372000Y-55804000D03*
%TD*%
D16*
%TO.P,C2,1*%
%TO.N,Net-(U1-XTAL1{slash}PB6)*%
X112700000Y-78410000D03*
%TO.P,C2,2*%
%TO.N,GND*%
X112700000Y-75910000D03*
%TD*%
%TO.P,C3,1*%
%TO.N,GND*%
X112700000Y-64400000D03*
%TO.P,C3,2*%
%TO.N,+5V*%
X112700000Y-59400000D03*
%TD*%
D14*
%TO.P,D8,1,K*%
%TO.N,Net-(D8-K)*%
X143942000Y-58349000D03*
D15*
%TO.P,D8,2,A*%
%TO.N,PD7*%
X143942000Y-55809000D03*
%TD*%
D12*
%TO.P,J5,1,VBUS*%
%TO.N,+5V*%
X108670000Y-62800000D03*
D16*
%TO.P,J5,2,D-*%
%TO.N,unconnected-(J5-D--Pad2)*%
X108670000Y-60300000D03*
%TO.P,J5,3,D+*%
%TO.N,unconnected-(J5-D+-Pad3)*%
X106670000Y-60300000D03*
%TO.P,J5,4,GND*%
%TO.N,GND*%
X106670000Y-62800000D03*
D17*
%TO.P,J5,5,Shield*%
X103810000Y-67550000D03*
X103810000Y-55550000D03*
%TD*%
D18*
%TO.P,Y1,1,1*%
%TO.N,Net-(U1-XTAL1{slash}PB6)*%
X117018000Y-76432000D03*
%TO.P,Y1,2,2*%
%TO.N,Net-(U1-XTAL2{slash}PB7)*%
X117018000Y-71552000D03*
%TD*%
D16*
%TO.P,R1,1*%
%TO.N,+5V*%
X102540000Y-84760000D03*
D13*
%TO.P,R1,2*%
%TO.N,Reset*%
X112700000Y-84760000D03*
%TD*%
D14*
%TO.P,D5,1,K*%
%TO.N,Net-(D5-K)*%
X152578000Y-58344000D03*
D15*
%TO.P,D5,2,A*%
%TO.N,PD4*%
X152578000Y-55804000D03*
%TD*%
D14*
%TO.P,D6,1,K*%
%TO.N,Net-(D6-K)*%
X149784000Y-58349000D03*
D15*
%TO.P,D6,2,A*%
%TO.N,PD5*%
X149784000Y-55809000D03*
%TD*%
D14*
%TO.P,D3,1,K*%
%TO.N,Net-(D3-K)*%
X158166000Y-58344000D03*
D15*
%TO.P,D3,2,A*%
%TO.N,PD2*%
X158166000Y-55804000D03*
%TD*%
D16*
%TO.P,C1,1*%
%TO.N,Net-(U1-XTAL2{slash}PB7)*%
X112700000Y-72060000D03*
%TO.P,C1,2*%
%TO.N,GND*%
X112700000Y-69560000D03*
%TD*%
D19*
%TO.P,SW2,*%
%TO.N,*%
X105030000Y-80930000D03*
X105030000Y-73920000D03*
D20*
%TO.P,SW2,1,1*%
%TO.N,Reset*%
X102540000Y-79680000D03*
%TO.P,SW2,2,2*%
%TO.N,GND*%
X102540000Y-75180000D03*
%TD*%
D16*
%TO.P,R2,1*%
%TO.N,Net-(R2-Pad1)*%
X128194000Y-91872000D03*
D13*
%TO.P,R2,2*%
%TO.N,Net-(D9-K)*%
X118034000Y-91872000D03*
%TD*%
D21*
%TO.N,PC4*%
X159690000Y-93904000D03*
%TO.N,AREF*%
X127940000Y-75870000D03*
%TO.N,SCK*%
X121590000Y-83490000D03*
X121590000Y-83490000D03*
%TO.N,MISO*%
X122860000Y-83490000D03*
%TO.N,MOSI*%
X124130000Y-82220000D03*
%TD*%
D22*
%TO.N,GND*%
X143180000Y-97460000D02*
X140640000Y-97460000D01*
D23*
X102540000Y-68820000D02*
X103810000Y-67550000D01*
D24*
%TO.N,+5V*%
X108670000Y-62800000D02*
X109300000Y-62800000D01*
D22*
%TO.N,PC5*%
X124130000Y-94920000D02*
X115748000Y-86538000D01*
X163500000Y-97460000D02*
X160960000Y-94920000D01*
X115748000Y-86538000D02*
X115748000Y-52756000D01*
X118796000Y-49708000D02*
X118796000Y-49200000D01*
X160960000Y-94920000D02*
X124130000Y-94920000D01*
X115748000Y-52756000D02*
X118796000Y-49708000D01*
%TO.N,PC4*%
X121336000Y-49200000D02*
X121336000Y-50724000D01*
X158783000Y-92997000D02*
X159690000Y-93904000D01*
X120320000Y-51740000D02*
X120320000Y-88570000D01*
X157005000Y-92997000D02*
X158783000Y-92997000D01*
X121336000Y-50724000D02*
X120320000Y-51740000D01*
X120320000Y-88570000D02*
X124747000Y-92997000D01*
X124747000Y-92997000D02*
X157005000Y-92997000D01*
%TO.N,AREF*%
X127940000Y-75870000D02*
X131750000Y-79680000D01*
X143180000Y-79680000D02*
X145720000Y-82220000D01*
X131750000Y-79680000D02*
X143180000Y-79680000D01*
%TO.N,SCK*%
X126670000Y-88570000D02*
X134290000Y-88570000D01*
X128956000Y-49200000D02*
X128956000Y-62154000D01*
X128956000Y-62154000D02*
X121590000Y-69520000D01*
X121590000Y-69520000D02*
X121590000Y-83490000D01*
X121590000Y-83490000D02*
X126670000Y-88570000D01*
X134290000Y-88570000D02*
X140640000Y-82220000D01*
%TO.N,MISO*%
X122860000Y-83490000D02*
X126670000Y-87300000D01*
X122860000Y-70790000D02*
X131496000Y-62154000D01*
X126670000Y-87300000D02*
X133020000Y-87300000D01*
X131496000Y-62154000D02*
X131496000Y-49200000D01*
X122860000Y-83490000D02*
X122860000Y-70790000D01*
X133020000Y-87300000D02*
X138100000Y-82220000D01*
%TO.N,MOSI*%
X133020000Y-86030000D02*
X135560000Y-83490000D01*
X124130000Y-82220000D02*
X127940000Y-86030000D01*
X134036000Y-62154000D02*
X134036000Y-49200000D01*
X127940000Y-86030000D02*
X133020000Y-86030000D01*
X135560000Y-83490000D02*
X135560000Y-82220000D01*
X124130000Y-72060000D02*
X134036000Y-62154000D01*
X124130000Y-82220000D02*
X124130000Y-72060000D01*
%TO.N,PB2*%
X136576000Y-62154000D02*
X125400000Y-73330000D01*
X136576000Y-49200000D02*
X136576000Y-62154000D01*
X125400000Y-73330000D02*
X125400000Y-80950000D01*
X129210000Y-84760000D02*
X131750000Y-84760000D01*
X133020000Y-83490000D02*
X133020000Y-82220000D01*
X125400000Y-80950000D02*
X129210000Y-84760000D01*
X131750000Y-84760000D02*
X133020000Y-83490000D01*
%TO.N,PB1*%
X129210000Y-82220000D02*
X130480000Y-82220000D01*
X126670000Y-79680000D02*
X129210000Y-82220000D01*
X139116000Y-62154000D02*
X126670000Y-74600000D01*
X126670000Y-74600000D02*
X126670000Y-79680000D01*
X139116000Y-49200000D02*
X139116000Y-62154000D01*
%TO.N,PD7*%
X143942000Y-55809000D02*
X143942000Y-50978000D01*
X143942000Y-50978000D02*
X145720000Y-49200000D01*
%TO.N,PD6*%
X146990000Y-50470000D02*
X148260000Y-49200000D01*
X146990000Y-55804000D02*
X146990000Y-50470000D01*
D23*
%TO.N,PD1*%
X159020000Y-74000000D02*
X158420000Y-74600000D01*
D22*
%TO.N,Reset*%
X109460000Y-89825000D02*
X102540000Y-82905000D01*
X109460000Y-89825000D02*
X112700000Y-86585000D01*
X163500000Y-78410000D02*
X166040000Y-80950000D01*
X164675000Y-96095000D02*
X164675000Y-97946701D01*
X166040000Y-84760000D02*
X164315000Y-86485000D01*
X164315000Y-95735000D02*
X164675000Y-96095000D01*
X112700000Y-86585000D02*
X112700000Y-84760000D01*
X102540000Y-82905000D02*
X102540000Y-79680000D01*
X166040000Y-80950000D02*
X166040000Y-84760000D01*
X133020000Y-97460000D02*
X131845000Y-98635000D01*
X134290000Y-98730000D02*
X133020000Y-97460000D01*
X131845000Y-98635000D02*
X118270000Y-98635000D01*
X163891701Y-98730000D02*
X134290000Y-98730000D01*
X164675000Y-97946701D02*
X163891701Y-98730000D01*
X164315000Y-86485000D02*
X164315000Y-95735000D01*
X118270000Y-98635000D02*
X109460000Y-89825000D01*
X163500000Y-74600000D02*
X163500000Y-78410000D01*
%TD*%
%TA.AperFunction,Conductor*%
%TO.N,GND*%
G36*
X142720507Y-97250156D02*
G01*
X142680000Y-97388111D01*
X142680000Y-97531889D01*
X142720507Y-97669844D01*
X142746314Y-97710000D01*
X141073686Y-97710000D01*
X141099493Y-97669844D01*
X141140000Y-97531889D01*
X141140000Y-97388111D01*
X141099493Y-97250156D01*
X141073686Y-97210000D01*
X142746314Y-97210000D01*
X142720507Y-97250156D01*
G37*
%TD.AperFunction*%
%TA.AperFunction,Conductor*%
G36*
X149018000Y-68950314D02*
G01*
X149006045Y-68938359D01*
X148893148Y-68880835D01*
X148799481Y-68866000D01*
X148736519Y-68866000D01*
X148642852Y-68880835D01*
X148529955Y-68938359D01*
X148518000Y-68950314D01*
X148518000Y-67041686D01*
X148529955Y-67053641D01*
X148642852Y-67111165D01*
X148736519Y-67126000D01*
X148799481Y-67126000D01*
X148893148Y-67111165D01*
X149006045Y-67053641D01*
X149018000Y-67041685D01*
X149018000Y-68950314D01*
G37*
%TD.AperFunction*%
%TA.AperFunction,Conductor*%
G36*
X163484404Y-46755185D02*
G01*
X163505046Y-46771819D01*
X165928181Y-49194953D01*
X165961666Y-49256276D01*
X165964500Y-49282634D01*
X165964500Y-59315019D01*
X165961963Y-59334292D01*
X165964264Y-59360591D01*
X165964500Y-59365997D01*
X165964500Y-59373315D01*
X165965769Y-59380516D01*
X165966474Y-59385873D01*
X165967181Y-59393955D01*
X165971651Y-59403541D01*
X165978451Y-59411644D01*
X165978452Y-59411645D01*
X165979500Y-59412250D01*
X166005185Y-59431958D01*
X168468182Y-61894955D01*
X168501666Y-61956276D01*
X168504500Y-61982634D01*
X168504500Y-96107363D01*
X168484815Y-96174402D01*
X168468181Y-96195044D01*
X166018418Y-98644806D01*
X166003002Y-98656636D01*
X165986024Y-98676868D01*
X165982374Y-98680851D01*
X165977197Y-98686027D01*
X165972997Y-98692026D01*
X165969710Y-98696309D01*
X165964501Y-98702517D01*
X165960881Y-98712463D01*
X165959960Y-98722998D01*
X165960274Y-98724169D01*
X165964500Y-98756265D01*
X165964500Y-99234951D01*
X165964201Y-99241033D01*
X165952505Y-99359778D01*
X165947763Y-99383618D01*
X165917832Y-99482290D01*
X165915789Y-99489024D01*
X165906486Y-99511482D01*
X165854561Y-99608627D01*
X165841056Y-99628839D01*
X165771176Y-99713988D01*
X165753988Y-99731176D01*
X165668839Y-99801056D01*
X165648627Y-99814561D01*
X165551482Y-99866486D01*
X165529028Y-99875787D01*
X165487028Y-99888528D01*
X165423618Y-99907763D01*
X165399778Y-99912505D01*
X165281033Y-99924201D01*
X165274951Y-99924500D01*
X100765049Y-99924500D01*
X100758968Y-99924201D01*
X100640221Y-99912505D01*
X100616381Y-99907763D01*
X100599445Y-99902625D01*
X100510968Y-99875786D01*
X100488517Y-99866486D01*
X100391372Y-99814561D01*
X100371160Y-99801056D01*
X100286011Y-99731176D01*
X100268823Y-99713988D01*
X100198943Y-99628839D01*
X100185438Y-99608627D01*
X100133510Y-99511476D01*
X100124215Y-99489037D01*
X100092234Y-99383612D01*
X100087494Y-99359777D01*
X100075799Y-99241032D01*
X100075500Y-99234951D01*
X100075500Y-94905000D01*
X105864417Y-94905000D01*
X105884699Y-95110932D01*
X105910136Y-95194787D01*
X105944768Y-95308954D01*
X106042315Y-95491450D01*
X106042317Y-95491452D01*
X106173589Y-95651410D01*
X106254826Y-95718078D01*
X106333550Y-95782685D01*
X106516046Y-95880232D01*
X106714066Y-95940300D01*
X106714065Y-95940300D01*
X106734348Y-95942297D01*
X106920000Y-95960583D01*
X107125934Y-95940300D01*
X107323954Y-95880232D01*
X107506450Y-95782685D01*
X107516116Y-95774752D01*
X108409500Y-95774752D01*
X108421131Y-95833229D01*
X108421132Y-95833230D01*
X108465447Y-95899552D01*
X108531769Y-95943867D01*
X108531770Y-95943868D01*
X108590247Y-95955499D01*
X108590250Y-95955500D01*
X108590252Y-95955500D01*
X110329750Y-95955500D01*
X110329751Y-95955499D01*
X110344568Y-95952552D01*
X110388229Y-95943868D01*
X110388229Y-95943867D01*
X110388231Y-95943867D01*
X110454552Y-95899552D01*
X110498867Y-95833231D01*
X110498867Y-95833229D01*
X110498868Y-95833229D01*
X110509803Y-95778252D01*
X110510500Y-95774748D01*
X110510500Y-94035252D01*
X110510500Y-94035251D01*
X110510500Y-94035249D01*
X110510499Y-94035247D01*
X110498868Y-93976770D01*
X110498867Y-93976769D01*
X110454552Y-93910447D01*
X110388230Y-93866132D01*
X110388229Y-93866131D01*
X110329752Y-93854500D01*
X110329748Y-93854500D01*
X108590252Y-93854500D01*
X108590247Y-93854500D01*
X108531770Y-93866131D01*
X108531769Y-93866132D01*
X108465447Y-93910447D01*
X108421132Y-93976769D01*
X108421131Y-93976770D01*
X108409500Y-94035247D01*
X108409500Y-95774752D01*
X107516116Y-95774752D01*
X107666410Y-95651410D01*
X107797685Y-95491450D01*
X107895232Y-95308954D01*
X107955300Y-95110934D01*
X107975583Y-94905000D01*
X107955300Y-94699066D01*
X107895232Y-94501046D01*
X107797685Y-94318550D01*
X107681825Y-94177373D01*
X107666410Y-94158589D01*
X107529775Y-94046457D01*
X107506450Y-94027315D01*
X107323954Y-93929768D01*
X107125934Y-93869700D01*
X107125932Y-93869699D01*
X107125934Y-93869699D01*
X106938463Y-93851235D01*
X106920000Y-93849417D01*
X106919999Y-93849417D01*
X106714067Y-93869699D01*
X106516043Y-93929769D01*
X106428114Y-93976769D01*
X106333550Y-94027315D01*
X106333548Y-94027316D01*
X106333547Y-94027317D01*
X106173589Y-94158589D01*
X106042317Y-94318547D01*
X106042315Y-94318550D01*
X106016854Y-94366184D01*
X105944769Y-94501043D01*
X105884699Y-94699067D01*
X105864417Y-94905000D01*
X100075500Y-94905000D01*
X100075500Y-79680000D01*
X101459892Y-79680000D01*
X101478282Y-79878464D01*
X101478282Y-79878466D01*
X101478283Y-79878469D01*
X101515497Y-80009263D01*
X101532830Y-80070183D01*
X101621670Y-80248598D01*
X101621675Y-80248606D01*
X101741792Y-80407666D01*
X101843821Y-80500677D01*
X101889090Y-80541945D01*
X102058554Y-80646873D01*
X102135294Y-80676602D01*
X102190695Y-80719175D01*
X102214286Y-80784942D01*
X102214500Y-80792229D01*
X102214500Y-82888078D01*
X102214264Y-82893485D01*
X102210735Y-82933808D01*
X102221212Y-82972910D01*
X102222383Y-82978190D01*
X102229411Y-83018043D01*
X102231235Y-83023055D01*
X102238197Y-83039861D01*
X102240445Y-83044681D01*
X102240446Y-83044684D01*
X102248309Y-83055913D01*
X102263655Y-83077831D01*
X102266561Y-83082392D01*
X102286806Y-83117455D01*
X102317815Y-83143475D01*
X102321805Y-83147131D01*
X102726815Y-83552141D01*
X102760300Y-83613464D01*
X102755316Y-83683156D01*
X102713444Y-83739089D01*
X102647980Y-83763506D01*
X102626981Y-83763225D01*
X102540001Y-83754659D01*
X102540000Y-83754659D01*
X102343870Y-83773975D01*
X102155266Y-83831188D01*
X101981467Y-83924086D01*
X101981460Y-83924090D01*
X101829116Y-84049116D01*
X101704090Y-84201460D01*
X101704086Y-84201467D01*
X101611188Y-84375266D01*
X101553975Y-84563870D01*
X101534659Y-84760000D01*
X101553975Y-84956129D01*
X101560667Y-84978189D01*
X101588695Y-85070586D01*
X101611188Y-85144733D01*
X101704086Y-85318532D01*
X101704090Y-85318539D01*
X101829116Y-85470883D01*
X101981460Y-85595909D01*
X101981467Y-85595913D01*
X102155266Y-85688811D01*
X102155269Y-85688811D01*
X102155273Y-85688814D01*
X102343868Y-85746024D01*
X102540000Y-85765341D01*
X102736132Y-85746024D01*
X102924727Y-85688814D01*
X103098538Y-85595910D01*
X103250883Y-85470883D01*
X103375910Y-85318538D01*
X103468814Y-85144727D01*
X103526024Y-84956132D01*
X103545341Y-84760000D01*
X103536774Y-84673018D01*
X103549793Y-84604373D01*
X103597858Y-84553663D01*
X103665709Y-84536988D01*
X103731803Y-84559644D01*
X103747858Y-84573184D01*
X107528454Y-88353780D01*
X107561939Y-88415103D01*
X107556955Y-88484795D01*
X107515083Y-88540728D01*
X107449619Y-88565145D01*
X107388372Y-88553845D01*
X107383493Y-88551570D01*
X107383486Y-88551567D01*
X107170000Y-88494364D01*
X107170000Y-89389498D01*
X107062315Y-89340320D01*
X106955763Y-89325000D01*
X106884237Y-89325000D01*
X106777685Y-89340320D01*
X106670000Y-89389498D01*
X106670000Y-88494364D01*
X106669999Y-88494364D01*
X106456513Y-88551567D01*
X106456507Y-88551570D01*
X106242422Y-88651399D01*
X106242420Y-88651400D01*
X106048926Y-88786886D01*
X106048920Y-88786891D01*
X105881891Y-88953920D01*
X105881886Y-88953926D01*
X105746400Y-89147420D01*
X105746399Y-89147422D01*
X105646570Y-89361507D01*
X105646567Y-89361513D01*
X105589364Y-89574999D01*
X105589364Y-89575000D01*
X106486314Y-89575000D01*
X106460507Y-89615156D01*
X106420000Y-89753111D01*
X106420000Y-89896889D01*
X106460507Y-90034844D01*
X106486314Y-90075000D01*
X105589364Y-90075000D01*
X105646567Y-90288486D01*
X105646570Y-90288492D01*
X105746399Y-90502578D01*
X105881894Y-90696082D01*
X106048917Y-90863105D01*
X106242421Y-90998600D01*
X106456507Y-91098429D01*
X106456516Y-91098433D01*
X106578649Y-91131158D01*
X106638310Y-91167523D01*
X106668839Y-91230369D01*
X106660545Y-91299745D01*
X106616059Y-91353623D01*
X106582552Y-91369593D01*
X106516046Y-91389767D01*
X106385358Y-91459622D01*
X106333550Y-91487315D01*
X106333548Y-91487316D01*
X106333547Y-91487317D01*
X106173589Y-91618589D01*
X106042317Y-91778547D01*
X105944769Y-91961043D01*
X105884699Y-92159067D01*
X105864417Y-92364999D01*
X105884699Y-92570932D01*
X105904189Y-92635181D01*
X105944768Y-92768954D01*
X106042315Y-92951450D01*
X106042317Y-92951452D01*
X106173589Y-93111410D01*
X106270209Y-93190702D01*
X106333550Y-93242685D01*
X106516046Y-93340232D01*
X106714066Y-93400300D01*
X106714065Y-93400300D01*
X106732529Y-93402118D01*
X106920000Y-93420583D01*
X107125934Y-93400300D01*
X107323954Y-93340232D01*
X107506450Y-93242685D01*
X107666410Y-93111410D01*
X107797685Y-92951450D01*
X107895232Y-92768954D01*
X107955300Y-92570934D01*
X107975583Y-92365000D01*
X108404417Y-92365000D01*
X108424699Y-92570932D01*
X108444189Y-92635181D01*
X108484768Y-92768954D01*
X108582315Y-92951450D01*
X108582317Y-92951452D01*
X108713589Y-93111410D01*
X108810209Y-93190702D01*
X108873550Y-93242685D01*
X109056046Y-93340232D01*
X109254066Y-93400300D01*
X109254065Y-93400300D01*
X109274348Y-93402297D01*
X109460000Y-93420583D01*
X109665934Y-93400300D01*
X109863954Y-93340232D01*
X110046450Y-93242685D01*
X110206410Y-93111410D01*
X110337685Y-92951450D01*
X110435232Y-92768954D01*
X110495300Y-92570934D01*
X110515583Y-92365000D01*
X110495300Y-92159066D01*
X110435232Y-91961046D01*
X110337685Y-91778550D01*
X110285702Y-91715209D01*
X110206410Y-91618589D01*
X110046452Y-91487317D01*
X110046453Y-91487317D01*
X110046450Y-91487315D01*
X109863954Y-91389768D01*
X109665934Y-91329700D01*
X109665932Y-91329699D01*
X109665934Y-91329699D01*
X109478463Y-91311235D01*
X109460000Y-91309417D01*
X109459999Y-91309417D01*
X109254067Y-91329699D01*
X109078692Y-91382898D01*
X109056050Y-91389767D01*
X109056043Y-91389769D01*
X108945897Y-91448643D01*
X108873550Y-91487315D01*
X108873548Y-91487316D01*
X108873547Y-91487317D01*
X108713589Y-91618589D01*
X108582317Y-91778547D01*
X108484769Y-91961043D01*
X108424699Y-92159067D01*
X108404417Y-92365000D01*
X107975583Y-92365000D01*
X107955300Y-92159066D01*
X107895232Y-91961046D01*
X107797685Y-91778550D01*
X107745702Y-91715209D01*
X107666410Y-91618589D01*
X107506452Y-91487317D01*
X107506453Y-91487317D01*
X107506450Y-91487315D01*
X107323954Y-91389768D01*
X107257447Y-91369593D01*
X107199009Y-91331296D01*
X107170553Y-91267484D01*
X107181113Y-91198417D01*
X107227337Y-91146023D01*
X107261350Y-91131158D01*
X107383483Y-91098433D01*
X107383492Y-91098429D01*
X107597578Y-90998600D01*
X107791082Y-90863105D01*
X107958105Y-90696082D01*
X108093600Y-90502578D01*
X108193429Y-90288492D01*
X108193433Y-90288483D01*
X108226158Y-90166350D01*
X108262522Y-90106690D01*
X108325369Y-90076160D01*
X108394745Y-90084454D01*
X108448623Y-90128939D01*
X108464593Y-90162447D01*
X108484768Y-90228954D01*
X108582315Y-90411450D01*
X108582317Y-90411452D01*
X108713589Y-90571410D01*
X108810209Y-90650702D01*
X108873550Y-90702685D01*
X109056046Y-90800232D01*
X109254066Y-90860300D01*
X109254065Y-90860300D01*
X109272529Y-90862118D01*
X109460000Y-90880583D01*
X109665934Y-90860300D01*
X109863954Y-90800232D01*
X109863962Y-90800227D01*
X109865850Y-90799446D01*
X109866924Y-90799330D01*
X109869784Y-90798463D01*
X109869948Y-90799004D01*
X109935318Y-90791970D01*
X109997801Y-90823238D01*
X110000995Y-90826321D01*
X118027868Y-98853195D01*
X118031523Y-98857184D01*
X118057541Y-98888190D01*
X118057542Y-98888191D01*
X118057545Y-98888194D01*
X118086387Y-98904845D01*
X118092604Y-98908435D01*
X118097154Y-98911333D01*
X118130316Y-98934553D01*
X118130318Y-98934553D01*
X118130319Y-98934554D01*
X118135168Y-98936815D01*
X118151947Y-98943765D01*
X118156952Y-98945587D01*
X118156953Y-98945587D01*
X118156955Y-98945588D01*
X118196829Y-98952618D01*
X118202092Y-98953786D01*
X118213907Y-98956951D01*
X118241193Y-98964263D01*
X118281510Y-98960735D01*
X118286912Y-98960500D01*
X131828078Y-98960500D01*
X131833481Y-98960735D01*
X131873807Y-98964264D01*
X131912940Y-98953777D01*
X131918162Y-98952619D01*
X131958045Y-98945588D01*
X131958050Y-98945584D01*
X131963099Y-98943747D01*
X131979824Y-98936819D01*
X131984681Y-98934554D01*
X131984684Y-98934554D01*
X132017841Y-98911335D01*
X132022390Y-98908438D01*
X132057455Y-98888194D01*
X132057459Y-98888190D01*
X132068537Y-98874986D01*
X132083481Y-98857176D01*
X132087122Y-98853202D01*
X132479005Y-98461319D01*
X132540326Y-98427836D01*
X132610018Y-98432820D01*
X132614132Y-98434439D01*
X132616038Y-98435227D01*
X132616046Y-98435232D01*
X132814066Y-98495300D01*
X132814065Y-98495300D01*
X132832529Y-98497118D01*
X133020000Y-98515583D01*
X133225934Y-98495300D01*
X133423954Y-98435232D01*
X133423969Y-98435223D01*
X133425843Y-98434448D01*
X133426918Y-98434332D01*
X133429784Y-98433463D01*
X133429948Y-98434005D01*
X133495311Y-98426969D01*
X133557795Y-98458234D01*
X133560994Y-98461321D01*
X134047868Y-98948195D01*
X134051523Y-98952184D01*
X134077541Y-98983190D01*
X134077543Y-98983191D01*
X134077545Y-98983194D01*
X134112599Y-99003432D01*
X134117159Y-99006337D01*
X134150316Y-99029554D01*
X134150319Y-99029554D01*
X134155176Y-99031820D01*
X134171933Y-99038760D01*
X134176953Y-99040587D01*
X134176955Y-99040588D01*
X134216830Y-99047618D01*
X134222087Y-99048784D01*
X134261193Y-99059263D01*
X134301510Y-99055735D01*
X134306912Y-99055500D01*
X163874779Y-99055500D01*
X163880182Y-99055735D01*
X163920508Y-99059264D01*
X163959641Y-99048777D01*
X163964863Y-99047619D01*
X164004746Y-99040588D01*
X164004751Y-99040584D01*
X164009800Y-99038747D01*
X164026525Y-99031819D01*
X164031382Y-99029554D01*
X164031385Y-99029554D01*
X164064542Y-99006335D01*
X164069091Y-99003438D01*
X164104156Y-98983194D01*
X164104160Y-98983190D01*
X164120040Y-98964264D01*
X164130182Y-98952176D01*
X164133823Y-98948202D01*
X164893204Y-98188821D01*
X164897166Y-98185190D01*
X164928194Y-98159156D01*
X164948438Y-98124091D01*
X164951335Y-98119542D01*
X164974554Y-98086385D01*
X164974554Y-98086382D01*
X164976819Y-98081525D01*
X164983747Y-98064800D01*
X164985584Y-98059751D01*
X164985588Y-98059746D01*
X164992619Y-98019863D01*
X164993777Y-98014641D01*
X165004264Y-97975508D01*
X165000735Y-97935182D01*
X165000500Y-97929779D01*
X165000500Y-96111920D01*
X165000736Y-96106513D01*
X165004264Y-96066193D01*
X165004264Y-96066192D01*
X164993782Y-96027076D01*
X164992616Y-96021818D01*
X164985588Y-95981955D01*
X164985586Y-95981952D01*
X164985586Y-95981950D01*
X164983760Y-95976933D01*
X164976820Y-95960176D01*
X164974554Y-95955319D01*
X164974554Y-95955316D01*
X164951339Y-95922162D01*
X164948433Y-95917599D01*
X164928196Y-95882548D01*
X164928195Y-95882547D01*
X164928194Y-95882545D01*
X164897177Y-95856518D01*
X164893193Y-95852867D01*
X164676819Y-95636492D01*
X164643334Y-95575169D01*
X164640500Y-95548811D01*
X164640500Y-91131158D01*
X164640500Y-86671184D01*
X164660184Y-86604149D01*
X164676813Y-86583512D01*
X166258210Y-85002115D01*
X166262172Y-84998484D01*
X166293194Y-84972455D01*
X166313444Y-84937378D01*
X166316333Y-84932845D01*
X166339553Y-84899684D01*
X166339555Y-84899676D01*
X166341816Y-84894828D01*
X166348754Y-84878079D01*
X166350583Y-84873052D01*
X166350588Y-84873045D01*
X166357622Y-84833147D01*
X166358779Y-84827929D01*
X166369263Y-84788807D01*
X166365735Y-84748489D01*
X166365500Y-84743086D01*
X166365500Y-80966909D01*
X166365736Y-80961502D01*
X166369263Y-80921191D01*
X166358786Y-80882092D01*
X166357617Y-80876824D01*
X166350588Y-80836955D01*
X166350587Y-80836954D01*
X166350587Y-80836951D01*
X166348765Y-80831947D01*
X166341815Y-80815168D01*
X166339554Y-80810319D01*
X166339553Y-80810318D01*
X166339553Y-80810316D01*
X166316333Y-80777154D01*
X166313435Y-80772604D01*
X166308358Y-80763811D01*
X166293194Y-80737545D01*
X166293191Y-80737542D01*
X166293190Y-80737541D01*
X166276189Y-80723276D01*
X166262182Y-80711522D01*
X166258210Y-80707883D01*
X163861819Y-78311491D01*
X163828334Y-78250169D01*
X163825500Y-78223811D01*
X163825500Y-75724500D01*
X163845185Y-75657461D01*
X163897989Y-75611706D01*
X163949500Y-75600500D01*
X164319750Y-75600500D01*
X164319751Y-75600499D01*
X164339224Y-75596626D01*
X164378229Y-75588868D01*
X164378229Y-75588867D01*
X164378231Y-75588867D01*
X164444552Y-75544552D01*
X164488867Y-75478231D01*
X164488867Y-75478229D01*
X164488868Y-75478229D01*
X164500499Y-75419752D01*
X164500500Y-75419750D01*
X164500500Y-73780249D01*
X164500499Y-73780247D01*
X164488868Y-73721770D01*
X164488867Y-73721769D01*
X164444552Y-73655447D01*
X164378230Y-73611132D01*
X164378229Y-73611131D01*
X164319752Y-73599500D01*
X164319748Y-73599500D01*
X162680252Y-73599500D01*
X162680247Y-73599500D01*
X162621770Y-73611131D01*
X162621769Y-73611132D01*
X162555447Y-73655447D01*
X162511132Y-73721769D01*
X162511131Y-73721770D01*
X162499500Y-73780247D01*
X162499500Y-75419752D01*
X162511131Y-75478229D01*
X162511132Y-75478230D01*
X162555447Y-75544552D01*
X162621769Y-75588867D01*
X162621770Y-75588868D01*
X162680247Y-75600499D01*
X162680250Y-75600500D01*
X162680252Y-75600500D01*
X163050500Y-75600500D01*
X163117539Y-75620185D01*
X163163294Y-75672989D01*
X163174500Y-75724500D01*
X163174500Y-78393078D01*
X163174264Y-78398485D01*
X163170735Y-78438808D01*
X163181212Y-78477910D01*
X163182383Y-78483190D01*
X163189411Y-78523043D01*
X163191235Y-78528055D01*
X163198197Y-78544861D01*
X163200445Y-78549681D01*
X163200446Y-78549684D01*
X163214452Y-78569687D01*
X163223655Y-78582831D01*
X163226561Y-78587392D01*
X163246806Y-78622455D01*
X163277815Y-78648475D01*
X163281805Y-78652131D01*
X165678182Y-81048508D01*
X165711666Y-81109829D01*
X165714500Y-81136187D01*
X165714500Y-84573810D01*
X165694815Y-84640849D01*
X165678181Y-84661491D01*
X164096803Y-86242870D01*
X164092814Y-86246525D01*
X164061805Y-86272545D01*
X164041562Y-86307606D01*
X164038656Y-86312166D01*
X164015446Y-86345313D01*
X164013206Y-86350117D01*
X164006229Y-86366961D01*
X164004410Y-86371959D01*
X163997383Y-86411811D01*
X163996212Y-86417091D01*
X163985735Y-86456191D01*
X163989264Y-86496513D01*
X163989500Y-86501920D01*
X163989500Y-95718078D01*
X163989264Y-95723485D01*
X163985735Y-95763808D01*
X163996212Y-95802910D01*
X163997383Y-95808190D01*
X164004411Y-95848043D01*
X164006235Y-95853055D01*
X164013197Y-95869861D01*
X164015445Y-95874681D01*
X164015446Y-95874684D01*
X164029452Y-95894687D01*
X164038655Y-95907831D01*
X164041561Y-95912392D01*
X164061806Y-95947455D01*
X164092815Y-95973475D01*
X164096793Y-95977119D01*
X164313182Y-96193508D01*
X164346666Y-96254829D01*
X164349500Y-96281187D01*
X164349500Y-96536017D01*
X164329815Y-96603056D01*
X164277011Y-96648811D01*
X164207853Y-96658755D01*
X164146836Y-96631871D01*
X164086453Y-96582317D01*
X164086451Y-96582316D01*
X164086450Y-96582315D01*
X163922941Y-96494917D01*
X163903956Y-96484769D01*
X163903955Y-96484768D01*
X163903954Y-96484768D01*
X163705934Y-96424700D01*
X163705932Y-96424699D01*
X163705934Y-96424699D01*
X163500000Y-96404417D01*
X163294067Y-96424699D01*
X163182054Y-96458678D01*
X163096046Y-96484768D01*
X163096043Y-96484769D01*
X163096041Y-96484770D01*
X163094132Y-96485561D01*
X163093051Y-96485677D01*
X163090217Y-96486537D01*
X163090053Y-96485999D01*
X163024662Y-96493026D01*
X162962185Y-96461747D01*
X162959005Y-96458678D01*
X162522133Y-96021806D01*
X161202119Y-94701793D01*
X161198474Y-94697814D01*
X161172456Y-94666807D01*
X161172455Y-94666806D01*
X161161058Y-94660226D01*
X161137392Y-94646561D01*
X161132831Y-94643655D01*
X161119687Y-94634452D01*
X161099684Y-94620446D01*
X161099681Y-94620445D01*
X161094861Y-94618197D01*
X161078055Y-94611235D01*
X161073043Y-94609411D01*
X161033190Y-94602383D01*
X161027910Y-94601212D01*
X160988808Y-94590735D01*
X160953892Y-94593790D01*
X160948481Y-94594264D01*
X160943078Y-94594500D01*
X159963620Y-94594500D01*
X159896581Y-94574815D01*
X159850826Y-94522011D01*
X159840882Y-94452853D01*
X159869907Y-94389297D01*
X159896581Y-94366184D01*
X159900052Y-94363953D01*
X159900053Y-94363953D01*
X160021128Y-94286143D01*
X160115377Y-94177373D01*
X160175165Y-94046457D01*
X160195647Y-93904000D01*
X160175165Y-93761543D01*
X160115377Y-93630627D01*
X160021128Y-93521857D01*
X159900053Y-93444047D01*
X159900051Y-93444046D01*
X159900049Y-93444045D01*
X159900050Y-93444045D01*
X159761963Y-93403500D01*
X159761961Y-93403500D01*
X159701188Y-93403500D01*
X159634149Y-93383815D01*
X159613507Y-93367181D01*
X159357736Y-93111410D01*
X159025119Y-92778793D01*
X159021474Y-92774814D01*
X158995456Y-92743807D01*
X158995455Y-92743806D01*
X158984058Y-92737226D01*
X158960392Y-92723561D01*
X158955831Y-92720655D01*
X158942687Y-92711452D01*
X158922684Y-92697446D01*
X158922681Y-92697445D01*
X158917861Y-92695197D01*
X158901055Y-92688235D01*
X158896043Y-92686411D01*
X158856190Y-92679383D01*
X158850910Y-92678212D01*
X158811808Y-92667735D01*
X158776892Y-92670790D01*
X158771481Y-92671264D01*
X158766078Y-92671500D01*
X129094334Y-92671500D01*
X129027295Y-92651815D01*
X128981540Y-92599011D01*
X128971596Y-92529853D01*
X128998481Y-92468835D01*
X129010280Y-92454456D01*
X129029910Y-92430538D01*
X129122814Y-92256727D01*
X129180024Y-92068132D01*
X129199341Y-91872000D01*
X129180024Y-91675868D01*
X129122814Y-91487273D01*
X129122811Y-91487269D01*
X129122811Y-91487266D01*
X129029913Y-91313467D01*
X129029909Y-91313460D01*
X128904883Y-91161116D01*
X128752539Y-91036090D01*
X128752532Y-91036086D01*
X128578733Y-90943188D01*
X128578727Y-90943186D01*
X128390132Y-90885976D01*
X128390129Y-90885975D01*
X128194000Y-90866659D01*
X127997870Y-90885975D01*
X127809266Y-90943188D01*
X127635467Y-91036086D01*
X127635460Y-91036090D01*
X127483116Y-91161116D01*
X127358090Y-91313460D01*
X127358086Y-91313467D01*
X127265188Y-91487266D01*
X127207975Y-91675870D01*
X127188659Y-91872000D01*
X127207975Y-92068129D01*
X127265188Y-92256733D01*
X127358086Y-92430532D01*
X127358091Y-92430539D01*
X127389519Y-92468835D01*
X127416832Y-92533145D01*
X127405041Y-92602013D01*
X127357889Y-92653573D01*
X127293666Y-92671500D01*
X124933189Y-92671500D01*
X124866150Y-92651815D01*
X124845508Y-92635181D01*
X120681819Y-88471492D01*
X120648334Y-88410169D01*
X120645500Y-88383811D01*
X120645500Y-83490000D01*
X121084353Y-83490000D01*
X121104834Y-83632456D01*
X121149477Y-83730208D01*
X121164623Y-83763373D01*
X121258872Y-83872143D01*
X121379947Y-83949953D01*
X121379950Y-83949954D01*
X121379949Y-83949954D01*
X121518036Y-83990499D01*
X121518038Y-83990500D01*
X121518039Y-83990500D01*
X121578812Y-83990500D01*
X121645851Y-84010185D01*
X121666493Y-84026819D01*
X126427863Y-88788189D01*
X126431518Y-88792178D01*
X126457541Y-88823190D01*
X126457543Y-88823191D01*
X126457545Y-88823194D01*
X126457547Y-88823195D01*
X126457548Y-88823196D01*
X126492599Y-88843433D01*
X126497162Y-88846339D01*
X126530316Y-88869554D01*
X126530319Y-88869554D01*
X126535176Y-88871820D01*
X126551933Y-88878760D01*
X126556950Y-88880586D01*
X126556952Y-88880586D01*
X126556955Y-88880588D01*
X126596818Y-88887616D01*
X126602076Y-88888782D01*
X126641193Y-88899264D01*
X126681518Y-88895735D01*
X126686922Y-88895500D01*
X134273078Y-88895500D01*
X134278481Y-88895735D01*
X134318807Y-88899264D01*
X134357940Y-88888777D01*
X134363162Y-88887619D01*
X134403045Y-88880588D01*
X134403050Y-88880584D01*
X134408099Y-88878747D01*
X134424824Y-88871819D01*
X134429681Y-88869554D01*
X134429684Y-88869554D01*
X134462841Y-88846335D01*
X134467390Y-88843438D01*
X134502455Y-88823194D01*
X134502459Y-88823190D01*
X134528476Y-88792182D01*
X134532122Y-88788202D01*
X140138454Y-83181870D01*
X140199775Y-83148387D01*
X140262126Y-83150892D01*
X140443868Y-83206024D01*
X140640000Y-83225341D01*
X140836132Y-83206024D01*
X141024727Y-83148814D01*
X141031461Y-83145215D01*
X141167016Y-83072759D01*
X141198538Y-83055910D01*
X141350883Y-82930883D01*
X141475910Y-82778538D01*
X141539638Y-82659311D01*
X141568811Y-82604733D01*
X141568811Y-82604732D01*
X141568814Y-82604727D01*
X141626024Y-82416132D01*
X141645341Y-82220000D01*
X142174659Y-82220000D01*
X142193975Y-82416129D01*
X142251188Y-82604733D01*
X142344086Y-82778532D01*
X142344090Y-82778539D01*
X142469116Y-82930883D01*
X142621460Y-83055909D01*
X142621467Y-83055913D01*
X142795266Y-83148811D01*
X142795269Y-83148811D01*
X142795273Y-83148814D01*
X142983868Y-83206024D01*
X143180000Y-83225341D01*
X143376132Y-83206024D01*
X143564727Y-83148814D01*
X143571461Y-83145215D01*
X143707016Y-83072759D01*
X143738538Y-83055910D01*
X143890883Y-82930883D01*
X144015910Y-82778538D01*
X144079638Y-82659311D01*
X144108811Y-82604733D01*
X144108811Y-82604732D01*
X144108814Y-82604727D01*
X144166024Y-82416132D01*
X144185341Y-82220000D01*
X144166024Y-82023868D01*
X144108814Y-81835273D01*
X144108811Y-81835269D01*
X144108811Y-81835266D01*
X144015913Y-81661467D01*
X144015909Y-81661460D01*
X143890883Y-81509116D01*
X143738539Y-81384090D01*
X143738532Y-81384086D01*
X143564733Y-81291188D01*
X143564727Y-81291186D01*
X143376132Y-81233976D01*
X143376129Y-81233975D01*
X143180000Y-81214659D01*
X142983870Y-81233975D01*
X142795266Y-81291188D01*
X142621467Y-81384086D01*
X142621460Y-81384090D01*
X142469116Y-81509116D01*
X142344090Y-81661460D01*
X142344086Y-81661467D01*
X142251188Y-81835266D01*
X142193975Y-82023870D01*
X142174659Y-82220000D01*
X141645341Y-82220000D01*
X141626024Y-82023868D01*
X141568814Y-81835273D01*
X141568811Y-81835269D01*
X141568811Y-81835266D01*
X141475913Y-81661467D01*
X141475909Y-81661460D01*
X141350883Y-81509116D01*
X141198539Y-81384090D01*
X141198532Y-81384086D01*
X141024733Y-81291188D01*
X141024727Y-81291186D01*
X140836132Y-81233976D01*
X140836129Y-81233975D01*
X140640000Y-81214659D01*
X140443870Y-81233975D01*
X140255266Y-81291188D01*
X140081467Y-81384086D01*
X140081460Y-81384090D01*
X139929116Y-81509116D01*
X139804090Y-81661460D01*
X139804086Y-81661467D01*
X139711188Y-81835266D01*
X139653975Y-82023870D01*
X139634659Y-82220000D01*
X139653975Y-82416130D01*
X139709106Y-82597870D01*
X139709729Y-82667736D01*
X139678126Y-82721546D01*
X134191493Y-88208181D01*
X134130170Y-88241666D01*
X134103812Y-88244500D01*
X126856188Y-88244500D01*
X126789149Y-88224815D01*
X126768507Y-88208181D01*
X126309577Y-87749251D01*
X126276092Y-87687928D01*
X126281076Y-87618236D01*
X126322948Y-87562303D01*
X126388412Y-87537886D01*
X126456685Y-87552738D01*
X126459222Y-87554162D01*
X126492598Y-87573432D01*
X126492600Y-87573433D01*
X126497162Y-87576339D01*
X126530316Y-87599554D01*
X126530319Y-87599554D01*
X126535176Y-87601820D01*
X126551933Y-87608760D01*
X126556953Y-87610587D01*
X126556955Y-87610588D01*
X126592806Y-87616909D01*
X126596808Y-87617615D01*
X126602080Y-87618783D01*
X126641193Y-87629264D01*
X126681522Y-87625735D01*
X126686924Y-87625500D01*
X133003078Y-87625500D01*
X133008481Y-87625735D01*
X133048807Y-87629264D01*
X133087940Y-87618777D01*
X133093162Y-87617619D01*
X133133045Y-87610588D01*
X133133050Y-87610584D01*
X133138099Y-87608747D01*
X133154824Y-87601819D01*
X133159681Y-87599554D01*
X133159684Y-87599554D01*
X133192841Y-87576335D01*
X133197390Y-87573438D01*
X133232455Y-87553194D01*
X133258481Y-87522176D01*
X133262122Y-87518202D01*
X137598454Y-83181870D01*
X137659775Y-83148387D01*
X137722126Y-83150892D01*
X137903868Y-83206024D01*
X138100000Y-83225341D01*
X138296132Y-83206024D01*
X138484727Y-83148814D01*
X138491461Y-83145215D01*
X138627016Y-83072759D01*
X138658538Y-83055910D01*
X138810883Y-82930883D01*
X138935910Y-82778538D01*
X138999638Y-82659311D01*
X139028811Y-82604733D01*
X139028811Y-82604732D01*
X139028814Y-82604727D01*
X139086024Y-82416132D01*
X139105341Y-82220000D01*
X139086024Y-82023868D01*
X139028814Y-81835273D01*
X139028811Y-81835269D01*
X139028811Y-81835266D01*
X138935913Y-81661467D01*
X138935909Y-81661460D01*
X138810883Y-81509116D01*
X138658539Y-81384090D01*
X138658532Y-81384086D01*
X138484733Y-81291188D01*
X138484727Y-81291186D01*
X138296132Y-81233976D01*
X138296129Y-81233975D01*
X138100000Y-81214659D01*
X137903870Y-81233975D01*
X137715266Y-81291188D01*
X137541467Y-81384086D01*
X137541460Y-81384090D01*
X137389116Y-81509116D01*
X137264090Y-81661460D01*
X137264086Y-81661467D01*
X137171188Y-81835266D01*
X137113975Y-82023870D01*
X137094659Y-82220000D01*
X137113975Y-82416130D01*
X137169106Y-82597870D01*
X137169729Y-82667736D01*
X137138126Y-82721546D01*
X136009252Y-83850420D01*
X135947929Y-83883905D01*
X135878237Y-83878921D01*
X135822304Y-83837049D01*
X135797887Y-83771585D01*
X135812739Y-83703312D01*
X135814164Y-83700774D01*
X135833441Y-83667384D01*
X135836336Y-83662841D01*
X135859553Y-83629684D01*
X135859555Y-83629676D01*
X135861816Y-83624828D01*
X135868754Y-83608079D01*
X135870583Y-83603052D01*
X135870588Y-83603045D01*
X135877622Y-83563147D01*
X135878779Y-83557929D01*
X135889263Y-83518807D01*
X135885735Y-83478489D01*
X135885500Y-83473086D01*
X135885500Y-83254794D01*
X135905185Y-83187755D01*
X135951047Y-83145436D01*
X136028119Y-83104240D01*
X136118538Y-83055910D01*
X136270883Y-82930883D01*
X136395910Y-82778538D01*
X136459638Y-82659311D01*
X136488811Y-82604733D01*
X136488811Y-82604732D01*
X136488814Y-82604727D01*
X136546024Y-82416132D01*
X136565341Y-82220000D01*
X136546024Y-82023868D01*
X136488814Y-81835273D01*
X136488811Y-81835269D01*
X136488811Y-81835266D01*
X136395913Y-81661467D01*
X136395909Y-81661460D01*
X136270883Y-81509116D01*
X136118539Y-81384090D01*
X136118532Y-81384086D01*
X135944733Y-81291188D01*
X135944727Y-81291186D01*
X135756132Y-81233976D01*
X135756129Y-81233975D01*
X135560000Y-81214659D01*
X135363870Y-81233975D01*
X135175266Y-81291188D01*
X135001467Y-81384086D01*
X135001460Y-81384090D01*
X134849116Y-81509116D01*
X134724090Y-81661460D01*
X134724086Y-81661467D01*
X134631188Y-81835266D01*
X134573975Y-82023870D01*
X134554659Y-82220000D01*
X134573975Y-82416129D01*
X134631188Y-82604733D01*
X134724086Y-82778532D01*
X134724090Y-82778539D01*
X134849116Y-82930883D01*
X135001460Y-83055909D01*
X135001467Y-83055913D01*
X135168953Y-83145436D01*
X135218797Y-83194398D01*
X135234500Y-83254794D01*
X135234500Y-83303811D01*
X135214815Y-83370850D01*
X135198181Y-83391492D01*
X132921493Y-85668181D01*
X132860170Y-85701666D01*
X132833812Y-85704500D01*
X128126188Y-85704500D01*
X128059149Y-85684815D01*
X128038507Y-85668181D01*
X124671966Y-82301640D01*
X124638481Y-82240317D01*
X124637235Y-82228732D01*
X124636909Y-82228779D01*
X124630654Y-82185277D01*
X124615165Y-82077543D01*
X124555377Y-81946627D01*
X124555375Y-81946625D01*
X124555374Y-81946622D01*
X124485787Y-81866314D01*
X124456762Y-81802758D01*
X124455500Y-81785112D01*
X124455500Y-80978808D01*
X125070735Y-80978808D01*
X125081212Y-81017909D01*
X125082383Y-81023189D01*
X125089411Y-81063043D01*
X125091235Y-81068055D01*
X125098197Y-81084861D01*
X125100445Y-81089681D01*
X125100446Y-81089684D01*
X125100573Y-81089865D01*
X125123655Y-81122831D01*
X125126561Y-81127392D01*
X125146806Y-81162455D01*
X125177815Y-81188475D01*
X125181805Y-81192131D01*
X128967863Y-84978189D01*
X128971518Y-84982178D01*
X128997541Y-85013190D01*
X128997543Y-85013191D01*
X128997545Y-85013194D01*
X128997547Y-85013195D01*
X128997548Y-85013196D01*
X129032599Y-85033433D01*
X129037162Y-85036339D01*
X129070316Y-85059554D01*
X129070319Y-85059554D01*
X129075176Y-85061820D01*
X129091933Y-85068760D01*
X129096953Y-85070587D01*
X129096955Y-85070588D01*
X129132806Y-85076909D01*
X129136808Y-85077615D01*
X129142080Y-85078783D01*
X129181193Y-85089264D01*
X129221522Y-85085735D01*
X129226924Y-85085500D01*
X131733078Y-85085500D01*
X131738481Y-85085735D01*
X131778807Y-85089264D01*
X131817940Y-85078777D01*
X131823162Y-85077619D01*
X131863045Y-85070588D01*
X131863050Y-85070584D01*
X131868099Y-85068747D01*
X131884824Y-85061819D01*
X131889681Y-85059554D01*
X131889684Y-85059554D01*
X131922841Y-85036335D01*
X131927390Y-85033438D01*
X131962455Y-85013194D01*
X131962459Y-85013190D01*
X131988476Y-84982182D01*
X131992122Y-84978202D01*
X133238210Y-83732115D01*
X133242172Y-83728484D01*
X133273194Y-83702455D01*
X133293444Y-83667379D01*
X133296328Y-83662852D01*
X133319554Y-83629684D01*
X133319554Y-83629681D01*
X133321819Y-83624824D01*
X133328747Y-83608099D01*
X133330587Y-83603046D01*
X133330588Y-83603045D01*
X133337621Y-83563150D01*
X133338777Y-83557937D01*
X133349263Y-83518807D01*
X133345735Y-83478489D01*
X133345500Y-83473086D01*
X133345500Y-83254794D01*
X133365185Y-83187755D01*
X133411047Y-83145436D01*
X133488119Y-83104240D01*
X133578538Y-83055910D01*
X133730883Y-82930883D01*
X133855910Y-82778538D01*
X133919638Y-82659311D01*
X133948811Y-82604733D01*
X133948811Y-82604732D01*
X133948814Y-82604727D01*
X134006024Y-82416132D01*
X134025341Y-82220000D01*
X134006024Y-82023868D01*
X133948814Y-81835273D01*
X133948811Y-81835269D01*
X133948811Y-81835266D01*
X133855913Y-81661467D01*
X133855909Y-81661460D01*
X133730883Y-81509116D01*
X133578539Y-81384090D01*
X133578532Y-81384086D01*
X133404733Y-81291188D01*
X133404727Y-81291186D01*
X133216132Y-81233976D01*
X133216129Y-81233975D01*
X133020000Y-81214659D01*
X132823870Y-81233975D01*
X132635266Y-81291188D01*
X132461467Y-81384086D01*
X132461460Y-81384090D01*
X132309116Y-81509116D01*
X132184090Y-81661460D01*
X132184086Y-81661467D01*
X132091188Y-81835266D01*
X132033975Y-82023870D01*
X132014659Y-82220000D01*
X132033975Y-82416129D01*
X132091188Y-82604733D01*
X132184086Y-82778532D01*
X132184090Y-82778539D01*
X132309116Y-82930883D01*
X132461460Y-83055909D01*
X132461467Y-83055913D01*
X132628953Y-83145436D01*
X132678797Y-83194398D01*
X132694500Y-83254794D01*
X132694500Y-83303811D01*
X132674815Y-83370850D01*
X132658181Y-83391492D01*
X131651493Y-84398181D01*
X131590170Y-84431666D01*
X131563812Y-84434500D01*
X129396188Y-84434500D01*
X129329149Y-84414815D01*
X129308507Y-84398181D01*
X125761819Y-80851492D01*
X125728334Y-80790169D01*
X125725500Y-80763811D01*
X125725500Y-79708806D01*
X126340735Y-79708806D01*
X126351212Y-79747910D01*
X126352383Y-79753190D01*
X126359411Y-79793043D01*
X126361235Y-79798055D01*
X126368197Y-79814861D01*
X126370445Y-79819681D01*
X126370446Y-79819684D01*
X126384452Y-79839687D01*
X126393655Y-79852831D01*
X126396561Y-79857392D01*
X126416806Y-79892455D01*
X126447815Y-79918475D01*
X126451805Y-79922131D01*
X128967868Y-82438195D01*
X128971523Y-82442184D01*
X128997541Y-82473190D01*
X128997542Y-82473191D01*
X128997545Y-82473194D01*
X129026387Y-82489845D01*
X129032604Y-82493435D01*
X129037154Y-82496333D01*
X129070316Y-82519553D01*
X129070318Y-82519553D01*
X129070319Y-82519554D01*
X129075168Y-82521815D01*
X129091947Y-82528765D01*
X129096952Y-82530587D01*
X129096953Y-82530587D01*
X129096955Y-82530588D01*
X129136829Y-82537618D01*
X129142092Y-82538786D01*
X129153907Y-82541951D01*
X129181193Y-82549263D01*
X129221510Y-82545735D01*
X129226912Y-82545500D01*
X129445205Y-82545500D01*
X129512244Y-82565185D01*
X129554563Y-82611047D01*
X129644085Y-82778532D01*
X129644090Y-82778539D01*
X129769116Y-82930883D01*
X129921460Y-83055909D01*
X129921467Y-83055913D01*
X130095266Y-83148811D01*
X130095269Y-83148811D01*
X130095273Y-83148814D01*
X130283868Y-83206024D01*
X130480000Y-83225341D01*
X130676132Y-83206024D01*
X130864727Y-83148814D01*
X130871461Y-83145215D01*
X131007016Y-83072759D01*
X131038538Y-83055910D01*
X131190883Y-82930883D01*
X131315910Y-82778538D01*
X131379638Y-82659311D01*
X131408811Y-82604733D01*
X131408811Y-82604732D01*
X131408814Y-82604727D01*
X131466024Y-82416132D01*
X131485341Y-82220000D01*
X131466024Y-82023868D01*
X131408814Y-81835273D01*
X131408811Y-81835269D01*
X131408811Y-81835266D01*
X131315913Y-81661467D01*
X131315909Y-81661460D01*
X131190883Y-81509116D01*
X131038539Y-81384090D01*
X131038532Y-81384086D01*
X130864733Y-81291188D01*
X130864727Y-81291186D01*
X130676132Y-81233976D01*
X130676129Y-81233975D01*
X130480000Y-81214659D01*
X130283870Y-81233975D01*
X130095266Y-81291188D01*
X129921467Y-81384086D01*
X129921460Y-81384090D01*
X129769116Y-81509116D01*
X129644090Y-81661460D01*
X129644085Y-81661467D01*
X129554563Y-81828953D01*
X129505601Y-81878798D01*
X129445205Y-81894500D01*
X129396189Y-81894500D01*
X129329150Y-81874815D01*
X129308508Y-81858181D01*
X127031818Y-79581491D01*
X126998333Y-79520168D01*
X126995499Y-79493810D01*
X126995499Y-77194418D01*
X126995499Y-75870000D01*
X127434353Y-75870000D01*
X127435629Y-75878872D01*
X127454834Y-76012456D01*
X127479515Y-76066499D01*
X127514623Y-76143373D01*
X127608872Y-76252143D01*
X127729947Y-76329953D01*
X127729950Y-76329954D01*
X127729949Y-76329954D01*
X127868036Y-76370499D01*
X127868038Y-76370500D01*
X127868039Y-76370500D01*
X127928812Y-76370500D01*
X127995851Y-76390185D01*
X128016493Y-76406819D01*
X131507863Y-79898189D01*
X131511518Y-79902178D01*
X131537541Y-79933190D01*
X131537543Y-79933191D01*
X131537545Y-79933194D01*
X131537547Y-79933195D01*
X131537548Y-79933196D01*
X131572599Y-79953433D01*
X131577162Y-79956339D01*
X131610316Y-79979554D01*
X131610319Y-79979554D01*
X131615176Y-79981820D01*
X131631933Y-79988760D01*
X131636953Y-79990587D01*
X131636955Y-79990588D01*
X131672806Y-79996909D01*
X131676808Y-79997615D01*
X131682080Y-79998783D01*
X131721193Y-80009264D01*
X131761522Y-80005735D01*
X131766924Y-80005500D01*
X142993812Y-80005500D01*
X143060851Y-80025185D01*
X143081493Y-80041819D01*
X144758126Y-81718453D01*
X144791611Y-81779776D01*
X144789106Y-81842129D01*
X144733975Y-82023869D01*
X144714659Y-82220000D01*
X144733975Y-82416129D01*
X144791188Y-82604733D01*
X144884086Y-82778532D01*
X144884090Y-82778539D01*
X145009116Y-82930883D01*
X145161460Y-83055909D01*
X145161467Y-83055913D01*
X145335266Y-83148811D01*
X145335269Y-83148811D01*
X145335273Y-83148814D01*
X145523868Y-83206024D01*
X145720000Y-83225341D01*
X145916132Y-83206024D01*
X146104727Y-83148814D01*
X146111461Y-83145215D01*
X146247016Y-83072759D01*
X146278538Y-83055910D01*
X146430883Y-82930883D01*
X146555910Y-82778538D01*
X146619638Y-82659311D01*
X146648811Y-82604733D01*
X146648811Y-82604732D01*
X146648814Y-82604727D01*
X146706024Y-82416132D01*
X146725341Y-82220000D01*
X146706024Y-82023868D01*
X146689683Y-81969999D01*
X146981127Y-81969999D01*
X146981128Y-81970000D01*
X147944314Y-81970000D01*
X147932359Y-81981955D01*
X147874835Y-82094852D01*
X147855014Y-82220000D01*
X147874835Y-82345148D01*
X147932359Y-82458045D01*
X147944314Y-82470000D01*
X146981128Y-82470000D01*
X147033730Y-82666317D01*
X147033734Y-82666326D01*
X147129865Y-82872482D01*
X147260342Y-83058820D01*
X147421179Y-83219657D01*
X147607517Y-83350134D01*
X147813673Y-83446265D01*
X147813682Y-83446269D01*
X148009999Y-83498872D01*
X148010000Y-83498871D01*
X148010000Y-82535686D01*
X148021955Y-82547641D01*
X148134852Y-82605165D01*
X148228519Y-82620000D01*
X148291481Y-82620000D01*
X148385148Y-82605165D01*
X148498045Y-82547641D01*
X148510000Y-82535686D01*
X148510000Y-83498872D01*
X148706317Y-83446269D01*
X148706326Y-83446265D01*
X148912482Y-83350134D01*
X149098820Y-83219657D01*
X149259657Y-83058820D01*
X149390134Y-82872482D01*
X149486265Y-82666326D01*
X149486269Y-82666317D01*
X149538872Y-82470000D01*
X148575686Y-82470000D01*
X148587641Y-82458045D01*
X148645165Y-82345148D01*
X148664986Y-82220000D01*
X149794659Y-82220000D01*
X149813975Y-82416129D01*
X149871188Y-82604733D01*
X149964086Y-82778532D01*
X149964090Y-82778539D01*
X150089116Y-82930883D01*
X150241460Y-83055909D01*
X150241467Y-83055913D01*
X150415266Y-83148811D01*
X150415269Y-83148811D01*
X150415273Y-83148814D01*
X150603868Y-83206024D01*
X150800000Y-83225341D01*
X150996132Y-83206024D01*
X151184727Y-83148814D01*
X151191461Y-83145215D01*
X151327016Y-83072759D01*
X151358538Y-83055910D01*
X151510883Y-82930883D01*
X151635910Y-82778538D01*
X151699638Y-82659311D01*
X151728811Y-82604733D01*
X151728811Y-82604732D01*
X151728814Y-82604727D01*
X151786024Y-82416132D01*
X151805341Y-82220000D01*
X152334659Y-82220000D01*
X152353975Y-82416129D01*
X152411188Y-82604733D01*
X152504086Y-82778532D01*
X152504090Y-82778539D01*
X152629116Y-82930883D01*
X152781460Y-83055909D01*
X152781467Y-83055913D01*
X152955266Y-83148811D01*
X152955269Y-83148811D01*
X152955273Y-83148814D01*
X153143868Y-83206024D01*
X153340000Y-83225341D01*
X153536132Y-83206024D01*
X153724727Y-83148814D01*
X153731461Y-83145215D01*
X153867016Y-83072759D01*
X153898538Y-83055910D01*
X154050883Y-82930883D01*
X154175910Y-82778538D01*
X154239638Y-82659311D01*
X154268811Y-82604733D01*
X154268811Y-82604732D01*
X154268814Y-82604727D01*
X154326024Y-82416132D01*
X154345341Y-82220000D01*
X154874659Y-82220000D01*
X154893975Y-82416129D01*
X154951188Y-82604733D01*
X155044086Y-82778532D01*
X155044090Y-82778539D01*
X155169116Y-82930883D01*
X155321460Y-83055909D01*
X155321467Y-83055913D01*
X155495266Y-83148811D01*
X155495269Y-83148811D01*
X155495273Y-83148814D01*
X155683868Y-83206024D01*
X155880000Y-83225341D01*
X156076132Y-83206024D01*
X156264727Y-83148814D01*
X156271461Y-83145215D01*
X156407016Y-83072759D01*
X156438538Y-83055910D01*
X156590883Y-82930883D01*
X156715910Y-82778538D01*
X156779638Y-82659311D01*
X156808811Y-82604733D01*
X156808811Y-82604732D01*
X156808814Y-82604727D01*
X156866024Y-82416132D01*
X156885341Y-82220000D01*
X157414659Y-82220000D01*
X157433975Y-82416129D01*
X157491188Y-82604733D01*
X157584086Y-82778532D01*
X157584090Y-82778539D01*
X157709116Y-82930883D01*
X157861460Y-83055909D01*
X157861467Y-83055913D01*
X158035266Y-83148811D01*
X158035269Y-83148811D01*
X158035273Y-83148814D01*
X158223868Y-83206024D01*
X158420000Y-83225341D01*
X158616132Y-83206024D01*
X158804727Y-83148814D01*
X158811461Y-83145215D01*
X158947016Y-83072759D01*
X158978538Y-83055910D01*
X159130883Y-82930883D01*
X159255910Y-82778538D01*
X159319638Y-82659311D01*
X159348811Y-82604733D01*
X159348811Y-82604732D01*
X159348814Y-82604727D01*
X159406024Y-82416132D01*
X159425341Y-82220000D01*
X159954659Y-82220000D01*
X159973975Y-82416129D01*
X160031188Y-82604733D01*
X160124086Y-82778532D01*
X160124090Y-82778539D01*
X160249116Y-82930883D01*
X160401460Y-83055909D01*
X160401467Y-83055913D01*
X160575266Y-83148811D01*
X160575269Y-83148811D01*
X160575273Y-83148814D01*
X160763868Y-83206024D01*
X160960000Y-83225341D01*
X161156132Y-83206024D01*
X161344727Y-83148814D01*
X161351461Y-83145215D01*
X161487016Y-83072759D01*
X161518538Y-83055910D01*
X161670883Y-82930883D01*
X161795910Y-82778538D01*
X161859638Y-82659311D01*
X161888811Y-82604733D01*
X161888811Y-82604732D01*
X161888814Y-82604727D01*
X161946024Y-82416132D01*
X161965341Y-82220000D01*
X162494659Y-82220000D01*
X162513975Y-82416129D01*
X162571188Y-82604733D01*
X162664086Y-82778532D01*
X162664090Y-82778539D01*
X162789116Y-82930883D01*
X162941460Y-83055909D01*
X162941467Y-83055913D01*
X163115266Y-83148811D01*
X163115269Y-83148811D01*
X163115273Y-83148814D01*
X163303868Y-83206024D01*
X163500000Y-83225341D01*
X163696132Y-83206024D01*
X163884727Y-83148814D01*
X163891461Y-83145215D01*
X164027016Y-83072759D01*
X164058538Y-83055910D01*
X164210883Y-82930883D01*
X164335910Y-82778538D01*
X164399638Y-82659311D01*
X164428811Y-82604733D01*
X164428811Y-82604732D01*
X164428814Y-82604727D01*
X164486024Y-82416132D01*
X164505341Y-82220000D01*
X164486024Y-82023868D01*
X164428814Y-81835273D01*
X164428811Y-81835269D01*
X164428811Y-81835266D01*
X164335913Y-81661467D01*
X164335909Y-81661460D01*
X164210883Y-81509116D01*
X164058539Y-81384090D01*
X164058532Y-81384086D01*
X163884733Y-81291188D01*
X163884727Y-81291186D01*
X163696132Y-81233976D01*
X163696129Y-81233975D01*
X163500000Y-81214659D01*
X163303870Y-81233975D01*
X163115266Y-81291188D01*
X162941467Y-81384086D01*
X162941460Y-81384090D01*
X162789116Y-81509116D01*
X162664090Y-81661460D01*
X162664086Y-81661467D01*
X162571188Y-81835266D01*
X162513975Y-82023870D01*
X162494659Y-82220000D01*
X161965341Y-82220000D01*
X161946024Y-82023868D01*
X161888814Y-81835273D01*
X161888811Y-81835269D01*
X161888811Y-81835266D01*
X161795913Y-81661467D01*
X161795909Y-81661460D01*
X161670883Y-81509116D01*
X161518539Y-81384090D01*
X161518532Y-81384086D01*
X161344733Y-81291188D01*
X161344727Y-81291186D01*
X161156132Y-81233976D01*
X161156129Y-81233975D01*
X160960000Y-81214659D01*
X160763870Y-81233975D01*
X160575266Y-81291188D01*
X160401467Y-81384086D01*
X160401460Y-81384090D01*
X160249116Y-81509116D01*
X160124090Y-81661460D01*
X160124086Y-81661467D01*
X160031188Y-81835266D01*
X159973975Y-82023870D01*
X159954659Y-82220000D01*
X159425341Y-82220000D01*
X159406024Y-82023868D01*
X159348814Y-81835273D01*
X159348811Y-81835269D01*
X159348811Y-81835266D01*
X159255913Y-81661467D01*
X159255909Y-81661460D01*
X159130883Y-81509116D01*
X158978539Y-81384090D01*
X158978532Y-81384086D01*
X158804733Y-81291188D01*
X158804727Y-81291186D01*
X158616132Y-81233976D01*
X158616129Y-81233975D01*
X158420000Y-81214659D01*
X158223870Y-81233975D01*
X158035266Y-81291188D01*
X157861467Y-81384086D01*
X157861460Y-81384090D01*
X157709116Y-81509116D01*
X157584090Y-81661460D01*
X157584086Y-81661467D01*
X157491188Y-81835266D01*
X157433975Y-82023870D01*
X157414659Y-82220000D01*
X156885341Y-82220000D01*
X156866024Y-82023868D01*
X156808814Y-81835273D01*
X156808811Y-81835269D01*
X156808811Y-81835266D01*
X156715913Y-81661467D01*
X156715909Y-81661460D01*
X156590883Y-81509116D01*
X156438539Y-81384090D01*
X156438532Y-81384086D01*
X156264733Y-81291188D01*
X156264727Y-81291186D01*
X156076132Y-81233976D01*
X156076129Y-81233975D01*
X155880000Y-81214659D01*
X155683870Y-81233975D01*
X155495266Y-81291188D01*
X155321467Y-81384086D01*
X155321460Y-81384090D01*
X155169116Y-81509116D01*
X155044090Y-81661460D01*
X155044086Y-81661467D01*
X154951188Y-81835266D01*
X154893975Y-82023870D01*
X154874659Y-82220000D01*
X154345341Y-82220000D01*
X154326024Y-82023868D01*
X154268814Y-81835273D01*
X154268811Y-81835269D01*
X154268811Y-81835266D01*
X154175913Y-81661467D01*
X154175909Y-81661460D01*
X154050883Y-81509116D01*
X153898539Y-81384090D01*
X153898532Y-81384086D01*
X153724733Y-81291188D01*
X153724727Y-81291186D01*
X153536132Y-81233976D01*
X153536129Y-81233975D01*
X153340000Y-81214659D01*
X153143870Y-81233975D01*
X152955266Y-81291188D01*
X152781467Y-81384086D01*
X152781460Y-81384090D01*
X152629116Y-81509116D01*
X152504090Y-81661460D01*
X152504086Y-81661467D01*
X152411188Y-81835266D01*
X152353975Y-82023870D01*
X152334659Y-82220000D01*
X151805341Y-82220000D01*
X151786024Y-82023868D01*
X151728814Y-81835273D01*
X151728811Y-81835269D01*
X151728811Y-81835266D01*
X151635913Y-81661467D01*
X151635909Y-81661460D01*
X151510883Y-81509116D01*
X151358539Y-81384090D01*
X151358532Y-81384086D01*
X151184733Y-81291188D01*
X151184727Y-81291186D01*
X150996132Y-81233976D01*
X150996129Y-81233975D01*
X150800000Y-81214659D01*
X150603870Y-81233975D01*
X150415266Y-81291188D01*
X150241467Y-81384086D01*
X150241460Y-81384090D01*
X150089116Y-81509116D01*
X149964090Y-81661460D01*
X149964086Y-81661467D01*
X149871188Y-81835266D01*
X149813975Y-82023870D01*
X149794659Y-82220000D01*
X148664986Y-82220000D01*
X148645165Y-82094852D01*
X148587641Y-81981955D01*
X148575686Y-81970000D01*
X149538872Y-81970000D01*
X149538872Y-81969999D01*
X149486269Y-81773682D01*
X149486265Y-81773673D01*
X149390134Y-81567517D01*
X149259657Y-81381179D01*
X149098820Y-81220342D01*
X148912482Y-81089865D01*
X148706328Y-80993734D01*
X148510000Y-80941127D01*
X148510000Y-81904314D01*
X148498045Y-81892359D01*
X148385148Y-81834835D01*
X148291481Y-81820000D01*
X148228519Y-81820000D01*
X148134852Y-81834835D01*
X148021955Y-81892359D01*
X148010000Y-81904314D01*
X148010000Y-80941127D01*
X147813671Y-80993734D01*
X147607517Y-81089865D01*
X147421179Y-81220342D01*
X147260342Y-81381179D01*
X147129865Y-81567517D01*
X147033734Y-81773673D01*
X147033730Y-81773682D01*
X146981127Y-81969999D01*
X146689683Y-81969999D01*
X146648814Y-81835273D01*
X146648811Y-81835269D01*
X146648811Y-81835266D01*
X146555913Y-81661467D01*
X146555909Y-81661460D01*
X146430883Y-81509116D01*
X146278539Y-81384090D01*
X146278532Y-81384086D01*
X146104733Y-81291188D01*
X146104727Y-81291186D01*
X145916132Y-81233976D01*
X145916129Y-81233975D01*
X145720000Y-81214659D01*
X145523869Y-81233975D01*
X145342129Y-81289106D01*
X145272262Y-81289729D01*
X145218453Y-81258126D01*
X144770643Y-80810316D01*
X143422119Y-79461793D01*
X143418474Y-79457814D01*
X143392456Y-79426807D01*
X143392455Y-79426806D01*
X143372596Y-79415340D01*
X143357392Y-79406561D01*
X143352831Y-79403655D01*
X143339687Y-79394452D01*
X143319684Y-79380446D01*
X143319681Y-79380445D01*
X143314861Y-79378197D01*
X143298055Y-79371235D01*
X143293043Y-79369411D01*
X143253190Y-79362383D01*
X143247910Y-79361212D01*
X143208808Y-79350735D01*
X143173892Y-79353790D01*
X143168481Y-79354264D01*
X143163078Y-79354500D01*
X131936188Y-79354500D01*
X131869149Y-79334815D01*
X131848507Y-79318181D01*
X128481966Y-75951640D01*
X128448481Y-75890317D01*
X128447235Y-75878732D01*
X128446909Y-75878779D01*
X128440854Y-75836668D01*
X128425165Y-75727543D01*
X128365377Y-75596627D01*
X128271128Y-75487857D01*
X128150053Y-75410047D01*
X128150051Y-75410046D01*
X128150049Y-75410045D01*
X128150050Y-75410045D01*
X128011963Y-75369500D01*
X128011961Y-75369500D01*
X127868039Y-75369500D01*
X127868036Y-75369500D01*
X127729949Y-75410045D01*
X127608873Y-75487856D01*
X127514623Y-75596626D01*
X127514622Y-75596628D01*
X127454834Y-75727543D01*
X127434353Y-75869999D01*
X127434353Y-75870000D01*
X126995499Y-75870000D01*
X126995499Y-74786183D01*
X127015184Y-74719148D01*
X127031813Y-74698511D01*
X127130324Y-74600000D01*
X129474659Y-74600000D01*
X129493975Y-74796129D01*
X129551188Y-74984733D01*
X129644086Y-75158532D01*
X129644090Y-75158539D01*
X129769116Y-75310883D01*
X129921460Y-75435909D01*
X129921467Y-75435913D01*
X130095266Y-75528811D01*
X130095269Y-75528811D01*
X130095273Y-75528814D01*
X130283868Y-75586024D01*
X130480000Y-75605341D01*
X130676132Y-75586024D01*
X130864727Y-75528814D01*
X130872172Y-75524835D01*
X130986597Y-75463673D01*
X131038538Y-75435910D01*
X131190883Y-75310883D01*
X131315910Y-75158538D01*
X131396854Y-75007102D01*
X131408811Y-74984733D01*
X131408811Y-74984732D01*
X131408814Y-74984727D01*
X131466024Y-74796132D01*
X131485341Y-74600000D01*
X132014659Y-74600000D01*
X132033975Y-74796129D01*
X132091188Y-74984733D01*
X132184086Y-75158532D01*
X132184090Y-75158539D01*
X132309116Y-75310883D01*
X132461460Y-75435909D01*
X132461467Y-75435913D01*
X132635266Y-75528811D01*
X132635269Y-75528811D01*
X132635273Y-75528814D01*
X132823868Y-75586024D01*
X133020000Y-75605341D01*
X133216132Y-75586024D01*
X133404727Y-75528814D01*
X133412172Y-75524835D01*
X133526597Y-75463673D01*
X133578538Y-75435910D01*
X133730883Y-75310883D01*
X133855910Y-75158538D01*
X133936854Y-75007102D01*
X133948811Y-74984733D01*
X133948811Y-74984732D01*
X133948814Y-74984727D01*
X134006024Y-74796132D01*
X134025341Y-74600000D01*
X134554659Y-74600000D01*
X134573975Y-74796129D01*
X134631188Y-74984733D01*
X134724086Y-75158532D01*
X134724090Y-75158539D01*
X134849116Y-75310883D01*
X135001460Y-75435909D01*
X135001467Y-75435913D01*
X135175266Y-75528811D01*
X135175269Y-75528811D01*
X135175273Y-75528814D01*
X135363868Y-75586024D01*
X135560000Y-75605341D01*
X135756132Y-75586024D01*
X135944727Y-75528814D01*
X135952172Y-75524835D01*
X136066597Y-75463673D01*
X136118538Y-75435910D01*
X136270883Y-75310883D01*
X136395910Y-75158538D01*
X136476854Y-75007102D01*
X136488811Y-74984733D01*
X136488811Y-74984732D01*
X136488814Y-74984727D01*
X136546024Y-74796132D01*
X136565341Y-74600000D01*
X137094659Y-74600000D01*
X137113975Y-74796129D01*
X137171188Y-74984733D01*
X137264086Y-75158532D01*
X137264090Y-75158539D01*
X137389116Y-75310883D01*
X137541460Y-75435909D01*
X137541467Y-75435913D01*
X137715266Y-75528811D01*
X137715269Y-75528811D01*
X137715273Y-75528814D01*
X137903868Y-75586024D01*
X138100000Y-75605341D01*
X138296132Y-75586024D01*
X138484727Y-75528814D01*
X138492172Y-75524835D01*
X138606597Y-75463673D01*
X138658538Y-75435910D01*
X138810883Y-75310883D01*
X138935910Y-75158538D01*
X139016854Y-75007102D01*
X139028811Y-74984733D01*
X139028811Y-74984732D01*
X139028814Y-74984727D01*
X139086024Y-74796132D01*
X139105341Y-74600000D01*
X139634659Y-74600000D01*
X139653975Y-74796129D01*
X139711188Y-74984733D01*
X139804086Y-75158532D01*
X139804090Y-75158539D01*
X139929116Y-75310883D01*
X140081460Y-75435909D01*
X140081467Y-75435913D01*
X140255266Y-75528811D01*
X140255269Y-75528811D01*
X140255273Y-75528814D01*
X140443868Y-75586024D01*
X140640000Y-75605341D01*
X140836132Y-75586024D01*
X141024727Y-75528814D01*
X141032172Y-75524835D01*
X141146597Y-75463673D01*
X141198538Y-75435910D01*
X141350883Y-75310883D01*
X141475910Y-75158538D01*
X141556854Y-75007102D01*
X141568811Y-74984733D01*
X141568811Y-74984732D01*
X141568814Y-74984727D01*
X141626024Y-74796132D01*
X141645341Y-74600000D01*
X142174659Y-74600000D01*
X142193975Y-74796129D01*
X142251188Y-74984733D01*
X142344086Y-75158532D01*
X142344090Y-75158539D01*
X142469116Y-75310883D01*
X142621460Y-75435909D01*
X142621467Y-75435913D01*
X142795266Y-75528811D01*
X142795269Y-75528811D01*
X142795273Y-75528814D01*
X142983868Y-75586024D01*
X143180000Y-75605341D01*
X143376132Y-75586024D01*
X143564727Y-75528814D01*
X143572172Y-75524835D01*
X143686597Y-75463673D01*
X143738538Y-75435910D01*
X143890883Y-75310883D01*
X144015910Y-75158538D01*
X144096854Y-75007102D01*
X144108811Y-74984733D01*
X144108811Y-74984732D01*
X144108814Y-74984727D01*
X144166024Y-74796132D01*
X144185341Y-74600000D01*
X144166024Y-74403868D01*
X144149683Y-74349999D01*
X144441127Y-74349999D01*
X144441128Y-74350000D01*
X145404314Y-74350000D01*
X145392359Y-74361955D01*
X145334835Y-74474852D01*
X145315014Y-74600000D01*
X145334835Y-74725148D01*
X145392359Y-74838045D01*
X145404314Y-74850000D01*
X144441128Y-74850000D01*
X144493730Y-75046317D01*
X144493734Y-75046326D01*
X144589865Y-75252482D01*
X144720342Y-75438820D01*
X144881179Y-75599657D01*
X145067517Y-75730134D01*
X145273673Y-75826265D01*
X145273682Y-75826269D01*
X145469999Y-75878872D01*
X145470000Y-75878871D01*
X145470000Y-74915686D01*
X145481955Y-74927641D01*
X145594852Y-74985165D01*
X145688519Y-75000000D01*
X145751481Y-75000000D01*
X145845148Y-74985165D01*
X145958045Y-74927641D01*
X145970000Y-74915685D01*
X145970000Y-75878872D01*
X146166317Y-75826269D01*
X146166326Y-75826265D01*
X146372482Y-75730134D01*
X146558820Y-75599657D01*
X146719657Y-75438820D01*
X146850134Y-75252482D01*
X146946265Y-75046326D01*
X146946269Y-75046317D01*
X146998872Y-74850000D01*
X146035686Y-74850000D01*
X146047641Y-74838045D01*
X146105165Y-74725148D01*
X146124986Y-74600000D01*
X147254659Y-74600000D01*
X147273975Y-74796129D01*
X147331188Y-74984733D01*
X147424086Y-75158532D01*
X147424090Y-75158539D01*
X147549116Y-75310883D01*
X147701460Y-75435909D01*
X147701467Y-75435913D01*
X147875266Y-75528811D01*
X147875269Y-75528811D01*
X147875273Y-75528814D01*
X148063868Y-75586024D01*
X148260000Y-75605341D01*
X148456132Y-75586024D01*
X148644727Y-75528814D01*
X148652172Y-75524835D01*
X148766597Y-75463673D01*
X148818538Y-75435910D01*
X148970883Y-75310883D01*
X149095910Y-75158538D01*
X149176854Y-75007102D01*
X149188811Y-74984733D01*
X149188811Y-74984732D01*
X149188814Y-74984727D01*
X149246024Y-74796132D01*
X149265341Y-74600000D01*
X149794659Y-74600000D01*
X149813975Y-74796129D01*
X149871188Y-74984733D01*
X149964086Y-75158532D01*
X149964090Y-75158539D01*
X150089116Y-75310883D01*
X150241460Y-75435909D01*
X150241467Y-75435913D01*
X150415266Y-75528811D01*
X150415269Y-75528811D01*
X150415273Y-75528814D01*
X150603868Y-75586024D01*
X150800000Y-75605341D01*
X150996132Y-75586024D01*
X151184727Y-75528814D01*
X151192172Y-75524835D01*
X151306597Y-75463673D01*
X151358538Y-75435910D01*
X151510883Y-75310883D01*
X151635910Y-75158538D01*
X151716854Y-75007102D01*
X151728811Y-74984733D01*
X151728811Y-74984732D01*
X151728814Y-74984727D01*
X151786024Y-74796132D01*
X151805341Y-74600000D01*
X152334659Y-74600000D01*
X152353975Y-74796129D01*
X152411188Y-74984733D01*
X152504086Y-75158532D01*
X152504090Y-75158539D01*
X152629116Y-75310883D01*
X152781460Y-75435909D01*
X152781467Y-75435913D01*
X152955266Y-75528811D01*
X152955269Y-75528811D01*
X152955273Y-75528814D01*
X153143868Y-75586024D01*
X153340000Y-75605341D01*
X153536132Y-75586024D01*
X153724727Y-75528814D01*
X153732172Y-75524835D01*
X153846597Y-75463673D01*
X153898538Y-75435910D01*
X154050883Y-75310883D01*
X154175910Y-75158538D01*
X154256854Y-75007102D01*
X154268811Y-74984733D01*
X154268811Y-74984732D01*
X154268814Y-74984727D01*
X154326024Y-74796132D01*
X154345341Y-74600000D01*
X154874659Y-74600000D01*
X154893975Y-74796129D01*
X154951188Y-74984733D01*
X155044086Y-75158532D01*
X155044090Y-75158539D01*
X155169116Y-75310883D01*
X155321460Y-75435909D01*
X155321467Y-75435913D01*
X155495266Y-75528811D01*
X155495269Y-75528811D01*
X155495273Y-75528814D01*
X155683868Y-75586024D01*
X155880000Y-75605341D01*
X156076132Y-75586024D01*
X156264727Y-75528814D01*
X156272172Y-75524835D01*
X156386597Y-75463673D01*
X156438538Y-75435910D01*
X156590883Y-75310883D01*
X156715910Y-75158538D01*
X156796854Y-75007102D01*
X156808811Y-74984733D01*
X156808811Y-74984732D01*
X156808814Y-74984727D01*
X156866024Y-74796132D01*
X156885341Y-74600000D01*
X157414659Y-74600000D01*
X157433975Y-74796129D01*
X157491188Y-74984733D01*
X157584086Y-75158532D01*
X157584090Y-75158539D01*
X157709116Y-75310883D01*
X157861460Y-75435909D01*
X157861467Y-75435913D01*
X158035266Y-75528811D01*
X158035269Y-75528811D01*
X158035273Y-75528814D01*
X158223868Y-75586024D01*
X158420000Y-75605341D01*
X158616132Y-75586024D01*
X158804727Y-75528814D01*
X158812172Y-75524835D01*
X158926597Y-75463673D01*
X158978538Y-75435910D01*
X159130883Y-75310883D01*
X159255910Y-75158538D01*
X159336854Y-75007102D01*
X159348811Y-74984733D01*
X159348811Y-74984732D01*
X159348814Y-74984727D01*
X159406024Y-74796132D01*
X159425341Y-74600000D01*
X159954659Y-74600000D01*
X159973975Y-74796129D01*
X160031188Y-74984733D01*
X160124086Y-75158532D01*
X160124090Y-75158539D01*
X160249116Y-75310883D01*
X160401460Y-75435909D01*
X160401467Y-75435913D01*
X160575266Y-75528811D01*
X160575269Y-75528811D01*
X160575273Y-75528814D01*
X160763868Y-75586024D01*
X160960000Y-75605341D01*
X161156132Y-75586024D01*
X161344727Y-75528814D01*
X161352172Y-75524835D01*
X161466597Y-75463673D01*
X161518538Y-75435910D01*
X161670883Y-75310883D01*
X161795910Y-75158538D01*
X161876854Y-75007102D01*
X161888811Y-74984733D01*
X161888811Y-74984732D01*
X161888814Y-74984727D01*
X161946024Y-74796132D01*
X161965341Y-74600000D01*
X161946024Y-74403868D01*
X161888814Y-74215273D01*
X161888811Y-74215269D01*
X161888811Y-74215266D01*
X161795913Y-74041467D01*
X161795909Y-74041460D01*
X161670883Y-73889116D01*
X161518539Y-73764090D01*
X161518532Y-73764086D01*
X161344733Y-73671188D01*
X161344727Y-73671186D01*
X161156132Y-73613976D01*
X161156129Y-73613975D01*
X160960000Y-73594659D01*
X160763870Y-73613975D01*
X160575266Y-73671188D01*
X160401467Y-73764086D01*
X160401460Y-73764090D01*
X160249116Y-73889116D01*
X160124090Y-74041460D01*
X160124086Y-74041467D01*
X160031188Y-74215266D01*
X159973975Y-74403870D01*
X159954659Y-74600000D01*
X159425341Y-74600000D01*
X159406024Y-74403868D01*
X159369504Y-74283478D01*
X159368880Y-74213611D01*
X159377681Y-74191184D01*
X159381295Y-74184091D01*
X159381294Y-74184091D01*
X159381296Y-74184090D01*
X159420500Y-74063433D01*
X159420500Y-73936567D01*
X159381296Y-73815911D01*
X159306726Y-73713274D01*
X159204089Y-73638704D01*
X159204087Y-73638703D01*
X159083434Y-73599500D01*
X159083433Y-73599500D01*
X158956567Y-73599500D01*
X158956565Y-73599500D01*
X158880085Y-73624350D01*
X158835910Y-73638704D01*
X158835909Y-73638704D01*
X158835905Y-73638706D01*
X158828808Y-73642322D01*
X158760138Y-73655215D01*
X158736523Y-73650496D01*
X158616130Y-73613975D01*
X158420000Y-73594659D01*
X158223870Y-73613975D01*
X158035266Y-73671188D01*
X157861467Y-73764086D01*
X157861460Y-73764090D01*
X157709116Y-73889116D01*
X157584090Y-74041460D01*
X157584086Y-74041467D01*
X157491188Y-74215266D01*
X157433975Y-74403870D01*
X157414659Y-74600000D01*
X156885341Y-74600000D01*
X156866024Y-74403868D01*
X156808814Y-74215273D01*
X156808811Y-74215269D01*
X156808811Y-74215266D01*
X156715913Y-74041467D01*
X156715909Y-74041460D01*
X156590883Y-73889116D01*
X156438539Y-73764090D01*
X156438532Y-73764086D01*
X156264733Y-73671188D01*
X156264727Y-73671186D01*
X156076132Y-73613976D01*
X156076129Y-73613975D01*
X155880000Y-73594659D01*
X155683870Y-73613975D01*
X155495266Y-73671188D01*
X155321467Y-73764086D01*
X155321460Y-73764090D01*
X155169116Y-73889116D01*
X155044090Y-74041460D01*
X155044086Y-74041467D01*
X154951188Y-74215266D01*
X154893975Y-74403870D01*
X154874659Y-74600000D01*
X154345341Y-74600000D01*
X154326024Y-74403868D01*
X154268814Y-74215273D01*
X154268811Y-74215269D01*
X154268811Y-74215266D01*
X154175913Y-74041467D01*
X154175909Y-74041460D01*
X154050883Y-73889116D01*
X153898539Y-73764090D01*
X153898532Y-73764086D01*
X153724733Y-73671188D01*
X153724727Y-73671186D01*
X153536132Y-73613976D01*
X153536129Y-73613975D01*
X153340000Y-73594659D01*
X153143870Y-73613975D01*
X152955266Y-73671188D01*
X152781467Y-73764086D01*
X152781460Y-73764090D01*
X152629116Y-73889116D01*
X152504090Y-74041460D01*
X152504086Y-74041467D01*
X152411188Y-74215266D01*
X152353975Y-74403870D01*
X152334659Y-74600000D01*
X151805341Y-74600000D01*
X151786024Y-74403868D01*
X151728814Y-74215273D01*
X151728811Y-74215269D01*
X151728811Y-74215266D01*
X151635913Y-74041467D01*
X151635909Y-74041460D01*
X151510883Y-73889116D01*
X151358539Y-73764090D01*
X151358532Y-73764086D01*
X151184733Y-73671188D01*
X151184727Y-73671186D01*
X150996132Y-73613976D01*
X150996129Y-73613975D01*
X150800000Y-73594659D01*
X150603870Y-73613975D01*
X150415266Y-73671188D01*
X150241467Y-73764086D01*
X150241460Y-73764090D01*
X150089116Y-73889116D01*
X149964090Y-74041460D01*
X149964086Y-74041467D01*
X149871188Y-74215266D01*
X149813975Y-74403870D01*
X149794659Y-74600000D01*
X149265341Y-74600000D01*
X149246024Y-74403868D01*
X149188814Y-74215273D01*
X149188811Y-74215269D01*
X149188811Y-74215266D01*
X149095913Y-74041467D01*
X149095909Y-74041460D01*
X148970883Y-73889116D01*
X148818539Y-73764090D01*
X148818532Y-73764086D01*
X148644733Y-73671188D01*
X148644727Y-73671186D01*
X148456132Y-73613976D01*
X148456129Y-73613975D01*
X148260000Y-73594659D01*
X148063870Y-73613975D01*
X147875266Y-73671188D01*
X147701467Y-73764086D01*
X147701460Y-73764090D01*
X147549116Y-73889116D01*
X147424090Y-74041460D01*
X147424086Y-74041467D01*
X147331188Y-74215266D01*
X147273975Y-74403870D01*
X147254659Y-74600000D01*
X146124986Y-74600000D01*
X146105165Y-74474852D01*
X146047641Y-74361955D01*
X146035686Y-74350000D01*
X146998872Y-74350000D01*
X146998872Y-74349999D01*
X146946269Y-74153682D01*
X146946265Y-74153673D01*
X146850134Y-73947517D01*
X146719657Y-73761179D01*
X146558820Y-73600342D01*
X146372482Y-73469865D01*
X146166328Y-73373734D01*
X145970000Y-73321127D01*
X145970000Y-74284314D01*
X145958045Y-74272359D01*
X145845148Y-74214835D01*
X145751481Y-74200000D01*
X145688519Y-74200000D01*
X145594852Y-74214835D01*
X145481955Y-74272359D01*
X145470000Y-74284314D01*
X145470000Y-73321127D01*
X145273671Y-73373734D01*
X145067517Y-73469865D01*
X144881179Y-73600342D01*
X144720342Y-73761179D01*
X144589865Y-73947517D01*
X144493734Y-74153673D01*
X144493730Y-74153682D01*
X144441127Y-74349999D01*
X144149683Y-74349999D01*
X144108814Y-74215273D01*
X144108811Y-74215269D01*
X144108811Y-74215266D01*
X144015913Y-74041467D01*
X144015909Y-74041460D01*
X143890883Y-73889116D01*
X143738539Y-73764090D01*
X143738532Y-73764086D01*
X143564733Y-73671188D01*
X143564727Y-73671186D01*
X143376132Y-73613976D01*
X143376129Y-73613975D01*
X143180000Y-73594659D01*
X142983870Y-73613975D01*
X142795266Y-73671188D01*
X142621467Y-73764086D01*
X142621460Y-73764090D01*
X142469116Y-73889116D01*
X142344090Y-74041460D01*
X142344086Y-74041467D01*
X142251188Y-74215266D01*
X142193975Y-74403870D01*
X142174659Y-74600000D01*
X141645341Y-74600000D01*
X141626024Y-74403868D01*
X141568814Y-74215273D01*
X141568811Y-74215269D01*
X141568811Y-74215266D01*
X141475913Y-74041467D01*
X141475909Y-74041460D01*
X141350883Y-73889116D01*
X141198539Y-73764090D01*
X141198532Y-73764086D01*
X141024733Y-73671188D01*
X141024727Y-73671186D01*
X140836132Y-73613976D01*
X140836129Y-73613975D01*
X140640000Y-73594659D01*
X140443870Y-73613975D01*
X140255266Y-73671188D01*
X140081467Y-73764086D01*
X140081460Y-73764090D01*
X139929116Y-73889116D01*
X139804090Y-74041460D01*
X139804086Y-74041467D01*
X139711188Y-74215266D01*
X139653975Y-74403870D01*
X139634659Y-74600000D01*
X139105341Y-74600000D01*
X139086024Y-74403868D01*
X139028814Y-74215273D01*
X139028811Y-74215269D01*
X139028811Y-74215266D01*
X138935913Y-74041467D01*
X138935909Y-74041460D01*
X138810883Y-73889116D01*
X138658539Y-73764090D01*
X138658532Y-73764086D01*
X138484733Y-73671188D01*
X138484727Y-73671186D01*
X138296132Y-73613976D01*
X138296129Y-73613975D01*
X138100000Y-73594659D01*
X137903870Y-73613975D01*
X137715266Y-73671188D01*
X137541467Y-73764086D01*
X137541460Y-73764090D01*
X137389116Y-73889116D01*
X137264090Y-74041460D01*
X137264086Y-74041467D01*
X137171188Y-74215266D01*
X137113975Y-74403870D01*
X137094659Y-74600000D01*
X136565341Y-74600000D01*
X136546024Y-74403868D01*
X136488814Y-74215273D01*
X136488811Y-74215269D01*
X136488811Y-74215266D01*
X136395913Y-74041467D01*
X136395909Y-74041460D01*
X136270883Y-73889116D01*
X136118539Y-73764090D01*
X136118532Y-73764086D01*
X135944733Y-73671188D01*
X135944727Y-73671186D01*
X135756132Y-73613976D01*
X135756129Y-73613975D01*
X135560000Y-73594659D01*
X135363870Y-73613975D01*
X135175266Y-73671188D01*
X135001467Y-73764086D01*
X135001460Y-73764090D01*
X134849116Y-73889116D01*
X134724090Y-74041460D01*
X134724086Y-74041467D01*
X134631188Y-74215266D01*
X134573975Y-74403870D01*
X134554659Y-74600000D01*
X134025341Y-74600000D01*
X134006024Y-74403868D01*
X133948814Y-74215273D01*
X133948811Y-74215269D01*
X133948811Y-74215266D01*
X133855913Y-74041467D01*
X133855909Y-74041460D01*
X133730883Y-73889116D01*
X133578539Y-73764090D01*
X133578532Y-73764086D01*
X133404733Y-73671188D01*
X133404727Y-73671186D01*
X133216132Y-73613976D01*
X133216129Y-73613975D01*
X133020000Y-73594659D01*
X132823870Y-73613975D01*
X132635266Y-73671188D01*
X132461467Y-73764086D01*
X132461460Y-73764090D01*
X132309116Y-73889116D01*
X132184090Y-74041460D01*
X132184086Y-74041467D01*
X132091188Y-74215266D01*
X132033975Y-74403870D01*
X132014659Y-74600000D01*
X131485341Y-74600000D01*
X131466024Y-74403868D01*
X131408814Y-74215273D01*
X131408811Y-74215269D01*
X131408811Y-74215266D01*
X131315913Y-74041467D01*
X131315909Y-74041460D01*
X131190883Y-73889116D01*
X131038539Y-73764090D01*
X131038532Y-73764086D01*
X130864733Y-73671188D01*
X130864727Y-73671186D01*
X130676132Y-73613976D01*
X130676129Y-73613975D01*
X130480000Y-73594659D01*
X130283870Y-73613975D01*
X130095266Y-73671188D01*
X129921467Y-73764086D01*
X129921460Y-73764090D01*
X129769116Y-73889116D01*
X129644090Y-74041460D01*
X129644086Y-74041467D01*
X129551188Y-74215266D01*
X129493975Y-74403870D01*
X129474659Y-74600000D01*
X127130324Y-74600000D01*
X132464324Y-69266000D01*
X140142659Y-69266000D01*
X140161975Y-69462129D01*
X140219188Y-69650733D01*
X140312086Y-69824532D01*
X140312090Y-69824539D01*
X140437116Y-69976883D01*
X140589460Y-70101909D01*
X140589467Y-70101913D01*
X140763266Y-70194811D01*
X140763269Y-70194811D01*
X140763273Y-70194814D01*
X140951868Y-70252024D01*
X141148000Y-70271341D01*
X141344132Y-70252024D01*
X141532727Y-70194814D01*
X141706538Y-70101910D01*
X141858883Y-69976883D01*
X141983910Y-69824538D01*
X142058416Y-69685148D01*
X142076811Y-69650733D01*
X142076811Y-69650732D01*
X142076814Y-69650727D01*
X142134024Y-69462132D01*
X142153341Y-69266000D01*
X142134024Y-69069868D01*
X142117683Y-69015999D01*
X147489127Y-69015999D01*
X147489128Y-69016000D01*
X148452314Y-69016000D01*
X148440359Y-69027955D01*
X148382835Y-69140852D01*
X148363014Y-69266000D01*
X148382835Y-69391148D01*
X148440359Y-69504045D01*
X148452314Y-69516000D01*
X147489128Y-69516000D01*
X147541730Y-69712317D01*
X147541734Y-69712326D01*
X147637865Y-69918482D01*
X147768342Y-70104820D01*
X147929179Y-70265657D01*
X148115517Y-70396134D01*
X148321673Y-70492265D01*
X148321682Y-70492269D01*
X148517999Y-70544872D01*
X148518000Y-70544871D01*
X148518000Y-69581685D01*
X148529955Y-69593641D01*
X148642852Y-69651165D01*
X148736519Y-69666000D01*
X148799481Y-69666000D01*
X148893148Y-69651165D01*
X149006045Y-69593641D01*
X149018000Y-69581685D01*
X149018000Y-70544872D01*
X149214317Y-70492269D01*
X149214326Y-70492265D01*
X149420482Y-70396134D01*
X149606820Y-70265657D01*
X149767657Y-70104820D01*
X149898134Y-69918482D01*
X149994265Y-69712326D01*
X149994269Y-69712317D01*
X150046872Y-69516000D01*
X149083686Y-69516000D01*
X149095641Y-69504045D01*
X149153165Y-69391148D01*
X149172986Y-69266000D01*
X149153165Y-69140852D01*
X149095641Y-69027955D01*
X149083686Y-69016000D01*
X150046872Y-69016000D01*
X150046872Y-69015999D01*
X149994269Y-68819682D01*
X149994265Y-68819673D01*
X149898134Y-68613517D01*
X149767657Y-68427179D01*
X149606820Y-68266342D01*
X149420481Y-68135865D01*
X149420479Y-68135864D01*
X149361543Y-68108382D01*
X149309103Y-68062210D01*
X149289951Y-67995017D01*
X149310166Y-67928136D01*
X149361543Y-67883618D01*
X149420479Y-67856135D01*
X149420481Y-67856134D01*
X149606820Y-67725657D01*
X149767657Y-67564820D01*
X149898134Y-67378482D01*
X149994265Y-67172326D01*
X149994269Y-67172317D01*
X150046872Y-66976000D01*
X149083686Y-66976000D01*
X149095641Y-66964045D01*
X149153165Y-66851148D01*
X149172986Y-66726000D01*
X149153165Y-66600852D01*
X149095641Y-66487955D01*
X149083686Y-66476000D01*
X150046872Y-66476000D01*
X150046872Y-66475999D01*
X149994269Y-66279682D01*
X149994265Y-66279673D01*
X149898134Y-66073517D01*
X149767657Y-65887179D01*
X149606820Y-65726342D01*
X149420482Y-65595865D01*
X149214328Y-65499734D01*
X149018000Y-65447127D01*
X149018000Y-66410313D01*
X149006045Y-66398359D01*
X148893148Y-66340835D01*
X148799481Y-66326000D01*
X148736519Y-66326000D01*
X148642852Y-66340835D01*
X148529955Y-66398359D01*
X148518000Y-66410314D01*
X148518000Y-65447127D01*
X148321671Y-65499734D01*
X148115517Y-65595865D01*
X147929179Y-65726342D01*
X147768342Y-65887179D01*
X147637865Y-66073517D01*
X147541734Y-66279673D01*
X147541730Y-66279682D01*
X147489127Y-66475999D01*
X147489128Y-66476000D01*
X148452314Y-66476000D01*
X148440359Y-66487955D01*
X148382835Y-66600852D01*
X148363014Y-66726000D01*
X148382835Y-66851148D01*
X148440359Y-66964045D01*
X148452314Y-66976000D01*
X147489128Y-66976000D01*
X147541730Y-67172317D01*
X147541734Y-67172326D01*
X147637865Y-67378482D01*
X147768342Y-67564820D01*
X147929179Y-67725657D01*
X148115517Y-67856134D01*
X148174457Y-67883618D01*
X148226896Y-67929790D01*
X148246048Y-67996984D01*
X148225832Y-68063865D01*
X148174457Y-68108382D01*
X148115517Y-68135865D01*
X147929179Y-68266342D01*
X147768342Y-68427179D01*
X147637865Y-68613517D01*
X147541734Y-68819673D01*
X147541730Y-68819682D01*
X147489127Y-69015999D01*
X142117683Y-69015999D01*
X142076814Y-68881273D01*
X142076811Y-68881269D01*
X142076811Y-68881266D01*
X141983913Y-68707467D01*
X141983909Y-68707460D01*
X141858883Y-68555116D01*
X141706539Y-68430090D01*
X141706532Y-68430086D01*
X141532733Y-68337188D01*
X141532727Y-68337186D01*
X141344132Y-68279976D01*
X141344129Y-68279975D01*
X141148000Y-68260659D01*
X140951870Y-68279975D01*
X140763266Y-68337188D01*
X140589467Y-68430086D01*
X140589460Y-68430090D01*
X140437116Y-68555116D01*
X140312090Y-68707460D01*
X140312086Y-68707467D01*
X140219188Y-68881266D01*
X140161975Y-69069870D01*
X140142659Y-69266000D01*
X132464324Y-69266000D01*
X134184572Y-67545752D01*
X140147500Y-67545752D01*
X140159131Y-67604229D01*
X140159132Y-67604230D01*
X140203447Y-67670552D01*
X140269769Y-67714867D01*
X140269770Y-67714868D01*
X140328247Y-67726499D01*
X140328250Y-67726500D01*
X140328252Y-67726500D01*
X141967750Y-67726500D01*
X141967751Y-67726499D01*
X141982568Y-67723552D01*
X142026229Y-67714868D01*
X142026229Y-67714867D01*
X142026231Y-67714867D01*
X142092552Y-67670552D01*
X142136867Y-67604231D01*
X142136867Y-67604229D01*
X142136868Y-67604229D01*
X142148499Y-67545752D01*
X142148500Y-67545750D01*
X142148500Y-65906249D01*
X142148499Y-65906247D01*
X142136868Y-65847770D01*
X142136867Y-65847769D01*
X142092552Y-65781447D01*
X142026230Y-65737132D01*
X142026229Y-65737131D01*
X141967752Y-65725500D01*
X141967748Y-65725500D01*
X140328252Y-65725500D01*
X140328247Y-65725500D01*
X140269770Y-65737131D01*
X140269769Y-65737132D01*
X140203447Y-65781447D01*
X140159132Y-65847769D01*
X140159131Y-65847770D01*
X140147500Y-65906247D01*
X140147500Y-67545752D01*
X134184572Y-67545752D01*
X137486572Y-64243752D01*
X140401500Y-64243752D01*
X140413131Y-64302229D01*
X140413132Y-64302230D01*
X140457447Y-64368552D01*
X140523769Y-64412867D01*
X140523770Y-64412868D01*
X140582247Y-64424499D01*
X140582250Y-64424500D01*
X140582252Y-64424500D01*
X142221750Y-64424500D01*
X142221751Y-64424499D01*
X142236568Y-64421552D01*
X142280229Y-64412868D01*
X142280229Y-64412867D01*
X142280231Y-64412867D01*
X142346552Y-64368552D01*
X142390867Y-64302231D01*
X142390867Y-64302229D01*
X142390868Y-64302229D01*
X142402499Y-64243752D01*
X142402500Y-64243750D01*
X142402500Y-63424000D01*
X142936659Y-63424000D01*
X142955975Y-63620129D01*
X142955976Y-63620132D01*
X143010690Y-63800500D01*
X143013188Y-63808733D01*
X143106086Y-63982532D01*
X143106090Y-63982539D01*
X143231116Y-64134883D01*
X143383460Y-64259909D01*
X143383467Y-64259913D01*
X143557266Y-64352811D01*
X143557269Y-64352811D01*
X143557273Y-64352814D01*
X143745868Y-64410024D01*
X143942000Y-64429341D01*
X144138132Y-64410024D01*
X144326727Y-64352814D01*
X144500538Y-64259910D01*
X144652883Y-64134883D01*
X144777910Y-63982538D01*
X144870814Y-63808727D01*
X144928024Y-63620132D01*
X144947341Y-63424000D01*
X145476659Y-63424000D01*
X145495975Y-63620129D01*
X145495976Y-63620132D01*
X145550690Y-63800500D01*
X145553188Y-63808733D01*
X145646086Y-63982532D01*
X145646090Y-63982539D01*
X145771116Y-64134883D01*
X145923460Y-64259909D01*
X145923467Y-64259913D01*
X146097266Y-64352811D01*
X146097269Y-64352811D01*
X146097273Y-64352814D01*
X146285868Y-64410024D01*
X146482000Y-64429341D01*
X146678132Y-64410024D01*
X146866727Y-64352814D01*
X147040538Y-64259910D01*
X147192883Y-64134883D01*
X147317910Y-63982538D01*
X147410814Y-63808727D01*
X147468024Y-63620132D01*
X147487341Y-63424000D01*
X148016659Y-63424000D01*
X148035975Y-63620129D01*
X148035976Y-63620132D01*
X148090690Y-63800500D01*
X148093188Y-63808733D01*
X148186086Y-63982532D01*
X148186090Y-63982539D01*
X148311116Y-64134883D01*
X148463460Y-64259909D01*
X148463467Y-64259913D01*
X148637266Y-64352811D01*
X148637269Y-64352811D01*
X148637273Y-64352814D01*
X148825868Y-64410024D01*
X149022000Y-64429341D01*
X149218132Y-64410024D01*
X149406727Y-64352814D01*
X149580538Y-64259910D01*
X149732883Y-64134883D01*
X149857910Y-63982538D01*
X149950814Y-63808727D01*
X150008024Y-63620132D01*
X150027341Y-63424000D01*
X150556659Y-63424000D01*
X150575975Y-63620129D01*
X150575976Y-63620132D01*
X150630690Y-63800500D01*
X150633188Y-63808733D01*
X150726086Y-63982532D01*
X150726090Y-63982539D01*
X150851116Y-64134883D01*
X151003460Y-64259909D01*
X151003467Y-64259913D01*
X151177266Y-64352811D01*
X151177269Y-64352811D01*
X151177273Y-64352814D01*
X151365868Y-64410024D01*
X151562000Y-64429341D01*
X151758132Y-64410024D01*
X151946727Y-64352814D01*
X152120538Y-64259910D01*
X152272883Y-64134883D01*
X152397910Y-63982538D01*
X152490814Y-63808727D01*
X152548024Y-63620132D01*
X152567341Y-63424000D01*
X153096659Y-63424000D01*
X153115975Y-63620129D01*
X153115976Y-63620132D01*
X153170690Y-63800500D01*
X153173188Y-63808733D01*
X153266086Y-63982532D01*
X153266090Y-63982539D01*
X153391116Y-64134883D01*
X153543460Y-64259909D01*
X153543467Y-64259913D01*
X153717266Y-64352811D01*
X153717269Y-64352811D01*
X153717273Y-64352814D01*
X153905868Y-64410024D01*
X154102000Y-64429341D01*
X154298132Y-64410024D01*
X154486727Y-64352814D01*
X154660538Y-64259910D01*
X154812883Y-64134883D01*
X154937910Y-63982538D01*
X155030814Y-63808727D01*
X155088024Y-63620132D01*
X155107341Y-63424000D01*
X155636659Y-63424000D01*
X155655975Y-63620129D01*
X155655976Y-63620132D01*
X155710690Y-63800500D01*
X155713188Y-63808733D01*
X155806086Y-63982532D01*
X155806090Y-63982539D01*
X155931116Y-64134883D01*
X156083460Y-64259909D01*
X156083467Y-64259913D01*
X156257266Y-64352811D01*
X156257269Y-64352811D01*
X156257273Y-64352814D01*
X156445868Y-64410024D01*
X156642000Y-64429341D01*
X156838132Y-64410024D01*
X157026727Y-64352814D01*
X157200538Y-64259910D01*
X157352883Y-64134883D01*
X157477910Y-63982538D01*
X157570814Y-63808727D01*
X157628024Y-63620132D01*
X157647341Y-63424000D01*
X158176659Y-63424000D01*
X158195975Y-63620129D01*
X158195976Y-63620132D01*
X158250690Y-63800500D01*
X158253188Y-63808733D01*
X158346086Y-63982532D01*
X158346090Y-63982539D01*
X158471116Y-64134883D01*
X158623460Y-64259909D01*
X158623467Y-64259913D01*
X158797266Y-64352811D01*
X158797269Y-64352811D01*
X158797273Y-64352814D01*
X158985868Y-64410024D01*
X159182000Y-64429341D01*
X159378132Y-64410024D01*
X159566727Y-64352814D01*
X159740538Y-64259910D01*
X159892883Y-64134883D01*
X160017910Y-63982538D01*
X160110814Y-63808727D01*
X160168024Y-63620132D01*
X160187341Y-63424000D01*
X160716659Y-63424000D01*
X160735975Y-63620129D01*
X160735976Y-63620132D01*
X160790690Y-63800500D01*
X160793188Y-63808733D01*
X160886086Y-63982532D01*
X160886090Y-63982539D01*
X161011116Y-64134883D01*
X161163460Y-64259909D01*
X161163467Y-64259913D01*
X161337266Y-64352811D01*
X161337269Y-64352811D01*
X161337273Y-64352814D01*
X161525868Y-64410024D01*
X161722000Y-64429341D01*
X161918132Y-64410024D01*
X162106727Y-64352814D01*
X162280538Y-64259910D01*
X162432883Y-64134883D01*
X162557910Y-63982538D01*
X162650814Y-63808727D01*
X162708024Y-63620132D01*
X162727341Y-63424000D01*
X162708024Y-63227868D01*
X162650814Y-63039273D01*
X162650811Y-63039269D01*
X162650811Y-63039266D01*
X162557913Y-62865467D01*
X162557909Y-62865460D01*
X162432883Y-62713116D01*
X162280539Y-62588090D01*
X162280532Y-62588086D01*
X162106733Y-62495188D01*
X162106727Y-62495186D01*
X161918132Y-62437976D01*
X161918129Y-62437975D01*
X161722000Y-62418659D01*
X161525870Y-62437975D01*
X161337266Y-62495188D01*
X161163467Y-62588086D01*
X161163460Y-62588090D01*
X161011116Y-62713116D01*
X160886090Y-62865460D01*
X160886086Y-62865467D01*
X160793188Y-63039266D01*
X160735975Y-63227870D01*
X160716659Y-63424000D01*
X160187341Y-63424000D01*
X160168024Y-63227868D01*
X160110814Y-63039273D01*
X160110811Y-63039269D01*
X160110811Y-63039266D01*
X160017913Y-62865467D01*
X160017909Y-62865460D01*
X159892883Y-62713116D01*
X159740539Y-62588090D01*
X159740532Y-62588086D01*
X159566733Y-62495188D01*
X159566727Y-62495186D01*
X159378132Y-62437976D01*
X159378129Y-62437975D01*
X159182000Y-62418659D01*
X158985870Y-62437975D01*
X158797266Y-62495188D01*
X158623467Y-62588086D01*
X158623460Y-62588090D01*
X158471116Y-62713116D01*
X158346090Y-62865460D01*
X158346086Y-62865467D01*
X158253188Y-63039266D01*
X158195975Y-63227870D01*
X158176659Y-63424000D01*
X157647341Y-63424000D01*
X157628024Y-63227868D01*
X157570814Y-63039273D01*
X157570811Y-63039269D01*
X157570811Y-63039266D01*
X157477913Y-62865467D01*
X157477909Y-62865460D01*
X157352883Y-62713116D01*
X157200539Y-62588090D01*
X157200532Y-62588086D01*
X157026733Y-62495188D01*
X157026727Y-62495186D01*
X156838132Y-62437976D01*
X156838129Y-62437975D01*
X156642000Y-62418659D01*
X156445870Y-62437975D01*
X156257266Y-62495188D01*
X156083467Y-62588086D01*
X156083460Y-62588090D01*
X155931116Y-62713116D01*
X155806090Y-62865460D01*
X155806086Y-62865467D01*
X155713188Y-63039266D01*
X155655975Y-63227870D01*
X155636659Y-63424000D01*
X155107341Y-63424000D01*
X155088024Y-63227868D01*
X155030814Y-63039273D01*
X155030811Y-63039269D01*
X155030811Y-63039266D01*
X154937913Y-62865467D01*
X154937909Y-62865460D01*
X154812883Y-62713116D01*
X154660539Y-62588090D01*
X154660532Y-62588086D01*
X154486733Y-62495188D01*
X154486727Y-62495186D01*
X154298132Y-62437976D01*
X154298129Y-62437975D01*
X154102000Y-62418659D01*
X153905870Y-62437975D01*
X153717266Y-62495188D01*
X153543467Y-62588086D01*
X153543460Y-62588090D01*
X153391116Y-62713116D01*
X153266090Y-62865460D01*
X153266086Y-62865467D01*
X153173188Y-63039266D01*
X153115975Y-63227870D01*
X153096659Y-63424000D01*
X152567341Y-63424000D01*
X152548024Y-63227868D01*
X152490814Y-63039273D01*
X152490811Y-63039269D01*
X152490811Y-63039266D01*
X152397913Y-62865467D01*
X152397909Y-62865460D01*
X152272883Y-62713116D01*
X152120539Y-62588090D01*
X152120532Y-62588086D01*
X151946733Y-62495188D01*
X151946727Y-62495186D01*
X151758132Y-62437976D01*
X151758129Y-62437975D01*
X151562000Y-62418659D01*
X151365870Y-62437975D01*
X151177266Y-62495188D01*
X151003467Y-62588086D01*
X151003460Y-62588090D01*
X150851116Y-62713116D01*
X150726090Y-62865460D01*
X150726086Y-62865467D01*
X150633188Y-63039266D01*
X150575975Y-63227870D01*
X150556659Y-63424000D01*
X150027341Y-63424000D01*
X150008024Y-63227868D01*
X149950814Y-63039273D01*
X149950811Y-63039269D01*
X149950811Y-63039266D01*
X149857913Y-62865467D01*
X149857909Y-62865460D01*
X149732883Y-62713116D01*
X149580539Y-62588090D01*
X149580532Y-62588086D01*
X149406733Y-62495188D01*
X149406727Y-62495186D01*
X149218132Y-62437976D01*
X149218129Y-62437975D01*
X149022000Y-62418659D01*
X148825870Y-62437975D01*
X148637266Y-62495188D01*
X148463467Y-62588086D01*
X148463460Y-62588090D01*
X148311116Y-62713116D01*
X148186090Y-62865460D01*
X148186086Y-62865467D01*
X148093188Y-63039266D01*
X148035975Y-63227870D01*
X148016659Y-63424000D01*
X147487341Y-63424000D01*
X147468024Y-63227868D01*
X147410814Y-63039273D01*
X147410811Y-63039269D01*
X147410811Y-63039266D01*
X147317913Y-62865467D01*
X147317909Y-62865460D01*
X147192883Y-62713116D01*
X147040539Y-62588090D01*
X147040532Y-62588086D01*
X146866733Y-62495188D01*
X146866727Y-62495186D01*
X146678132Y-62437976D01*
X146678129Y-62437975D01*
X146482000Y-62418659D01*
X146285870Y-62437975D01*
X146097266Y-62495188D01*
X145923467Y-62588086D01*
X145923460Y-62588090D01*
X145771116Y-62713116D01*
X145646090Y-62865460D01*
X145646086Y-62865467D01*
X145553188Y-63039266D01*
X145495975Y-63227870D01*
X145476659Y-63424000D01*
X144947341Y-63424000D01*
X144928024Y-63227868D01*
X144870814Y-63039273D01*
X144870811Y-63039269D01*
X144870811Y-63039266D01*
X144777913Y-62865467D01*
X144777909Y-62865460D01*
X144652883Y-62713116D01*
X144500539Y-62588090D01*
X144500532Y-62588086D01*
X144326733Y-62495188D01*
X144326727Y-62495186D01*
X144138132Y-62437976D01*
X144138129Y-62437975D01*
X143942000Y-62418659D01*
X143745870Y-62437975D01*
X143557266Y-62495188D01*
X143383467Y-62588086D01*
X143383460Y-62588090D01*
X143231116Y-62713116D01*
X143106090Y-62865460D01*
X143106086Y-62865467D01*
X143013188Y-63039266D01*
X142955975Y-63227870D01*
X142936659Y-63424000D01*
X142402500Y-63424000D01*
X142402500Y-62604249D01*
X142402499Y-62604247D01*
X142390868Y-62545770D01*
X142390867Y-62545769D01*
X142346552Y-62479447D01*
X142280230Y-62435132D01*
X142280229Y-62435131D01*
X142221752Y-62423500D01*
X142221748Y-62423500D01*
X140582252Y-62423500D01*
X140582247Y-62423500D01*
X140523770Y-62435131D01*
X140523769Y-62435132D01*
X140457447Y-62479447D01*
X140413132Y-62545769D01*
X140413131Y-62545770D01*
X140401500Y-62604247D01*
X140401500Y-64243752D01*
X137486572Y-64243752D01*
X139334204Y-62396120D01*
X139338166Y-62392489D01*
X139369194Y-62366455D01*
X139389438Y-62331390D01*
X139392335Y-62326841D01*
X139415554Y-62293684D01*
X139415554Y-62293681D01*
X139417819Y-62288824D01*
X139424747Y-62272099D01*
X139426584Y-62267050D01*
X139426588Y-62267045D01*
X139433619Y-62227162D01*
X139434777Y-62221940D01*
X139445264Y-62182807D01*
X139441735Y-62142481D01*
X139441500Y-62137078D01*
X139441500Y-59268752D01*
X142841500Y-59268752D01*
X142853131Y-59327229D01*
X142853132Y-59327230D01*
X142897447Y-59393552D01*
X142963769Y-59437867D01*
X142963770Y-59437868D01*
X143022247Y-59449499D01*
X143022250Y-59449500D01*
X143022252Y-59449500D01*
X144861750Y-59449500D01*
X144861751Y-59449499D01*
X144886890Y-59444499D01*
X144920229Y-59437868D01*
X144920229Y-59437867D01*
X144920231Y-59437867D01*
X144986552Y-59393552D01*
X145030867Y-59327231D01*
X145030867Y-59327229D01*
X145030868Y-59327229D01*
X145042499Y-59268752D01*
X145042500Y-59268750D01*
X145042500Y-59263752D01*
X145889500Y-59263752D01*
X145901131Y-59322229D01*
X145901132Y-59322230D01*
X145945447Y-59388552D01*
X146011769Y-59432867D01*
X146011770Y-59432868D01*
X146070247Y-59444499D01*
X146070250Y-59444500D01*
X146070252Y-59444500D01*
X147909750Y-59444500D01*
X147909751Y-59444499D01*
X147924568Y-59441552D01*
X147968229Y-59432868D01*
X147968229Y-59432867D01*
X147968231Y-59432867D01*
X148034552Y-59388552D01*
X148078867Y-59322231D01*
X148078867Y-59322229D01*
X148078868Y-59322229D01*
X148089505Y-59268752D01*
X148683500Y-59268752D01*
X148695131Y-59327229D01*
X148695132Y-59327230D01*
X148739447Y-59393552D01*
X148805769Y-59437867D01*
X148805770Y-59437868D01*
X148864247Y-59449499D01*
X148864250Y-59449500D01*
X148864252Y-59449500D01*
X150703750Y-59449500D01*
X150703751Y-59449499D01*
X150728890Y-59444499D01*
X150762229Y-59437868D01*
X150762229Y-59437867D01*
X150762231Y-59437867D01*
X150828552Y-59393552D01*
X150872867Y-59327231D01*
X150872867Y-59327229D01*
X150872868Y-59327229D01*
X150884499Y-59268752D01*
X150884500Y-59268750D01*
X150884500Y-59263752D01*
X151477500Y-59263752D01*
X151489131Y-59322229D01*
X151489132Y-59322230D01*
X151533447Y-59388552D01*
X151599769Y-59432867D01*
X151599770Y-59432868D01*
X151658247Y-59444499D01*
X151658250Y-59444500D01*
X151658252Y-59444500D01*
X153497750Y-59444500D01*
X153497751Y-59444499D01*
X153512568Y-59441552D01*
X153556229Y-59432868D01*
X153556229Y-59432867D01*
X153556231Y-59432867D01*
X153622552Y-59388552D01*
X153666867Y-59322231D01*
X153666867Y-59322229D01*
X153666868Y-59322229D01*
X153678499Y-59263752D01*
X154271500Y-59263752D01*
X154283131Y-59322229D01*
X154283132Y-59322230D01*
X154327447Y-59388552D01*
X154393769Y-59432867D01*
X154393770Y-59432868D01*
X154452247Y-59444499D01*
X154452250Y-59444500D01*
X154452252Y-59444500D01*
X156291750Y-59444500D01*
X156291751Y-59444499D01*
X156306568Y-59441552D01*
X156350229Y-59432868D01*
X156350229Y-59432867D01*
X156350231Y-59432867D01*
X156416552Y-59388552D01*
X156460867Y-59322231D01*
X156460867Y-59322229D01*
X156460868Y-59322229D01*
X156472499Y-59263752D01*
X157065500Y-59263752D01*
X157077131Y-59322229D01*
X157077132Y-59322230D01*
X157121447Y-59388552D01*
X157187769Y-59432867D01*
X157187770Y-59432868D01*
X157246247Y-59444499D01*
X157246250Y-59444500D01*
X157246252Y-59444500D01*
X159085750Y-59444500D01*
X159085751Y-59444499D01*
X159100568Y-59441552D01*
X159144229Y-59432868D01*
X159144229Y-59432867D01*
X159144231Y-59432867D01*
X159210552Y-59388552D01*
X159254867Y-59322231D01*
X159254867Y-59322229D01*
X159254868Y-59322229D01*
X159266499Y-59263752D01*
X159859500Y-59263752D01*
X159871131Y-59322229D01*
X159871132Y-59322230D01*
X159915447Y-59388552D01*
X159981769Y-59432867D01*
X159981770Y-59432868D01*
X160040247Y-59444499D01*
X160040250Y-59444500D01*
X160040252Y-59444500D01*
X161879750Y-59444500D01*
X161879751Y-59444499D01*
X161894568Y-59441552D01*
X161938229Y-59432868D01*
X161938229Y-59432867D01*
X161938231Y-59432867D01*
X162004552Y-59388552D01*
X162048867Y-59322231D01*
X162048867Y-59322229D01*
X162048868Y-59322229D01*
X162060499Y-59263752D01*
X162653500Y-59263752D01*
X162665131Y-59322229D01*
X162665132Y-59322230D01*
X162709447Y-59388552D01*
X162775769Y-59432867D01*
X162775770Y-59432868D01*
X162834247Y-59444499D01*
X162834250Y-59444500D01*
X162834252Y-59444500D01*
X164673750Y-59444500D01*
X164673751Y-59444499D01*
X164688568Y-59441552D01*
X164732229Y-59432868D01*
X164732229Y-59432867D01*
X164732231Y-59432867D01*
X164798552Y-59388552D01*
X164842867Y-59322231D01*
X164842867Y-59322229D01*
X164842868Y-59322229D01*
X164854499Y-59263752D01*
X164854500Y-59263750D01*
X164854500Y-57424249D01*
X164854499Y-57424247D01*
X164842868Y-57365770D01*
X164842867Y-57365769D01*
X164798552Y-57299447D01*
X164732230Y-57255132D01*
X164732229Y-57255131D01*
X164673752Y-57243500D01*
X164673748Y-57243500D01*
X162834252Y-57243500D01*
X162834247Y-57243500D01*
X162775770Y-57255131D01*
X162775769Y-57255132D01*
X162709447Y-57299447D01*
X162665132Y-57365769D01*
X162665131Y-57365770D01*
X162653500Y-57424247D01*
X162653500Y-59263752D01*
X162060499Y-59263752D01*
X162060500Y-59263750D01*
X162060500Y-57424249D01*
X162060499Y-57424247D01*
X162048868Y-57365770D01*
X162048867Y-57365769D01*
X162004552Y-57299447D01*
X161938230Y-57255132D01*
X161938229Y-57255131D01*
X161879752Y-57243500D01*
X161879748Y-57243500D01*
X160040252Y-57243500D01*
X160040247Y-57243500D01*
X159981770Y-57255131D01*
X159981769Y-57255132D01*
X159915447Y-57299447D01*
X159871132Y-57365769D01*
X159871131Y-57365770D01*
X159859500Y-57424247D01*
X159859500Y-59263752D01*
X159266499Y-59263752D01*
X159266500Y-59263750D01*
X159266500Y-57424249D01*
X159266499Y-57424247D01*
X159254868Y-57365770D01*
X159254867Y-57365769D01*
X159210552Y-57299447D01*
X159144230Y-57255132D01*
X159144229Y-57255131D01*
X159085752Y-57243500D01*
X159085748Y-57243500D01*
X157246252Y-57243500D01*
X157246247Y-57243500D01*
X157187770Y-57255131D01*
X157187769Y-57255132D01*
X157121447Y-57299447D01*
X157077132Y-57365769D01*
X157077131Y-57365770D01*
X157065500Y-57424247D01*
X157065500Y-59263752D01*
X156472499Y-59263752D01*
X156472500Y-59263750D01*
X156472500Y-57424249D01*
X156472499Y-57424247D01*
X156460868Y-57365770D01*
X156460867Y-57365769D01*
X156416552Y-57299447D01*
X156350230Y-57255132D01*
X156350229Y-57255131D01*
X156291752Y-57243500D01*
X156291748Y-57243500D01*
X154452252Y-57243500D01*
X154452247Y-57243500D01*
X154393770Y-57255131D01*
X154393769Y-57255132D01*
X154327447Y-57299447D01*
X154283132Y-57365769D01*
X154283131Y-57365770D01*
X154271500Y-57424247D01*
X154271500Y-59263752D01*
X153678499Y-59263752D01*
X153678500Y-59263750D01*
X153678500Y-57424249D01*
X153678499Y-57424247D01*
X153666868Y-57365770D01*
X153666867Y-57365769D01*
X153622552Y-57299447D01*
X153556230Y-57255132D01*
X153556229Y-57255131D01*
X153497752Y-57243500D01*
X153497748Y-57243500D01*
X151658252Y-57243500D01*
X151658247Y-57243500D01*
X151599770Y-57255131D01*
X151599769Y-57255132D01*
X151533447Y-57299447D01*
X151489132Y-57365769D01*
X151489131Y-57365770D01*
X151477500Y-57424247D01*
X151477500Y-59263752D01*
X150884500Y-59263752D01*
X150884500Y-57429249D01*
X150884499Y-57429247D01*
X150872868Y-57370770D01*
X150872867Y-57370769D01*
X150828552Y-57304447D01*
X150762230Y-57260132D01*
X150762229Y-57260131D01*
X150703752Y-57248500D01*
X150703748Y-57248500D01*
X148864252Y-57248500D01*
X148864247Y-57248500D01*
X148805770Y-57260131D01*
X148805769Y-57260132D01*
X148739447Y-57304447D01*
X148695132Y-57370769D01*
X148695131Y-57370770D01*
X148683500Y-57429247D01*
X148683500Y-59268752D01*
X148089505Y-59268752D01*
X148090499Y-59263752D01*
X148090500Y-59263750D01*
X148090500Y-57424249D01*
X148090499Y-57424247D01*
X148078868Y-57365770D01*
X148078867Y-57365769D01*
X148034552Y-57299447D01*
X147968230Y-57255132D01*
X147968229Y-57255131D01*
X147909752Y-57243500D01*
X147909748Y-57243500D01*
X146070252Y-57243500D01*
X146070247Y-57243500D01*
X146011770Y-57255131D01*
X146011769Y-57255132D01*
X145945447Y-57299447D01*
X145901132Y-57365769D01*
X145901131Y-57365770D01*
X145889500Y-57424247D01*
X145889500Y-59263752D01*
X145042500Y-59263752D01*
X145042500Y-57429249D01*
X145042499Y-57429247D01*
X145030868Y-57370770D01*
X145030867Y-57370769D01*
X144986552Y-57304447D01*
X144920230Y-57260132D01*
X144920229Y-57260131D01*
X144861752Y-57248500D01*
X144861748Y-57248500D01*
X143022252Y-57248500D01*
X143022247Y-57248500D01*
X142963770Y-57260131D01*
X142963769Y-57260132D01*
X142897447Y-57304447D01*
X142853132Y-57370769D01*
X142853131Y-57370770D01*
X142841500Y-57429247D01*
X142841500Y-59268752D01*
X139441500Y-59268752D01*
X139441500Y-55809000D01*
X142836785Y-55809000D01*
X142855602Y-56012082D01*
X142911417Y-56208247D01*
X142911422Y-56208260D01*
X143002327Y-56390821D01*
X143125237Y-56553581D01*
X143275958Y-56690980D01*
X143275960Y-56690982D01*
X143290525Y-56700000D01*
X143449363Y-56798348D01*
X143639544Y-56872024D01*
X143840024Y-56909500D01*
X143840026Y-56909500D01*
X144043974Y-56909500D01*
X144043976Y-56909500D01*
X144244456Y-56872024D01*
X144434637Y-56798348D01*
X144608041Y-56690981D01*
X144758764Y-56553579D01*
X144881673Y-56390821D01*
X144972582Y-56208250D01*
X145028397Y-56012083D01*
X145047215Y-55809000D01*
X145028397Y-55605917D01*
X144972582Y-55409750D01*
X144970093Y-55404752D01*
X144928272Y-55320764D01*
X144881673Y-55227179D01*
X144758764Y-55064421D01*
X144758762Y-55064418D01*
X144608041Y-54927019D01*
X144608039Y-54927017D01*
X144434640Y-54819653D01*
X144434625Y-54819646D01*
X144346706Y-54785586D01*
X144291304Y-54743014D01*
X144267714Y-54677247D01*
X144267500Y-54669960D01*
X144267500Y-51164188D01*
X144287185Y-51097149D01*
X144303819Y-51076507D01*
X145093507Y-50286819D01*
X145154830Y-50253334D01*
X145181188Y-50250500D01*
X146550232Y-50250500D01*
X146617271Y-50270185D01*
X146663026Y-50322989D01*
X146672970Y-50392147D01*
X146670007Y-50406593D01*
X146660735Y-50441193D01*
X146664264Y-50481513D01*
X146664500Y-50486920D01*
X146664500Y-54664960D01*
X146644815Y-54731999D01*
X146592011Y-54777754D01*
X146585294Y-54780586D01*
X146497374Y-54814646D01*
X146497359Y-54814653D01*
X146323960Y-54922017D01*
X146323958Y-54922019D01*
X146173237Y-55059418D01*
X146050327Y-55222178D01*
X145959422Y-55404739D01*
X145959417Y-55404752D01*
X145903602Y-55600917D01*
X145884785Y-55803999D01*
X145884785Y-55804000D01*
X145903602Y-56007082D01*
X145959417Y-56203247D01*
X145959422Y-56203260D01*
X146050327Y-56385821D01*
X146173237Y-56548581D01*
X146323958Y-56685980D01*
X146323960Y-56685982D01*
X146423141Y-56747392D01*
X146497363Y-56793348D01*
X146687544Y-56867024D01*
X146888024Y-56904500D01*
X146888026Y-56904500D01*
X147091974Y-56904500D01*
X147091976Y-56904500D01*
X147292456Y-56867024D01*
X147482637Y-56793348D01*
X147656041Y-56685981D01*
X147806764Y-56548579D01*
X147929673Y-56385821D01*
X148020582Y-56203250D01*
X148076397Y-56007083D01*
X148094752Y-55809000D01*
X148678785Y-55809000D01*
X148697602Y-56012082D01*
X148753417Y-56208247D01*
X148753422Y-56208260D01*
X148844327Y-56390821D01*
X148967237Y-56553581D01*
X149117958Y-56690980D01*
X149117960Y-56690982D01*
X149132525Y-56700000D01*
X149291363Y-56798348D01*
X149481544Y-56872024D01*
X149682024Y-56909500D01*
X149682026Y-56909500D01*
X149885974Y-56909500D01*
X149885976Y-56909500D01*
X150086456Y-56872024D01*
X150276637Y-56798348D01*
X150450041Y-56690981D01*
X150600764Y-56553579D01*
X150723673Y-56390821D01*
X150814582Y-56208250D01*
X150870397Y-56012083D01*
X150889215Y-55809000D01*
X150888752Y-55804000D01*
X151472785Y-55804000D01*
X151491602Y-56007082D01*
X151547417Y-56203247D01*
X151547422Y-56203260D01*
X151638327Y-56385821D01*
X151761237Y-56548581D01*
X151911958Y-56685980D01*
X151911960Y-56685982D01*
X152011141Y-56747392D01*
X152085363Y-56793348D01*
X152275544Y-56867024D01*
X152476024Y-56904500D01*
X152476026Y-56904500D01*
X152679974Y-56904500D01*
X152679976Y-56904500D01*
X152880456Y-56867024D01*
X153070637Y-56793348D01*
X153244041Y-56685981D01*
X153394764Y-56548579D01*
X153517673Y-56385821D01*
X153608582Y-56203250D01*
X153664397Y-56007083D01*
X153683215Y-55804000D01*
X154266785Y-55804000D01*
X154285602Y-56007082D01*
X154341417Y-56203247D01*
X154341422Y-56203260D01*
X154432327Y-56385821D01*
X154555237Y-56548581D01*
X154705958Y-56685980D01*
X154705960Y-56685982D01*
X154805141Y-56747392D01*
X154879363Y-56793348D01*
X155069544Y-56867024D01*
X155270024Y-56904500D01*
X155270026Y-56904500D01*
X155473974Y-56904500D01*
X155473976Y-56904500D01*
X155674456Y-56867024D01*
X155864637Y-56793348D01*
X156038041Y-56685981D01*
X156188764Y-56548579D01*
X156311673Y-56385821D01*
X156402582Y-56203250D01*
X156458397Y-56007083D01*
X156477215Y-55804000D01*
X157060785Y-55804000D01*
X157079602Y-56007082D01*
X157135417Y-56203247D01*
X157135422Y-56203260D01*
X157226327Y-56385821D01*
X157349237Y-56548581D01*
X157499958Y-56685980D01*
X157499960Y-56685982D01*
X157599141Y-56747392D01*
X157673363Y-56793348D01*
X157863544Y-56867024D01*
X158064024Y-56904500D01*
X158064026Y-56904500D01*
X158267974Y-56904500D01*
X158267976Y-56904500D01*
X158468456Y-56867024D01*
X158658637Y-56793348D01*
X158832041Y-56685981D01*
X158982764Y-56548579D01*
X159105673Y-56385821D01*
X159196582Y-56203250D01*
X159252397Y-56007083D01*
X159271215Y-55804000D01*
X159854785Y-55804000D01*
X159873602Y-56007082D01*
X159929417Y-56203247D01*
X159929422Y-56203260D01*
X160020327Y-56385821D01*
X160143237Y-56548581D01*
X160293958Y-56685980D01*
X160293960Y-56685982D01*
X160393141Y-56747392D01*
X160467363Y-56793348D01*
X160657544Y-56867024D01*
X160858024Y-56904500D01*
X160858026Y-56904500D01*
X161061974Y-56904500D01*
X161061976Y-56904500D01*
X161262456Y-56867024D01*
X161452637Y-56793348D01*
X161626041Y-56685981D01*
X161776764Y-56548579D01*
X161899673Y-56385821D01*
X161990582Y-56203250D01*
X162046397Y-56007083D01*
X162065215Y-55804000D01*
X162648785Y-55804000D01*
X162667602Y-56007082D01*
X162723417Y-56203247D01*
X162723422Y-56203260D01*
X162814327Y-56385821D01*
X162937237Y-56548581D01*
X163087958Y-56685980D01*
X163087960Y-56685982D01*
X163187141Y-56747392D01*
X163261363Y-56793348D01*
X163451544Y-56867024D01*
X163652024Y-56904500D01*
X163652026Y-56904500D01*
X163855974Y-56904500D01*
X163855976Y-56904500D01*
X164056456Y-56867024D01*
X164246637Y-56793348D01*
X164420041Y-56685981D01*
X164570764Y-56548579D01*
X164693673Y-56385821D01*
X164784582Y-56203250D01*
X164840397Y-56007083D01*
X164859215Y-55804000D01*
X164840397Y-55600917D01*
X164784582Y-55404750D01*
X164693673Y-55222179D01*
X164570764Y-55059421D01*
X164570762Y-55059418D01*
X164420041Y-54922019D01*
X164420039Y-54922017D01*
X164246642Y-54814655D01*
X164246639Y-54814653D01*
X164246637Y-54814652D01*
X164246636Y-54814651D01*
X164246635Y-54814651D01*
X164069365Y-54745977D01*
X164056456Y-54740976D01*
X163855976Y-54703500D01*
X163652024Y-54703500D01*
X163451544Y-54740976D01*
X163451541Y-54740976D01*
X163451541Y-54740977D01*
X163261364Y-54814651D01*
X163261357Y-54814655D01*
X163087960Y-54922017D01*
X163087958Y-54922019D01*
X162937237Y-55059418D01*
X162814327Y-55222178D01*
X162723422Y-55404739D01*
X162723417Y-55404752D01*
X162667602Y-55600917D01*
X162648785Y-55803999D01*
X162648785Y-55804000D01*
X162065215Y-55804000D01*
X162046397Y-55600917D01*
X161990582Y-55404750D01*
X161899673Y-55222179D01*
X161776764Y-55059421D01*
X161776762Y-55059418D01*
X161626041Y-54922019D01*
X161626039Y-54922017D01*
X161452642Y-54814655D01*
X161452639Y-54814653D01*
X161452637Y-54814652D01*
X161452636Y-54814651D01*
X161452635Y-54814651D01*
X161275365Y-54745977D01*
X161262456Y-54740976D01*
X161061976Y-54703500D01*
X160858024Y-54703500D01*
X160657544Y-54740976D01*
X160657541Y-54740976D01*
X160657541Y-54740977D01*
X160467364Y-54814651D01*
X160467357Y-54814655D01*
X160293960Y-54922017D01*
X160293958Y-54922019D01*
X160143237Y-55059418D01*
X160020327Y-55222178D01*
X159929422Y-55404739D01*
X159929417Y-55404752D01*
X159873602Y-55600917D01*
X159854785Y-55803999D01*
X159854785Y-55804000D01*
X159271215Y-55804000D01*
X159252397Y-55600917D01*
X159196582Y-55404750D01*
X159105673Y-55222179D01*
X158982764Y-55059421D01*
X158982762Y-55059418D01*
X158832041Y-54922019D01*
X158832039Y-54922017D01*
X158658642Y-54814655D01*
X158658639Y-54814653D01*
X158658637Y-54814652D01*
X158658636Y-54814651D01*
X158658635Y-54814651D01*
X158481365Y-54745977D01*
X158468456Y-54740976D01*
X158267976Y-54703500D01*
X158064024Y-54703500D01*
X157863544Y-54740976D01*
X157863541Y-54740976D01*
X157863541Y-54740977D01*
X157673364Y-54814651D01*
X157673357Y-54814655D01*
X157499960Y-54922017D01*
X157499958Y-54922019D01*
X157349237Y-55059418D01*
X157226327Y-55222178D01*
X157135422Y-55404739D01*
X157135417Y-55404752D01*
X157079602Y-55600917D01*
X157060785Y-55803999D01*
X157060785Y-55804000D01*
X156477215Y-55804000D01*
X156458397Y-55600917D01*
X156402582Y-55404750D01*
X156311673Y-55222179D01*
X156188764Y-55059421D01*
X156188762Y-55059418D01*
X156038041Y-54922019D01*
X156038039Y-54922017D01*
X155864642Y-54814655D01*
X155864639Y-54814653D01*
X155864637Y-54814652D01*
X155864636Y-54814651D01*
X155864635Y-54814651D01*
X155687365Y-54745977D01*
X155674456Y-54740976D01*
X155473976Y-54703500D01*
X155270024Y-54703500D01*
X155069544Y-54740976D01*
X155069541Y-54740976D01*
X155069541Y-54740977D01*
X154879364Y-54814651D01*
X154879357Y-54814655D01*
X154705960Y-54922017D01*
X154705958Y-54922019D01*
X154555237Y-55059418D01*
X154432327Y-55222178D01*
X154341422Y-55404739D01*
X154341417Y-55404752D01*
X154285602Y-55600917D01*
X154266785Y-55803999D01*
X154266785Y-55804000D01*
X153683215Y-55804000D01*
X153664397Y-55600917D01*
X153608582Y-55404750D01*
X153517673Y-55222179D01*
X153394764Y-55059421D01*
X153394762Y-55059418D01*
X153244041Y-54922019D01*
X153244039Y-54922017D01*
X153070642Y-54814655D01*
X153070639Y-54814653D01*
X153070637Y-54814652D01*
X153070636Y-54814651D01*
X153070635Y-54814651D01*
X152893365Y-54745977D01*
X152880456Y-54740976D01*
X152679976Y-54703500D01*
X152476024Y-54703500D01*
X152275544Y-54740976D01*
X152275541Y-54740976D01*
X152275541Y-54740977D01*
X152085364Y-54814651D01*
X152085357Y-54814655D01*
X151911960Y-54922017D01*
X151911958Y-54922019D01*
X151761237Y-55059418D01*
X151638327Y-55222178D01*
X151547422Y-55404739D01*
X151547417Y-55404752D01*
X151491602Y-55600917D01*
X151472785Y-55803999D01*
X151472785Y-55804000D01*
X150888752Y-55804000D01*
X150870397Y-55605917D01*
X150814582Y-55409750D01*
X150812093Y-55404752D01*
X150770272Y-55320764D01*
X150723673Y-55227179D01*
X150600764Y-55064421D01*
X150600762Y-55064418D01*
X150450041Y-54927019D01*
X150450039Y-54927017D01*
X150276642Y-54819655D01*
X150276639Y-54819653D01*
X150276637Y-54819652D01*
X150276636Y-54819651D01*
X150276635Y-54819651D01*
X150109499Y-54754903D01*
X150086456Y-54745976D01*
X149885976Y-54708500D01*
X149682024Y-54708500D01*
X149481544Y-54745976D01*
X149481541Y-54745976D01*
X149481541Y-54745977D01*
X149291364Y-54819651D01*
X149291357Y-54819655D01*
X149117960Y-54927017D01*
X149117958Y-54927019D01*
X148967237Y-55064418D01*
X148844327Y-55227178D01*
X148753422Y-55409739D01*
X148753417Y-55409752D01*
X148697602Y-55605917D01*
X148678785Y-55808999D01*
X148678785Y-55809000D01*
X148094752Y-55809000D01*
X148095215Y-55804000D01*
X148076397Y-55600917D01*
X148020582Y-55404750D01*
X147929673Y-55222179D01*
X147806764Y-55059421D01*
X147806762Y-55059418D01*
X147656041Y-54922019D01*
X147656039Y-54922017D01*
X147482640Y-54814653D01*
X147482625Y-54814646D01*
X147394706Y-54780586D01*
X147339304Y-54738014D01*
X147315714Y-54672247D01*
X147315500Y-54664960D01*
X147315500Y-50656187D01*
X147335185Y-50589148D01*
X147351814Y-50568511D01*
X147719006Y-50201319D01*
X147780327Y-50167836D01*
X147850019Y-50172820D01*
X147854144Y-50174444D01*
X147856041Y-50175230D01*
X147856043Y-50175230D01*
X147856046Y-50175232D01*
X148054066Y-50235300D01*
X148054065Y-50235300D01*
X148074347Y-50237297D01*
X148260000Y-50255583D01*
X148465934Y-50235300D01*
X148663954Y-50175232D01*
X148846450Y-50077685D01*
X149006410Y-49946410D01*
X149137685Y-49786450D01*
X149235232Y-49603954D01*
X149295300Y-49405934D01*
X149315583Y-49200000D01*
X149315583Y-49199999D01*
X149744417Y-49199999D01*
X149764699Y-49405932D01*
X149764700Y-49405934D01*
X149824768Y-49603954D01*
X149922315Y-49786450D01*
X149938236Y-49805850D01*
X150053589Y-49946410D01*
X150123911Y-50004121D01*
X150213550Y-50077685D01*
X150396046Y-50175232D01*
X150594066Y-50235300D01*
X150594065Y-50235300D01*
X150612529Y-50237118D01*
X150800000Y-50255583D01*
X151005934Y-50235300D01*
X151203954Y-50175232D01*
X151386450Y-50077685D01*
X151546410Y-49946410D01*
X151677685Y-49786450D01*
X151775232Y-49603954D01*
X151835300Y-49405934D01*
X151855583Y-49200000D01*
X151855583Y-49199999D01*
X152284417Y-49199999D01*
X152304699Y-49405932D01*
X152304700Y-49405934D01*
X152364768Y-49603954D01*
X152462315Y-49786450D01*
X152478236Y-49805850D01*
X152593589Y-49946410D01*
X152663911Y-50004121D01*
X152753550Y-50077685D01*
X152936046Y-50175232D01*
X153134066Y-50235300D01*
X153134065Y-50235300D01*
X153152529Y-50237118D01*
X153340000Y-50255583D01*
X153545934Y-50235300D01*
X153743954Y-50175232D01*
X153926450Y-50077685D01*
X154086410Y-49946410D01*
X154217685Y-49786450D01*
X154315232Y-49603954D01*
X154375300Y-49405934D01*
X154395583Y-49200000D01*
X154824417Y-49200000D01*
X154844699Y-49405932D01*
X154844700Y-49405934D01*
X154904768Y-49603954D01*
X155002315Y-49786450D01*
X155018236Y-49805850D01*
X155133589Y-49946410D01*
X155203911Y-50004121D01*
X155293550Y-50077685D01*
X155476046Y-50175232D01*
X155674066Y-50235300D01*
X155674065Y-50235300D01*
X155692529Y-50237118D01*
X155880000Y-50255583D01*
X156085934Y-50235300D01*
X156283954Y-50175232D01*
X156466450Y-50077685D01*
X156626410Y-49946410D01*
X156757685Y-49786450D01*
X156855232Y-49603954D01*
X156915300Y-49405934D01*
X156935583Y-49200000D01*
X156935583Y-49199999D01*
X157364417Y-49199999D01*
X157384699Y-49405932D01*
X157384700Y-49405934D01*
X157444768Y-49603954D01*
X157542315Y-49786450D01*
X157558236Y-49805850D01*
X157673589Y-49946410D01*
X157743911Y-50004121D01*
X157833550Y-50077685D01*
X158016046Y-50175232D01*
X158214066Y-50235300D01*
X158214065Y-50235300D01*
X158234347Y-50237297D01*
X158420000Y-50255583D01*
X158625934Y-50235300D01*
X158823954Y-50175232D01*
X159006450Y-50077685D01*
X159166410Y-49946410D01*
X159297685Y-49786450D01*
X159395232Y-49603954D01*
X159455300Y-49405934D01*
X159475583Y-49200000D01*
X159475583Y-49199999D01*
X159904417Y-49199999D01*
X159924699Y-49405932D01*
X159924700Y-49405934D01*
X159984768Y-49603954D01*
X160082315Y-49786450D01*
X160098236Y-49805850D01*
X160213589Y-49946410D01*
X160283911Y-50004121D01*
X160373550Y-50077685D01*
X160556046Y-50175232D01*
X160754066Y-50235300D01*
X160754065Y-50235300D01*
X160772529Y-50237118D01*
X160960000Y-50255583D01*
X161165934Y-50235300D01*
X161363954Y-50175232D01*
X161546450Y-50077685D01*
X161706410Y-49946410D01*
X161837685Y-49786450D01*
X161935232Y-49603954D01*
X161995300Y-49405934D01*
X162015583Y-49200000D01*
X162444417Y-49200000D01*
X162464699Y-49405932D01*
X162464700Y-49405934D01*
X162524768Y-49603954D01*
X162622315Y-49786450D01*
X162638236Y-49805850D01*
X162753589Y-49946410D01*
X162823911Y-50004121D01*
X162913550Y-50077685D01*
X163096046Y-50175232D01*
X163294066Y-50235300D01*
X163294065Y-50235300D01*
X163312529Y-50237118D01*
X163500000Y-50255583D01*
X163705934Y-50235300D01*
X163903954Y-50175232D01*
X164086450Y-50077685D01*
X164246410Y-49946410D01*
X164377685Y-49786450D01*
X164475232Y-49603954D01*
X164535300Y-49405934D01*
X164555583Y-49200000D01*
X164535300Y-48994066D01*
X164475232Y-48796046D01*
X164377685Y-48613550D01*
X164302897Y-48522420D01*
X164246410Y-48453589D01*
X164096121Y-48330252D01*
X164086450Y-48322315D01*
X163903954Y-48224768D01*
X163705934Y-48164700D01*
X163705932Y-48164699D01*
X163705934Y-48164699D01*
X163500000Y-48144417D01*
X163294067Y-48164699D01*
X163096043Y-48224769D01*
X163008114Y-48271769D01*
X162913550Y-48322315D01*
X162913548Y-48322316D01*
X162913547Y-48322317D01*
X162753589Y-48453589D01*
X162622317Y-48613547D01*
X162524769Y-48796043D01*
X162464699Y-48994067D01*
X162444417Y-49200000D01*
X162015583Y-49200000D01*
X161995300Y-48994066D01*
X161935232Y-48796046D01*
X161837685Y-48613550D01*
X161762897Y-48522420D01*
X161706410Y-48453589D01*
X161556121Y-48330252D01*
X161546450Y-48322315D01*
X161363954Y-48224768D01*
X161165934Y-48164700D01*
X161165932Y-48164699D01*
X161165934Y-48164699D01*
X160960000Y-48144417D01*
X160754067Y-48164699D01*
X160556043Y-48224769D01*
X160468114Y-48271769D01*
X160373550Y-48322315D01*
X160373548Y-48322316D01*
X160373547Y-48322317D01*
X160213589Y-48453589D01*
X160082317Y-48613547D01*
X159984769Y-48796043D01*
X159924699Y-48994067D01*
X159904417Y-49199999D01*
X159475583Y-49199999D01*
X159455300Y-48994066D01*
X159395232Y-48796046D01*
X159297685Y-48613550D01*
X159222897Y-48522420D01*
X159166410Y-48453589D01*
X159016121Y-48330252D01*
X159006450Y-48322315D01*
X158823954Y-48224768D01*
X158625934Y-48164700D01*
X158625932Y-48164699D01*
X158625934Y-48164699D01*
X158420000Y-48144417D01*
X158214067Y-48164699D01*
X158016043Y-48224769D01*
X157928114Y-48271769D01*
X157833550Y-48322315D01*
X157833548Y-48322316D01*
X157833547Y-48322317D01*
X157673589Y-48453589D01*
X157542317Y-48613547D01*
X157444769Y-48796043D01*
X157384699Y-48994067D01*
X157364417Y-49199999D01*
X156935583Y-49199999D01*
X156915300Y-48994066D01*
X156855232Y-48796046D01*
X156757685Y-48613550D01*
X156682897Y-48522420D01*
X156626410Y-48453589D01*
X156476121Y-48330252D01*
X156466450Y-48322315D01*
X156283954Y-48224768D01*
X156085934Y-48164700D01*
X156085932Y-48164699D01*
X156085934Y-48164699D01*
X155880000Y-48144417D01*
X155674067Y-48164699D01*
X155476043Y-48224769D01*
X155388114Y-48271769D01*
X155293550Y-48322315D01*
X155293548Y-48322316D01*
X155293547Y-48322317D01*
X155133589Y-48453589D01*
X155002317Y-48613547D01*
X154904769Y-48796043D01*
X154844699Y-48994067D01*
X154824417Y-49200000D01*
X154395583Y-49200000D01*
X154375300Y-48994066D01*
X154315232Y-48796046D01*
X154217685Y-48613550D01*
X154142897Y-48522420D01*
X154086410Y-48453589D01*
X153936121Y-48330252D01*
X153926450Y-48322315D01*
X153743954Y-48224768D01*
X153545934Y-48164700D01*
X153545932Y-48164699D01*
X153545934Y-48164699D01*
X153340000Y-48144417D01*
X153134067Y-48164699D01*
X152936043Y-48224769D01*
X152848114Y-48271769D01*
X152753550Y-48322315D01*
X152753548Y-48322316D01*
X152753547Y-48322317D01*
X152593589Y-48453589D01*
X152462317Y-48613547D01*
X152364769Y-48796043D01*
X152304699Y-48994067D01*
X152284417Y-49199999D01*
X151855583Y-49199999D01*
X151835300Y-48994066D01*
X151775232Y-48796046D01*
X151677685Y-48613550D01*
X151602897Y-48522420D01*
X151546410Y-48453589D01*
X151396121Y-48330252D01*
X151386450Y-48322315D01*
X151203954Y-48224768D01*
X151005934Y-48164700D01*
X151005932Y-48164699D01*
X151005934Y-48164699D01*
X150818463Y-48146235D01*
X150800000Y-48144417D01*
X150799999Y-48144417D01*
X150594067Y-48164699D01*
X150396043Y-48224769D01*
X150308114Y-48271769D01*
X150213550Y-48322315D01*
X150213548Y-48322316D01*
X150213547Y-48322317D01*
X150053589Y-48453589D01*
X149922317Y-48613547D01*
X149824769Y-48796043D01*
X149764699Y-48994067D01*
X149744417Y-49199999D01*
X149315583Y-49199999D01*
X149295300Y-48994066D01*
X149235232Y-48796046D01*
X149137685Y-48613550D01*
X149062897Y-48522420D01*
X149006410Y-48453589D01*
X148856121Y-48330252D01*
X148846450Y-48322315D01*
X148663954Y-48224768D01*
X148465934Y-48164700D01*
X148465932Y-48164699D01*
X148465934Y-48164699D01*
X148260000Y-48144417D01*
X148054067Y-48164699D01*
X147856043Y-48224769D01*
X147768114Y-48271769D01*
X147673550Y-48322315D01*
X147673548Y-48322316D01*
X147673547Y-48322317D01*
X147513589Y-48453589D01*
X147382317Y-48613547D01*
X147284769Y-48796043D01*
X147224699Y-48994067D01*
X147204417Y-49199999D01*
X147224699Y-49405932D01*
X147284769Y-49603958D01*
X147285561Y-49605869D01*
X147285677Y-49606949D01*
X147286537Y-49609784D01*
X147285999Y-49609947D01*
X147293024Y-49675339D01*
X147261744Y-49737816D01*
X147258677Y-49740994D01*
X146982181Y-50017491D01*
X146920858Y-50050976D01*
X146851167Y-50045992D01*
X146795233Y-50004121D01*
X146770816Y-49938656D01*
X146770500Y-49929810D01*
X146770500Y-48330249D01*
X146770499Y-48330247D01*
X146758868Y-48271770D01*
X146758867Y-48271769D01*
X146714552Y-48205447D01*
X146648230Y-48161132D01*
X146648229Y-48161131D01*
X146589752Y-48149500D01*
X146589748Y-48149500D01*
X144850252Y-48149500D01*
X144850247Y-48149500D01*
X144791770Y-48161131D01*
X144791769Y-48161132D01*
X144725447Y-48205447D01*
X144681132Y-48271769D01*
X144681131Y-48271770D01*
X144669500Y-48330247D01*
X144669500Y-49738811D01*
X144649815Y-49805850D01*
X144633181Y-49826492D01*
X143723803Y-50735870D01*
X143719814Y-50739525D01*
X143688805Y-50765545D01*
X143668562Y-50800606D01*
X143665656Y-50805166D01*
X143642446Y-50838313D01*
X143640206Y-50843117D01*
X143633229Y-50859961D01*
X143631410Y-50864959D01*
X143624383Y-50904811D01*
X143623212Y-50910091D01*
X143612735Y-50949191D01*
X143616264Y-50989513D01*
X143616500Y-50994920D01*
X143616500Y-54669960D01*
X143596815Y-54736999D01*
X143544011Y-54782754D01*
X143537294Y-54785586D01*
X143449374Y-54819646D01*
X143449359Y-54819653D01*
X143275960Y-54927017D01*
X143275958Y-54927019D01*
X143125237Y-55064418D01*
X143002327Y-55227178D01*
X142911422Y-55409739D01*
X142911417Y-55409752D01*
X142855602Y-55605917D01*
X142836785Y-55808999D01*
X142836785Y-55809000D01*
X139441500Y-55809000D01*
X139441500Y-50290583D01*
X139461185Y-50223544D01*
X139513989Y-50177789D01*
X139518049Y-50176021D01*
X139519945Y-50175234D01*
X139519954Y-50175232D01*
X139702450Y-50077685D01*
X139862410Y-49946410D01*
X139993685Y-49786450D01*
X140091232Y-49603954D01*
X140151300Y-49405934D01*
X140171583Y-49200000D01*
X140171583Y-49199999D01*
X140600417Y-49199999D01*
X140620699Y-49405932D01*
X140620700Y-49405934D01*
X140680768Y-49603954D01*
X140778315Y-49786450D01*
X140794236Y-49805850D01*
X140909589Y-49946410D01*
X140979911Y-50004121D01*
X141069550Y-50077685D01*
X141252046Y-50175232D01*
X141450066Y-50235300D01*
X141450065Y-50235300D01*
X141468529Y-50237118D01*
X141656000Y-50255583D01*
X141861934Y-50235300D01*
X142059954Y-50175232D01*
X142242450Y-50077685D01*
X142402410Y-49946410D01*
X142533685Y-49786450D01*
X142631232Y-49603954D01*
X142691300Y-49405934D01*
X142711583Y-49200000D01*
X142691300Y-48994066D01*
X142631232Y-48796046D01*
X142533685Y-48613550D01*
X142458897Y-48522420D01*
X142402410Y-48453589D01*
X142252121Y-48330252D01*
X142242450Y-48322315D01*
X142059954Y-48224768D01*
X141861934Y-48164700D01*
X141861932Y-48164699D01*
X141861934Y-48164699D01*
X141656000Y-48144417D01*
X141450067Y-48164699D01*
X141252043Y-48224769D01*
X141164114Y-48271769D01*
X141069550Y-48322315D01*
X141069548Y-48322316D01*
X141069547Y-48322317D01*
X140909589Y-48453589D01*
X140778317Y-48613547D01*
X140680769Y-48796043D01*
X140620699Y-48994067D01*
X140600417Y-49199999D01*
X140171583Y-49199999D01*
X140151300Y-48994066D01*
X140091232Y-48796046D01*
X139993685Y-48613550D01*
X139918897Y-48522420D01*
X139862410Y-48453589D01*
X139712121Y-48330252D01*
X139702450Y-48322315D01*
X139519954Y-48224768D01*
X139321934Y-48164700D01*
X139321932Y-48164699D01*
X139321934Y-48164699D01*
X139116000Y-48144417D01*
X138910067Y-48164699D01*
X138712043Y-48224769D01*
X138624114Y-48271769D01*
X138529550Y-48322315D01*
X138529548Y-48322316D01*
X138529547Y-48322317D01*
X138369589Y-48453589D01*
X138238317Y-48613547D01*
X138140769Y-48796043D01*
X138080699Y-48994067D01*
X138060417Y-49199999D01*
X138080699Y-49405932D01*
X138080700Y-49405934D01*
X138140768Y-49603954D01*
X138238315Y-49786450D01*
X138254236Y-49805850D01*
X138369589Y-49946410D01*
X138439911Y-50004121D01*
X138529550Y-50077685D01*
X138712046Y-50175232D01*
X138712051Y-50175233D01*
X138713951Y-50176021D01*
X138714796Y-50176701D01*
X138717419Y-50178104D01*
X138717153Y-50178601D01*
X138768355Y-50219862D01*
X138790421Y-50286156D01*
X138790500Y-50290583D01*
X138790500Y-61967811D01*
X138770815Y-62034850D01*
X138754181Y-62055492D01*
X126451803Y-74357870D01*
X126447814Y-74361525D01*
X126416805Y-74387545D01*
X126396562Y-74422606D01*
X126393656Y-74427166D01*
X126370446Y-74460313D01*
X126368206Y-74465117D01*
X126361229Y-74481961D01*
X126359410Y-74486959D01*
X126352383Y-74526811D01*
X126351212Y-74532091D01*
X126340735Y-74571191D01*
X126340735Y-74571194D01*
X126344263Y-74611515D01*
X126344499Y-74616920D01*
X126344499Y-79663077D01*
X126344263Y-79668483D01*
X126340735Y-79708805D01*
X126340735Y-79708806D01*
X125725500Y-79708806D01*
X125725500Y-73516186D01*
X125745185Y-73449147D01*
X125761814Y-73428510D01*
X136794204Y-62396120D01*
X136798166Y-62392489D01*
X136829194Y-62366455D01*
X136849438Y-62331390D01*
X136852335Y-62326841D01*
X136875554Y-62293684D01*
X136875554Y-62293681D01*
X136877819Y-62288824D01*
X136884747Y-62272099D01*
X136886584Y-62267050D01*
X136886588Y-62267045D01*
X136893619Y-62227162D01*
X136894777Y-62221940D01*
X136905264Y-62182807D01*
X136901735Y-62142478D01*
X136901500Y-62137075D01*
X136901500Y-50290583D01*
X136921185Y-50223544D01*
X136973989Y-50177789D01*
X136978049Y-50176021D01*
X136979945Y-50175234D01*
X136979954Y-50175232D01*
X137162450Y-50077685D01*
X137322410Y-49946410D01*
X137453685Y-49786450D01*
X137551232Y-49603954D01*
X137611300Y-49405934D01*
X137631583Y-49200000D01*
X137611300Y-48994066D01*
X137551232Y-48796046D01*
X137453685Y-48613550D01*
X137378897Y-48522420D01*
X137322410Y-48453589D01*
X137172121Y-48330252D01*
X137162450Y-48322315D01*
X136979954Y-48224768D01*
X136781934Y-48164700D01*
X136781932Y-48164699D01*
X136781934Y-48164699D01*
X136576000Y-48144417D01*
X136370067Y-48164699D01*
X136172043Y-48224769D01*
X136084114Y-48271769D01*
X135989550Y-48322315D01*
X135989548Y-48322316D01*
X135989547Y-48322317D01*
X135829589Y-48453589D01*
X135698317Y-48613547D01*
X135600769Y-48796043D01*
X135540699Y-48994067D01*
X135520417Y-49200000D01*
X135540699Y-49405932D01*
X135540700Y-49405934D01*
X135600768Y-49603954D01*
X135698315Y-49786450D01*
X135714236Y-49805850D01*
X135829589Y-49946410D01*
X135899911Y-50004121D01*
X135989550Y-50077685D01*
X136172046Y-50175232D01*
X136172051Y-50175233D01*
X136173951Y-50176021D01*
X136174796Y-50176701D01*
X136177419Y-50178104D01*
X136177153Y-50178601D01*
X136228355Y-50219862D01*
X136250421Y-50286156D01*
X136250500Y-50290583D01*
X136250500Y-61967810D01*
X136230815Y-62034849D01*
X136214181Y-62055491D01*
X125181803Y-73087870D01*
X125177814Y-73091525D01*
X125146805Y-73117545D01*
X125126562Y-73152606D01*
X125123656Y-73157166D01*
X125100446Y-73190313D01*
X125098206Y-73195117D01*
X125091229Y-73211961D01*
X125089410Y-73216959D01*
X125082383Y-73256811D01*
X125081212Y-73262092D01*
X125070735Y-73301192D01*
X125074263Y-73341510D01*
X125074499Y-73346916D01*
X125074499Y-80933081D01*
X125074263Y-80938487D01*
X125070735Y-80978807D01*
X125070735Y-80978808D01*
X124455500Y-80978808D01*
X124455500Y-72246187D01*
X124475185Y-72179148D01*
X124491814Y-72158511D01*
X134254204Y-62396120D01*
X134258166Y-62392489D01*
X134289194Y-62366455D01*
X134309438Y-62331390D01*
X134312335Y-62326841D01*
X134335554Y-62293684D01*
X134335554Y-62293681D01*
X134337819Y-62288824D01*
X134344747Y-62272099D01*
X134346584Y-62267050D01*
X134346588Y-62267045D01*
X134353619Y-62227162D01*
X134354777Y-62221940D01*
X134365264Y-62182807D01*
X134361735Y-62142478D01*
X134361500Y-62137075D01*
X134361500Y-50290583D01*
X134381185Y-50223544D01*
X134433989Y-50177789D01*
X134438049Y-50176021D01*
X134439945Y-50175234D01*
X134439954Y-50175232D01*
X134622450Y-50077685D01*
X134782410Y-49946410D01*
X134913685Y-49786450D01*
X135011232Y-49603954D01*
X135071300Y-49405934D01*
X135091583Y-49200000D01*
X135071300Y-48994066D01*
X135011232Y-48796046D01*
X134913685Y-48613550D01*
X134838897Y-48522420D01*
X134782410Y-48453589D01*
X134632121Y-48330252D01*
X134622450Y-48322315D01*
X134439954Y-48224768D01*
X134241934Y-48164700D01*
X134241932Y-48164699D01*
X134241934Y-48164699D01*
X134036000Y-48144417D01*
X133830067Y-48164699D01*
X133632043Y-48224769D01*
X133544114Y-48271769D01*
X133449550Y-48322315D01*
X133449548Y-48322316D01*
X133449547Y-48322317D01*
X133289589Y-48453589D01*
X133158317Y-48613547D01*
X133060769Y-48796043D01*
X133000699Y-48994067D01*
X132980417Y-49199999D01*
X133000699Y-49405932D01*
X133000700Y-49405934D01*
X133060768Y-49603954D01*
X133158315Y-49786450D01*
X133174236Y-49805850D01*
X133289589Y-49946410D01*
X133359911Y-50004121D01*
X133449550Y-50077685D01*
X133632046Y-50175232D01*
X133632051Y-50175233D01*
X133633951Y-50176021D01*
X133634796Y-50176701D01*
X133637419Y-50178104D01*
X133637153Y-50178601D01*
X133688355Y-50219862D01*
X133710421Y-50286156D01*
X133710500Y-50290583D01*
X133710500Y-61967811D01*
X133690815Y-62034850D01*
X133674181Y-62055492D01*
X123911803Y-71817870D01*
X123907814Y-71821525D01*
X123876805Y-71847545D01*
X123856562Y-71882606D01*
X123853656Y-71887166D01*
X123830446Y-71920313D01*
X123828206Y-71925117D01*
X123821229Y-71941961D01*
X123819410Y-71946959D01*
X123812383Y-71986811D01*
X123811212Y-71992091D01*
X123800735Y-72031191D01*
X123804264Y-72071513D01*
X123804500Y-72076920D01*
X123804500Y-81785112D01*
X123784815Y-81852151D01*
X123774213Y-81866314D01*
X123704625Y-81946622D01*
X123704622Y-81946628D01*
X123644834Y-82077543D01*
X123632087Y-82166206D01*
X123624353Y-82220000D01*
X123625615Y-82228779D01*
X123644834Y-82362456D01*
X123695407Y-82473194D01*
X123704623Y-82493373D01*
X123798872Y-82602143D01*
X123919947Y-82679953D01*
X123919950Y-82679954D01*
X123919949Y-82679954D01*
X124058036Y-82720499D01*
X124058038Y-82720500D01*
X124058039Y-82720500D01*
X124118812Y-82720500D01*
X124185851Y-82740185D01*
X124206493Y-82756819D01*
X127697863Y-86248189D01*
X127701518Y-86252178D01*
X127727541Y-86283190D01*
X127727543Y-86283191D01*
X127727545Y-86283194D01*
X127727547Y-86283195D01*
X127727548Y-86283196D01*
X127762599Y-86303433D01*
X127767162Y-86306339D01*
X127800316Y-86329554D01*
X127800319Y-86329554D01*
X127805176Y-86331820D01*
X127821933Y-86338760D01*
X127826953Y-86340587D01*
X127826955Y-86340588D01*
X127862806Y-86346909D01*
X127866808Y-86347615D01*
X127872080Y-86348783D01*
X127911193Y-86359264D01*
X127951522Y-86355735D01*
X127956924Y-86355500D01*
X133003078Y-86355500D01*
X133008481Y-86355735D01*
X133048807Y-86359264D01*
X133087940Y-86348777D01*
X133093162Y-86347619D01*
X133133045Y-86340588D01*
X133133050Y-86340584D01*
X133138099Y-86338747D01*
X133154824Y-86331819D01*
X133159679Y-86329555D01*
X133159684Y-86329554D01*
X133192851Y-86306328D01*
X133197399Y-86303433D01*
X133230744Y-86284181D01*
X133298642Y-86267710D01*
X133364669Y-86290563D01*
X133407859Y-86345485D01*
X133414500Y-86415038D01*
X133382483Y-86477140D01*
X133380422Y-86479251D01*
X132921493Y-86938181D01*
X132860170Y-86971666D01*
X132833812Y-86974500D01*
X126856188Y-86974500D01*
X126789149Y-86954815D01*
X126768507Y-86938181D01*
X123401966Y-83571639D01*
X123368481Y-83510316D01*
X123367235Y-83498732D01*
X123366909Y-83498779D01*
X123359359Y-83446269D01*
X123345165Y-83347543D01*
X123285377Y-83216627D01*
X123215785Y-83136313D01*
X123186761Y-83072759D01*
X123185499Y-83055125D01*
X123185499Y-70976187D01*
X123205184Y-70909149D01*
X123221818Y-70888507D01*
X127413826Y-66696499D01*
X131714210Y-62396115D01*
X131718172Y-62392484D01*
X131749194Y-62366455D01*
X131769444Y-62331379D01*
X131772328Y-62326852D01*
X131795554Y-62293684D01*
X131795554Y-62293681D01*
X131797819Y-62288824D01*
X131804747Y-62272099D01*
X131806587Y-62267046D01*
X131806588Y-62267045D01*
X131813621Y-62227150D01*
X131814777Y-62221937D01*
X131825263Y-62182807D01*
X131821736Y-62142485D01*
X131821500Y-62137086D01*
X131821500Y-50290583D01*
X131841185Y-50223544D01*
X131893989Y-50177789D01*
X131898049Y-50176021D01*
X131899945Y-50175234D01*
X131899954Y-50175232D01*
X132082450Y-50077685D01*
X132242410Y-49946410D01*
X132373685Y-49786450D01*
X132471232Y-49603954D01*
X132531300Y-49405934D01*
X132551583Y-49200000D01*
X132531300Y-48994066D01*
X132471232Y-48796046D01*
X132373685Y-48613550D01*
X132298897Y-48522420D01*
X132242410Y-48453589D01*
X132092121Y-48330252D01*
X132082450Y-48322315D01*
X131899954Y-48224768D01*
X131701934Y-48164700D01*
X131701932Y-48164699D01*
X131701934Y-48164699D01*
X131514463Y-48146235D01*
X131496000Y-48144417D01*
X131495999Y-48144417D01*
X131290067Y-48164699D01*
X131092043Y-48224769D01*
X131004114Y-48271769D01*
X130909550Y-48322315D01*
X130909548Y-48322316D01*
X130909547Y-48322317D01*
X130749589Y-48453589D01*
X130618317Y-48613547D01*
X130520769Y-48796043D01*
X130460699Y-48994067D01*
X130440417Y-49199999D01*
X130460699Y-49405932D01*
X130460700Y-49405934D01*
X130520768Y-49603954D01*
X130618315Y-49786450D01*
X130634236Y-49805850D01*
X130749589Y-49946410D01*
X130819911Y-50004121D01*
X130909550Y-50077685D01*
X131092046Y-50175232D01*
X131092051Y-50175233D01*
X131093951Y-50176021D01*
X131094796Y-50176701D01*
X131097419Y-50178104D01*
X131097153Y-50178601D01*
X131148355Y-50219862D01*
X131170421Y-50286156D01*
X131170500Y-50290583D01*
X131170499Y-61967811D01*
X131150814Y-62034850D01*
X131134180Y-62055492D01*
X122641803Y-70547870D01*
X122637814Y-70551525D01*
X122606805Y-70577545D01*
X122586562Y-70612606D01*
X122583656Y-70617166D01*
X122560446Y-70650313D01*
X122558206Y-70655117D01*
X122551229Y-70671961D01*
X122549410Y-70676959D01*
X122542383Y-70716811D01*
X122541212Y-70722091D01*
X122530735Y-70761191D01*
X122534264Y-70801513D01*
X122534500Y-70806920D01*
X122534500Y-83055112D01*
X122514815Y-83122151D01*
X122504213Y-83136314D01*
X122434625Y-83216622D01*
X122434622Y-83216628D01*
X122374834Y-83347543D01*
X122354352Y-83490000D01*
X122354353Y-83494665D01*
X122334668Y-83561704D01*
X122281864Y-83607459D01*
X122212706Y-83617403D01*
X122149150Y-83588378D01*
X122142672Y-83582346D01*
X122131965Y-83571639D01*
X122098480Y-83510316D01*
X122097236Y-83498731D01*
X122096909Y-83498779D01*
X122089359Y-83446269D01*
X122075165Y-83347543D01*
X122015377Y-83216627D01*
X122015375Y-83216625D01*
X122015374Y-83216622D01*
X121945786Y-83136313D01*
X121916761Y-83072757D01*
X121915499Y-83055111D01*
X121915499Y-76390185D01*
X121915499Y-69706183D01*
X121935184Y-69639148D01*
X121951809Y-69618516D01*
X129174204Y-62396120D01*
X129178166Y-62392489D01*
X129209194Y-62366455D01*
X129229438Y-62331390D01*
X129232335Y-62326841D01*
X129255554Y-62293684D01*
X129255554Y-62293681D01*
X129257819Y-62288824D01*
X129264747Y-62272099D01*
X129266587Y-62267046D01*
X129266588Y-62267045D01*
X129273621Y-62227150D01*
X129274777Y-62221937D01*
X129285263Y-62182807D01*
X129281736Y-62142485D01*
X129281500Y-62137086D01*
X129281500Y-50290583D01*
X129301185Y-50223544D01*
X129353989Y-50177789D01*
X129358049Y-50176021D01*
X129359945Y-50175234D01*
X129359954Y-50175232D01*
X129542450Y-50077685D01*
X129702410Y-49946410D01*
X129833685Y-49786450D01*
X129931232Y-49603954D01*
X129991300Y-49405934D01*
X130011583Y-49200000D01*
X129991300Y-48994066D01*
X129931232Y-48796046D01*
X129833685Y-48613550D01*
X129758897Y-48522420D01*
X129702410Y-48453589D01*
X129552121Y-48330252D01*
X129542450Y-48322315D01*
X129359954Y-48224768D01*
X129161934Y-48164700D01*
X129161932Y-48164699D01*
X129161934Y-48164699D01*
X128956000Y-48144417D01*
X128750067Y-48164699D01*
X128552043Y-48224769D01*
X128464114Y-48271769D01*
X128369550Y-48322315D01*
X128369548Y-48322316D01*
X128369547Y-48322317D01*
X128209589Y-48453589D01*
X128078317Y-48613547D01*
X127980767Y-48796046D01*
X127960593Y-48862552D01*
X127922296Y-48920990D01*
X127858483Y-48949447D01*
X127789416Y-48938886D01*
X127737023Y-48892661D01*
X127722158Y-48858649D01*
X127689433Y-48736516D01*
X127689429Y-48736507D01*
X127589600Y-48522422D01*
X127589599Y-48522420D01*
X127454113Y-48328926D01*
X127454108Y-48328920D01*
X127287082Y-48161894D01*
X127093578Y-48026399D01*
X126879492Y-47926570D01*
X126879486Y-47926567D01*
X126666000Y-47869364D01*
X126666000Y-48764498D01*
X126558315Y-48715320D01*
X126451763Y-48700000D01*
X126380237Y-48700000D01*
X126273685Y-48715320D01*
X126165999Y-48764498D01*
X126166000Y-47869364D01*
X126165999Y-47869364D01*
X125952513Y-47926567D01*
X125952507Y-47926570D01*
X125738422Y-48026399D01*
X125738420Y-48026400D01*
X125544926Y-48161886D01*
X125544920Y-48161891D01*
X125377891Y-48328920D01*
X125377886Y-48328926D01*
X125242400Y-48522420D01*
X125242399Y-48522422D01*
X125142570Y-48736507D01*
X125142567Y-48736514D01*
X125109841Y-48858650D01*
X125073476Y-48918310D01*
X125010629Y-48948839D01*
X124941253Y-48940544D01*
X124887375Y-48896059D01*
X124871406Y-48862552D01*
X124851232Y-48796046D01*
X124753685Y-48613550D01*
X124678897Y-48522420D01*
X124622410Y-48453589D01*
X124472121Y-48330252D01*
X124462450Y-48322315D01*
X124279954Y-48224768D01*
X124081934Y-48164700D01*
X124081932Y-48164699D01*
X124081934Y-48164699D01*
X123876000Y-48144417D01*
X123670067Y-48164699D01*
X123472043Y-48224769D01*
X123384114Y-48271769D01*
X123289550Y-48322315D01*
X123289548Y-48322316D01*
X123289547Y-48322317D01*
X123129589Y-48453589D01*
X122998317Y-48613547D01*
X122900769Y-48796043D01*
X122840699Y-48994067D01*
X122820417Y-49199999D01*
X122840699Y-49405932D01*
X122840700Y-49405934D01*
X122900768Y-49603954D01*
X122998315Y-49786450D01*
X123014236Y-49805850D01*
X123129589Y-49946410D01*
X123199911Y-50004121D01*
X123289550Y-50077685D01*
X123472046Y-50175232D01*
X123670066Y-50235300D01*
X123670065Y-50235300D01*
X123690347Y-50237297D01*
X123876000Y-50255583D01*
X124081934Y-50235300D01*
X124279954Y-50175232D01*
X124462450Y-50077685D01*
X124622410Y-49946410D01*
X124753685Y-49786450D01*
X124851232Y-49603954D01*
X124871406Y-49537446D01*
X124909702Y-49479010D01*
X124973514Y-49450553D01*
X125042581Y-49461112D01*
X125094975Y-49507336D01*
X125109841Y-49541349D01*
X125142567Y-49663486D01*
X125142570Y-49663492D01*
X125242399Y-49877578D01*
X125377894Y-50071082D01*
X125544917Y-50238105D01*
X125738421Y-50373600D01*
X125952507Y-50473429D01*
X125952516Y-50473433D01*
X126166000Y-50530634D01*
X126165999Y-49635501D01*
X126273685Y-49684680D01*
X126380237Y-49700000D01*
X126451763Y-49700000D01*
X126558315Y-49684680D01*
X126666000Y-49635501D01*
X126666000Y-50530633D01*
X126879483Y-50473433D01*
X126879492Y-50473429D01*
X127093578Y-50373600D01*
X127287082Y-50238105D01*
X127454105Y-50071082D01*
X127589600Y-49877578D01*
X127689429Y-49663492D01*
X127689433Y-49663483D01*
X127722158Y-49541350D01*
X127758522Y-49481690D01*
X127821369Y-49451160D01*
X127890745Y-49459454D01*
X127944623Y-49503939D01*
X127960593Y-49537447D01*
X127980768Y-49603954D01*
X128078315Y-49786450D01*
X128094236Y-49805850D01*
X128209589Y-49946410D01*
X128279911Y-50004121D01*
X128369550Y-50077685D01*
X128552046Y-50175232D01*
X128552051Y-50175233D01*
X128553951Y-50176021D01*
X128554796Y-50176701D01*
X128557419Y-50178104D01*
X128557153Y-50178601D01*
X128608355Y-50219862D01*
X128630421Y-50286156D01*
X128630500Y-50290583D01*
X128630500Y-61967810D01*
X128610815Y-62034849D01*
X128594181Y-62055491D01*
X121371803Y-69277870D01*
X121367814Y-69281525D01*
X121336805Y-69307545D01*
X121316562Y-69342606D01*
X121313656Y-69347166D01*
X121290446Y-69380313D01*
X121288206Y-69385117D01*
X121281229Y-69401961D01*
X121279410Y-69406959D01*
X121272383Y-69446811D01*
X121271212Y-69452091D01*
X121260735Y-69491191D01*
X121264264Y-69531513D01*
X121264500Y-69536920D01*
X121264500Y-83055112D01*
X121244815Y-83122151D01*
X121234213Y-83136314D01*
X121164625Y-83216622D01*
X121164622Y-83216628D01*
X121104834Y-83347543D01*
X121084353Y-83490000D01*
X120645500Y-83490000D01*
X120645500Y-51926187D01*
X120665185Y-51859148D01*
X120681815Y-51838510D01*
X121554215Y-50966109D01*
X121558166Y-50962489D01*
X121589194Y-50936455D01*
X121609438Y-50901390D01*
X121612335Y-50896841D01*
X121635554Y-50863684D01*
X121635554Y-50863681D01*
X121637819Y-50858824D01*
X121644747Y-50842099D01*
X121646584Y-50837050D01*
X121646588Y-50837045D01*
X121653619Y-50797162D01*
X121654777Y-50791940D01*
X121665264Y-50752807D01*
X121661733Y-50712456D01*
X121661500Y-50707100D01*
X121661500Y-50290582D01*
X121681185Y-50223543D01*
X121733989Y-50177789D01*
X121738049Y-50176021D01*
X121739945Y-50175234D01*
X121739954Y-50175232D01*
X121922450Y-50077685D01*
X122082410Y-49946410D01*
X122213685Y-49786450D01*
X122311232Y-49603954D01*
X122371300Y-49405934D01*
X122391583Y-49200000D01*
X122371300Y-48994066D01*
X122311232Y-48796046D01*
X122213685Y-48613550D01*
X122138897Y-48522420D01*
X122082410Y-48453589D01*
X121932121Y-48330252D01*
X121922450Y-48322315D01*
X121739954Y-48224768D01*
X121541934Y-48164700D01*
X121541932Y-48164699D01*
X121541934Y-48164699D01*
X121354463Y-48146235D01*
X121336000Y-48144417D01*
X121335999Y-48144417D01*
X121130067Y-48164699D01*
X120932043Y-48224769D01*
X120844114Y-48271769D01*
X120749550Y-48322315D01*
X120749548Y-48322316D01*
X120749547Y-48322317D01*
X120589589Y-48453589D01*
X120458317Y-48613547D01*
X120360769Y-48796043D01*
X120300699Y-48994067D01*
X120280417Y-49199999D01*
X120300699Y-49405932D01*
X120300700Y-49405934D01*
X120360768Y-49603954D01*
X120458315Y-49786450D01*
X120474236Y-49805850D01*
X120589589Y-49946410D01*
X120659911Y-50004121D01*
X120749550Y-50077685D01*
X120908471Y-50162630D01*
X120930571Y-50174444D01*
X120932046Y-50175232D01*
X120932050Y-50175233D01*
X120933943Y-50176017D01*
X120934787Y-50176697D01*
X120937419Y-50178104D01*
X120937152Y-50178602D01*
X120988350Y-50219854D01*
X121010420Y-50286147D01*
X121010499Y-50290582D01*
X121010499Y-50537811D01*
X120990814Y-50604850D01*
X120974180Y-50625492D01*
X120101803Y-51497870D01*
X120097814Y-51501525D01*
X120066805Y-51527545D01*
X120046562Y-51562606D01*
X120043656Y-51567166D01*
X120020446Y-51600313D01*
X120018206Y-51605117D01*
X120011229Y-51621961D01*
X120009410Y-51626959D01*
X120002383Y-51666811D01*
X120001212Y-51672091D01*
X119990735Y-51711191D01*
X119994264Y-51751513D01*
X119994500Y-51756920D01*
X119994500Y-88553078D01*
X119994264Y-88558485D01*
X119990735Y-88598808D01*
X120001212Y-88637910D01*
X120002383Y-88643190D01*
X120009411Y-88683043D01*
X120011235Y-88688055D01*
X120018197Y-88704861D01*
X120020445Y-88709681D01*
X120020446Y-88709684D01*
X120034452Y-88729687D01*
X120043655Y-88742831D01*
X120046561Y-88747392D01*
X120066806Y-88782455D01*
X120097815Y-88808475D01*
X120101805Y-88812131D01*
X124504868Y-93215195D01*
X124508523Y-93219184D01*
X124534541Y-93250190D01*
X124534542Y-93250191D01*
X124534545Y-93250194D01*
X124563387Y-93266845D01*
X124569604Y-93270435D01*
X124574154Y-93273333D01*
X124607316Y-93296553D01*
X124607318Y-93296553D01*
X124607319Y-93296554D01*
X124612168Y-93298815D01*
X124628947Y-93305765D01*
X124633952Y-93307587D01*
X124633953Y-93307587D01*
X124633955Y-93307588D01*
X124673829Y-93314618D01*
X124679092Y-93315786D01*
X124690907Y-93318951D01*
X124718193Y-93326263D01*
X124758510Y-93322735D01*
X124763912Y-93322500D01*
X156976525Y-93322500D01*
X158596812Y-93322500D01*
X158663851Y-93342185D01*
X158684493Y-93358819D01*
X159148034Y-93822360D01*
X159181519Y-93883683D01*
X159182764Y-93895268D01*
X159183091Y-93895222D01*
X159204834Y-94046456D01*
X159256045Y-94158590D01*
X159264623Y-94177373D01*
X159358872Y-94286143D01*
X159479947Y-94363953D01*
X159483419Y-94366184D01*
X159529174Y-94418988D01*
X159539118Y-94488147D01*
X159510093Y-94551703D01*
X159451315Y-94589477D01*
X159416380Y-94594500D01*
X124316188Y-94594500D01*
X124249149Y-94574815D01*
X124228507Y-94558181D01*
X116109818Y-86439492D01*
X116076333Y-86378169D01*
X116073500Y-86351820D01*
X116073499Y-77125962D01*
X116093185Y-77058923D01*
X116145989Y-77013168D01*
X116215147Y-77003224D01*
X116278703Y-77032249D01*
X116293354Y-77047298D01*
X116342643Y-77107357D01*
X116487373Y-77226135D01*
X116487376Y-77226137D01*
X116553866Y-77261676D01*
X116652499Y-77314396D01*
X116831666Y-77368746D01*
X116831668Y-77368747D01*
X116848374Y-77370392D01*
X117018000Y-77387099D01*
X117204331Y-77368747D01*
X117383501Y-77314396D01*
X117548625Y-77226136D01*
X117693357Y-77107357D01*
X117812136Y-76962625D01*
X117900396Y-76797501D01*
X117954747Y-76618331D01*
X117973099Y-76432000D01*
X117954747Y-76245669D01*
X117900396Y-76066499D01*
X117871510Y-76012456D01*
X117812137Y-75901376D01*
X117812135Y-75901373D01*
X117693357Y-75756642D01*
X117548626Y-75637864D01*
X117548623Y-75637862D01*
X117383502Y-75549604D01*
X117204333Y-75495253D01*
X117204331Y-75495252D01*
X117018000Y-75476901D01*
X116831668Y-75495252D01*
X116831666Y-75495253D01*
X116652497Y-75549604D01*
X116487376Y-75637862D01*
X116487373Y-75637864D01*
X116342642Y-75756642D01*
X116293353Y-75816702D01*
X116235607Y-75856036D01*
X116165763Y-75857907D01*
X116105994Y-75821719D01*
X116075279Y-75758963D01*
X116073500Y-75738037D01*
X116073500Y-72245962D01*
X116093185Y-72178923D01*
X116145989Y-72133168D01*
X116215147Y-72123224D01*
X116278703Y-72152249D01*
X116293351Y-72167295D01*
X116342643Y-72227356D01*
X116342643Y-72227357D01*
X116487373Y-72346135D01*
X116487376Y-72346137D01*
X116652497Y-72434395D01*
X116652499Y-72434396D01*
X116831666Y-72488746D01*
X116831668Y-72488747D01*
X116848374Y-72490392D01*
X117018000Y-72507099D01*
X117204331Y-72488747D01*
X117383501Y-72434396D01*
X117548625Y-72346136D01*
X117693357Y-72227357D01*
X117812136Y-72082625D01*
X117900396Y-71917501D01*
X117954747Y-71738331D01*
X117973099Y-71552000D01*
X117954747Y-71365669D01*
X117900396Y-71186499D01*
X117870831Y-71131186D01*
X117812137Y-71021376D01*
X117812135Y-71021373D01*
X117693357Y-70876642D01*
X117548626Y-70757864D01*
X117548623Y-70757862D01*
X117383502Y-70669604D01*
X117204333Y-70615253D01*
X117204331Y-70615252D01*
X117018000Y-70596901D01*
X116831668Y-70615252D01*
X116831666Y-70615253D01*
X116652497Y-70669604D01*
X116487376Y-70757862D01*
X116487373Y-70757864D01*
X116342642Y-70876642D01*
X116293353Y-70936702D01*
X116235607Y-70976036D01*
X116165763Y-70977907D01*
X116105994Y-70941719D01*
X116075279Y-70878963D01*
X116073500Y-70858037D01*
X116073500Y-52942187D01*
X116093185Y-52875148D01*
X116109819Y-52854506D01*
X118677507Y-50286819D01*
X118738830Y-50253334D01*
X118765188Y-50250500D01*
X119665750Y-50250500D01*
X119665751Y-50250499D01*
X119680568Y-50247552D01*
X119724229Y-50238868D01*
X119724229Y-50238867D01*
X119724231Y-50238867D01*
X119790552Y-50194552D01*
X119834867Y-50128231D01*
X119834867Y-50128229D01*
X119834868Y-50128229D01*
X119844922Y-50077682D01*
X119846500Y-50069748D01*
X119846500Y-48330252D01*
X119846500Y-48330251D01*
X119846500Y-48330249D01*
X119846499Y-48330247D01*
X119834868Y-48271770D01*
X119834867Y-48271769D01*
X119790552Y-48205447D01*
X119724230Y-48161132D01*
X119724229Y-48161131D01*
X119665752Y-48149500D01*
X119665748Y-48149500D01*
X117926252Y-48149500D01*
X117926247Y-48149500D01*
X117867770Y-48161131D01*
X117867769Y-48161132D01*
X117801447Y-48205447D01*
X117757132Y-48271769D01*
X117757131Y-48271770D01*
X117745500Y-48330247D01*
X117745500Y-50069752D01*
X117757131Y-50128229D01*
X117757132Y-50128230D01*
X117764005Y-50138516D01*
X117784883Y-50205193D01*
X117766399Y-50272574D01*
X117748584Y-50295088D01*
X115529803Y-52513870D01*
X115525814Y-52517525D01*
X115494805Y-52543545D01*
X115474562Y-52578606D01*
X115471656Y-52583166D01*
X115448446Y-52616313D01*
X115446206Y-52621117D01*
X115439229Y-52637961D01*
X115437410Y-52642959D01*
X115430383Y-52682811D01*
X115429212Y-52688091D01*
X115418735Y-52727191D01*
X115422264Y-52767513D01*
X115422500Y-52772920D01*
X115422500Y-86521078D01*
X115422264Y-86526485D01*
X115418735Y-86566808D01*
X115429212Y-86605910D01*
X115430383Y-86611190D01*
X115437411Y-86651043D01*
X115439235Y-86656055D01*
X115446197Y-86672861D01*
X115448445Y-86677681D01*
X115448446Y-86677684D01*
X115462452Y-86697687D01*
X115471655Y-86710831D01*
X115474561Y-86715392D01*
X115494806Y-86750455D01*
X115525815Y-86776475D01*
X115529805Y-86780131D01*
X123887863Y-95138189D01*
X123891518Y-95142178D01*
X123917541Y-95173190D01*
X123917543Y-95173191D01*
X123917545Y-95173194D01*
X123917547Y-95173195D01*
X123917548Y-95173196D01*
X123952599Y-95193433D01*
X123957162Y-95196339D01*
X123990316Y-95219554D01*
X123990319Y-95219554D01*
X123995176Y-95221820D01*
X124011933Y-95228760D01*
X124016950Y-95230586D01*
X124016952Y-95230586D01*
X124016955Y-95230588D01*
X124056818Y-95237616D01*
X124062076Y-95238782D01*
X124101193Y-95249264D01*
X124141518Y-95245735D01*
X124146922Y-95245500D01*
X160773812Y-95245500D01*
X160840851Y-95265185D01*
X160861493Y-95281819D01*
X162498678Y-96919005D01*
X162532163Y-96980328D01*
X162527179Y-97050020D01*
X162525561Y-97054132D01*
X162524770Y-97056041D01*
X162524769Y-97056043D01*
X162524768Y-97056046D01*
X162504594Y-97122552D01*
X162464699Y-97254067D01*
X162444417Y-97460000D01*
X162464699Y-97665932D01*
X162493544Y-97761022D01*
X162524768Y-97863954D01*
X162622315Y-98046450D01*
X162682294Y-98119535D01*
X162749836Y-98201836D01*
X162777148Y-98266146D01*
X162765357Y-98335013D01*
X162718204Y-98386573D01*
X162653982Y-98404500D01*
X161806018Y-98404500D01*
X161738979Y-98384815D01*
X161693224Y-98332011D01*
X161683280Y-98262853D01*
X161710164Y-98201836D01*
X161745192Y-98159154D01*
X161837685Y-98046450D01*
X161935232Y-97863954D01*
X161995300Y-97665934D01*
X162015583Y-97460000D01*
X161995300Y-97254066D01*
X161935232Y-97056046D01*
X161837685Y-96873550D01*
X161756833Y-96775031D01*
X161706410Y-96713589D01*
X161556121Y-96590252D01*
X161546450Y-96582315D01*
X161363954Y-96484768D01*
X161165934Y-96424700D01*
X161165932Y-96424699D01*
X161165934Y-96424699D01*
X160978463Y-96406235D01*
X160960000Y-96404417D01*
X160959999Y-96404417D01*
X160754067Y-96424699D01*
X160556043Y-96484769D01*
X160483743Y-96523415D01*
X160373550Y-96582315D01*
X160373548Y-96582316D01*
X160373547Y-96582317D01*
X160213589Y-96713589D01*
X160082317Y-96873547D01*
X159984769Y-97056043D01*
X159924699Y-97254067D01*
X159904417Y-97460000D01*
X159924699Y-97665932D01*
X159953544Y-97761022D01*
X159984768Y-97863954D01*
X160082315Y-98046450D01*
X160142294Y-98119535D01*
X160209836Y-98201836D01*
X160237148Y-98266146D01*
X160225357Y-98335013D01*
X160178204Y-98386573D01*
X160113982Y-98404500D01*
X159266018Y-98404500D01*
X159198979Y-98384815D01*
X159153224Y-98332011D01*
X159143280Y-98262853D01*
X159170164Y-98201836D01*
X159205192Y-98159154D01*
X159297685Y-98046450D01*
X159395232Y-97863954D01*
X159455300Y-97665934D01*
X159475583Y-97460000D01*
X159455300Y-97254066D01*
X159395232Y-97056046D01*
X159297685Y-96873550D01*
X159216833Y-96775031D01*
X159166410Y-96713589D01*
X159016121Y-96590252D01*
X159006450Y-96582315D01*
X158823954Y-96484768D01*
X158625934Y-96424700D01*
X158625932Y-96424699D01*
X158625934Y-96424699D01*
X158420000Y-96404417D01*
X158214067Y-96424699D01*
X158016043Y-96484769D01*
X157943743Y-96523415D01*
X157833550Y-96582315D01*
X157833548Y-96582316D01*
X157833547Y-96582317D01*
X157673589Y-96713589D01*
X157542317Y-96873547D01*
X157444769Y-97056043D01*
X157384699Y-97254067D01*
X157364417Y-97460000D01*
X157384699Y-97665932D01*
X157413544Y-97761022D01*
X157444768Y-97863954D01*
X157542315Y-98046450D01*
X157602294Y-98119535D01*
X157669836Y-98201836D01*
X157697148Y-98266146D01*
X157685357Y-98335013D01*
X157638204Y-98386573D01*
X157573982Y-98404500D01*
X156726018Y-98404500D01*
X156658979Y-98384815D01*
X156613224Y-98332011D01*
X156603280Y-98262853D01*
X156630164Y-98201836D01*
X156665192Y-98159154D01*
X156757685Y-98046450D01*
X156855232Y-97863954D01*
X156915300Y-97665934D01*
X156935583Y-97460000D01*
X156915300Y-97254066D01*
X156855232Y-97056046D01*
X156757685Y-96873550D01*
X156676833Y-96775031D01*
X156626410Y-96713589D01*
X156476121Y-96590252D01*
X156466450Y-96582315D01*
X156283954Y-96484768D01*
X156085934Y-96424700D01*
X156085932Y-96424699D01*
X156085934Y-96424699D01*
X155880000Y-96404417D01*
X155674067Y-96424699D01*
X155476043Y-96484769D01*
X155403743Y-96523415D01*
X155293550Y-96582315D01*
X155293548Y-96582316D01*
X155293547Y-96582317D01*
X155133589Y-96713589D01*
X155002317Y-96873547D01*
X154904769Y-97056043D01*
X154844699Y-97254067D01*
X154824417Y-97460000D01*
X154844699Y-97665932D01*
X154873544Y-97761022D01*
X154904768Y-97863954D01*
X155002315Y-98046450D01*
X155062294Y-98119535D01*
X155129836Y-98201836D01*
X155157148Y-98266146D01*
X155145357Y-98335013D01*
X155098204Y-98386573D01*
X155033982Y-98404500D01*
X154186018Y-98404500D01*
X154118979Y-98384815D01*
X154073224Y-98332011D01*
X154063280Y-98262853D01*
X154090164Y-98201836D01*
X154125192Y-98159154D01*
X154217685Y-98046450D01*
X154315232Y-97863954D01*
X154375300Y-97665934D01*
X154395583Y-97460000D01*
X154375300Y-97254066D01*
X154315232Y-97056046D01*
X154217685Y-96873550D01*
X154136833Y-96775031D01*
X154086410Y-96713589D01*
X153936121Y-96590252D01*
X153926450Y-96582315D01*
X153743954Y-96484768D01*
X153545934Y-96424700D01*
X153545932Y-96424699D01*
X153545934Y-96424699D01*
X153358463Y-96406235D01*
X153340000Y-96404417D01*
X153339999Y-96404417D01*
X153134067Y-96424699D01*
X152936043Y-96484769D01*
X152863743Y-96523415D01*
X152753550Y-96582315D01*
X152753548Y-96582316D01*
X152753547Y-96582317D01*
X152593589Y-96713589D01*
X152462317Y-96873547D01*
X152364769Y-97056043D01*
X152304699Y-97254067D01*
X152284417Y-97460000D01*
X152304699Y-97665932D01*
X152333544Y-97761022D01*
X152364768Y-97863954D01*
X152462315Y-98046450D01*
X152522294Y-98119535D01*
X152589836Y-98201836D01*
X152617148Y-98266146D01*
X152605357Y-98335013D01*
X152558204Y-98386573D01*
X152493982Y-98404500D01*
X151974500Y-98404500D01*
X151907461Y-98384815D01*
X151861706Y-98332011D01*
X151850500Y-98280500D01*
X151850500Y-97442579D01*
X151850500Y-96590252D01*
X151848921Y-96582315D01*
X151838868Y-96531770D01*
X151838867Y-96531769D01*
X151794552Y-96465447D01*
X151728230Y-96421132D01*
X151728229Y-96421131D01*
X151669752Y-96409500D01*
X151669748Y-96409500D01*
X149930252Y-96409500D01*
X149930247Y-96409500D01*
X149871770Y-96421131D01*
X149871769Y-96421132D01*
X149805447Y-96465447D01*
X149761132Y-96531769D01*
X149761131Y-96531770D01*
X149749500Y-96590247D01*
X149749500Y-98280500D01*
X149729815Y-98347539D01*
X149677011Y-98393294D01*
X149625500Y-98404500D01*
X146566018Y-98404500D01*
X146498979Y-98384815D01*
X146453224Y-98332011D01*
X146443280Y-98262853D01*
X146470164Y-98201836D01*
X146505192Y-98159154D01*
X146597685Y-98046450D01*
X146695232Y-97863954D01*
X146755300Y-97665934D01*
X146775583Y-97460000D01*
X146755300Y-97254066D01*
X146695232Y-97056046D01*
X146597685Y-96873550D01*
X146516833Y-96775031D01*
X146466410Y-96713589D01*
X146316121Y-96590252D01*
X146306450Y-96582315D01*
X146123954Y-96484768D01*
X145925934Y-96424700D01*
X145925932Y-96424699D01*
X145925934Y-96424699D01*
X145720000Y-96404417D01*
X145514067Y-96424699D01*
X145316043Y-96484769D01*
X145243743Y-96523415D01*
X145133550Y-96582315D01*
X145133548Y-96582316D01*
X145133547Y-96582317D01*
X144973589Y-96713589D01*
X144842317Y-96873547D01*
X144744767Y-97056046D01*
X144724593Y-97122552D01*
X144686296Y-97180990D01*
X144622483Y-97209447D01*
X144553416Y-97198886D01*
X144501023Y-97152661D01*
X144486158Y-97118649D01*
X144453433Y-96996516D01*
X144453429Y-96996507D01*
X144353600Y-96782422D01*
X144353599Y-96782420D01*
X144218113Y-96588926D01*
X144218108Y-96588920D01*
X144051082Y-96421894D01*
X143857578Y-96286399D01*
X143643492Y-96186570D01*
X143643486Y-96186567D01*
X143430000Y-96129364D01*
X143430000Y-97024498D01*
X143322315Y-96975320D01*
X143215763Y-96960000D01*
X143144237Y-96960000D01*
X143037685Y-96975320D01*
X142930000Y-97024498D01*
X142930000Y-96129364D01*
X142929999Y-96129364D01*
X142716513Y-96186567D01*
X142716507Y-96186570D01*
X142502422Y-96286399D01*
X142502420Y-96286400D01*
X142308926Y-96421886D01*
X142308920Y-96421891D01*
X142141891Y-96588920D01*
X142141890Y-96588922D01*
X142011575Y-96775031D01*
X141956998Y-96818655D01*
X141887499Y-96825848D01*
X141825145Y-96794326D01*
X141808425Y-96775031D01*
X141678109Y-96588922D01*
X141678108Y-96588920D01*
X141511082Y-96421894D01*
X141317578Y-96286399D01*
X141103492Y-96186570D01*
X141103486Y-96186567D01*
X140890000Y-96129364D01*
X140890000Y-97024498D01*
X140782315Y-96975320D01*
X140675763Y-96960000D01*
X140604237Y-96960000D01*
X140497685Y-96975320D01*
X140390000Y-97024498D01*
X140390000Y-96129364D01*
X140389999Y-96129364D01*
X140176513Y-96186567D01*
X140176507Y-96186570D01*
X139962422Y-96286399D01*
X139962420Y-96286400D01*
X139768926Y-96421886D01*
X139768920Y-96421891D01*
X139601891Y-96588920D01*
X139601886Y-96588926D01*
X139466400Y-96782420D01*
X139466399Y-96782422D01*
X139366570Y-96996507D01*
X139366567Y-96996514D01*
X139333841Y-97118650D01*
X139297476Y-97178310D01*
X139234629Y-97208839D01*
X139165253Y-97200544D01*
X139111375Y-97156059D01*
X139095406Y-97122552D01*
X139075232Y-97056046D01*
X138977685Y-96873550D01*
X138896833Y-96775031D01*
X138846410Y-96713589D01*
X138696121Y-96590252D01*
X138686450Y-96582315D01*
X138503954Y-96484768D01*
X138305934Y-96424700D01*
X138305932Y-96424699D01*
X138305934Y-96424699D01*
X138118463Y-96406235D01*
X138100000Y-96404417D01*
X138099999Y-96404417D01*
X137894067Y-96424699D01*
X137696043Y-96484769D01*
X137623743Y-96523415D01*
X137513550Y-96582315D01*
X137513548Y-96582316D01*
X137513547Y-96582317D01*
X137353589Y-96713589D01*
X137222317Y-96873547D01*
X137124769Y-97056043D01*
X137064699Y-97254067D01*
X137044417Y-97460000D01*
X137064699Y-97665932D01*
X137093544Y-97761022D01*
X137124768Y-97863954D01*
X137222315Y-98046450D01*
X137282294Y-98119535D01*
X137349836Y-98201836D01*
X137377148Y-98266146D01*
X137365357Y-98335013D01*
X137318204Y-98386573D01*
X137253982Y-98404500D01*
X136406018Y-98404500D01*
X136338979Y-98384815D01*
X136293224Y-98332011D01*
X136283280Y-98262853D01*
X136310164Y-98201836D01*
X136345192Y-98159154D01*
X136437685Y-98046450D01*
X136535232Y-97863954D01*
X136595300Y-97665934D01*
X136615583Y-97460000D01*
X136595300Y-97254066D01*
X136535232Y-97056046D01*
X136437685Y-96873550D01*
X136356833Y-96775031D01*
X136306410Y-96713589D01*
X136156121Y-96590252D01*
X136146450Y-96582315D01*
X135963954Y-96484768D01*
X135765934Y-96424700D01*
X135765932Y-96424699D01*
X135765934Y-96424699D01*
X135560000Y-96404417D01*
X135354067Y-96424699D01*
X135156043Y-96484769D01*
X135083743Y-96523415D01*
X134973550Y-96582315D01*
X134973548Y-96582316D01*
X134973547Y-96582317D01*
X134813589Y-96713589D01*
X134682317Y-96873547D01*
X134584769Y-97056043D01*
X134524699Y-97254067D01*
X134504417Y-97460000D01*
X134524699Y-97665932D01*
X134553544Y-97761022D01*
X134584768Y-97863954D01*
X134682315Y-98046450D01*
X134742294Y-98119535D01*
X134809836Y-98201836D01*
X134837148Y-98266146D01*
X134825357Y-98335013D01*
X134778204Y-98386573D01*
X134713982Y-98404500D01*
X134476189Y-98404500D01*
X134409150Y-98384815D01*
X134388508Y-98368181D01*
X134021321Y-98000994D01*
X133987836Y-97939671D01*
X133992820Y-97869979D01*
X133994448Y-97865843D01*
X133995223Y-97863969D01*
X133995232Y-97863954D01*
X134055300Y-97665934D01*
X134075583Y-97460000D01*
X134055300Y-97254066D01*
X133995232Y-97056046D01*
X133897685Y-96873550D01*
X133816833Y-96775031D01*
X133766410Y-96713589D01*
X133616121Y-96590252D01*
X133606450Y-96582315D01*
X133423954Y-96484768D01*
X133225934Y-96424700D01*
X133225932Y-96424699D01*
X133225934Y-96424699D01*
X133020000Y-96404417D01*
X132814067Y-96424699D01*
X132616043Y-96484769D01*
X132543743Y-96523415D01*
X132433550Y-96582315D01*
X132433548Y-96582316D01*
X132433547Y-96582317D01*
X132273589Y-96713589D01*
X132142317Y-96873547D01*
X132044769Y-97056043D01*
X131984699Y-97254067D01*
X131964417Y-97460000D01*
X131984699Y-97665932D01*
X131991196Y-97687348D01*
X132044768Y-97863954D01*
X132044772Y-97863962D01*
X132045559Y-97865862D01*
X132045675Y-97866941D01*
X132046537Y-97869783D01*
X132045998Y-97869946D01*
X132053027Y-97935331D01*
X132021751Y-97997810D01*
X132018679Y-98000994D01*
X131746491Y-98273182D01*
X131685171Y-98306666D01*
X131658812Y-98309500D01*
X131403982Y-98309500D01*
X131336943Y-98289815D01*
X131291188Y-98237011D01*
X131281244Y-98167853D01*
X131308129Y-98106835D01*
X131336439Y-98072338D01*
X131357685Y-98046450D01*
X131455232Y-97863954D01*
X131515300Y-97665934D01*
X131535583Y-97460000D01*
X131515300Y-97254066D01*
X131455232Y-97056046D01*
X131357685Y-96873550D01*
X131276833Y-96775031D01*
X131226410Y-96713589D01*
X131076121Y-96590252D01*
X131066450Y-96582315D01*
X130883954Y-96484768D01*
X130685934Y-96424700D01*
X130685932Y-96424699D01*
X130685934Y-96424699D01*
X130498463Y-96406235D01*
X130480000Y-96404417D01*
X130479999Y-96404417D01*
X130274067Y-96424699D01*
X130076043Y-96484769D01*
X130003743Y-96523415D01*
X129893550Y-96582315D01*
X129893548Y-96582316D01*
X129893547Y-96582317D01*
X129733589Y-96713589D01*
X129602317Y-96873547D01*
X129504769Y-97056043D01*
X129444699Y-97254067D01*
X129424417Y-97460000D01*
X129444699Y-97665932D01*
X129473544Y-97761022D01*
X129504768Y-97863954D01*
X129586694Y-98017226D01*
X129602317Y-98046453D01*
X129651871Y-98106835D01*
X129679184Y-98171145D01*
X129667393Y-98240013D01*
X129620240Y-98291573D01*
X129556018Y-98309500D01*
X129114500Y-98309500D01*
X129047461Y-98289815D01*
X129001706Y-98237011D01*
X128990500Y-98185500D01*
X128990500Y-96590249D01*
X128990499Y-96590247D01*
X128978868Y-96531770D01*
X128978867Y-96531769D01*
X128934552Y-96465447D01*
X128868230Y-96421132D01*
X128868229Y-96421131D01*
X128809752Y-96409500D01*
X128809748Y-96409500D01*
X127070252Y-96409500D01*
X127070247Y-96409500D01*
X127011770Y-96421131D01*
X127011769Y-96421132D01*
X126945447Y-96465447D01*
X126901132Y-96531769D01*
X126901131Y-96531770D01*
X126889500Y-96590247D01*
X126889500Y-98185500D01*
X126869815Y-98252539D01*
X126817011Y-98298294D01*
X126765500Y-98309500D01*
X118456189Y-98309500D01*
X118389150Y-98289815D01*
X118368508Y-98273181D01*
X118105508Y-98010181D01*
X118072023Y-97948858D01*
X118077007Y-97879166D01*
X118118879Y-97823233D01*
X118184343Y-97798816D01*
X118193189Y-97798500D01*
X119969750Y-97798500D01*
X119969751Y-97798499D01*
X119984568Y-97795552D01*
X120028229Y-97786868D01*
X120028229Y-97786867D01*
X120028231Y-97786867D01*
X120094552Y-97742552D01*
X120138867Y-97676231D01*
X120138867Y-97676229D01*
X120138868Y-97676229D01*
X120150499Y-97617752D01*
X120150500Y-97617750D01*
X120150500Y-96698000D01*
X120484785Y-96698000D01*
X120503602Y-96901082D01*
X120559417Y-97097247D01*
X120559422Y-97097260D01*
X120650327Y-97279821D01*
X120773237Y-97442581D01*
X120923958Y-97579980D01*
X120923960Y-97579982D01*
X120984955Y-97617748D01*
X121097363Y-97687348D01*
X121287544Y-97761024D01*
X121488024Y-97798500D01*
X121488026Y-97798500D01*
X121691974Y-97798500D01*
X121691976Y-97798500D01*
X121892456Y-97761024D01*
X122082637Y-97687348D01*
X122256041Y-97579981D01*
X122406764Y-97442579D01*
X122529673Y-97279821D01*
X122620582Y-97097250D01*
X122676397Y-96901083D01*
X122695215Y-96698000D01*
X122691578Y-96658755D01*
X122676397Y-96494917D01*
X122655619Y-96421891D01*
X122620582Y-96298750D01*
X122614432Y-96286400D01*
X122536238Y-96129364D01*
X122529673Y-96116179D01*
X122424668Y-95977130D01*
X122406762Y-95953418D01*
X122256041Y-95816019D01*
X122256039Y-95816017D01*
X122082642Y-95708655D01*
X122082635Y-95708651D01*
X121896369Y-95636492D01*
X121892456Y-95634976D01*
X121691976Y-95597500D01*
X121488024Y-95597500D01*
X121287544Y-95634976D01*
X121287541Y-95634976D01*
X121287541Y-95634977D01*
X121097364Y-95708651D01*
X121097357Y-95708655D01*
X120923960Y-95816017D01*
X120923958Y-95816019D01*
X120773237Y-95953418D01*
X120650327Y-96116178D01*
X120559422Y-96298739D01*
X120559417Y-96298752D01*
X120503602Y-96494917D01*
X120484785Y-96697999D01*
X120484785Y-96698000D01*
X120150500Y-96698000D01*
X120150500Y-95778249D01*
X120150499Y-95778247D01*
X120138868Y-95719770D01*
X120138867Y-95719769D01*
X120094552Y-95653447D01*
X120028230Y-95609132D01*
X120028229Y-95609131D01*
X119969752Y-95597500D01*
X119969748Y-95597500D01*
X118130252Y-95597500D01*
X118130247Y-95597500D01*
X118071770Y-95609131D01*
X118071769Y-95609132D01*
X118005447Y-95653447D01*
X117961132Y-95719769D01*
X117961131Y-95719770D01*
X117949500Y-95778247D01*
X117949500Y-97554811D01*
X117929815Y-97621850D01*
X117877011Y-97667605D01*
X117807853Y-97677549D01*
X117744297Y-97648524D01*
X117737819Y-97642492D01*
X111967326Y-91872000D01*
X117028659Y-91872000D01*
X117047975Y-92068129D01*
X117105188Y-92256733D01*
X117198086Y-92430532D01*
X117198090Y-92430539D01*
X117323116Y-92582883D01*
X117475460Y-92707909D01*
X117475467Y-92707913D01*
X117649266Y-92800811D01*
X117649269Y-92800811D01*
X117649273Y-92800814D01*
X117837868Y-92858024D01*
X118034000Y-92877341D01*
X118230132Y-92858024D01*
X118418727Y-92800814D01*
X118592538Y-92707910D01*
X118744883Y-92582883D01*
X118869910Y-92430538D01*
X118962814Y-92256727D01*
X119020024Y-92068132D01*
X119039341Y-91872000D01*
X119020024Y-91675868D01*
X118962814Y-91487273D01*
X118962811Y-91487269D01*
X118962811Y-91487266D01*
X118869913Y-91313467D01*
X118869909Y-91313460D01*
X118744883Y-91161116D01*
X118592539Y-91036090D01*
X118592532Y-91036086D01*
X118418733Y-90943188D01*
X118418727Y-90943186D01*
X118230132Y-90885976D01*
X118230129Y-90885975D01*
X118034000Y-90866659D01*
X117837870Y-90885975D01*
X117649266Y-90943188D01*
X117475467Y-91036086D01*
X117475460Y-91036090D01*
X117323116Y-91161116D01*
X117198090Y-91313460D01*
X117198086Y-91313467D01*
X117105188Y-91487266D01*
X117047975Y-91675870D01*
X117028659Y-91872000D01*
X111967326Y-91872000D01*
X110461321Y-90365995D01*
X110427836Y-90304672D01*
X110432820Y-90234980D01*
X110434446Y-90230850D01*
X110435227Y-90228962D01*
X110435232Y-90228954D01*
X110495300Y-90030934D01*
X110515583Y-89825000D01*
X110495300Y-89619066D01*
X110435232Y-89421046D01*
X110435227Y-89421038D01*
X110434439Y-89419132D01*
X110434322Y-89418051D01*
X110433463Y-89415217D01*
X110434000Y-89415053D01*
X110426973Y-89349663D01*
X110458250Y-89287185D01*
X110461293Y-89284031D01*
X112918204Y-86827120D01*
X112922166Y-86823489D01*
X112953194Y-86797455D01*
X112973438Y-86762390D01*
X112976335Y-86757841D01*
X112999554Y-86724684D01*
X112999554Y-86724681D01*
X113001819Y-86719824D01*
X113008747Y-86703099D01*
X113010584Y-86698050D01*
X113010588Y-86698045D01*
X113017619Y-86658162D01*
X113018777Y-86652940D01*
X113029264Y-86613807D01*
X113025735Y-86573481D01*
X113025500Y-86568078D01*
X113025500Y-85794794D01*
X113045185Y-85727755D01*
X113091047Y-85685436D01*
X113258532Y-85595913D01*
X113258538Y-85595910D01*
X113410883Y-85470883D01*
X113535910Y-85318538D01*
X113628814Y-85144727D01*
X113686024Y-84956132D01*
X113705341Y-84760000D01*
X113686024Y-84563868D01*
X113628814Y-84375273D01*
X113628811Y-84375269D01*
X113628811Y-84375266D01*
X113535913Y-84201467D01*
X113535909Y-84201460D01*
X113410883Y-84049116D01*
X113258539Y-83924090D01*
X113258532Y-83924086D01*
X113084733Y-83831188D01*
X113084727Y-83831186D01*
X112896132Y-83773976D01*
X112896129Y-83773975D01*
X112700000Y-83754659D01*
X112503870Y-83773975D01*
X112315266Y-83831188D01*
X112141467Y-83924086D01*
X112141460Y-83924090D01*
X111989116Y-84049116D01*
X111864090Y-84201460D01*
X111864086Y-84201467D01*
X111771188Y-84375266D01*
X111713975Y-84563870D01*
X111694659Y-84760000D01*
X111713975Y-84956129D01*
X111720667Y-84978189D01*
X111748695Y-85070586D01*
X111771188Y-85144733D01*
X111864086Y-85318532D01*
X111864090Y-85318539D01*
X111989116Y-85470883D01*
X112141460Y-85595909D01*
X112141467Y-85595913D01*
X112308953Y-85685436D01*
X112358797Y-85734398D01*
X112374500Y-85794794D01*
X112374500Y-86398811D01*
X112354815Y-86465850D01*
X112338181Y-86486492D01*
X110000994Y-88823678D01*
X109939671Y-88857163D01*
X109869979Y-88852179D01*
X109865862Y-88850559D01*
X109863962Y-88849772D01*
X109863954Y-88849768D01*
X109665934Y-88789700D01*
X109665932Y-88789699D01*
X109665934Y-88789699D01*
X109460000Y-88769417D01*
X109254067Y-88789699D01*
X109145430Y-88822653D01*
X109056046Y-88849768D01*
X109056043Y-88849769D01*
X109056038Y-88849771D01*
X109054126Y-88850563D01*
X109053045Y-88850679D01*
X109050217Y-88851537D01*
X109050054Y-88851000D01*
X108984656Y-88858024D01*
X108922180Y-88826743D01*
X108919004Y-88823678D01*
X102901819Y-82806493D01*
X102868334Y-82745170D01*
X102865500Y-82718812D01*
X102865500Y-80930002D01*
X103774723Y-80930002D01*
X103793793Y-81147975D01*
X103793793Y-81147979D01*
X103850422Y-81359322D01*
X103850424Y-81359326D01*
X103850425Y-81359330D01*
X103861969Y-81384086D01*
X103942897Y-81557638D01*
X103967998Y-81593486D01*
X104068402Y-81736877D01*
X104223123Y-81891598D01*
X104402361Y-82017102D01*
X104600670Y-82109575D01*
X104812023Y-82166207D01*
X104994926Y-82182208D01*
X105029998Y-82185277D01*
X105030000Y-82185277D01*
X105030002Y-82185277D01*
X105058254Y-82182805D01*
X105247977Y-82166207D01*
X105459330Y-82109575D01*
X105657639Y-82017102D01*
X105836877Y-81891598D01*
X105991598Y-81736877D01*
X106117102Y-81557639D01*
X106209575Y-81359330D01*
X106266207Y-81147977D01*
X106284771Y-80935786D01*
X106285277Y-80930002D01*
X106285277Y-80929997D01*
X106280623Y-80876807D01*
X106266207Y-80712023D01*
X106209575Y-80500670D01*
X106117102Y-80302362D01*
X106117100Y-80302359D01*
X106117099Y-80302357D01*
X105991599Y-80123124D01*
X105938655Y-80070180D01*
X105836877Y-79968402D01*
X105657639Y-79842898D01*
X105657640Y-79842898D01*
X105657638Y-79842897D01*
X105550725Y-79793043D01*
X105459330Y-79750425D01*
X105459326Y-79750424D01*
X105459322Y-79750422D01*
X105247977Y-79693793D01*
X105030002Y-79674723D01*
X105029998Y-79674723D01*
X104884681Y-79687436D01*
X104812023Y-79693793D01*
X104812020Y-79693793D01*
X104600677Y-79750422D01*
X104600670Y-79750424D01*
X104600670Y-79750425D01*
X104575631Y-79762100D01*
X104402361Y-79842898D01*
X104402357Y-79842900D01*
X104223121Y-79968402D01*
X104068402Y-80123121D01*
X103942900Y-80302357D01*
X103942898Y-80302361D01*
X103850426Y-80500668D01*
X103850422Y-80500677D01*
X103793793Y-80712020D01*
X103793793Y-80712024D01*
X103774723Y-80929997D01*
X103774723Y-80930002D01*
X102865500Y-80930002D01*
X102865500Y-80792229D01*
X102885185Y-80725190D01*
X102937989Y-80679435D01*
X102944696Y-80676606D01*
X103021446Y-80646873D01*
X103190910Y-80541945D01*
X103338209Y-80407664D01*
X103458326Y-80248604D01*
X103547171Y-80070180D01*
X103601717Y-79878469D01*
X103620108Y-79680000D01*
X103601717Y-79481531D01*
X103547171Y-79289820D01*
X103463050Y-79120883D01*
X103458329Y-79111401D01*
X103458324Y-79111393D01*
X103338207Y-78952333D01*
X103190911Y-78818056D01*
X103190910Y-78818055D01*
X103126374Y-78778096D01*
X103021447Y-78713127D01*
X103021445Y-78713126D01*
X102939379Y-78681334D01*
X102835586Y-78641124D01*
X102835582Y-78641123D01*
X102735713Y-78622455D01*
X102639660Y-78604500D01*
X102440340Y-78604500D01*
X102350254Y-78621339D01*
X102244417Y-78641123D01*
X102244415Y-78641123D01*
X102244414Y-78641124D01*
X102220948Y-78650215D01*
X102058554Y-78713126D01*
X102058552Y-78713127D01*
X101889088Y-78818056D01*
X101741792Y-78952333D01*
X101621675Y-79111393D01*
X101621670Y-79111401D01*
X101532830Y-79289816D01*
X101532828Y-79289820D01*
X101532829Y-79289820D01*
X101483896Y-79461805D01*
X101478282Y-79481535D01*
X101459892Y-79679999D01*
X101459892Y-79680000D01*
X100075500Y-79680000D01*
X100075500Y-75180006D01*
X101160288Y-75180006D01*
X101179103Y-75407085D01*
X101179105Y-75407093D01*
X101235045Y-75627993D01*
X101326577Y-75836664D01*
X101326579Y-75836668D01*
X101406874Y-75959570D01*
X102060951Y-75305494D01*
X102085102Y-75387745D01*
X102162057Y-75507489D01*
X102269631Y-75600702D01*
X102399108Y-75659833D01*
X102411882Y-75661669D01*
X101759015Y-76314536D01*
X101759016Y-76314537D01*
X101785366Y-76335046D01*
X101785372Y-76335050D01*
X101985769Y-76443499D01*
X101985780Y-76443504D01*
X102201298Y-76517492D01*
X102426065Y-76555000D01*
X102653935Y-76555000D01*
X102878701Y-76517492D01*
X103094219Y-76443504D01*
X103094230Y-76443499D01*
X103294633Y-76335047D01*
X103320982Y-76314537D01*
X103320982Y-76314536D01*
X102668117Y-75661669D01*
X102680892Y-75659833D01*
X102810369Y-75600702D01*
X102917943Y-75507489D01*
X102994898Y-75387745D01*
X103019048Y-75305494D01*
X103673124Y-75959571D01*
X103705509Y-75910002D01*
X111395034Y-75910002D01*
X111414858Y-76136599D01*
X111414860Y-76136610D01*
X111473730Y-76356317D01*
X111473734Y-76356326D01*
X111569865Y-76562481D01*
X111569866Y-76562483D01*
X111620973Y-76635471D01*
X111620974Y-76635472D01*
X112302046Y-75954399D01*
X112314835Y-76035148D01*
X112372359Y-76148045D01*
X112461955Y-76237641D01*
X112574852Y-76295165D01*
X112655599Y-76307953D01*
X111974526Y-76989025D01*
X111974526Y-76989026D01*
X112047512Y-77040131D01*
X112047516Y-77040133D01*
X112253673Y-77136265D01*
X112253682Y-77136269D01*
X112470698Y-77194418D01*
X112530359Y-77230783D01*
X112560888Y-77293630D01*
X112552593Y-77363005D01*
X112508108Y-77416883D01*
X112474601Y-77432853D01*
X112315271Y-77481186D01*
X112141467Y-77574086D01*
X112141460Y-77574090D01*
X111989116Y-77699116D01*
X111864090Y-77851460D01*
X111864086Y-77851467D01*
X111771188Y-78025266D01*
X111713975Y-78213870D01*
X111694659Y-78410000D01*
X111713975Y-78606129D01*
X111727930Y-78652131D01*
X111746432Y-78713126D01*
X111771188Y-78794733D01*
X111864086Y-78968532D01*
X111864090Y-78968539D01*
X111989116Y-79120883D01*
X112141460Y-79245909D01*
X112141467Y-79245913D01*
X112315266Y-79338811D01*
X112315269Y-79338811D01*
X112315273Y-79338814D01*
X112503868Y-79396024D01*
X112700000Y-79415341D01*
X112896132Y-79396024D01*
X113084727Y-79338814D01*
X113258538Y-79245910D01*
X113410883Y-79120883D01*
X113535910Y-78968538D01*
X113582361Y-78881632D01*
X113628811Y-78794733D01*
X113628811Y-78794732D01*
X113628814Y-78794727D01*
X113686024Y-78606132D01*
X113705341Y-78410000D01*
X113686024Y-78213868D01*
X113628814Y-78025273D01*
X113628811Y-78025269D01*
X113628811Y-78025266D01*
X113535913Y-77851467D01*
X113535909Y-77851460D01*
X113410883Y-77699116D01*
X113258539Y-77574090D01*
X113258532Y-77574086D01*
X113084728Y-77481186D01*
X112925398Y-77432853D01*
X112866960Y-77394556D01*
X112838503Y-77330743D01*
X112849064Y-77261676D01*
X112895289Y-77209283D01*
X112929301Y-77194418D01*
X113146317Y-77136269D01*
X113146331Y-77136264D01*
X113352478Y-77040136D01*
X113425472Y-76989025D01*
X112744401Y-76307953D01*
X112825148Y-76295165D01*
X112938045Y-76237641D01*
X113027641Y-76148045D01*
X113085165Y-76035148D01*
X113097953Y-75954400D01*
X113779025Y-76635472D01*
X113830136Y-76562478D01*
X113926264Y-76356331D01*
X113926269Y-76356317D01*
X113985139Y-76136610D01*
X113985141Y-76136599D01*
X114004966Y-75910002D01*
X114004966Y-75909997D01*
X113985141Y-75683400D01*
X113985139Y-75683389D01*
X113926269Y-75463682D01*
X113926265Y-75463673D01*
X113830133Y-75257516D01*
X113830131Y-75257512D01*
X113779026Y-75184526D01*
X113779025Y-75184526D01*
X113097953Y-75865598D01*
X113085165Y-75784852D01*
X113027641Y-75671955D01*
X112938045Y-75582359D01*
X112825148Y-75524835D01*
X112744400Y-75512046D01*
X113425472Y-74830974D01*
X113425471Y-74830973D01*
X113352483Y-74779866D01*
X113352481Y-74779865D01*
X113146326Y-74683734D01*
X113146317Y-74683730D01*
X112926610Y-74624860D01*
X112926599Y-74624858D01*
X112700002Y-74605034D01*
X112699998Y-74605034D01*
X112473400Y-74624858D01*
X112473389Y-74624860D01*
X112253682Y-74683730D01*
X112253673Y-74683734D01*
X112047513Y-74779868D01*
X111974527Y-74830972D01*
X111974526Y-74830973D01*
X112655600Y-75512046D01*
X112574852Y-75524835D01*
X112461955Y-75582359D01*
X112372359Y-75671955D01*
X112314835Y-75784852D01*
X112302046Y-75865599D01*
X111620973Y-75184526D01*
X111620972Y-75184527D01*
X111569868Y-75257513D01*
X111473734Y-75463673D01*
X111473730Y-75463682D01*
X111414860Y-75683389D01*
X111414858Y-75683400D01*
X111395034Y-75909997D01*
X111395034Y-75910002D01*
X103705509Y-75910002D01*
X103753420Y-75836669D01*
X103844954Y-75627993D01*
X103900894Y-75407093D01*
X103900896Y-75407085D01*
X103919712Y-75180006D01*
X103919712Y-75179993D01*
X103900896Y-74952914D01*
X103900894Y-74952906D01*
X103877995Y-74862479D01*
X103880620Y-74792658D01*
X103920576Y-74735341D01*
X103985177Y-74708724D01*
X104053913Y-74721258D01*
X104085882Y-74744356D01*
X104223123Y-74881598D01*
X104402361Y-75007102D01*
X104600670Y-75099575D01*
X104812023Y-75156207D01*
X104994926Y-75172208D01*
X105029998Y-75175277D01*
X105030000Y-75175277D01*
X105030002Y-75175277D01*
X105058254Y-75172805D01*
X105247977Y-75156207D01*
X105459330Y-75099575D01*
X105657639Y-75007102D01*
X105836877Y-74881598D01*
X105991598Y-74726877D01*
X106117102Y-74547639D01*
X106209575Y-74349330D01*
X106266207Y-74137977D01*
X106285277Y-73920000D01*
X106284970Y-73916495D01*
X106278497Y-73842507D01*
X106266207Y-73702023D01*
X106209575Y-73490670D01*
X106117102Y-73292362D01*
X106117100Y-73292359D01*
X106117099Y-73292357D01*
X105991599Y-73113124D01*
X105924499Y-73046024D01*
X105836877Y-72958402D01*
X105657639Y-72832898D01*
X105657640Y-72832898D01*
X105657638Y-72832897D01*
X105524647Y-72770883D01*
X105459330Y-72740425D01*
X105459326Y-72740424D01*
X105459322Y-72740422D01*
X105247977Y-72683793D01*
X105030002Y-72664723D01*
X105029998Y-72664723D01*
X104884681Y-72677436D01*
X104812023Y-72683793D01*
X104812020Y-72683793D01*
X104600677Y-72740422D01*
X104600668Y-72740426D01*
X104402361Y-72832898D01*
X104402357Y-72832900D01*
X104223121Y-72958402D01*
X104068402Y-73113121D01*
X103942900Y-73292357D01*
X103942898Y-73292361D01*
X103850426Y-73490668D01*
X103850422Y-73490677D01*
X103793793Y-73702020D01*
X103793793Y-73702023D01*
X103792065Y-73721770D01*
X103774723Y-73919997D01*
X103774723Y-73920002D01*
X103793793Y-74137975D01*
X103793793Y-74137979D01*
X103822948Y-74246786D01*
X103821285Y-74316636D01*
X103782122Y-74374498D01*
X103717894Y-74402002D01*
X103690382Y-74402217D01*
X103673125Y-74400427D01*
X103019048Y-75054502D01*
X102994898Y-74972255D01*
X102917943Y-74852511D01*
X102810369Y-74759298D01*
X102680892Y-74700167D01*
X102668116Y-74698330D01*
X103320983Y-74045462D01*
X103320983Y-74045461D01*
X103294632Y-74024952D01*
X103294627Y-74024949D01*
X103094230Y-73916500D01*
X103094219Y-73916495D01*
X102878701Y-73842507D01*
X102653935Y-73805000D01*
X102426065Y-73805000D01*
X102201298Y-73842507D01*
X101985780Y-73916495D01*
X101985769Y-73916500D01*
X101785373Y-74024948D01*
X101759016Y-74045462D01*
X102411884Y-74698330D01*
X102399108Y-74700167D01*
X102269631Y-74759298D01*
X102162057Y-74852511D01*
X102085102Y-74972255D01*
X102060951Y-75054505D01*
X101406874Y-74400428D01*
X101326578Y-74523333D01*
X101326577Y-74523335D01*
X101235045Y-74732006D01*
X101179105Y-74952906D01*
X101179103Y-74952914D01*
X101160288Y-75179993D01*
X101160288Y-75180006D01*
X100075500Y-75180006D01*
X100075500Y-67550005D01*
X101305057Y-67550005D01*
X101324807Y-67863942D01*
X101324808Y-67863949D01*
X101383755Y-68172958D01*
X101480963Y-68472132D01*
X101480965Y-68472137D01*
X101614900Y-68756761D01*
X101614903Y-68756767D01*
X101783457Y-69022367D01*
X101783460Y-69022371D01*
X101874286Y-69132160D01*
X102839438Y-68167007D01*
X102888348Y-68245999D01*
X103031931Y-68403501D01*
X103190388Y-68523163D01*
X102224971Y-69488579D01*
X102224972Y-69488581D01*
X102467772Y-69664985D01*
X102467790Y-69664996D01*
X102743447Y-69816540D01*
X102743455Y-69816544D01*
X103035926Y-69932340D01*
X103340620Y-70010573D01*
X103340629Y-70010575D01*
X103652701Y-70049999D01*
X103652715Y-70050000D01*
X103967285Y-70050000D01*
X103967298Y-70049999D01*
X104279370Y-70010575D01*
X104279379Y-70010573D01*
X104584073Y-69932340D01*
X104876544Y-69816544D01*
X104876552Y-69816540D01*
X105152209Y-69664996D01*
X105152219Y-69664990D01*
X105296721Y-69560002D01*
X111395034Y-69560002D01*
X111414858Y-69786599D01*
X111414860Y-69786610D01*
X111473730Y-70006317D01*
X111473734Y-70006326D01*
X111569865Y-70212481D01*
X111569866Y-70212483D01*
X111620973Y-70285471D01*
X111620974Y-70285472D01*
X112302046Y-69604399D01*
X112314835Y-69685148D01*
X112372359Y-69798045D01*
X112461955Y-69887641D01*
X112574852Y-69945165D01*
X112655599Y-69957953D01*
X111974526Y-70639025D01*
X111974526Y-70639026D01*
X112047512Y-70690131D01*
X112047516Y-70690133D01*
X112253673Y-70786265D01*
X112253682Y-70786269D01*
X112470698Y-70844418D01*
X112530359Y-70880783D01*
X112560888Y-70943630D01*
X112552593Y-71013005D01*
X112508108Y-71066883D01*
X112474601Y-71082853D01*
X112315271Y-71131186D01*
X112141467Y-71224086D01*
X112141460Y-71224090D01*
X111989116Y-71349116D01*
X111864090Y-71501460D01*
X111864086Y-71501467D01*
X111771188Y-71675266D01*
X111713975Y-71863870D01*
X111694659Y-72060000D01*
X111713975Y-72256129D01*
X111771188Y-72444733D01*
X111864086Y-72618532D01*
X111864090Y-72618539D01*
X111989116Y-72770883D01*
X112141460Y-72895909D01*
X112141467Y-72895913D01*
X112315266Y-72988811D01*
X112315269Y-72988811D01*
X112315273Y-72988814D01*
X112503868Y-73046024D01*
X112700000Y-73065341D01*
X112896132Y-73046024D01*
X113084727Y-72988814D01*
X113258538Y-72895910D01*
X113410883Y-72770883D01*
X113535910Y-72618538D01*
X113628814Y-72444727D01*
X113686024Y-72256132D01*
X113705341Y-72060000D01*
X113686024Y-71863868D01*
X113628814Y-71675273D01*
X113628811Y-71675269D01*
X113628811Y-71675266D01*
X113535913Y-71501467D01*
X113535909Y-71501460D01*
X113410883Y-71349116D01*
X113258539Y-71224090D01*
X113258532Y-71224086D01*
X113084728Y-71131186D01*
X112925398Y-71082853D01*
X112866960Y-71044556D01*
X112838503Y-70980743D01*
X112849064Y-70911676D01*
X112895289Y-70859283D01*
X112929301Y-70844418D01*
X113146317Y-70786269D01*
X113146331Y-70786264D01*
X113352478Y-70690136D01*
X113425472Y-70639025D01*
X112744401Y-69957953D01*
X112825148Y-69945165D01*
X112938045Y-69887641D01*
X113027641Y-69798045D01*
X113085165Y-69685148D01*
X113097953Y-69604400D01*
X113779025Y-70285472D01*
X113830136Y-70212478D01*
X113926264Y-70006331D01*
X113926269Y-70006317D01*
X113985139Y-69786610D01*
X113985141Y-69786599D01*
X114004966Y-69560002D01*
X114004966Y-69559997D01*
X113985141Y-69333400D01*
X113985139Y-69333389D01*
X113926269Y-69113682D01*
X113926265Y-69113673D01*
X113830133Y-68907516D01*
X113830131Y-68907512D01*
X113779026Y-68834526D01*
X113779025Y-68834526D01*
X113097953Y-69515598D01*
X113085165Y-69434852D01*
X113027641Y-69321955D01*
X112938045Y-69232359D01*
X112825148Y-69174835D01*
X112744400Y-69162046D01*
X113425472Y-68480974D01*
X113425471Y-68480973D01*
X113352483Y-68429866D01*
X113352481Y-68429865D01*
X113146326Y-68333734D01*
X113146317Y-68333730D01*
X112926610Y-68274860D01*
X112926599Y-68274858D01*
X112700002Y-68255034D01*
X112699998Y-68255034D01*
X112473400Y-68274858D01*
X112473389Y-68274860D01*
X112253682Y-68333730D01*
X112253673Y-68333734D01*
X112047513Y-68429868D01*
X111974527Y-68480972D01*
X111974526Y-68480973D01*
X112655600Y-69162046D01*
X112574852Y-69174835D01*
X112461955Y-69232359D01*
X112372359Y-69321955D01*
X112314835Y-69434852D01*
X112302046Y-69515599D01*
X111620973Y-68834526D01*
X111620972Y-68834527D01*
X111569868Y-68907513D01*
X111473734Y-69113673D01*
X111473730Y-69113682D01*
X111414860Y-69333389D01*
X111414858Y-69333400D01*
X111395034Y-69559997D01*
X111395034Y-69560002D01*
X105296721Y-69560002D01*
X105395026Y-69488579D01*
X105395027Y-69488579D01*
X104429611Y-68523163D01*
X104588069Y-68403501D01*
X104731652Y-68245999D01*
X104780560Y-68167008D01*
X105745712Y-69132160D01*
X105836544Y-69022364D01*
X106005096Y-68756767D01*
X106005099Y-68756761D01*
X106139034Y-68472137D01*
X106139036Y-68472132D01*
X106236244Y-68172958D01*
X106295191Y-67863949D01*
X106295192Y-67863942D01*
X106314943Y-67550005D01*
X106314943Y-67549994D01*
X106295192Y-67236057D01*
X106295191Y-67236050D01*
X106236244Y-66927041D01*
X106139036Y-66627867D01*
X106139034Y-66627862D01*
X106005099Y-66343238D01*
X106005096Y-66343232D01*
X105836542Y-66077632D01*
X105836539Y-66077628D01*
X105745712Y-65967838D01*
X104780560Y-66932991D01*
X104731652Y-66854001D01*
X104588069Y-66696499D01*
X104429611Y-66576836D01*
X105395027Y-65611419D01*
X105395026Y-65611417D01*
X105152227Y-65435014D01*
X105152209Y-65435003D01*
X104876552Y-65283459D01*
X104876544Y-65283455D01*
X104584073Y-65167659D01*
X104279379Y-65089426D01*
X104279370Y-65089424D01*
X103967298Y-65050000D01*
X103652701Y-65050000D01*
X103340629Y-65089424D01*
X103340620Y-65089426D01*
X103035926Y-65167659D01*
X102743455Y-65283455D01*
X102743447Y-65283459D01*
X102467787Y-65435004D01*
X102467782Y-65435007D01*
X102224972Y-65611418D01*
X102224971Y-65611419D01*
X103190388Y-66576836D01*
X103031931Y-66696499D01*
X102888348Y-66854001D01*
X102839439Y-66932991D01*
X101874286Y-65967838D01*
X101874285Y-65967838D01*
X101783459Y-66077629D01*
X101783457Y-66077632D01*
X101614903Y-66343232D01*
X101614900Y-66343238D01*
X101480965Y-66627862D01*
X101480963Y-66627867D01*
X101383755Y-66927041D01*
X101324808Y-67236050D01*
X101324807Y-67236057D01*
X101305057Y-67549994D01*
X101305057Y-67550005D01*
X100075500Y-67550005D01*
X100075500Y-64400002D01*
X111395034Y-64400002D01*
X111414858Y-64626599D01*
X111414860Y-64626610D01*
X111473730Y-64846317D01*
X111473734Y-64846326D01*
X111569865Y-65052481D01*
X111569866Y-65052483D01*
X111620973Y-65125471D01*
X111620974Y-65125472D01*
X112302046Y-64444399D01*
X112314835Y-64525148D01*
X112372359Y-64638045D01*
X112461955Y-64727641D01*
X112574852Y-64785165D01*
X112655599Y-64797953D01*
X111974526Y-65479025D01*
X111974526Y-65479026D01*
X112047512Y-65530131D01*
X112047516Y-65530133D01*
X112253673Y-65626265D01*
X112253682Y-65626269D01*
X112473389Y-65685139D01*
X112473400Y-65685141D01*
X112699998Y-65704966D01*
X112700002Y-65704966D01*
X112926599Y-65685141D01*
X112926610Y-65685139D01*
X113146317Y-65626269D01*
X113146331Y-65626264D01*
X113352478Y-65530136D01*
X113425472Y-65479025D01*
X112744401Y-64797953D01*
X112825148Y-64785165D01*
X112938045Y-64727641D01*
X113027641Y-64638045D01*
X113085165Y-64525148D01*
X113097953Y-64444400D01*
X113779025Y-65125472D01*
X113830136Y-65052478D01*
X113926264Y-64846331D01*
X113926269Y-64846317D01*
X113985139Y-64626610D01*
X113985141Y-64626599D01*
X114004966Y-64400002D01*
X114004966Y-64399997D01*
X113985141Y-64173400D01*
X113985139Y-64173389D01*
X113926269Y-63953682D01*
X113926265Y-63953673D01*
X113830133Y-63747516D01*
X113830131Y-63747512D01*
X113779026Y-63674526D01*
X113779025Y-63674526D01*
X113097953Y-64355598D01*
X113085165Y-64274852D01*
X113027641Y-64161955D01*
X112938045Y-64072359D01*
X112825148Y-64014835D01*
X112744400Y-64002046D01*
X113425472Y-63320974D01*
X113425471Y-63320973D01*
X113352483Y-63269866D01*
X113352481Y-63269865D01*
X113146326Y-63173734D01*
X113146317Y-63173730D01*
X112926610Y-63114860D01*
X112926599Y-63114858D01*
X112700002Y-63095034D01*
X112699998Y-63095034D01*
X112473400Y-63114858D01*
X112473389Y-63114860D01*
X112253682Y-63173730D01*
X112253673Y-63173734D01*
X112047513Y-63269868D01*
X111974527Y-63320972D01*
X111974526Y-63320973D01*
X112655600Y-64002046D01*
X112574852Y-64014835D01*
X112461955Y-64072359D01*
X112372359Y-64161955D01*
X112314835Y-64274852D01*
X112302046Y-64355599D01*
X111620973Y-63674526D01*
X111620972Y-63674527D01*
X111569868Y-63747513D01*
X111473734Y-63953673D01*
X111473730Y-63953682D01*
X111414860Y-64173389D01*
X111414858Y-64173400D01*
X111395034Y-64399997D01*
X111395034Y-64400002D01*
X100075500Y-64400002D01*
X100075500Y-62800002D01*
X105365034Y-62800002D01*
X105384858Y-63026599D01*
X105384860Y-63026610D01*
X105443730Y-63246317D01*
X105443734Y-63246326D01*
X105539865Y-63452481D01*
X105539866Y-63452483D01*
X105590973Y-63525471D01*
X105590973Y-63525472D01*
X106207063Y-62909381D01*
X106233481Y-62999351D01*
X106307327Y-63114258D01*
X106410555Y-63203705D01*
X106534801Y-63260446D01*
X106559548Y-63264004D01*
X105944526Y-63879025D01*
X105944526Y-63879026D01*
X106017512Y-63930131D01*
X106017516Y-63930133D01*
X106223673Y-64026265D01*
X106223682Y-64026269D01*
X106443389Y-64085139D01*
X106443400Y-64085141D01*
X106669998Y-64104966D01*
X106670002Y-64104966D01*
X106896599Y-64085141D01*
X106896610Y-64085139D01*
X107116317Y-64026269D01*
X107116331Y-64026264D01*
X107322478Y-63930136D01*
X107395472Y-63879025D01*
X106780451Y-63264004D01*
X106805199Y-63260446D01*
X106929445Y-63203705D01*
X107032673Y-63114258D01*
X107106519Y-62999351D01*
X107132935Y-62909382D01*
X107633181Y-63409627D01*
X107666666Y-63470950D01*
X107669500Y-63497308D01*
X107669500Y-63619752D01*
X107681131Y-63678229D01*
X107681132Y-63678230D01*
X107725447Y-63744552D01*
X107791769Y-63788867D01*
X107791770Y-63788868D01*
X107850247Y-63800499D01*
X107850250Y-63800500D01*
X107850252Y-63800500D01*
X109489750Y-63800500D01*
X109489751Y-63800499D01*
X109504568Y-63797552D01*
X109548229Y-63788868D01*
X109548229Y-63788867D01*
X109548231Y-63788867D01*
X109614552Y-63744552D01*
X109658867Y-63678231D01*
X109658867Y-63678229D01*
X109658868Y-63678229D01*
X109667552Y-63634568D01*
X109670500Y-63619748D01*
X109670500Y-63460513D01*
X109690185Y-63393474D01*
X109724061Y-63358463D01*
X109767926Y-63328185D01*
X109767925Y-63328185D01*
X109767929Y-63328183D01*
X109880734Y-63200852D01*
X109959790Y-63050225D01*
X110000500Y-62885056D01*
X110000500Y-62714944D01*
X109959790Y-62549775D01*
X109957688Y-62545770D01*
X109880736Y-62399150D01*
X109840447Y-62353673D01*
X109767929Y-62271817D01*
X109724057Y-62241534D01*
X109680069Y-62187252D01*
X109670500Y-62139486D01*
X109670500Y-61980249D01*
X109670499Y-61980247D01*
X109658868Y-61921770D01*
X109658867Y-61921769D01*
X109614552Y-61855447D01*
X109548230Y-61811132D01*
X109548229Y-61811131D01*
X109489752Y-61799500D01*
X109489748Y-61799500D01*
X107850252Y-61799500D01*
X107850247Y-61799500D01*
X107791770Y-61811131D01*
X107791769Y-61811132D01*
X107725447Y-61855447D01*
X107681132Y-61921769D01*
X107681131Y-61921770D01*
X107669500Y-61980247D01*
X107669500Y-62102691D01*
X107649815Y-62169730D01*
X107633181Y-62190372D01*
X107132935Y-62690617D01*
X107106519Y-62600649D01*
X107032673Y-62485742D01*
X106929445Y-62396295D01*
X106805199Y-62339554D01*
X106780451Y-62335995D01*
X107395472Y-61720974D01*
X107395471Y-61720973D01*
X107322483Y-61669866D01*
X107322481Y-61669865D01*
X107116326Y-61573734D01*
X107116320Y-61573731D01*
X106899300Y-61515581D01*
X106839640Y-61479216D01*
X106809111Y-61416369D01*
X106817406Y-61346993D01*
X106861891Y-61293115D01*
X106895393Y-61277147D01*
X107054727Y-61228814D01*
X107228538Y-61135910D01*
X107380883Y-61010883D01*
X107505910Y-60858538D01*
X107518657Y-60834690D01*
X107560642Y-60756143D01*
X107609604Y-60706299D01*
X107677742Y-60690838D01*
X107743421Y-60714670D01*
X107779358Y-60756143D01*
X107834086Y-60858532D01*
X107834090Y-60858539D01*
X107959116Y-61010883D01*
X108111460Y-61135909D01*
X108111467Y-61135913D01*
X108285266Y-61228811D01*
X108285269Y-61228811D01*
X108285273Y-61228814D01*
X108473868Y-61286024D01*
X108670000Y-61305341D01*
X108866132Y-61286024D01*
X109054727Y-61228814D01*
X109228538Y-61135910D01*
X109380883Y-61010883D01*
X109505910Y-60858538D01*
X109598814Y-60684727D01*
X109656024Y-60496132D01*
X109675341Y-60300000D01*
X109656024Y-60103868D01*
X109598814Y-59915273D01*
X109598811Y-59915269D01*
X109598811Y-59915266D01*
X109505913Y-59741467D01*
X109505909Y-59741460D01*
X109380883Y-59589116D01*
X109228539Y-59464090D01*
X109228532Y-59464086D01*
X109108636Y-59400000D01*
X111694659Y-59400000D01*
X111713975Y-59596129D01*
X111771188Y-59784733D01*
X111864086Y-59958532D01*
X111864090Y-59958539D01*
X111989116Y-60110883D01*
X112141460Y-60235909D01*
X112141467Y-60235913D01*
X112315266Y-60328811D01*
X112315269Y-60328811D01*
X112315273Y-60328814D01*
X112503868Y-60386024D01*
X112700000Y-60405341D01*
X112896132Y-60386024D01*
X113084727Y-60328814D01*
X113258538Y-60235910D01*
X113410883Y-60110883D01*
X113535910Y-59958538D01*
X113628814Y-59784727D01*
X113686024Y-59596132D01*
X113705341Y-59400000D01*
X113686024Y-59203868D01*
X113628814Y-59015273D01*
X113628811Y-59015269D01*
X113628811Y-59015266D01*
X113535913Y-58841467D01*
X113535909Y-58841460D01*
X113410883Y-58689116D01*
X113258539Y-58564090D01*
X113258532Y-58564086D01*
X113084733Y-58471188D01*
X113084727Y-58471186D01*
X112896132Y-58413976D01*
X112896129Y-58413975D01*
X112700000Y-58394659D01*
X112503870Y-58413975D01*
X112315266Y-58471188D01*
X112141467Y-58564086D01*
X112141460Y-58564090D01*
X111989116Y-58689116D01*
X111864090Y-58841460D01*
X111864086Y-58841467D01*
X111771188Y-59015266D01*
X111713975Y-59203870D01*
X111694659Y-59400000D01*
X109108636Y-59400000D01*
X109054733Y-59371188D01*
X109054727Y-59371186D01*
X108893342Y-59322230D01*
X108866129Y-59313975D01*
X108670000Y-59294659D01*
X108473870Y-59313975D01*
X108285266Y-59371188D01*
X108111467Y-59464086D01*
X108111460Y-59464090D01*
X107959116Y-59589116D01*
X107834090Y-59741460D01*
X107834085Y-59741467D01*
X107779358Y-59843856D01*
X107730396Y-59893701D01*
X107662258Y-59909161D01*
X107596578Y-59885329D01*
X107560642Y-59843856D01*
X107505914Y-59741467D01*
X107505909Y-59741460D01*
X107380883Y-59589116D01*
X107228539Y-59464090D01*
X107228532Y-59464086D01*
X107054733Y-59371188D01*
X107054727Y-59371186D01*
X106893342Y-59322230D01*
X106866129Y-59313975D01*
X106670000Y-59294659D01*
X106473870Y-59313975D01*
X106285266Y-59371188D01*
X106111467Y-59464086D01*
X106111460Y-59464090D01*
X105959116Y-59589116D01*
X105834090Y-59741460D01*
X105834086Y-59741467D01*
X105741188Y-59915266D01*
X105683975Y-60103870D01*
X105664659Y-60300000D01*
X105683975Y-60496129D01*
X105741188Y-60684733D01*
X105834086Y-60858532D01*
X105834090Y-60858539D01*
X105959116Y-61010883D01*
X106111460Y-61135909D01*
X106111467Y-61135913D01*
X106285268Y-61228812D01*
X106285270Y-61228812D01*
X106285273Y-61228814D01*
X106444601Y-61277146D01*
X106503039Y-61315443D01*
X106531495Y-61379255D01*
X106520935Y-61448322D01*
X106474711Y-61500716D01*
X106440699Y-61515581D01*
X106223680Y-61573731D01*
X106223673Y-61573734D01*
X106017513Y-61669868D01*
X105944527Y-61720972D01*
X105944526Y-61720973D01*
X106559549Y-62335995D01*
X106534801Y-62339554D01*
X106410555Y-62396295D01*
X106307327Y-62485742D01*
X106233481Y-62600649D01*
X106207064Y-62690616D01*
X105590973Y-62074526D01*
X105539868Y-62147513D01*
X105443734Y-62353673D01*
X105443730Y-62353682D01*
X105384860Y-62573389D01*
X105384858Y-62573400D01*
X105365034Y-62799997D01*
X105365034Y-62800002D01*
X100075500Y-62800002D01*
X100075500Y-55550005D01*
X101305057Y-55550005D01*
X101324807Y-55863942D01*
X101324808Y-55863949D01*
X101383755Y-56172958D01*
X101480963Y-56472132D01*
X101480965Y-56472137D01*
X101614900Y-56756761D01*
X101614903Y-56756767D01*
X101783457Y-57022367D01*
X101783460Y-57022371D01*
X101874286Y-57132160D01*
X102839438Y-56167007D01*
X102888348Y-56245999D01*
X103031931Y-56403501D01*
X103190388Y-56523163D01*
X102224971Y-57488579D01*
X102224972Y-57488581D01*
X102467772Y-57664985D01*
X102467790Y-57664996D01*
X102743447Y-57816540D01*
X102743455Y-57816544D01*
X103035926Y-57932340D01*
X103340620Y-58010573D01*
X103340629Y-58010575D01*
X103652701Y-58049999D01*
X103652715Y-58050000D01*
X103967285Y-58050000D01*
X103967298Y-58049999D01*
X104279370Y-58010575D01*
X104279379Y-58010573D01*
X104584073Y-57932340D01*
X104876544Y-57816544D01*
X104876552Y-57816540D01*
X105152209Y-57664996D01*
X105152219Y-57664990D01*
X105395026Y-57488579D01*
X105395027Y-57488579D01*
X104429611Y-56523163D01*
X104588069Y-56403501D01*
X104731652Y-56245999D01*
X104780560Y-56167008D01*
X105745712Y-57132160D01*
X105836544Y-57022364D01*
X106005096Y-56756767D01*
X106005099Y-56756761D01*
X106139034Y-56472137D01*
X106139036Y-56472132D01*
X106236244Y-56172958D01*
X106295191Y-55863949D01*
X106295192Y-55863942D01*
X106314943Y-55550005D01*
X106314943Y-55549994D01*
X106295192Y-55236057D01*
X106295191Y-55236050D01*
X106236244Y-54927041D01*
X106139036Y-54627867D01*
X106139034Y-54627862D01*
X106005099Y-54343238D01*
X106005096Y-54343232D01*
X105836542Y-54077632D01*
X105836539Y-54077628D01*
X105745712Y-53967838D01*
X104780560Y-54932991D01*
X104731652Y-54854001D01*
X104588069Y-54696499D01*
X104429611Y-54576836D01*
X105395027Y-53611419D01*
X105395026Y-53611417D01*
X105152227Y-53435014D01*
X105152209Y-53435003D01*
X104876552Y-53283459D01*
X104876544Y-53283455D01*
X104584073Y-53167659D01*
X104279379Y-53089426D01*
X104279370Y-53089424D01*
X103967298Y-53050000D01*
X103652701Y-53050000D01*
X103340629Y-53089424D01*
X103340620Y-53089426D01*
X103035926Y-53167659D01*
X102743455Y-53283455D01*
X102743447Y-53283459D01*
X102467787Y-53435004D01*
X102467782Y-53435007D01*
X102224972Y-53611418D01*
X102224971Y-53611419D01*
X103190388Y-54576836D01*
X103031931Y-54696499D01*
X102888348Y-54854001D01*
X102839439Y-54932991D01*
X101874286Y-53967838D01*
X101874285Y-53967838D01*
X101783459Y-54077629D01*
X101783457Y-54077632D01*
X101614903Y-54343232D01*
X101614900Y-54343238D01*
X101480965Y-54627862D01*
X101480963Y-54627867D01*
X101383755Y-54927041D01*
X101324808Y-55236050D01*
X101324807Y-55236057D01*
X101305057Y-55549994D01*
X101305057Y-55550005D01*
X100075500Y-55550005D01*
X100075500Y-47425048D01*
X100075799Y-47418967D01*
X100087494Y-47300222D01*
X100092234Y-47276389D01*
X100124216Y-47170959D01*
X100133508Y-47148526D01*
X100185442Y-47051365D01*
X100198938Y-47031166D01*
X100268827Y-46946006D01*
X100286006Y-46928827D01*
X100371166Y-46858938D01*
X100391365Y-46845442D01*
X100488526Y-46793508D01*
X100510959Y-46784216D01*
X100616389Y-46752234D01*
X100640220Y-46747494D01*
X100670605Y-46744501D01*
X100758968Y-46735799D01*
X100765049Y-46735500D01*
X100786531Y-46735500D01*
X163417365Y-46735500D01*
X163484404Y-46755185D01*
G37*
%TD.AperFunction*%
%TD*%
M02*
