%TF.GenerationSoftware,KiCad,Pcbnew,7.0.5*%
%TF.CreationDate,2023-11-13T20:32:54+01:00*%
%TF.ProjectId,atmega328p_dev_board,61746d65-6761-4333-9238-705f6465765f,rev?*%
%TF.SameCoordinates,Original*%
%TF.FileFunction,Soldermask,Bot*%
%TF.FilePolarity,Negative*%
%FSLAX46Y46*%
G04 Gerber Fmt 4.6, Leading zero omitted, Abs format (unit mm)*
G04 Created by KiCad (PCBNEW 7.0.5) date 2023-11-13 20:32:54*
%MOMM*%
%LPD*%
G01*
G04 APERTURE LIST*
%ADD10R,1.700000X1.700000*%
%ADD11O,1.700000X1.700000*%
%ADD12R,1.600000X1.600000*%
%ADD13O,1.600000X1.600000*%
%ADD14R,1.800000X1.800000*%
%ADD15C,1.800000*%
%ADD16C,3.200000*%
%ADD17C,1.600000*%
%ADD18C,4.000000*%
%ADD19C,1.500000*%
%ADD20C,2.100000*%
%ADD21C,1.750000*%
G04 APERTURE END LIST*
D10*
%TO.C,J1*%
X127940000Y-97460000D03*
D11*
X130480000Y-97460000D03*
X133020000Y-97460000D03*
X135560000Y-97460000D03*
X138100000Y-97460000D03*
X140640000Y-97460000D03*
X143180000Y-97460000D03*
X145720000Y-97460000D03*
%TD*%
D10*
%TO.C,J3*%
X150800000Y-97460000D03*
D11*
X153340000Y-97460000D03*
X155880000Y-97460000D03*
X158420000Y-97460000D03*
X160960000Y-97460000D03*
X163500000Y-97460000D03*
%TD*%
D10*
%TO.C,J2*%
X118796000Y-49200000D03*
D11*
X121336000Y-49200000D03*
X123876000Y-49200000D03*
X126416000Y-49200000D03*
X128956000Y-49200000D03*
X131496000Y-49200000D03*
X134036000Y-49200000D03*
X136576000Y-49200000D03*
X139116000Y-49200000D03*
X141656000Y-49200000D03*
%TD*%
D10*
%TO.C,J4*%
X145720000Y-49200000D03*
D11*
X148260000Y-49200000D03*
X150800000Y-49200000D03*
X153340000Y-49200000D03*
X155880000Y-49200000D03*
X158420000Y-49200000D03*
X160960000Y-49200000D03*
X163500000Y-49200000D03*
%TD*%
D12*
%TO.C,U1*%
X163500000Y-74600000D03*
D13*
X160960000Y-74600000D03*
X158420000Y-74600000D03*
X155880000Y-74600000D03*
X153340000Y-74600000D03*
X150800000Y-74600000D03*
X148260000Y-74600000D03*
X145720000Y-74600000D03*
X143180000Y-74600000D03*
X140640000Y-74600000D03*
X138100000Y-74600000D03*
X135560000Y-74600000D03*
X133020000Y-74600000D03*
X130480000Y-74600000D03*
X130480000Y-82220000D03*
X133020000Y-82220000D03*
X135560000Y-82220000D03*
X138100000Y-82220000D03*
X140640000Y-82220000D03*
X143180000Y-82220000D03*
X145720000Y-82220000D03*
X148260000Y-82220000D03*
X150800000Y-82220000D03*
X153340000Y-82220000D03*
X155880000Y-82220000D03*
X158420000Y-82220000D03*
X160960000Y-82220000D03*
X163500000Y-82220000D03*
%TD*%
D10*
%TO.C,J6*%
X109460000Y-94905000D03*
D11*
X106920000Y-94905000D03*
X109460000Y-92365000D03*
X106920000Y-92365000D03*
X109460000Y-89825000D03*
X106920000Y-89825000D03*
%TD*%
D14*
%TO.C,D7*%
X146990000Y-58344000D03*
D15*
X146990000Y-55804000D03*
%TD*%
D14*
%TO.C,D9*%
X119050000Y-96698000D03*
D15*
X121590000Y-96698000D03*
%TD*%
D14*
%TO.C,D2*%
X160960000Y-58344000D03*
D15*
X160960000Y-55804000D03*
%TD*%
D12*
%TO.C,SW1*%
X141148000Y-66726000D03*
D13*
X141148000Y-69266000D03*
X148768000Y-69266000D03*
X148768000Y-66726000D03*
%TD*%
D14*
%TO.C,D1*%
X163754000Y-58344000D03*
D15*
X163754000Y-55804000D03*
%TD*%
D12*
%TO.C,RN1*%
X141402000Y-63424000D03*
D13*
X143942000Y-63424000D03*
X146482000Y-63424000D03*
X149022000Y-63424000D03*
X151562000Y-63424000D03*
X154102000Y-63424000D03*
X156642000Y-63424000D03*
X159182000Y-63424000D03*
X161722000Y-63424000D03*
%TD*%
D14*
%TO.C,D4*%
X155372000Y-58344000D03*
D15*
X155372000Y-55804000D03*
%TD*%
D16*
%TO.C,MH1*%
X115240000Y-49200000D03*
%TD*%
D17*
%TO.C,C2*%
X112700000Y-78410000D03*
X112700000Y-75910000D03*
%TD*%
%TO.C,C3*%
X112700000Y-64400000D03*
X112700000Y-59400000D03*
%TD*%
D14*
%TO.C,D8*%
X143942000Y-58349000D03*
D15*
X143942000Y-55809000D03*
%TD*%
D12*
%TO.C,J5*%
X108670000Y-62800000D03*
D17*
X108670000Y-60300000D03*
X106670000Y-60300000D03*
X106670000Y-62800000D03*
D18*
X103810000Y-67550000D03*
X103810000Y-55550000D03*
%TD*%
D19*
%TO.C,Y1*%
X117018000Y-76432000D03*
X117018000Y-71552000D03*
%TD*%
D17*
%TO.C,R1*%
X102540000Y-84760000D03*
D13*
X112700000Y-84760000D03*
%TD*%
D14*
%TO.C,D5*%
X152578000Y-58344000D03*
D15*
X152578000Y-55804000D03*
%TD*%
D14*
%TO.C,D6*%
X149784000Y-58349000D03*
D15*
X149784000Y-55809000D03*
%TD*%
D16*
%TO.C,MH2*%
X113970000Y-97460000D03*
%TD*%
%TO.C,MH3*%
X166040000Y-64440000D03*
%TD*%
D14*
%TO.C,D3*%
X158166000Y-58344000D03*
D15*
X158166000Y-55804000D03*
%TD*%
D16*
%TO.C,MH4*%
X166040000Y-92380000D03*
%TD*%
D17*
%TO.C,C1*%
X112700000Y-72060000D03*
X112700000Y-69560000D03*
%TD*%
D20*
%TO.C,SW2*%
X105030000Y-80930000D03*
X105030000Y-73920000D03*
D21*
X102540000Y-79680000D03*
X102540000Y-75180000D03*
%TD*%
D17*
%TO.C,R2*%
X128194000Y-91872000D03*
D13*
X118034000Y-91872000D03*
%TD*%
M02*
