M48
; DRILL file {KiCad 7.0.5} date Mon Nov 13 20:32:42 2023
; FORMAT={-:-/ absolute / inch / decimal}
; #@! TF.CreationDate,2023-11-13T20:32:42+01:00
; #@! TF.GenerationSoftware,Kicad,Pcbnew,7.0.5
; #@! TF.FileFunction,Plated,1,2,PTH
FMAT,2
INCH
; #@! TA.AperFunction,Plated,PTH,ViaDrill
T1C0.0157
; #@! TA.AperFunction,Plated,PTH,ComponentDrill
T2C0.0315
; #@! TA.AperFunction,Plated,PTH,ComponentDrill
T3C0.0354
; #@! TA.AperFunction,Plated,PTH,ComponentDrill
T4C0.0374
; #@! TA.AperFunction,Plated,PTH,ComponentDrill
T5C0.0390
; #@! TA.AperFunction,Plated,PTH,ComponentDrill
T6C0.0394
; #@! TA.AperFunction,Plated,PTH,ComponentDrill
T7C0.0512
; #@! TA.AperFunction,Plated,PTH,ComponentDrill
T8C0.0906
%
G90
G05
T1
X4.787Y-3.287
X4.787Y-3.287
X4.837Y-3.287
X4.887Y-3.237
X5.037Y-2.987
X6.287Y-3.697
T2
X4.037Y-3.337
X4.437Y-2.3386
X4.437Y-2.5354
X4.437Y-2.7386
X4.437Y-2.837
X4.437Y-2.9886
X4.437Y-3.087
X4.437Y-3.337
X4.607Y-2.817
X4.607Y-3.0091
X4.647Y-3.617
X5.047Y-3.617
X5.137Y-2.937
X5.137Y-3.237
X5.237Y-2.937
X5.237Y-3.237
X5.337Y-2.937
X5.337Y-3.237
X5.437Y-2.937
X5.437Y-3.237
X5.537Y-2.937
X5.537Y-3.237
X5.557Y-2.627
X5.557Y-2.727
X5.567Y-2.497
X5.637Y-2.937
X5.637Y-3.237
X5.667Y-2.497
X5.737Y-2.937
X5.737Y-3.237
X5.767Y-2.497
X5.837Y-2.937
X5.837Y-3.237
X5.857Y-2.627
X5.857Y-2.727
X5.867Y-2.497
X5.937Y-2.937
X5.937Y-3.237
X5.967Y-2.497
X6.037Y-2.937
X6.037Y-3.237
X6.067Y-2.497
X6.137Y-2.937
X6.137Y-3.237
X6.167Y-2.497
X6.237Y-2.937
X6.237Y-3.237
X6.267Y-2.497
X6.337Y-2.937
X6.337Y-3.237
X6.367Y-2.497
X6.437Y-2.937
X6.437Y-3.237
T3
X4.687Y-3.807
X4.787Y-3.807
X5.667Y-2.1972
X5.667Y-2.2972
X5.787Y-2.197
X5.787Y-2.297
X5.897Y-2.1972
X5.897Y-2.2972
X6.007Y-2.197
X6.007Y-2.297
X6.117Y-2.197
X6.117Y-2.297
X6.227Y-2.197
X6.227Y-2.297
X6.337Y-2.197
X6.337Y-2.297
X6.447Y-2.197
X6.447Y-2.297
T4
X4.1996Y-2.374
X4.1996Y-2.4724
X4.2783Y-2.374
X4.2783Y-2.4724
T5
X4.037Y-2.9598
X4.037Y-3.137
T6
X4.2094Y-3.5364
X4.2094Y-3.6364
X4.2094Y-3.7364
X4.3094Y-3.5364
X4.3094Y-3.6364
X4.3094Y-3.7364
X4.677Y-1.937
X4.777Y-1.937
X4.877Y-1.937
X4.977Y-1.937
X5.037Y-3.837
X5.077Y-1.937
X5.137Y-3.837
X5.177Y-1.937
X5.237Y-3.837
X5.277Y-1.937
X5.337Y-3.837
X5.377Y-1.937
X5.437Y-3.837
X5.477Y-1.937
X5.537Y-3.837
X5.577Y-1.937
X5.637Y-3.837
X5.737Y-1.937
X5.737Y-3.837
X5.837Y-1.937
X5.937Y-1.937
X5.937Y-3.837
X6.037Y-1.937
X6.037Y-3.837
X6.137Y-1.937
X6.137Y-3.837
X6.237Y-1.937
X6.237Y-3.837
X6.337Y-1.937
X6.337Y-3.837
X6.437Y-1.937
X6.437Y-3.837
T7
X4.135Y-2.9102
X4.135Y-3.1862
T8
X4.087Y-2.187
X4.087Y-2.6594
T0
M30
